<svg id="Layer_1" data-name="Layer 1" xmlns="http://www.w3.org/2000/svg" viewBox="0 0 1600.85 1093.42"><defs><style>.cls-1{isolation:isolate;opacity:0.65;}.cls-2,.cls-4{fill:none;}.cls-2{stroke:#fff;stroke-miterlimit:10;stroke-width:7px;}.cls-3{fill:#fff;}</style></defs><g id="BG"><polygon id="Background" class="cls-1" points="3.5 9.12 3.5 820.1 95.57 912.17 692.52 912.17 870.27 1089.92 1596.18 1089.92 1596.18 132.29 1545.57 81.68 1474.84 10.95 3.5 9.12"/><polygon id="Background-2" class="cls-2" points="3.5 9.12 3.5 820.1 95.57 912.17 692.52 912.17 870.27 1089.92 1596.18 1089.92 1596.18 132.29 1545.57 81.68 1474.84 10.95 3.5 9.12"/></g><g id="Elements"><polygon class="cls-3" points="1533.48 873.26 1586.15 820.59 1586.15 906.19 1534.82 957.52 1533.48 873.26"/><polygon class="cls-3" points="1533.48 771.26 1586.15 718.59 1586.15 804.19 1534.82 855.52 1533.48 771.26"/><polygon class="cls-3" points="1533.48 669.26 1586.15 616.59 1586.15 702.19 1534.82 753.52 1533.48 669.26"/><polygon class="cls-3" points="1533.48 567.26 1586.15 514.59 1586.15 600.19 1534.82 651.52 1533.48 567.26"/><polygon class="cls-3" points="1533.48 465.26 1586.15 412.59 1586.15 498.19 1534.82 549.52 1533.48 465.26"/><polygon class="cls-3" points="1533.48 363.26 1586.15 310.59 1586.15 396.19 1534.82 447.52 1533.48 363.26"/><polygon class="cls-3" points="518.3 938.87 655.28 1074.85 803.45 1074.85 667.17 938.57 518.3 938.87"/><polygon class="cls-3" points="318.31 938.87 455.28 1074.85 603.45 1074.85 467.17 938.57 318.31 938.87"/><polygon class="cls-3" points="118.31 938.87 255.28 1074.85 403.45 1074.85 267.17 938.57 118.31 938.87"/></g><rect class="cls-4" x="61.99" y="53.05" width="983.68" height="719.09"/><rect class="cls-4" x="1036.56" y="66.77" width="549.59" height="394.47"/><rect class="cls-4" x="250.04" y="53.05" width="339.93" height="428.01"/><polygon class="cls-3" points="0 961.43 0 1074.85 114.64 1074.85 0 961.43"/></svg>