<svg height='100px' width='100px'  fill="#000000" xmlns:sketch="http://www.bohemiancoding.com/sketch/ns" xmlns="http://www.w3.org/2000/svg" xmlns:xlink="http://www.w3.org/1999/xlink" version="1.1" x="0px" y="0px" viewBox="0 0 100 100" enable-background="new 0 0 100 100" xml:space="preserve"><title>removeTag</title><desc>Created with Sketch.</desc><path fill="#000000" d="M93.8,47L73.5,25.3c-1.5-1.6-4.5-2.9-6.7-2.9H9c-2.2,0-4,1.8-4,4v47.1c0,2.2,1.8,4,4,4h57.9  c2.2,0,5.2-1.3,6.7-2.9l20.2-21.8C95.3,51.2,95.3,48.7,93.8,47z M48.9,53H25.5c-1.6,0-2.9-1.3-2.9-2.9c0-1.6,1.3-2.9,2.9-2.9h23.4  c1.6,0,2.9,1.3,2.9,2.9C51.8,51.7,50.5,53,48.9,53z"></path></svg>