<?xml version="1.0" encoding="utf-8"?>
<!-- Generator: Adobe Illustrator 25.2.3, SVG Export Plug-In . SVG Version: 6.00 Build 0)  -->
<svg version="1.1" id="Layer_1" xmlns="http://www.w3.org/2000/svg" xmlns:xlink="http://www.w3.org/1999/xlink" x="0px" y="0px"
	 viewBox="0 0 512 512" style="enable-background:new 0 0 512 512;" xml:space="preserve">
<style type="text/css">
	.st0{clip-path:url(#SVGID_2_);}
	.st1{fill:#010101;}
	.st2{fill:#555455;}
	.st3{fill:#FFFFFF;}
	.st4{fill:none;stroke:#61BC52;stroke-miterlimit:100;}
	.st5{fill:url(#SVGID_3_);}
</style>
<g id="DDR_Arrow_x5F_Raw_Paths.psd_5_">
	<defs>
		<rect id="SVGID_1_" width="512" height="512"/>
	</defs>
	<clipPath id="SVGID_2_">
		<use xlink:href="#SVGID_1_"  style="overflow:visible;"/>
	</clipPath>
	<g id="Stroke_10_" class="st0">
		<g>
			<polygon class="st1" points="256.81,33.78 254.94,33.78 36.86,251.85 36.86,294.4 79.36,336.9 122.88,336.9 185.09,274.69 
				185.09,412.42 241.66,468.99 270.08,468.99 326.66,412.42 326.66,274.69 388.86,336.9 432.38,336.9 474.88,294.4 474.88,251.85 
							"/>
		</g>
	</g>
	<g id="Inner_Base_10_" class="st0">
		<g>
			<polygon class="st2" points="256.77,62.72 255.23,62.72 75.52,251.67 75.52,288.53 110.54,308.48 203.07,219.9 203.05,390.79 
				244.29,439.81 267.71,439.81 308.69,390.79 308.67,219.9 401.46,308.48 436.48,288.53 436.48,251.67 			"/>
		</g>
	</g>
	<g id="Inner_1_10_" class="st0">
		<g>
			<polygon class="st3" points="256.81,284.67 254.94,284.67 225.75,313.86 225.75,396.03 239.06,409.34 272.68,409.34 
				285.99,396.03 285.99,313.86 			"/>
		</g>
		<g>
			<polygon class="st4" points="256.81,284.67 254.94,284.67 225.75,313.86 225.75,396.03 239.06,409.34 272.68,409.34 
				285.99,396.03 285.99,313.86 			"/>
		</g>
	</g>
	<g id="Inner_2_10_" class="st0">
		<g>
			<polygon class="st3" points="256.81,182.53 254.94,182.53 225.75,211.71 225.75,300.03 243.16,282.62 268.58,282.62 
				285.99,300.03 285.99,211.71 			"/>
		</g>
		<g>
			<polygon class="st4" points="256.81,182.53 254.94,182.53 225.75,211.71 225.75,300.03 243.16,282.62 268.58,282.62 
				285.99,300.03 285.99,211.71 			"/>
		</g>
	</g>
	<g id="Inner_3_10_" class="st0">
		<g>
			<polygon class="st3" points="256.77,83.46 254.94,83.46 81.62,256.77 81.62,284.42 90.37,293.16 116.99,293.16 190.76,219.39 
				219.39,219.39 254.94,183.85 256.77,183.83 292.31,219.37 320.94,219.37 394.71,293.12 421.34,293.12 430.08,284.38 
				430.08,256.73 			"/>
		</g>
		<g>
			<polygon class="st4" points="256.77,83.46 254.94,83.46 81.62,256.77 81.62,284.42 90.37,293.16 116.99,293.16 190.76,219.39 
				219.39,219.39 254.94,183.85 256.77,183.83 292.31,219.37 320.94,219.37 394.71,293.12 421.34,293.12 430.08,284.38 
				430.08,256.73 			"/>
		</g>
	</g>
	<g class="st0">
		<linearGradient id="SVGID_3_" gradientUnits="userSpaceOnUse" x1="256.2221" y1="454.2286" x2="256.2221" y2="51.4558">
			<stop  offset="0" style="stop-color:#D1E4A5"/>
			<stop  offset="0.5" style="stop-color:#ACD479"/>
			<stop  offset="1" style="stop-color:#76B83F"/>
		</linearGradient>
		<path class="st5" d="M458.5,292.45c-0.44,0.4-0.9,0.79-1.32,1.21c-8.78,8.77-17.56,17.54-26.31,26.33
			c-0.81,0.82-1.63,1.19-2.8,1.19c-11.81-0.04-23.62-0.03-35.43,0c-1.06,0-1.83-0.3-2.59-1.06c-19.91-19.95-39.84-39.88-59.78-59.79
			c-0.72-0.72-1.07-1.45-1.04-2.47c0.06-2.09-0.01-4.18,0.03-6.27c0.02-0.89-0.23-1.32-1.22-1.31c-3.96,0.04-7.93,0.03-11.9,0.01
			c-0.82,0-1.18,0.31-1.13,1.13c0.03,0.47,0,0.94,0,1.41c0,50.95,0,101.91,0.04,152.86c0,1.44-0.43,2.45-1.45,3.46
			c-14.65,14.59-29.27,29.22-43.87,43.87c-0.85,0.85-1.69,1.23-2.91,1.23c-7.12-0.05-14.24-0.04-21.36-0.01
			c-1.02,0-1.76-0.29-2.48-1.02c-14.82-14.85-29.65-29.69-44.51-44.5c-0.87-0.86-1-1.77-1-2.87c0.01-51,0.02-101.99,0.02-152.99
			c0-0.43-0.03-0.86,0-1.28c0.08-0.91-0.25-1.31-1.23-1.3c-3.92,0.04-7.85,0.04-11.77,0c-0.95-0.01-1.27,0.35-1.25,1.28
			c0.04,2.17-0.01,4.35,0.02,6.52c0.01,0.83-0.24,1.45-0.83,2.04c-20.09,20.07-40.17,40.15-60.24,60.24
			c-0.55,0.55-1.13,0.81-1.92,0.81c-12.11-0.02-24.22-0.02-36.33,0c-0.78,0-1.37-0.24-1.93-0.79c-9.09-9.12-18.2-18.22-27.32-27.32
			c-0.56-0.56-0.76-1.17-0.76-1.94c0.01-12.41,0.02-24.82-0.01-37.22c0-1.02,0.45-1.65,1.11-2.31
			c13.18-13.17,26.36-26.34,39.53-39.52c53.03-53.03,106.07-106.07,159.1-159.1c0.49-0.49,0.94-1.01,1.41-1.51c0.77,0,1.54,0,2.3,0
			c0.4,0.44,0.79,0.89,1.21,1.31c66.19,66.19,132.38,132.38,198.57,198.56c0.42,0.42,0.87,0.81,1.31,1.22
			C458.5,265.85,458.5,279.15,458.5,292.45z M256.16,178.82c3.28,0,6.57,0.05,9.85-0.02c1.21-0.03,2.07,0.35,2.92,1.21
			c8.9,8.95,17.85,17.86,26.75,26.81c0.86,0.86,1.72,1.2,2.92,1.19c6.18-0.05,12.37,0.01,18.55-0.05c1.27-0.01,2.14,0.4,3.02,1.28
			c14.72,14.76,29.47,29.5,44.22,44.24c11.1,11.09,22.19,22.19,33.28,33.29c0.62,0.63,1.23,1.07,2.2,1.06
			c5.07-0.04,10.15-0.03,15.22-0.01c0.79,0,1.37-0.25,1.92-0.81c1.54-1.59,3.1-3.17,4.71-4.7c0.67-0.64,0.94-1.33,0.93-2.25
			c-0.03-5.84-0.05-11.68,0.01-17.52c0.01-1.38-0.38-2.37-1.37-3.36c-54.29-54.24-108.56-108.51-162.83-162.78
			c-0.27-0.27-0.53-0.55-0.82-0.81c-0.88-0.8-1.86-0.81-2.73-0.04c-0.32,0.28-0.61,0.6-0.91,0.9
			c-54.21,54.21-108.42,108.42-162.62,162.63c-0.21,0.21-0.41,0.44-0.64,0.63c-0.64,0.53-0.87,1.19-0.86,2.02
			c0.02,6.18,0.02,12.36,0,18.55c0,0.79,0.25,1.37,0.81,1.92c1.59,1.54,3.17,3.1,4.7,4.71c0.64,0.67,1.33,0.94,2.25,0.93
			c4.73-0.03,9.47-0.06,14.2,0.01c1.39,0.02,2.37-0.4,3.35-1.39c25.72-25.77,51.48-51.51,77.21-77.28c0.85-0.85,1.71-1.22,2.92-1.21
			c6.22,0.05,12.45,0,18.67,0.05c1.16,0.01,1.99-0.35,2.8-1.17c8.87-8.92,17.79-17.79,26.65-26.72c0.96-0.96,1.91-1.36,3.26-1.33
			C249.85,178.88,253.01,178.82,256.16,178.82z M283.96,351.8c0,0,0.01,0,0.01,0c0-11.26-0.01-22.51,0.02-33.77
			c0-1.02-0.3-1.76-1.02-2.48c-8.31-8.27-16.59-16.57-24.89-24.86c-1.43-1.43-2.23-1.43-3.65-0.01
			c-8.29,8.29-16.58,16.59-24.89,24.86c-0.72,0.72-1.03,1.45-1.03,2.47c0.03,22.56,0.03,45.11,0.02,67.67c0,0.92,0.27,1.6,0.93,2.25
			c4.61,4.56,9.19,9.14,13.75,13.75c0.68,0.69,1.37,1,2.35,1c7.12-0.04,14.24-0.03,21.36,0c0.98,0,1.68-0.3,2.36-0.99
			c4.5-4.55,9.02-9.07,13.57-13.56c0.79-0.78,1.13-1.57,1.12-2.69C283.95,374.23,283.96,363.02,283.96,351.8z M283.99,294.53
			c0.32-0.52,0.22-0.91,0.22-1.28c0.01-25.62,0-51.24,0.03-76.86c0-0.98-0.31-1.67-1-2.36c-8.4-8.36-16.77-16.75-25.15-25.13
			c-1.48-1.48-2.23-1.47-3.74,0.03c-8.32,8.32-16.63,16.65-24.97,24.94c-0.83,0.82-1.13,1.67-1.13,2.82
			c0.03,25.45,0.02,50.9,0.03,76.35c0,0.45-0.15,0.93,0.17,1.36c0.53-0.1,0.77-0.54,1.08-0.85c4.62-4.6,9.25-9.2,13.83-13.85
			c0.82-0.83,1.66-1.15,2.81-1.14c6.74,0.04,13.47,0.04,20.21,0c1.11-0.01,1.92,0.31,2.7,1.1c4.58,4.64,9.21,9.24,13.82,13.85
			C283.24,293.84,283.58,294.14,283.99,294.53z"/>
	</g>
</g>
</svg>
