<svg width="37" height="28" viewBox="0 0 37 28" fill="none" xmlns="http://www.w3.org/2000/svg">
<path d="M37 19.2872C36.9213 19.1298 37 19.0511 37 18.8936C37 17.2404 36.8426 15.5872 36.4489 13.934C35.583 9.91915 34.0085 6.21915 31.7255 2.75532C31.4894 2.3617 31.1745 2.12553 30.7809 1.96808C30.1511 1.73191 29.5213 1.41702 28.8915 1.25957C27.3957 0.708511 25.9 0.314894 24.3255 0.0787233C24.2468 0.0787233 24.1681 0.0787233 24.1681 0.0787233C23.7745 -7.62496e-08 23.5383 0.0787233 23.3809 0.47234C23.2234 0.787234 23.066 1.10213 22.9085 1.49574C22.7511 1.96809 22.6723 1.96809 22.2 1.88936C21.4128 1.81064 20.6255 1.73191 19.8383 1.65319C18.1851 1.57447 16.5319 1.65319 14.8787 1.88936C14.5638 1.96809 14.3277 1.81064 14.2489 1.49574C14.0915 1.10213 13.934 0.708511 13.6979 0.314894C13.5404 0.0787235 13.383 0 13.1468 0C12.8319 0 12.517 0.0787233 12.2021 0.0787233C9.99787 0.47234 8.02979 1.10213 6.0617 2.04681C5.74681 2.20426 5.58936 2.3617 5.35319 2.59787C3.38511 5.58936 1.88936 8.7383 1.0234 12.2021C0.551064 14.0915 0.157447 16.0596 0.0787234 18.0277C0.0787234 18.4213 0.0787234 18.8149 0 19.2085C0 19.2872 0 19.2872 0 19.366C0.0787234 19.5234 1.75961e-08 19.6808 0.0787234 19.8383C0.0787234 19.9957 0.0787234 20.1532 0.0787234 20.3106C0.0787234 20.4681 0.157447 20.6255 0 20.783C0 20.8617 0 20.8617 0 20.9404C0.0787234 21.4915 0.0787234 22.1213 0.0787234 22.6723C0.0787234 23.1447 0.23617 23.4596 0.629787 23.6957C1.73191 24.483 2.83404 25.1915 4.09362 25.8213C5.74681 26.6872 7.47872 27.4745 9.36808 27.9468C9.44681 27.9468 9.52553 27.9468 9.60426 27.9468C9.84043 27.8681 9.91915 27.7106 10.0766 27.4745C10.5489 26.766 10.9426 26.1362 11.3362 25.3489C11.7298 24.6404 11.7298 24.6404 10.9426 24.3255C10.234 24.0106 9.60426 23.6957 8.97447 23.3808C8.65957 23.2234 8.65957 23.1447 8.97447 22.9085C9.21064 22.6723 9.44681 22.7511 9.68298 22.9085C10.6277 23.3021 11.5723 23.6957 12.5957 23.9319C15.4298 24.7191 18.2638 24.9553 21.1766 24.6404C23.3021 24.4043 25.3489 23.7745 27.317 22.9085C27.4745 22.8298 27.5532 22.8298 27.7106 22.7511C27.8681 22.7511 28.2617 22.9085 28.2617 23.066C28.2617 23.3021 28.1043 23.3021 27.9468 23.3808C27.8681 23.4596 27.7894 23.4596 27.7106 23.5383C27.0809 23.8532 26.4511 24.1681 25.8213 24.4043C25.4277 24.5617 25.3489 24.7191 25.5851 25.1128C25.7426 25.4277 25.9787 25.8213 26.1362 26.1362C26.5298 26.766 26.8447 27.3957 27.3957 27.8681C27.4745 27.8681 27.5532 27.8681 27.6319 27.8681C27.9468 27.7894 28.2617 27.7106 28.5766 27.6319C31.3319 26.6872 33.9298 25.3489 36.2915 23.617C36.7638 23.3021 36.9213 22.9872 36.9213 22.4362C36.9213 21.8851 36.9213 21.2553 37 20.7043C37 20.6255 37 20.4681 37 20.3894C36.9213 19.9957 36.9213 19.6809 37 19.2872C37 19.366 37 19.4447 37 19.2872ZM15.666 15.1936C15.666 16.2957 15.3511 17.1617 14.7213 17.9489C13.4617 19.366 11.4149 19.4447 10.1553 18.1064C8.81702 16.7681 8.65957 14.4064 9.91915 12.9106C10.7064 11.966 11.7298 11.4936 12.9894 11.7298C14.2489 11.966 15.0362 12.7532 15.5085 13.934C15.666 14.4064 15.7447 14.8787 15.666 15.1936ZM27.317 17.634C26.0574 19.6021 23.4596 19.6021 22.0426 17.7128C21.0979 16.4532 21.0979 14.6426 21.8851 13.3043C22.5936 12.2021 23.5383 11.6511 24.8766 11.7298C26.2936 11.8872 27.1596 12.7532 27.7106 14.0915C27.8681 14.5638 27.9468 15.0362 27.9468 15.2723C27.9468 16.217 27.7106 16.9255 27.317 17.634Z" fill="white"/>
<path d="M36.9999 20.5467C36.8425 20.1531 36.8425 19.8382 36.9999 19.4446C36.9999 19.8382 36.9999 20.2318 36.9999 20.5467Z" fill="white"/>
<path d="M0.0787234 19.7595C0.0787234 19.917 0.0787234 20.1531 0.0787234 20.3106H0C0 20.1531 1.75961e-08 19.9957 0.0787234 19.7595C1.75961e-08 19.7595 0.0787234 19.7595 0.0787234 19.7595Z" fill="white"/>
<path d="M0.0787234 19.7597C1.75961e-08 19.6022 0 19.4448 0 19.2874C0.157447 19.4448 0.0787234 19.6022 0.0787234 19.7597Z" fill="white"/>
<path d="M0 20.3105C0 20.3105 0.0787234 20.3105 0 20.3105C0.0787234 20.468 0.157447 20.6254 0 20.7829C0 20.6254 0 20.468 0 20.3105Z" fill="white"/>
</svg>
