<svg xmlns="http://www.w3.org/2000/svg" xmlns:xlink="http://www.w3.org/1999/xlink" viewBox="0 0 256 256"><defs><style>.cls-1{fill:#545454;}.cls-2{fill:url(#linear-gradient);}.cls-3{fill:url(#linear-gradient-2);}.cls-4{fill:url(#linear-gradient-3);}.cls-5{fill:url(#linear-gradient-4);}.cls-6{fill:url(#linear-gradient-5);}.cls-7{fill:url(#linear-gradient-6);}.cls-8{fill:url(#linear-gradient-7);}.cls-9{fill:url(#linear-gradient-8);}.cls-10{fill:url(#linear-gradient-9);}.cls-11{fill:url(#linear-gradient-10);}.cls-12{fill:url(#linear-gradient-11);}</style><linearGradient id="linear-gradient" x1="-287.03" y1="202.93" x2="-260.12" y2="202.93" gradientTransform="translate(294.81 434.23) rotate(90)" gradientUnits="userSpaceOnUse"><stop offset="0" stop-color="#fff"/><stop offset="1" stop-color="#f3f6f3" stop-opacity="0"/></linearGradient><linearGradient id="linear-gradient-2" x1="-313.93" y1="207.7" x2="-287.03" y2="207.7" xlink:href="#linear-gradient"/><linearGradient id="linear-gradient-3" x1="109.81" y1="283.96" x2="104.87" y2="141.2" gradientTransform="matrix(1, 0, 0, 1, 0, 0)" xlink:href="#linear-gradient"/><linearGradient id="linear-gradient-4" x1="130.6" y1="260.34" x2="128.25" y2="157.78" gradientTransform="matrix(1, 0, 0, 1, 0, 0)" xlink:href="#linear-gradient"/><linearGradient id="linear-gradient-5" x1="131.44" y1="200.95" x2="126.8" y2="35.33" gradientTransform="matrix(1, 0, 0, 1, 0, 0)" xlink:href="#linear-gradient"/><linearGradient id="linear-gradient-6" x1="129.48" y1="245.38" x2="126.31" y2="107.38" gradientTransform="matrix(1, 0, 0, 1, 0, 0)" xlink:href="#linear-gradient"/><linearGradient id="linear-gradient-7" x1="166.87" y1="174.16" x2="165.93" y2="133.63" gradientTransform="matrix(1, 0, 0, 1, 0, 0)" xlink:href="#linear-gradient"/><linearGradient id="linear-gradient-8" x1="167.37" y1="156.91" x2="165.99" y2="97.04" gradientTransform="matrix(1, 0, 0, 1, 0, 0)" xlink:href="#linear-gradient"/><linearGradient id="linear-gradient-9" x1="103.91" y1="175.62" x2="100.75" y2="38.29" gradientTransform="matrix(1, 0, 0, 1, 0, 0)" xlink:href="#linear-gradient"/><linearGradient id="linear-gradient-10" x1="128.49" y1="115.67" x2="127.73" y2="82.6" gradientTransform="matrix(1, 0, 0, 1, 0, 0)" xlink:href="#linear-gradient"/><linearGradient id="linear-gradient-11" x1="140.47" y1="105.03" x2="137.23" y2="-35.96" gradientTransform="matrix(1, 0, 0, 1, 0, 0)" xlink:href="#linear-gradient"/></defs><g id="Layer_2" data-name="Layer 2"><path class="cls-1" d="M95.08,180.68l-35.6-48.84,3.13,2.06L61.29,132l10.52,7.78,2.38,1.74,17.11,11.3L49.9,103.05l46.4,27.79L81.53,113l31.29,18.73-2.16-16.38L74.44,83.13,128,4.54l53.52,78.59-36.22,32.23L143.32,130l28.38-17-17.37,21L206,103.09l-41.07,49.56,31.54-20.81-35.6,48.83L128.15,251ZM128,96.56l16-14.22L128,54.48,112,82.34Z"/><path d="M128,8.31l50.72,74.47L143.25,114.3l-2.61,19.78,21.54-12.89-17.38,21,51.62-30.9-42.26,51,33.64-22.19L159,179.59,128.14,246l-31.22-66.4L68.11,140.07l2.68,1.77-.24-.33,2.39,1.75,29,19.11.14,0L59.48,111.26,105.83,139,91.06,121.19l24.43,14.62-2.83-21.51L77.24,82.78,128,8.31m0,91.09,18.68-16.62L128,50.22,109.27,82.78,128,99.4M128,.77l-3.5,5.15L73.73,80.4l-2.09,3.08L74.42,86l34.24,30.47,1.48,11.25-16.9-10.12L72,104.84l14.76,17.82-25.11-15L40.31,94.84,56.22,114,80.5,143.17l-5.14-3.4-2.28-1.67L51.9,122.43l2.47,3.49-3.51-2.31,13.82,19,28.57,39.19,31.05,66,3.86,8.21,3.82-8.23,30.68-66,28.56-39.18,13.82-19-19.58,12.92L175.6,143,199.69,114l15.78-19-21.23,12.71-30.39,18.19,1.59-1.93,15.79-19L160,117.55l-14,8.38,1.26-9.51L181.49,86l2.78-2.47-2.1-3.08L131.46,5.92,128,.77ZM114.67,81.9,128,58.74,141.24,81.9,128,93.73,114.67,81.9Z"/></g><g id="Layer_1" data-name="Layer 1"><path class="cls-2" d="M75.78,147.21s12.17,15.17,15.89,19S108,174.11,108,174.11L93,160.66l7,3.86Z"/><path class="cls-3" d="M71,120.3s12.16,15.17,15.88,19,16.32,7.88,16.32,7.88l-15-13.46,7,3.87Z"/><path class="cls-4" d="M127.47,154.4l-.44.25-23.59-13.6,9.82,13.1-30.8-20.4,28.27,37.61-.09,0-19.24-14L89.82,156l.15.25-1.78-1.3,19.14,29,20.14,54Z"/><polygon class="cls-5" points="111.37 194.81 127.47 237.99 146.77 192.51 127.52 226.89 111.37 194.81"/><path class="cls-6" d="M77.8,82a145.93,145.93,0,0,0,40,8.38l-8.49-7.55L128,50.22l18.68,32.56L138,90.42a147.16,147.16,0,0,0,40.38-8L128,8.31Z"/><polygon class="cls-7" points="122.25 184.37 127.47 215.25 133.9 184.37 127.58 154.66 122.25 184.37"/><polygon class="cls-8" points="153.11 165.61 179.81 147.21 166.46 160.66 153.11 165.61"/><polygon class="cls-9" points="144.26 144.35 189.28 117.03 167.85 136.9 144.26 144.35"/><polygon class="cls-10" points="118.67 145.24 116.07 112.02 83.42 85.75 97.67 90.42 120.82 110.09 118.67 145.24"/><polygon class="cls-11" points="117.77 94.17 127.95 103.56 138.22 94.17 128.11 108.45 117.77 94.17"/><polygon class="cls-12" points="109.27 40.8 127.47 12.59 169.47 73.53 127.95 19.14 109.27 40.8"/></g></svg>