<svg id="Layer_1" data-name="Layer 1" xmlns="http://www.w3.org/2000/svg" xmlns:xlink="http://www.w3.org/1999/xlink" viewBox="0 0 245.6 231.5"><defs><style>.cls-1{fill:url(#linear-gradient);}.cls-2{fill:url(#linear-gradient-2);}.cls-3{fill:url(#linear-gradient-3);}.cls-4{fill:url(#linear-gradient-4);}.cls-5{fill:url(#linear-gradient-5);}.cls-6{fill:url(#linear-gradient-6);}.cls-7{fill:url(#linear-gradient-7);}.cls-8{fill:url(#linear-gradient-8);}</style><linearGradient id="linear-gradient" x1="131.51" y1="175.85" x2="133.64" y2="136.45" gradientTransform="matrix(0, 1, 1, 0, -5.09, -14.9)" gradientUnits="userSpaceOnUse"><stop offset="0" stop-color="#727274"/><stop offset="1" stop-color="#484849"/></linearGradient><linearGradient id="linear-gradient-2" x1="130.35" y1="81.26" x2="129.82" y2="111.61" xlink:href="#linear-gradient"/><linearGradient id="linear-gradient-3" x1="121.15" y1="238.97" x2="138.19" y2="156.43" gradientTransform="matrix(0, 1, 1, 0, 2.76, -2.65)" gradientUnits="userSpaceOnUse"><stop offset="0" stop-color="#727274"/><stop offset="1" stop-color="#383839"/></linearGradient><linearGradient id="linear-gradient-4" x1="107.43" y1="-54.66" x2="137.25" y2="96.57" xlink:href="#linear-gradient-3"/><linearGradient id="linear-gradient-5" x1="128.69" y1="184.13" x2="127.09" y2="148.99" gradientTransform="matrix(0, 1, 1, 0, 2.76, -2.65)" gradientUnits="userSpaceOnUse"><stop offset="0" stop-color="#fff"/><stop offset="1" stop-color="#c1c1c1" stop-opacity="0"/></linearGradient><linearGradient id="linear-gradient-6" x1="75.8" y1="55.59" x2="114.5" y2="55.59" xlink:href="#linear-gradient-5"/><linearGradient id="linear-gradient-7" x1="131.92" y1="66.52" x2="128.19" y2="115.51" gradientTransform="matrix(0, 1, 1, 0, 2.76, -2.65)" gradientUnits="userSpaceOnUse"><stop offset="0.03" stop-color="#fff"/><stop offset="1" stop-color="#c1c1c1" stop-opacity="0"/></linearGradient><linearGradient id="linear-gradient-8" x1="91.58" y1="167.56" x2="111.62" y2="127.48" xlink:href="#linear-gradient-5"/></defs><polygon class="cls-1" points="130.5 67.6 245.6 0 172.3 88.1 230.7 49.5 181.2 117.4 127.6 231.5 130.5 67.6"/><polygon class="cls-2" points="115.1 67.6 0 0 73.3 88.1 14.9 49.5 64.4 117.4 118 231.5 115.1 67.6"/><path class="cls-3" d="M144,84.85l101-65.7s-62.5,74.7-64.4,77.3-2,3.5-.3,3.9,27-17,32.5-20.4S235,64.25,235,64.25s-12.9,18.1-15.4,21.7-31.2,36.1-33.4,40.1c-5.6,10.2-13.4,27.1-18,36.7s-20.1,46-22.4,52.1-8.6,23.6-9.5,24.1,0-15,1.8-25.3c2.9-16.6,2.9-25.4,3.9-37.3s.9-53.1,1.7-62.6S144,84.85,144,84.85Z" transform="translate(-7.85 -12.25)"/><path class="cls-4" d="M120.05,84.25,16.85,19.15s62.5,74.7,64.4,77.3,2,3.5.3,3.9-27-17-32.5-20.4-22.2-15.7-22.2-15.7,12.8,18.1,15.4,21.7,31.2,36.1,33.4,40.1c5.6,10.2,13.4,27.1,18,36.7s20.1,46,22.4,52.1,8.6,23.6,9.5,24.1.1-11.1-1.1-27.2c-1.2-16.8-2-23.9-3.1-35.9s-.4-51.4-1.2-61S120.05,84.25,120.05,84.25Z" transform="translate(-7.85 -12.25)"/><path class="cls-5" d="M155.05,84.05s59.6-42.6,59.9-43,22.3-16.8,22.3-16.8-44.7,48.6-49.9,54.4-10.4,10.8-9.8,16.7,6,7.6,10.9,6.2,42.9-34.7,42.9-34.7-18.8,23-24.3,29.3-19.8,20.5-24.7,26.8-15.7,33-18.8,40.6-14.1,36.5-17.2,43.2-6.2,21.2-7.2,21.2-1.6-1.5-.7-5.8,6.8-19.4,9.8-35.8,3.4-27.5,5-38.9a405,405,0,0,0,2.8-44.8C156,92,155.05,84.05,155.05,84.05Z" transform="translate(-7.85 -12.25)"/><path class="cls-6" d="M35.15,73.15s17.5,21.8,22.9,27.4,23.5,11.3,23.5,11.3L60,92.45l10.1,5.6Z" transform="translate(-7.85 -12.25)"/><path class="cls-7" d="M23.25,26.85s23.9,14.1,30.2,19.3,56.2,37.1,57.1,37.5,6.8,3.3,6.2,6.2-.1,41.6-.4,49.6-.6,29.9.4,33,3.5,7.4,3.3,10.9,2.9,18.5,2.9,24.3,2.1,23.3,2.1,23.3-9.7-24.9-12.2-33.2-21.2-67.7-23.7-71.7-6-12.1-6-12.1-.4-3.3.2-4.3,7.2-7,4.1-17.1S59.85,61.45,56.35,58,23.25,26.85,23.25,26.85Z" transform="translate(-7.85 -12.25)"/><path class="cls-8" d="M193.25,99.85c2.1-1.6,9.6-8.3,16.6-14.7-9.6,8-19.2,15.7-21.4,16.3-4.8,1.5-10.2-.3-10.9-6.2s4.6-11,9.8-16.8c3.3-3.5,22.8-24.7,36.4-39.5,0,0-38.4,39-41.7,42s-10.6,13.7-5.4,20.6S189,103.05,193.25,99.85Z" transform="translate(-7.85 -12.25)"/></svg>