<svg xmlns="http://www.w3.org/2000/svg" viewBox="0 0 64 64" x="0px" y="0px"><rect x="25.5" y="51.5" width="4" height="3"></rect><rect x="26.5" y="45.5" width="3" height="2"></rect><path d="M32,20.576c5.312-3.106,10.926-7.694,11.689-11.088a2.745,2.745,0,0,0-.66-2.5C41.871,5.5,41.1,5.5,40.809,5.5c-1.868,0-4.441,2.336-5.329,3.4l-1.543,1.872a2.491,2.491,0,0,1-1.923.91h-.006a2.5,2.5,0,0,1-1.921-.9L28.531,8.915C27.64,7.845,25.058,5.5,23.191,5.5c-.291,0-1.062,0-2.22,1.489a2.747,2.747,0,0,0-.66,2.5C21.074,12.882,26.688,17.47,32,20.576Z"></path><path d="M27.561,22.526A6.488,6.488,0,0,1,30.5,27.991V59a.5.5,0,0,1-.5.5H24.5v3h9V27.991a6.488,6.488,0,0,1,2.939-5.465C40.263,20.039,46.807,15.1,47.671,9.962a6.755,6.755,0,0,0-1.484-5.429,6.824,6.824,0,0,0-5.3-3.032H40.81c-4.384,0-8.383,4.816-8.423,4.865a.516.516,0,0,1-.774,0c-.04-.049-4.04-4.865-8.423-4.865h-.076a6.824,6.824,0,0,0-5.3,3.032,6.755,6.755,0,0,0-1.484,5.429C17.193,15.1,23.737,20.039,27.561,22.526ZM20.182,6.376C21.64,4.5,22.767,4.5,23.191,4.5c2.419,0,5.292,2.8,6.108,3.774l1.556,1.87a1.5,1.5,0,0,0,1.153.54h0a1.5,1.5,0,0,0,1.154-.546L34.71,8.264c.814-.978,3.679-3.764,6.1-3.764.424,0,1.551,0,3.009,1.876a3.729,3.729,0,0,1,.847,3.331c-.9,4-7.25,8.9-12.415,11.88a.5.5,0,0,1-.5,0c-5.165-2.981-11.516-7.881-12.415-11.88A3.73,3.73,0,0,1,20.182,6.376Z"></path><path d="M48.657,10.127a11.134,11.134,0,0,1-1.693,4.106c3.406-.27,5.021-1.081,5.676-1.555l-.92-.615c-.154.048-.294.108-.459.145a.467.467,0,0,1-.111.013.5.5,0,0,1-.11-.988,5.42,5.42,0,0,0,3.165-2.118l-1.55-.777a3.161,3.161,0,0,1-1.429.339.5.5,0,0,1,0-1c1.907,0,2.766-2.323,3.068-3.437H50.625L48.089,5.764A7.421,7.421,0,0,1,48.657,10.127Z"></path><path d="M12.928,11.226a.5.5,0,0,1-.113.987A.492.492,0,0,1,12.7,12.2c-.152-.035-.28-.091-.423-.136l-.919.614c.651.471,2.265,1.284,5.677,1.555a11.134,11.134,0,0,1-1.693-4.106,7.421,7.421,0,0,1,.568-4.363L13.375,4.24H9.706c.3,1.114,1.161,3.437,3.068,3.437a.5.5,0,1,1,0,1,3.161,3.161,0,0,1-1.429-.339L9.8,9.115A5.419,5.419,0,0,0,12.928,11.226Z"></path></svg>