<svg xmlns="http://www.w3.org/2000/svg" viewBox="0 0 36 36" x="0px" y="0px"><title>Монтажная область 94</title><g data-name="Слой 5"><path d="M35.23,31,33,33.23a.92.92,0,0,1-.5.25l-5.11,1a.92.92,0,0,1-.84-.27L25.12,32.8a.91.91,0,0,1-.24-.88l.52-2.16-2.16.52a.89.89,0,0,1-.88-.24L21,28.66a1,1,0,0,1-.26-.89l.53-2.16-2.16.53a.93.93,0,0,1-.88-.25L11.62,19.3H1.43a.92.92,0,0,1-.93-.93V11.75a.93.93,0,0,1,.93-.95H9.77V2.47a.93.93,0,0,1,1-.93h6.62a.92.92,0,0,1,.93.93V12.65l17,17A1,1,0,0,1,35.23,31Z"></path></g></svg>