<svg width="30" height="26" viewBox="0 0 30 26" fill="none" xmlns="http://www.w3.org/2000/svg">
<path d="M17.5097 25.1656C15.6908 25.1717 13.8896 24.7544 12.2479 23.9442C10.6062 23.134 9.17114 21.9489 8.04319 20.4856C7.81288 20.1893 7.75973 19.7842 7.89555 19.4335C8.03138 19.0828 8.34437 18.8289 8.71051 18.7744C9.07666 18.72 9.4428 18.8712 9.67311 19.1675C10.931 20.8182 12.6613 22.0275 14.6219 22.6261C16.5826 23.2247 18.6731 23.1763 20.6101 22.4991C22.5471 21.8158 24.2243 20.534 25.4113 18.8349C26.5983 17.1298 27.2361 15.0861 27.2361 12.994C27.2361 10.9019 26.5983 8.85817 25.4113 7.15305C24.2243 5.45398 22.5412 4.17212 20.6101 3.49491C18.6731 2.81166 16.5826 2.76933 14.6219 3.36793C12.6613 3.96654 10.931 5.17584 9.67311 6.82654C9.50185 7.05026 9.25382 7.18933 8.97626 7.21956C8.70461 7.24979 8.42705 7.17119 8.21445 6.99584C8.00185 6.82049 7.86012 6.57258 7.83059 6.29445C7.79516 6.01631 7.87193 5.73817 8.04319 5.51445C9.58453 3.507 11.6928 2.04979 14.0786 1.33026C16.4645 0.610725 19.0097 0.665144 21.366 1.48142C23.7223 2.30375 25.7715 3.85166 27.2302 5.91352C28.6889 7.97538 29.4979 10.4544 29.5274 13C29.5038 16.247 28.2282 19.3489 25.9723 21.6284C23.7223 23.9079 20.6751 25.1837 17.5097 25.1656Z" fill="white"/>
<path d="M20.2264 14.0582H1.62408C1.25203 14.0582 0.915417 13.8586 0.726441 13.5261C0.537464 13.1935 0.54337 12.7945 0.726441 12.4679C0.909511 12.1414 1.25203 11.9359 1.62408 11.9359H17.7343L15.3603 9.5112C15.1005 9.24516 14.9942 8.85213 15.0946 8.4833C15.189 8.11446 15.4725 7.83027 15.8268 7.73353C16.1871 7.63679 16.565 7.73958 16.8308 8.00562L20.9646 12.2382C21.1064 12.3893 21.2068 12.5768 21.2422 12.7824C21.2835 12.9879 21.2599 13.1996 21.1772 13.3931C21.1005 13.5866 20.9705 13.7498 20.7993 13.8707C20.628 13.9917 20.4272 14.0582 20.2264 14.0582Z" fill="white"/>
<path d="M16.0926 18.2907C15.815 18.2907 15.5552 18.1819 15.3603 17.9824C15.1654 17.7828 15.0532 17.5107 15.0532 17.2326C15.0532 16.9545 15.1654 16.6824 15.3603 16.4828L17.7343 14.0582H1.62408C1.25203 14.0582 0.915417 13.8586 0.726441 13.5261C0.537464 13.1935 0.54337 12.7945 0.726441 12.4679C0.909511 12.1414 1.25203 11.9359 1.62408 11.9359H20.2264C20.4331 11.9359 20.628 12.0024 20.7993 12.1172C20.9705 12.2321 21.1005 12.4014 21.1772 12.5949C21.254 12.7884 21.2776 13 21.2422 13.2056C21.2009 13.4112 21.1064 13.5986 20.9646 13.7498L16.8308 17.9824C16.63 18.1819 16.3701 18.2907 16.0926 18.2907Z" fill="white"/>
</svg>
