<svg width="29" height="26" viewBox="0 0 29 26" fill="none" xmlns="http://www.w3.org/2000/svg">
<path d="M3.6994 0H25.3006C27.3334 0 29 1.60232 29 3.57644V16.4481C29 18.4222 27.3334 20.0245 25.3006 20.0245H24.4215L26.0789 25.1147C26.1797 25.4157 26.0515 25.7344 25.7768 25.8938C25.6669 25.9557 25.5387 25.9911 25.4105 25.9911C25.2273 25.9911 25.0534 25.9203 24.916 25.7875L18.9457 20.0157H3.70856C1.66656 20.0157 0.00915909 18.4133 0.00915909 16.4392V3.57644C3.8147e-06 1.60232 1.66656 0 3.6994 0Z" fill="url(#paint0_linear_34_5738)"/>
<defs>
<linearGradient id="paint0_linear_34_5738" x1="14.5046" y1="42.8212" x2="14.5046" y2="4.03026" gradientUnits="userSpaceOnUse">
<stop stop-color="#42B0AD"/>
<stop offset="1" stop-color="#EFFCE9"/>
</linearGradient>
</defs>
</svg>
