<svg width="32" height="29" viewBox="0 0 32 29" fill="none" xmlns="http://www.w3.org/2000/svg">
<path d="M32 4.39394L29.3333 0L25.7778 0.878788L20.4444 4.39394H10.6667L2.66667 0L0.888889 0.878788L0 4.39394L2.75556 14.0606L1.77778 17.5758L0.888889 24.6061L1.77778 28.1212L8 25.4848L9.33333 26.803L12.3556 29H14.8444H18.0444L21.7778 25.9242L29.6 28.1212L31.1111 22.3212L28.4444 14.9394L32 4.39394ZM4 13.6212L1.33333 4.83333L2.22222 1.31818L4 2.19697L12.8889 8.34848L9.33333 11.8636L4 13.6212ZM9.33333 18.8939L11.1111 17.1364L12.8889 18.0152L13.7778 19.7727L9.33333 18.8939ZM15.5556 26.803C14.0444 26.803 12.8889 26.1879 12.8889 25.4848C12.8889 24.7818 14.0444 24.1667 15.5556 24.1667C17.0667 24.1667 18.2222 24.7818 18.2222 25.4848C18.2222 26.1879 17.0667 26.803 15.5556 26.803ZM17.3333 19.7727L18.2222 18.0152L20 17.1364L21.7778 18.8939L17.3333 19.7727ZM21.7778 11.8636L18.2222 8.34848L27.1111 2.19697L28.8889 1.31818L29.7778 4.83333L27.1111 13.6212L21.7778 11.8636Z" fill="white"/>
</svg>
