<svg width="50" height="50" viewBox="0 0 50 50" fill="none" xmlns="http://www.w3.org/2000/svg">
<path d="M22.3285 9.53574C22.3071 8.82146 22.5999 8.1286 23.1214 7.64288C23.6214 7.14288 24.3071 6.86431 25.0142 6.86431C25.7214 6.86431 26.4 7.14288 26.9071 7.64288C27.4285 8.1286 27.7071 8.82146 27.6857 9.53574V10.1429L29.8714 7.95717C29.6357 7.17146 29.2071 6.45717 28.6214 5.8786C27.6714 4.92146 26.3785 4.38574 25.0285 4.38574C23.6785 4.38574 22.3857 4.92146 21.4357 5.8786C20.4714 6.82146 19.9357 8.1286 19.9642 9.4786V17.8857L22.3642 15.4857L22.3285 9.53574Z" fill="url(#paint0_linear_34_5767)"/>
<path d="M25 25.157C26.3428 25.1427 27.6286 24.5998 28.5786 23.6498C29.5286 22.6927 30.0643 21.407 30.0643 20.0641V19.6284L24.5571 25.1356C24.7 25.1498 24.85 25.157 25 25.157Z" fill="url(#paint1_linear_34_5767)"/>
<path d="M17.1857 20.0928V17.4856C17.1857 17.1642 17.0643 16.8642 16.8429 16.6356C16.6215 16.4071 16.3143 16.2856 15.9929 16.2856C15.6715 16.2856 15.3715 16.4142 15.15 16.6428C14.9143 16.8571 14.7857 17.1642 14.7857 17.4856V20.0928C14.7786 20.9785 14.8857 21.8571 15.1 22.7142L17.1857 20.6285V20.0928Z" fill="url(#paint2_linear_34_5767)"/>
<path d="M34.0285 16.2785C33.7142 16.2857 33.4142 16.4142 33.1856 16.6357C32.957 16.8571 32.8356 17.1571 32.8285 17.4785V20.0857C32.8356 21.1357 32.6213 22.1785 32.1999 23.1428C31.8213 24.0857 31.2499 24.9357 30.5213 25.6428C29.7856 26.3499 28.9356 26.9142 27.9999 27.3214C26.1713 28.0785 24.1285 28.1142 22.2713 27.4214L20.4142 29.2785C21.457 29.8285 22.5928 30.1785 23.7642 30.2999H23.8213V33.1785H19.7999C19.4785 33.1714 19.1785 33.3071 18.957 33.5357C18.7213 33.7642 18.5856 34.0785 18.5999 34.4071C18.607 34.7214 18.7356 35.0285 18.957 35.2499C19.1785 35.4714 19.4856 35.5999 19.7999 35.6071H30.1713C30.4856 35.5999 30.7856 35.4714 31.0142 35.2499C31.2356 35.0285 31.3642 34.7285 31.3713 34.4071C31.3785 34.0785 31.2499 33.7642 31.0142 33.5357C30.7999 33.2999 30.4928 33.1714 30.1713 33.1785H26.1499V30.2928H26.207C27.4499 30.1642 28.657 29.7714 29.7499 29.1571C30.8285 28.5785 31.807 27.8142 32.6285 26.9071C33.4427 25.9857 34.0785 24.9285 34.4999 23.7785C34.9713 22.5928 35.207 21.3356 35.1927 20.0571V17.4571C35.1856 17.1428 35.057 16.8428 34.8285 16.6214C34.607 16.3999 34.307 16.2714 33.9927 16.2571L34.0285 16.2785Z" fill="url(#paint3_linear_34_5767)"/>
<path d="M13.2214 28.6785L34.7928 7.10703C35.3071 6.59274 36.2285 6.69274 36.6428 7.10703C37.1571 7.62132 37.1571 8.44989 36.6428 8.95703L15.0714 30.5285C14.5571 31.0428 13.6357 30.9428 13.2214 30.5285C12.7071 30.0213 12.7071 29.1928 13.2214 28.6785Z" fill="url(#paint4_linear_34_5767)"/>
<defs>
<linearGradient id="paint0_linear_34_5767" x1="24.9173" y1="69.3632" x2="24.9173" y2="19.5276" gradientUnits="userSpaceOnUse">
<stop stop-color="#42B0AD"/>
<stop offset="1" stop-color="#EFFCE9"/>
</linearGradient>
<linearGradient id="paint1_linear_34_5767" x1="27.3107" y1="69.3631" x2="27.3107" y2="19.5274" gradientUnits="userSpaceOnUse">
<stop stop-color="#42B0AD"/>
<stop offset="1" stop-color="#EFFCE9"/>
</linearGradient>
<linearGradient id="paint2_linear_34_5767" x1="15.9856" y1="69.3631" x2="15.9856" y2="19.5275" gradientUnits="userSpaceOnUse">
<stop stop-color="#42B0AD"/>
<stop offset="1" stop-color="#EFFCE9"/>
</linearGradient>
<linearGradient id="paint3_linear_34_5767" x1="26.8961" y1="69.3631" x2="26.8961" y2="19.5275" gradientUnits="userSpaceOnUse">
<stop stop-color="#42B0AD"/>
<stop offset="1" stop-color="#EFFCE9"/>
</linearGradient>
<linearGradient id="paint4_linear_34_5767" x1="24.9321" y1="69.3631" x2="24.9321" y2="19.5275" gradientUnits="userSpaceOnUse">
<stop stop-color="#42B0AD"/>
<stop offset="1" stop-color="#EFFCE9"/>
</linearGradient>
</defs>
</svg>
