<svg height='100px' width='100px'  fill="#000000" xmlns="http://www.w3.org/2000/svg" xmlns:xlink="http://www.w3.org/1999/xlink" xml:space="preserve" version="1.1" style="shape-rendering:geometricPrecision;text-rendering:geometricPrecision;image-rendering:optimizeQuality;" viewBox="0 0 10000 10000" x="0px" y="0px" fill-rule="evenodd" clip-rule="evenodd"><defs><style type="text/css">
   
    .fil0 {fill:#000000}
   
  </style></defs><g><path class="fil0" d="M1610 1017c1010,613 2236,1608 3390,2751 1154,-1143 2380,-2138 3390,-2751 149,-90 306,52 238,196 -750,1563 -1495,2812 -2371,3896 1086,1253 1982,2569 2376,3695 54,151 -103,266 -254,174 -1355,-829 -2447,-1629 -3379,-2511 -932,882 -2024,1682 -3379,2511 -151,92 -308,-23 -254,-174 394,-1126 1290,-2442 2376,-3695 -876,-1084 -1621,-2333 -2371,-3896 -68,-144 89,-286 238,-196z"></path></g></svg>