<svg id="Layer_1" data-name="Layer 1" xmlns="http://www.w3.org/2000/svg" viewBox="0 0 100 100"><circle cx="23.44" cy="37.5" r="6.25"/><path d="M17.19,100h12.5V90.63h6.25a12.5,12.5,0,0,0,12.5-12.5V68.66a12.49,12.49,0,0,0,9.23-18.75L48.44,34.13A34.38,34.38,0,0,0,14.06,0H8.75c-.84,0-1.67,0-2.5.08v12.5c.83,0,1.66-.11,2.5-.11h5.31A21.88,21.88,0,0,1,35.94,34.34V37.5L46.88,56.25H35.94V78.13H17.19Z"/><rect x="68.07" y="77.42" width="12.5" height="18.75" transform="translate(-39.6 77.97) rotate(-45)"/><rect x="64.93" y="31.94" width="18.75" height="12.5" transform="translate(-5.24 63.73) rotate(-45)"/><rect x="75" y="56.25" width="18.75" height="12.5"/></svg>