<svg xmlns="http://www.w3.org/2000/svg" data-name="Layer 1" viewBox="0 0 100 100" x="0px" y="0px"><title>Artboard 36</title><g><circle cx="33" cy="42" r="4"></circle><path d="M29,82h8V76h4a8,8,0,0,0,8-8V61.94a8,8,0,0,0,5.91-12L49,39.84A22,22,0,0,0,27,18H23.6c-.54,0-1.07,0-1.6.05v8c.53,0,1.06-.07,1.6-.07H27A14,14,0,0,1,41,40v2l7,12H41V68H29Z"></path><rect x="61.56" y="67.56" width="8" height="12" transform="translate(-32.81 67.89) rotate(-45)"></rect><rect x="59.56" y="38.44" width="12" height="8" transform="translate(-10.81 58.79) rotate(-45)"></rect><rect x="66" y="54" width="12" height="8"></rect></g></svg>