<svg width="31" height="48" viewBox="0 0 31 48" fill="none" xmlns="http://www.w3.org/2000/svg">
<path d="M23.3569 2.51499C23.3569 2.51499 18.9207 2.0869 13.4156 6.04677C7.91039 10.0066 7.00177 15.3578 6.57418 17.3377C6.1466 19.3177 4.75694 24.5618 5.66556 27.1304C6.57418 29.6989 7.4828 30.6086 8.97935 30.7157C8.97935 30.7157 8.49832 32.9632 9.99487 35.1036C11.4914 37.2441 13.2018 39.2775 13.7363 39.4916C14.2707 39.7056 13.3087 32.1605 12.988 30.5016C12.6673 28.8428 12.0259 25.525 11.3311 23.8662C10.6363 22.2073 12.6673 18.8896 13.1483 18.301C13.1483 18.301 14.2707 20.3344 15.5 19.6923C16.6759 19.0501 18.3328 15.5719 18.3328 15.5719C18.3328 15.5719 18.9207 18.4615 19.7759 19.3712C20.6311 20.2809 21.219 22.0468 23.5173 22.3678L23.3569 2.51499Z" fill="url(#paint0_linear_34_5748)"/>
<path d="M23.4103 24.2943C23.4103 24.2943 21.4862 23.2776 19.7758 21.0301C18.1189 18.7826 18.1724 17.4983 18.1724 17.4983C18.1724 17.4983 17.2637 20.709 15.9275 21.1371C14.5913 21.5652 13.4689 20.1739 13.4689 20.1739C13.4689 20.1739 12.1327 22.1538 12.2396 23.117C12.3465 24.0802 13.0948 26.3812 13.6293 27.4515C14.1637 28.5217 14.1637 31.3043 14.3775 32.1605C14.5379 33.0167 14.2172 33.8729 15.8741 34.6755C17.531 35.4782 19.9362 36.8695 20.0431 37.8863C20.15 38.8495 21.4327 44.3077 19.562 45.5919C19.562 45.5919 23.6775 45.6454 23.4637 45.5919C23.25 45.5384 23.4103 24.2943 23.4103 24.2943ZM16.6224 26.2207C13.6827 26.2742 13.5224 23.8662 13.5224 23.8662C13.5224 23.8662 14.6448 22.2608 17.1569 22.4214C19.6689 22.6354 20.2569 24.7759 20.2569 24.7759C20.2569 24.7759 19.5086 26.1672 16.6224 26.2207Z" fill="url(#paint1_linear_34_5748)"/>
<path d="M14.3776 34.6755C14.3776 34.6755 15.8741 35.8528 16.8896 36.4414C17.9052 37.0836 19.0276 38.2608 19.5086 39.117C19.9896 40.0267 19.5086 40.9899 19.5086 40.9899C19.5086 40.9899 17.4776 39.117 17.2103 38.8494C17.2103 38.8494 16.3017 40.0802 14.912 40.5618C14.9655 40.5618 14.5914 36.4414 14.3776 34.6755Z" fill="url(#paint2_linear_34_5748)"/>
<defs>
<linearGradient id="paint0_linear_34_5748" x1="14.4403" y1="160.535" x2="14.4403" y2="16.0376" gradientUnits="userSpaceOnUse">
<stop stop-color="#42B0AD"/>
<stop offset="1" stop-color="#EFFCE9"/>
</linearGradient>
<linearGradient id="paint1_linear_34_5748" x1="17.8526" y1="160.535" x2="17.8526" y2="16.0376" gradientUnits="userSpaceOnUse">
<stop stop-color="#42B0AD"/>
<stop offset="1" stop-color="#EFFCE9"/>
</linearGradient>
<linearGradient id="paint2_linear_34_5748" x1="17.05" y1="160.535" x2="17.05" y2="16.0376" gradientUnits="userSpaceOnUse">
<stop stop-color="#42B0AD"/>
<stop offset="1" stop-color="#EFFCE9"/>
</linearGradient>
</defs>
</svg>
