<svg xmlns="http://www.w3.org/2000/svg" fill="#42a5f5" viewBox="0 0 14 14" x="0px" y="0px"><path fill-rule="evenodd" d="M11.7949784,66.4659097 L10.8006356,66.9112789 C10.3681997,67.1049684 9.85919321,66.9685805 9.58153738,66.5846225 L8.94309593,65.7017501 C8.8596047,65.5862938 8.73082217,65.5119411 8.58908844,65.4973638 L7.50527776,65.3858935 C7.0339325,65.3374155 6.66131392,64.9647969 6.6128359,64.4934516 L6.5013656,63.4096409 C6.48678824,63.2679072 6.41243561,63.1391247 6.29697928,63.0556334 L5.41410685,62.417192 C5.03014889,62.1395362 4.89376102,61.6305297 5.08745045,61.1980937 L5.53281968,60.203751 C5.59106218,60.0737173 5.59106218,59.9250121 5.53281968,59.7949784 L5.08745045,58.8006356 C4.89376102,58.3681997 5.03014889,57.8591932 5.41410685,57.5815374 L6.29697928,56.9430959 C6.41243561,56.8596047 6.48678824,56.7308222 6.5013656,56.5890884 L6.6128359,55.5052778 C6.66131392,55.0339325 7.0339325,54.6613139 7.50527776,54.6128359 L8.58908844,54.5013656 C8.73082217,54.4867882 8.8596047,54.4124356 8.94309593,54.2969793 L9.58153738,53.4141068 C9.85919321,53.0301489 10.3681997,52.893761 10.8006356,53.0874505 L11.7949784,53.5328197 C11.9250121,53.5910622 12.0737173,53.5910622 12.203751,53.5328197 L13.1980937,53.0874505 C13.6305297,52.893761 14.1395362,53.0301489 14.417192,53.4141068 L15.0556334,54.2969793 C15.1391247,54.4124356 15.2679072,54.4867882 15.4096409,54.5013656 L16.4934516,54.6128359 C16.9647969,54.6613139 17.3374155,55.0339325 17.3858935,55.5052778 L17.4973638,56.5890884 C17.5119411,56.7308222 17.5862938,56.8596047 17.7017501,56.9430959 L18.5846225,57.5815374 C18.9685805,57.8591932 19.1049684,58.3681997 18.9112789,58.8006356 L18.4659097,59.7949784 C18.4076672,59.9250121 18.4076672,60.0737173 18.4659097,60.203751 L18.9112789,61.1980937 C19.1049684,61.6305297 18.9685805,62.1395362 18.5846225,62.417192 L17.7017501,63.0556334 C17.5862938,63.1391247 17.5119411,63.2679072 17.4973638,63.4096409 L17.3858935,64.4934516 C17.3374155,64.9647969 16.9647969,65.3374155 16.4934516,65.3858935 L15.4096409,65.4973638 C15.2679072,65.5119411 15.1391247,65.5862938 15.0556334,65.7017501 L14.417192,66.5846225 C14.1395362,66.9685805 13.6305297,67.1049684 13.1980937,66.9112789 L12.203751,66.4659097 C12.0737173,66.4076672 11.9250121,66.4076672 11.7949784,66.4659097 Z M9.29788981,59.0535316 L8.44936164,59.9020598 L11.2978898,62.7505879 L15.6705556,58.3779222 L14.8220274,57.529394 L11.2978898,61.0535316 L9.29788981,59.0535316 Z" transform="translate(-5 -53)"></path></svg>
