<svg width="38" height="38" viewBox="0 0 38 38" fill="none" xmlns="http://www.w3.org/2000/svg">
<path d="M27.0777 20.9326C26.828 21.3451 26.904 21.9586 27.2405 22.2951L33.554 28.6086C34.3737 29.4283 34.3737 30.7583 33.554 31.5834C32.7343 32.4031 31.4043 32.4031 30.5791 31.5834L24.2657 25.27C23.9291 24.928 23.3157 24.8628 22.8977 25.1126C22.8977 25.1126 22.7457 25.2266 22.2571 25.4654C20.7751 26.1874 19.1085 26.5946 17.3497 26.5946C11.1557 26.5946 6.13965 21.5731 6.13965 15.3846C6.13965 9.19056 11.1611 4.17456 17.3497 4.17456C23.5437 4.17456 28.5597 9.19599 28.5597 15.3846C28.5597 17.1488 28.1525 18.8208 27.4251 20.3083C27.1917 20.7806 27.0777 20.9326 27.0777 20.9326ZM17.3497 22.3874C21.2202 22.3874 24.358 19.2497 24.358 15.3791C24.358 11.5086 21.2202 8.37085 17.3497 8.37085C13.4791 8.37085 10.3414 11.5086 10.3414 15.3791C10.3414 19.2497 13.4791 22.3874 17.3497 22.3874Z" fill="url(#paint0_linear_34_3985)"/>
<defs>
<linearGradient id="paint0_linear_34_3985" x1="20.154" y1="52.1057" x2="20.154" y2="14.6771" gradientUnits="userSpaceOnUse">
<stop stop-color="#42B0AD"/>
<stop offset="1" stop-color="#EFFCE9"/>
</linearGradient>
</defs>
</svg>
