<?xml version="1.0" standalone="no"?>
<!DOCTYPE svg PUBLIC "-//W3C//DTD SVG 20010904//EN"
 "http://www.w3.org/TR/2001/REC-SVG-20010904/DTD/svg10.dtd">
<svg version="1.0" xmlns="http://www.w3.org/2000/svg"
 width="980.000000pt" height="984.000000pt" viewBox="0 0 980.000000 984.000000"
 preserveAspectRatio="xMidYMid meet">

<g transform="translate(0.000000,984.000000) scale(0.100000,-0.100000)"
fill="#000000" stroke="none">
<path d="M4 9813 c59 -198 223 -705 447 -1382 1474 -4450 1825 -5510 2254
-6796 272 -814 503 -1501 513 -1528 l18 -47 18 37 c42 88 313 759 623 1542
336 850 696 1751 734 1835 11 25 25 46 31 46 6 0 802 -791 1770 -1757 l1760
-1758 751 755 c414 416 781 788 815 828 l64 72 -310 317 c-170 175 -960 971
-1755 1768 l-1445 1451 432 168 c3066 1198 3035 1186 3005 1201 -48 25 -1107
382 -5784 1948 -1716 575 -3302 1106 -3524 1181 -222 75 -408 136 -413 136 -5
0 -7 -8 -4 -17z m3409 -1807 c3518 -1178 4427 -1485 4427 -1497 0 -11 -591
-248 -1425 -571 -482 -187 -1165 -454 -1218 -477 -44 -19 -47 -22 -36 -42 6
-12 851 -863 1877 -1891 l1867 -1870 -362 -359 c-199 -197 -368 -359 -374
-359 -7 0 -638 624 -1403 1388 -1621 1616 -2349 2332 -2374 2332 -11 0 -180
-411 -472 -1150 -375 -948 -611 -1538 -624 -1555 -10 -13 -148 394 -766 2257
-1025 3092 -1510 4561 -1510 4576 0 6 5 12 11 12 6 0 1078 -357 2382 -794z"/>
</g>
</svg>
