<svg height='100px' width='100px'  fill="#000000" xmlns="http://www.w3.org/2000/svg" xmlns:xlink="http://www.w3.org/1999/xlink" version="1.1" x="0px" y="0px" viewBox="0 0 48 48" style="enable-background:new 0 0 48 48;" xml:space="preserve"><g><path d="M22.91,29.54l0.95,1.08l10.26-8.98l-1.98-2.26l-5.81,5.08c-0.15,0.13-0.36,0.16-0.54,0.08c-0.18-0.08-0.29-0.26-0.29-0.46   V7h-3v17.09c0,0.2-0.11,0.37-0.29,0.46c-0.18,0.08-0.39,0.05-0.54-0.08l-5.81-5.08l-1.98,2.26L22.91,29.54z"></path><path d="M40.5,36.5c0,0.28-0.22,0.5-0.5,0.5H8c-0.28,0-0.5-0.22-0.5-0.5V29h-3v12h39V29h-3V36.5z"></path></g></svg>