<svg xmlns="http://www.w3.org/2000/svg" xmlns:xlink="http://www.w3.org/1999/xlink" viewBox="0 0 425.2 425.2"><defs><style>.cls-1{mask:url(#mask);filter:url(#luminosity-noclip-3);}.cls-2,.cls-4{mix-blend-mode:multiply;}.cls-2{fill:url(#radial-gradient);}.cls-3{mask:url(#mask-2);filter:url(#luminosity-noclip-4);}.cls-4{fill:url(#linear-gradient);}.cls-5{fill:none;}.cls-6{clip-path:url(#clip-path);}.cls-7{fill:url(#linear-gradient-2);}.cls-8{mask:url(#mask-3);}.cls-9{fill:url(#radial-gradient-2);}.cls-10{fill:url(#linear-gradient-3);}.cls-11{fill:url(#linear-gradient-4);}.cls-12{fill:url(#linear-gradient-5);}.cls-13{fill:url(#linear-gradient-6);}.cls-14{fill:url(#linear-gradient-7);}.cls-15{fill:url(#linear-gradient-8);}.cls-16{fill:#562e91;stroke:#8ed8f8;stroke-linejoin:round;stroke-width:0.43px;}.cls-17{fill:url(#linear-gradient-9);}.cls-18{fill:#00c1f3;}.cls-19{mask:url(#mask-4);}.cls-20{fill:url(#linear-gradient-10);}.cls-21{filter:url(#luminosity-noclip-2);}.cls-22{filter:url(#luminosity-noclip);}</style><filter id="luminosity-noclip" x="38.25" y="-8405" width="364.93" height="32766" filterUnits="userSpaceOnUse" color-interpolation-filters="sRGB"><feFlood flood-color="#fff" result="bg"/><feBlend in="SourceGraphic" in2="bg"/></filter><mask id="mask" x="38.25" y="-8405" width="364.93" height="32766" maskUnits="userSpaceOnUse"><g class="cls-22"/></mask><radialGradient id="radial-gradient" cx="-3485.94" cy="1369.94" r="182.46" gradientTransform="matrix(0.62, -0.79, 0.79, 0.62, 1300.75, -3413.16)" gradientUnits="userSpaceOnUse"><stop offset="0" stop-color="#fff"/><stop offset="0.94"/></radialGradient><filter id="luminosity-noclip-2" x="-40.56" y="-8405" width="507.47" height="32766" filterUnits="userSpaceOnUse" color-interpolation-filters="sRGB"><feFlood flood-color="#fff" result="bg"/><feBlend in="SourceGraphic" in2="bg"/></filter><mask id="mask-2" x="-40.56" y="-8405" width="507.47" height="32766" maskUnits="userSpaceOnUse"><g class="cls-21"/></mask><linearGradient id="linear-gradient" x1="213.18" y1="541.9" x2="213.18" y2="250.94" gradientUnits="userSpaceOnUse"><stop offset="0" stop-color="#fff"/><stop offset="0.13" stop-color="#b7b7b7"/><stop offset="0.31" stop-color="#555"/><stop offset="0.43" stop-color="#181818"/><stop offset="0.49"/></linearGradient><clipPath id="clip-path"><circle class="cls-5" cx="212.6" cy="212.6" r="212.6"/></clipPath><linearGradient id="linear-gradient-2" x1="213.18" y1="498.43" x2="213.18" y2="-9.28" gradientUnits="userSpaceOnUse"><stop offset="0" stop-color="#ee2f7c"/><stop offset="0.39" stop-color="#b13789"/><stop offset="0.8" stop-color="#743e95"/><stop offset="1" stop-color="#5c419a"/></linearGradient><filter id="luminosity-noclip-3" x="38.25" y="-9.28" width="364.93" height="364.93" filterUnits="userSpaceOnUse" color-interpolation-filters="sRGB"><feFlood flood-color="#fff" result="bg"/><feBlend in="SourceGraphic" in2="bg"/></filter><mask id="mask-3" x="38.25" y="-9.28" width="364.93" height="364.93" maskUnits="userSpaceOnUse"><g class="cls-1"><path class="cls-2" d="M333.57,29.82C412.75,92.15,426.4,206.87,364.07,286a182.44,182.44,0,0,1-256.22,30.5C28.67,254.21,15,139.5,77.35,60.32A182.46,182.46,0,0,1,333.57,29.82Z"/></g></mask><radialGradient id="radial-gradient-2" cx="-3485.94" cy="1369.94" r="182.46" gradientTransform="matrix(0.62, -0.79, 0.79, 0.62, 1300.75, -3413.16)" gradientUnits="userSpaceOnUse"><stop offset="0" stop-color="#ef4578"/><stop offset="0.94" stop-color="#d81f4c"/></radialGradient><linearGradient id="linear-gradient-3" x1="-3513.58" y1="1482.95" x2="-3438.95" y2="1263.53" gradientTransform="matrix(0.62, -0.79, 0.79, 0.62, 1300.75, -3413.16)" gradientUnits="userSpaceOnUse"><stop offset="0.06" stop-color="#d8196a"/><stop offset="0.12" stop-color="#db2365"/><stop offset="0.49" stop-color="#ed6045"/><stop offset="0.66" stop-color="#f47839"/><stop offset="1" stop-color="#ffd596"/></linearGradient><linearGradient id="linear-gradient-4" x1="-3527.93" y1="1478.07" x2="-3453.3" y2="1258.65" xlink:href="#linear-gradient-3"/><linearGradient id="linear-gradient-5" x1="-3541.99" y1="1473.29" x2="-3467.35" y2="1253.86" xlink:href="#linear-gradient-3"/><linearGradient id="linear-gradient-6" x1="-3550.54" y1="1470.38" x2="-3475.91" y2="1250.96" xlink:href="#linear-gradient-3"/><linearGradient id="linear-gradient-7" x1="-3567.6" y1="1464.54" x2="-3492.96" y2="1245.11" xlink:href="#linear-gradient-3"/><linearGradient id="linear-gradient-8" x1="-3576.61" y1="1461.5" x2="-3501.97" y2="1242.08" xlink:href="#linear-gradient-3"/><linearGradient id="linear-gradient-9" x1="213.18" y1="498.43" x2="213.18" y2="251.68" gradientUnits="userSpaceOnUse"><stop offset="0.19" stop-color="#333373"/><stop offset="0.29" stop-color="#383575"/><stop offset="0.42" stop-color="#47397a"/><stop offset="0.55" stop-color="#5f4182"/><stop offset="0.7" stop-color="#814d8d"/><stop offset="0.85" stop-color="#ac5b9b"/><stop offset="0.96" stop-color="#d267a8"/></linearGradient><filter id="luminosity-noclip-4" x="-40.56" y="250.94" width="507.47" height="247.49" filterUnits="userSpaceOnUse" color-interpolation-filters="sRGB"><feFlood flood-color="#fff" result="bg"/><feBlend in="SourceGraphic" in2="bg"/></filter><mask id="mask-4" x="-40.56" y="250.94" width="507.47" height="247.49" maskUnits="userSpaceOnUse"><g class="cls-3"><rect class="cls-4" x="-40.56" y="250.94" width="507.47" height="247.49"/></g></mask><linearGradient id="linear-gradient-10" x1="213.18" y1="541.9" x2="213.18" y2="250.94" gradientUnits="userSpaceOnUse"><stop offset="0" stop-color="#6acdef"/><stop offset="0.12" stop-color="#64b0dd"/><stop offset="0.37" stop-color="#5773b7"/><stop offset="0.49" stop-color="#525ba8"/></linearGradient></defs><g id="Capa_1" data-name="Capa 1"><g class="cls-6"><rect class="cls-7" x="-40.68" y="-9.28" width="507.71" height="507.71"/><g class="cls-8"><path class="cls-9" d="M333.57,29.82C412.75,92.15,426.4,206.87,364.07,286a182.44,182.44,0,0,1-256.22,30.5C28.67,254.21,15,139.5,77.35,60.32A182.46,182.46,0,0,1,333.57,29.82Z"/></g><path class="cls-10" d="M336.52,170.07a115.86,115.86,0,0,0-231.63,0Z"/><path class="cls-11" d="M334.83,193.07a116.47,116.47,0,0,0,1.73-19H104.86a116,116,0,0,0,1.74,19Z"/><path class="cls-12" d="M109.56,205.83a115.49,115.49,0,0,0,7,18.14H324.86a116.28,116.28,0,0,0,7-18.14Z"/><path class="cls-13" d="M140.94,257.21H300.49a117.52,117.52,0,0,0,11.25-12.35,115.4,115.4,0,0,0,12.35-19.38H117.33A115.38,115.38,0,0,0,140.94,257.21Z"/><path class="cls-14" d="M157,270H284.39a114,114,0,0,0,13.93-10.75H143.13q2.85,2.58,5.91,5Q153,267.29,157,270Z"/><path class="cls-15" d="M168.65,276.68a116,116,0,0,0,104.16,0Z"/><polygon class="cls-16" points="-40.68 253.84 13.38 229.96 63.14 236.6 77.73 253.84 -40.68 253.84"/><polygon class="cls-16" points="13.38 229.96 43.57 253.84 63.14 236.6 13.38 229.96"/><polygon class="cls-16" points="77.73 253.84 53.98 244.67 63.14 236.6 77.73 253.84"/><polygon class="cls-16" points="-7.51 253.84 13.38 229.96 18.53 253.84 -7.51 253.84"/><polygon class="cls-16" points="63.14 236.6 125.83 181.33 167.62 207 197.47 253.16 284.94 183.72 301.65 226.71 348.82 239.54 379.27 253.16 425.84 209.09 467.03 211.78 467.03 253.16 77.73 253.16 63.14 236.6"/><polygon class="cls-16" points="125.83 181.33 153.59 223.42 167.62 207 125.83 181.33"/><polygon class="cls-16" points="89.61 213.27 153.59 223.42 107.7 197.32 89.61 213.27"/><polygon class="cls-16" points="137.17 253.16 114.69 217.25 89.61 213.27 74.79 226.33 77.73 253.16 137.17 253.16"/><polygon class="cls-16" points="153.59 223.42 141.95 253.16 178.67 253.16 153.59 223.42"/><polygon class="cls-16" points="183.51 231.57 169.18 241.91 178.67 253.16 183.51 231.57"/><polygon class="cls-16" points="122.65 229.96 103.74 253.16 77.73 253.16 98.38 214.66 122.65 229.96"/><polygon class="cls-16" points="269.39 233.23 259.84 203.65 241.38 218.3 269.39 233.23"/><polygon class="cls-16" points="301.65 226.71 277.38 199.44 287.6 192.68 301.65 226.71"/><polygon class="cls-16" points="224.67 231.57 267.9 253.84 197.47 253.16 224.67 231.57"/><polygon class="cls-16" points="303.18 227.12 335.09 253.16 348.82 239.54 303.18 227.12"/><polygon class="cls-16" points="269.39 233.23 277.38 199.44 301.65 253.84 267.9 253.84 269.39 233.23"/><polygon class="cls-16" points="408.5 226.71 431.01 240.14 425.84 209.09 408.5 226.71"/><polygon class="cls-16" points="414.3 253.16 416.65 231.57 429.42 253.16 414.3 253.16"/><polygon class="cls-16" points="391.52 241.56 412.7 253.16 380.99 253.16 391.52 241.56"/><rect class="cls-17" x="-40.68" y="251.68" width="507.71" height="246.74"/><rect class="cls-18" x="-116.91" y="374.46" width="262.14" height="1.19" transform="translate(-343.68 261.85) rotate(-70.28)"/><polygon class="cls-18" points="-41.84 365.78 15.14 251.95 14.07 251.42 -41.84 363.11 -41.84 365.78"/><rect class="cls-18" x="-45.52" y="374.46" width="252.74" height="1.19" transform="translate(-302.81 372.46) rotate(-77.45)"/><rect class="cls-18" x="20.68" y="374.46" width="248.12" height="1.19" transform="translate(-243.49 479.43) rotate(-83.95)"/><rect class="cls-18" x="414.37" y="243.99" width="1.19" height="262.14" transform="translate(-102.26 162.13) rotate(-19.73)"/><rect class="cls-18" x="347.68" y="248.69" width="1.19" height="252.74" transform="translate(-72.95 84.31) rotate(-12.51)"/><rect class="cls-18" x="283.8" y="251" width="1.19" height="248.12" transform="translate(-37.83 31.96) rotate(-6.03)"/><rect class="cls-18" x="212.58" y="251.68" width="1.19" height="246.75"/><rect class="cls-18" x="-40.68" y="396.51" width="506.71" height="1.19"/><rect class="cls-18" x="-40.68" y="336.8" width="506.71" height="1.19"/><polygon class="cls-18" points="466.04 353.27 415.06 251.42 413.99 251.95 466.04 355.94 466.04 353.27"/><rect class="cls-18" x="-40.68" y="277.1" width="506.71" height="1.19"/><g class="cls-19"><rect class="cls-20" x="-40.56" y="250.94" width="507.47" height="247.49"/></g></g></g></svg>