<svg height='100px' width='100px'  fill="#000000" xmlns="http://www.w3.org/2000/svg" viewBox="-10 -10 56 56" x="0px" y="0px"><title>Монтажная область 38</title><polygon points="35.45 35.5 35.45 28.57 28.53 35.5 35.45 35.5"></polygon><polygon points="26.98 33.95 35.45 25.5 35.45 15.31 26.98 23.77 26.98 33.95"></polygon><polygon points="26.98 0.5 26.98 7.41 33.89 0.5 26.98 0.5"></polygon><polygon points="26.98 10.48 26.98 20.69 35.45 12.22 35.45 2.02 26.98 10.48"></polygon><path d="M15.82,31l9,4V10.26a1.21,1.21,0,0,1,0-.38V1.09l-9,4Z"></path><polygon points="7.56 27.3 13.64 29.98 13.64 6.03 7.56 8.71 7.56 27.3"></polygon><polygon points="0.55 24.2 5.38 26.32 5.38 9.68 0.55 11.81 0.55 24.2"></polygon></svg>