<svg height='100px' width='100px'  fill="#000000" xmlns="http://www.w3.org/2000/svg" xmlns:xlink="http://www.w3.org/1999/xlink" version="1.1" x="0px" y="0px" viewBox="-15 -15 99 99" style="enable-background:new 0 0 69 69;" xml:space="preserve"><g><path d="M38.97039,28.31605h4.08027c0.58959,0,1.06668,0.47709,1.06668,1.06668c0,0.58959-0.47709,1.06668-1.06668,1.06668   h-4.08027v6.10739c0,0.58959-0.47709,1.06668-1.06668,1.06668h-4.67924c-0.58959,0-1.06668-0.47709-1.06668-1.06668   s0.47709-1.06668,1.06668-1.06668h3.61256V17.04815H26.3108v18.44197h2.3917c0.58959,0,1.06668,0.47709,1.06668,1.06668   s-0.47709,1.06668-1.06668,1.06668h-2.3917v18.54822h20.11804v-4.66466c0-0.58959,0.47709-1.06668,1.06668-1.06668   c0.58959,0,1.06668,0.47709,1.06668,1.06668v4.66466h9.48557V40.74229h-7.22512v1.81878c0,0.58959-0.47709,1.06668-1.06668,1.06668   s-1.06668-0.47709-1.06668-1.06668v-5.77093c0-0.58959,0.47709-1.06668,1.06668-1.06668s1.06668,0.47709,1.06668,1.06668v1.81878   h7.22512v-8.15951H52.0706v1.24898c0,0.58959-0.47709,1.06668-1.06668,1.06668s-1.06668-0.47709-1.06668-1.06668v-1.24898h-1.5844   c-0.58959,0-1.06668-0.47709-1.06668-1.06668c0-0.58959,0.47709-1.06668,1.06668-1.06668h9.69495V17.04815H38.97039V28.31605z"></path><path d="M18.38255,6.71986v0.22396v51.85709c0,0.47397-0.3125,0.89064-0.76772,1.02398   c-0.45626,0.13438-0.94272-0.05104-1.19794-0.45c-0.14896-0.2323-0.30626-0.45626-0.47397-0.66876   c-3.21963-4.12029-9.76824-4.16343-12.91004,0.42442C3.20317,63.22186,6.58044,66.5,10.72409,66.5h55.2509V6.71986H18.38255z    M60.18115,57.23839c0,0.58959-0.47709,1.06668-1.06668,1.06668H25.24412c-0.58959,0-1.06668-0.47709-1.06668-1.06668V15.98147   c0-0.58959,0.47709-1.06668,1.06668-1.06668h33.87035c0.58959,0,1.06668,0.47709,1.06668,1.06668V57.23839z"></path><path d="M16.24918,55.95399V6.94382c0-2.65591-3.91785-4.44382-6.61677-4.44382c-2.68272,0-6.6074,1.78665-6.6074,4.44382v48.99871   C6.78237,52.69895,12.48005,52.72346,16.24918,55.95399z"></path></g></svg>