<svg height='100px' width='100px'  fill="#000000" xmlns="http://www.w3.org/2000/svg" data-name="Layer 1" viewBox="-10 -10 120 120" x="0px" y="0px"><title>3</title><path d="M42.89917,29.90479c.10077-.18531.22131-.35236.33343-.52741a8.968,8.968,0,0,1-2.27215-5.97552,1.79981,1.79981,0,1,1,3.59961,0,5.39474,5.39474,0,0,0,1.22168,3.42041,8.42482,8.42482,0,0,1,8.78015-.08631,4.0718,4.0718,0,0,0,.817-1.79211c.31005-1.78858-.5503-3.25586-2.9712-5.06153a10.3661,10.3661,0,0,1-4.209-8.31836l.001-2.45758H45.72894A2.43086,2.43086,0,0,1,43.2981,6.67554V5H56.70239V6.67554a2.43087,2.43087,0,0,1-2.43084,2.43084H51.79938l-.001,2.45856a6.75851,6.75851,0,0,0,2.75195,5.42383c2.23438,1.667,5.106,4.36035,4.375,8.57275a7.72883,7.72883,0,0,1-1.7785,3.67456c.14587.21833.295.43372.42279.66871L66.387,46.12012H62.28967l-7.8822-14.49561c-.03937-.07245-.08783-.13641-.13031-.20611a9.91688,9.91688,0,0,1-4.29425,1.0274,8.88557,8.88557,0,0,1-3.87146-.89984c-.01544.02722-.03467.051-.04968.07855l-7.8822,14.49561h-4.0979ZM95.00024,50.21814v42.819A1.96283,1.96283,0,0,1,93.03741,95h-.07434a1.95809,1.95809,0,0,1-1.95294-1.86487H8.99036A1.9581,1.9581,0,0,1,7.03741,95H6.96307a1.96284,1.96284,0,0,1-1.96283-1.96289v-42.819a1.96274,1.96274,0,0,1,1.96283-1.96277h.07434a1.958,1.958,0,0,1,1.953,1.86475H91.01013a1.958,1.958,0,0,1,1.95294-1.86475h.07434A1.96273,1.96273,0,0,1,95.00024,50.21814ZM23.49023,55.12h-5V88.14h5Zm14.51,0h-5V88.14h5Zm14.5,0h-5V88.14h5Zm14.5,0h-5V88.14h5Zm14.51,0h-5V88.14h5Z"></path></svg>