<svg id="Layer_1" data-name="Layer 1" xmlns="http://www.w3.org/2000/svg" width="1600.85" height="1093.42" viewBox="0 0 1600.85 1093.42">
  <defs>
    <style>
      .cls-1 {
        fill: #ccc;
        opacity: 0.65;
        isolation: isolate;
      }

      .cls-2 {
        fill: none;
        stroke: #fff;
        stroke-miterlimit: 10;
        stroke-width: 7px;
      }

      .cls-3 {
        fill: #fff;
      }
    </style>
  </defs>
  <g id="BG">
    <polygon id="Background" class="cls-1" points="3.5 9.12 3.5 820.1 95.57 912.17 692.52 912.17 870.27 1089.92 1596.18 1089.92 1596.18 132.29 1545.57 81.68 1474.84 10.95 3.5 9.12"/>
    <polygon id="Background-2" class="cls-2" points="3.5 9.12 3.5 820.1 95.57 912.17 692.52 912.17 870.27 1089.92 1596.18 1089.92 1596.18 132.29 1545.57 81.68 1474.84 10.95 3.5 9.12"/>
  </g>
  <g id="Border">
    <polygon class="cls-2" points="4.67 3.5 4.67 814.48 96.74 906.55 693.7 906.55 871.44 1084.3 1597.35 1084.3 1597.35 126.67 1546.74 76.06 1476.01 5.33 4.67 3.5"/>
    <polyline id="borde2" class="cls-2" points="1545.83 1084.3 1545.83 986.74 1521.44 962.35 1521.44 349.85 1547.05 324.24 1547.05 76.06"/>
    <polygon class="cls-3" points="4.67 960.82 4.67 1074.24 119.31 1074.24 4.67 960.82"/>
  </g>
  <g id="Elements">
    <polygon class="cls-3" points="1533.48 873.26 1586.15 820.59 1586.15 906.19 1534.82 957.52 1533.48 873.26"/>
    <polygon class="cls-3" points="1533.48 771.26 1586.15 718.59 1586.15 804.19 1534.82 855.52 1533.48 771.26"/>
    <polygon class="cls-3" points="1533.48 669.26 1586.15 616.59 1586.15 702.19 1534.82 753.52 1533.48 669.26"/>
    <polygon class="cls-3" points="1533.48 567.26 1586.15 514.59 1586.15 600.19 1534.82 651.52 1533.48 567.26"/>
    <polygon class="cls-3" points="1533.48 465.26 1586.15 412.59 1586.15 498.19 1534.82 549.52 1533.48 465.26"/>
    <polygon class="cls-3" points="1533.48 363.26 1586.15 310.59 1586.15 396.19 1534.82 447.52 1533.48 363.26"/>
    <polygon class="cls-3" points="518.3 938.87 655.28 1074.85 803.45 1074.85 667.17 938.57 518.3 938.87"/>
    <polygon class="cls-3" points="318.31 938.87 455.28 1074.85 603.45 1074.85 467.17 938.57 318.31 938.87"/>
    <polygon class="cls-3" points="118.31 938.87 255.28 1074.85 403.45 1074.85 267.17 938.57 118.31 938.87"/>
  </g>
</svg>
