<svg id="Layer_1" data-name="Layer 1" xmlns="http://www.w3.org/2000/svg" viewBox="0 0 2048 2048"><defs><style>.cls-1{fill:#b71c1c;}.cls-1,.cls-2{fill-rule:evenodd;}</style></defs><rect width="2048" height="2048"/><path class="cls-1" d="M198.31,53.91C444.31,203.22,742.92,445.57,1024,724c281.08-278.39,579.69-520.74,825.69-670.05,36.29-21.92,74.53,12.67,58,47.74-182.68,380.7-364.13,684.91-577.5,948.94,264.52,305.18,482.75,625.72,578.72,900,13.15,36.78-25.09,64.79-61.87,42.38-330-201.91-596-396.77-823-611.59C797,1596.17,531,1791,201,1992.94c-36.78,22.41-75-5.6-61.87-42.38,96-274.25,314.2-594.79,578.72-900C504.47,786.56,323,482.35,140.34,101.65,123.78,66.58,162,32,198.31,53.91Z"/><path class="cls-2" d="M329.73,208.28C536.58,333.82,787.66,537.6,1024,771.69c236.34-234.09,487.42-437.87,694.27-563.41,30.52-18.43,62.67,10.65,48.74,40.14-153.6,320.1-306.17,575.9-485.58,797.9,222.42,256.62,405.92,526.13,486.61,756.74,11.06,30.92-21.1,54.48-52,35.63-277.5-169.77-501.15-333.61-692-514.25-190.87,180.64-414.52,344.48-692,514.25-30.92,18.85-63.08-4.71-52-35.63,80.69-230.61,264.19-500.12,486.61-756.74-179.41-222-332-477.8-485.58-797.9C267.06,218.93,299.21,189.85,329.73,208.28Z"/></svg>