<svg width="38" height="36" viewBox="0 0 38 36" fill="none" xmlns="http://www.w3.org/2000/svg">
<path d="M36.7589 7.2C31.3368 8.46 24.98 9 19.1009 9C13.2219 9 6.86502 8.46 1.443 7.2L0.404297 10.8C4.26827 11.7 8.71391 12.294 12.8687 12.6V36H17.0235V25.2H21.1783V36H25.3331V12.6C29.4879 12.294 33.9336 11.7 37.7976 10.8L36.7589 7.2ZM19.1009 7.2C21.3861 7.2 23.2557 5.58 23.2557 3.6C23.2557 1.62 21.3861 0 19.1009 0C16.8158 0 14.9461 1.62 14.9461 3.6C14.9461 5.58 16.8158 7.2 19.1009 7.2Z" fill="#00CE21"/>
</svg>
