<svg width="45" height="32" viewBox="0 0 45 32" fill="none" xmlns="http://www.w3.org/2000/svg">
<path d="M11.8816 8.62865L3.11395 16L11.8816 23.3714C12.2945 23.7185 12.2945 24.2813 11.8816 24.6284C11.4687 24.9755 10.7993 24.9755 10.3864 24.6284L0.871185 16.6285C0.458303 16.2814 0.458303 15.7186 0.871185 15.3715L10.3864 7.37159C10.7993 7.02446 11.4687 7.02446 11.8816 7.37159C12.2945 7.71871 12.2945 8.28152 11.8816 8.62865ZM33.6459 23.3714L42.4136 16L33.6459 8.62865C33.2331 8.28152 33.2331 7.71871 33.6459 7.37159C34.0588 7.02446 34.7282 7.02446 35.1411 7.37159L44.6564 15.3715C45.0692 15.7186 45.0692 16.2814 44.6564 16.6285L35.1411 24.6284C34.7282 24.9755 34.0588 24.9755 33.6459 24.6284C33.2331 24.2813 33.2331 23.7185 33.6459 23.3714ZM18.4918 31.3617C18.3271 31.8327 17.7394 32.1022 17.1792 31.9636C16.619 31.8251 16.2985 31.331 16.4632 30.8601L27.0357 0.638297C27.2005 0.167333 27.7882 -0.102168 28.3483 0.0363511C28.9085 0.17487 29.2291 0.668954 29.0643 1.13992L18.4918 31.3617Z" fill="#FF7043"/>
</svg>
