<svg width="257" height="262" viewBox="0 0 257 262" fill="none" xmlns="http://www.w3.org/2000/svg">
<rect width="256.891" height="262" rx="10" fill="url(#paint0_radial)"/>
<mask id="mask0" mask-type="alpha" maskUnits="userSpaceOnUse" x="5" y="5" width="252" height="257">
<rect x="5.10864" y="5.10864" width="251.783" height="256.891" rx="10" fill="#C4C4C4"/>
</mask>
<g mask="url(#mask0)">
<path d="M129.023 32.149C123.543 32.7711 117.778 34.4115 113.263 36.6174C101.023 42.6696 92.6173 53.9821 90.2887 67.5005C89.7775 70.5266 89.6923 71.7144 89.8343 76.098C90.0615 82.9138 90.8851 86.3358 93.6964 92.2183C95.5423 96.0645 96.6498 97.3655 95.2867 94.1131C93.4977 89.8709 92.2765 83.5077 92.3333 79.0392C92.3617 77.7383 92.4469 77.0313 92.5037 77.5121C93.3841 84.8086 95.0027 90.6063 97.8141 96.4605C98.6377 98.1574 99.6032 100.533 99.9723 101.693C102.642 110.431 108.747 118.831 115.847 123.497C117.465 124.572 118.942 125.449 119.112 125.449C119.283 125.449 118.743 125.025 117.891 124.544C116.415 123.695 112.325 120.104 112.553 119.877C112.609 119.821 113.575 120.217 114.682 120.782C116.897 121.857 120.618 123.186 121.498 123.186C122.321 123.186 122.975 124.091 122.975 125.251C122.975 126.495 122.946 126.495 118.97 125.845C117.437 125.59 115.762 125.449 115.222 125.562C114.285 125.732 112.837 126.608 110.622 128.277C109.968 128.814 108.463 129.465 106.93 129.917C104.914 130.511 104.175 130.907 103.295 131.755C102.5 132.547 101.875 132.887 100.767 133.085C99.4328 133.339 97.7289 134.216 95.5707 135.8C95.1163 136.139 93.81 136.874 92.6741 137.44C88.1305 139.703 84.4956 142.729 83.1609 145.359C82.8485 146.009 82.3373 146.858 82.0533 147.254C80.9174 148.837 79.9519 152.344 79.6679 155.992C79.2988 160.178 78.2196 165.212 77.3109 166.796C76.8565 167.616 75.8058 169.511 74.9823 170.982C74.1304 172.452 73.0796 174.686 72.6537 175.931C72.1993 177.175 70.9498 179.607 69.8707 181.332C67.3433 185.377 66.0654 187.95 65.1567 190.863C63.5096 196.208 60.2154 205.343 59.3919 206.842C59.1931 207.21 58.398 209.331 57.6312 211.565C56.1262 215.977 55.899 217.957 56.5521 221.096C56.8929 222.68 58.682 226.696 59.8747 228.449C60.4994 229.411 60.5562 229.75 60.4142 231.39C60.3006 232.974 60.3574 233.398 60.897 234.19C61.2094 234.699 61.7773 235.265 62.0897 235.406C62.4305 235.576 62.7996 236.057 62.8848 236.481C63.3392 238.263 64.5887 240.271 65.6394 240.978C66.3778 241.43 66.7469 241.911 66.7469 242.307C66.7469 242.646 67.0877 243.41 67.4853 243.975C67.8828 244.569 69.0756 247.595 70.1263 250.706L72.0289 256.334L71.2622 257.664C70.8362 258.371 70.1831 259.304 69.8139 259.728C68.6496 261.001 67.968 260.869 67.4853 262H169.348C169.348 262 169.263 256.504 169.348 256.306C169.433 256.108 170.228 255.712 171.137 255.429C172.358 255.033 173.21 254.524 174.46 253.308C177.555 250.395 184.314 242.307 184.314 241.515C184.314 241.317 185.251 240.44 186.387 239.535C189.312 237.216 193.657 232.691 194.253 231.362C194.537 230.74 195.275 229.722 195.9 229.1C196.553 228.477 197.434 227.205 197.86 226.271C198.513 224.857 198.626 224.15 198.683 222.029C198.683 220.615 198.939 218.664 199.194 217.646C199.45 216.627 199.762 214.195 199.847 212.244C200.018 208.539 199.933 207.86 198.626 203.222C197.916 200.677 196.61 194.427 194.935 185.603C193.855 179.749 192.18 172.509 190.845 167.871C189.369 162.695 188.289 157.718 188.289 156.134C188.289 151.156 184.882 141.824 181.815 138.43C180.878 137.383 179.912 136.733 177.782 135.743C175.34 134.612 174.943 134.329 174.801 133.594C174.403 131.869 170.569 127.542 168.439 126.439C168.042 126.241 166.366 125.873 164.719 125.618C161.51 125.166 158.727 124.374 156.257 123.299C155.007 122.734 154.241 122.621 152.168 122.621H149.612L149.725 118.718L149.839 114.843L151.259 112.722C152.054 111.563 153.19 109.753 153.758 108.678C154.354 107.632 154.894 106.783 154.95 106.783C155.291 106.783 152.565 112.694 150.918 115.522C150.35 116.512 150.009 117.275 150.18 117.219C150.662 117.049 154.155 112.496 155.405 110.375C156.03 109.328 156.598 108.48 156.654 108.48C156.825 108.48 155.575 111.167 155.121 111.732C154.894 112.043 155.632 111.365 156.74 110.205C159.125 107.745 160.147 106.359 161.794 103.248C162.504 101.919 163.015 101.212 163.015 101.551C163.044 101.862 163.101 102.371 163.157 102.682C163.214 102.993 163.328 104.125 163.441 105.228L163.669 107.207L164.066 105.284C164.521 103.107 166.054 98.6664 166.452 98.4119C166.594 98.327 166.707 98.8078 166.736 99.4866C166.736 100.165 166.821 101.212 166.934 101.834C167.133 102.937 167.133 102.937 167.474 100.985C167.729 99.5714 168.439 97.7331 169.945 94.5939C172.245 89.8427 173.523 86.3924 174.204 83.0269C175.993 74.1749 175.028 64.0785 171.563 55.4527C169.49 50.3055 165.6 44.5644 161.681 40.8596C157.506 36.9002 150.918 33.563 145.352 32.5732C142.597 32.0924 132.033 31.8096 129.023 32.149ZM166.991 217.759C166.537 218.24 165.969 218.89 165.742 219.173C165.401 219.654 165.372 219.569 165.202 218.24C165.032 216.825 165.259 215.751 166.792 210.321C167.133 209.076 167.133 209.105 167.502 212.951L167.871 216.882L166.991 217.759Z" fill="black" fill-opacity="0.5"/>
</g>
<defs>
<radialGradient id="paint0_radial" cx="0" cy="0" r="1" gradientUnits="userSpaceOnUse" gradientTransform="translate(128.446 131) rotate(90.0832) scale(307 238.43)">
<stop stop-color="white"/>
<stop offset="1" stop-color="#6C6C6C"/>
</radialGradient>
</defs>
</svg>
