<svg width="48" height="48" viewBox="0 0 48 48" fill="none" xmlns="http://www.w3.org/2000/svg">
<rect width="48" height="48" rx="24" fill="url(#paint0_radial)"/>
<mask id="mask0" mask-type="alpha" maskUnits="userSpaceOnUse" x="0" y="0" width="48" height="48">
<rect x="0.393799" y="0.935791" width="47.0455" height="47.0641" rx="23.5227" fill="#C4C4C4"/>
</mask>
<g mask="url(#mask0)">
<path d="M24.1079 5.88988C23.0838 6.00387 22.0067 6.30439 21.163 6.70853C18.8761 7.81733 17.3055 9.88985 16.8704 12.3665C16.7749 12.9209 16.759 13.1385 16.7855 13.9416C16.8279 15.1903 16.9818 15.8172 17.5071 16.895C17.852 17.5996 18.059 17.8379 17.8043 17.2421C17.47 16.4649 17.2418 15.2991 17.2524 14.4805C17.2577 14.2421 17.2736 14.1126 17.2843 14.2007C17.4487 15.5375 17.7512 16.5996 18.2765 17.6721C18.4304 17.983 18.6108 18.4183 18.6798 18.6307C19.1785 20.2317 20.3194 21.7706 21.6459 22.6255C21.9483 22.8224 22.2242 22.983 22.2561 22.983C22.2879 22.983 22.1871 22.9053 22.0279 22.8172C21.752 22.6617 20.9879 22.0037 21.0304 21.9623C21.041 21.9519 21.2214 22.0244 21.4283 22.1281C21.8422 22.325 22.5373 22.5685 22.7018 22.5685C22.8557 22.5685 22.9777 22.7343 22.9777 22.9467C22.9777 23.1747 22.9724 23.1747 22.2296 23.0555C21.943 23.0089 21.63 22.983 21.5291 23.0037C21.354 23.0348 21.0834 23.1954 20.6696 23.5011C20.5475 23.5996 20.2663 23.7187 19.9798 23.8016C19.603 23.9104 19.4651 23.983 19.3006 24.1384C19.152 24.2835 19.0353 24.3457 18.8283 24.3819C18.579 24.4286 18.2606 24.5892 17.8573 24.8793C17.7724 24.9415 17.5283 25.0762 17.3161 25.1798C16.4671 25.5944 15.7879 26.1487 15.5385 26.6306C15.4802 26.7498 15.3847 26.9052 15.3316 26.9778C15.1194 27.2679 14.939 27.9104 14.8859 28.5788C14.8169 29.3456 14.6153 30.2679 14.4455 30.558C14.3606 30.7083 14.1643 31.0554 14.0104 31.3249C13.8512 31.5943 13.6549 32.0036 13.5753 32.2316C13.4904 32.4596 13.2569 32.9052 13.0553 33.2212C12.583 33.9621 12.3443 34.4336 12.1745 34.9673C11.8667 35.9466 11.2512 37.6201 11.0973 37.8947C11.0602 37.9621 10.9116 38.3507 10.7684 38.76C10.4871 39.5683 10.4447 39.931 10.5667 40.5061C10.6304 40.7963 10.9647 41.532 11.1875 41.8533C11.3043 42.0294 11.3149 42.0916 11.2884 42.3921C11.2671 42.6823 11.2777 42.76 11.3786 42.9051C11.4369 42.9983 11.543 43.102 11.6014 43.1279C11.6651 43.159 11.7341 43.247 11.75 43.3248C11.8349 43.6512 12.0684 44.019 12.2647 44.1486C12.4026 44.2315 12.4716 44.3196 12.4716 44.3921C12.4716 44.4543 12.5353 44.5942 12.6096 44.6978C12.6839 44.8066 12.9067 45.361 13.103 45.9309L13.4586 46.962L13.3153 47.2055C13.2357 47.3351 13.1137 47.5061 13.0447 47.5838C12.8271 47.8169 12.6998 47.7927 12.6096 48H31.6426C31.6426 48 31.6267 46.9931 31.6426 46.9568C31.6585 46.9206 31.8071 46.848 31.9769 46.7962C32.205 46.7237 32.3642 46.6304 32.5977 46.4076C33.1761 45.874 34.4389 44.3921 34.4389 44.247C34.4389 44.2108 34.614 44.0501 34.8263 43.8843C35.3728 43.4595 36.1846 42.6305 36.2961 42.3869C36.3491 42.273 36.4871 42.0864 36.6038 41.9724C36.7259 41.8584 36.8903 41.6253 36.9699 41.4543C37.092 41.1952 37.1132 41.0657 37.1238 40.6771C37.1238 40.418 37.1716 40.0605 37.2193 39.874C37.2671 39.6875 37.3254 39.2419 37.3414 38.8844C37.3732 38.2056 37.3573 38.0813 37.1132 37.2315C36.9805 36.7652 36.7365 35.6202 36.4234 34.0036C36.2218 32.9311 35.9087 31.6046 35.6593 30.7549C35.3834 29.8067 35.1818 28.8948 35.1818 28.6047C35.1818 27.6928 34.545 25.9829 33.972 25.3612C33.7969 25.1695 33.6165 25.0503 33.2185 24.869C32.7622 24.6617 32.6879 24.6099 32.6614 24.4752C32.5871 24.1591 31.8708 23.3664 31.4728 23.1643C31.3985 23.1281 31.0855 23.0607 30.7777 23.0141C30.1781 22.9312 29.6581 22.7861 29.1965 22.5892C28.963 22.4856 28.8197 22.4648 28.4324 22.4648H27.9549L27.9761 21.7498L27.9973 21.04L28.2626 20.6514C28.4112 20.439 28.6234 20.1074 28.7295 19.9105C28.841 19.7188 28.9418 19.5633 28.9524 19.5633C29.0161 19.5633 28.5067 20.6462 28.1989 21.1643C28.0928 21.3457 28.0291 21.4856 28.061 21.4752C28.1512 21.4441 28.8038 20.6099 29.0373 20.2213C29.154 20.0296 29.2602 19.8742 29.2708 19.8742C29.3026 19.8742 29.0691 20.3664 28.9842 20.4701C28.9418 20.527 29.0797 20.4027 29.2867 20.1903C29.7324 19.7395 29.9234 19.4856 30.2312 18.9157C30.3638 18.6721 30.4593 18.5426 30.4593 18.6048C30.4646 18.6618 30.4753 18.755 30.4859 18.812C30.4965 18.869 30.5177 19.0763 30.5389 19.2783L30.5814 19.641L30.6557 19.2887C30.7406 18.8898 31.0271 18.0763 31.1014 18.0297C31.1279 18.0141 31.1491 18.1022 31.1544 18.2265C31.1544 18.3509 31.1704 18.5426 31.1916 18.6566C31.2287 18.8587 31.2287 18.8587 31.2924 18.5012C31.3402 18.2421 31.4728 17.9053 31.754 17.3302C32.1838 16.4597 32.4226 15.8276 32.5499 15.211C32.8842 13.5893 32.7038 11.7396 32.0565 10.1593C31.6691 9.21628 30.9422 8.16448 30.2099 7.48573C29.43 6.76035 28.1989 6.14895 27.1589 5.9676C26.6442 5.87952 24.6704 5.82771 24.1079 5.88988ZM31.2022 39.8947C31.1173 39.9828 31.0112 40.102 30.9687 40.1538C30.905 40.2419 30.8997 40.2263 30.8679 39.9828C30.8361 39.7237 30.8785 39.5269 31.165 38.532C31.2287 38.3041 31.2287 38.3093 31.2977 39.0139L31.3667 39.7341L31.2022 39.8947Z" fill="black" fill-opacity="0.5"/>
</g>
<defs>
<radialGradient id="paint0_radial" cx="0" cy="0" r="1" gradientUnits="userSpaceOnUse" gradientTransform="translate(24 24) rotate(90.0848) scale(56.2443 44.5505)">
<stop stop-color="white"/>
<stop offset="1" stop-color="#6C6C6C"/>
</radialGradient>
</defs>
</svg>
