<svg width="1440" height="535" viewBox="0 0 1440 535" fill="none" xmlns="http://www.w3.org/2000/svg">
<mask id="mask0" mask-type="alpha" maskUnits="userSpaceOnUse" x="0" y="0" width="1445" height="535">
<rect width="1444.1" height="535" fill="#C4C4C4"/>
</mask>
<g mask="url(#mask0)">
<rect y="-2.01123" width="1448.12" height="537.011" fill="url(#paint0_linear)"/>
<g opacity="0.25">
<path d="M526.248 209.173L-490.752 557.604H1938.87L921.872 209.173H526.248Z" stroke="#E00068" stroke-width="2"/>
<path d="M520.758 211.054H927.362" stroke="#E00068" stroke-width="2"/>
<path d="M514.954 213.042H933.166" stroke="#E00068" stroke-width="2"/>
<path d="M508.809 215.147H939.311" stroke="#E00068" stroke-width="2"/>
<path d="M502.293 217.38H945.828" stroke="#E00068" stroke-width="2"/>
<path d="M495.37 219.753H952.752" stroke="#E00068" stroke-width="2"/>
<path d="M487.999 222.278H960.122" stroke="#E00068" stroke-width="2"/>
<path d="M480.139 224.971H967.983" stroke="#E00068" stroke-width="2"/>
<path d="M471.735 227.849H976.385" stroke="#E00068" stroke-width="2"/>
<path d="M462.734 230.934H985.388" stroke="#E00068" stroke-width="2"/>
<path d="M453.065 234.246H995.055" stroke="#E00068" stroke-width="2"/>
<path d="M442.654 237.813H1005.47" stroke="#E00068" stroke-width="2"/>
<path d="M431.41 241.665H1016.71" stroke="#E00068" stroke-width="2"/>
<path d="M419.232 245.837H1028.89" stroke="#E00068" stroke-width="2"/>
<path d="M405.997 250.372H1042.12" stroke="#E00068" stroke-width="2"/>
<path d="M391.558 255.319H1056.56" stroke="#E00068" stroke-width="2"/>
<path d="M375.746 260.735H1072.37" stroke="#E00068" stroke-width="2"/>
<path d="M358.357 266.694H1089.76" stroke="#E00068" stroke-width="2"/>
<path d="M339.139 273.278H1108.98" stroke="#E00068" stroke-width="2"/>
<path d="M317.791 280.592H1130.33" stroke="#E00068" stroke-width="2"/>
<path d="M293.934 288.766H1154.19" stroke="#E00068" stroke-width="2"/>
<path d="M267.101 297.958H1181.02" stroke="#E00068" stroke-width="2"/>
<path d="M236.697 308.375H1211.42" stroke="#E00068" stroke-width="2"/>
<path d="M201.958 320.277H1246.16" stroke="#E00068" stroke-width="2"/>
<path d="M161.889 334.005H1286.23" stroke="#E00068" stroke-width="2"/>
<path d="M115.157 350.016H1332.96" stroke="#E00068" stroke-width="2"/>
<path d="M59.9504 368.93H1388.17" stroke="#E00068" stroke-width="2"/>
<path d="M-6.26364 391.615H1454.39" stroke="#E00068" stroke-width="2"/>
<path d="M-87.1457 419.325H1535.26" stroke="#E00068" stroke-width="2"/>
<path d="M-188.171 453.938H1636.29" stroke="#E00068" stroke-width="2"/>
<path d="M-317.94 498.397H1766.06" stroke="#E00068" stroke-width="2"/>
<path d="M1860.5 557.604L909.109 209.173" stroke="#E00068" stroke-width="2"/>
<path d="M1782.12 557.604L896.347 209.173" stroke="#E00068" stroke-width="2"/>
<path d="M1703.75 557.604L883.586 209.173" stroke="#E00068" stroke-width="2"/>
<path d="M1625.37 557.604L870.824 209.173" stroke="#E00068" stroke-width="2"/>
<path d="M1547 557.604L858.062 209.173" stroke="#E00068" stroke-width="2"/>
<path d="M1468.62 557.604L845.3 209.173" stroke="#E00068" stroke-width="2"/>
<path d="M1390.25 557.604L832.538 209.173" stroke="#E00068" stroke-width="2"/>
<path d="M1311.87 557.604L819.775 209.173" stroke="#E00068" stroke-width="2"/>
<path d="M1233.5 557.604L807.013 209.173" stroke="#E00068" stroke-width="2"/>
<path d="M1155.12 557.604L794.252 209.173" stroke="#E00068" stroke-width="2"/>
<path d="M1076.75 557.604L781.489 209.173" stroke="#E00068" stroke-width="2"/>
<path d="M998.372 557.604L768.726 209.173" stroke="#E00068" stroke-width="2"/>
<path d="M919.998 557.604L755.966 209.173" stroke="#E00068" stroke-width="2"/>
<path d="M841.623 557.604L743.203 209.173" stroke="#E00068" stroke-width="2"/>
<path d="M763.248 557.604L730.441 209.173" stroke="#E00068" stroke-width="2"/>
<path d="M684.872 557.604L717.679 209.173" stroke="#E00068" stroke-width="2"/>
<path d="M606.498 557.604L704.917 209.173" stroke="#E00068" stroke-width="2"/>
<path d="M528.122 557.604L692.155 209.173" stroke="#E00068" stroke-width="2"/>
<path d="M449.747 557.604L679.392 209.173" stroke="#E00068" stroke-width="2"/>
<path d="M371.372 557.604L666.63 209.173" stroke="#E00068" stroke-width="2"/>
<path d="M292.997 557.604L653.868 209.173" stroke="#E00068" stroke-width="2"/>
<path d="M214.623 557.604L641.107 209.173" stroke="#E00068" stroke-width="2"/>
<path d="M136.248 557.604L628.345 209.173" stroke="#E00068" stroke-width="2"/>
<path d="M57.8738 557.604L615.583 209.173" stroke="#E00068" stroke-width="2"/>
<path d="M-20.5022 557.604L602.82 209.173" stroke="#E00068" stroke-width="2"/>
<path d="M-98.8774 557.604L590.058 209.173" stroke="#E00068" stroke-width="2"/>
<path d="M-177.252 557.604L577.296 209.173" stroke="#E00068" stroke-width="2"/>
<path d="M-255.627 557.604L564.535 209.173" stroke="#E00068" stroke-width="2"/>
<path d="M-334.002 557.604L551.772 209.173" stroke="#E00068" stroke-width="2"/>
<path d="M-412.377 557.604L539.01 209.173" stroke="#E00068" stroke-width="2"/>
</g>
<g filter="url(#filter0_f)">
<path d="M568.98 203.139L-142.801 436.143H1557.65L845.871 203.139H568.98Z" stroke="black" stroke-opacity="0.33" stroke-width="2"/>
<path d="M565.138 204.397H849.713" stroke="black" stroke-opacity="0.33" stroke-width="2"/>
<path d="M561.076 205.726H853.775" stroke="black" stroke-opacity="0.33" stroke-width="2"/>
<path d="M556.775 207.135H858.076" stroke="black" stroke-opacity="0.33" stroke-width="2"/>
<path d="M552.214 208.628H862.637" stroke="black" stroke-opacity="0.33" stroke-width="2"/>
<path d="M547.369 210.214H867.483" stroke="black" stroke-opacity="0.33" stroke-width="2"/>
<path d="M542.21 211.902H872.641" stroke="black" stroke-opacity="0.33" stroke-width="2"/>
<path d="M536.709 213.703H878.143" stroke="black" stroke-opacity="0.33" stroke-width="2"/>
<path d="M530.828 215.628H884.024" stroke="black" stroke-opacity="0.33" stroke-width="2"/>
<path d="M524.527 217.691H890.324" stroke="black" stroke-opacity="0.33" stroke-width="2"/>
<path d="M517.761 219.906H897.09" stroke="black" stroke-opacity="0.33" stroke-width="2"/>
<path d="M510.475 222.291H904.377" stroke="black" stroke-opacity="0.33" stroke-width="2"/>
<path d="M502.605 224.867H912.245" stroke="black" stroke-opacity="0.33" stroke-width="2"/>
<path d="M494.082 227.657H920.769" stroke="black" stroke-opacity="0.33" stroke-width="2"/>
<path d="M484.819 230.69H930.034" stroke="black" stroke-opacity="0.33" stroke-width="2"/>
<path d="M474.713 233.998H940.138" stroke="black" stroke-opacity="0.33" stroke-width="2"/>
<path d="M463.647 237.62H951.204" stroke="black" stroke-opacity="0.33" stroke-width="2"/>
<path d="M451.477 241.604H963.375" stroke="black" stroke-opacity="0.33" stroke-width="2"/>
<path d="M438.026 246.008H976.825" stroke="black" stroke-opacity="0.33" stroke-width="2"/>
<path d="M423.085 250.899H991.767" stroke="black" stroke-opacity="0.33" stroke-width="2"/>
<path d="M406.388 256.365H1008.46" stroke="black" stroke-opacity="0.33" stroke-width="2"/>
<path d="M387.608 262.512H1027.24" stroke="black" stroke-opacity="0.33" stroke-width="2"/>
<path d="M366.328 269.478H1048.52" stroke="black" stroke-opacity="0.33" stroke-width="2"/>
<path d="M342.015 277.437H1072.83" stroke="black" stroke-opacity="0.33" stroke-width="2"/>
<path d="M313.971 286.617H1100.88" stroke="black" stroke-opacity="0.33" stroke-width="2"/>
<path d="M281.265 297.324H1133.59" stroke="black" stroke-opacity="0.33" stroke-width="2"/>
<path d="M242.626 309.972H1172.22" stroke="black" stroke-opacity="0.33" stroke-width="2"/>
<path d="M196.284 325.143H1218.57" stroke="black" stroke-opacity="0.33" stroke-width="2"/>
<path d="M139.676 343.673H1275.17" stroke="black" stroke-opacity="0.33" stroke-width="2"/>
<path d="M68.9706 366.819H1345.88" stroke="black" stroke-opacity="0.33" stroke-width="2"/>
<path d="M-21.8526 396.55H1436.7" stroke="black" stroke-opacity="0.33" stroke-width="2"/>
<path d="M1502.8 436.143L836.938 203.139" stroke="black" stroke-opacity="0.33" stroke-width="2"/>
<path d="M1447.95 436.143L828.007 203.139" stroke="black" stroke-opacity="0.33" stroke-width="2"/>
<path d="M1393.09 436.143L819.075 203.139" stroke="black" stroke-opacity="0.33" stroke-width="2"/>
<path d="M1338.24 436.143L810.143 203.139" stroke="black" stroke-opacity="0.33" stroke-width="2"/>
<path d="M1283.39 436.143L801.212 203.139" stroke="black" stroke-opacity="0.33" stroke-width="2"/>
<path d="M1228.53 436.143L792.28 203.139" stroke="black" stroke-opacity="0.33" stroke-width="2"/>
<path d="M1173.68 436.143L783.347 203.139" stroke="black" stroke-opacity="0.33" stroke-width="2"/>
<path d="M1118.83 436.143L774.415 203.139" stroke="black" stroke-opacity="0.33" stroke-width="2"/>
<path d="M1063.97 436.143L765.483 203.139" stroke="black" stroke-opacity="0.33" stroke-width="2"/>
<path d="M1009.12 436.143L756.552 203.139" stroke="black" stroke-opacity="0.33" stroke-width="2"/>
<path d="M954.265 436.143L747.619 203.139" stroke="black" stroke-opacity="0.33" stroke-width="2"/>
<path d="M899.411 436.143L738.686 203.139" stroke="black" stroke-opacity="0.33" stroke-width="2"/>
<path d="M844.559 436.143L729.755 203.139" stroke="black" stroke-opacity="0.33" stroke-width="2"/>
<path d="M789.705 436.143L720.823 203.139" stroke="black" stroke-opacity="0.33" stroke-width="2"/>
<path d="M734.852 436.143L711.891 203.139" stroke="black" stroke-opacity="0.33" stroke-width="2"/>
<path d="M679.999 436.143L702.959 203.139" stroke="black" stroke-opacity="0.33" stroke-width="2"/>
<path d="M625.146 436.143L694.028 203.139" stroke="black" stroke-opacity="0.33" stroke-width="2"/>
<path d="M570.292 436.143L685.096 203.139" stroke="black" stroke-opacity="0.33" stroke-width="2"/>
<path d="M515.438 436.143L676.163 203.139" stroke="black" stroke-opacity="0.33" stroke-width="2"/>
<path d="M460.585 436.143L667.232 203.139" stroke="black" stroke-opacity="0.33" stroke-width="2"/>
<path d="M405.732 436.143L658.299 203.139" stroke="black" stroke-opacity="0.33" stroke-width="2"/>
<path d="M350.879 436.143L649.368 203.139" stroke="black" stroke-opacity="0.33" stroke-width="2"/>
<path d="M296.026 436.143L640.436 203.139" stroke="black" stroke-opacity="0.33" stroke-width="2"/>
<path d="M241.173 436.143L631.505 203.139" stroke="black" stroke-opacity="0.33" stroke-width="2"/>
<path d="M186.319 436.143L622.572 203.139" stroke="black" stroke-opacity="0.33" stroke-width="2"/>
<path d="M131.466 436.143L613.64 203.139" stroke="black" stroke-opacity="0.33" stroke-width="2"/>
<path d="M76.6125 436.143L604.708 203.139" stroke="black" stroke-opacity="0.33" stroke-width="2"/>
<path d="M21.7595 436.143L595.777 203.139" stroke="black" stroke-opacity="0.33" stroke-width="2"/>
<path d="M-33.0945 436.143L586.844 203.139" stroke="black" stroke-opacity="0.33" stroke-width="2"/>
<path d="M-87.9472 436.143L577.912 203.139" stroke="black" stroke-opacity="0.33" stroke-width="2"/>
</g>
<g filter="url(#filter1_f)">
<path d="M661.637 209.725L181.015 367.058H1329.22L848.603 209.725H661.637Z" stroke="#9C1FFF" stroke-opacity="0.51" stroke-width="3"/>
<path d="M659.042 210.574H851.198" stroke="#9C1FFF" stroke-opacity="0.51" stroke-width="3"/>
<path d="M656.299 211.472H853.941" stroke="#9C1FFF" stroke-opacity="0.51" stroke-width="3"/>
<path d="M653.395 212.423H856.845" stroke="#9C1FFF" stroke-opacity="0.51" stroke-width="3"/>
<path d="M650.315 213.431H859.924" stroke="#9C1FFF" stroke-opacity="0.51" stroke-width="3"/>
<path d="M647.044 214.502H863.197" stroke="#9C1FFF" stroke-opacity="0.51" stroke-width="3"/>
<path d="M643.56 215.642H866.679" stroke="#9C1FFF" stroke-opacity="0.51" stroke-width="3"/>
<path d="M639.845 216.859H870.394" stroke="#9C1FFF" stroke-opacity="0.51" stroke-width="3"/>
<path d="M635.875 218.158H874.366" stroke="#9C1FFF" stroke-opacity="0.51" stroke-width="3"/>
<path d="M631.62 219.551H878.62" stroke="#9C1FFF" stroke-opacity="0.51" stroke-width="3"/>
<path d="M627.051 221.047H883.189" stroke="#9C1FFF" stroke-opacity="0.51" stroke-width="3"/>
<path d="M622.131 222.657H888.109" stroke="#9C1FFF" stroke-opacity="0.51" stroke-width="3"/>
<path d="M616.817 224.397H893.422" stroke="#9C1FFF" stroke-opacity="0.51" stroke-width="3"/>
<path d="M611.062 226.281H899.177" stroke="#9C1FFF" stroke-opacity="0.51" stroke-width="3"/>
<path d="M604.807 228.328H905.433" stroke="#9C1FFF" stroke-opacity="0.51" stroke-width="3"/>
<path d="M597.983 230.562H912.256" stroke="#9C1FFF" stroke-opacity="0.51" stroke-width="3"/>
<path d="M590.511 233.008H919.728" stroke="#9C1FFF" stroke-opacity="0.51" stroke-width="3"/>
<path d="M582.294 235.698H927.947" stroke="#9C1FFF" stroke-opacity="0.51" stroke-width="3"/>
<path d="M573.211 238.672H937.028" stroke="#9C1FFF" stroke-opacity="0.51" stroke-width="3"/>
<path d="M563.122 241.974H947.118" stroke="#9C1FFF" stroke-opacity="0.51" stroke-width="3"/>
<path d="M551.848 245.665H958.392" stroke="#9C1FFF" stroke-opacity="0.51" stroke-width="3"/>
<path d="M539.167 249.816H971.073" stroke="#9C1FFF" stroke-opacity="0.51" stroke-width="3"/>
<path d="M524.798 254.52H985.442" stroke="#9C1FFF" stroke-opacity="0.51" stroke-width="3"/>
<path d="M508.381 259.894H1001.86" stroke="#9C1FFF" stroke-opacity="0.51" stroke-width="3"/>
<path d="M489.445 266.093H1020.8" stroke="#9C1FFF" stroke-opacity="0.51" stroke-width="3"/>
<path d="M467.36 273.322H1042.88" stroke="#9C1FFF" stroke-opacity="0.51" stroke-width="3"/>
<path d="M441.27 281.863H1068.97" stroke="#9C1FFF" stroke-opacity="0.51" stroke-width="3"/>
<path d="M409.978 292.106H1100.26" stroke="#9C1FFF" stroke-opacity="0.51" stroke-width="3"/>
<path d="M371.754 304.619H1138.48" stroke="#9C1FFF" stroke-opacity="0.51" stroke-width="3"/>
<path d="M324.011 320.248H1186.23" stroke="#9C1FFF" stroke-opacity="0.51" stroke-width="3"/>
<path d="M262.684 340.324H1247.56" stroke="#9C1FFF" stroke-opacity="0.51" stroke-width="3"/>
<path d="M1292.19 367.058L842.572 209.725" stroke="#9C1FFF" stroke-opacity="0.51" stroke-width="3"/>
<path d="M1255.15 367.058L836.541 209.725" stroke="#9C1FFF" stroke-opacity="0.51" stroke-width="3"/>
<path d="M1218.11 367.058L830.51 209.725" stroke="#9C1FFF" stroke-opacity="0.51" stroke-width="3"/>
<path d="M1181.07 367.058L824.478 209.725" stroke="#9C1FFF" stroke-opacity="0.51" stroke-width="3"/>
<path d="M1144.03 367.058L818.448 209.725" stroke="#9C1FFF" stroke-opacity="0.51" stroke-width="3"/>
<path d="M1106.99 367.058L812.416 209.725" stroke="#9C1FFF" stroke-opacity="0.51" stroke-width="3"/>
<path d="M1069.95 367.058L806.385 209.725" stroke="#9C1FFF" stroke-opacity="0.51" stroke-width="3"/>
<path d="M1032.91 367.058L800.354 209.725" stroke="#9C1FFF" stroke-opacity="0.51" stroke-width="3"/>
<path d="M995.873 367.058L794.323 209.725" stroke="#9C1FFF" stroke-opacity="0.51" stroke-width="3"/>
<path d="M958.835 367.058L788.292 209.725" stroke="#9C1FFF" stroke-opacity="0.51" stroke-width="3"/>
<path d="M921.795 367.058L782.26 209.725" stroke="#9C1FFF" stroke-opacity="0.51" stroke-width="3"/>
<path d="M884.756 367.058L776.228 209.725" stroke="#9C1FFF" stroke-opacity="0.51" stroke-width="3"/>
<path d="M847.717 367.058L770.198 209.725" stroke="#9C1FFF" stroke-opacity="0.51" stroke-width="3"/>
<path d="M810.678 367.058L764.166 209.725" stroke="#9C1FFF" stroke-opacity="0.51" stroke-width="3"/>
<path d="M773.639 367.058L758.135 209.725" stroke="#9C1FFF" stroke-opacity="0.51" stroke-width="3"/>
<path d="M736.6 367.058L752.104 209.725" stroke="#9C1FFF" stroke-opacity="0.51" stroke-width="3"/>
<path d="M699.561 367.058L746.073 209.725" stroke="#9C1FFF" stroke-opacity="0.51" stroke-width="3"/>
<path d="M662.522 367.058L740.042 209.725" stroke="#9C1FFF" stroke-opacity="0.51" stroke-width="3"/>
<path d="M625.483 367.058L734.01 209.725" stroke="#9C1FFF" stroke-opacity="0.51" stroke-width="3"/>
<path d="M588.444 367.058L727.979 209.725" stroke="#9C1FFF" stroke-opacity="0.51" stroke-width="3"/>
<path d="M551.405 367.058L721.948 209.725" stroke="#9C1FFF" stroke-opacity="0.51" stroke-width="3"/>
<path d="M514.366 367.058L715.917 209.725" stroke="#9C1FFF" stroke-opacity="0.51" stroke-width="3"/>
<path d="M477.327 367.058L709.886 209.725" stroke="#9C1FFF" stroke-opacity="0.51" stroke-width="3"/>
<path d="M440.289 367.058L703.855 209.725" stroke="#9C1FFF" stroke-opacity="0.51" stroke-width="3"/>
<path d="M403.249 367.058L697.824 209.725" stroke="#9C1FFF" stroke-opacity="0.51" stroke-width="3"/>
<path d="M366.21 367.058L691.792 209.725" stroke="#9C1FFF" stroke-opacity="0.51" stroke-width="3"/>
<path d="M329.171 367.058L685.761 209.725" stroke="#9C1FFF" stroke-opacity="0.51" stroke-width="3"/>
<path d="M292.132 367.058L679.73 209.725" stroke="#9C1FFF" stroke-opacity="0.51" stroke-width="3"/>
<path d="M255.093 367.058L673.699 209.725" stroke="#9C1FFF" stroke-opacity="0.51" stroke-width="3"/>
<path d="M218.054 367.058L667.668 209.725" stroke="#9C1FFF" stroke-opacity="0.51" stroke-width="3"/>
</g>
<mask id="mask1" mask-type="alpha" maskUnits="userSpaceOnUse" x="438" y="1" width="564" height="235">
<rect x="438.459" y="1.00562" width="563.158" height="234.314" fill="#C4C4C4"/>
</mask>
<g mask="url(#mask1)">
<circle cx="724.942" cy="245.16" r="279.536" fill="url(#paint1_linear)"/>
</g>
</g>
<defs>
<filter id="filter0_f" x="-255.576" y="89.6748" width="1926" height="459.933" filterUnits="userSpaceOnUse" color-interpolation-filters="sRGB">
<feFlood flood-opacity="0" result="BackgroundImageFix"/>
<feBlend mode="normal" in="SourceGraphic" in2="BackgroundImageFix" result="shape"/>
<feGaussianBlur stdDeviation="56.2322" result="effect1_foregroundBlur"/>
</filter>
<filter id="filter1_f" x="68.084" y="95.7608" width="1374.07" height="385.262" filterUnits="userSpaceOnUse" color-interpolation-filters="sRGB">
<feFlood flood-opacity="0" result="BackgroundImageFix"/>
<feBlend mode="normal" in="SourceGraphic" in2="BackgroundImageFix" result="shape"/>
<feGaussianBlur stdDeviation="56.2322" result="effect1_foregroundBlur"/>
</filter>
<linearGradient id="paint0_linear" x1="724.06" y1="-2.01123" x2="724.06" y2="216.221" gradientUnits="userSpaceOnUse">
<stop stop-color="#630092"/>
<stop offset="1" stop-color="#800080"/>
</linearGradient>
<linearGradient id="paint1_linear" x1="704.953" y1="-2.51421" x2="725.066" y2="451.532" gradientUnits="userSpaceOnUse">
<stop stop-color="#E30069"/>
<stop offset="0.463542" stop-color="#990357"/>
<stop offset="1" stop-color="#9F035B"/>
</linearGradient>
</defs>
</svg>
