<svg width="145" height="267" xmlns="http://www.w3.org/2000/svg">

 <g>
  <title>background</title>
  <rect fill="none" id="canvas_background" height="269" width="147" y="-1" x="-1"/>
 </g>
 <g>
  <title>Layer 1</title>
  <path id="svg_1" fill-opacity="0.5" fill="black" d="m73.0233,22.14893c-5.4808,0.62219 -11.2455,2.26251 -15.7608,4.46844c-12.2394,6.05223 -20.6452,17.36473 -22.9738,30.88313c-0.5112,3.0261 -0.5964,4.2139 -0.4544,8.5975c0.2272,6.8158 1.0508,10.2378 3.8621,16.1203c1.8459,3.8462 2.9534,5.1472 1.5903,1.8948c-1.789,-4.2422 -3.0101,-10.6054 -2.9534,-15.0739c0.0284,-1.3009 0.1136,-2.0079 0.1704,-1.5271c0.8804,7.2965 2.499,13.0942 5.3104,18.9484c0.8236,1.6968 1.7891,4.0725 2.1583,5.232c2.6693,8.7389 8.7749,17.1384 15.8743,21.8048c1.6187,1.0747 3.0954,1.9515 3.2658,1.9515c0.1704,0 -0.3692,-0.4243 -1.2211,-0.905c-1.4767,-0.8485 -5.566,-4.4402 -5.3388,-4.6665c0.0568,-0.0565 1.0223,0.3394 2.1298,0.905c2.215,1.0747 5.9351,2.4039 6.8155,2.4039c0.8235,0 1.4767,0.905 1.4767,2.0646c0,1.2444 -0.0284,1.2444 -4.0041,0.5939c-1.5335,-0.2545 -3.209,-0.3959 -3.7485,-0.2828c-0.9372,0.1697 -2.3854,1.0464 -4.6005,2.715c-0.6531,0.5373 -2.1582,1.1878 -3.6917,1.6403c-2.0162,0.5939 -2.7546,0.9898 -3.6349,1.8383c-0.7951,0.7915 -1.4199,1.1315 -2.5274,1.3295c-1.3347,0.254 -3.0386,1.131 -5.1968,2.715c-0.4544,0.339 -1.7607,1.074 -2.8966,1.64c-4.5436,2.263 -8.1785,5.289 -9.5132,7.919c-0.3124,0.65 -0.8236,1.499 -1.1076,1.895c-1.1359,1.583 -2.1014,5.09 -2.3854,8.739c-0.3691,4.185 -1.4483,9.219 -2.357,10.803c-0.4544,0.82 -1.5051,2.715 -2.3286,4.186c-0.8519,1.47 -1.9027,3.704 -2.3286,4.949c-0.4544,1.244 -1.7039,3.676 -2.783,5.402c-2.5274,4.044 -3.8053,6.617 -4.71404,9.53c-1.64707,5.345 -4.94122,14.48 -5.76475,15.979c-0.19879,0.368 -0.99393,2.489 -1.76067,4.723c-1.50508,4.412 -1.73226,6.392 -1.07911,9.531c0.34077,1.584 2.12983,5.6 3.32254,7.353c0.62475,0.962 0.68155,1.301 0.53956,2.941c-0.11359,1.584 -0.0568,2.008 0.48276,2.8c0.31238,0.509 0.88033,1.075 1.19271,1.216c0.34077,0.17 0.70994,0.651 0.79514,1.075c0.45436,1.782 1.70386,3.79 2.75458,4.497c0.73838,0.452 1.10748,0.933 1.10748,1.329c0,0.339 0.3408,1.103 0.7384,1.668c0.3975,0.594 1.5903,3.62 2.641,6.731l1.9026,5.628l-0.7667,1.33c-0.426,0.707 -1.0791,1.64 -1.4483,2.064c-1.1643,1.273 -2.7546,3.62 -3.2374,4.751c-0.2555,0.623 -0.6531,2.178 -0.85188,3.507c-0.31238,2.065 -0.31238,3.026 0.05679,6.646c0.25559,2.319 0.62479,5.063 0.85189,6.081c0.426,1.753 1.7607,4.355 3.1522,6.024c0.4828,0.594 0.568,0.905 0.3692,1.272c-0.142,0.255 -0.5396,1.867 -0.852,3.592c-0.3407,1.697 -0.8519,3.988 -1.1359,5.091c-0.5963,2.121 -1.2495,6.165 -1.8458,11.454c-0.2272,1.781 -0.51119,3.818 -0.68158,4.525c-0.17038,0.707 -0.62475,4.383 -1.02232,8.201c-1.16431,11.058 -3.01016,24.916 -3.72011,28.055c-0.28398,1.273 -1.02232,2.885 -2.12983,4.808l-1.67547,2.913l0.90873,0.311c0.68154,0.226 0.93712,0.481 0.93712,0.962c0,0.848 0.79514,1.074 4.34486,1.329c2.47061,0.17 2.6126,0.198 2.6126,0.82c0,0.82 0.284,1.555 0.5396,1.386c0.1136,-0.057 1.0223,0.141 1.9878,0.424c0.9939,0.311 2.4422,0.566 3.2374,0.566c1.7606,0.028 3.6065,0.396 3.8904,0.82c0.0852,0.169 0.3976,2.715 0.6816,5.628c0.4544,4.892 1.931,14.48 2.8114,18.156l0.3975,1.556l20.0489,0.085l20.0772,0.056l0.0284,-2.177c0,-1.217 0.0568,-2.461 0.1136,-2.772c0.1136,-0.65 0.7668,-13.603 0.8236,-15.979l0.0284,-1.527l2.9817,-0.651c1.6471,-0.367 3.7769,-0.933 4.7708,-1.244c0.994,-0.339 1.8743,-0.509 1.9595,-0.424c0.0852,0.085 -0.0568,0.679 -0.3408,1.301c-0.3124,0.679 -0.4259,1.244 -0.2556,1.386c0.2272,0.226 1.5903,0.028 8.349,-1.075c4.714,-0.792 6.2759,-1.131 7.5254,-1.697c0.7667,-0.339 1.4199,-0.537 1.4767,-0.481c0.0852,0.057 -0.142,0.651 -0.4828,1.273c-0.6815,1.386 -0.5395,1.838 0.568,1.584c0.7099,-0.142 0.8803,-0.029 1.7607,1.329c0.5679,0.82 1.6186,2.573 2.357,3.903c2.499,4.412 5.8496,9.134 10.0246,14.055l2.669,3.196l20.418,0c12.722,0 20.418,-0.113 20.418,-0.283c0,-0.396 -1.704,-4.949 -4.061,-10.888c-2.47,-6.222 -2.385,-5.939 -4.998,-14.282c-1.079,-3.507 -2.101,-6.674 -2.243,-7.042c-0.227,-0.622 -0.085,-0.848 1.193,-1.951c2.271,-2.008 2.47,-2.235 2.3,-2.97c-0.114,-0.452 0.085,-0.961 0.681,-1.725c0.483,-0.594 0.881,-1.386 0.881,-1.725c0,-0.34 -1.477,-4.44 -3.294,-9.078c-1.818,-4.639 -4.033,-10.549 -4.942,-13.123c-0.908,-2.574 -2.272,-6.335 -3.067,-8.343c-1.42,-3.677 -5.622,-16.177 -7.582,-22.625c-1.619,-5.26 -3.947,-11.68 -4.572,-12.529c-0.255,-0.367 -0.227,-0.593 0.199,-1.159c0.312,-0.424 0.71,-1.64 0.937,-2.715c0.227,-1.103 0.568,-2.715 0.767,-3.62c0.284,-1.386 0.255,-2.008 -0.171,-4.242c-1.022,-5.204 -1.618,-6.448 -5.338,-11.03c-1.222,-1.499 -2.187,-2.913 -2.102,-3.111c0.085,-0.198 0.88,-0.594 1.789,-0.877c1.221,-0.396 2.073,-0.905 3.323,-2.121c3.095,-2.913 9.854,-11.001 9.854,-11.793c0,-0.198 0.937,-1.075 2.073,-1.98c2.925,-2.319 7.27,-6.844 7.866,-8.173c0.284,-0.622 1.022,-1.64 1.647,-2.262c0.653,-0.623 1.534,-1.895 1.96,-2.829c0.653,-1.414 0.766,-2.121 0.823,-4.242c0,-1.414 0.256,-3.365 0.511,-4.383c0.256,-1.018 0.568,-3.451 0.653,-5.402c0.171,-3.705 0.086,-4.384 -1.221,-9.022c-0.71,-2.545 -2.016,-8.795 -3.691,-17.619c-1.08,-5.854 -2.755,-13.094 -4.09,-17.732c-1.476,-5.176 -2.556,-10.153 -2.556,-11.737c0,-4.978 -3.407,-14.31 -6.474,-17.704c-0.937,-1.047 -1.903,-1.697 -4.033,-2.687c-2.442,-1.131 -2.839,-1.414 -2.981,-2.149c-0.398,-1.7254 -4.232,-6.0524 -6.362,-7.1554c-0.397,-0.198 -2.073,-0.5656 -3.72,-0.8202c-3.209,-0.4525 -5.992,-1.2443 -8.462,-2.319c-1.2497,-0.5656 -2.0165,-0.6788 -4.0895,-0.6788l-2.5558,0l0.1136,-3.9028l0.1136,-3.8745l1.4199,-2.1211c0.7951,-1.1595 1.931,-2.9695 2.499,-4.0442c0.5963,-1.0464 1.1359,-1.8949 1.1927,-1.8949c0.3408,0 -2.3854,5.9108 -4.0325,8.7389c-0.568,0.9899 -0.9087,1.7535 -0.7384,1.6969c0.4828,-0.1696 3.9757,-4.723 5.2252,-6.8441c0.6252,-1.0464 1.1932,-1.8948 1.2492,-1.8948c0.171,0 -1.0788,2.6867 -1.5331,3.2524c-0.2272,0.3111 0.5111,-0.3677 1.6191,-1.5272c2.385,-2.4605 3.407,-3.8463 5.054,-6.9572c0.71,-1.3292 1.221,-2.0363 1.221,-1.6969c0.029,0.3111 0.086,0.8201 0.142,1.1312c0.057,0.3111 0.171,1.4424 0.284,2.5454l0.228,1.9797l0.397,-1.9232c0.455,-2.1776 1.988,-6.6178 2.386,-6.8723c0.142,-0.0848 0.255,0.3959 0.284,1.0747c0,0.6787 0.085,1.7251 0.198,2.3473c0.199,1.103 0.199,1.103 0.54,-0.8484c0.255,-1.4141 0.965,-3.2523 2.471,-6.3916c2.3,-4.7512 3.578,-8.2015 4.259,-11.567c1.789,-8.852 0.824,-18.9484 -2.641,-27.5742c-2.073,-5.1472 -5.963,-10.8883 -9.882,-14.59314c-4.175,-3.95938 -10.763,-7.29657 -16.329,-8.28641c-2.7546,-0.48077 -13.3185,-0.76361 -16.3287,-0.42422zm37.9677,185.61007c-0.454,0.481 -1.022,1.131 -1.249,1.414c-0.341,0.481 -0.37,0.396 -0.54,-0.933c-0.17,-1.415 0.057,-2.489 1.59,-7.919c0.341,-1.245 0.341,-1.216 0.71,2.63l0.369,3.931l-0.88,0.877z"/>
 </g>
</svg>