<svg width="4" height="11" viewBox="0 0 4 11" fill="none" xmlns="http://www.w3.org/2000/svg">
<path d="M2.76855 6.94434H1.12793L0.895508 0.046875H3.00098L2.76855 6.94434ZM1.94824 8.02441C2.28092 8.02441 2.54753 8.1224 2.74805 8.31836C2.95312 8.51432 3.05566 8.76497 3.05566 9.07031C3.05566 9.37109 2.95312 9.61947 2.74805 9.81543C2.54753 10.0114 2.28092 10.1094 1.94824 10.1094C1.62012 10.1094 1.35352 10.0114 1.14844 9.81543C0.947917 9.61947 0.847656 9.37109 0.847656 9.07031C0.847656 8.76953 0.947917 8.52116 1.14844 8.3252C1.35352 8.12467 1.62012 8.02441 1.94824 8.02441Z" fill="#FF0000"/>
</svg>
