<svg width="17" height="17" viewBox="0 0 17 17" fill="none" xmlns="http://www.w3.org/2000/svg">
<path d="M14.4499 9.32508L14.4416 9.34175C14.4749 9.06675 14.5083 8.78342 14.5083 8.50008C14.5083 8.21675 14.4833 7.95008 14.4499 7.67508L14.4583 7.69175L16.4916 6.09175L14.4666 2.57508L12.0749 3.54175L12.0833 3.55008C11.6499 3.21675 11.1749 2.93341 10.6583 2.71675H10.6666L10.2833 0.166748H6.22493L5.85827 2.72508H5.8666C5.34993 2.94175 4.87493 3.22508 4.4416 3.55842L4.44993 3.55008L2.04993 2.57508L0.0166016 6.09175L2.04993 7.69175L2.05827 7.67508C2.02493 7.95008 1.99993 8.21675 1.99993 8.50008C1.99993 8.78342 2.02493 9.06675 2.0666 9.34175L2.05827 9.32508L0.308268 10.7001L0.0332684 10.9167L2.05827 14.4167L4.45827 13.4584L4.4416 13.4251C4.88327 13.7667 5.35827 14.0501 5.88327 14.2667H5.85827L6.23327 16.8334H10.2749C10.2749 16.8334 10.2999 16.6834 10.3249 16.4834L10.6416 14.2751H10.6333C11.1499 14.0584 11.6333 13.7751 12.0749 13.4334L12.0583 13.4667L14.4583 14.4251L16.4833 10.9251C16.4833 10.9251 16.3666 10.8251 16.2083 10.7084L14.4499 9.32508V9.32508ZM8.24993 11.4167C6.6416 11.4167 5.33327 10.1084 5.33327 8.50008C5.33327 6.89175 6.6416 5.58341 8.24993 5.58341C9.85827 5.58341 11.1666 6.89175 11.1666 8.50008C11.1666 10.1084 9.85827 11.4167 8.24993 11.4167Z" fill="#7E57C2"/>
</svg>
