<svg width="51" height="43" viewBox="0 0 51 43" fill="none" xmlns="http://www.w3.org/2000/svg">
<path d="M18.1381 20.3929L12.6095 25L18.1381 29.6071C18.3984 29.8241 18.3984 30.1758 18.1381 30.3928C17.8777 30.6097 17.4556 30.6097 17.1953 30.3928L11.1953 25.3928C10.9349 25.1759 10.9349 24.8241 11.1953 24.6072L17.1953 19.6072C17.4556 19.3903 17.8777 19.3903 18.1381 19.6072C18.3984 19.8242 18.3984 20.1759 18.1381 20.3929ZM31.8619 29.6071L37.3905 25L31.8619 20.3929C31.6016 20.1759 31.6016 19.8242 31.8619 19.6072C32.1223 19.3903 32.5444 19.3903 32.8047 19.6072L38.8047 24.6072C39.0651 24.8241 39.0651 25.1759 38.8047 25.3928L32.8047 30.3928C32.5444 30.6097 32.1223 30.6097 31.8619 30.3928C31.6016 30.1758 31.6016 29.8241 31.8619 29.6071ZM22.3062 34.6011C22.2024 34.8954 21.8318 35.0639 21.4786 34.9773C21.1253 34.8907 20.9232 34.5819 21.0271 34.2875L27.6938 15.3989C27.7976 15.1046 28.1682 14.9361 28.5214 15.0227C28.8747 15.1093 29.0768 15.4181 28.9729 15.7124L22.3062 34.6011Z" fill="#FFD9A0"/>
<rect x="2" y="2" width="47" height="39" stroke="#FFD9A0" stroke-width="4"/>
<path d="M0 10H50" stroke="#FFD9A0" stroke-width="4"/>
</svg>
