<svg width="43" height="18" viewBox="0 0 43 18" fill="none" xmlns="http://www.w3.org/2000/svg">
<path d="M31.618 0H23.2045V3.6H31.618C35.0885 3.6 37.9281 6.03 37.9281 9C37.9281 11.97 35.0885 14.4 31.618 14.4H23.2045V18H31.618C37.4233 18 42.1348 13.968 42.1348 9C42.1348 4.032 37.4233 0 31.618 0ZM18.9977 14.4H10.5842C7.11368 14.4 4.27413 11.97 4.27413 9C4.27413 6.03 7.11368 3.6 10.5842 3.6H18.9977V0H10.5842C4.77893 0 0.0673828 4.032 0.0673828 9C0.0673828 13.968 4.77893 18 10.5842 18H18.9977V14.4ZM12.6876 7.2H29.5146V10.8H12.6876V7.2ZM31.618 0H23.2045V3.6H31.618C35.0885 3.6 37.9281 6.03 37.9281 9C37.9281 11.97 35.0885 14.4 31.618 14.4H23.2045V18H31.618C37.4233 18 42.1348 13.968 42.1348 9C42.1348 4.032 37.4233 0 31.618 0ZM18.9977 14.4H10.5842C7.11368 14.4 4.27413 11.97 4.27413 9C4.27413 6.03 7.11368 3.6 10.5842 3.6H18.9977V0H10.5842C4.77893 0 0.0673828 4.032 0.0673828 9C0.0673828 13.968 4.77893 18 10.5842 18H18.9977V14.4ZM12.6876 7.2H29.5146V10.8H12.6876V7.2Z" fill="#EFC1FF"/>
</svg>
