<svg width="9" height="36" viewBox="0 0 9 36" fill="none" xmlns="http://www.w3.org/2000/svg">
<path d="M7.49219 24.5234H1.86719L1.07031 0.875H8.28906L7.49219 24.5234ZM4.67969 28.2266C5.82031 28.2266 6.73438 28.5625 7.42188 29.2344C8.125 29.9062 8.47656 30.7656 8.47656 31.8125C8.47656 32.8438 8.125 33.6953 7.42188 34.3672C6.73438 35.0391 5.82031 35.375 4.67969 35.375C3.55469 35.375 2.64062 35.0391 1.9375 34.3672C1.25 33.6953 0.90625 32.8438 0.90625 31.8125C0.90625 30.7812 1.25 29.9297 1.9375 29.2578C2.64062 28.5703 3.55469 28.2266 4.67969 28.2266Z" fill="white"/>
</svg>
