<svg width="24" height="6" viewBox="0 0 24 6" fill="none" xmlns="http://www.w3.org/2000/svg">
<path d="M0.845703 2.91992C0.845703 2.24609 1.07031 1.69922 1.51953 1.2793C1.97852 0.859375 2.5498 0.649414 3.2334 0.649414C3.92676 0.649414 4.49805 0.859375 4.94727 1.2793C5.40625 1.69922 5.63574 2.24609 5.63574 2.91992C5.63574 3.58398 5.41113 4.12598 4.96191 4.5459C4.5127 4.95605 3.93652 5.16113 3.2334 5.16113C2.54004 5.16113 1.96875 4.95605 1.51953 4.5459C1.07031 4.12598 0.845703 3.58398 0.845703 2.91992ZM9.57617 2.91992C9.57617 2.24609 9.80078 1.69922 10.25 1.2793C10.709 0.859375 11.2803 0.649414 11.9639 0.649414C12.6572 0.649414 13.2285 0.859375 13.6777 1.2793C14.1367 1.69922 14.3662 2.24609 14.3662 2.91992C14.3662 3.58398 14.1416 4.12598 13.6924 4.5459C13.2432 4.95605 12.667 5.16113 11.9639 5.16113C11.2705 5.16113 10.6992 4.95605 10.25 4.5459C9.80078 4.12598 9.57617 3.58398 9.57617 2.91992ZM18.3066 2.91992C18.3066 2.24609 18.5312 1.69922 18.9805 1.2793C19.4395 0.859375 20.0107 0.649414 20.6943 0.649414C21.3877 0.649414 21.959 0.859375 22.4082 1.2793C22.8672 1.69922 23.0967 2.24609 23.0967 2.91992C23.0967 3.58398 22.8721 4.12598 22.4229 4.5459C21.9736 4.95605 21.3975 5.16113 20.6943 5.16113C20.001 5.16113 19.4297 4.95605 18.9805 4.5459C18.5312 4.12598 18.3066 3.58398 18.3066 2.91992Z" fill="white"/>
</svg>
