<svg width="37" height="37" viewBox="0 0 37 37" fill="none" xmlns="http://www.w3.org/2000/svg">
<path d="M18.5004 0C8.29884 0 0 8.29884 0 18.4996C0 28.7003 8.29884 37 18.5004 37C28.7012 37 37 28.7003 37 18.4996C37 8.29884 28.7012 0 18.5004 0ZM31.3941 14.5552C31.1915 14.8297 31.1458 14.7734 31.0837 14.788C30.9347 14.8235 31.0837 15.2443 31.0837 15.396C31.0837 15.474 31.0837 15.6297 31.0837 15.7077C31.0837 15.8323 31.172 16.1183 31.0837 16.2057C30.9733 16.3157 30.615 16.2057 30.4598 16.2057C30.3818 16.2057 30.227 16.2057 30.149 16.2057C29.9623 16.2057 29.5889 16.2057 29.4013 16.2057C29.2763 16.2057 29.0275 16.2057 28.9029 16.2057C28.7783 16.2057 28.5291 16.2057 28.4045 16.2057C28.2174 16.2057 27.7886 16.3383 27.6564 16.2057C27.6125 16.1613 27.7003 16.0013 27.6564 15.9569C27.6125 15.9126 27.4662 15.9769 27.4077 15.9569C27.3132 15.9232 27.1704 15.7742 27.0959 15.7073C26.9642 15.5893 26.7607 15.2758 26.598 15.2093C26.445 15.1459 26.092 15.2647 25.9364 15.2093C25.6433 15.1055 25.477 14.835 25.2903 14.1499C25.1032 13.4639 26.1545 12.985 26.598 12.9034C26.7514 12.8764 27.0676 12.8764 27.221 12.9034C27.4001 12.9354 27.7292 13.1096 27.9056 13.1531C28.1318 13.2085 28.6723 13.103 28.8253 13.2777C28.8555 13.3123 28.8369 13.4187 28.8253 13.4648C28.7899 13.6018 28.6533 13.7757 28.4666 13.9003C28.2799 14.0258 29.3539 13.914 29.6497 13.9003C29.8102 13.8932 29.6497 13.9003 30.2106 13.5885C30.7711 13.2777 30.3348 13.2777 30.3348 13.0906C30.3348 12.9034 30.3973 12.5926 30.3973 12.4055C30.3973 12.2183 31.4411 12.7407 31.7679 12.9034C31.8921 12.966 32.0176 13.028 32.2664 13.1531C32.5151 13.2786 32.3794 13.6692 32.2664 13.7757C32.1799 13.8573 31.8065 13.8466 31.83 13.9628C31.8682 14.1442 31.8305 13.9641 31.3941 14.5552ZM1.49481 18.4996C1.49481 16.4278 1.86862 14.4421 2.55018 12.6041C2.54796 12.8467 2.54087 13.0711 2.55417 13.213C2.59452 13.6475 2.51692 14.5233 2.55417 14.9574C2.59364 15.4146 2.62955 16.3715 2.8659 16.764C2.99849 16.983 3.49602 17.2056 3.67561 17.3865C3.7847 17.4974 3.94477 17.7692 4.04898 17.8854C4.3749 18.2441 5.11011 18.8822 5.48171 19.1931C5.73801 19.4068 6.26393 19.8166 6.54063 20.0028C6.8701 20.2254 7.60531 20.558 7.91128 20.8125C8.0381 20.918 8.2372 21.1868 8.34673 21.3114C8.51612 21.502 8.90678 21.9331 8.96975 22.1202C9.03272 22.3073 8.90634 22.4319 8.96975 22.619C9.03272 22.8062 9.37992 22.619 8.98793 23.117C8.59549 23.615 8.40881 23.6775 8.40881 24.0513C8.40881 24.4251 8.24873 24.8185 8.34628 25.0482C8.41679 25.2109 8.79903 25.3426 8.90767 25.4836C9.00966 25.618 9.0815 25.9634 9.17196 26.1062C9.39456 26.4587 9.9759 27.0649 10.277 27.3527C10.3497 27.421 10.5457 27.511 10.5892 27.6015C10.6566 27.7425 10.5892 28.0693 10.5892 28.2249C10.5892 28.5202 10.4592 29.1419 10.5892 29.408C10.692 29.6177 11.1501 29.8434 11.1501 30.1556C11.1501 30.4678 11.8352 33.2698 11.8977 33.6441C11.9217 33.7851 11.9527 33.9886 11.9731 34.2002C5.82714 31.6354 1.49481 25.5652 1.49481 18.4996ZM18.5004 35.5052C16.4593 35.5052 14.502 35.1433 12.6879 34.4804C12.6928 34.1669 12.7212 33.8463 12.7074 33.6445C12.6862 33.339 12.6454 32.6477 13.0192 32.4606C13.393 32.2743 13.2688 32.336 14.0781 31.6509C14.8878 30.9658 14.9987 31.2066 14.8878 30.9658C14.69 30.5361 16.0088 29.6572 16.1959 29.5956C16.3826 29.533 16.5068 28.973 17.0052 28.2254C17.5036 27.4777 17.5036 27.291 17.6907 27.1039C17.8774 26.9168 17.442 26.7305 17.6907 26.1696C17.9395 25.6091 17.6898 25.1737 17.3794 24.6748C17.0682 24.1759 16.8181 23.18 16.6314 23.0554C16.4442 22.9308 15.5614 22.6474 15.2479 22.4328C15.0257 22.2803 14.9494 22.1211 14.3273 21.8723C13.7047 21.6227 13.6165 21.4635 13.4546 21.2488C13.3278 21.0817 13.1358 20.8755 12.7039 20.8755C12.2711 20.8755 11.6153 20.6702 11.2494 20.6258C11.0543 20.6023 10.6614 20.6258 10.465 20.6258C10.1533 20.6258 9.49921 20.7637 9.21985 20.6258C8.94004 20.4879 8.59682 19.8161 8.47178 19.6299C8.34673 19.4427 7.52106 18.5248 7.16365 18.1967C7.01732 18.0623 6.62621 17.8779 6.54063 17.6987C6.50737 17.6287 6.51047 17.4588 6.54063 17.387C6.5996 17.2451 6.83462 17.0101 6.97696 16.9515C7.07807 16.9099 7.22573 16.9515 7.41286 16.9515C7.59954 16.9515 7.78623 16.9515 7.91083 16.9515C8.03588 16.9515 8.22168 16.9515 8.40881 16.9515C8.59549 16.9515 9.28104 16.7653 9.46817 16.6398C9.6553 16.5152 9.6553 15.8301 9.84198 15.6439C10.0287 15.4567 10.2154 15.145 10.4029 15.0825C10.5896 15.0199 10.0287 15.4558 10.5896 15.0199C11.1506 14.584 12.1864 13.8369 12.1665 13.7123C12.1469 13.5877 11.0654 13.2759 12.1665 13.1509C13.2679 13.0272 14.2129 12.883 14.8262 12.5904C14.9951 12.5097 15.2621 12.2795 15.3862 12.0924C15.5104 11.9053 15.6984 11.4073 15.5729 11.1581C15.4487 10.9084 15.3853 10.473 14.7632 9.97501C14.1406 9.47615 13.9526 9.14801 13.7047 8.85357C13.5912 8.71832 13.3686 8.42211 13.2063 8.3556C12.966 8.25582 12.4174 8.28553 12.1665 8.3556C12.0339 8.39196 11.9598 8.47931 11.711 8.66644C11.4623 8.85357 11.8357 8.66644 11.4618 8.85357C11.088 9.0407 11.0255 9.0407 10.8388 9.10322C10.6521 9.16575 10.1262 9.30853 9.90451 9.22694C9.75995 9.17506 9.56129 8.91521 9.46906 8.79149C9.34489 8.6252 9.09524 8.10639 9.28193 7.98178C9.46905 7.85807 9.64554 7.49223 9.78034 7.34191C9.9116 7.19469 10.2517 6.98583 10.4034 6.86123C10.5311 6.75569 10.7719 6.52777 10.9018 6.42489C10.986 6.35926 11.1435 6.18854 11.2494 6.17524C11.7439 6.11715 11.9589 6.36325 12.1665 6.48697C12.2968 6.56502 12.4489 6.85502 12.5828 6.92242C12.7372 7.00047 13.0813 6.98495 13.2679 6.98495C13.4546 6.98495 13.2688 7.04836 13.7043 6.73618C14.1397 6.42401 14.3269 6.7987 14.1397 6.42445C13.953 6.05108 13.4551 5.49014 13.33 5.30301C13.2059 5.11588 12.8476 4.57134 12.5824 4.49419C12.4032 4.44142 12.0223 4.61879 11.8348 4.49419C11.6481 4.3687 11.5958 4.43166 11.2485 4.49419C10.9009 4.55582 11.7736 4.4933 10.9009 4.55582C10.0282 4.61835 10.238 4.55582 10.0282 4.61835C9.85795 4.66934 9.84021 4.74295 9.34312 4.80548C8.85668 4.86623 9.19812 4.868 8.34673 4.868C10.2154 3.47296 12.3806 2.45662 14.7268 1.92317C14.6687 1.97682 14.6155 2.02693 14.5756 2.06773C14.4909 2.15597 14.3149 2.33112 14.2643 2.44198C14.2253 2.52756 14.1411 2.74352 14.2018 2.81624C14.4062 3.05614 15.012 2.81624 15.2612 3.50134C15.5095 4.18644 15.6541 4.07381 15.5095 4.18645C15.2576 4.38377 15.3099 5.1314 15.1991 5.43205C15.1508 5.56286 14.9858 5.79566 14.9494 5.93002C14.8532 6.28698 14.8878 6.9477 15.3858 7.3428C15.8842 7.73701 15.9325 7.58535 15.8842 7.73701C15.7773 8.06604 16.7387 8.32589 17.0047 8.54672C17.1914 8.70103 17.3329 8.85845 17.7918 7.98622C18.2508 7.11399 18.6246 6.80225 18.8113 6.67765C18.998 6.55393 19.4716 6.1708 19.684 5.99343C19.8356 5.86617 20.1203 5.61918 20.2449 5.43205C20.3686 5.24581 21.1442 4.68885 21.3655 4.37269C21.538 4.12658 21.8293 3.55056 21.8009 3.25213C21.7854 3.08141 21.4901 2.75327 21.8009 2.56703C22.0235 2.43356 22.2661 2.1879 22.4177 1.95731C24.9746 2.5626 27.311 3.74301 29.2785 5.35932C29.0936 5.51275 28.8954 5.65022 28.7779 5.74378C28.3407 6.0901 27.1891 6.42445 26.8472 6.86433C26.7079 7.04348 26.7221 7.54678 26.598 7.73656C26.4654 7.94099 25.9537 8.1392 25.8503 8.36003C25.8308 8.40083 25.8503 8.45626 25.8503 8.54272C25.8503 8.56711 25.8503 8.58884 25.8503 8.60835C25.8503 8.63939 25.8503 8.66556 25.8503 8.67487C25.8503 8.76134 25.8206 8.82297 25.8503 8.85756C25.9949 9.02385 26.5022 8.96665 26.7217 8.98217C26.9709 8.99946 27.4711 9.00744 27.719 8.98217C27.7983 8.97418 27.9659 8.96665 28.0302 8.91964C28.1318 8.84603 28.2081 8.58707 28.2799 8.4833C28.4049 8.3015 28.6533 7.91704 28.84 7.7982C28.949 7.72991 29.2111 7.65364 29.3379 7.6736C29.4834 7.6971 29.8199 7.839 29.8364 7.98533C29.8439 8.04697 29.7747 8.04785 29.8364 8.23498C29.8989 8.42122 29.8989 8.92009 29.7122 9.10721C29.5251 9.29346 28.9025 9.60519 28.7158 9.72979C28.5287 9.8544 28.3495 9.90894 28.2169 9.91692C28.0444 9.92579 27.7048 9.86238 27.5323 9.8544C27.3451 9.84553 26.9669 9.81094 26.7851 9.8544C26.6831 9.87879 26.4765 9.95905 26.4104 10.0406C26.3319 10.1386 26.3474 10.2903 26.1607 10.477C25.9741 10.6637 26.0401 10.6579 25.9741 10.6641C25.8796 10.6721 25.6845 10.7688 25.6002 10.7257C25.4761 10.6623 25.3834 10.363 25.351 10.2278C25.3191 10.0916 25.4246 9.787 25.351 9.66727C25.2601 9.51916 24.8983 9.39545 24.7285 9.35554C24.4974 9.30099 23.7941 9.35554 23.7941 9.54266C23.7941 9.72979 23.9813 9.979 23.7941 10.1032C23.6075 10.2278 22.8785 10.3466 22.7352 10.602C22.6598 10.7355 22.7973 11.0375 22.9844 11.1625C23.1711 11.2871 23.4203 11.3497 23.6075 11.4122C23.7941 11.4738 24.0425 11.4095 24.1684 11.4738C24.2881 11.5355 24.438 11.7829 24.4792 11.9102C24.4979 11.97 24.4863 12.0973 24.4792 12.1598C24.4553 12.3514 24.4837 12.9305 24.2921 12.9074C24.1994 12.8963 24.2921 12.7203 23.9187 12.9074C23.544 13.0946 23.2966 12.9074 23.2336 13.0946C23.1707 13.2817 22.4448 14.1406 22.7352 14.2776C22.8341 14.3242 22.7982 14.153 23.0465 14.5894C23.2953 15.0248 23.3609 14.9184 23.2953 15.0248C23.2203 15.1468 23.4203 15.2736 23.4203 15.5853C23.4203 15.8971 24.1059 15.2745 23.4203 15.8971C22.7352 16.5196 22.7525 16.5932 22.4865 16.7693C22.3202 16.8793 22.1738 16.8939 21.863 17.2673C21.5521 17.6415 21.2076 18.0614 21.1779 18.3887C21.1535 18.6632 21.4169 19.1811 21.4896 19.4481C21.553 19.6809 21.6767 20.1957 21.7393 20.3815C21.8009 20.5686 21.9951 20.9566 22.1126 21.1291C22.3752 21.5127 22.8767 22.3641 23.2957 22.5623C23.5356 22.6749 24.0904 22.5503 24.3555 22.5623C24.5276 22.5703 24.8708 22.6558 25.0402 22.6248C25.1945 22.5955 25.4149 22.4368 25.6636 22.6864C25.9124 22.9361 25.9124 23.1228 26.0991 23.1853C26.2858 23.2469 26.9598 23.6935 26.8467 23.9329C26.8068 24.0167 26.7851 23.9329 26.8467 24.3072C26.9093 24.6806 26.9128 25.6645 26.9718 26.1128C27.0188 26.4756 27.2245 27.1806 27.2822 27.5429C27.3788 28.1455 27.3026 29.4058 27.5318 29.9725C27.6365 30.2288 27.9673 30.7232 28.2165 30.8447C28.4684 30.9667 29.0679 30.9192 29.3375 30.8447C29.4763 30.8057 29.6501 30.6576 29.7743 30.4705C29.898 30.2833 30.733 28.9903 31.0194 28.4777C31.274 28.0214 31.6793 27.0529 31.9537 26.6086C32.0194 26.5022 32.1418 26.359 32.2034 26.1723C32.2655 25.986 32.638 24.4287 32.7009 24.2416C32.7639 24.0544 32.8313 23.1303 33.0743 22.8705C33.1577 22.7822 33.2619 22.8079 33.449 22.5596C33.6357 22.3109 33.8822 22.0763 33.947 21.8745C34.0046 21.6971 34.0738 21.2639 33.947 21.1269C33.8091 20.9779 33.2973 21.1894 33.1373 21.0644C32.9869 20.9473 33.0743 20.8772 32.7014 20.4418C32.3276 20.0055 32.4575 20.0675 32.3276 20.0055C32.0579 19.8755 31.6881 19.3505 31.5795 19.0711C31.4961 18.8539 31.5165 18.0779 31.5795 18.1382C31.6425 18.1998 31.9582 17.7209 32.0779 17.5759C32.1347 17.5085 32.2402 17.3143 32.3276 17.3262C32.5555 17.3599 32.6863 17.9213 32.7639 18.1377C32.7909 18.2122 32.8481 18.3723 32.8264 18.4477C32.7794 18.6038 32.5772 18.6973 33.0131 19.0703C33.449 19.4445 33.947 19.5066 33.947 19.6937C33.947 19.88 34.1412 20.0352 34.2587 20.0671C34.3638 20.0964 34.5975 20.1154 34.6941 20.0671C34.7944 20.017 34.8808 19.8174 35.068 19.8174C35.2551 19.8174 34.9438 19.88 35.2551 19.8174C35.303 19.8081 35.3726 19.7864 35.452 19.7629C34.805 28.5504 27.4516 35.5052 18.5004 35.5052Z" fill="#DCDCDC"/>
</svg>
