<svg width="18" height="18" viewBox="0 0 18 18" fill="none" xmlns="http://www.w3.org/2000/svg">
<path d="M15.1999 9.82496L15.1916 9.84163C15.2249 9.56663 15.2583 9.28329 15.2583 8.99996C15.2583 8.71663 15.2333 8.44996 15.1999 8.17496L15.2083 8.19163L17.2416 6.59163L15.2166 3.07496L12.8249 4.04163L12.8333 4.04996C12.3999 3.71663 11.9249 3.43329 11.4083 3.21663H11.4166L11.0333 0.666626H6.97493L6.60827 3.22496H6.6166C6.09993 3.44163 5.62493 3.72496 5.1916 4.05829L5.19993 4.04996L2.79993 3.07496L0.766602 6.59163L2.79993 8.19163L2.80827 8.17496C2.77493 8.44996 2.74993 8.71663 2.74993 8.99996C2.74993 9.28329 2.77493 9.56663 2.8166 9.84163L2.80827 9.82496L1.05827 11.2L0.783268 11.4166L2.80827 14.9166L5.20827 13.9583L5.1916 13.925C5.63327 14.2666 6.10827 14.55 6.63327 14.7666H6.60827L6.98327 17.3333H11.0249C11.0249 17.3333 11.0499 17.1833 11.0749 16.9833L11.3916 14.775H11.3833C11.8999 14.5583 12.3833 14.275 12.8249 13.9333L12.8083 13.9666L15.2083 14.925L17.2333 11.425C17.2333 11.425 17.1166 11.325 16.9583 11.2083L15.1999 9.82496V9.82496ZM8.99993 11.9166C7.3916 11.9166 6.08327 10.6083 6.08327 8.99996C6.08327 7.39163 7.3916 6.08329 8.99993 6.08329C10.6083 6.08329 11.9166 7.39163 11.9166 8.99996C11.9166 10.6083 10.6083 11.9166 8.99993 11.9166Z" fill="#7E57C2"/>
</svg>
