<svg width="68" height="68" viewBox="0 0 68 68" fill="none" xmlns="http://www.w3.org/2000/svg">
<path d="M32.8249 13.4027C32.695 13.4133 32.5675 13.444 32.4471 13.4939L24.343 16.8297C24.112 16.9231 23.9142 17.0834 23.7749 17.2901C23.6356 17.4967 23.5612 17.7402 23.5612 17.9894L23.727 39.1452C23.7246 39.311 23.7553 39.4755 23.8171 39.6293C23.8789 39.7832 23.9706 39.9232 24.087 40.0412C24.2034 40.1593 24.3421 40.253 24.495 40.317C24.6479 40.381 24.812 40.4139 24.9778 40.4139C25.1435 40.4139 25.3077 40.381 25.4606 40.317C25.6135 40.253 25.7522 40.1593 25.8686 40.0412C25.9849 39.9232 26.0767 39.7832 26.1385 39.6293C26.2003 39.4755 26.2309 39.311 26.2286 39.1452L26.0628 19.6051L32.7337 21.3902V40.1663L25.2811 38.5115C25.1572 38.4837 25.0298 38.4749 24.9032 38.4854C24.7733 38.496 24.6458 38.5267 24.5254 38.5766L16.4213 41.9124C16.1903 42.0058 15.9925 42.1662 15.8532 42.3728C15.7139 42.5794 15.6395 42.8229 15.6395 43.0721V53.0794C15.6415 53.3528 15.733 53.6181 15.9001 53.8346C16.0672 54.0511 16.3006 54.2069 16.5646 54.2781L25.9586 56.7799C26.2398 56.8577 26.5394 56.8346 26.8055 56.7148L34.9226 52.962C35.1398 52.8625 35.3239 52.7028 35.4532 52.502C35.5825 52.3011 35.6516 52.0674 35.6522 51.8285V43.7757L43.4697 45.8475C43.751 45.9252 44.0505 45.9022 44.3166 45.7824L52.4337 42.0296C52.6509 41.93 52.835 41.7704 52.9643 41.5695C53.0936 41.3686 53.1627 41.1349 53.1634 40.896V30.8887C53.1643 30.6038 53.068 30.3271 52.8903 30.1044C52.7126 29.8816 52.4642 29.7262 52.1862 29.6639L43.5739 27.7485V16.7385C43.5749 16.4535 43.4785 16.1768 43.3009 15.9541C43.1232 15.7313 42.8748 15.576 42.5968 15.5136L33.2028 13.4288C33.0789 13.401 32.9515 13.3922 32.8249 13.4027ZM33.0334 15.9436L38.4405 17.1424L34.0888 19.1621L28.6947 17.7287L33.0334 15.9436ZM41.0724 18.693V28.0351L35.2353 30.4457V21.3902L41.0724 18.693ZM42.6228 30.0939L48.0429 31.2927L43.6782 33.3123L38.2972 31.879L42.6228 30.0939ZM50.6618 32.8433V40.0881L45.2417 42.5899V35.3451L50.6618 32.8433ZM35.6522 33.7554L42.7401 35.6448V43.072L35.6522 41.1827V35.319V34.6754C35.6522 34.6754 35.6522 34.3392 35.6522 34.1427V33.7554ZM25.1117 41.0263L30.5188 42.2251L26.167 44.2448L20.773 42.8115L25.1117 41.0263ZM33.1507 43.7757V51.0205L27.3136 53.7178V46.473L33.1507 43.7757ZM18.1411 44.6878L24.812 46.473V53.8872L18.1411 52.1151V44.6878Z" fill="#00FFC2"/>
<path d="M26 28.5L33 30.5V33L26 31V28.5Z" fill="#00FEC1"/>
</svg>
