<svg width="20" height="20" viewBox="0 0 20 20" fill="none" xmlns="http://www.w3.org/2000/svg">
<circle cx="10" cy="10" r="9" stroke="#FF0000" stroke-width="2"/>
<path d="M10.7686 11.9443H9.12793L8.89551 5.04688H11.001L10.7686 11.9443ZM9.94824 13.0244C10.2809 13.0244 10.5475 13.1224 10.748 13.3184C10.9531 13.5143 11.0557 13.765 11.0557 14.0703C11.0557 14.3711 10.9531 14.6195 10.748 14.8154C10.5475 15.0114 10.2809 15.1094 9.94824 15.1094C9.62012 15.1094 9.35352 15.0114 9.14844 14.8154C8.94792 14.6195 8.84766 14.3711 8.84766 14.0703C8.84766 13.7695 8.94792 13.5212 9.14844 13.3252C9.35352 13.1247 9.62012 13.0244 9.94824 13.0244Z" fill="#FF0000"/>
</svg>
