<svg xmlns="http://www.w3.org/2000/svg" viewBox="0 0 512 512" x="0px" y="0px"><title>skill sword swing</title><path d="M170.14,385.46l3,3h0l3,3a7.5,7.5,0,0,0,10.19.37l40.51-34.95L238,368a13.51,13.51,0,0,0,19.11,0l.94-.94a3.82,3.82,0,0,0,0-5.4l-58.06-58.06a3.82,3.82,0,0,0-5.4,0l-.94.94a13.51,13.51,0,0,0,0,19.11l11.11,11.12-35,40.51A7.49,7.49,0,0,0,170.14,385.46Z"></path><path d="M71.13,213.28c23.47-17.79,53.93-27.09,90.41-27.29h1.2c31.77,0,59.94,6.82,74.22,11a33.62,33.62,0,0,0,16.13.71c6.92-1.41,16.33-3.09,20.19-2.72a14.28,14.28,0,0,1,9,24.1c-6.14,6.39-15,12.32-21.3,16.15A14.4,14.4,0,0,0,254,248a115.52,115.52,0,0,1-2.66,26.69l-24.16,30.94a2.77,2.77,0,0,0,.22,3.67l5.18,5.18a2.78,2.78,0,0,0,3.92,0l62.79-62.79c2-2,4.05-4,6.12-6,5.57-5.31,26.39-27.27,25.15-57.81a11.56,11.56,0,0,1,6.07-10.77l.12-.06a11.83,11.83,0,0,1,17.15,8.4c2.46,13.64-.57,36.1-30.76,63.53L247.1,325.06a2.78,2.78,0,0,0,0,3.92l5.18,5.18a2.77,2.77,0,0,0,3.67.22L394.77,226a140.38,140.38,0,0,0,51.67-81.81,77.41,77.41,0,0,0-28.49-78,181.91,181.91,0,0,0-41.54-23.71C307.13,17,245,27.73,203.77,42.1A212.32,212.32,0,0,0,110,107.47q-1.41,1.69-2.76,3.41A234.16,234.16,0,0,0,61.41,207,6.17,6.17,0,0,0,71.13,213.28Zm286.26-85.14c7.07.34,13.3,5.58,17.47,11,4.84,6.28,9.06,13.68,4.88,21.47-2,3.71-6.62,4.75-10.4,3.91-5.81-1.28-8.35-6.89-11.7-11.19-3.53-4.54-7.61-8.35-9.58-13.84C346,133.76,351.93,127.88,357.39,128.14Z"></path><path d="M135.62,435.22a202.12,202.12,0,0,0,59.75,36.92c5,2,9-4.73,4.76-8.13-49.6-40.11-53.52-116.27-53.52-116.27-3.84-65.16,25.71-103.33,53.48-124.6a8,8,0,0,0-3.69-14.21,226.17,226.17,0,0,0-35.27-2.6c-36.23.29-64.85,10.26-85.53,29.69a59.35,59.35,0,0,0-18,50.48A235.37,235.37,0,0,0,135.62,435.22Z"></path><path d="M206,444.61a100.92,100.92,0,0,0,96.49,39.08c31.33-4.87,73.35-19.33,104.46-59.59,8-10.31-4.73-23.76-15.47-16.39-28.48,19.56-67.75,39.6-107,37.48,0,0-40.79-1.63-71.75-13.15a7,7,0,0,0-8.14,10.66Z"></path><circle cx="439.43" cy="368.97" r="15.37"></circle></svg>