<svg xmlns="http://www.w3.org/2000/svg" viewBox="0 0 512 512" x="0px" y="0px"><title>classes Magician</title><path d="M269.29,259.5c-4.82-5.18-9.23-12.68-12.53-23.43a44.43,44.43,0,0,0-7.8-15.16c-5.2-6.37-13.6-13.13-25.52-12.36-14.31.92-25.62,12.45-27.62,26.8a49.88,49.88,0,0,0,1.61,21,52.58,52.58,0,0,0,36,35.4c20.14,5.83,56.07,11.21,107.13,0,24.09-5.28,47.78,9.86,53.66,34.06a161.22,161.22,0,0,0,6.24,20.25,53.69,53.69,0,0,0,42,33.51l.63.09a37.19,37.19,0,0,1,31.43,31.66c2.71,19.09,8,44.72,18.06,70.1,3,7.54-6.27,13.85-12.12,8.27-12.54-12-24.14-30.18-35.44-48.63A27.79,27.79,0,0,0,425,428c-17.8-2.34-51.39-12.68-76.76-55.69A40.52,40.52,0,0,0,310,352.39c-29.4,2.5-77.9,2.64-119-16.11,0,0-52.44-23.69-62.46-84.92-4.65-28.44,3-57.8,22.41-78.93,13-14.1,32.55-26.69,61.57-28.14a112.58,112.58,0,0,1,68.27,19c16.15,10.84,33.28,28,37.17,53.21a79.17,79.17,0,0,1-.22,28.82C312.89,268.08,285.08,276.46,269.29,259.5Z"></path><path d="M99.28,455.59c7.53,6.15,17.06,14.25,26.93,23.43a55.49,55.49,0,0,0,79-3.25l1.34-1.5a38.89,38.89,0,0,1,26.05-12.8c13.9-1.1,34.11-5.89,47.39-23.12a6.15,6.15,0,0,0-5.5-9.85A308.39,308.39,0,0,1,225.28,430a45.43,45.43,0,0,0-34.7,13.3C180.78,453,164,461.5,138.06,451A82.63,82.63,0,0,0,105,440.94C97,440.38,93.09,450.52,99.28,455.59Z"></path><path d="M147.77,138.55c-4.18,9.84-11,21.3-22.06,29.52a42.63,42.63,0,0,1-24.13,8.16,62.51,62.51,0,0,0-20.45,4c-24.29,9.57-31.56,35.54-15.2,56.06a33.39,33.39,0,0,0,9.21,8,57.31,57.31,0,0,1,19.34,18.68c5,8,9.11,19,7.11,38.27-.09.84-.86,12.57.32,20.55a64.69,64.69,0,0,0,15.84,33.86c12.5,13.9,31.38,20,49.75,17.12,17.66-2.77,49-5.67,67.66,4.44,6.8,3.69,4.11,14.05-3.61,13.94-11.66-.18-26.09,2-37.55,11.48,0,0-16.46,10.74-41.14,12.73-45.17,3.63-84.7-32-84.46-77.77,0-.91,0-1.82.06-2.75,1.42-40.12-16.93-58.74-25.26-65.09A59.09,59.09,0,0,1,28,253a63.87,63.87,0,0,1-8.38-42.2c2.19-15.44,10-29.46,21.16-40.19,10.12-9.69,25.52-20.8,44.18-22.53a124.13,124.13,0,0,0,53.21-18C143.69,126.65,150.35,132.49,147.77,138.55Z"></path><path d="M51.18,107.1a65.65,65.65,0,0,0,23.54,8,75.55,75.55,0,0,0,50.39-10.81A204.44,204.44,0,0,0,159.32,78a23.14,23.14,0,0,1,31.83-.29q1.56,1.44,3.26,2.93a105.43,105.43,0,0,0,73.85,25.87,145.75,145.75,0,0,0,25.91-3.23c14.91-3.36,37.15.09,44.95,13.37,3.85,6.54,5,17.74,3,31.81,0,0-10.47,65.34,25,88.56a10.68,10.68,0,0,0,16.32-11c-2.55-13.83-3.29-34.95,5.62-61.31a91.08,91.08,0,0,0,3.07-46.34C384.91,80.17,350.17,53.71,311.77,56a158.91,158.91,0,0,0-32.07,5.16,45.14,45.14,0,0,1-40.65-9.19C222.56,38.15,203.3,17.32,174.5,18c0,0-33.84-2.2-60.72,34.65A95.73,95.73,0,0,1,93.06,73.87c-9.65,7-23,14.41-38.68,16.49C45.91,91.49,43.76,102.81,51.18,107.1Z"></path><path d="M444.33,170.22c-11.93,4.79-28.16,16.43-32.72,44.62a87.65,87.65,0,0,0,3.57,41.54,324.66,324.66,0,0,1,10.13,36.91c1.75,8.77,11.46,11.16,16.11,4A249.4,249.4,0,0,0,459.7,264,135.23,135.23,0,0,0,471.08,208a143.36,143.36,0,0,0-1.34-20.53C467.55,173.88,455.46,165.75,444.33,170.22Z"></path></svg>