<svg xmlns="http://www.w3.org/2000/svg" viewBox="0 0 512 512" x="0px" y="0px"><title>skill speed down</title><path d="M475.91,28.42H313.05a14.52,14.52,0,0,0-13.12,8.28L220.64,203A52.35,52.35,0,0,1,193,229c-7.57,3.07-16.41,6.52-24.6,9.39a57.93,57.93,0,0,0-33.66,30.37,85.77,85.77,0,0,0-7.2,27.93,61.74,61.74,0,0,0,7.89,35.82,75.76,75.76,0,0,0,40.24,34.12c16.45,6.1,42.29,15.8,51.05,19.69C235,390,243.27,396,252.61,405.5a166.41,166.41,0,0,1,23.73,30.91c5.19,8.65,13.53,21.52,22.85,31.87a39.65,39.65,0,0,0,29.46,13.11H465.49a16.12,16.12,0,0,0,14.94-22.16c-4.66-11.51-14.21-24.13-33.76-28.75a41.23,41.23,0,0,0-6.55-1c-3.95-.3-11.87-1-20-2.4a44.63,44.63,0,0,1-27.36-16.19c-16-20.14-47.59-64-57.32-108.33,0,0-8.81-32.32,13.23-71.26C369.1,195.27,468.52,62.14,483.07,42.7a8.94,8.94,0,0,0,1.77-5.35h0A8.93,8.93,0,0,0,475.91,28.42Z"></path><path d="M187.37,122.16c-1.17,1.86-2.42,3.63-3.65,5.43l-1.84,2.68L181,131.6l-.9,1.21a123.24,123.24,0,0,1-16,17.92,125.91,125.91,0,0,1-19,14.62c-1.68,1.09-3.39,2.11-5.11,3.12-2.06,1.23-4.21,2.5-6.28,3.81q-6.28,3.89-12.34,8.16a219.8,219.8,0,0,0-23.25,19A164.62,164.62,0,0,0,77.66,222.9c-1.6,2.11-3,4.45-4.48,6.67s-2.73,4.71-4.08,7.08L65.52,244c-1.16,2.47-2.06,5.06-3.09,7.6a114.34,114.34,0,0,0-4.71,64.68,107,107,0,0,0,12,30.44A104.64,104.64,0,0,0,90.1,371.79l1.48,1.3c.41.37.64.55.93.8l.8.65c1.06.85,2.06,1.64,3.11,2.39,2.07,1.52,4.15,2.92,6.24,4.31a143.85,143.85,0,0,0,12.91,7.5,121.06,121.06,0,0,0,27.74,10.45,8.65,8.65,0,0,0,7.18-15.35l-.27-.19a245.68,245.68,0,0,1-20-16.4c-3.13-2.89-6.17-5.84-9.08-8.85-1.44-1.51-2.87-3-4.2-4.55-.67-.77-1.35-1.52-2-2.24l-.44-.53a3.11,3.11,0,0,1-.3-.41l-.89-1.16a89.73,89.73,0,0,1-17.15-40.64,91,91,0,0,1,4.36-43.22c.69-1.7,1.24-3.45,2-5.11l2.35-5c.93-1.59,1.76-3.22,2.74-4.81s1.9-3.22,3-4.77a130.45,130.45,0,0,1,15.12-18.14,180.75,180.75,0,0,1,18.53-16.4c3.28-2.59,6.66-5.11,10.12-7.52,1.73-1.23,3.46-2.38,5.26-3.59,2.14-1.43,4.27-2.87,6.35-4.39a159,159,0,0,0,23-20.51,149.24,149.24,0,0,0,18.36-24.69l1-1.65.87-1.59,1.74-3.15c1.15-2.11,2.33-4.21,3.39-6.34l3.24-6.36,3-6.42q6-12.84,11.12-25.92a459.66,459.66,0,0,0,17.37-53.24,8.54,8.54,0,0,0-15.91-6l-.09.18c-4,7.95-8.17,16.08-12.37,24S212.41,80.2,208,88s-8.92,15.49-13.54,23L191,116.65Z"></path><path d="M140.11,103.41a8.61,8.61,0,0,0,13.12,10.72A99.57,99.57,0,0,0,167,99.36a154,154,0,0,0,11-16.55,169.06,169.06,0,0,0,8.78-17.62,120.81,120.81,0,0,0,6.38-18.77,8.6,8.6,0,0,0-15.44-6.9l-.28.4c-1.69,2.44-3.3,5.19-4.93,7.8l-4.73,8-9.2,16-9.13,15.79c-3,5.24-6.18,10.33-9.15,15.63Z"></path><path d="M119.53,150.79a8.83,8.83,0,0,0,1.59-.48,8.49,8.49,0,0,0,2.76-1.84,8.54,8.54,0,0,0,2.5-6,8.7,8.7,0,0,0-.17-1.68,9,9,0,0,0-.48-1.58,8.5,8.5,0,0,0-.78-1.46,7.88,7.88,0,0,0-1.07-1.3,8.19,8.19,0,0,0-1.28-1.06,8.69,8.69,0,0,0-1.48-.78,8.86,8.86,0,0,0-1.59-.49A8.51,8.51,0,1,0,117.87,151,7.73,7.73,0,0,0,119.53,150.79Z"></path><path d="M69.63,195.19c.82-.94,1.8-1.72,2.69-2.59s1.78-1.76,2.77-2.53,1.9-1.64,2.83-2.5,2-1.57,3-2.37c1.91-1.7,4.07-3.08,6.1-4.72,1-.82,2.13-1.51,3.2-2.28s2.15-1.56,3.21-2.42l.84-.67a8.59,8.59,0,0,0-7.45-15A67.33,67.33,0,0,0,69,166.82,76.82,76.82,0,0,0,53.25,178l-3.53,3.35L46.43,185a79.37,79.37,0,0,0-6,7.73,74.67,74.67,0,0,0-5,8.47c-.72,1.51-1.47,3-2.09,4.58-.33.78-.65,1.58-.94,2.42l-.44,1.3-.49,1.58a11.14,11.14,0,0,0,21.11,7.15c0,.06.16-.24.27-.43l.39-.69c.27-.47.54-1,.85-1.48.56-1,1.22-2,1.83-3.07,1.32-2,2.66-4.09,4.14-6.06A99,99,0,0,1,69.63,195.19Z"></path><path d="M37.82,149A124.38,124.38,0,0,0,58.08,145c3.33-1,6.56-2,9.94-3.24,1.69-.58,3.31-1.32,5-2s3.25-1.48,4.86-2.25A111.14,111.14,0,0,0,96,126.14a111.65,111.65,0,0,0,15.61-14.74A109.64,109.64,0,0,0,124.09,94c.86-1.56,1.78-3.14,2.56-4.67L129,84.72q1.11-2.31,2.18-4.63l2-4.67a202.22,202.22,0,0,0,7-19c1-3.23,1.93-6.45,2.74-9.73.4-1.64.81-3.27,1.17-4.93s.69-3.26,1-5.13a8.54,8.54,0,0,0-16.31-4.68l-.14.34L125.1,40.8c-1.24,2.87-2.44,5.75-3.74,8.59-2.51,5.71-5.23,11.32-8,16.84l-2.15,4.09c-.75,1.35-1.47,2.7-2.19,4.06l-2.26,4c-.76,1.32-1.53,2.49-2.28,3.75A112.14,112.14,0,0,1,94.07,96,108.29,108.29,0,0,1,81.62,108.1a106.2,106.2,0,0,1-14.22,10c-2.49,1.5-5.06,2.87-7.69,4.13s-5.41,2.56-8.2,3.71c-5.59,2.39-11.34,4.41-17.18,6.38l-.11,0A8.55,8.55,0,0,0,37.82,149Z"></path><path d="M165.33,458.2A124.11,124.11,0,0,0,151.74,440,152.83,152.83,0,0,0,136,424.81a141,141,0,0,0-37.37-22.22l-8.87-3.54c-.69-.28-1.39-.53-2.06-.83l-2-1-4-1.9a110.38,110.38,0,0,1-15-9.44A98.12,98.12,0,0,1,53.61,374c-1-1.09-2-2.19-2.9-3.35s-1.84-2.29-2.71-3.47-1.7-2.38-2.47-3.58c-.38-.6-.78-1.21-1.11-1.79l-.89-1.53-.58-1a8.47,8.47,0,0,0-15.19,7.39l.62,1.56c.2.49.38.89.58,1.34.38.88.78,1.7,1.18,2.53q1.21,2.49,2.56,4.84c.9,1.57,1.82,3.13,2.81,4.63s2,3,3,4.46a118.94,118.94,0,0,0,14.09,16.23,132.42,132.42,0,0,0,16.77,13.54L74,418.67l2.29,1.44c.78.45,1.57.86,2.36,1.3l8.87,4.8a112.73,112.73,0,0,1,27.66,21.09c8,8.48,14.87,18,19.27,27.7a19,19,0,0,0,1,1.89,17.64,17.64,0,0,0,30.14-18.35Z"></path><path d="M244.29,458.57a86.08,86.08,0,0,0-9.64-9.91,105.61,105.61,0,0,0-10.81-8.35c-1.9-1.25-3.82-2.47-5.8-3.62-1-.58-2-1.14-3-1.69l-1.57-.82-.83-.41-1-.45-.51-.22a9.87,9.87,0,1,0-7.37,18.32l.22.09.46.18.58.25,1.21.54c.82.38,1.65.79,2.48,1.21,1.65.84,3.28,1.76,4.9,2.7a84.91,84.91,0,0,1,9.21,6.34,67.56,67.56,0,0,1,8.1,7.44,58.29,58.29,0,0,1,6.55,8.51l.33.49a8.5,8.5,0,0,0,14.43-9A76.37,76.37,0,0,0,244.29,458.57Z"></path><path d="M186.61,409.61a9.08,9.08,0,0,0-.78-1.48,8.77,8.77,0,0,0-1.06-1.29,8.65,8.65,0,0,0-1.29-1.06A9.51,9.51,0,0,0,182,405a8.55,8.55,0,0,0-4.92-.48,8.3,8.3,0,0,0-1.59.48,8.89,8.89,0,0,0-1.46.78,8.73,8.73,0,0,0-1.3,1.06,9.38,9.38,0,0,0-1,1.29,8.42,8.42,0,0,0-.79,1.48,9,9,0,0,0-.49,1.58,8.58,8.58,0,0,0-.17,1.66,8.68,8.68,0,0,0,2.5,6,10.12,10.12,0,0,0,1.3,1.05,8.89,8.89,0,0,0,1.46.78,8.3,8.3,0,0,0,1.59.48,8.6,8.6,0,0,0,1.67.17,8.42,8.42,0,0,0,1.66-.17,8.09,8.09,0,0,0,1.59-.48,9.51,9.51,0,0,0,1.48-.78,10.76,10.76,0,0,0,1.29-1.05,8.58,8.58,0,0,0,2.49-6,7.86,7.86,0,0,0-.17-1.66A9,9,0,0,0,186.61,409.61Z"></path><path d="M94.43,463.82c-.78-1.24-1.6-2.46-2.43-3.66a39.45,39.45,0,0,0-2.66-3.51,62.43,62.43,0,0,0-6-6.47,70.82,70.82,0,0,0-6.83-5.72,73.89,73.89,0,0,0-15.69-8.93C59.37,435,58,434.4,56.48,434S53.54,433,52,432.69c-.75-.19-1.51-.36-2.3-.49s-1.54-.28-2.36-.37-1.58-.21-2.45-.26l-1.28-.07-1.57-.07a8.51,8.51,0,1,0-3.18,16.72c-.1.08.25.28.39.4l.66.47,1.39.93,2.87,2c1.93,1.28,3.84,2.68,5.75,4q5.7,4.13,11.29,8.52L66.79,469c1.9,1.47,3.76,3,5.7,4.53s3.87,3.08,6,4.5a57,57,0,0,0,6.5,4.36l.75.41a8.91,8.91,0,0,0,12.57-11A54,54,0,0,0,94.43,463.82Z"></path></svg>