<svg xmlns="http://www.w3.org/2000/svg" viewBox="0 0 512 512" x="0px" y="0px"><title>abnormal Bleeding</title><path d="M380.44,398.37a56,56,0,0,1-1-9.33,21.07,21.07,0,0,1,30.23-19.46c11,5.3,21.44,10,31.32,14.17,21.21,8.9,39.42-17.72,23.43-34.26-41.17-42.58-81.18-81.08-119.29-115.65V203.93a40.84,40.84,0,0,0-8.06-24.35c-3.5-4.72-6.94-9.33-9.87-13.25a13.6,13.6,0,0,1,1.51-18.21,13.33,13.33,0,0,1,19.14,1.33c7.81,9.32,17.12,20.55,25.06,30.15a77.92,77.92,0,0,0,35.35,24.29,409.88,409.88,0,0,0,45.88,12.48c11.1,2.33,20.19-9.43,14.74-19.38-32.69-59.67-84.52-100.26-84.52-100.26C319.52,48.15,264.84,28.08,236.05,20.16a12.86,12.86,0,0,0-15.58,16.49c16.76,49.79,41.27,75.63,41.27,75.63s28,32.94,30.4,74.87C197.32,106.2,118.16,52,68.47,22.32,52.36,12.7,34.25,31.39,44.41,47.16q3.69,5.73,7.47,11.35l-.06,0S91,130.66,85.9,262.09l.35,37.77a97.74,97.74,0,0,1-6.47,36.46,82.87,82.87,0,0,1-3.64,8.07,80,80,0,0,0-9.43,34.49c-.38,12.32,2.18,26.28,12.7,36.36a37.84,37.84,0,0,0,55.26-3.54c6.13-7.61,10.71-18.71,10.18-34.86a62,62,0,0,0-5.8-23.67,166.53,166.53,0,0,1-14.46-65.53V240.1a60.65,60.65,0,0,1,7.81-29.77,21.7,21.7,0,0,0-1.25-23.3L114.65,164a8.85,8.85,0,0,1,.94-11.41h0a8.86,8.86,0,0,1,12.9.39l19.83,18.46a210,210,0,0,1,46.57,63.15C196.54,238,198,241.24,199,244a235.73,235.73,0,0,1,13.08,55.4s7.24,65.17,3,99c0,0-1.85,18.48-6.36,34.43a79.79,79.79,0,0,0-3.2,22.77,72.05,72.05,0,0,0,2.21,17.33c7.39,27.66,46.88,25.06,50.7-3.32,1.26-9.34.69-21.83-3.07-38.53-2-8.87-3.68-17.81-4.82-26.83-2.73-21.44-6.1-57.72-1.67-81.89,2.55-13.93,10.91-20.26,20.23-22.78a35.88,35.88,0,0,1,29.5,5.34q5.76,3.93,11.49,7.71a75.1,75.1,0,0,1,29.81,37.52,65,65,0,0,1,3.71,18.68v10a40.85,40.85,0,0,1-4.76,19.39c-.31.58-.64,1.16-1,1.76a38.39,38.39,0,0,0-5.09,15.44c-1.27,12.61-.24,33.2,17.94,41.08a22.35,22.35,0,0,0,18.46,0C378.83,451.87,389.85,438.27,380.44,398.37Zm-271-27.48c-1.69,9.47-8.85,16.12-16,14.85s-11.55-10-9.87-19.45,8.85-16.12,16-14.85S111.12,361.42,109.44,370.89Z"></path></svg>