<svg xmlns="http://www.w3.org/2000/svg" viewBox="0 0 512 512" x="0px" y="0px"><title>weapon magic book</title><path d="M226.13,231.54a3.77,3.77,0,0,1-4.85-4.53l2.4-9.28a9.31,9.31,0,0,1,6-6.48l3.42-1.14-21.06-19.65-26,100.26,14.44,13.48a3.78,3.78,0,0,1-1.37,6.35l-8.26,2.76a9.29,9.29,0,0,1-9.29-2l-.69-.64-7,27.12,95.21-31.86,6.24-24.06a3.79,3.79,0,0,1,6.24-1.82l6.36,5.94a9.32,9.32,0,0,1,2.66,9.13l-1,4,28.64-9.59-70-65.32Z"></path><path d="M471.38,170,339.58,47a66.13,66.13,0,0,0-93.46,3.15l-4.26,4.57L226,71.78,40.78,270.25a50.12,50.12,0,0,0,2.51,70.83L180.66,469.27a50.13,50.13,0,0,0,70.85-2.39L418.41,288a50.13,50.13,0,0,0-2.5-70.84L292.84,102.33a24.81,24.81,0,1,1,33.85-36.28l124.36,116a24.1,24.1,0,0,1,1.2,34l-1.11,1.19a12.13,12.13,0,0,0,.61,17.15h0a12.14,12.14,0,0,0,17.16-.58l4.56-4.89A41.73,41.73,0,0,0,471.38,170Zm-167,18.46a9.45,9.45,0,0,1,7.7.65,9.17,9.17,0,0,1,4.33,10.25l-13.8,53.37,39.66,37a9.4,9.4,0,0,1,3,5.84,9.16,9.16,0,0,1-6.19,9.69L234.65,340.19,256,360.08l.94-3.61a9.34,9.34,0,0,1,6.11-6.55l9.19-3.07a3.83,3.83,0,0,1,4.91,4.59l-7.27,28.13a9.15,9.15,0,0,1-9.24,6.85,9.43,9.43,0,0,1-6-2.63l-39.66-37-52.28,17.46a9.18,9.18,0,0,1-11.78-11l26.66-103.08-29,9.67,2.11,2a9.43,9.43,0,0,1,2.69,9.24l-2.2,8.52a3.82,3.82,0,0,1-6.31,1.83l-20-18.68a9.15,9.15,0,0,1-2.06-10.56,9.53,9.53,0,0,1,5.7-4.92L183,229l14.48-56a9.15,9.15,0,0,1,9.23-6.85,9.44,9.44,0,0,1,6,2.63l74.68,69.69,7.09-27.43-1.82.61a9.42,9.42,0,0,1-9.4-2.05l-6.44-6a3.82,3.82,0,0,1,1.39-6.42Z"></path><path d="M320.44,80.82a9.53,9.53,0,0,0-13,13.93L421.08,200.8a9.53,9.53,0,1,0,13-13.93Z"></path></svg>