<svg xmlns="http://www.w3.org/2000/svg" viewBox="0 0 512 512" x="0px" y="0px"><title>skill DNA</title><path d="M280,60l-97,20c-9.69,2-7.84,16.36,2,15.83l91.39-4.87c-3.44,18.65-9.75,39.47-21,59.35a4.15,4.15,0,0,0,1.36,5.51l8.48,5.57a4.18,4.18,0,0,0,6-1.56c4.73-9.11,14.54-27.3,31.18-57.11,0,0,19.92-35.31,7.4-66.92a10.4,10.4,0,0,0-9.8-6.19H282.93A3.21,3.21,0,0,0,279.72,33,213.74,213.74,0,0,1,280,60Z"></path><path d="M449.28,475.6C415.44,432,364.44,400,350,391.38a4.72,4.72,0,0,0-6.46,1.63A154.06,154.06,0,0,0,335,410.1a4.69,4.69,0,0,0,2.5,6.2,185.17,185.17,0,0,1,34.43,19.18c-19.16,2.31-58.9,4.91-71.06,5.68,11.4-32.38,32.34-78.36,68.23-117.58,0,0,36.44-39.69-8.46-80,0,0-25.51-26.26-100.45-62.24-11-5.31-22.29-10.22-33.63-14.88a364,364,0,0,1-35.17-16.79l39.58-15.82c8.58-3.43,5-16.3-4.14-14.76l-66.55,11.19a201.11,201.11,0,0,1-28.7-24.61l12.59-4.13c8.4-2.75,6.43-15.15-2.4-15.17l-25.55-.06a94.93,94.93,0,0,1-9.67-19.53L251.9,46c8.94-1.28,8.09-14.45-1-14.56l-148-1.81a.28.28,0,0,0,0-.09H62.58s-20.37,117.67,148.5,159.1q7.23,1.77,14.28,4c-19.89,23.12-54.77,89.59-43,133.09C194,369,246.74,378.48,246.74,378.48c16.72,2.43,28.13,5.84,35.86,9.15A11.11,11.11,0,0,1,288.55,402c-13.75,34.39-19.05,68.71-19.05,80.51H289s1.32-7,4.6-18.61c29-4.54,82.86-8.59,101.5-9.91a262.68,262.68,0,0,1,23.46,23.83,13.45,13.45,0,0,0,10.22,4.69H446A4.25,4.25,0,0,0,449.28,475.6ZM330.54,271.75c-33,12.26-93.15,16.76-112.13,17.91a127.46,127.46,0,0,1,4.78-33.09c13.75-2.26,54.39-8.77,86.9-12.54a152.82,152.82,0,0,1,13,14.71A59,59,0,0,1,330.54,271.75ZM295.81,231c-15.16,1.28-42.48,3.16-63.77,2.15a151.14,151.14,0,0,1,19.21-30.33A207,207,0,0,1,295.81,231Zm-72,87.59c39.08-10.5,94-18.14,111.43-20.41a62,62,0,0,1-5.75,23.37c-1.34,2.87-2.81,6-4.37,9.2-25.21,5.09-61.34,9.13-78.9,10.93C234.08,333.58,227.42,325.05,223.77,318.54Zm55.14,40.35,36.41-8.77C311.69,357,307.86,364,304,370.43l0,0a3.92,3.92,0,0,1-5.76,1.14A195.37,195.37,0,0,0,278.91,358.89Z"></path></svg>