<svg xmlns="http://www.w3.org/2000/svg" viewBox="0 0 512 512" x="0px" y="0px"><title>effect double jump</title><path d="M30.09,422.62c20.54-14.34,54.63-35.45,91.35-46.86a44.18,44.18,0,0,1,56.78,35.67A80.81,80.81,0,0,1,179,421a8.13,8.13,0,0,0,13.82,5.54c15.42-15.1,39.88-34.64,63.16-34.64s47.74,19.54,63.16,34.64A8.13,8.13,0,0,0,333,421a80.81,80.81,0,0,1,.8-9.58,44.18,44.18,0,0,1,56.78-35.67c36.72,11.41,70.81,32.52,91.35,46.86,6,4.17,13.56-2.27,10.5-8.87-11.25-24.23-26.06-46.75-35.29-59.86a9.08,9.08,0,0,1,6.53-14.24,124.67,124.67,0,0,1,14.86-.61,9.7,9.7,0,0,0,6.91-16.65C462.7,300,433.15,286.25,406.65,277.8a286.27,286.27,0,0,0-87-13.24c-11.11,0-22.39.17-27.94,1-7.06,1.06-6.6,11.38.52,11.78,63.05,3.47,109.67,15.81,109.67,30.5,0,17.39-65.31,31.49-145.88,31.49s-145.88-14.1-145.88-31.49c0-14.69,46.62-27,109.67-30.5,7.12-.4,7.58-10.72.52-11.78-5.55-.83-16.84-1-27.94-1a286.27,286.27,0,0,0-87,13.24c-26.5,8.45-56,22.23-78.77,44.59A9.7,9.7,0,0,0,33.49,339a124.67,124.67,0,0,1,14.86.61,9.08,9.08,0,0,1,6.53,14.24c-9.23,13.11-24,35.63-35.29,59.86C16.53,420.35,24.12,426.79,30.09,422.62Z"></path><path d="M401,145.29a61.25,61.25,0,0,1,13.44,3.38,4.55,4.55,0,0,0,5-7.33c-13.16-14.39-34-34.48-58.25-48.14a74.41,74.41,0,0,0-31-9.34,249.33,249.33,0,0,0-35.09-.24c-6.56.46-6.75,10-.21,10.81,23.12,2.69,48.4,8.22,50.66,19.52,2.39,11.94-40.07,22-89.5,22s-91.89-10.11-89.5-22c2.26-11.3,27.54-16.83,50.65-19.52,6.54-.76,6.36-10.35-.21-10.81a249.19,249.19,0,0,0-35.08.24,75,75,0,0,0-31.41,9.55c-24.1,13.65-44.78,33.61-57.88,47.93a4.55,4.55,0,0,0,5,7.33A61.25,61.25,0,0,1,111,145.29a22.32,22.32,0,0,1,24,15.21c3.93,12.25,1.29,26.06-2.65,37.34a3.52,3.52,0,0,0,5.82,3.63c38.67-37.39,73.08-27.31,73.08-27.31,20.82,6.73,33.13,29.19,39.41,45a5.74,5.74,0,0,0,10.68,0c6.28-15.81,18.59-38.27,39.41-45,0,0,34.41-10.08,73.08,27.31a3.53,3.53,0,0,0,5.82-3.64c-3.94-11.28-6.57-25.09-2.65-37.33A22.32,22.32,0,0,1,401,145.29Z"></path><ellipse cx="61.7" cy="182.2" rx="10.9" ry="8.45" transform="translate(-110.77 96.99) rotate(-45)"></ellipse><ellipse cx="450.3" cy="182.2" rx="8.45" ry="10.9" transform="translate(3.05 371.78) rotate(-45)"></ellipse></svg>