<svg xmlns="http://www.w3.org/2000/svg" viewBox="0 0 512 512" x="0px" y="0px"><title>skill magic freeze</title><path d="M37.25,332.05,90.16,449.53a4.89,4.89,0,0,0,9.24-1l17.14-78.05a4.9,4.9,0,0,0-2.38-5.31l-70-39.43A4.89,4.89,0,0,0,37.25,332.05Z"></path><path d="M364.13,320h66.55a5.72,5.72,0,0,0,5.7-6.13L424.86,154.53a5.72,5.72,0,0,0-9.55-3.81l-92.19,83.77a5.71,5.71,0,0,0-1.28,6.75L359,316.83A5.72,5.72,0,0,0,364.13,320Z"></path><path d="M298,230.05l51.73-44.2a26,26,0,0,0,8.1-26.94l-26-90.74a6.15,6.15,0,0,0-11.54-.79l-39.43,89.21a26.08,26.08,0,0,0-1.88,14.69l9,55.08A6.15,6.15,0,0,0,298,230.05Z"></path><path d="M130.69,286.75l7-43.32a44,44,0,0,0,.52-8.8L132.29,91.92a4.73,4.73,0,0,0-9.22-1.27c-17.08,52.89-38.53,115.06-49.66,147a10.1,10.1,0,0,0,2.88,10.92l46.61,41A4.73,4.73,0,0,0,130.69,286.75Z"></path><path d="M192.65,428.31l-38.24-12.95a4,4,0,0,0-4.57,6.15L186,472.33a4,4,0,0,0,3.28,1.7h20.48a4,4,0,0,0,3.62-5.79L195,430.37A4,4,0,0,0,192.65,428.31Z"></path><path d="M358.61,342.71l-69.09,123a5.56,5.56,0,0,0,4.84,8.28h15.78a5.52,5.52,0,0,0,4.13-1.85L415.45,359.47a4.7,4.7,0,0,0,.35-.43l7.56-10.33a5.56,5.56,0,0,0-4.48-8.84H363.45A5.54,5.54,0,0,0,358.61,342.71Z"></path><path d="M216,428.11l21.35,44a3.46,3.46,0,0,0,3.1,1.94h10.25a3.43,3.43,0,0,0,3.42-3.68l-7.62-111.06a3.43,3.43,0,0,0-6.57-1.15l-24.2,54.8A18.08,18.08,0,0,0,216,428.11Z"></path><path d="M123.34,316.35l-45.4-39.88a5.4,5.4,0,0,0-8.92,4.8l5,36.14a5.38,5.38,0,0,0,2.7,4l37.57,21.15a5.4,5.4,0,0,0,8-3.85l2.82-17.4A5.44,5.44,0,0,0,123.34,316.35Z"></path><path d="M123.17,432.84l-7.69,35.05a5,5,0,0,0,4.93,6.14H153a5.05,5.05,0,0,0,4.12-8L132.22,431A5.05,5.05,0,0,0,123.17,432.84Z"></path><path d="M138.38,363.53c0,.07,0,.14,0,.22s0,.21-.05.32l-3.88,17.66a6.27,6.27,0,0,0,4.11,7.29l52,17.61a6.26,6.26,0,0,0,7.75-3.41l31.37-71a6.27,6.27,0,0,0-1.42-7.08l-63.85-60.78a6.27,6.27,0,0,0-10.52,3.55Z"></path><path d="M297.08,257.79,265.4,337.11a5.84,5.84,0,0,0-.4,2.55l6.57,95.78a5.79,5.79,0,0,0,10.83,2.44L341.69,332.3a5.81,5.81,0,0,0,.15-5.39l-34.19-69.53a5.79,5.79,0,0,0-8.95-1.85h0A5.78,5.78,0,0,0,297.08,257.79Z"></path><path d="M471.46,372.37l-32.38-1a15.9,15.9,0,0,0-12.34,5.27l-79.09,88.1a5.59,5.59,0,0,0,4.16,9.32h19.34a5.65,5.65,0,0,0,2.15-.43l65.75-27.34a26.55,26.55,0,0,0,14.49-14.71l21.39-53.91A3.86,3.86,0,0,0,471.46,372.37Z"></path><path d="M253.51,313.38l17-42.59a31.11,31.11,0,0,0,1.82-16.53l-13-79.91a31,31,0,0,0-6.22-14.19L158.72,39.68a4.44,4.44,0,0,0-7.92,2.91l6.86,181.17A17.32,17.32,0,0,0,163,235.65l83.3,79.29A4.44,4.44,0,0,0,253.51,313.38Z"></path><path d="M267.85,136.83l31.2-70.61a4.17,4.17,0,0,0-6.46-4.9l-52.53,43.39a4.16,4.16,0,0,0-.62,5.78l21.31,27.23A4.17,4.17,0,0,0,267.85,136.83Z"></path></svg>