<svg xmlns="http://www.w3.org/2000/svg" viewBox="0 0 512 512" x="0px" y="0px"><title>support Heal </title><path d="M168.33,414.65a537.08,537.08,0,0,1,84.3,74.12,13.26,13.26,0,0,0,19.63,0,536.6,536.6,0,0,1,84.3-74.12S429.69,364,424.62,290.84s-69.5-84-69.5-84S307.56,195.28,271.75,232a13,13,0,0,1-18.61,0c-35.81-36.7-83.37-25.12-83.37-25.12s-64.43,10.86-69.5,84S168.33,414.65,168.33,414.65Z"></path><path d="M449.76,103.37V64.93a8.18,8.18,0,0,0-8.18-8.18h-21.5a8.18,8.18,0,0,1-8.18-8.18V27.07a8.17,8.17,0,0,0-8.17-8.18H365.28a8.17,8.17,0,0,0-8.17,8.18v21.5a8.18,8.18,0,0,1-8.18,8.18H327.42a8.17,8.17,0,0,0-8.17,8.18v38.44a8.17,8.17,0,0,0,8.17,8.17h21.51a8.18,8.18,0,0,1,8.18,8.18v21.51a8.17,8.17,0,0,0,8.17,8.17h38.45a8.17,8.17,0,0,0,8.17-8.17V119.72a8.18,8.18,0,0,1,8.18-8.18h21.5A8.17,8.17,0,0,0,449.76,103.37Z"></path><path d="M99.52,174.23h31.13a6.62,6.62,0,0,0,6.62-6.62V150.19a6.62,6.62,0,0,1,6.62-6.62h17.42a6.62,6.62,0,0,0,6.62-6.62V105.82a6.62,6.62,0,0,0-6.62-6.62H143.89a6.62,6.62,0,0,1-6.62-6.62V75.16a6.62,6.62,0,0,0-6.62-6.62H99.52a6.62,6.62,0,0,0-6.62,6.62V92.58a6.63,6.63,0,0,1-6.62,6.62H68.86a6.62,6.62,0,0,0-6.62,6.62V137a6.62,6.62,0,0,0,6.62,6.62H86.28a6.62,6.62,0,0,1,6.62,6.62v17.42A6.62,6.62,0,0,0,99.52,174.23Z"></path></svg>