<svg xmlns="http://www.w3.org/2000/svg" viewBox="0 0 512 512" x="0px" y="0px"><title>skill magic dark</title><path d="M430.53,335.23,429,334a5.71,5.71,0,0,0-2.9-.92,7.44,7.44,0,0,0-5,.92,9.23,9.23,0,0,0-2.8,2.8,6.6,6.6,0,0,0-.94,2.69,0,0,0,0,0,0,0,8.9,8.9,0,0,0,0,4.2,7.77,7.77,0,0,0,2.83,4.1,3.94,3.94,0,0,0,1.74,1,3.86,3.86,0,0,0,2,.54,7.41,7.41,0,0,0,5-.94,10.12,10.12,0,0,0,3-2.93,8.57,8.57,0,0,0,1.12-4.25A8.86,8.86,0,0,0,430.53,335.23Z"></path><path d="M363.18,208.84h0a6.83,6.83,0,0,0,1.51.55,7,7,0,0,0,5.9-.55,7.25,7.25,0,0,0,3.63-6.33,15.29,15.29,0,0,0-.31-2.14,32.09,32.09,0,0,0-.68-8.44,7.49,7.49,0,0,0-6.24-5.38c-2.73-.36-6.25.9-7.48,3.59a3.73,3.73,0,0,0-.16.35c-.08.13-.18.23-.25.36a10.48,10.48,0,0,0-.91,1.8,12.24,12.24,0,0,0-.84,5,15.72,15.72,0,0,0,2,7.18A7.88,7.88,0,0,0,363.18,208.84Z"></path><path d="M322.91,76.55c4.33-7.1,5.13-18.18-1-24.35-2.35-3.57-7.67-5.33-10.85-1.4-5.25,6.48-5,16.19-2.65,23.85A8,8,0,0,0,322.91,76.55Z"></path><path d="M143,188.81a8.91,8.91,0,0,0,9.75-6.37c.55-1.85,1.12-3.69,1.67-5.53a9,9,0,0,0-3.2-9.39,8.41,8.41,0,0,0-4.22-1.75,10.4,10.4,0,0,0-2.79,0c-3.14.23-6.6,2.31-7.06,5.62l-.09.61c-1.3,2.41-1.51,5.41-1.76,8.09a8.8,8.8,0,0,0,2.6,6.28A9.16,9.16,0,0,0,143,188.81Z"></path><path d="M97.58,392.4A8,8,0,0,0,94.87,389a10.82,10.82,0,0,0-6.82-2.65l-2.39.32a6.84,6.84,0,0,0-3.07,1.61,8.81,8.81,0,0,0-3.22,4.68,10.37,10.37,0,0,0,0,5.79A11,11,0,0,0,81,401.83a9,9,0,0,0,5.89,5.26,9.12,9.12,0,0,0,8.67-2.29,10.83,10.83,0,0,0,1.73-2.2,8.7,8.7,0,0,0,1.09-2.68,10.46,10.46,0,0,0,.33-2.9,10.77,10.77,0,0,0-.47-3A12,12,0,0,0,97.58,392.4Z"></path><path d="M173.48,352.76h0Z"></path><path d="M319,384.53c0-.12,0-.24.05-.37a.36.36,0,0,1,0-.11C319,384.21,319,384.37,319,384.53Z"></path><path d="M309.9,377.26l.18-.11-.06,0Z"></path><path d="M430.14,387.06c0-.3.09-.59.12-.9a5,5,0,0,0-1.46-4.25,13.35,13.35,0,0,0-2.13-3.36c-2.86-3.28-7.52-1.07-8.83,2.33a29.81,29.81,0,0,0-1.51,7.44c-2.74,4.1-7.71,5.65-13,3.82-7.38-2.54-11.61-9.69-11.77-17.19-.17-7.69,1.83-15.56,2.84-23.15,1.16-8.71,2.09-17.45,2.56-26.22a188.33,188.33,0,0,0-2.7-45.85c-2.62-13.54-7-28.64-16.67-38.9a5.4,5.4,0,0,0-5.36-2.07c-4.58.89-6.19,4.45-4.56,8.81a102.24,102.24,0,0,1,6.82,34.83c.07,5.71.27,12.54-2.78,17.64s-8.19,6.39-12,1.67c-6.45-8-3.07-21.34-5.29-30.76-2.65-11.23-12-19-15-30-3.19-11.61.53-24.31,1.78-35.95,1.18-10.94.85-22.29-2.2-32.93C335.75,161,328.18,152,324.49,141.17c-3.77-11.09-2.4-22.41-2.44-33.84,1.53-3.68-.3-8.93-5.53-9-20.41-.4-31.5,19.59-30.08,38,.76,9.9,7.47,21.66,4.49,31.46-1.63,5.35-6.09,7.37-11.32,5-4.42-2-7-6.45-8.83-10.73-8.93-21.35-9.08-47-8.45-69.78.34-12,1.28-23.9,1.9-35.86.39-7.52.79-16.51-3.66-22.87a25.57,25.57,0,0,0-1.09-2.9c-1.57-3.53-7.68-2.64-8.38,1.09-1.49,8-2.54,15-6.71,22.28-4,7-9.34,13-14.54,19.11C219.92,84.83,212,97.3,208,112.27a90.69,90.69,0,0,0-.76,42.86c2.87,12.71,12.91,33.32-1.64,42.62a7.83,7.83,0,0,0-2.09,1.93c-9,7.48-16.73,17.13-23,26.55a124,124,0,0,0-10.78,19.84c-2.79,6.47-4.23,15.27-9,20.58-2,2.19-6.25,4.67-8.27,1.35-1.12-1.84,0-5.44.33-7.41.89-5.47,2.18-11.07.17-16.46-2.42-6.46-8.42-7.66-13-12a15.81,15.81,0,0,1-3.47-18.52,5.8,5.8,0,0,0-8.54-6.79c-15.81,13.55-22.6,36.51-21.28,56.8.77,11.75,4.76,22.1,8.81,33,1.91,5.14,3.85,10.5,4.14,16,.36,7-2.48,13.23-5.18,19.52-8.17,19-7.88,39.69,2.56,57.91a60.56,60.56,0,0,0,20.09,21.06c9.93,6.25,23.07,9.49,30.28,19.48s-19.1,18.81-25.9,18.89c-15.9.2-20.21-21.08-22-33.37-.94-6.43-12.22-5-11.45,1.55.26,2.24.56,4.54.91,6.87-1.88,22.8,5.46,49.39,29.4,56.65,11.68,3.54,25.57,2.83,37.11-.93A57.34,57.34,0,0,0,191.79,472c3.76-2.78,6.12-5.17,7.87-8.37,25.84,6.83,57.47,7.18,82.39-2.93,17-6.89,33.28-20.42,39-38,4.7-2,12.83.84,16.94,1.64,6.88,1.35,13.72,3,20.66,4,12.69,1.92,25.77,2.66,38.28-.81,11.13-3.1,20.79-9.5,27.23-19.16C427.84,403,430.93,394.4,430.14,387.06ZM178.47,353.28a6.74,6.74,0,0,1-1.68,1.88,6.82,6.82,0,0,1-3.9,1.38,6.73,6.73,0,0,1-3.94-1,7.56,7.56,0,0,1-4.83-6.84,7.37,7.37,0,0,1,1.2-4,6.62,6.62,0,0,1,3-3.37,8,8,0,0,1,5.72-.75,8.45,8.45,0,0,1,5.91,6.09A7.35,7.35,0,0,1,178.47,353.28Zm96-109.71A4.93,4.93,0,0,1,275,241a3.43,3.43,0,0,1,.47-1,7.17,7.17,0,0,1,5.4-3.82,7.27,7.27,0,0,1,7.18,3.44l.07.11a7.37,7.37,0,0,1-4.34,10.66,7.09,7.09,0,0,1-2.51.18l.35,0a6.76,6.76,0,0,1-5.11-2.05,8.67,8.67,0,0,1-1.18-1.58,4.88,4.88,0,0,1-.79-2.47A2,2,0,0,1,274.42,243.57Zm46.77,140.84a9.38,9.38,0,0,1-.17,1,6.37,6.37,0,0,1-2,3.29,7.83,7.83,0,0,1-1.82,1.63,6.5,6.5,0,0,1-2.27,1.15l-1.74.23a6.87,6.87,0,0,1-4.61-1.91,6.79,6.79,0,0,1-2.23-4.82,7.51,7.51,0,0,1,4.48-8.59,5.79,5.79,0,0,1,2.12-.59,9.36,9.36,0,0,1,3.18.15,6.85,6.85,0,0,1,4.23,3.26A7.16,7.16,0,0,1,321.19,384.41Zm13.16-15.36c-3.22.86-6.91-1.63-6.75-5.14.25-5.42,3.88-9,1.68-14.66a13.75,13.75,0,0,0-1.3-2.46,16.24,16.24,0,0,0-8.4-4.72c-4.53-1.18-8.29-1.13-11.4,2.82-.36.46-.68.92-1,1.36a34.54,34.54,0,0,1-5.27,15.51,49.43,49.43,0,0,1-16,15c-6.94,4.2-13.33,4.35-21,5.69-8,1.39-13.76,8.44-22.08,10.1-7.34,1.46-14.9.77-22.27-.06-7.72-.87-15.33-2.39-22.11-6.38-5.39-3.18-12.64-8.17-14.07-14.59-.46-2.07,1-5,3.55-4.67,5.5.69,8.93,4.53,13.52,7.39,5.24,3.26,10.69,4.66,16.75,5.42s12.38,1.59,18.47,1.07a24.63,24.63,0,0,0,11-3.89c2.15-1.85,4.37-3.63,6.44-5.56l1.51-2.49v0a5.9,5.9,0,0,0,.14-2,5.79,5.79,0,0,0-6.15-4.95c-8.34.44-16.29,2.49-24.53-1.18-15-6.67-25.92-27.4-29.18-42.71-2.14-10-.28-19.46,3.2-28.95s5.31-19.76,9-29.15c2.9-7.29,8-13.65,15.84-15.77,8.58-2.32,18.16.72,26.79,1.34a4.38,4.38,0,0,1,2.19,8.08c-8.31,5.91-16.87,0-25.48,3.29-6.72,2.56-8.36,11.11-9.81,18.38-.55,5.05,0,8.74,1.17,11.42a7.33,7.33,0,0,0,12.4,1.77c7.41-9.11,20.88-15.73,30-16.79,20.5-2.39,40.7,11.45,49.62,29.34,1.93,3.87-.37,9-5.13,8.93-3.18-.08-8.19-.92-11.25.13-2.82,1-5.4,7,2.14,12.11.64.43,1.39.56,2,.91h0c4.74.7,9.56,1.12,14.25,2.12,7.32,1.56,14.58,4.38,20.37,9.22a26.18,26.18,0,0,1,9.69,19.05C343.13,359.67,341.07,367.25,334.35,369.05Z"></path><path d="M272.88,315.69A16,16,0,0,0,258.06,308a18.06,18.06,0,0,0-7.47,2,13.59,13.59,0,0,0-2.34,1.59,12,12,0,0,0-4.3,6,14.8,14.8,0,0,0-1.1,5.61,16,16,0,0,0,8.51,13.73c6.22,3.09,13.94,2.41,19-2.64A15.74,15.74,0,0,0,272.88,315.69Z"></path></svg>