<svg xmlns="http://www.w3.org/2000/svg" viewBox="0 0 512 512" x="0px" y="0px"><title>effect Magic split</title><path d="M244.91,446.45c48.42,7.9,64.94-27.61,70.42-57a142.9,142.9,0,0,0-.25-52.24c-3.19-17.26-9.21-44.49-18.19-63.5a3.21,3.21,0,0,0-5.85.14l-5.55,13a3.21,3.21,0,0,1-6.09-.61c-2.88-14-9-40-18.47-63.77-3.36-8.39-15.53-7.53-17.75,1.23-5.9,23.25-15.86,58.66-28.77,90C214.41,313.74,164.76,433.38,244.91,446.45Z"></path><path d="M252.37,146.93a4.7,4.7,0,0,0,8.81-.79c2.89-11.06,4.68-24.15,11.45-34,5.36-7.76,7.09-18.27,5.11-27.64-4.37-20.7-28.82-27.5-41.3-10.41C232.12,80,229,88.36,229.83,99.83A48.52,48.52,0,0,0,239,124.2,146.07,146.07,0,0,1,252.37,146.93Z"></path><path d="M20.54,340.57a30.19,30.19,0,0,0,33.87,24.14c9.32-1.31,13.7-3.18,13.7-3.18,27.73-10,50.1-32.8,62.54-47.82a9.24,9.24,0,0,0-4.8-14.88l-.79-.22c-10.81-3.05-15.32-16.08-9-25.39,14.79-21.9,35.55-39.25,52.61-51.14,6.33-4.41,1.9-14.36-5.61-12.61-38.29,8.93-77,27.28-115.63,58.08C18,291,16.55,320.11,20.54,340.57Z"></path><path d="M185.28,148.1c-18.95-13.45-46.93-29.43-79.76-36a31.2,31.2,0,0,0-21.21,3c-8.36,4.59-16.74,14.25-14.78,34.58,0,0,6.78,38.69,62.57,16.62a4.61,4.61,0,0,0,2.46-6.24l-1.42-3a4.61,4.61,0,0,1,4.71-6.54,313,313,0,0,1,42.61,7.91C186.65,160,190.5,151.81,185.28,148.1Z"></path><path d="M491.46,340.57c4-20.46,2.51-49.62-26.87-73-38.67-30.8-77.34-49.15-115.63-58.08-7.51-1.75-11.94,8.2-5.61,12.61C360.41,234,381.17,251.32,396,273.22c6.3,9.31,1.79,22.34-9,25.39l-.79.22a9.24,9.24,0,0,0-4.8,14.88c12.44,15,34.82,37.84,62.54,47.82,0,0,4.38,1.87,13.7,3.18A30.19,30.19,0,0,0,491.46,340.57Z"></path><path d="M377.44,160a4.61,4.61,0,0,0,2.46,6.24c55.79,22.07,62.57-16.62,62.57-16.62,2-20.33-6.42-30-14.78-34.58a31.2,31.2,0,0,0-21.21-3c-32.82,6.61-60.81,22.59-79.76,36-5.22,3.71-1.37,11.92,4.82,10.28a313,313,0,0,1,42.61-7.91,4.61,4.61,0,0,1,4.71,6.54Z"></path><path d="M349.91,283.33c7.09,3.07,14.29-4.51,10.74-11.38a42.17,42.17,0,0,0-14.94-16.41,8.35,8.35,0,0,0-12.41,9.57A28.81,28.81,0,0,0,349.91,283.33Z"></path></svg>