<svg xmlns:dc="http://purl.org/dc/elements/1.1/" xmlns:cc="http://creativecommons.org/ns#" xmlns:rdf="http://www.w3.org/1999/02/22-rdf-syntax-ns#" xmlns:svg="http://www.w3.org/2000/svg" xmlns="http://www.w3.org/2000/svg" xmlns:sodipodi="http://sodipodi.sourceforge.net/DTD/sodipodi-0.dtd" xmlns:inkscape="http://www.inkscape.org/namespaces/inkscape" version="1.1" x="0px" y="0px" viewBox="0 0 100 100"><g transform="translate(0,-952.36218)"><path d="m 40.3235,966.86216 2.13291,0 c 0.10795,0.79548 0.31572,1.49491 0.72142,2 1.3916,1.28221 3.31961,1.15396 4.64221,0.28125 0.6562,-0.44696 1.11475,-1.28148 1.34875,-2.28125 l 4.23445,0 0,2.5625 c -3.80823,2.86353 -6.83016,5.31877 -8.53163,8.1875 -1.77075,2.98556 -2.01552,6.40563 -0.43913,10.59375 0.0779,0.22096 0.23639,0.41274 0.43913,0.53125 l 5.01861,3 c 0.42612,0.24567 1.02972,0.11681 1.31738,-0.28125 1.41093,-2.07126 1.31769,-4.18435 0.50186,-6.3125 -0.32481,-0.84136 -0.64223,-1.58777 -0.75279,-2.1875 -0.11056,-0.59972 -0.0697,-1.00526 0.2823,-1.53125 1.84295,-2.25901 4.07159,-3.38499 6.64965,-3.96875 2.31058,-0.52318 4.90674,-0.55398 7.55928,-0.5625 l 0,4.96875 c -1.47938,-0.1146 -2.9034,-0.17508 -3.98352,0.0625 -1.38625,0.30493 -2.5153,0.97045 -3.23073,2 -1.43084,2.05912 -1.32441,5.00653 -0.81552,9.0625 0.0608,0.48064 0.51749,0.87875 1.00372,0.875 l 4.01489,0 c 0.33699,-9.9e-4 0.66784,-0.1843 0.84689,-0.46875 0.77863,-1.45579 0.96404,-2.93883 1.7565,-4.3125 0.13266,-0.1507 0.19648,-0.17781 0.34503,-0.1875 5.62571,0.96942 9.05242,4.41273 11.19777,8.6875 2.15862,4.30129 2.91707,9.40629 2.91707,13.28129 0,8 -0.60142,17.4504 -5.33227,24.4687 -1.16873,1.6963 -2.37488,2.5313 -3.70122,2.5313 -11.87737,0 -23.59417,-2.8953 -34.44019,-12.7188 -10.72727,-10.2812 -9.72355,-19.2812 -8.71978,-28.12493 0.0172,-0.52894 -0.23015,-0.83009 -0.50187,-1.28125 l 6.93196,-6.9375 c 0.6901,-0.374 1.43197,-0.72897 2.03875,-1.0313 0.33847,-0.16408 0.56722,-0.53125 0.5646,-0.90625 0,-6.11111 -1.07489,-9.43449 -3.168,-12.5625 -0.27347,-0.27782 -0.56325,-0.56116 -0.84689,-0.84375 l 0,-3.59375 2.25837,0 c 0.22726,0.7364 0.58181,1.44278 1.06646,2.09375 0.6977,1.1213 1.68107,2.00223 2.6975,1.90625 1.00373,0 1.24251,-0.77717 1.53695,-1.53125 0.17188,-0.61521 0.27765,-1.34366 0.34503,-2.125 0.0927,-1.14237 0.0877,-2.32513 0.0941,-3.34375 z m -15.05583,12.5625 6.68103,8.34375 -6.17916,6.15625 L 20.5,984.95591 z" style="text-indent:0;text-transform:none;direction:ltr;block-progression:tb;baseline-shift:baseline;color:#000000;enable-background:accumulate;" fill="#000000" fill-opacity="1" stroke="none" marker="none" visibility="visible" display="inline" overflow="visible"></path></g></svg>