<svg xmlns="http://www.w3.org/2000/svg" viewBox="0 0 512 512" x="0px" y="0px"><title>skill magic earthquake</title><path d="M239.41,295.56l-74.68-32.5a3,3,0,0,0-4.06,3.56l17,59.61a24.53,24.53,0,0,0,10,9.17l53.92,27a5,5,0,0,0,7.15-4.82l-4.3-54.93A8.39,8.39,0,0,0,239.41,295.56Z"></path><path d="M225.64,180.78l-81.43,3.44a5.51,5.51,0,0,0-5.07,7l11.1,38.88a12.52,12.52,0,0,0,7.06,8.06l85.18,37.08a12.54,12.54,0,0,0,14.39-3.17l38-42.78a5.5,5.5,0,0,0-1.18-8.31L232.86,182.7A12.52,12.52,0,0,0,225.64,180.78Z"></path><path d="M124.38,159.42A14.07,14.07,0,0,0,136,164.7l95.83-4a10.05,10.05,0,0,1,5.71,1.52l69,43.46a11.34,11.34,0,0,0,13.34-.9l47.86-40a30.79,30.79,0,0,1,7.16-4.49l76.34-34.51a6.08,6.08,0,0,0,1.72-9.91L406.68,71.15A18.71,18.71,0,0,0,391.62,66l-69.08,7.53A28,28,0,0,1,309,71.66L240.22,44a21.59,21.59,0,0,0-13.05-1C173.62,55.57,96.72,64.43,64.71,67.79a6.87,6.87,0,0,0-4.63,11.12Z"></path><path d="M307.46,455.88l10.88-46.67,38.25-199.69a4.15,4.15,0,0,0-6.74-4l-18.54,15.5a175.91,175.91,0,0,0-18.69,18.14L269.31,288a19.93,19.93,0,0,0-5,14.77l8.43,107.54a34,34,0,0,0,4,10.31l21.8,36.68A4.83,4.83,0,0,0,307.46,455.88Z"></path><path d="M381.28,186.12,358.65,304.25a3.4,3.4,0,0,0,5.58,3.19l47.68-41.78A21.31,21.31,0,0,0,418.73,254,442.93,442.93,0,0,1,451,158.46a5.61,5.61,0,0,0-7.39-7.52l-53.79,24.31A15.06,15.06,0,0,0,381.28,186.12Z"></path><path d="M134.07,245.78v0l-17.42-61a25.92,25.92,0,0,0-4.65-9l-40.72-51a2.69,2.69,0,0,0-4.68,2.42L95.94,228.53a31.84,31.84,0,0,0,11.17,16.4l27.8,21.44a2.69,2.69,0,0,0,4.22-2.87Z"></path><path d="M51.42,271.59,82.6,304.86a4.85,4.85,0,0,1-.12,6.75l-17.81,17.7a4.84,4.84,0,0,1-6.1.59L35.84,314.76a4.83,4.83,0,0,1-2-5.25l9.36-35.83A4.84,4.84,0,0,1,51.42,271.59Z"></path><path d="M214.07,408.79v21.66a6,6,0,0,0,3.38,5.35l20.28,9.68a4.19,4.19,0,0,0,5.92-4.51l-5-27.84a5.93,5.93,0,0,0-4.16-4.64l-14.38-4.23A4.73,4.73,0,0,0,214.07,408.79Z"></path><path d="M86.08,429.41l8.31,23.82a9.14,9.14,0,0,1-3.23,10.39l-5.79,4.22a9.13,9.13,0,0,1-11.25-.37l-10.63-8.91a9.12,9.12,0,0,1-.73-13.32l16.59-17.3A4,4,0,0,1,86.08,429.41Z"></path><path d="M444.77,293.35l-8.21,36.1a4.45,4.45,0,0,0,1.47,4.39L451.27,345a4.45,4.45,0,0,0,6.38-.67l19.74-25.44a4.46,4.46,0,0,0-.58-6.07L452.05,291A4.45,4.45,0,0,0,444.77,293.35Z"></path><path d="M410.86,420.84l-19.1,24.81a3.45,3.45,0,0,0,.38,4.64l8.44,7.84a3.46,3.46,0,0,0,3.64.68L431,448.06a3.45,3.45,0,0,0,1.06-5.75,66.77,66.77,0,0,1-15.35-20.78A3.46,3.46,0,0,0,410.86,420.84Z"></path></svg>