<svg xmlns="http://www.w3.org/2000/svg" viewBox="0 0 512 512" x="0px" y="0px"><title>effect circle</title><path d="M85.29,298.35a14.42,14.42,0,0,1-7.19,24.73,77.39,77.39,0,0,1-17.21,1.15c-8.31-.4-13,9.48-7.15,15.45,9.8,10.09,25.51,21,49.39,25a141,141,0,0,1,39.78,13.15,186.65,186.65,0,0,0,23.8,10c8.71,2.93,15.24-8.24,8.37-14.36a178.89,178.89,0,0,1-33.13-39c-53.49-86.41-54.34-186.89,9.56-232,20.82-14.71,45.41-21.36,71.12-20.77,8.77.2,11.5-11.74,3.47-15.25A158,158,0,0,0,184.27,55a15.85,15.85,0,0,1-13.68-17.49l0-.27a16.54,16.54,0,0,0-23.78-16.84c-28,14-67.73,49.85-78.44,141.38-1.22,10.49-14,15.22-21.63,8l-.67-.65c-8.49-8.24-22.7-1.91-22.14,9.9C25.4,209.21,37.33,254.08,85.29,298.35Z"></path><path d="M470.91,247.52c2.1.52,4.14,1,6.09,1.58,7.81,2.14,14.49-7.26,9.11-13.3C467.72,215.15,446.27,195.16,429,180a335.31,335.31,0,0,0-77.5-51l-1.86-.88c-5.85-2.75-11.14,4.76-6.54,9.3a237.22,237.22,0,0,1,27.29,32.2c58.62,83,54.34,186.89-9.56,232-22.43,15.83-67.09,15.35-96.46,12.94-8.24-.68-11.47,10.49-4.13,14.28,17.23,8.9,35,12.16,46.78,13.34a11.77,11.77,0,0,1,9.43,16.74c-3.92,8.35-10.13,15.39-16.27,20.87-5.59,5-1.35,14.88,6,13.52,61.86-11.43,90.52-64.83,90.52-64.83a172.46,172.46,0,0,1,22.07-30.81,25.55,25.55,0,0,1,37.33-.76c2.81,2.91,5.45,6,7.86,9,6.66,8.27,20.09,4.23,20.9-6.36,3.8-49.68-18-99.26-28.91-115.59a83.83,83.83,0,0,1-6.1-10.92C443.41,259.09,456,243.87,470.91,247.52Z"></path><path d="M227.17,409.69a12.44,12.44,0,1,0-12.44,12.44A12.44,12.44,0,0,0,227.17,409.69Z"></path><path d="M306,94c-5.9-7.08-14.58-13.09-27-12.51a12.63,12.63,0,0,0-8.56,21.37c4.82,5,12.27,9.67,23.74,11.65S313.47,102.93,306,94Z"></path></svg>