<svg xmlns="http://www.w3.org/2000/svg" viewBox="0 0 512 512" x="0px" y="0px"><title>classes Ninja</title><path d="M439.77,373C426.33,362.3,408.31,357.27,397,355a175.87,175.87,0,0,1-36-11.38c-4.74-2.07-9.26-4.17-13.44-6.18a8,8,0,0,0-11.1,4.66,244.75,244.75,0,0,0-7.11,24.74A10.4,10.4,0,0,1,319.24,375a10.27,10.27,0,0,1-2.25-.25,10.4,10.4,0,0,1-7.91-12.38c3.51-15.92,24.32-83.22,24.32-83.22a7.63,7.63,0,0,0-11.5-8.3L266.79,306a20,20,0,0,1-21.52,0l-55.1-35.14a7.63,7.63,0,0,0-11.5,8.3s20.7,68.09,24,83.22a10.4,10.4,0,0,1-7.91,12.38,10.27,10.27,0,0,1-2.25.25,10.4,10.4,0,0,1-10.14-8.16,244.16,244.16,0,0,0-7.07-24.62,8,8,0,0,0-11.1-4.67c-4.1,2-8.52,4-13.16,6.05a175.23,175.23,0,0,1-36,11.4c-11.32,2.25-29.33,7.28-42.76,17.94a11.2,11.2,0,0,0,2.41,18.88l168.05,77.54a31.73,31.73,0,0,0,26.55,0l168-77.54A11.2,11.2,0,0,0,439.77,373Z"></path><path d="M275.25,80.87l29-20.91a4,4,0,0,0-.25-6.7c-1.88-1.13-3.75-2.17-5.61-3.15a91.41,91.41,0,0,0-84.73,0l-1.93,1a3.35,3.35,0,0,0,.26,6l56.41,24.44A7,7,0,0,0,275.25,80.87Z"></path><path d="M323,72.11,298.57,89.68a3,3,0,0,0,.57,5.24L345,114.78a3.94,3.94,0,0,0,5.29-4.91c-3.33-9.44-10.18-25.11-22.06-37.3A4.05,4.05,0,0,0,323,72.11Z"></path><path d="M356.86,154.1q.15-4.48,0-9a4.14,4.14,0,0,0-2.51-3.63L193,71.58a8.81,8.81,0,0,0-10,2.2,107.06,107.06,0,0,0-23.23,42.66c-.5,1.75-1,3.5-1.37,5.27a8.81,8.81,0,0,0,7.35,10.76L352.13,158.1A4.16,4.16,0,0,0,356.86,154.1Z"></path><path d="M164.51,153.29a7.82,7.82,0,0,0-8.88,8.38c0,.3.06.59.08.89,1.18,12.43,3.35,35.35,6.94,51.7a29.09,29.09,0,0,0,12.76,18.29L247,278.23a16.84,16.84,0,0,0,18.13,0l71.56-45.68a29.07,29.07,0,0,0,12.75-18.29c1.84-8.32,3.29-18.35,4.44-27.83a7.16,7.16,0,0,0-6.13-8Zm70.92,76.18c-4.71,2.33-12.45,4.46-23.27,2.08a18,18,0,0,1-13.41-11.87,22,22,0,0,1-.32-13,3.76,3.76,0,0,1,5.49-2.3l31.67,18.25A3.87,3.87,0,0,1,235.43,229.47Zm79.36-9.79a18,18,0,0,1-13.41,11.87c-10.82,2.38-18.57.25-23.27-2.08a3.87,3.87,0,0,1-.16-6.81l31.66-18.25a3.76,3.76,0,0,1,5.49,2.3A22.11,22.11,0,0,1,314.79,219.68Z"></path><path d="M54.05,327.16l6.72,10.53a8,8,0,0,0,10.64,2.72l82.5-45.13a8,8,0,0,0,4.1-8.21l-3.48-24a8,8,0,0,0-12.5-5.49L56.29,316.19A8,8,0,0,0,54.05,327.16Z"></path><path d="M21.73,130.4c3.82-9.05,11.34-25.23,21.25-38.63A8.09,8.09,0,0,1,57.19,94L107.38,248.3a8.94,8.94,0,0,1-3.54,10.2l-14.63,9.75a8.94,8.94,0,0,1-13.11-3.76L21.9,144A17,17,0,0,1,21.73,130.4Z"></path><path d="M458,327.16l-6.72,10.53a8,8,0,0,1-10.64,2.72l-82.5-45.13a8,8,0,0,1-4.1-8.21l3.48-24a8,8,0,0,1,12.5-5.49l85.74,58.61A8,8,0,0,1,458,327.16Z"></path><path d="M490.27,130.4c-3.82-9.05-11.34-25.23-21.25-38.63A8.09,8.09,0,0,0,454.81,94L404.62,248.3a8.94,8.94,0,0,0,3.54,10.2l14.63,9.75a8.94,8.94,0,0,0,13.11-3.76L490.1,144A17,17,0,0,0,490.27,130.4Z"></path></svg>