<svg xmlns="http://www.w3.org/2000/svg" viewBox="0 0 512 512" x="0px" y="0px"><title>skill magic chain lightning</title><circle cx="364.88" cy="149.58" r="5.43"></circle><path d="M470.62,149a40.36,40.36,0,0,0-51.93-36,10.43,10.43,0,0,1-7.87-.83c-8.75-4.63-22.14-14.78-20.32-33.07,2-19.84,10.22-28.92,14.41-32.31a3,3,0,0,0,.64-4,30.37,30.37,0,0,1-3.91-10.55,3.37,3.37,0,0,0-3.29-2.73H380.47a2.81,2.81,0,0,0-2.55,4c1.35,3.19,2.09,9.94-.76,15.13a51.17,51.17,0,0,0-5,25,4.93,4.93,0,0,1-5.68,5.17c-7.53-1.22-19.14-6.39-18.67-26.62,0,0,.62-12.21-5.15-19.75a7.42,7.42,0,0,0-5.89-2.89H271.54a2.65,2.65,0,0,0-1.47,4.85c11.57,7.63,31.82,25,41.13,57.33a6.12,6.12,0,0,0,5.25,4.39c13.49,1.37,56.21,7.12,77.09,26.07a7.85,7.85,0,0,1,1.62,9.63,40.38,40.38,0,0,0,16,55.36c-21.88,2.68-33.64-10.21-39.35-20.17a2.69,2.69,0,0,0-5,1.56,40.4,40.4,0,0,0,4.16,15.62,5.68,5.68,0,0,1,.67,3.51c-1,5.77-6.31,8.26-10.67,6.48a168.28,168.28,0,0,1-24.35-12.33c-10.22-6.33-11.34-17.54-11.06-23.84a5.12,5.12,0,0,0-4.39-5.31l-18.87-2.73a9.59,9.59,0,0,0-5.41.78,207.75,207.75,0,0,1-38.92,13.19,37.39,37.39,0,0,1-12.23,1c-9.64-1-15.74-9.93-13.93-19.45a42.75,42.75,0,0,0,.32-15.69,3.32,3.32,0,0,0-6.44-.34c-2.39,7.59-7.71,16-16.88,20.06a13.53,13.53,0,0,1-7.26,1.37,42.77,42.77,0,0,0-63.44-57.36,8.6,8.6,0,0,1-7.33,2.65,64.53,64.53,0,0,1-24.12-7.79,5.94,5.94,0,0,0-6.88.61c-5.82,5.08-17.37,18.29-23.89,47a6.74,6.74,0,0,1-4.7,5l-13.37,3.84a4.18,4.18,0,0,0-3,4v18.22a1.51,1.51,0,0,0,2.8.8l7.19-11.51a5,5,0,0,1,3.15-2.23l17.51-3.89a3.66,3.66,0,0,0,2.86-3.51c.09-4.59.94-13.92,6-22.24,6.36-10.51,19.91-11.6,28.27-4.84a12.44,12.44,0,0,1,4.33,8.32A42.49,42.49,0,0,0,131,141.83c-6.07,10.11-25.83,38.86-64.88,60a6.36,6.36,0,0,0-3.39,5.88c.45,9.19,5,31,20,50.23,0,0,14.14,19.85,40.46,24.55a3.67,3.67,0,0,0,3.12-6.28c-8.22-7.83-19.64-21.64-22.12-39.69a11.53,11.53,0,0,1,13.33-13,25.58,25.58,0,0,1,6.19,2,51.93,51.93,0,0,0,11.51,3.85c7.88,1.54,20.56,3.22,31.47,1a9,9,0,0,1,8.21,2.49c7.58,7.68,25.53,26.21,40.23,43.89a3.47,3.47,0,0,0,5.9-3.49c-6.87-17.26-17.25-41.4-28.42-60.42a6.9,6.9,0,0,0-7.34-3.27c-12.65,2.58-47.25,7.92-60.86-7.52,0,0-9.37-10.66,1.93-21.33,8.14-7.67,23.82-13.84,32-16.69a42.81,42.81,0,0,0,18.61.76A19.3,19.3,0,0,1,193.54,170a112.15,112.15,0,0,1,23.2,32.23,8,8,0,0,0,6.67,4.56l21.28,1.56a7.82,7.82,0,0,0,4.72-1.12c16.36-10.24,34.44-10.35,45.76-9a48.51,48.51,0,0,1,19.93,7.15,107.16,107.16,0,0,1,46.26,61.83,3.35,3.35,0,0,0,6.28.49c19.53-42.58,63.1-70.17,78.81-79a40.61,40.61,0,0,0,5.78-3.11h0A40.36,40.36,0,0,0,470.62,149Zm-304.21-14.5a15.16,15.16,0,1,1,15.15-15.15A15.15,15.15,0,0,1,166.41,134.49ZM424.33,161a15.16,15.16,0,1,1,15.16-15.16A15.15,15.15,0,0,1,424.33,161Z"></path><path d="M153.34,53.44c2.43-1.82,5.06-3.71,7.81-5.55a32,32,0,0,1,40.45,4c1.06,1.08,2.14,2.23,3.22,3.45a6.3,6.3,0,0,1-5.68,10.39,215.53,215.53,0,0,0-42.25-2.37A5.51,5.51,0,0,1,153.34,53.44Z"></path><circle cx="226.63" cy="83.57" r="8.34"></circle><circle cx="151.25" cy="287.63" r="7.71"></circle><path d="M139.5,415.78l-23-.79a11.09,11.09,0,0,0-8.88,3.95,147.92,147.92,0,0,1-32.77,28.55,4.06,4.06,0,0,1-5.44-5.85c9.84-13.22,23.21-33.21,30.53-52.93a6,6,0,0,1,5.64-3.91h9.77A6,6,0,0,1,120,387c3.59,4.4,12.23,14.45,22,21.81A3.88,3.88,0,0,1,139.5,415.78Z"></path><circle cx="50.43" cy="470.03" r="12.45"></circle><path d="M443.81,401a62.35,62.35,0,0,0-72.65-57.4,6.44,6.44,0,0,1-7.27-8.16,13.88,13.88,0,0,1,2.11-4.14c7.84-10.82,44.46-11.55,72.41,2a1.61,1.61,0,0,0,1.87-2.57c-5.21-5.41-12-12.64-18-19.4a5,5,0,0,0-3.75-1.7,106.71,106.71,0,0,1-42.25-3.06,5,5,0,0,0-3,1c-5,3.85-25.7,19.31-53-.17a5.67,5.67,0,0,0-5.78-.49c-6.74,3.27-23.84,10.48-43,10,0,0-29.59-.77-42.66-.19a20.42,20.42,0,0,1-6.36-.7,289.2,289.2,0,0,1-41.31-14.83,2.32,2.32,0,0,0-2.53,3.83c9.36,8.49,22.19,19.81,32.77,27.9a10.89,10.89,0,0,0,7.57,2.2c3.2-.26,8.1-.63,14.13-1A15.14,15.14,0,0,1,245,338.74a82.89,82.89,0,0,1,15.72,22.2,5,5,0,0,0,2.83,2.65c4.62,1.64,21,11.56,34,21.11a3.51,3.51,0,0,0,5-4.83,72.69,72.69,0,0,0-24.5-21.69,17.33,17.33,0,0,1-5.35-5.23,32.61,32.61,0,0,1-3.78-6.74,9.36,9.36,0,0,1,9-12.81c12.6.4,25.22,1.46,35.84,3.63,0,0,15.58,3.87,24,15.83a6.77,6.77,0,0,1-.71,8.62,62.16,62.16,0,0,0-17.77,43.58v0a4.93,4.93,0,0,1-3.17,4.6c-15.61,6-45,7.71-92.19-23.38a9.11,9.11,0,0,0-5.87-1.48c-10.26,1-42,6.86-66.69,42.25,0,0-22.29,33-46.55,41.3,0,0-9,3.17-19.23,6.31a3.4,3.4,0,0,0,.87,6.65l29.07,1a8.17,8.17,0,0,0,5.24-1.65c10.85-8.19,57.17-42.35,79.17-45.68,17.62-2.67,49.92-.45,67.46,1.09a7.51,7.51,0,0,1,4.85,12.56A34.77,34.77,0,0,1,255.61,459a20,20,0,0,1-5.32.69c-6.21,0-22.53-.78-36.86-8a4.31,4.31,0,0,0-5.54,6.16c4.56,7.21,11.14,15.36,20,21A8.71,8.71,0,0,0,232,480.3l27.39,1.94a9.06,9.06,0,0,0,5.92-1.66c8.54-6.1,37.76-24.72,75.89-24.21a18.46,18.46,0,0,1,9,2.63A62.4,62.4,0,0,0,443.81,401Zm-60.25,25.81a20.27,20.27,0,1,1,20.26-20.26A20.26,20.26,0,0,1,383.56,426.76Z"></path><circle cx="464.03" cy="362.91" r="9.99"></circle></svg>