<svg xmlns="http://www.w3.org/2000/svg" viewBox="0 0 512 512" x="0px" y="0px"><title>skill magic shock</title><path d="M481.94,231.12c-1.95-11.81-6.66-38.62-12.61-60.7a3.27,3.27,0,0,0-6.39.39c-1.75,12.49-4.44,30.33-7.19,43.47a24.49,24.49,0,0,1-12.39,16.55c-8.64,4.66-21.78,11.14-34,14.77a4.4,4.4,0,0,1-5.58-4.86c3.56-24.45,16.66-112,29.37-165a4.55,4.55,0,0,0-8-3.85C419.27,79.43,412.4,88,405.94,95a13.77,13.77,0,0,1-15.43,3.37L235,33.61a13.55,13.55,0,0,0-9.67-.29c-9.82,3.43-33.33,11-57.49,13.47a10.15,10.15,0,0,0-6.06,2.79L137.59,73a10.35,10.35,0,0,0-3.12,8.21c.44,5.84,1.33,16.54,2.74,29.84a4.31,4.31,0,0,0,8.38.9c6.11-18.71,19.53-40.37,48.87-40a5.18,5.18,0,0,1,4.3,8C177.05,112.67,87.83,247,51.56,300.4A10.32,10.32,0,0,0,52,312.57l0,.06A37.76,37.76,0,0,1,60,331.93a83.3,83.3,0,0,1-.07,19.19,59.27,59.27,0,0,1-6.6,20c-3,5.7-7.53,19.5,4.51,38.57,10.85,17.17,33,20.61,46.22,21a62.33,62.33,0,0,1,25.49,6.18l.42.21a61.75,61.75,0,0,1,25.65,23.71q4,6.75,7.88,13.47a10.26,10.26,0,0,0,10.67,5c18-3.13,66.23-11.09,97.62-12.52a63.86,63.86,0,0,0,9.55-1.16,499.61,499.61,0,0,1,70.49-8.6,2.07,2.07,0,0,0,.12-4.12c-46.83-4.71-124.68-13.26-161.88-21.47a6,6,0,0,1-3-10.14c8.74-8.95,26.66-21.74,54.87-16.83,0,0,14.61,2.51,26.91,18.65a5.63,5.63,0,0,0,6.24,2c6.8-2.2,21.31-6.91,34.24-11.06a1.82,1.82,0,0,0-.66-3.55c-10.84.6-24.54.56-32.92-2.39,0,0-20.19-18.11-31.4-31.22a8.84,8.84,0,0,0-10.29-2.35c-13.41,5.86-46.65,16.2-74.37-9.39-26.31-24.28-41.67-65.5-47.9-85.42a19.42,19.42,0,0,1,5-19.7c11.76-11.49,34-32.17,52.74-43.55a7.18,7.18,0,0,1,10.9,6.73c-.84,10.53-3.46,25.81-11.15,38.12a11.26,11.26,0,0,1-6,4.68A82.81,82.81,0,0,1,143.3,270a1.21,1.21,0,0,0-.45,2.29,107.35,107.35,0,0,0,29.5,9.3,16.77,16.77,0,0,0,18.93-13.13c5.58-26.76,23-86.26,71.37-115.61a17.27,17.27,0,0,1,15.44-1.18c10.13,4.1,28.08,11.81,41.12,19.91a18.68,18.68,0,0,1,8.69,14c1.44,14.34,3.87,44.11,2.52,70.69a5.86,5.86,0,0,1-9.06,4.59c-9.56-6.23-26-16.3-42.28-23a4.33,4.33,0,0,0-5.82,5.3c4.15,12.86,11.16,38,11,60.8a18.44,18.44,0,0,0,5.3,13.05c10,10.09,31,31.15,44.4,43.12a6.44,6.44,0,0,0,9.05-.44c17.28-18.76,84.1-89.61,134.61-119.42A8.84,8.84,0,0,0,481.94,231.12ZM116,404.73a2.75,2.75,0,0,1-3.18,4,104.68,104.68,0,0,0-23.74-4.47,19.8,19.8,0,0,1-14.7-8.12,15.45,15.45,0,0,1-2.54-13.09c2.81-11.25,10-17.87,11.61-26.41A1.82,1.82,0,0,1,86.8,356Z"></path><ellipse cx="460.12" cy="125.7" rx="7.47" ry="10.5" transform="translate(-5.77 23.44) rotate(-2.9)"></ellipse><path d="M360.82,417.35a135.05,135.05,0,0,1,29.51,14.94,7.16,7.16,0,0,0,8.84-.55c9.5-8.54,33.68-29.05,57.63-39.41a2.35,2.35,0,0,0-.92-4.51c-10.14.05-24.08.35-35,1.5a8.48,8.48,0,0,0-5.18,2.51c-4.93,5-17.84,17.31-27.16,18.16a173.26,173.26,0,0,0-27,.83A3.38,3.38,0,0,0,360.82,417.35Z"></path><path d="M167.72,315.16a19,19,0,0,0-.47,11.12,14.74,14.74,0,0,0,12.09,10.38,109.72,109.72,0,0,1,35.45,11.87,2.31,2.31,0,0,0,3.09-3.24l-9-14.44a13.37,13.37,0,0,0-7.42-5.65c-3.53-1.1-8.11-3.53-9.64-8.87,0,0-2.69-9.57-15.59-8A10.21,10.21,0,0,0,167.72,315.16Z"></path><path d="M115.35,173.53l-71,99.66a4,4,0,0,1-7-1l-6.65-19a14.39,14.39,0,0,1-.81-4.74V206a3.09,3.09,0,0,1,5.48-1.94c4.27,5.14,11,10.84,20,11.22a22.26,22.26,0,0,0,16.52-6.68l39-38.8A2.89,2.89,0,0,1,115.35,173.53Z"></path></svg>