<svg xmlns="http://www.w3.org/2000/svg" viewBox="0 0 512 512" x="0px" y="0px"><title>skill magic ice</title><path d="M245.3,314V229.8a6.84,6.84,0,0,0-3.35-5.89l-33-19.67a2.66,2.66,0,0,0-3.89,3.14c9.95,29.08,25.43,74.54,36.57,107.25A1.88,1.88,0,0,0,245.3,314Z"></path><path d="M302.22,201.79l-33.93,21.86a6.85,6.85,0,0,0-3.14,5.77v83.5a1.88,1.88,0,0,0,3.67.61c11.44-33.57,27.46-80,37.37-108.63A2.67,2.67,0,0,0,302.22,201.79Z"></path><path d="M259.41,205.76l48.11-31a7.16,7.16,0,0,0,2.81-8.59L259.49,33.51a4.57,4.57,0,0,0-8.53,0L199.25,168.43a7.18,7.18,0,0,0,3,8.73l48.26,28.75A8.43,8.43,0,0,0,259.41,205.76Z"></path><path d="M235.77,469.21c-15.35-2.14-30.57-4.31-45.65-7l-4.94-.91a11.88,11.88,0,0,1-9.67-10.79l-3.58-47.62a3.82,3.82,0,0,0-2.7-3.45,3.71,3.71,0,0,0-4.56,2.52l-12.95,43.81a8.48,8.48,0,0,1-10.29,5.81l-.08,0c-15.92-4.3-31.59-9.31-46.11-15.85a143.8,143.8,0,0,1-20.41-11.06c-1.52-1.06-3-2.12-4.47-3.21s-2.84-2.22-4-3.42A39.77,39.77,0,0,1,60,410.86c-.36-.6-.84-1.2-1.14-1.8s-.58-1.18-.9-1.76-.4-1.16-.63-1.73a2.8,2.8,0,0,1-.24-.85l-.19-.83a14.66,14.66,0,0,1,.23-6.7,23.6,23.6,0,0,1,3.72-7.38,49.49,49.49,0,0,1,6.85-7.46,104.25,104.25,0,0,1,18.77-13,216.49,216.49,0,0,1,21.82-10.52,438.1,438.1,0,0,1,47.21-16.28q12.15-3.48,24.52-6.65l5.8-1.44a2.72,2.72,0,0,0-.65-5.36c-10.63,0-21.29.6-31.93,1.65q-4.22.42-8.45,1a17.92,17.92,0,0,1-13.1-3.47c-5.14-3.9-10.11-10.24-12.69-20.52-1-3.94-7.37-2.38-7.7,1.66a87.16,87.16,0,0,1-4.44,22,18.87,18.87,0,0,1-11.7,11.3c-5.84,2-13.76,4.81-18.58,7l-.12,0a13.14,13.14,0,0,1-16.32-4.52c-9.3-13.92-12.84-35.21-14.08-46a7.52,7.52,0,0,0-6.82-6.75,7.3,7.3,0,0,0-7.76,7.28v99.26l-.15,2.36.12,2.36a27.83,27.83,0,0,0,.54,4.67l.46,2.29A14.6,14.6,0,0,0,33,413c.48,1.43,1,2.89,1.51,4.28s1.25,2.65,1.9,4,1.44,2.43,2.18,3.65a60.35,60.35,0,0,0,10.33,12.06c1.84,1.79,3.79,3.25,5.71,4.83s3.91,2.87,5.89,4.24a150.5,150.5,0,0,0,24.56,13,234.85,234.85,0,0,0,25.32,9q12.8,3.66,25.7,6.25A383.44,383.44,0,0,0,188,480.71a393,393,0,0,0,47.43,0,4.87,4.87,0,0,0,4.54-4.73l.05-1.8A4.87,4.87,0,0,0,235.77,469.21Z"></path><path d="M483.9,299.79a7.3,7.3,0,0,0-7.76-7.28,7.52,7.52,0,0,0-6.82,6.75c-1.27,11-4.93,33-14.68,46.88a12.17,12.17,0,0,1-15.4,3.84h0c-8-3.58-16.53-5.32-24.22-9-13.69-6.47-9.95-22.13-11-32.22a3.94,3.94,0,0,0-7.74-.64,38.74,38.74,0,0,1-7.36,15.06,24.35,24.35,0,0,1-21.6,8.42l-1.73-.19c-8.29-.85-16.59-1.41-24.89-1.62a3.44,3.44,0,0,0-.94,6.76c7.88,2.16,15.71,4.37,23.46,6.7a443.93,443.93,0,0,1,45.16,16.1,210.42,210.42,0,0,1,20.86,10.27,103.48,103.48,0,0,1,18,12.49c1.34,1.12,2.48,2.33,3.66,3.5a44.92,44.92,0,0,1,3,3.64,26.13,26.13,0,0,1,3.95,7.13,13.6,13.6,0,0,1,.61,6.47,18.35,18.35,0,0,1-2.37,6.6c-2.71,4.63-7.6,9.35-13.26,13.5a125.61,125.61,0,0,1-19.06,11.14,228,228,0,0,1-21.35,8.92c-7.34,2.67-14.84,5.11-22.44,7.34l-.1,0a10.65,10.65,0,0,1-13.15-7.24L354.62,402.1a3.84,3.84,0,0,0-2.91-2.75,3.71,3.71,0,0,0-4.38,3.37l-3.56,47.33a12.87,12.87,0,0,1-10.24,11.66l-.11,0c-14.33,2.95-28.82,5.4-43.44,7.9a5,5,0,0,0-4.18,4.06,4.87,4.87,0,0,0,4.5,5.64,362.7,362.7,0,0,0,45.44-.27q6.24-.4,12.47-1c4.16-.37,8.3-.92,12.45-1.45q12.45-1.69,24.84-4.26c16.48-3.61,32.91-8.23,48.89-15.41a131.58,131.58,0,0,0,23.43-13.2c1.88-1.38,3.76-2.75,5.58-4.33s3.63-3.19,5.4-4.9c.9-.81,1.71-1.84,2.56-2.76a36.08,36.08,0,0,0,2.46-3l2.34-3.16,2.12-3.49a43.68,43.68,0,0,0,5.4-16.45,36.7,36.7,0,0,0,.11-6.71l.11.11Z"></path><path d="M322.7,428.5a5.17,5.17,0,0,0-6.05-5.1c-8.48,1.48-17.08,2.52-25.71,3.2-11.07.95-22.21,1.25-33.34,1.1a308.9,308.9,0,0,1-59.73-6.56,4.77,4.77,0,0,0-5.77,4.67v13.6a4.76,4.76,0,0,0,3.91,4.7,327.84,327.84,0,0,0,61.59,4.65c11.8-.22,23.59-.92,35.34-2.3q12.9-1.53,25.69-4.28a5.17,5.17,0,0,0,4.07-5.07Z"></path><path d="M384.3,384.05a36.19,36.19,0,0,0-6.95-8.17,65.39,65.39,0,0,0-16.23-9.94c-11.2-4.93-22.7-7.81-34.21-10-5.75-1.11-11.53-1.93-17.3-2.67s-11.55-1.31-17.32-1.79c-11.55-1-23.12-1.46-34.69-1.64s-23.16,0-34.8.56c-5.81.28-11.65.58-17.49,1.17s-11.7,1.16-17.55,2.08c-11.73,1.84-23.49,4.44-35.15,9.33a65.94,65.94,0,0,0-17.17,10.31,38.45,38.45,0,0,0-7.69,9,27.27,27.27,0,0,0-4,13.46,27.8,27.8,0,0,0,3.56,13.69,40.74,40.74,0,0,0,7.41,9.48,71.44,71.44,0,0,0,16.9,11.5,128.42,128.42,0,0,0,16,6.62V412.11c-1.93-.8-3.83-1.63-5.67-2.51a51.86,51.86,0,0,1-11.72-7.37,19.24,19.24,0,0,1-3.39-3.8,5.94,5.94,0,0,1-1-2.69,5.14,5.14,0,0,1,.65-2.91,18.48,18.48,0,0,1,3.12-4.29A53.73,53.73,0,0,1,161.06,380a118.38,118.38,0,0,1,14.32-7.06c5-2.11,10.22-4,15.52-5.71a230.76,230.76,0,0,1,66.7-10.53,241.08,241.08,0,0,1,67.23,8.24c10.78,3.08,21.37,6.91,30.78,12.1A55.31,55.31,0,0,1,368,385.94a22.41,22.41,0,0,1,3.86,5.12,9,9,0,0,1,1.11,4.68,9.21,9.21,0,0,1-1.55,4.44,22.07,22.07,0,0,1-4.1,4.63,54.31,54.31,0,0,1-12.66,7.75c-1.47.66-3,1.29-4.48,1.9v18.41a128.55,128.55,0,0,0,11.89-5.41,69.52,69.52,0,0,0,16-11.13,37.37,37.37,0,0,0,6.7-8.65,24.19,24.19,0,0,0,3.06-11.94A23.74,23.74,0,0,0,384.3,384.05Z"></path><ellipse cx="37.79" cy="244.43" rx="9.68" ry="13.66"></ellipse><ellipse cx="474.21" cy="201.36" rx="9.68" ry="13.66"></ellipse><path d="M168,227.08l11.3,19.35a14,14,0,0,1,1.57,10l-7.78,35.49a2.56,2.56,0,0,1-4.82.55L153.37,261a14,14,0,0,1,0-11.8l10.1-21.87A2.56,2.56,0,0,1,168,227.08Z"></path><path d="M353.11,223.68l8.88,22.2a14.88,14.88,0,0,1,.1,10.81l-13.78,36.24a2.74,2.74,0,0,1-5.18-.18l-10.74-35.59a14.86,14.86,0,0,1,1.79-12.46l14.1-21.5A2.73,2.73,0,0,1,353.11,223.68Z"></path><path d="M126.94,97.75c3.23,10.86,10.2,26.87,24.52,36a2.4,2.4,0,0,1,.21,3.72c-5.54,3.9-17,14.37-18.9,35.18-.19,2.09-2.45,2.37-3.14.4C125.8,162.23,118,146,104.46,140a2.36,2.36,0,0,1-.36-3.9c6.29-3.92,17-14,19.65-38.15C124,95.86,126.32,95.68,126.94,97.75Z"></path><path d="M392.59,136.93c-3.28,10.6-10.13,26-23.53,33.94a2.51,2.51,0,0,0-.3,3.7c5,4.4,15.17,15.89,16.32,36.9.11,2.11,2.18,2.59,2.87.68,3.83-10.53,11.44-26.15,24-30.89,1.35-.51,1.63-2.93.45-3.87-5.66-4.48-15.16-15.52-16.93-39.94C395.35,135.29,393.22,134.91,392.59,136.93Z"></path></svg>