<svg xmlns:dc="http://purl.org/dc/elements/1.1/" xmlns:cc="http://creativecommons.org/ns#" xmlns:rdf="http://www.w3.org/1999/02/22-rdf-syntax-ns#" xmlns:svg="http://www.w3.org/2000/svg" xmlns="http://www.w3.org/2000/svg" xmlns:sodipodi="http://sodipodi.sourceforge.net/DTD/sodipodi-0.dtd" xmlns:inkscape="http://www.inkscape.org/namespaces/inkscape" viewBox="0 0 22.689566 25.135426" version="1.1" x="0px" y="0px"><g transform="translate(182.81482,-106.39369)"><path style="opacity:1;fill:#000000;stroke:none;stroke-width:0.88772351;stroke-miterlimit:4;stroke-dasharray:none" d="m -163.48924,106.399 c -0.23917,-0.058 -0.52571,0.35431 -0.82311,1.45291 -0.4417,1.6317 -0.94793,2.89259 -1.45292,3.90326 1.14305,-3.46004 -5.61378,-7.20777 -4.18962,-3.69748 0.46277,1.14074 0.63494,2.14674 0.66124,3.02837 -0.74737,-2.57546 -10.54688,0.68542 -6.88246,1.34214 1.18948,0.2132 1.97344,0.58035 2.5211,0.99548 -1.95474,-0.58121 -8.54019,5.52177 -8.16368,6.22712 0.0775,0.14522 0.45009,0.062 1.21898,-0.35585 1.46307,-0.79548 2.56045,-1.20767 3.42023,-1.41687 -2.39443,1.12218 -5.92554,8.30225 -5.61633,9.16832 0.0861,0.24122 0.47013,-0.008 1.25958,-1.01316 1.17673,-1.49913 2.16744,-2.53213 3.01067,-3.28592 -2.59655,3.02603 -1.46173,12.3457 -0.10221,7.32351 0.44169,-1.63172 0.94789,-2.89259 1.45291,-3.90325 -1.14304,3.46004 5.61379,7.20775 4.18962,3.69748 -0.4628,-1.14074 -0.63493,-2.14674 -0.66124,-3.02837 0.74691,2.57583 10.54698,-0.68541 6.88246,-1.34215 -1.18947,-0.21318 -1.97343,-0.58035 -2.52109,-0.99548 2.35715,0.70087 11.44819,-8.31854 6.94469,-5.87126 -1.46304,0.79548 -2.56044,1.20766 -3.42023,1.41686 2.2731,-1.06528 5.57081,-7.58922 5.63466,-8.98941 0.006,-0.15174 -0.0245,-0.24364 -0.0989,-0.26148 -0.16383,-0.0393 -0.53746,0.27845 -1.17897,1.09574 -1.17674,1.49916 -2.16742,2.53217 -3.01065,3.28592 2.02856,-2.3641 1.77959,-8.56936 0.92534,-8.77643 z"></path></g></svg>