<svg xmlns="http://www.w3.org/2000/svg" data-name="Layer 1" viewBox="0 0 100 100" x="0px" y="0px"><path d="M78.89,38a15.72,15.72,0,0,1,.3,2.84A15.88,15.88,0,0,1,77.58,48H79A12,12,0,0,0,90.83,38Z"></path><path d="M22.46,48a16.57,16.57,0,0,1-1.34-10h-12A12,12,0,0,0,21,48Z"></path><path d="M74.5,52.34,64.84,62H71A12,12,0,0,0,82.83,52h-8C74.7,52.11,74.61,52.23,74.5,52.34Z"></path><path d="M25.14,52h-8A12,12,0,0,0,29,62h6.08l-9.42-9.42C25.47,52.39,25.31,52.19,25.14,52Z"></path><path d="M75.19,40.88a12,12,0,0,0-3.71-8.55,12.15,12.15,0,0,0-15.57-.88,11.85,11.85,0,0,0-4.69,9,2,2,0,0,1-4-.17,16.31,16.31,0,0,1,1-4.79l-2.93-2.93A11.88,11.88,0,0,0,36.75,29h-.22A11.89,11.89,0,0,0,28,32.84a12.28,12.28,0,0,0,.54,16.91L49.58,70.84a.54.54,0,0,0,.76,0L71.67,49.51A12,12,0,0,0,75.19,40.88Z"></path></svg>