<svg xmlns="http://www.w3.org/2000/svg" viewBox="0 0 512 512" x="0px" y="0px"><title>abnormal Burned</title><circle cx="258.26" cy="41.01" r="14.94" transform="translate(3.97 101.95) rotate(-22.5)"></circle><path d="M467.21,116.33c7.33-5.58,14.62-15.17,18.18-31.65a84.53,84.53,0,0,0,1.66-21.88,194.14,194.14,0,0,0-2.81-25.48,8.91,8.91,0,0,0-16.32-3c-9,14.46-22.53,35-33.23,47a23.84,23.84,0,0,0-5.65,11c0,.13-.05.27-.08.41C424.74,114.34,449.67,129.68,467.21,116.33Z"></path><path d="M408.75,249.75a14.1,14.1,0,0,0,6.73,4.57c6.19,1.91,12.75-1.37,15.57-7.21,3-6.21,6.28-17.08,5.48-34.23-.43-9.27-13.24-11.4-16.71-2.79h0s-5.36,10.2-12.63,25.85A13,13,0,0,0,408.75,249.75Z"></path><path d="M186.73,326.34a77,77,0,0,0,84.16,18.35C312,328.57,369.72,284.91,392,135.58c1.74-11.58,3-23.21,4.11-34.87,1.07-11.3,5.06-36.71,20-57.27,5.58-7.7-.8-18.35-10.25-17.3-15.34,1.72-34.91,9.74-49.83,35.73a93.63,93.63,0,0,0-7.74,17.89c-5.14,15.92-21.92,53.67-59.58,58.47,0,0-40.65,6.39-47.88-35.57A76.85,76.85,0,0,0,237.1,86c-3-8.41-15-8.1-17.75.39a126.42,126.42,0,0,1-37,55.63c-11.83,10.41-21.43,23.18-27.18,37.85-7.5,19.11-12.45,46.79-3.72,82.49C151.49,262.35,160.86,299,186.73,326.34ZM240,219.13a12.38,12.38,0,1,1-12.38,12.38A12.38,12.38,0,0,1,240,219.13Zm-16.66,55.95,21.87-5.93A16.86,16.86,0,0,1,265.86,281l2.62,9.66a16.86,16.86,0,0,1-11.85,20.68l-21.87,5.94a16.87,16.87,0,0,1-20.69-11.86l-2.62-9.65A16.87,16.87,0,0,1,223.31,275.08Zm-28.37-48.34a15.4,15.4,0,1,1-15.41,15.4A15.4,15.4,0,0,1,194.94,226.74Z"></path><path d="M112.56,470.9a33.15,33.15,0,0,0,28.3,6c21.49-5.32,45.16-12.56,61.15-17.66a24.78,24.78,0,0,1,29,11.17l4.52,7.79a15.46,15.46,0,0,0,13.37,7.7h144.3a56.47,56.47,0,0,0,31.16-9.23c16.76-11.06,30.21-27.57,40.3-43.34,17.28-27,26.84-58.25,28.67-90.27,2.66-46.45-6.95-81.93-15.77-103.94-2.91-7.28-13.7-5.63-14.3,2.18-5,64.7-21.92,91.89-37.6,102.9-17.29,12.16-40.47-4.09-35.53-24.64a79.64,79.64,0,0,1,8.13-19.89,11.12,11.12,0,0,0-3.08-14.42l-.32-.23A11,11,0,0,0,379,288.24c-23.17,37.32-87.81,77.14-87.81,77.14-32.27,17.25-115.4,36.8-142.56,42.92a22.84,22.84,0,0,1-16.84-2.72C109.59,392.17,80.58,369.81,62,355a27,27,0,0,0-36.06,39.93C56.35,426.15,93.5,456.1,112.56,470.9Z"></path><path d="M137.06,379.17a14.53,14.53,0,0,0,15.06,3.46l22.32-7.77a14,14,0,0,0,5.6-22.73c-20.73-22.06-47.53-48.19-61.73-61.31a24.59,24.59,0,0,0-31.39-1.66h0a24.6,24.6,0,0,0-2.71,37.12Z"></path></svg>