<svg xmlns="http://www.w3.org/2000/svg" xmlns:xlink="http://www.w3.org/1999/xlink" xml:space="preserve" version="1.1" style="shape-rendering:geometricPrecision;text-rendering:geometricPrecision;image-rendering:optimizeQuality;" viewBox="0 0 846.66 846.66" x="0px" y="0px" fill-rule="evenodd" clip-rule="evenodd"><defs><style type="text/css">
   
    .fil0 {fill:black;fill-rule:nonzero}
   
  </style></defs><g><path class="fil0" d="M732.14 280.64c13.75,2.82 26.66,11.77 34.61,25.54 19.94,33.54 29.54,103.03 11.32,175.65 21.9,100.51 -122.04,225.99 -212.05,250.31 -2.82,13.75 -11.77,26.66 -25.54,34.61 -33.54,19.94 -103.03,29.54 -175.65,11.32 -100.51,21.9 -225.98,-122.04 -250.31,-212.05 -13.75,-2.82 -26.66,-11.77 -34.6,-25.54 -19.95,-33.54 -29.55,-103.03 -11.33,-175.65 -21.9,-100.51 122.04,-225.98 212.05,-250.31 2.82,-13.75 11.77,-26.66 25.54,-34.6 33.54,-19.95 103.03,-29.55 175.65,-11.33 100.51,-21.9 225.99,122.04 250.31,212.05zm-88.2 186.23c0.64,50.57 -71.6,171.49 -209.88,152.07 83.5,0 151.31,-67.3 152.07,-150.63 -1.04,-43.19 57.81,-43.21 57.81,-1.44zm-264.15 177.07c-50.57,0.64 -171.49,-71.6 -152.07,-209.88 0,83.5 67.3,151.31 150.63,152.07 43.19,-1.04 43.21,57.81 1.44,57.81zm-177.07 -264.15c-0.64,-50.57 71.6,-171.49 209.88,-152.07 -83.49,0 -151.3,67.3 -152.07,150.63 1.04,43.19 -57.81,43.21 -57.81,1.44zm264.15 -177.07c50.57,-0.63 171.49,71.6 152.07,209.88 0,-83.49 -67.3,-151.3 -150.63,-152.07 -43.11,1.05 -43.24,-57.81 -1.44,-57.81zm239.08 80.29c-42.12,-72.55 -120.32,-121.55 -210.05,-122.38 -21.87,0.53 -42.96,-11.38 -50.37,-31.02 -31.02,3.81 -61.82,13.62 -90.7,29.94 -24.94,15.21 -59.88,10.06 -71.82,-18.84 -72.55,42.12 -121.56,120.32 -122.38,210.05 0.53,21.87 -11.38,42.95 -31.02,50.35 3.81,31.04 13.62,61.84 29.94,90.72 15.21,24.94 10.06,59.88 -18.84,71.82 42.12,72.55 120.32,121.56 210.05,122.38 21.87,-0.53 42.95,11.38 50.35,31.02 31.04,-3.81 61.84,-13.62 90.72,-29.94 24.94,-15.2 59.88,-10.06 71.82,18.84 72.55,-42.12 121.56,-120.32 122.38,-210.05 -0.53,-21.87 11.38,-42.95 31.02,-50.35 -3.81,-31.04 -13.62,-61.84 -29.94,-90.72 -15.21,-24.94 -10.06,-59.88 18.84,-71.82z"></path></g></svg>