<svg xmlns="http://www.w3.org/2000/svg" viewBox="0 0 512 512" x="0px" y="0px"><title>classes Alchemist</title><rect x="222.03" y="171.5" width="73.45" height="27.75" rx="7.08"></rect><path d="M284.83,258.85V221a6.83,6.83,0,0,0-6.83-6.83H239.51a6.83,6.83,0,0,0-6.83,6.83v37.88a124.41,124.41,0,0,0-35.26,229.88,35.22,35.22,0,0,0,17.39,4.5H302.7a35.23,35.23,0,0,0,17.41-4.51,124.41,124.41,0,0,0-35.28-229.86ZM288.26,299a9.92,9.92,0,1,1-9.91,9.92A9.92,9.92,0,0,1,288.26,299Zm-79,19.66a14.19,14.19,0,1,1-14.18,14.18A14.18,14.18,0,0,1,209.3,318.64Zm136.23,61.61A86.77,86.77,0,0,1,258.75,467c-53.71,0-79.93-43.1-84.81-69.88a15.39,15.39,0,0,1,17-17.89c5.61.64,11.75,1.13,18,1.27a74,74,0,0,0,40.28-11.28c17.42-10.71,52-24.74,90-.45a13.62,13.62,0,0,1,6.35,11.39Z"></path><circle cx="244.85" cy="426.82" r="16.41"></circle><circle cx="293.04" cy="394.39" r="9.91"></circle><path d="M105.23,40.24c.07.41.16.83.26,1.26a21.3,21.3,0,0,0,10.2,13.23,28.47,28.47,0,0,0,14.93,3.93,12.67,12.67,0,0,0,12.1-14.78c-1.1-6.35-4.1-14-11.7-19.24C119.17,16.39,102.73,26,105.23,40.24Z"></path><path d="M201.49,153.37c-8.44-9.12-19.17-14-27.16-16.45a43.11,43.11,0,0,0-17.41-1.75,104.66,104.66,0,0,1-10.86.59c-32.39,0-46.45-16.77-51.64-25.71A10.65,10.65,0,0,1,97.21,96a10.39,10.39,0,0,1,15,3.4c3.13,5.57,10.09,13.06,25.16,15.12a8.16,8.16,0,0,0,9.17-6.56c0-.07,0-.14,0-.22a32.16,32.16,0,0,0-13.19-32.54,54.59,54.59,0,0,0-22.7-8.75C66.36,59,45.56,93.69,45.56,93.69c-11.79,18-12.59,35-9,49.2,9.22,36.32,48.06,56.4,83.66,44.7a146.2,146.2,0,0,0,34.87-17.18c14.45-9.63,31.32-10.06,42.23-8.95A4.87,4.87,0,0,0,201.49,153.37Z"></path><path d="M312.76,139.31c7.72-9.74,18.05-15.37,25.83-18.48a43,43,0,0,1,17.22-3.08,103.71,103.71,0,0,0,10.87-.24c32.3-2.48,45-20.28,49.53-29.59a10.67,10.67,0,0,0-3.86-13.83,10.4,10.4,0,0,0-14.74,4.55c-2.69,5.79-9.06,13.79-23.92,17A8.16,8.16,0,0,1,364,89.8l-.06-.21a32.16,32.16,0,0,1,10.66-33.46,54.84,54.84,0,0,1,22-10.47c43.68-10.76,67.07,22.21,67.07,22.21,13.13,17.07,15.23,33.94,12.72,48.37-6.41,36.92-43.6,59.91-80,51a146.45,146.45,0,0,1-36.08-14.46c-15.14-8.5-32-7.63-42.78-5.69A4.87,4.87,0,0,1,312.76,139.31Z"></path><path d="M317.61,19.64A64.86,64.86,0,0,0,301.53,19a89.4,89.4,0,0,0-38.12,10.18c-1.31.71-2.64,1.36-4,2a3.67,3.67,0,0,0,.72,7,64,64,0,0,0,13,1.33,10.61,10.61,0,0,1,10.61,10,10.39,10.39,0,0,1-10.38,10.82c-29.39,0-48.16-13.88-58.24-24.54a27.33,27.33,0,0,0-31.22-6.28c-.48.23-1,.46-1.44.72-12.81,6.81-19.15,21.42-16.9,35.75,1.85,11.81,9,26.29,30.49,35.62a82,82,0,0,1,27.31,18.71,110.49,110.49,0,0,1,20.49,30.62,4.17,4.17,0,0,0,7.82-.51c1.65-5.72,3.31-10.81,6.23-15.37a5.44,5.44,0,0,1,9.46.62l.14.28a5,5,0,0,0,9.05-.05c4.49-9.82,14.56-23.66,36.9-32,23.36-8.69,30.6-29.38,32.73-43.7C349,41.09,336.58,23,317.61,19.64Z"></path></svg>