<svg xmlns="http://www.w3.org/2000/svg" viewBox="0 0 512 512" x="0px" y="0px"><title>item crystal</title><path d="M258.16,111.52A146.09,146.09,0,1,0,404.25,257.61,146.08,146.08,0,0,0,258.16,111.52ZM191,231.69a120.46,120.46,0,0,0-21.91,45c-2.4,9.53-16.22,8.85-17.42-.9a113,113,0,0,1-.82-13.59,110.65,110.65,0,0,1,11.29-48.85A17.18,17.18,0,1,1,191,231.69Zm37.5-44.94c-.82.46-1.62.93-2.4,1.4a17.07,17.07,0,0,1-21.13-2.8l-.45-.47a17.12,17.12,0,0,1,4.86-27.24c1.14-.56,2.29-1.1,3.45-1.61a17.08,17.08,0,0,1,22.9,9.27c.07.17.13.34.2.5A17,17,0,0,1,228.51,186.75Z"></path><path d="M121,87.55c-11.81-8.27-29.76-25-39.48-54.74a5.7,5.7,0,0,0-11,0C60.8,62.53,42.86,79.28,31,87.55a6.55,6.55,0,0,0,.73,11c20.68,10.5,32.66,34.81,38.82,52a5.68,5.68,0,0,0,10.87,0c6.16-17.18,18.14-41.49,38.82-52A6.55,6.55,0,0,0,121,87.55Z"></path><path d="M481,416.42c-11.82-8.28-29.76-25-39.48-54.75a5.7,5.7,0,0,0-11,0c-9.72,29.72-27.67,46.47-39.48,54.75a6.55,6.55,0,0,0,.73,11c20.68,10.49,32.66,34.8,38.82,52a5.68,5.68,0,0,0,10.87,0c6.16-17.18,18.14-41.49,38.82-52A6.55,6.55,0,0,0,481,416.42Z"></path></svg>