<svg xmlns="http://www.w3.org/2000/svg" viewBox="0 0 512 512" x="0px" y="0px"><title>skill beast wolf</title><path d="M437.93,242.22l-14.88,5.56c-3.43-7.27-9.24-17.88-16.92-25.51a4.36,4.36,0,0,0-7.32,3.9,121.08,121.08,0,0,1,1.8,30l-25.68,9.59a9.91,9.91,0,0,1-12.62-13.08c13-31.42,32.58-67.09,49.63-95.93a50.39,50.39,0,0,1,12.32,16.61,4.53,4.53,0,0,0,8.5-.93c2.3-9.73,3.53-25.22-1.91-46.74,2.93-4.68,5.56-8.83,7.8-12.31a40.68,40.68,0,0,0,6.13-27L439.55,44a12,12,0,0,0-18.13-8.85L288.06,115a48.47,48.47,0,0,1-24.93,6.9H203.35a35.24,35.24,0,0,0-19.55,5.92L132.62,162a64.76,64.76,0,0,1-29.25,10.53l-24.75,2.56a17.35,17.35,0,0,0-15.55,17.26V478.59H320.73a22.35,22.35,0,0,0,21.87-17.88,190.63,190.63,0,0,0,3.88-28.11,4.78,4.78,0,0,1,8.14-3.14l8,8a4.76,4.76,0,0,0,8.13-3.38c0-8.11.25-15.82.61-23A153.77,153.77,0,0,1,411,315.61c8.61-9.5,16.64-17.45,22.51-23a40.27,40.27,0,0,0,11.92-22.26l3.34-19.06A8.15,8.15,0,0,0,437.93,242.22ZM247.38,201c-4.78,8.64-14.19,23.78-27.51,36.74a24.51,24.51,0,0,1-14.54,6.79c-8.17.86-21.06,1.75-32,.44a5,5,0,0,1-3.48-7.72l16.36-23.76a18.81,18.81,0,0,1,11.09-7.62c9.25-2.22,26.63-6.3,46-10.31A3.72,3.72,0,0,1,247.38,201Z"></path></svg>