<svg xmlns="http://www.w3.org/2000/svg" viewBox="0 0 512 512" x="0px" y="0px"><title>skill magic lightning</title><path d="M398.58,44.32l-30.4,51.36a18.4,18.4,0,0,0-1.52,15.52C371.19,124,375.9,150,347,164.35a54.43,54.43,0,0,1-24.23,5.48H219.6a10.48,10.48,0,0,0-10.48,10.22c-.34,13.79-3.38,39-19.26,60,0,0-12.83,22.8-47.08,17.46a62.57,62.57,0,0,1-12-3.26,100.81,100.81,0,0,0-26.72-6C74.37,246,50,272.48,56,301.62a38,38,0,0,0,9.16,18.27,26.94,26.94,0,0,1,7.46,18,27.67,27.67,0,0,1-.42,5A2.41,2.41,0,0,0,76,345.27,55,55,0,0,0,81,341a26.74,26.74,0,0,0,3-35c-4.4-6-8-16.06,2.62-27.73,9.11-10,23.69-9.07,35.48-6a82.26,82.26,0,0,1,26,12.16c3.24,2.27,7.08,5,10.21,7.38C174.23,304,163.09,331,143.1,332a22,22,0,0,1-6.74-.64,6,6,0,0,0-6.93,3.61c-3.66,10.13-15.87,28-40.4,52.19L31.16,455.07a.89.89,0,0,0,1.19,1.3l77.46-55.12a9.73,9.73,0,0,1,14.26,3.35,60.8,60.8,0,0,1,6.61,24.23A12.28,12.28,0,0,1,118,442,46.09,46.09,0,0,1,101,438,8.84,8.84,0,0,0,91,440L58.91,473.3a1.18,1.18,0,0,0,1.42,1.86l34.46-19a18.31,18.31,0,0,1,13.35-1.74,106.75,106.75,0,0,0,22.54,3.35,20.89,20.89,0,0,0,21.61-21.38,202,202,0,0,0-2.46-28.58,23.56,23.56,0,0,1,20.38-27.14,122.9,122.9,0,0,1,24-.9,6,6,0,0,0,6.51-5.74c.73-20.27,5.91-82.56,41.66-116a53.42,53.42,0,0,1,37.54-14.48c12.07.25,27.24,3.43,39.13,15.29a9.59,9.59,0,0,0,9.89,2.18c22-7.58,99.07-32,146.81-19.26a4.26,4.26,0,0,0,5.32-4.14v-45.8a4.27,4.27,0,0,0-7-3.27c-10.36,8.82-32.87,22.58-71.83,21.75a9.58,9.58,0,0,1-8.49-13.43,162.33,162.33,0,0,1,78.48-80.94,15.6,15.6,0,0,0,8.87-14V52.24a15.56,15.56,0,0,0-15.56-15.56H412A15.54,15.54,0,0,0,398.58,44.32Z"></path><circle cx="54.23" cy="375.62" r="10.91"></circle><circle cx="245.22" cy="386.53" r="12.32"></circle><path d="M240.54,344.2c7.43-9.52,15.92-20.19,22.84-28.36a23.45,23.45,0,0,1,16.55-8.27c3.13-.18,6.72-.31,10.31-.29a23.6,23.6,0,0,1,18.53,9.19c9.89,12.8,32.23,35,60.71,21C405.06,320.11,442,290,472.83,298.68a11.43,11.43,0,0,1,8.24,11v48.06a1.9,1.9,0,0,1-3.27,1.33l-.28-.28a56.8,56.8,0,0,0-67.17-10c-5.78,3.08-12.76,7.1-20.41,12.11a60.07,60.07,0,0,1-32.94,10h0a59.56,59.56,0,0,1-40-15.43,243.12,243.12,0,0,1-22.13-22.88,19.33,19.33,0,0,0-14.78-6.84h0A19.39,19.39,0,0,0,267.94,330c-5.37,4.3-14.1,11.33-22.93,18.59A3.14,3.14,0,0,1,240.54,344.2Z"></path><path d="M325.9,39.1A114.41,114.41,0,0,1,310.75,64a47.39,47.39,0,0,1-49.09,16,94,94,0,0,1-31.74-15.27,7,7,0,0,0-6.81-.87c-9.94,4.09-37.58,16-58.21,30a9.39,9.39,0,0,0-4.07,8.55c.85,10.44,2.33,33.78.2,48.77a5.89,5.89,0,0,0,2.66,5.8A54.37,54.37,0,0,1,179,171.47a2,2,0,0,0,3.68-.94l2-17.17a16.74,16.74,0,0,0-2.37-10.55c-3.45-5.73-7.64-16.75-.31-29.86,4.39-7.86,12.43-12.42,20.44-15.08a61.68,61.68,0,0,1,35.48-.68c12.44,3.36,31.68,9.41,44.24,17.42a16.06,16.06,0,0,0,15.21,1.08c15-6.71,44.41-24,56.87-60.16a47.22,47.22,0,0,1,6.37-12.4,4,4,0,0,0-3.26-6.45H329.6A4.05,4.05,0,0,0,325.9,39.1Z"></path></svg>