<svg xmlns="http://www.w3.org/2000/svg" viewBox="0 0 512 512" x="0px" y="0px"><title>abnormal Root</title><path d="M233.77,425.18a7.37,7.37,0,0,0,5.61-2.57l8.36-9.64A25.61,25.61,0,0,0,265.63,411a27.77,27.77,0,0,0,12.8-14c6.28-14.54,6.1-33.69,5-46.54a5.76,5.76,0,0,0-9.88-3.52c-11.25,11.63-28.27,22.3-28.27,22.3-12.54,7.67-13.73,20-12.79,28.44a16.45,16.45,0,0,0,2.6,7.16l-6.89,8a7.43,7.43,0,0,0,5.6,12.29Z"></path><path d="M485.9,145.52a27.76,27.76,0,0,0,1.65-18.87c-3.87-15.35-15.68-30.43-24.4-39.94a5.77,5.77,0,0,0-10,3.24c-1.85,16.07-8.83,34.9-8.83,34.9-5.28,13.72,1.31,24.26,7.17,30.35a16.54,16.54,0,0,0,6.43,4.09l-.62,10.52a7.42,7.42,0,0,0,7,7.84h.45a7.42,7.42,0,0,0,7.4-7l.75-12.74A25.6,25.6,0,0,0,485.9,145.52Z"></path><path d="M197.86,19.55C160.47,31.27,113.09,59.08,89.19,124.72l-27.63.66a6.84,6.84,0,0,0-4.47,11.85l22.77,21c-.28,1.38-.58,2.73-.84,4.14a271.6,271.6,0,0,0-1,90.93c2.92,18.89,7.53,43.8,14.28,67.5a265.11,265.11,0,0,1,9.18,48.61l-22.93,4.77a4,4,0,0,0-1.32,7.23s34.67,20.6,49.33,36.29a10.62,10.62,0,0,1,.43,14.31,10.39,10.39,0,0,1-14.69.72q-3.3-3-6.52-5.74a3.68,3.68,0,0,0-6,2.28c-2,13.44-5.25,26.86-10.39,38.95a17.86,17.86,0,0,0,16.42,24.88h70.8a17.84,17.84,0,0,0,17.79-16.22c2.44-27.11,3-87.44-23.05-175.29L194.9,280a4,4,0,0,0-2.57-6.88l-28.86-.82c-5.42-25-11.73-67.95-5.29-113.86A4.42,4.42,0,0,0,151.7,154a65.54,65.54,0,0,0-7.88,4.91,10.41,10.41,0,0,1-14.57-1.78c-3.53-4.51-3.1-11.47,1.72-14.55,22.37-14.31,51.62-18.31,51.62-18.31a3.59,3.59,0,0,0,1.61-6.46l-13.32-9.69A191,191,0,0,1,212,42.58C222,32.19,211.64,15.23,197.86,19.55Z"></path><path d="M474.57,272.9a123,123,0,0,0-13.21-61.17,116.75,116.75,0,0,0-39.52-44.06,120.86,120.86,0,0,0-47.3-18.48,3.42,3.42,0,0,0-4,3.9,10.4,10.4,0,0,1-10.23,12.3,10.39,10.39,0,0,1-8.48-4.41l-9.16-41.9a3.93,3.93,0,0,0-7.17-1.23l-22.66,35.77a108.16,108.16,0,0,0-20.81,9,72.92,72.92,0,0,0-36.58,70.12,77.12,77.12,0,0,0,2.27,12.78l-19.42,19.36a3.92,3.92,0,0,0,2.83,6.7l28.63-.4a89.92,89.92,0,0,0,10.65,12.57,59.3,59.3,0,0,0,19.81,13c17.72,6.9,31.74,2.28,41.82-4.94a6.29,6.29,0,0,0-4.56-11.35l-.85.12C316,283.13,300,263,306,243.08a45.7,45.7,0,0,1,5.58-11.75,30.24,30.24,0,0,1,15.88-12C370.88,205,395,245.18,395,245.18a66.89,66.89,0,0,1,8.65,28.31l-21.07,9a3.24,3.24,0,0,0,.12,6l1,.4A168.8,168.8,0,0,1,417.56,307h0a10.66,10.66,0,0,1,2.81,14.93,10.39,10.39,0,0,1-14.26,2.41l-7-4.78A4.91,4.91,0,0,0,392,321.3a126.74,126.74,0,0,1-15.42,22.5c-1.31,1.51-2.61,3-3.87,4.57-23.46,29.09-34.73,60.65-40,86.86L305,441.89a3.23,3.23,0,0,0-.89,5.93l24.85,15.06c-1.36,18.39.07,30.26.07,30.26h96.71a112.47,112.47,0,0,1-7.13-43.67,131.3,131.3,0,0,1,7.19-39.3l33.13,1.71a3.24,3.24,0,0,0,2.53-5.44L439.11,382c1.33-2.19,2.71-4.35,4.15-6.46C467.83,339.56,473.61,298.24,474.57,272.9Z"></path><path d="M32.05,319.14a22.21,22.21,0,0,0,14.69,5.36l5,9.88a6.45,6.45,0,0,0,11.49-5.85l-4.15-8.16a14.3,14.3,0,0,0,3.68-5.5c2.55-6.88,4.13-17.57-4.85-26.65,0,0-12.12-12.55-19.18-24.71a5,5,0,0,0-9.07.9c-3.63,10.61-7.78,26.72-5.52,40.29A24.09,24.09,0,0,0,32.05,319.14Z"></path></svg>