<svg xmlns="http://www.w3.org/2000/svg" viewBox="0 0 512 512" x="0px" y="0px"><title>game ui item bag</title><path d="M280.15,189.08S369.92,181.34,404,331.46c0,0,20.12,85.13-5.42,121.5,0,0-12.38,29.33-74.29,29.33H181.89c-24.53,0-48.19-10.26-64.1-28.93-11.24-13.21-19.87-31.84-18.71-57.67,2.32-51.65,36-82,52.67-93.91a157.16,157.16,0,0,0,24.81-21.91c9.77-10.74,21.41-25,26.21-36.62C217.47,207.65,256.38,189.08,280.15,189.08Z"></path><path d="M251.31,141.17a49.13,49.13,0,0,0-.82,13.58,13.14,13.14,0,0,0,13.75,12.14c12.72-.59,33.77-.25,51.93,6.31A13.26,13.26,0,0,0,333,166l.17-.39a13.07,13.07,0,0,0-2.32-13.87c-7.86-8.62-26.52-21.71-67-20.85A13.08,13.08,0,0,0,251.31,141.17Z"></path><path d="M219.08,57.88A78.34,78.34,0,0,1,262.2,45.07,8.89,8.89,0,0,1,271.1,54v49.16a8.9,8.9,0,0,1-7.06,8.7l-8.25,1.73a8.78,8.78,0,0,1-5.75-.72c-7.32-3.64-26.26-15.62-34.61-45.07A8.94,8.94,0,0,1,219.08,57.88Z"></path><path d="M294.94,46.74l-4.88,54.41a10,10,0,0,0,7.87,10.67,85.65,85.65,0,0,1,33.15,15.34,10,10,0,0,0,12.83-.84c9.53-9.09,29.68-25.68,56.72-33.75a17.36,17.36,0,0,0,8.14-28c-14.76-17-43.33-36.67-96-34.71A18.58,18.58,0,0,0,294.94,46.74Z"></path><path d="M177.09,109a175.54,175.54,0,0,1,49,25,11.53,11.53,0,0,1,4.58,10.4,90.41,90.41,0,0,0-.1,16.41,11.54,11.54,0,0,1-5.24,10.65,125.75,125.75,0,0,0-25.16,21.48,10.88,10.88,0,0,1-16.42-.1h0a10.83,10.83,0,0,1-.53-13.49,49.79,49.79,0,0,1,15-13.48,8.62,8.62,0,0,0,4.23-6.64h0a8.64,8.64,0,0,0-4.25-8.3,103.93,103.93,0,0,0-29.11-11.51,15.41,15.41,0,0,1-12.22-15.93c0-.35,0-.71.08-1.08A15.38,15.38,0,0,1,177.09,109Z"></path></svg>