<svg xmlns="http://www.w3.org/2000/svg" viewBox="0 0 512 512" x="0px" y="0px"><title>effect Magic circle</title><path d="M71.79,109.54c1.85,15.3,24.19,14.7,25.29-.67a95.89,95.89,0,0,0-.24-16.14c0-.44-.09-.87-.13-1.3-1.63-15.43-24.26-15-25.31.45-.21,3-.29,6.14-.2,9.4C71.27,104.21,71.48,107,71.79,109.54Z"></path><path d="M73,425.21a102.44,102.44,0,0,0,37.3,6.73H220.48a9.86,9.86,0,0,0,7.89-15.78h0a9.76,9.76,0,0,0-7.17-3.92c-14.88-1-63.51-7.54-79.82-49a7.09,7.09,0,0,0-12.22-1.85,87.46,87.46,0,0,1-9.26,10.44A13.62,13.62,0,0,1,100,370.4c-4.24-5.25-7.66-12.87-4.44-22.4a27.9,27.9,0,0,1,15.27-16.32c17-7.58,62.42-23.52,145.17-23.52s128.22,15.94,145.17,23.52A27.94,27.94,0,0,1,416.45,348c3.21,9.53-.21,17.15-4.45,22.4a13.62,13.62,0,0,1-19.9,1.43,87.46,87.46,0,0,1-9.26-10.44,7.09,7.09,0,0,0-12.22,1.85c-16.31,41.46-64.94,48-79.82,49a9.76,9.76,0,0,0-7.17,3.92h0a9.86,9.86,0,0,0,7.89,15.78H401.66a102.44,102.44,0,0,0,37.3-6.73c33.54-13,54.77-46.36,53.54-82.32-.95-27.59-2.85-58.13-4.77-84.59-.55-7.71-11.46-8.63-13.35-1.14-1.23,4.85-2.49,9-3.69,12.54-4.38,12.81-22.68,12.43-26.43-.58l-.06-.19a13.44,13.44,0,0,1-.48-3.46,488.21,488.21,0,0,0-7-77.4c-2.44-14.13-22.93-13.58-24.53.67-9.6,85.41-32.52,88.33-32.52,88.33-.61.26-1.21.52-1.81.75-19.37,7.68-40.66-5.79-42.77-26.52L332.66,227c-.93-9.14-13.7-10.31-16.37-1.52C297.12,288.71,256,285.3,256,285.3s-41.12,3.41-60.29-59.78c-2.67-8.79-15.44-7.62-16.37,1.52l-2.47,24.26c-2.11,20.73-23.4,34.2-42.77,26.52-.6-.23-1.2-.49-1.81-.75,0,0-22.92-2.92-32.51-88.33-1.61-14.25-22.1-14.8-24.54-.67a488.21,488.21,0,0,0-7,77.4,13.44,13.44,0,0,1-.48,3.46l-.06.19c-3.75,13-22,13.39-26.43.58-1.2-3.53-2.46-7.69-3.69-12.54-1.89-7.49-12.8-6.57-13.35,1.14-1.92,26.46-3.82,57-4.77,84.59C18.28,378.85,39.5,412.21,73,425.21Z"></path><path d="M440.21,109.54c.31-2.58.52-5.33.59-8.26.09-3.26,0-6.39-.2-9.4-1.05-15.48-23.68-15.88-25.31-.45,0,.43-.09.86-.13,1.3a95.89,95.89,0,0,0-.24,16.14C416,124.24,438.36,124.84,440.21,109.54Z"></path><path d="M307.64,362.83c-7.18,3.65-16.75,6.18-24.78,7.83a2.13,2.13,0,0,0,.31,4.22,207.51,207.51,0,0,0,38.41-1.69,50.91,50.91,0,0,0,8.32-1.78c16.48-5.14,16.1-28.44-.53-33.07-32.28-9-73.37-8.63-73.37-8.63s-41.09-.36-73.37,8.63c-16.63,4.63-17,27.93-.53,33.07a50.91,50.91,0,0,0,8.32,1.78,207.51,207.51,0,0,0,38.41,1.69,2.13,2.13,0,0,0,.31-4.22c-8-1.65-17.6-4.18-24.78-7.83a5.42,5.42,0,0,1-2.93-4.44h0a5.46,5.46,0,0,1,4.72-5.84c10.46-1.38,34.57-2.25,49.85-2.25s39.39.87,49.85,2.25a5.47,5.47,0,0,1,1.79,10.28Z"></path></svg>