<svg xmlns="http://www.w3.org/2000/svg" viewBox="0 0 512 512" x="0px" y="0px"><title>weapon staff</title><path d="M477.29,120.2c-28.71-24.13-71.91-67.75-90.09-86.36a13.09,13.09,0,0,0-17.74-.94c-38.66,32-90.11,63-108.34,73.7a13.06,13.06,0,0,0-6.44,11.61c1.45,58.52-16.93,120.92-24.69,144.49a21.89,21.89,0,0,1-12.68,13.49l-60.6,24.27a36.6,36.6,0,0,0-21.51,23.72L119.85,376.9A25.6,25.6,0,0,1,112,389.09c-12.79,11.07-51.5,58-79.93,82.61-5.32,4.6.43,13,6.64,9.66,35.08-18.64,80.8-56.39,99.55-65.15a25.25,25.25,0,0,0,13.79-16.4c4.66-17.66,11.81-34.38,16.82-45a36.38,36.38,0,0,1,17.82-17.61c19.21-8.78,46.23-18,62.16-23.27a21.84,21.84,0,0,0,14.88-17.85,639.9,639.9,0,0,1,38.06-146.84A101.68,101.68,0,0,1,327,112c22.68-21,44.92-21.67,59.9-18.38a50.88,50.88,0,0,1,32.24,22.5c18.95,30.31-12.32,55.62-12.32,55.62-15.91,12.5-40.48,8.42-51.67,5.63A4.94,4.94,0,0,0,349,182l-.53,13.7a4.94,4.94,0,0,0,1.91,4.09l32.84,25.52a14.85,14.85,0,0,0,20.19-1.84L478.67,139A13.16,13.16,0,0,0,477.29,120.2Z"></path><path d="M373.5,160.45a23.09,23.09,0,1,0-22.18-24A23.09,23.09,0,0,0,373.5,160.45Z"></path></svg>