<svg xmlns="http://www.w3.org/2000/svg" viewBox="0 0 512 512" x="0px" y="0px"><title>skill magic soul strike</title><path d="M317.29,181.35c-34.55,25.26-57.78,51.31-92.26,74.9C189.54,280.54,105.78,310,105.78,310c-32.95,11.63-60.1,42.65-60.1,42.65S6.48,398.12,35,443.8c12.33,19.73,33,28.66,49.6,32.69a97.93,97.93,0,0,0,54-2c50.19-16.74,60.21-65.63,60.21-65.63,9.7-42.65,53.9-116.32,53.9-116.32C272.47,259.2,302.47,221,327,191.66,332.39,185.2,324.08,176.38,317.29,181.35ZM157.43,356.72c-5.66,14.68-18.65,46.49-32.78,67.88a25.84,25.84,0,0,1-16.39,11.14c-.46.09-.94.18-1.42.25-22,3.46-38.15-21-26.29-39.87a49.14,49.14,0,0,1,3-4.25c13.72-17.49,52.14-33.7,68.89-40.15A3.86,3.86,0,0,1,157.43,356.72Z"></path><path d="M323.18,261.71a6.89,6.89,0,0,0,3.66,0,5.09,5.09,0,0,0,2.34-1.23,7,7,0,0,0,1.57-9.42,7.2,7.2,0,0,0-6.14-3.52,7.43,7.43,0,0,0-5,2.08c-3.1,3.1-2.68,9.07,1.44,11.18A7.35,7.35,0,0,0,323.18,261.71Z"></path><path d="M484.47,238.11q-.6-2.7-1.32-5.37l0-.25a103.07,103.07,0,0,0-2.31-11.89,142.44,142.44,0,0,0-9.22-26.19A202,202,0,0,0,453,162c-6.09-8.69-12.35-18.31-20.29-25.42-5.11-4.58-13.3,1.55-9.43,7.27,13.34,19.71,20.13,33.12,22.81,44.09a4.38,4.38,0,0,1-7.9,3.51c-9.65-14.58-24-36.11-26.58-39.26-14.88-18.13-30.2-38.05-47.86-53.51-11.07-9.68-31.5-23.62-44-31.91a3.25,3.25,0,0,1,2.11-5.93,32.37,32.37,0,0,1,5.77.87c29.61,9.71,41,22.51,41.51,22.8,9.79,5.45,16.39-.2,9.64-10.94C372.62,63.81,347.11,49.94,347,49.9a83.87,83.87,0,0,0-12.78-5.38c-9.94-3.38-20.77-4.79-31.23-5.24-10-.42-19.43-.21-29.38-.55a135.09,135.09,0,0,1-24.84-3.42c-.07,0-19.78-3.85-28.15-2.31C206.81,35.54,195,44.39,186.54,55.29c-8.92,11.43-12.84,24.25-18.39,37.36-2.08,4.92-8,17-14.61,12.52s-10.43-19.51-17.77-15.59c-4.83,2.57-7.29,13.71,6.48,44.69,6.43,14.46,16.72,28.31,26,41.15a266.2,266.2,0,0,0,25.12,30c9.4,9.67,20.61,22.41,35.31,21.65h.09a5,5,0,0,0,3.23-8.27c-6.48-7.41-22.2-28.76-25.88-64.82-1-9.61,1.51-18.64,5.29-27.52,4.61-10.84,14.46-12.57,8.77,3.89-3.23,9.33-2.28,19.46-.5,29.18a64.87,64.87,0,0,0,9.61,24.11c4.33,6.47,10.47,14.46,18.32,16.48,3.82,1,9.69-3.89.2-16.11-3.42-4.4-5.1-9.86-6.76-15.18-2.72-8.68-5.67-21.22.3-29.3,3.06-4.15,8.5-6.39,14.3-7.55a4.58,4.58,0,0,1,4,1.12l.17.16a4.46,4.46,0,0,1,1.4,3.23,40.6,40.6,0,0,0,8,23.48,59.64,59.64,0,0,0,15.07,14.7c1.14.73,9.12,5.58,10.06,1.67.82-3.38-1.4-5.71-3.41-8.28-3.48-4.47-7.26-8.7-10.3-13.49A33.33,33.33,0,0,1,275,134.76c.53-1.61,1.54-1.73,3.81-2.42.42-.12.85-.22,1.27-.33a39.11,39.11,0,0,1,5.9,1.83c4.2,1.68,24.95,14.4,31.18,19.49,9.93,8.1,19.55,16.59,28.7,25.56,7.41,7.28,14.66,14.78,21.56,22.56,4.69,5.3,11.57,11.16,11.43,18.46-.1,5.59-8.12,11.42-16.49,9-9.26-2.65-10.73-6.23-18.32-7.63a3.93,3.93,0,0,0-3.79,6.5c6.48,7.38,12.51,11.67,21.92,14.49,6.67,2,16.05,1.79,21.91-2.2a2.12,2.12,0,0,1,3.05.63A45.36,45.36,0,0,1,390,246.2a29.2,29.2,0,0,1,1.21,3.67c0,.17,3.37,12.09-9.87,18.49-7.95,3.85-17.05-.29-24.09-4.66-6.82-4.23-13,5-8.2,10.63,12.4,14.29,34.18,20.17,50.34,8.47a31.48,31.48,0,0,0,5.87-5.51,2.1,2.1,0,0,1,3.68,1.65,28.45,28.45,0,0,1-.89,4.35c-3.46,12-17,23.32-28.24,23.2a108.1,108.1,0,0,1-55.11-16c-8.6-5.12-18.35-14.32-26.67-19.88-6.08-4.07-11.87,4.66-7.46,9.66.27.31,16.21,18,24,25.83,7,7,13.88,14.18,21.71,20.3,15.85,12.39,35,16.6,54.84,17.2,19.14.58,38.71-2.66,55.88-11.4,9.18-4.68,18.2-11.61,23.87-20.38l.11-.16A70,70,0,0,0,486.26,278C488.35,264.7,487.4,251.21,484.47,238.11Z"></path><path d="M404.85,88.18h0a14.6,14.6,0,0,0,3.64,14.15h0a14.59,14.59,0,0,0,19.32,1.33h0a86,86,0,0,0,18.93-20.22L465,56.2c5.22-7.78-4.24-17-11.87-11.57L417.85,69.7A33.86,33.86,0,0,0,404.85,88.18Z"></path></svg>