<svg xmlns="http://www.w3.org/2000/svg" viewBox="0 0 512 512" x="0px" y="0px"><title>effect Circle strike</title><circle cx="225.1" cy="423.27" r="12.26"></circle><path d="M465.62,194.16a14.55,14.55,0,0,1-.16-17.07l7.05-10a8.42,8.42,0,0,0,1.28-7.34,8.06,8.06,0,0,0-13.14-3.5l-16.28,15-50.91,50.08a8.26,8.26,0,0,1-9.11,1.8,8.11,8.11,0,0,1-3.74-11.53l93.3-172.08c5-9.74-8-18.63-15.22-10.34l-79.54,91.73a18.49,18.49,0,0,1-19.31,5.55,229.88,229.88,0,0,0-31.34-7.33s-78.92-13.15-163,25.49c-6.49-17.87-13.74-37.91-18.68-51.89a17.06,17.06,0,0,0-14.07-11.44c-10.05-1.07-18.27,7-18.33,17.15-.16,27.18,20.18,92.2,22.82,99.67a10,10,0,0,1-5.73,12.58,10.2,10.2,0,0,1-12.83-5.33,231.85,231.85,0,0,1-10.16-25.8l-7-22.11a7.68,7.68,0,0,0-9-5.3,7.48,7.48,0,0,0-5.64,8.11c1.17,11.3-1.33,24.09-5.08,36a64.08,64.08,0,0,1-11,20.54C13.94,288,21.55,369.88,21.55,369.88c5.78,73.38,54.63,106.92,86.05,116.06a4.49,4.49,0,0,0,4-7.86c-91.06-71-31.72-161.86-31.72-161.86a190.18,190.18,0,0,1,67.87-65.78,11.6,11.6,0,0,1,16.57,5.75c14,35.12,27.81,72.5,37,100.55,1.57,4.77,8.65,3.44,8.41-1.58-1.43-30-22.47-144.25-26.14-159.79a11.3,11.3,0,0,1,7.83-13.59,11,11,0,0,1,13.5,8l6.64,26.69a10.57,10.57,0,0,0,11.86,7.87A174.34,174.34,0,0,1,251.84,222c1.5.09,3,.21,4.44.32,2.59.35,23.66,4,24.23,31.15a3,3,0,0,0,5.36,1.67l44.4-63.56a10,10,0,0,1,13.48-2.93h0A10,10,0,0,1,347,202.74l-61.36,93c-4.24,6.36,4.11,13.53,9.75,8.37l38.82-35.51a15.21,15.21,0,0,1,22.51,2.17c24,32.66,22.19,69.57,22.19,69.57-.58,60.51-34.48,99.08-66.12,121.93-4.54,3.28-.45,10.31,4.65,8,25.42-11.29,56.6-28,92.13-52.21,40.35-27.51,62.52-72.42,74.23-106.74s8.87-72-9.08-103.35A135.51,135.51,0,0,0,465.62,194.16Z"></path></svg>