<svg xmlns="http://www.w3.org/2000/svg" xmlns:xlink="http://www.w3.org/1999/xlink" xml:space="preserve" version="1.1" style="shape-rendering:geometricPrecision;text-rendering:geometricPrecision;image-rendering:optimizeQuality;" viewBox="0 0 846.66 846.66" x="0px" y="0px" fill-rule="evenodd" clip-rule="evenodd"><defs><style type="text/css">
   
    .fil0 {fill:black}
   
  </style></defs><g><path class="fil0" d="M698.37 400.42c0,102.14 -57.88,190.76 -142.59,234.92 22.8,13.4 45.81,20.52 76.11,23.71 -96.99,34.11 -197.47,25.53 -293.62,-11.59 6.4,22.37 16.81,41.94 33.6,63.54 -98.11,-49.5 -154.85,-123.45 -189.37,-226.55 -10.6,18.13 -17.36,37.58 -21.87,62.11 -30.65,-114.92 -4.33,-238.68 81.16,-328.58 -25.59,-2.72 -49.1,0.18 -77.46,9.33 100.23,-94.25 149.3,-91.64 269.28,-91.64 74.54,0.91 86.35,155.3 0,157.63 -59.15,0 -107.11,47.96 -107.11,107.12 0,59.16 47.96,107.11 107.11,107.11 59.16,0 83.49,-17.05 100.15,-69.53 8.49,0 -2.16,46.2 -21.57,75.18 36.73,-15.82 71.22,-118.15 68.87,-151.57 15.91,2.45 17.82,50.32 9.99,66.69 29.37,0 17.95,-183.1 3.65,-183.12 84.99,7.22 88.08,208.58 22.44,269.24 37.43,-11.53 81.12,-114 81.23,-114z"></path></g></svg>