<svg xmlns="http://www.w3.org/2000/svg" viewBox="0 0 512 512" x="0px" y="0px"><title>skill knife heart stab</title><path d="M35.19,82,50.88,93.79a5.57,5.57,0,0,0,7.8-1.1L91.12,49.63A5.57,5.57,0,0,0,90,41.82L74.34,30a16.53,16.53,0,0,0-23.15,3.25L31.94,58.81A16.54,16.54,0,0,0,35.19,82Z"></path><path d="M74.88,102.37l46.78,35.24-10.18,13.51a10.1,10.1,0,0,0,2,14.16l8.43,6.36a6.1,6.1,0,0,0,8.54-1.21l55.21-73.27a6.1,6.1,0,0,0-1.21-8.54L176,82.27a10.11,10.11,0,0,0-14.16,2L151.67,97.77,104.89,62.53a6.4,6.4,0,0,0-9,1.26L73.62,93.41A6.4,6.4,0,0,0,74.88,102.37Z"></path><path d="M306.16,202.51c-35.53-42-78.12-78.88-100.79-97.45a7.84,7.84,0,0,0-11.22,1.35l-15.84,21a4.37,4.37,0,0,0,.9,6.14c54.8,40.73,91.89,77,109.11,94.91A2.8,2.8,0,0,1,285,232.9c-21.94-11.61-67.05-37.25-121.32-78.7a4.38,4.38,0,0,0-6.15.83l-15.84,21a7.84,7.84,0,0,0,1.8,11.16c24.74,17.11,73.8,49.09,125.46,71.78a13.21,13.21,0,0,0,12.23-.82,116.64,116.64,0,0,1,22.05-10.68,8.77,8.77,0,0,0,5.87-8.93,170.14,170.14,0,0,1,.1-26.58A13,13,0,0,0,306.16,202.51Z"></path><path d="M483.32,251.85c0-.34,0-.69,0-1,1.38-48.73-38.34-88.64-87.09-87.88a179.18,179.18,0,0,0-25.1,2.2s-17.32-64.81-85.49-64.25c0,0-13.42.2-30.61,7.48a6.63,6.63,0,0,0-1.92,11,784.41,784.41,0,0,1,59.94,60.07,2.6,2.6,0,0,0,4.47-1.06c1.24-4.74,2.19-7.48,2.33-7.87a10.17,10.17,0,0,1,19.17,6.8c-.11.31-10.74,31.22-6.63,73.91a10.16,10.16,0,0,1-7.77,10.87c-.41.1-42.47,10.48-59.26,37.83a10.16,10.16,0,0,1-14.85,2.75,10.45,10.45,0,0,1-2.19-13.87A75.72,75.72,0,0,1,255.7,279a2.58,2.58,0,0,0-.89-4.05c-17.53-8-34.65-16.84-50.56-25.77a6.63,6.63,0,0,0-9.79,6.73c5.08,35.83,18.77,79.06,50.27,123.69a15.15,15.15,0,0,0,15.15,6.11c16.3-3,50.58-8.94,77.09-11a219.64,219.64,0,0,0,68.34-16.12c4.73-2,9.53-4.19,14.31-6.67A117.66,117.66,0,0,0,483.32,251.85Z"></path><path d="M269.65,439.41c.93-.94,1.89-1.89,2.9-2.83a11.74,11.74,0,0,1,19.5,6.56,105.39,105.39,0,0,0,10,30c8.67,16.45,32.47,16.18,40.78-.45A126,126,0,0,0,353,442.62a64.17,64.17,0,0,1,20.12-34.93c2.75-2.42,5.68-5.19,8.65-8.31a6,6,0,0,0-5.73-10,250.56,250.56,0,0,1-37.56,5.71c-26.12,2-61.12,8.13-74.95,10.68a36,36,0,0,1-6.47.59,35.51,35.51,0,0,1-29-15c-.08-.12-.16-.24-.25-.35a3.72,3.72,0,0,0-6.78,2.15,170.91,170.91,0,0,0,3.14,33.14C228.59,447.21,254.68,454.68,269.65,439.41Z"></path><path d="M431,436.88c0-10.7-8.67-26.36-19.36-26.36s-19.36,15.66-19.36,26.36a19.36,19.36,0,0,0,38.72,0Z"></path><path d="M352.34,64c-2.79,8.4,0,23,8.35,25.75S380,82.44,382.76,74A16,16,0,1,0,352.34,64Z"></path><path d="M108.5,281.08A150,150,0,0,1,140.63,271a6.63,6.63,0,0,0,1.82-12.33c-18.59-10.23-35-9.84-43.32-8.63a16.07,16.07,0,0,0-10.19,5.72c-.18.21-.35.43-.52.65C78,270,93,288.21,108.5,281.08Z"></path><path d="M233.16,42.52l-.42.46a12,12,0,0,0-3,8.16c.11,6.28,1.79,18.34,11.52,30.76a4.93,4.93,0,0,0,8.83-2.82,112,112,0,0,1,3.52-24.78C257,42.05,241.85,33.25,233.16,42.52Z"></path></svg>