<svg xmlns="http://www.w3.org/2000/svg" xmlns:xlink="http://www.w3.org/1999/xlink" version="1.1" x="0px" y="0px" viewBox="0 0 50 50" enable-background="new 0 0 50 50" xml:space="preserve"><g><path d="M5.7,23.5v1.1c0,1.7,1.2,3.3,2.9,3.8l4.1,1.2c-0.8-1.3-1.4-2.7-1.9-4.1C7.5,24.2,7.1,24.3,5.7,23.5z"></path><path d="M7.8,22.3l2.4,0.8c-0.2-1.2-0.3-2.5-0.1-3.7l-6.1-1.8C4.2,19.7,5.7,21.6,7.8,22.3z"></path><path d="M12.8,14c-1.1-0.5-1.4-0.5-9.3-2.9C2.3,10.7,1,11.7,1,13c0,0.9,0.6,1.6,1.4,1.9l8.2,2.5C11.1,16.1,11.9,15,12.8,14z"></path><path d="M38.5,25.6c-0.5,1.5-1.2,2.8-2,4.1c2.4-1.1,7.7-0.8,7.7-5.2v-1.1C42.9,24.3,42.5,24.2,38.5,25.6z"></path><path d="M39.1,23.3l3.1-1c2.1-0.7,3.6-2.6,3.8-4.8l-6.7,2C39.4,20.7,39.3,22.1,39.1,23.3z"></path><path d="M46.4,11.2c-7.7,2.4-8.3,2.3-9.7,3.1c0.9,0.9,1.6,2.1,2,3.3l8.8-2.7c0.8-0.3,1.4-1,1.4-1.9C49,11.7,47.7,10.7,46.4,11.2z"></path><path d="M24.7,15.7c-4.5-5-13-1.8-13,5c0,10.7,13,18.2,13,18.2s13-7.5,13-18.2C37.7,13.9,29.2,10.7,24.7,15.7z"></path></g></svg>