<svg xmlns="http://www.w3.org/2000/svg" viewBox="0 0 512 512" x="0px" y="0px"><title>classes Beast master</title><path d="M240.9,158.86a25.16,25.16,0,0,1,1.68-6.44l.9-2.18A24.54,24.54,0,0,0,236.4,122l-19.61-16.17a18.51,18.51,0,0,0-23.85.27c-10.34,8.91-24.62,23.24-32.46,40a47.2,47.2,0,0,0,2.23,44.08,159.16,159.16,0,0,0,9.94,14.79,42.08,42.08,0,0,0,25.69,16.25,98.93,98.93,0,0,0,23.24,1.3l.29,0c12.4-.77,21.34-12.15,19.78-24.48C240,184.8,239.36,171.18,240.9,158.86Z"></path><path d="M125.61,194a27.4,27.4,0,0,0-41.18,6.37c-.54.89-.8,1.44-.8,1.44a109.22,109.22,0,0,0-12,37.78,59.11,59.11,0,0,0,22.78,54.2q2.17,1.67,4.44,3.27a31.81,31.81,0,0,0,42.49-5.2l.27-.32c9.44-11.27,17.27-19.65,22.16-28.3a31.17,31.17,0,0,0-4.29-36.11A370,370,0,0,0,125.61,194Z"></path><path d="M328.63,112.34c-8.46-4.38-20.83-7.52-30.89,3.14a29.42,29.42,0,0,0-4.1,5.68c-4.25,7.47-18.16,32.21-24.52,47.71,0,0-13.55,38.7,15.74,47,13.73,3.89,22.39,8.2,27.71,11.68a14.5,14.5,0,0,0,17.52-1.12c12.53-10.95,32.93-31.66,35.1-51.87,0,0,.19-25.25-22.28-50.84A49.37,49.37,0,0,0,328.63,112.34Z"></path><path d="M351.24,242.26c10.75-10.8,27.82-28.61,41-45.45,7.83-10,22.71-11.17,31.68-2.19,11.54,11.54,23.25,32.2,21.21,68a26.08,26.08,0,0,1-4.79,13.67c-6.84,9.58-22.1,26-47,27.61A22.05,22.05,0,0,1,372.48,292c-4.36-8.42-11.49-20.28-21.28-30.44A13.75,13.75,0,0,1,351.24,242.26Z"></path><path d="M77.25,181.37c1.94-2.28,4.18-4.73,6.71-7.2a17.61,17.61,0,0,1,13.82-4.94c.9.08,1.86.18,2.85.32a5.53,5.53,0,0,0,5.87-7.47,121.09,121.09,0,0,1-7.91-46,6,6,0,0,0-10.84-3.82,129.47,129.47,0,0,0-10.52,16.42,80.65,80.65,0,0,0-8.61,25.33,141.09,141.09,0,0,0-2,23.47A6,6,0,0,0,77.25,181.37Z"></path><path d="M181.09,81.91c1.1-14,5.94-41.45,26.49-59.08a6.88,6.88,0,0,1,11.31,4.87c.68,12.15,2.74,31.33,8.81,48.85A5.25,5.25,0,0,1,221,83.23l-5.85-2.1a20.31,20.31,0,0,0-15.69.79l-10.81,5.17A5.27,5.27,0,0,1,181.09,81.91Z"></path><path d="M340.66,81.92c-2.5-14.79-10.26-43.49-33.78-60.26a7.33,7.33,0,0,0-11.55,6.25c.42,13,.06,33.56-4.72,52.75a5.61,5.61,0,0,0,7.8,6.46l6-2.79a21.76,21.76,0,0,1,16.76-.66l12,4.47A5.62,5.62,0,0,0,340.66,81.92Z"></path><path d="M435.89,170.58c-2.17-12.84-8.9-37.73-29.3-52.28a6.37,6.37,0,0,0-10,5.42c.37,11.26.06,29.12-4.09,45.77a4.86,4.86,0,0,0,6.77,5.6l5.21-2.42A18.86,18.86,0,0,1,419,172.1l10.4,3.88A4.88,4.88,0,0,0,435.89,170.58Z"></path><path d="M413.36,387.13a38.14,38.14,0,0,0-20.45-30.54,129.65,129.65,0,0,1-31.2-22.72,114.69,114.69,0,0,1-23-33.28c-8-17.2-31.58-54.35-85.39-54.35s-77.38,37.15-85.4,54.35a114.69,114.69,0,0,1-23,33.28,129.46,129.46,0,0,1-31.2,22.72,38.16,38.16,0,0,0-20.45,30.54c-2.38,27.28,1.25,49.14,7.78,66.5,13.57,36.07,57.36,49.23,89.27,27.6s63-24.18,63-24.18,31.1,2.58,63,24.18,75.7,8.47,89.27-27.6C412.11,436.27,415.74,414.41,413.36,387.13Zm-104.42-1.06-41.38,40.78A15.62,15.62,0,0,1,247,428.08L182.27,378a15.63,15.63,0,0,1-2.43-22.37l64.95-77.71a11.63,11.63,0,0,1,16.4-1.46L289,299.76a2.87,2.87,0,0,1-2.51,5l-26.27-6.23a10.42,10.42,0,0,0-11.07,4.34l-33.81,50.36a13.06,13.06,0,0,0,2.87,17.63l25.95,20a13.08,13.08,0,0,0,17.14-1l11.57-11.36a8.84,8.84,0,0,0,.05-12.56l-1.77-1.77a6.33,6.33,0,0,0-9,0h0a10.48,10.48,0,0,1-15.67-13.87l11.32-14.49A16.4,16.4,0,0,1,282.1,334l26.64,25.49A18.49,18.49,0,0,1,308.94,386.07Z"></path></svg>