<svg xmlns="http://www.w3.org/2000/svg" viewBox="0 0 512 512" x="0px" y="0px"><title>item meat</title><path d="M234.18,111.69c-11.78,16.14-21,33.62-27.66,48.44A71.23,71.23,0,0,1,158.05,200a148.82,148.82,0,0,0-25.33,8.53,32.7,32.7,0,0,0-19.65,30.6c.38,14.77,3.68,29.25,8.39,42.63A178.41,178.41,0,0,0,230.25,390.52c13.34,4.7,27.78,8,42.51,8.38a32.58,32.58,0,0,0,30.57-19.35,148.87,148.87,0,0,0,8.7-25.71,70.91,70.91,0,0,1,39.7-48.33c14.85-6.69,32.37-15.9,48.56-27.71a7.51,7.51,0,0,0-2.76-13.37c-22.84-5.26-58.16-11.3-98.42-51.56-40-40-46.3-75.58-51.56-98.42A7.51,7.51,0,0,0,234.18,111.69Z"></path><path d="M418.78,243.63c14.24-.19,26.12-11.48,26.41-25.71.32-15.57-6.1-35-18.12-55.23a10,10,0,0,0-15.58-1.94h0c-16.39,16.39-43.09,17.44-60,1.54a42.65,42.65,0,0,1-.92-61.14l.64-.64a9.94,9.94,0,0,0-1.94-15.58c-19.6-11.68-38.54-18.09-53.88-18.16a27,27,0,0,0-27.09,26.79c-.25,23.23,5.79,65.58,45.15,104.93C353,238,395.63,243.94,418.78,243.63Z"></path><path d="M456.33,139.8A28.51,28.51,0,0,0,466.45,137c7.39-3.66,12.06-8.34,15-13.14,7.08-11.69,4.29-26.71-5.72-36C463,76,449.06,76.69,439.39,79.42a5.52,5.52,0,0,1-6.81-6.81C435.31,62.94,436,49,424.2,36.3c-9.3-10-24.32-12.8-36-5.72-4.79,2.9-9.45,7.55-13.1,14.9a28.37,28.37,0,0,0-2.89,10.19A46.13,46.13,0,0,0,379,84.17a16,16,0,0,1-2.34,19.7L365,115.53A22.27,22.27,0,0,0,365,147h0a22.27,22.27,0,0,0,31.48,0l11.66-11.66A16,16,0,0,1,427.84,133,46.16,46.16,0,0,0,456.33,139.8Z"></path><path d="M72.62,432.57a5.52,5.52,0,0,1,6.81,6.81C76.7,449.05,76,463,87.8,475.7c9.3,10,24.32,12.8,36,5.72,4.79-2.91,9.46-7.56,13.11-14.92a28.5,28.5,0,0,0,2.88-10.15A46.14,46.14,0,0,0,133,427.83a16,16,0,0,1,2.34-19.7l16.76-16.76a15.06,15.06,0,0,0,0-21.28l-10.2-10.2a15.06,15.06,0,0,0-21.28,0l-16.76,16.76A16,16,0,0,1,84.15,379a46.19,46.19,0,0,0-28.51-6.77,28.39,28.39,0,0,0-10,2.83c-7.42,3.66-12.1,8.35-15,13.16-7.08,11.69-4.29,26.71,5.72,36C49,436,63,435.3,72.62,432.57Z"></path></svg>