<svg xmlns="http://www.w3.org/2000/svg" viewBox="0 0 512 512" x="0px" y="0px"><title>effect Slash damage</title><path d="M476.26,20.38c-5.46,3.11-11.46,6.73-17.94,10.83a130.21,130.21,0,0,0-31.81,28.17C398,94.77,361.94,132.37,320.31,161a268.4,268.4,0,0,1-36,20.92L323,104.89c2.37-4.7-4.09-8.79-7.32-4.64-51.58,66.19-136.84,169.4-136.84,169.4h0C104.38,350.37,47.56,431.25,21,476.65c-5.64,9.62,5.13,20.49,14.82,15,11.1-6.32,283.61-147.39,283.61-147.39,4.7-2.35,2-9.47-3.08-8.11l-159,42.69C182.82,349.59,213,320.25,247,296.87a268.84,268.84,0,0,1,39.14-22.4,140.84,140.84,0,0,0,43.24-31.65C405.07,161.92,464.33,81,491,35.37,496.69,25.73,486,14.85,476.26,20.38Z"></path><path d="M418.61,261.82a3.15,3.15,0,0,0-2.39-5.72l-58,12.82a41,41,0,0,0-18,9L320.44,295a4.12,4.12,0,0,0,2.69,7.23h21a41.07,41.07,0,0,0,22.35-6.62Z"></path><path d="M94.76,324.08l11.69-17.44a41.16,41.16,0,0,0,6.94-22.26l.91-62.14a3.15,3.15,0,0,0-6.09-1.2L86.59,276.37a41,41,0,0,0-2.51,19.95l3.18,26A4.12,4.12,0,0,0,94.76,324.08Z"></path></svg>