<svg width="38" height="30" viewBox="0 0 38 30" fill="none" xmlns="http://www.w3.org/2000/svg">
<path d="M35.3348 8.24154L30.2104 2.16098L23.9732 0L22.3933 2.29511L18.9863 1.8033L15.5792 2.29511L13.9993 0L7.78959 2.16098L2.66522 8.24154L0 17.2283L1.41504 24.6054L4.67101 27.3327L10.5922 29.4788L11.8561 26.9601L9.32827 24.6203L9.65799 23.6665L11.9385 24.8886L15.3868 25.8871L19 26.1553L22.6132 25.8871L26.0615 24.8737L28.342 23.6516L28.6717 24.6054L26.1439 26.9452L27.4078 29.4639L33.329 27.3178L36.585 24.5905L38 17.2134L35.3348 8.24154ZM14.6999 19.5234L12.4194 19.8065L10.2075 18.0479L9.79537 14.6649L11.8561 12.1909L14.1916 12.027L16.0875 14.1731L16.376 17.2581L14.6999 19.5234ZM27.82 18.0479L25.6081 19.8065L23.3276 19.5234L21.6515 17.2432L21.94 14.1582L23.8359 12.0121L26.1714 12.176L28.2321 14.65L27.82 18.0479Z" fill="black"/>
</svg>
