<svg width="36" height="33" viewBox="0 0 36 33" fill="none" xmlns="http://www.w3.org/2000/svg">
<g clip-path="url(#clip0_69_6)">
<path fill-rule="evenodd" clip-rule="evenodd" d="M34.493 18.9691L32.128 22.3341L29.999 24.3531L35.635 30.3101L32.56 32.9471L1.46595 3.44005L4.30395 0.128052L10.365 5.73205L14.386 4.16205L19.117 3.71305L24.85 4.61105L30.235 7.97605L33.784 12.1401L35.676 16.5201L34.493 18.9691ZM26.687 14.3301L25.31 10.8921L21.956 8.64905L17.935 7.97605L13.913 9.97005L16.988 12.2381L19.827 12.4631L21.483 13.3601L22.666 15.6031L22.429 17.3981L25.741 20.5391L26.924 17.6221L26.687 14.3301ZM4.92395 9.77005L9.89195 14.2571L9.65495 18.7101L11.784 21.8851L15.333 24.1281L19.354 24.5771L20.537 24.3531L24.85 27.7181L19.827 28.8401L14.623 28.3911L8.70895 26.1471L4.21495 22.1091L1.61295 18.2951L0.902954 16.5201L2.55895 12.4631L4.92395 9.77005Z" fill="#3D484D"/>
</g>
<defs>
<clipPath id="clip0_69_6">
<rect width="36" height="33" fill="white"/>
</clipPath>
</defs>
</svg>
