<svg width="32" height="31" viewBox="0 0 32 31" fill="none" xmlns="http://www.w3.org/2000/svg">
<path d="M29.5002 15.5796L30.7811 14.0987C30.85 14.0171 30.8775 13.922 30.8637 13.8269C30.85 13.7318 30.7949 13.6367 30.7122 13.5824L30.4643 13.4057L31.1116 12.8215C31.1943 12.7535 31.2356 12.6449 31.2218 12.5497C31.2218 12.441 31.1667 12.3459 31.0841 12.278L30.6985 11.9791L31.3045 11.5307C31.3871 11.4628 31.4422 11.3541 31.4422 11.2454C31.4422 11.1367 31.3871 11.028 31.3045 10.9601L30.8362 10.6204L31.8278 5.93291C31.8416 5.86498 31.8416 5.81063 31.814 5.7427L30.2577 1.17749C30.2302 1.08238 30.1613 1.01445 30.0649 0.973687C29.9823 0.932926 29.8721 0.932927 29.7895 0.960101L19.9557 4.58781H11.8573L2.00983 0.960101C1.91342 0.932927 1.81701 0.932926 1.73438 0.973687C1.65174 1.01445 1.58288 1.09597 1.54156 1.17749L0.0265583 5.7427C0.0127856 5.79704 -0.000987981 5.86498 0.0127848 5.93291L1.00442 10.6204L0.536149 10.9737C0.43974 11.0416 0.384648 11.1503 0.384648 11.259C0.384648 11.3677 0.439739 11.4764 0.522376 11.5443L1.12838 12.0063L0.742741 12.3052C0.660104 12.3731 0.605013 12.4682 0.605013 12.5769C0.605013 12.6856 0.646332 12.7807 0.715195 12.8487L1.36251 13.4329L1.1146 13.6095C1.03197 13.6639 0.976878 13.759 0.963105 13.8541C0.949332 13.9492 0.976877 14.0579 1.04574 14.1258L2.31283 15.6068L0.246921 21.9383C0.219375 22.0062 0.219375 22.0742 0.246921 22.1421L2.2302 28.7997C2.28529 28.9899 2.47811 29.0986 2.67092 29.0443L9.4058 27.21L10.6316 28.1883L13.3586 30.0497C13.4137 30.0905 13.4963 30.1176 13.5652 30.1176H18.2341C18.303 30.1176 18.3719 30.0905 18.4407 30.0497L21.1953 28.1611L22.3935 27.1964L29.1284 29.0307C29.3212 29.085 29.514 28.9763 29.5691 28.7861L31.5524 22.1285C31.5799 22.0606 31.5661 21.9927 31.5524 21.9247L29.5002 15.5796ZM9.98425 19.0986L7.65666 16.5579L8.04229 15.8514H13.6478L13.9233 16.8296L13.2071 19.8595L9.98425 19.0986ZM17.3251 24.6421L14.5981 24.5878L13.8957 23.9356L14.0197 22.8079L14.5981 22.21H15.4107H17.27L17.7934 22.7128L17.9862 24.0307L17.3251 24.6421ZM22.0216 19.0986L18.7988 19.8595L18.0826 16.8296L18.3581 15.8514H23.9636L24.3492 16.5579L22.0216 19.0986Z" fill="black"/>
</svg>
