<svg width="23" height="38" viewBox="0 0 23 38" fill="none" xmlns="http://www.w3.org/2000/svg">
<path fill-rule="evenodd" clip-rule="evenodd" d="M21.5317 24.6023L17.3721 28.9869L12.9678 30.4485V34.8331H18.3508V37.9998H4.64869V34.8331H10.0317V30.4485L5.62742 28.9869L1.9572 25.5767L0 20.9485V13.1536L1.46784 12.1792L2.93593 13.3972L3.18061 17.051V20.7049L4.40401 23.8716L6.60614 26.0639L10.2764 27.2818H12.9678L16.3934 25.8203L18.8402 23.3844L20.0636 20.2177V16.5639V13.3972L21.5317 12.1792L22.9998 13.1536V20.7049L21.5317 24.6023ZM12.9678 24.6023H10.2764L7.82954 23.3844L5.8721 20.2177V4.14078L7.58486 1.46129L11.5 0L15.6593 1.70488L17.1274 4.14078V20.2177L14.9253 23.3844L12.9678 24.6023Z" fill="#FFC000"/>
</svg>
