<svg width="52" height="81" viewBox="0 0 52 81" fill="none" xmlns="http://www.w3.org/2000/svg">
<g clip-path="url(#clip0_100_9)">
<path fill-rule="evenodd" clip-rule="evenodd" d="M6 15H45.999V65.999H6V15Z" fill="#404A6E"/>
<path fill-rule="evenodd" clip-rule="evenodd" d="M49.4259 74.4951C49.4259 79.2271 46.3799 80.6151 41.3059 80.6151H10.6439C5.91195 80.6151 2.52395 79.2271 2.52395 74.4951L0.918945 6.65613C0.918945 1.92413 4.30695 0.536133 9.38995 0.536133H42.9109C47.6429 0.536133 51.3099 1.92413 51.3099 6.65613L49.4259 74.4951ZM9.87695 18.4281L11.4819 60.2741H40.5299L42.1349 18.4281H9.87695Z" fill="black"/>
<path fill-rule="evenodd" clip-rule="evenodd" d="M47.4259 72.4951C47.4259 77.2271 46.3799 78.6151 41.3059 78.6151H10.6439C5.91195 78.6151 4.52395 77.2271 4.52395 72.4951L2.91895 8.65613C2.91895 3.92413 4.30693 2.53613 9.38995 2.53613H42.9109C47.6429 2.53613 49.3099 3.92413 49.3099 8.65613L47.4259 72.4951ZM26.5999 73.6581C27.8989 73.6581 29.4329 72.1231 29.4329 70.2301C29.4329 68.3381 27.8989 66.8031 26.5999 66.8031C24.1129 66.8031 22.5789 68.3381 22.5789 70.2301C22.5789 72.1231 24.1129 73.6581 26.5999 73.6581ZM34.1519 9.88713H17.8589C17.1829 9.88713 16.6349 10.4351 16.6349 11.1111C16.6349 11.7871 17.1829 12.3351 17.8589 12.3351H34.1519C34.8279 12.3351 35.3759 11.7871 35.3759 11.1111C35.3759 10.4351 34.8279 9.88713 34.1519 9.88713ZM7.87695 16.4281L9.48195 62.2741H42.5299L44.1349 16.4281H7.87695Z" fill="white"/>
</g>
<defs>
<clipPath id="clip0_100_9">
<rect width="52" height="81" fill="white"/>
</clipPath>
</defs>
</svg>
