<svg width="40" height="40" viewBox="0 0 40 40" fill="none" xmlns="http://www.w3.org/2000/svg">
<path fill-rule="evenodd" clip-rule="evenodd" d="M19.0514 6.19643L13.3896 2.45571L8.48144 3.09821L3.10662 5.66893L0.351807 11.1189L8.04773 9.2675L15.8466 11.1189L10.3181 12.3525L4.94958 15.6311L4.30847 21.3739L6.87255 28.7575L8.3681 30.1932L10.0777 25.0657L14.3511 19.3229L20.12 15.1571L21.4018 20.7586V27.7714L20.5474 31.6289L16.9148 36.9614L14.7781 39.8329L29.5481 39.7289L28.8803 33.4311L28.0255 24.8607L26.1025 18.9129L24.1796 13.9904L29.5481 15.8225L32.9259 18.42L35.2803 22.8214L36.2455 26.2961L38.4296 20.2732L36.7285 13.3239L34.3151 9.15428L26.53 9.68321L28.0255 7.63214L34.2718 6.69214L37.2496 8.35964L39.9796 10.5036L38.7388 4.78643L33.5274 1.21321L27.0751 0.260712L21.6155 2.71L19.0514 6.19643Z" fill="#FCC000"/>
</svg>
