<svg width="40" height="40" viewBox="0 0 40 40" fill="none" xmlns="http://www.w3.org/2000/svg">
<path fill-rule="evenodd" clip-rule="evenodd" d="M33.6141 16.5872L39.9552 19.8138L38.8362 27.0114L31.5007 27.6317L29.3869 29.8655L29.6355 37.3114L24.5379 39.9176L19.8134 33.6103L16.4562 32.7197L9.86688 36.939L4.76895 32.9679L8.49895 25.7703L7.50446 23.0931L0.168945 19.1931L1.53653 12.3679L9.12067 11.9955L10.7372 10.1341L9.74239 4.05345L16.2758 0.206207L20.4348 6.1631L24.4069 6.65931L30.3817 2.67586L36.3896 7.03172L32.6196 13.981L33.6141 16.5872ZM25.7593 16.5138L21.8779 14.1931L17.6731 15.1617L14.9776 18.7128L15.7324 22.1566L19.6138 25.0621L24.3576 23.7707L26.5138 20.0414L25.7593 16.5138Z" fill="#000000"/>
</svg>
