<svg width="38" height="38" viewBox="0 0 38 38" fill="none" xmlns="http://www.w3.org/2000/svg">
<path fill-rule="evenodd" clip-rule="evenodd" d="M35.6421 23.3844C34.3401 23.3844 33.2844 22.4575 33.2844 21.3139V16.6857C33.2844 15.5422 34.3401 14.6151 35.6421 14.6151C36.9443 14.6151 37.9997 15.5422 37.9997 16.6857V21.3139C37.9997 22.4575 36.9443 23.3844 35.6421 23.3844ZM27.3209 28.2562C26.0189 28.2562 24.9632 27.3293 24.9632 26.1857V11.8139C24.9632 10.6704 26.0189 9.74335 27.3209 9.74335C28.6232 9.74335 29.6786 10.6704 29.6786 11.8139V26.1857C29.6786 27.3293 28.6232 28.2562 27.3209 28.2562ZM18.9997 37.9998C17.6977 37.9998 16.6421 37.0729 16.6421 35.9292V2.07027C16.6421 0.926859 17.6977 0 18.9997 0C20.302 0 21.3574 0.926859 21.3574 2.07027V35.9292C21.3574 37.0729 20.302 37.9998 18.9997 37.9998ZM10.6786 28.2562C9.37657 28.2562 8.32089 27.3293 8.32089 26.1857V11.8139C8.32089 10.6704 9.37657 9.74335 10.6786 9.74335C11.9808 9.74335 13.0362 10.6704 13.0362 11.8139V26.1857C13.0362 27.3293 11.9808 28.2562 10.6786 28.2562ZM2.35739 23.3844C1.0554 23.3844 0 22.4575 0 21.3139V16.6857C0 15.5422 1.0554 14.6151 2.35739 14.6151C3.65965 14.6151 4.71505 15.5422 4.71505 16.6857V21.3139C4.71505 22.4575 3.65965 23.3844 2.35739 23.3844Z" fill="#FFC000"/>
</svg>
