<svg id="Layer_1" data-name="Layer 1" xmlns="http://www.w3.org/2000/svg" viewBox="0 0 512 512"><defs><style>.cls-1{stroke:#fff;stroke-miterlimit:10;stroke-width:5px;}.cls-2{fill:#fff;}</style></defs><path d="M180.92,62.39,15.17,158.11l76.84,44-.58.33.27.17-76.55,44.2L180.9,342.54,256.77,298l.39.23.07-.05L332.65,341l164.2-94.15-77.12-44.76,77.12-44.75-165-94.94-75.36,44.29Zm238.9,239.82-87.14,50-75.75-43-.52-.3v.62Q218.7,331.64,181,353.8L93,303v90.13l163.42,95.72,163.41-95.72Z"/><line class="cls-1" x1="110.56" y1="199.93" x2="261.46" y2="111.69"/><line class="cls-1" x1="262.09" y1="117.39" x2="399.57" y2="197.79"/><path class="cls-2" d="M400.2,197.79c.61.68,1.14,1.45,1.75,2.14a38.51,38.51,0,0,0-9.71,4.81l-.07-.07c-29.44-34.1-83.19-28.52-99-26A33.1,33.1,0,0,1,277,177.6a24.81,24.81,0,0,1-15.14-13.46c-7-15.67,1.76-37.31,2.15-38.22s29.58-62.85-10.48-84.18c-21.25-11.32-44.34-10.48-66.75,2.44a29.79,29.79,0,0,1-18.12,4.06c-11.24-1.08-31.88-1.23-44,9.86-6.5,5.89-9.79,14.6-9.79,25.84,0,11.7,3.67,20.87,11.32,28.21,19.19,18.35,56.5,17,56.88,16.9a5.5,5.5,0,0,1,4.29,1.91,5.32,5.32,0,0,1,1.14,4.51,329.67,329.67,0,0,0-7.18,64.84,149.67,149.67,0,0,0,7.34,46.1,33.94,33.94,0,0,0-13.08-6.5,158,158,0,0,1-4.89-39.52,333,333,0,0,1,6.11-60.71c-12.84-.38-40.67-3.29-58-19.88-9.71-9.25-14.6-21.33-14.6-35.86,0-14.37,4.43-25.69,13.3-33.72,15.06-13.76,39.07-13.76,52.07-12.54A19.75,19.75,0,0,0,181.53,35c25.69-14.83,52.37-15.75,77-2.68,20.57,11,29.67,31.66,26.15,59.79a136.35,136.35,0,0,1-10.93,38.15c-2,4.74-6.43,20-2.15,29.52a14.08,14.08,0,0,0,8.87,7.72,22.51,22.51,0,0,0,11,.69C308.68,165.44,367.17,159.48,400.2,197.79Z"/><path d="M392.17,204.67l.07.07a32.34,32.34,0,0,0-3.67,2.68C380.93,213.77,366,215.91,357,221c-14.68,8.18-28.14,18.58-42.74,27-20.87,11.93-40.45,23.7-59.26,37.7a118.64,118.64,0,0,0-12.38-5.43,24.66,24.66,0,0,0-2.37-1.46c-3-5.81-8.11-10.78-15.6-14-5.28-2.21-10.47-4.58-15.67-7a42.6,42.6,0,0,0-7.27-2.45c-2.83-1.22-5.66-2.6-8-3.9a31.09,31.09,0,0,0-5-5,149.67,149.67,0,0,1-7.34-46.1,329.67,329.67,0,0,1,7.18-64.84,5.32,5.32,0,0,0-1.14-4.51,5.5,5.5,0,0,0-4.29-1.91c-.38.08-37.69,1.45-56.88-16.9-7.65-7.34-11.32-16.51-11.32-28.21,0-11.24,3.29-19.95,9.79-25.84,12.08-11.09,32.72-10.94,44-9.86a29.79,29.79,0,0,0,18.12-4.06c22.41-12.92,45.5-13.76,66.75-2.44C293.61,63.07,264.48,125,264,125.92s-9.18,22.55-2.15,38.22A24.81,24.81,0,0,0,277,177.6a33.1,33.1,0,0,0,16.14,1.07C309,176.15,362.73,170.57,392.17,204.67ZM238,89.45a5.31,5.31,0,0,0,5.36-5.28,24.7,24.7,0,1,0-49.4,0,5.32,5.32,0,0,0,10.63,0,14.07,14.07,0,1,1,28.14,0A5.29,5.29,0,0,0,238,89.45Z"/><path class="cls-2" d="M243.31,84.17a5.32,5.32,0,0,1-10.63,0,14.07,14.07,0,1,0-28.14,0,5.32,5.32,0,0,1-10.63,0,24.7,24.7,0,1,1,49.4,0Z"/><line class="cls-1" x1="110.65" y1="198.31" x2="256.76" y2="283.75"/><line class="cls-1" x1="253.59" y1="283.24" x2="401.95" y2="196.48"/><path class="cls-2" d="M138.13,401.29l-10.06-6L118,377.73l-9.24,6.06-9.43-5.62,13.2-7.89L99.1,347.47l9.72,5.79,9.34,16.57,8.38-6,9.49,5.65-12.49,7.71Z"/><path class="cls-2" d="M151.74,397.67l.43,12-8.81-5.25-1.11-31.21,12.1,7.21q8.47,5,12.61,9.78c2.77,3.15,4.2,6.31,4.32,9.45.06,1.84-.56,3.07-1.85,3.7s-3.15.62-5.59,0q9.75,16.13,12.7,20.88l-9.77-5.82-10.34-17.88Zm-.19-5.38,2.84,1.69c2.78,1.66,4.83,2.54,6.13,2.63s1.92-.61,1.87-2.1a6.67,6.67,0,0,0-2.14-4.37,30.6,30.6,0,0,0-6.33-4.69l-2.67-1.59Z"/><path class="cls-2" d="M209.7,422.91q.18,5-3.92,5.21c-2.72.11-6.67-1.37-11.82-4.43l-3.78-2.26.4,11.11-8.81-5.25-1.11-31.22L193.93,404a45.18,45.18,0,0,1,11.58,9.29Q209.53,418.05,209.7,422.91ZM190,416l2.9,1.73c2.7,1.61,4.72,2.42,6,2.41s1.94-.77,1.89-2.31A7.4,7.4,0,0,0,199,413.4a20.08,20.08,0,0,0-5.34-4.27l-4-2.39Z"/><path class="cls-2" d="M251.71,469l-10-5.95-11.34-19.64-3.65-.21.39,11.15-8.81-5.25-1.1-31.22,8.8,5.25.51,14.28,3.34-1.61,10.87-3.9,9.77,5.82-14,5.18Z"/></svg>