<svg id="Layer_1" data-name="Layer 1" xmlns="http://www.w3.org/2000/svg" viewBox="0 0 92.01 88.95"><defs><style>.cls-1{stroke:#fff;stroke-miterlimit:10;stroke-width:0.8px;}.cls-2{fill:#fff;}</style></defs><path d="M35.66,13,4,31.3l14.68,8.41-.12.06.06,0L4,48.25,35.65,66.53,50.15,58l.07.05h0l14.4,8.18L96,48.25,81.28,39.7,96,31.15,64.49,13,50.1,21.47ZM81.29,58.83,64.65,68.37,50.18,60.15l-.1,0v.11L35.67,68.68,18.86,59V76.19L50.08,94.48,81.29,76.19Z" transform="translate(-3.99 -5.52)"/><line class="cls-1" x1="18.23" y1="33.76" x2="47.05" y2="16.91"/><line class="cls-1" x1="47.17" y1="18" x2="73.43" y2="33.36"/><path class="cls-2" d="M77.54,38.88c.12.13.22.28.34.41a7.16,7.16,0,0,0-1.86.92v0c-5.62-6.51-15.89-5.44-18.91-5A6.26,6.26,0,0,1,54,35a4.7,4.7,0,0,1-2.9-2.57c-1.34-3,.34-7.12.41-7.3s5.66-12-2-16.08a12.61,12.61,0,0,0-12.75.47,5.64,5.64,0,0,1-3.46.77c-2.15-.2-6.09-.23-8.4,1.89a6.35,6.35,0,0,0-1.87,4.93,7.05,7.05,0,0,0,2.17,5.39C28.88,26,36,25.77,36.08,25.75a1.05,1.05,0,0,1,.82.37,1,1,0,0,1,.22.86,62.46,62.46,0,0,0-1.37,12.38,28.55,28.55,0,0,0,1.4,8.81,6.53,6.53,0,0,0-2.5-1.24,30.15,30.15,0,0,1-.93-7.55,63.33,63.33,0,0,1,1.16-11.6c-2.45-.07-7.77-.63-11.07-3.8A9.08,9.08,0,0,1,21,17.13a8.27,8.27,0,0,1,2.55-6.44C26.44,8.06,31,8.06,33.51,8.3a3.79,3.79,0,0,0,2.26-.51c4.91-2.84,10-3,14.71-.51,3.93,2.1,5.67,6,5,11.42A25.83,25.83,0,0,1,53.39,26c-.38.91-1.23,3.83-.41,5.64a2.69,2.69,0,0,0,1.69,1.48,4.28,4.28,0,0,0,2.11.13C60.06,32.7,71.23,31.56,77.54,38.88Z" transform="translate(-3.99 -5.52)"/><path d="M76,40.19v0a7.74,7.74,0,0,0-.7.51c-1.46,1.21-4.3,1.62-6,2.59-2.8,1.56-5.37,3.54-8.16,5.15a110.43,110.43,0,0,0-11.32,7.2,23.21,23.21,0,0,0-2.37-1,3.35,3.35,0,0,0-.45-.27,5.86,5.86,0,0,0-3-2.68c-1-.42-2-.87-3-1.34a9.1,9.1,0,0,0-1.39-.47,16.83,16.83,0,0,1-1.53-.74,6.1,6.1,0,0,0-1-.95,28.55,28.55,0,0,1-1.4-8.81A62.46,62.46,0,0,1,37.12,27a1,1,0,0,0-.22-.86,1.05,1.05,0,0,0-.82-.37c-.07,0-7.2.28-10.86-3.23a7.05,7.05,0,0,1-2.17-5.39,6.35,6.35,0,0,1,1.87-4.93c2.31-2.12,6.25-2.09,8.4-1.89a5.64,5.64,0,0,0,3.46-.77,12.61,12.61,0,0,1,12.75-.47c7.66,4.08,2.09,15.91,2,16.08s-1.75,4.31-.41,7.3A4.7,4.7,0,0,0,54,35a6.26,6.26,0,0,0,3.08.21C60.12,34.75,70.39,33.68,76,40.19Zm-29.46-22a1,1,0,0,0,1-1,4.72,4.72,0,0,0-9.44,0,1,1,0,0,0,2,0,2.69,2.69,0,0,1,5.38,0A1,1,0,0,0,46.55,18.19Z" transform="translate(-3.99 -5.52)"/><path class="cls-2" d="M47.58,17.18a1,1,0,0,1-1,1,1,1,0,0,1-1-1,2.69,2.69,0,0,0-5.38,0,1,1,0,0,1-2,0,4.72,4.72,0,0,1,9.44,0Z" transform="translate(-3.99 -5.52)"/><line class="cls-1" x1="18.24" y1="33.46" x2="46.15" y2="49.78"/><line class="cls-1" x1="45.55" y1="49.68" x2="73.89" y2="33.11"/><path class="cls-2" d="M27.49,77.75l-1.93-1.14-1.92-3.36-1.77,1.16-1.8-1.07,2.53-1.51L20,67.47l1.86,1.11,1.78,3.16,1.6-1.14,1.81,1.08L24.7,73.15Z" transform="translate(-3.99 -5.52)"/><path class="cls-2" d="M30.08,77.06l.09,2.29-1.69-1-.21-6,2.31,1.38A9.88,9.88,0,0,1,33,75.63a2.92,2.92,0,0,1,.83,1.81.67.67,0,0,1-.36.7,1.57,1.57,0,0,1-1.06,0q1.86,3.08,2.42,4L33,81,31,77.6Zm0-1,.54.33a3.31,3.31,0,0,0,1.17.5c.25,0,.37-.12.36-.4a1.31,1.31,0,0,0-.41-.84,5.91,5.91,0,0,0-1.21-.89L30,74.42Z" transform="translate(-3.99 -5.52)"/><path class="cls-2" d="M41.16,81.88c0,.64-.23,1-.75,1A4.64,4.64,0,0,1,38.15,82l-.72-.43.07,2.12-1.68-1-.21-6,2.53,1.51A8.61,8.61,0,0,1,40.36,80,3.09,3.09,0,0,1,41.16,81.88Zm-3.77-1.32.55.33a2.71,2.71,0,0,0,1.16.47c.25,0,.37-.15.36-.45a1.4,1.4,0,0,0-.35-.84,3.78,3.78,0,0,0-1-.82l-.76-.46Z" transform="translate(-3.99 -5.52)"/><path class="cls-2" d="M49.18,90.68l-1.91-1.14L45.1,85.79l-.69,0,.07,2.13-1.68-1-.21-6,1.68,1,.1,2.73.63-.31,2.08-.75L49,84.7l-2.68,1Z" transform="translate(-3.99 -5.52)"/></svg>