<svg xmlns="http://www.w3.org/2000/svg" xmlns:xlink="http://www.w3.org/1999/xlink" viewBox="0 0 509.08 507.91"><defs><style>.cls-1{mask:url(#mask);}.cls-2,.cls-4{mix-blend-mode:multiply;}.cls-2{fill:url(#radial-gradient);}.cls-3{mask:url(#mask-2);}.cls-4{fill:url(#linear-gradient);}.cls-5{fill:none;}.cls-6{clip-path:url(#clip-path);}.cls-7{fill:url(#linear-gradient-2);}.cls-8{mask:url(#mask-3);}.cls-9{fill:url(#radial-gradient-2);}.cls-10{fill:url(#linear-gradient-3);}.cls-11{fill:url(#linear-gradient-4);}.cls-12{fill:url(#linear-gradient-5);}.cls-13{fill:url(#linear-gradient-6);}.cls-14{fill:url(#linear-gradient-7);}.cls-15{fill:url(#linear-gradient-8);}.cls-16{fill:#562e91;stroke:#8ed8f8;stroke-linejoin:round;stroke-width:0.43px;}.cls-17{fill:url(#linear-gradient-9);}.cls-18{fill:#00c1f3;}.cls-19{mask:url(#mask-4);}.cls-20{fill:url(#linear-gradient-10);}.cls-21{font-size:300px;font-family:KozGoPr6N-Regular-90ms-RKSJ-H, Kozuka Gothic Pr6N;}.cls-22{filter:url(#luminosity-noclip-4);}.cls-23{filter:url(#luminosity-noclip-3);}.cls-24{filter:url(#luminosity-noclip-2);}.cls-25{filter:url(#luminosity-noclip);}</style><filter id="luminosity-noclip" x="38.25" y="-8405" width="364.93" height="32766" filterUnits="userSpaceOnUse" color-interpolation-filters="sRGB"><feFlood flood-color="#fff" result="bg"/><feBlend in="SourceGraphic" in2="bg"/></filter><mask id="mask" x="38.25" y="-8405" width="364.93" height="32766" maskUnits="userSpaceOnUse"><g class="cls-25"/></mask><radialGradient id="radial-gradient" cx="-3485.94" cy="1369.94" r="182.46" gradientTransform="matrix(0.62, -0.79, 0.79, 0.62, 1300.75, -3413.16)" gradientUnits="userSpaceOnUse"><stop offset="0" stop-color="#fff"/><stop offset="0.94"/></radialGradient><filter id="luminosity-noclip-2" x="-40.56" y="-8405" width="507.47" height="32766" filterUnits="userSpaceOnUse" color-interpolation-filters="sRGB"><feFlood flood-color="#fff" result="bg"/><feBlend in="SourceGraphic" in2="bg"/></filter><mask id="mask-2" x="-40.56" y="-8405" width="507.47" height="32766" maskUnits="userSpaceOnUse"><g class="cls-24"/></mask><linearGradient id="linear-gradient" x1="213.18" y1="541.9" x2="213.18" y2="250.94" gradientUnits="userSpaceOnUse"><stop offset="0" stop-color="#fff"/><stop offset="0.13" stop-color="#b7b7b7"/><stop offset="0.31" stop-color="#555"/><stop offset="0.43" stop-color="#181818"/><stop offset="0.49"/></linearGradient><clipPath id="clip-path" transform="translate(41.83 9.28)"><circle class="cls-5" cx="212.6" cy="212.6" r="212.6"/></clipPath><linearGradient id="linear-gradient-2" x1="255.01" y1="507.71" x2="255.01" gradientUnits="userSpaceOnUse"><stop offset="0" stop-color="#ee2f7c"/><stop offset="0.39" stop-color="#b13789"/><stop offset="0.8" stop-color="#743e95"/><stop offset="1" stop-color="#5c419a"/></linearGradient><filter id="luminosity-noclip-3" x="38.25" y="-9.28" width="364.93" height="364.93" filterUnits="userSpaceOnUse" color-interpolation-filters="sRGB"><feFlood flood-color="#fff" result="bg"/><feBlend in="SourceGraphic" in2="bg"/></filter><mask id="mask-3" x="80.08" y="0" width="364.93" height="364.93" maskUnits="userSpaceOnUse"><g class="cls-23"><g transform="translate(41.83 9.28)"><g class="cls-1"><path class="cls-2" d="M333.57,29.82C412.75,92.15,426.4,206.87,364.07,286a182.44,182.44,0,0,1-256.22,30.5C28.67,254.21,15,139.5,77.35,60.32A182.46,182.46,0,0,1,333.57,29.82Z"/></g></g></g></mask><radialGradient id="radial-gradient-2" cx="-3485.94" cy="1369.94" r="182.46" gradientTransform="matrix(0.62, -0.79, 0.79, 0.62, 1300.75, -3413.16)" gradientUnits="userSpaceOnUse"><stop offset="0" stop-color="#ef4578"/><stop offset="0.94" stop-color="#d81f4c"/></radialGradient><linearGradient id="linear-gradient-3" x1="-3513.58" y1="1482.95" x2="-3438.95" y2="1263.53" gradientTransform="matrix(0.62, -0.79, 0.79, 0.62, 1300.75, -3413.16)" gradientUnits="userSpaceOnUse"><stop offset="0.06" stop-color="#d8196a"/><stop offset="0.12" stop-color="#db2365"/><stop offset="0.49" stop-color="#ed6045"/><stop offset="0.66" stop-color="#f47839"/><stop offset="1" stop-color="#ffd596"/></linearGradient><linearGradient id="linear-gradient-4" x1="-3527.93" y1="1478.07" x2="-3453.3" y2="1258.65" xlink:href="#linear-gradient-3"/><linearGradient id="linear-gradient-5" x1="-3541.99" y1="1473.29" x2="-3467.35" y2="1253.86" xlink:href="#linear-gradient-3"/><linearGradient id="linear-gradient-6" x1="-3550.54" y1="1470.38" x2="-3475.91" y2="1250.96" xlink:href="#linear-gradient-3"/><linearGradient id="linear-gradient-7" x1="-3567.6" y1="1464.54" x2="-3492.96" y2="1245.11" xlink:href="#linear-gradient-3"/><linearGradient id="linear-gradient-8" x1="-3576.61" y1="1461.5" x2="-3501.97" y2="1242.08" xlink:href="#linear-gradient-3"/><linearGradient id="linear-gradient-9" x1="255.01" y1="507.71" x2="255.01" y2="260.96" gradientUnits="userSpaceOnUse"><stop offset="0.19" stop-color="#333373"/><stop offset="0.29" stop-color="#383575"/><stop offset="0.42" stop-color="#47397a"/><stop offset="0.55" stop-color="#5f4182"/><stop offset="0.7" stop-color="#814d8d"/><stop offset="0.85" stop-color="#ac5b9b"/><stop offset="0.96" stop-color="#d267a8"/></linearGradient><filter id="luminosity-noclip-4" x="-40.56" y="250.94" width="507.47" height="247.49" filterUnits="userSpaceOnUse" color-interpolation-filters="sRGB"><feFlood flood-color="#fff" result="bg"/><feBlend in="SourceGraphic" in2="bg"/></filter><mask id="mask-4" x="1.27" y="260.22" width="507.47" height="247.49" maskUnits="userSpaceOnUse"><g class="cls-22"><g transform="translate(41.83 9.28)"><g class="cls-3"><rect class="cls-4" x="-40.56" y="250.94" width="507.47" height="247.49"/></g></g></g></mask><linearGradient id="linear-gradient-10" x1="255.01" y1="551.18" x2="255.01" y2="260.22" gradientUnits="userSpaceOnUse"><stop offset="0" stop-color="#6acdef"/><stop offset="0.12" stop-color="#64b0dd"/><stop offset="0.37" stop-color="#5773b7"/><stop offset="0.49" stop-color="#525ba8"/></linearGradient></defs><g id="Capa_1" data-name="Capa 1"><g class="cls-6"><rect class="cls-7" x="1.16" width="507.71" height="507.71"/><g class="cls-8"><path class="cls-9" d="M333.57,29.82C412.75,92.15,426.4,206.87,364.07,286a182.44,182.44,0,0,1-256.22,30.5C28.67,254.21,15,139.5,77.35,60.32A182.46,182.46,0,0,1,333.57,29.82Z" transform="translate(41.83 9.28)"/></g><path class="cls-10" d="M336.52,170.07a115.86,115.86,0,0,0-231.63,0Z" transform="translate(41.83 9.28)"/><path class="cls-11" d="M334.83,193.07a116.47,116.47,0,0,0,1.73-19H104.86a116,116,0,0,0,1.74,19Z" transform="translate(41.83 9.28)"/><path class="cls-12" d="M109.56,205.83a115.49,115.49,0,0,0,7,18.14H324.86a116.28,116.28,0,0,0,7-18.14Z" transform="translate(41.83 9.28)"/><path class="cls-13" d="M140.94,257.21H300.49a117.52,117.52,0,0,0,11.25-12.35,115.4,115.4,0,0,0,12.35-19.38H117.33A115.38,115.38,0,0,0,140.94,257.21Z" transform="translate(41.83 9.28)"/><path class="cls-14" d="M157,270H284.39a114,114,0,0,0,13.93-10.75H143.13q2.85,2.58,5.91,5Q153,267.29,157,270Z" transform="translate(41.83 9.28)"/><path class="cls-15" d="M168.65,276.68a116,116,0,0,0,104.16,0Z" transform="translate(41.83 9.28)"/><polygon class="cls-16" points="1.16 263.13 55.22 239.25 104.97 245.88 119.57 263.13 1.16 263.13"/><polygon class="cls-16" points="55.22 239.25 85.4 263.13 104.97 245.88 55.22 239.25"/><polygon class="cls-16" points="119.57 263.13 95.82 253.95 104.97 245.88 119.57 263.13"/><polygon class="cls-16" points="34.32 263.13 55.22 239.25 60.36 263.13 34.32 263.13"/><polygon class="cls-16" points="104.97 245.88 167.66 190.61 209.46 216.29 239.31 262.44 326.77 193 343.49 235.99 390.65 248.82 421.1 262.44 467.67 218.38 508.87 221.06 508.87 262.44 119.57 262.44 104.97 245.88"/><polygon class="cls-16" points="167.66 190.61 195.43 232.7 209.46 216.29 167.66 190.61"/><polygon class="cls-16" points="131.44 222.55 195.43 232.7 149.53 206.6 131.44 222.55"/><polygon class="cls-16" points="179.01 262.44 156.52 226.53 131.44 222.55 116.62 235.61 119.57 262.44 179.01 262.44"/><polygon class="cls-16" points="195.43 232.7 183.78 262.44 220.5 262.44 195.43 232.7"/><polygon class="cls-16" points="225.34 240.85 211.01 251.19 220.5 262.44 225.34 240.85"/><polygon class="cls-16" points="164.48 239.25 145.57 262.44 119.57 262.44 140.22 223.94 164.48 239.25"/><polygon class="cls-16" points="311.23 242.51 301.68 212.93 283.21 227.59 311.23 242.51"/><polygon class="cls-16" points="343.49 235.99 319.21 208.72 329.44 201.96 343.49 235.99"/><polygon class="cls-16" points="266.5 240.85 309.73 263.13 239.31 262.44 266.5 240.85"/><polygon class="cls-16" points="345.01 236.4 376.92 262.44 390.65 248.82 345.01 236.4"/><polygon class="cls-16" points="311.23 242.51 319.21 208.72 343.49 263.13 309.73 263.13 311.23 242.51"/><polygon class="cls-16" points="467.67 218.38 508.75 262.44 508.87 221.06 467.67 218.38"/><polygon class="cls-16" points="450.33 235.99 472.85 249.42 467.67 218.38 450.33 235.99"/><polygon class="cls-16" points="456.13 262.44 458.48 240.85 471.25 262.44 456.13 262.44"/><polygon class="cls-16" points="472.85 249.42 487.13 239.25 494.34 262.44 472.85 249.42"/><polygon class="cls-16" points="433.36 250.84 454.54 262.44 422.82 262.44 433.36 250.84"/><rect class="cls-17" x="1.16" y="260.96" width="507.71" height="246.74"/><rect class="cls-18" x="-116.91" y="374.46" width="262.14" height="1.19" transform="translate(-301.85 271.13) rotate(-70.28)"/><polygon class="cls-18" points="0 375.06 56.98 261.23 55.91 260.7 0 372.39 0 375.06"/><rect class="cls-18" x="-45.52" y="374.46" width="252.74" height="1.19" transform="translate(-260.98 381.74) rotate(-77.45)"/><rect class="cls-18" x="20.68" y="374.46" width="248.12" height="1.19" transform="translate(-201.66 488.71) rotate(-83.95)"/><rect class="cls-18" x="414.37" y="243.99" width="1.19" height="262.14" transform="translate(-60.43 171.41) rotate(-19.73)"/><rect class="cls-18" x="347.68" y="248.69" width="1.19" height="252.74" transform="translate(-31.11 93.59) rotate(-12.51)"/><rect class="cls-18" x="283.8" y="251" width="1.19" height="248.12" transform="translate(4 41.24) rotate(-6.03)"/><rect class="cls-18" x="254.41" y="260.96" width="1.19" height="246.75"/><rect class="cls-18" x="1.16" y="465.49" width="506.71" height="1.19"/><rect class="cls-18" x="1.16" y="405.79" width="506.71" height="1.19"/><rect class="cls-18" x="1.16" y="346.08" width="506.71" height="1.19"/><polygon class="cls-18" points="507.87 362.55 456.89 260.7 455.82 261.23 507.87 365.21 507.87 362.55"/><rect class="cls-18" x="1.16" y="286.38" width="506.71" height="1.19"/><g class="cls-19"><rect class="cls-20" x="1.27" y="260.22" width="507.47" height="247.49"/></g></g><text class="cls-21" transform="translate(104.03 309.88)">山</text></g></svg>