<svg height='100px' width='100px'  fill="#000000" xmlns="http://www.w3.org/2000/svg" xmlns:xlink="http://www.w3.org/1999/xlink" version="1.1" x="0px" y="0px" viewBox="0 0 100 60" enable-background="new 0 0 100 60" xml:space="preserve"><path d="M93.6,25.3c-1.6-0.9-2.8-1.1-4.7-1.9c-1.3-0.7-3-1.5-4.9-2.5c0.1-0.3,0.3-0.5,0.3-0.5s-1.9-0.8-4-1.3  c-1.5-0.7-3-1.4-4.7-2.2c0.3-0.4,0.6-0.7,0.6-0.7s-3.8-1.2-6.6-1.8c-0.8-0.3-1.7-0.7-2.6-1c0.4-0.5,1.5-1.1,1.5-1.1s-5-1-7.1-0.9  c-0.5-0.2-1-0.3-1.5-0.5c0-0.6,0.2-1.5,0.2-1.5S54.6,8,52.3,8.7c-1.5,0.4-1.6-0.4-1.6-0.4c-0.2-0.9,0.2-2.1,0.2-2.1  s-6.5,0.4-9.2,1.1c-1,0.2-1.1-0.1-1.7-0.1C39.8,6.4,40.3,5,40.3,5s-8.7,2.4-10.2,3c-0.2,0-0.4,0.1-0.6,0.1c-0.7-0.2-1.8-1.5-1.8-1.5  s-7.1,3.6-7.8,4.8c-0.7,1.2-2.4-0.1-2.4-0.1s-4.1,1.9-6.1,6.2c-0.9,1.8-1.9,3.7-1.6,6.7c0.2,2,1.8,2.5,1.7,2.8  c-2.5-0.1-4.8-0.3-6-0.8l-0.2,3.9c1.4,0.7,3.5,1,5.7,1.1v0.1c0.1,0.3-1,0.4-1,1.3c0.1,1.2,0.4,2.4,0.8,3.4  c3.8,10.3,14.8,14.7,14.8,14.7s0.2-6.1,1.1-1.9c1,4.2,13.7,5.8,13.7,5.8s-0.7-3.1,0.6-1.5c1.3,1.6,12.9,0.5,12.9,0.5  s-0.1-1.2-1.3-1.6c-1.1-0.4,13-2.3,13-2.3s-1.1-0.3-1.9-1.6s8.3-3.3,8.3-3.3s-0.9-0.9-0.9-2s7.1-2.1,7.1-2.1s-1.2-1.9-1.5-2.5  c-0.3-0.6,6.4-2.5,6.4-2.5s-0.3-0.6-0.4-1.4c0.5-0.3,1-0.6,1.5-0.9c1.2-0.4,2.8-0.6,2.8-0.6s-0.5-0.3-0.7-0.6c0.6-0.4,1.1-0.7,1.6-1  c1.4-0.6,3.6-2,4.8-3.4c1.5-1.2,2.3-2,2.3-2S95.1,25.8,93.6,25.3z"></path></svg>