<svg height='100px' width='100px'  fill="#00000020" xmlns="http://www.w3.org/2000/svg" xmlns:xlink="http://www.w3.org/1999/xlink" version="1.1" x="0px" y="0px" viewBox="0 0 100 100" style="enable-background:new 0 0 100 100;" xml:space="preserve"><path d="M77.7,46.5v-1.2c0-1.8-1.5-3.3-3.3-3.3H36.9l-3.4-20.4c0-0.1,0-0.3,0-0.4v-14c0-1.5-1.2-2.7-2.7-2.7h-5.7  c-1.5,0-2.7,1.2-2.7,2.7V22c0,0.2,0,0.3,0,0.5l8.4,49.7c0.2,1.3,1.3,2.2,2.7,2.2h39.3c1.2,0,2.3-0.9,2.6-2.1l2.3-9.6  c0.4-1.7-0.9-3.3-2.6-3.3h-33c-1.3,0-2.4-0.9-2.7-2.2l-1.2-7.4h36.2C76.2,49.8,77.7,48.3,77.7,46.5z M71.7,95.5H35  c-1.8,0-3.2-1.4-3.2-3.2V91c0-1.8,1.4-3.2,3.2-3.2h36.8c1.8,0,3.2,1.4,3.2,3.2v1.2C74.9,94.1,73.5,95.5,71.7,95.5z"></path></svg>