<svg height='100px' width='100px'  fill="#000000" xmlns="http://www.w3.org/2000/svg" xmlns:xlink="http://www.w3.org/1999/xlink" version="1.1" x="0px" y="0px" viewBox="-0.25 -0.25 5.5 5.5" enable-background="new 0 0 5 5.001" xml:space="preserve"><g><path fill="#000000" d="M4.167,2.383c-0.17-0.198-0.389-0.405-0.641-0.405C3.308,1.734,2.688,1.156,2.585,1.18   C2.464,1.209,2.356,1.325,2.263,1.408C2.147,1.506,2.06,1.639,1.978,1.767c-0.084,0.132-0.158,0.269-0.27,0.385   c-0.115,0.116-0.289-0.009-0.4-0.083C1.216,2.006,1.085,2.057,1.03,2.148C0.792,2.537,0.226,3.31,0.233,3.317   c0.004,0.276,1.021,0.504,2.271,0.504c0.998,0,1.84-0.146,2.15-0.339c0.057-0.042,0.094-0.079,0.111-0.12   C4.774,3.347,4.378,2.627,4.167,2.383z M1.204,2.86c-0.008-0.079-0.092-0.134-0.16-0.112c0.049-0.083,0.094-0.166,0.152-0.24   c0.008-0.004,0.016-0.013,0.025-0.017c0.094,0.05,0.189,0.074,0.285,0.079C1.425,2.693,1.325,2.804,1.204,2.86z M3.655,2.744   c-0.029-0.029-0.078,0-0.066,0.041C3.603,2.813,3.61,2.846,3.622,2.879C3.606,2.875,3.589,2.875,3.573,2.872   c-0.084-0.008-0.17-0.017-0.258-0.025c-0.004,0-0.008,0-0.012,0C3.245,2.837,3.179,2.833,3.118,2.83   c0.02,0.101,0.041,0.198,0.049,0.29c-0.025-0.025-0.049-0.046-0.07-0.07c-0.074-0.07-0.141-0.148-0.201-0.227   c-0.059-0.07-0.107-0.145-0.158-0.22C2.542,2.322,2.37,1.932,2.53,1.614c0.215,0.285,0.506,0.501,0.748,0.762   C3.29,2.387,3.308,2.4,3.323,2.408C3.448,2.541,3.626,2.64,3.722,2.8C3.7,2.785,3.677,2.763,3.655,2.744z"></path></g></svg>