<?xml version="1.0" encoding="utf-8"?>
<!-- Generator: Adobe Illustrator 25.2.3, SVG Export Plug-In . SVG Version: 6.00 Build 0)  -->
<svg version="1.1" id="Layer_1" xmlns="http://www.w3.org/2000/svg" xmlns:xlink="http://www.w3.org/1999/xlink" x="0px" y="0px"
	 viewBox="0 0 1600.8 1093.4" style="enable-background:new 0 0 1600.8 1093.4;" xml:space="preserve">
<style type="text/css">
	.st0{opacity:0.65;enable-background:new    ;}
	.st1{fill:none;stroke:#FFFFFF;stroke-width:7;stroke-miterlimit:10;}
	.st2{fill:#FFFFFF;}
	.st3{opacity:0.3;fill:#FFFFFF;}
</style>
<g id="BG">
	<polygon id="Background" class="st0" points="3.5,9.1 3.5,820.1 95.6,912.2 692.5,912.2 870.3,1089.9 1596.2,1089.9 1596.2,132.3 
		1545.6,81.7 1474.8,10.9 	"/>
	<polygon id="Background-2" class="st1" points="3.5,9.1 3.5,820.1 95.6,912.2 692.5,912.2 870.3,1089.9 1596.2,1089.9 
		1596.2,132.3 1545.6,81.7 1474.8,10.9 	"/>
</g>
<g id="Border">
	<polygon class="st1" points="4.7,3.5 4.7,814.5 96.7,906.5 693.7,906.5 871.4,1084.3 1597.3,1084.3 1597.3,126.7 1546.7,76.1 
		1476,5.3 	"/>
	<polyline id="borde2" class="st1" points="1545.8,1084.3 1545.8,986.7 1521.4,962.3 1521.4,349.9 1547.1,324.2 1547.1,76.1 	"/>
	<polygon class="st2" points="4.7,960.8 4.7,1074.2 119.3,1074.2 	"/>
</g>
<g id="Elements">
	<polygon class="st2" points="1533.5,873.3 1586.2,820.6 1586.2,906.2 1534.8,957.5 	"/>
	<polygon class="st2" points="1533.5,771.3 1586.2,718.6 1586.2,804.2 1534.8,855.5 	"/>
	<polygon class="st2" points="1533.5,669.3 1586.2,616.6 1586.2,702.2 1534.8,753.5 	"/>
	<polygon class="st2" points="1533.5,567.3 1586.2,514.6 1586.2,600.2 1534.8,651.5 	"/>
	<polygon class="st2" points="1533.5,465.3 1586.2,412.6 1586.2,498.2 1534.8,549.5 	"/>
	<polygon class="st2" points="1533.5,363.3 1586.2,310.6 1586.2,396.2 1534.8,447.5 	"/>
	<polygon class="st2" points="518.3,938.9 655.3,1074.8 803.5,1074.8 667.2,938.6 	"/>
	<polygon class="st2" points="318.3,938.9 455.3,1074.8 603.5,1074.8 467.2,938.6 	"/>
	<polygon class="st2" points="118.3,938.9 255.3,1074.8 403.5,1074.8 267.2,938.6 	"/>
</g>
<g id="left">
	<g id="left_1_">
		<path class="st2" d="M68.5,68.9h4.8l0.5,5.7H74c3.6-3.7,7.5-6.6,12.8-6.6c8.1,0,11.8,4.8,11.8,13.7v21.1h-5.8V82.5
			c0-6.4-2.2-9.5-7.8-9.5c-4.1,0-6.8,2-10.7,6.1v23.7h-5.8V68.9z"/>
		<path class="st2" d="M109.6,94.1c0-7.6,7.1-11.3,24.7-12.7c-0.2-4.6-2.5-8.5-9-8.5c-4.4,0-8.8,2.1-11.9,4.1l-2.3-3.9
			c3.5-2.2,9.2-4.9,15.2-4.9c9.3,0,13.9,5.5,13.9,14v20.9h-4.8l-0.5-4.6h-0.2c-3.7,2.9-8.6,5.5-13.4,5.5
			C114.8,103.7,109.6,100.2,109.6,94.1z M134.3,94v-8.8c-14.6,1.1-19,4-19,8.5c0,3.9,3.5,5.4,7.4,5.4C126.6,99,130.4,97.2,134.3,94z
			"/>
		<path class="st2" d="M150,68.9h4.6l0.5,4.5h0.1c1.8-3.2,3.9-5.3,7.8-5.3c3.4,0,5.5,2,6.4,5.9c2-3.6,4.1-5.9,8-5.9
			c4.8,0,7.6,3.7,7.6,10.5v24.4h-5.7V78.9c0-3.9-1.1-6-3.6-6c-2.4,0-3.6,1.8-5.5,5.3v24.6h-5.3V78.9c0-3.9-1-6-3.5-6
			c-2.4,0-3.9,1.8-5.6,5.3v24.6H150V68.9z"/>
		<path class="st2" d="M192.7,85.8c0-11.1,8.3-17.8,17.4-17.8c9.8,0,15.5,6.4,15.5,16c0,1.3-0.1,2.6-0.3,3.5h-28.8V83h25.3l-1.5,1.6
			c0-8.1-4-12-10.2-12c-6.3,0-11.8,4.8-11.8,13.2c0,8.8,5.7,13.3,13.3,13.3c4.1,0,7.3-1.3,10.4-3.2l2.1,3.8
			c-3.4,2.2-7.7,4.1-13.2,4.1C200.9,103.7,192.7,97.1,192.7,85.8z"/>
		<path class="st2" d="M245.3,72.7c0-3.5,2.5-6,5.7-6c3.2,0,5.7,2.5,5.7,6c0,3.6-2.5,6-5.7,6C247.8,78.7,245.3,76.3,245.3,72.7z
			 M245.3,97.8c0-3.5,2.5-6,5.7-6c3.2,0,5.7,2.5,5.7,6c0,3.6-2.5,6-5.7,6C247.8,103.7,245.3,101.3,245.3,97.8z"/>
		<path class="st2" d="M76.4,173.7v-16.1h-9.7v-4.3l9.9-0.4l0.8-10.9h4.8v10.9h16.7v4.7H82.2v16.2c0,6.1,2,9.2,8.6,9.2
			c3.2,0,5.7-0.6,8.1-1.5l1.3,4.3c-3.1,1.1-6.4,2-10.6,2C79.6,187.7,76.4,182.1,76.4,173.7z"/>
		<path class="st2" d="M108.7,200.8l1.2-4.6c0.9,0.3,2,0.5,3.1,0.5c4.8,0,7.6-3,9.3-7.2l1-2.5l-15.8-34.1h5.9l8.3,18.8
			c1.3,3,2.8,6.6,4.2,9.9h0.3c1.2-3.2,2.5-6.8,3.6-9.9l7.4-18.8h5.6l-15.1,36.8c-2.5,6.7-6.7,11.8-14.4,11.8
			C111.6,201.5,109.9,201.2,108.7,200.8z"/>
		<path class="st2" d="M152.5,152.9h4.8l0.5,4.3h0.2c3.2-3,7.6-5.2,11.8-5.2c9.2,0,14.1,6.8,14.1,17.4c0,11.6-7.3,18.3-15.5,18.3
			c-3.2,0-7.1-1.6-10.2-4.4H158l0.3,6.4v11.5h-5.8V152.9z M177.8,169.4c0-7.5-2.8-12.5-9.6-12.5c-3,0-6.5,1.5-9.9,5v16.9
			c3.2,2.9,6.7,3.9,9,3.9C173.4,182.8,177.8,177.8,177.8,169.4z"/>
		<path class="st2" d="M192.7,169.8c0-11.1,8.3-17.8,17.4-17.8c9.8,0,15.5,6.4,15.5,16c0,1.3-0.1,2.6-0.3,3.5h-28.8V167h25.3
			l-1.5,1.6c0-8.1-4-12-10.2-12c-6.3,0-11.8,4.8-11.8,13.2c0,8.8,5.7,13.3,13.3,13.3c4.1,0,7.3-1.3,10.4-3.2l2.1,3.8
			c-3.4,2.2-7.7,4.1-13.2,4.1C200.9,187.7,192.7,181.1,192.7,169.8z"/>
		<path class="st2" d="M245.3,156.7c0-3.5,2.5-6,5.7-6c3.2,0,5.7,2.5,5.7,6c0,3.6-2.5,6-5.7,6C247.8,162.7,245.3,160.3,245.3,156.7z
			 M245.3,181.8c0-3.5,2.5-6,5.7-6c3.2,0,5.7,2.5,5.7,6c0,3.6-2.5,6-5.7,6C247.8,187.7,245.3,185.3,245.3,181.8z"/>
		<path class="st2" d="M84,241.6H68.3v-4.7h21.6v34H84V241.6z M81.7,225.2c0-2.7,2-4.5,4.6-4.5c2.7,0,4.6,1.8,4.6,4.5
			c0,2.7-2,4.5-4.6,4.5C83.7,229.7,81.7,228,81.7,225.2z"/>
		<path class="st2" d="M108.2,253.9c0-11.1,7.4-17.9,15.4-17.9c4.1,0,7.2,1.6,10.2,4.3h0.1l-0.3-6.2V221h5.8v49.8h-4.8l-0.5-4.5H134
			c-2.8,2.9-6.9,5.3-11.1,5.3C114.1,271.7,108.2,265.3,108.2,253.9z M133.7,261.8v-16.9c-3.1-2.9-6-3.9-8.9-3.9
			c-5.9,0-10.6,5.2-10.6,13c0,8.1,3.8,13,10,13C127.5,266.8,130.7,265.1,133.7,261.8z"/>
		<path class="st2" d="M161.3,240.7c0-3.5,2.5-6,5.7-6c3.2,0,5.7,2.5,5.7,6c0,3.6-2.5,6-5.7,6C163.8,246.7,161.3,244.3,161.3,240.7z
			 M161.3,265.8c0-3.5,2.5-6,5.7-6c3.2,0,5.7,2.5,5.7,6c0,3.6-2.5,6-5.7,6C163.8,271.7,161.3,269.3,161.3,265.8z"/>
		<path class="st2" d="M68.5,305h5.8v13.6l-0.4,8.1h0.2c3.4-3.8,7.4-6.7,12.7-6.7c8.1,0,11.8,4.8,11.8,13.7v21.1h-5.8v-20.4
			c0-6.4-2.2-9.5-7.8-9.5c-4.1,0-6.8,2-10.7,6.1v23.7h-5.8V305z"/>
		<path class="st2" d="M109.6,346.1c0-7.6,7.1-11.3,24.7-12.7c-0.2-4.6-2.5-8.5-9-8.5c-4.4,0-8.8,2.1-11.9,4.1l-2.3-3.9
			c3.5-2.2,9.2-4.9,15.2-4.9c9.3,0,13.9,5.5,13.9,14v20.9h-4.8l-0.5-4.6h-0.2c-3.7,2.9-8.6,5.5-13.4,5.5
			C114.8,355.7,109.6,352.2,109.6,346.1z M134.3,346v-8.8c-14.6,1.1-19,4-19,8.5c0,3.9,3.5,5.4,7.4,5.4
			C126.6,351,130.4,349.2,134.3,346z"/>
		<path class="st2" d="M151,350.4l2.7-3.9c3.9,2.8,8.5,4.6,14.8,4.6c5.7,0,8.5-2.4,8.5-5.3c0-2.6-1.3-4.4-10.6-6.3
			c-8.9-1.8-13.3-4.8-13.3-9.9c0-5.5,4.8-9.7,14.1-9.7c5.2,0,10.4,2,13.7,4.3l-2.8,3.7c-3.2-2.2-7.1-3.6-11.4-3.6
			c-5.7,0-7.8,2.3-7.8,4.9c0,2.9,2.9,4.2,9.9,5.7c11.3,2.5,14,5.3,14,10.5c0,5.5-5.4,10.2-15.1,10.2
			C161,355.7,155.1,353.3,151,350.4z"/>
		<path class="st2" d="M194.5,305h5.8v13.6l-0.4,8.1h0.2c3.4-3.8,7.4-6.7,12.7-6.7c8.1,0,11.8,4.8,11.8,13.7v21.1h-5.8v-20.4
			c0-6.4-2.2-9.5-7.8-9.5c-4.1,0-6.8,2-10.7,6.1v23.7h-5.8V305z"/>
		<path class="st2" d="M245.3,324.7c0-3.5,2.5-6,5.7-6c3.2,0,5.7,2.5,5.7,6c0,3.6-2.5,6-5.7,6C247.8,330.7,245.3,328.3,245.3,324.7z
			 M245.3,349.8c0-3.5,2.5-6,5.7-6c3.2,0,5.7,2.5,5.7,6c0,3.6-2.5,6-5.7,6C247.8,355.7,245.3,353.3,245.3,349.8z"/>
		<path class="st2" d="M66.2,421.9c0-11.1,7.4-17.9,15.4-17.9c4.1,0,7.2,1.6,10.2,4.3H92l-0.3-6.2V389h5.8v49.8h-4.8l-0.5-4.5H92
			c-2.8,2.9-6.9,5.3-11.1,5.3C72.1,439.7,66.2,433.3,66.2,421.9z M91.7,429.8v-16.9c-3.1-2.9-6-3.9-8.9-3.9c-5.9,0-10.6,5.2-10.6,13
			c0,8.1,3.8,13,10,13C85.5,434.8,88.7,433.1,91.7,429.8z"/>
		<path class="st2" d="M108.8,421.8c0-11.1,8.3-17.8,17.4-17.8c9.8,0,15.5,6.4,15.5,16c0,1.3-0.1,2.6-0.3,3.5h-28.8V419h25.3
			l-1.5,1.6c0-8.1-4-12-10.2-12c-6.3,0-11.8,4.8-11.8,13.2c0,8.8,5.7,13.3,13.3,13.3c4.1,0,7.3-1.3,10.4-3.2l2.1,3.8
			c-3.4,2.2-7.7,4.1-13.2,4.1C116.9,439.7,108.8,433.1,108.8,421.8z"/>
		<path class="st2" d="M151,434.4l2.7-3.9c3.9,2.8,8.5,4.6,14.8,4.6c5.7,0,8.5-2.4,8.5-5.3c0-2.6-1.3-4.4-10.6-6.3
			c-8.9-1.8-13.3-4.8-13.3-9.9c0-5.5,4.8-9.7,14.1-9.7c5.2,0,10.4,2,13.7,4.3l-2.8,3.7c-3.2-2.2-7.1-3.6-11.4-3.6
			c-5.7,0-7.8,2.3-7.8,4.9c0,2.9,2.9,4.2,9.9,5.7c11.3,2.5,14,5.3,14,10.5c0,5.5-5.4,10.2-15.1,10.2
			C161,439.7,155.1,437.3,151,434.4z"/>
		<path class="st2" d="M193.6,421.9c0-11.4,8.7-17.9,19-17.9c5.5,0,9.6,2.2,12.4,5l-2.9,3.7c-2.8-2.4-5.7-3.9-9.3-3.9
			c-7.8,0-13.2,5.3-13.2,13.1c0,7.8,5.3,13,13.1,13c4.2,0,7.7-1.9,10.5-4.3l2.6,3.8c-3.8,3.4-8.5,5.3-13.5,5.3
			C201.6,439.7,193.6,433.2,193.6,421.9z"/>
		<path class="st2" d="M240.1,404.9h4.8l0.6,8.1h0.1c3.6-5.5,8.9-8.9,15.2-8.9c2.5,0,4.6,0.4,6.7,1.4l-1.3,5
			c-2.4-0.8-3.6-1.1-6.3-1.1c-5.1,0-9.9,2.6-14,9.7v19.9h-5.8V404.9z"/>
		<path class="st2" d="M294,409.6h-15.8v-4.7h21.6v34H294V409.6z M291.7,393.2c0-2.7,2-4.5,4.6-4.5c2.7,0,4.6,1.8,4.6,4.5
			c0,2.7-2,4.5-4.6,4.5C293.7,397.7,291.7,396,291.7,393.2z"/>
		<path class="st2" d="M320.5,404.9h4.8l0.5,4.3h0.2c3.2-3,7.6-5.2,11.8-5.2c9.2,0,14.1,6.8,14.1,17.4c0,11.6-7.3,18.3-15.5,18.3
			c-3.2,0-7.1-1.6-10.2-4.4H326l0.3,6.4v11.5h-5.8V404.9z M345.8,421.4c0-7.5-2.8-12.5-9.6-12.5c-3,0-6.5,1.5-9.9,5v16.9
			c3.2,2.9,6.7,3.9,9,3.9C341.4,434.8,345.8,429.8,345.8,421.4z"/>
		<path class="st2" d="M370.4,425.7v-16.1h-9.7v-4.3l9.9-0.4l0.8-10.9h4.8v10.9h16.7v4.7h-16.7v16.2c0,6.1,2,9.2,8.6,9.2
			c3.1,0,5.7-0.6,8.1-1.5l1.3,4.3c-3.1,1.1-6.4,2-10.6,2C373.6,439.7,370.4,434.1,370.4,425.7z"/>
		<path class="st2" d="M420,409.6h-15.8v-4.7h21.6v34H420V409.6z M417.7,393.2c0-2.7,2-4.5,4.6-4.5c2.7,0,4.6,1.8,4.6,4.5
			c0,2.7-2,4.5-4.6,4.5C419.7,397.7,417.7,396,417.7,393.2z"/>
		<path class="st2" d="M444.2,421.9c0-11.4,7.8-17.9,16.8-17.9s16.8,6.5,16.8,17.9c0,11.3-7.8,17.8-16.8,17.8
			S444.2,433.2,444.2,421.9z M471.8,421.9c0-7.8-4.3-13.1-10.9-13.1c-6.5,0-10.9,5.3-10.9,13.1c0,7.8,4.3,13,10.9,13
			C467.5,434.9,471.8,429.7,471.8,421.9z"/>
		<path class="st2" d="M488.5,404.9h4.8l0.5,5.7h0.3c3.6-3.7,7.5-6.6,12.8-6.6c8.1,0,11.8,4.8,11.8,13.7v21.1h-5.8v-20.4
			c0-6.4-2.2-9.5-7.8-9.5c-4.1,0-6.8,2-10.7,6.1v23.7h-5.8V404.9z"/>
		<path class="st2" d="M539.3,408.7c0-3.5,2.5-6,5.7-6c3.1,0,5.7,2.5,5.7,6c0,3.6-2.5,6-5.7,6C541.8,414.7,539.3,412.3,539.3,408.7z
			 M539.3,433.8c0-3.5,2.5-6,5.7-6c3.1,0,5.7,2.5,5.7,6c0,3.6-2.5,6-5.7,6C541.8,439.7,539.3,437.3,539.3,433.8z"/>
	</g>
</g>
<g id="right">
	<g id="right_1_">
		<path class="st3" d="M1058.9,78.5c-1.6-2-4.1-3.2-6.6-3.2c-5.6,0-8.9,5.2-8.9,10.4c0,5.1,3.4,10.2,8.8,10.2c2.5,0,5-1.3,6.7-3.2v7
			c-2.2,1-4.4,1.8-6.8,1.8c-8.5,0-14.8-7.3-14.8-15.6c0-8.6,6-16.1,14.9-16.1c2.4,0,4.7,0.6,6.7,1.8V78.5z"/>
		<path class="st3" d="M1085.2,100.7h-7.1l-7.3-12.2h-0.1v12.2h-5.9V70.5h8c6,0,10.1,2.6,10.1,9.1c0,3.8-2.1,7.7-6.2,8.4
			L1085.2,100.7z M1070.6,84.4h0.8c3.2,0,5.5-1,5.5-4.6c0-3.7-2.4-4.4-5.5-4.4h-0.8V84.4z"/>
		<path class="st3" d="M1095,75.6v6.6h9.4v5.1h-9.4v8.2h9.7v5.1h-15.6V70.5h15.6v5.1H1095z"/>
		<path class="st3" d="M1116.8,94.3l-2.5,6.4h-6.2l11.8-31h4.6l11.4,31h-6.3l-2.3-6.4H1116.8z M1121.8,78.6L1121.8,78.6l-3.4,11h7.2
			L1121.8,78.6z"/>
		<path class="st3" d="M1149.4,100.7h-5.9v-25h-6.1v-5.1h18v5.1h-6.1V100.7z"/>
		<path class="st3" d="M1173.2,101.5c-9.2,0-14.9-7-14.9-15.9c0-9,5.9-15.8,14.9-15.8c9,0,14.9,6.9,14.9,15.8
			C1188.1,94.4,1182.4,101.5,1173.2,101.5z M1173.2,75.5c-5.6,0-8.8,4.9-8.8,9.8c0,4.6,2.3,10.4,8.8,10.4s8.8-5.7,8.8-10.4
			C1182,80.4,1178.7,75.5,1173.2,75.5z"/>
		<path class="st3" d="M1213.4,100.7h-7.1l-7.3-12.2h-0.1v12.2h-5.9V70.5h8c6,0,10.1,2.6,10.1,9.1c0,3.8-2.1,7.7-6.2,8.4
			L1213.4,100.7z M1198.8,84.4h0.8c3.2,0,5.5-1,5.5-4.6c0-3.7-2.4-4.4-5.5-4.4h-0.8V84.4z"/>
		<path class="st2" d="M1042.2,161.9c0-7.6,7.1-11.3,24.7-12.7c-0.2-4.6-2.5-8.5-9-8.5c-4.4,0-8.8,2.1-11.9,4.1l-2.3-3.9
			c3.5-2.2,9.2-4.9,15.2-4.9c9.3,0,13.9,5.5,13.9,14v20.9h-4.8l-0.5-4.6h-0.2c-3.7,2.9-8.6,5.5-13.4,5.5
			C1047.4,171.5,1042.2,168,1042.2,161.9z M1066.9,161.8V153c-14.6,1.1-19,4-19,8.5c0,3.9,3.5,5.4,7.4,5.4
			C1059.2,166.8,1062.9,165,1066.9,161.8z"/>
		<path class="st2" d="M1082.1,136.7h6l7.8,19.3c1.3,3.4,2.6,6.8,3.8,10.1h0.3c1.2-3.3,2.3-6.7,3.7-10.1l7.8-19.3h5.6l-14.1,34h-6.5
			L1082.1,136.7z"/>
		<path class="st2" d="M1126.2,161.9c0-7.6,7.1-11.3,24.7-12.7c-0.2-4.6-2.5-8.5-9-8.5c-4.4,0-8.8,2.1-11.9,4.1l-2.3-3.9
			c3.5-2.2,9.2-4.9,15.2-4.9c9.3,0,13.9,5.5,13.9,14v20.9h-4.8l-0.5-4.6h-0.2c-3.7,2.9-8.6,5.5-13.4,5.5
			C1131.4,171.5,1126.2,168,1126.2,161.9z M1150.9,161.8V153c-14.6,1.1-19,4-19,8.5c0,3.9,3.5,5.4,7.4,5.4
			C1143.2,166.8,1146.9,165,1150.9,161.8z"/>
		<path class="st2" d="M1167.3,153.6c0-11.1,8.3-17.8,17.4-17.8c9.8,0,15.5,6.4,15.5,16c0,1.3-0.1,2.6-0.3,3.5h-28.8v-4.5h25.3
			l-1.5,1.6c0-8.1-4-12-10.2-12c-6.3,0-11.8,4.8-11.8,13.2c0,8.8,5.7,13.3,13.3,13.3c4.1,0,7.3-1.3,10.4-3.2l2.1,3.8
			c-3.4,2.2-7.7,4.1-13.2,4.1C1175.4,171.5,1167.3,164.9,1167.3,153.6z"/>
		<path class="st2" d="M1214.7,136.7h4.8l0.6,8.1h0.1c3.6-5.5,8.9-8.9,15.2-8.9c2.5,0,4.6,0.4,6.7,1.4l-1.3,5
			c-2.4-0.8-3.6-1.1-6.3-1.1c-5.1,0-9.9,2.6-14,9.7v19.9h-5.8V136.7z"/>
		<path class="st3" d="M1052.2,279.5c-9.2,0-14.9-7-14.9-15.9c0-9,5.9-15.8,14.9-15.8c9,0,14.9,6.9,14.9,15.8
			C1067.1,272.4,1061.4,279.5,1052.2,279.5z M1052.2,253.5c-5.6,0-8.8,4.9-8.8,9.8c0,4.6,2.3,10.4,8.8,10.4c6.5,0,8.8-5.7,8.8-10.4
			C1061,258.4,1057.8,253.5,1052.2,253.5z"/>
		<path class="st3" d="M1081.5,269.1L1081.5,269.1l6.1-21h3.5l6.2,21h0.1l5.9-20.6h6.2l-10.2,30.8h-4.3l-6-19.7h-0.1l-5.7,19.7h-4.3
			l-9.6-30.8h6.2L1081.5,269.1z"/>
		<path class="st3" d="M1113.1,247.7h4.2l15.9,21.1h0.1v-20.3h5.9v30.8h-4.2l-15.9-21.1h-0.1v20.5h-5.9V247.7z"/>
		<path class="st3" d="M1151.3,253.6v6.6h9.4v5.1h-9.4v8.2h9.7v5.1h-15.6v-30.2h15.6v5.1H1151.3z"/>
		<path class="st3" d="M1187.4,278.7h-7.1l-7.3-12.2h-0.1v12.2h-5.9v-30.2h8c6,0,10.1,2.6,10.1,9.1c0,3.8-2.1,7.7-6.2,8.4
			L1187.4,278.7z M1172.8,262.4h0.8c3.2,0,5.5-1,5.5-4.6c0-3.7-2.4-4.4-5.5-4.4h-0.8V262.4z"/>
		<path class="st2" d="M1041.5,344.2l2.7-3.9c3.9,2.8,8.5,4.6,14.8,4.6c5.7,0,8.5-2.4,8.5-5.3c0-2.6-1.3-4.4-10.6-6.3
			c-8.9-1.8-13.3-4.8-13.3-9.9c0-5.5,4.8-9.7,14.1-9.7c5.2,0,10.4,2,13.7,4.3l-2.8,3.7c-3.2-2.2-7.1-3.6-11.4-3.6
			c-5.7,0-7.8,2.3-7.8,4.9c0,2.9,2.9,4.2,9.9,5.7c11.3,2.5,14,5.3,14,10.5c0,5.5-5.4,10.2-15.1,10.2
			C1051.6,349.5,1045.7,347.1,1041.5,344.2z"/>
		<path class="st2" d="M1084.2,339.9c0-7.6,7.1-11.3,24.7-12.7c-0.2-4.6-2.5-8.5-9-8.5c-4.4,0-8.8,2.1-11.9,4.1l-2.3-3.9
			c3.5-2.2,9.2-4.9,15.2-4.9c9.3,0,13.9,5.5,13.9,14v20.9h-4.8l-0.5-4.6h-0.2c-3.7,2.9-8.6,5.5-13.4,5.5
			C1089.4,349.5,1084.2,346,1084.2,339.9z M1108.9,339.8V331c-14.6,1.1-19,4-19,8.5c0,3.9,3.5,5.4,7.4,5.4
			C1101.2,344.8,1104.9,343,1108.9,339.8z"/>
		<path class="st2" d="M1126.2,331.7c0-11.4,8.7-17.9,19-17.9c5.5,0,9.6,2.2,12.4,5l-2.9,3.7c-2.8-2.4-5.7-3.9-9.3-3.9
			c-7.8,0-13.2,5.3-13.2,13.1c0,7.8,5.3,13,13.1,13c4.2,0,7.7-1.9,10.5-4.3l2.6,3.8c-3.8,3.4-8.5,5.3-13.5,5.3
			C1134.1,349.5,1126.2,343,1126.2,331.7z"/>
		<path class="st2" d="M1169.9,298.8h5.8v33.7h0.3l18.3-17.9h6.7l-25.2,24.8v9.2h-5.8V298.8z M1183,330.6l3.5-3.8l16.2,21.8h-6.4
			L1183,330.6z"/>
		<path class="st2" d="M1209.5,344.2l2.7-3.9c3.9,2.8,8.5,4.6,14.8,4.6c5.7,0,8.5-2.4,8.5-5.3c0-2.6-1.3-4.4-10.6-6.3
			c-8.9-1.8-13.3-4.8-13.3-9.9c0-5.5,4.8-9.7,14.1-9.7c5.2,0,10.4,2,13.7,4.3l-2.8,3.7c-3.2-2.2-7.1-3.6-11.4-3.6
			c-5.7,0-7.8,2.3-7.8,4.9c0,2.9,2.9,4.2,9.9,5.7c11.3,2.5,14,5.3,14,10.5c0,5.5-5.4,10.2-15.1,10.2
			C1219.6,349.5,1213.7,347.1,1209.5,344.2z"/>
	</g>
</g>
<circle id="creator-image" class="st2" cx="949.4" cy="128.6" r="64"/>
<circle class="st2" cx="949.4" cy="310.6" r="64"/>
</svg>
