<svg xmlns="http://www.w3.org/2000/svg" xmlns:xlink="http://www.w3.org/1999/xlink" viewBox="0 0 256 256" width="256" height="256"><defs><style>.cls-1{isolation:isolate;}.cls-2{fill:#101f22;}.cls-3{fill:#715f93;}.cls-4{fill:#ebebeb;}.cls-5{fill:#fd0100;}.cls-6{fill:url(#linear-gradient);}.cls-7{fill:url(#linear-gradient-2);}.cls-8{fill:url(#linear-gradient-3);}.cls-9{fill:url(#linear-gradient-4);}.cls-10{fill:url(#linear-gradient-5);}.cls-11{fill:url(#linear-gradient-6);}.cls-12{fill:url(#linear-gradient-7);}.cls-13{fill:url(#linear-gradient-8);}.cls-14{fill:url(#linear-gradient-9);}.cls-15{fill:url(#linear-gradient-10);}.cls-16{fill:url(#linear-gradient-11);}.cls-17{fill:url(#linear-gradient-12);}.cls-18{fill:url(#linear-gradient-13);}.cls-19{fill:url(#linear-gradient-14);}.cls-20{fill:#3f6380;}.cls-21{fill:#b9eef3;}.cls-22{fill:#203b4d;}.cls-23{fill:#6e9ca6;}.cls-24{fill:#fff;}.cls-25{fill:#968ac5;}.cls-26{fill:#d5cef7;}.cls-27{fill:#668995;mix-blend-mode:multiply;}</style><linearGradient id="linear-gradient" x1="80.6" y1="108.64" x2="69.89" y2="199.27" gradientUnits="userSpaceOnUse"><stop offset="0" stop-color="#fe317f"/><stop offset="1" stop-color="maroon"/></linearGradient><linearGradient id="linear-gradient-2" x1="30.64" y1="49.48" x2="79.93" y2="49.48" gradientUnits="userSpaceOnUse"><stop offset="0" stop-color="#fff" stop-opacity="0"/><stop offset="1" stop-color="#fff"/></linearGradient><linearGradient id="linear-gradient-3" x1="67.38" y1="45.06" x2="104.12" y2="45.06" xlink:href="#linear-gradient-2"/><linearGradient id="linear-gradient-4" x1="82.36" y1="64.9" x2="180.3" y2="62.3" xlink:href="#linear-gradient-2"/><linearGradient id="linear-gradient-5" x1="30.64" y1="88.08" x2="72.72" y2="88.08" xlink:href="#linear-gradient-2"/><linearGradient id="linear-gradient-6" x1="113.78" y1="12.06" x2="113.13" y2="94.44" gradientUnits="userSpaceOnUse"><stop offset="0" stop-color="#fe317f" stop-opacity="0"/><stop offset="1" stop-color="maroon"/></linearGradient><linearGradient id="linear-gradient-7" x1="130.77" y1="70.53" x2="222.22" y2="73.13" xlink:href="#linear-gradient-6"/><linearGradient id="linear-gradient-8" x1="100.3" y1="195.43" x2="80.19" y2="91" xlink:href="#linear-gradient-6"/><linearGradient id="linear-gradient-9" x1="121.95" y1="175.35" x2="125.19" y2="115.03" xlink:href="#linear-gradient-6"/><linearGradient id="linear-gradient-10" x1="132.52" y1="176.93" x2="175.33" y2="91.31" xlink:href="#linear-gradient-6"/><linearGradient id="linear-gradient-11" x1="129.93" y1="151.79" x2="205.27" y2="151.79" xlink:href="#linear-gradient-6"/><linearGradient id="linear-gradient-12" x1="230.54" y1="60.94" x2="196.16" y2="134.88" xlink:href="#linear-gradient"/><linearGradient id="linear-gradient-13" x1="83.65" y1="49.48" x2="122.95" y2="49.48" xlink:href="#linear-gradient-2"/><linearGradient id="linear-gradient-14" x1="130.87" y1="66.99" x2="222.33" y2="69.58" xlink:href="#linear-gradient-6"/></defs><g class="cls-1"><g id="Layer_2" data-name="Layer 2"><polygon points="244.14 64.69 244.31 62.64 243.05 61.01 203.55 9.92 201.95 7.85 199.34 7.85 148.25 7.85 145.94 7.85 144.37 9.53 128.1 26.85 107.49 9.13 106 7.85 104.02 7.85 54.65 7.85 52.24 7.85 50.65 9.66 10.29 55.6 8.97 57.11 8.97 59.11 8.97 62.44 8.97 103.45 8.97 109.99 8.97 111.97 10.26 113.46 59.53 170.6 122.53 243.66 126.48 248.24 130.53 243.74 238.91 122.92 240.12 121.57 240.25 119.76 244.15 68.37 244.29 66.43 244.03 66.07 244.14 64.69"/><polygon class="cls-2" points="237.06 64.93 198.02 14.43 147.53 14.43 128.01 35.23 103.82 14.43 55.02 14.43 15.13 59.84 15.13 63.13 15.13 103.66 15.13 110.12 63.83 166.59 63.83 166.59 126.1 238.79 233.21 119.38 237.06 68.59 236.79 68.22 237.06 64.93"/><path d="M125.94,255.15,4.33,114.14V55.77L50.13,3.63h57.69l19.39,16.66L142.85,3.63h60.48l44.84,58-.29,3.49.25.34-4.42,58.4Zm-100-149L126.26,222.44l96.46-107.53L226,71.71l-.29-.4.26-3.09-33.24-43H152.2L128.81,50.16l-29-24.93H59.91l-34,38.68Z"/></g><g id="Layer_1" data-name="Layer 1"><polygon class="cls-3" points="15.13 63.13 55.02 14.43 103.82 14.43 128.01 36.73 147.53 14.43 198.02 14.43 237.06 68.59 233.21 119.38 126.1 238.79 15.13 110.12 15.13 63.13"/><polygon class="cls-4" points="15.13 59.84 55.02 14.43 103.82 14.43 128.01 35.23 147.53 14.43 198.02 14.43 237.06 64.93 233.21 112.29 126.1 223.63 15.13 103.66 15.13 59.84"/><polygon class="cls-5" points="26.97 66.15 62.6 25.59 106.2 25.59 127.8 44.17 145.24 25.59 190.35 25.59 225.22 70.7 222.19 108.03 126.1 212.47 26.97 101.03 26.97 66.15"/><polygon class="cls-6" points="127.11 43.58 106.2 25.59 62.6 25.59 26.97 66.15 26.97 101.03 126.1 212.47 127.11 211.37 127.11 43.58"/><polygon class="cls-7" points="30.64 68.78 79.93 69.94 63.42 29.01 30.64 68.78"/><polygon class="cls-8" points="80.86 61.1 67.38 29.01 104.12 29.01 80.86 61.1"/><polygon class="cls-9" points="130.86 63.2 99.93 65.52 160.85 67.38 166.2 69.94 146.44 97.38 174.81 67.38 149.69 29.01 146.67 29.01 128.76 49.48 130.86 63.2"/><polygon class="cls-10" points="57.38 103.66 30.64 102.03 30.64 72.5 72.72 72.5 57.38 103.66"/><polygon class="cls-11" points="83.65 72.5 129 69.94 137.37 88.08 142.72 92.96 142.72 103.66 109.7 103.66 85.75 75.52 83.65 72.5"/><path class="cls-12" d="M184.11,47.15,176.2,64.82l23.25,32.56L208.29,82s-13.26-4-16-9.77S184.11,47.15,184.11,47.15Z"/><polygon class="cls-13" points="59.94 103.66 99.93 104.58 106.44 109.47 121.32 200.62 59.94 103.66"/><polygon class="cls-14" points="111.09 106.91 140.16 106.91 126.1 198.29 111.09 106.91"/><polygon class="cls-15" points="132.95 180.39 145.27 108.03 189.22 106.91 132.95 180.39"/><polygon class="cls-16" points="129.93 198.29 196.2 105.28 205.27 113.19 129.93 198.29"/><polygon class="cls-17" points="201.31 101.1 212.71 110.86 220.15 105.98 220.15 84.12 213.87 88.08 201.31 101.1"/><polygon class="cls-18" points="103.88 36.69 83.65 62.27 122.95 61.1 103.88 36.69"/><path class="cls-19" d="M191.43,33.84l19.3,34.69s.93,8.53.93,10.71-17.25,24.41-17.25,24.41S216.74,87,220.15,83,216,63.19,216,63.19Z"/><path class="cls-20" d="M175.59,158.67,164,151.15s-6.88-12.45-6.45-18a63.42,63.42,0,0,1,14-1.29c7.3.22,14.17,4.51,15.67,6.87s3,10.17,3,13.46V166L176,171.77Z"/><path class="cls-3" d="M185.73,153.47l-10.14,5.2.43,13.1,14.17-5.8v-11.5Z"/><path class="cls-21" d="M186.11,155.09a48.58,48.58,0,0,1,.13,12.49l3.95-1.61V152.16c0-3.29-1.5-11.1-3-13.46s-8.37-6.65-15.67-6.87a63.42,63.42,0,0,0-14,1.29s16.32,7.94,20.62,11.59S185,149.35,186.11,155.09Z"/><polygon class="cls-22" points="110.59 213.99 110.59 195.53 124.12 168.26 140.66 197.46 140.66 213.99 125.63 220.86 110.59 213.99"/><polygon class="cls-2" points="140.66 213.99 140.66 202.13 125.63 209.48 110.59 201.89 110.59 213.99 125.63 223.63 140.66 213.99"/><polygon class="cls-23" points="124.12 168.26 125.48 195.46 110.59 195.53 124.12 168.26"/><polygon class="cls-24" points="140.66 197.46 125.48 195.46 124.12 168.26 140.66 197.46"/><polygon class="cls-25" points="125.63 209.48 125.63 223.63 140.66 213.99 140.66 202.13 125.63 209.48"/><polygon class="cls-26" points="125.63 209.48 125.48 195.46 140.66 197.46 140.66 202.13 125.63 209.48"/><polygon class="cls-21" points="58.88 145.2 65.53 141.06 89.1 136.2 86.04 152.22 79.03 157.61 74.53 163.19 59.95 156.17 58.88 145.2"/><polygon class="cls-26" points="59.95 156.17 74.53 163.19 79.03 157.61 86.04 152.22 89.1 136.2 67.15 149.7 59.95 156.17"/><path class="cls-27" d="M58.88,145.2l1.07,11,14.58,7,4.5-5.58.1-.08-12-7.83s-1.39-7.43-1.59-8.64h0Z"/><polygon class="cls-2" points="126.1 238.79 126.1 218.25 110.59 206.87 110.59 213.99 66.86 159.5 59.95 156.17 63.83 166.59 126.1 238.79"/></g></g></svg>
