<svg xmlns="http://www.w3.org/2000/svg" xmlns:xlink="http://www.w3.org/1999/xlink" viewBox="0 0 256 256" width="256" height="256"><defs><style>.cls-1{isolation:isolate;}.cls-2{fill:#715f93;}.cls-3{fill:#ebebeb;}.cls-4{fill:#fd0100;}.cls-5{fill:url(#linear-gradient);}.cls-6{fill:url(#linear-gradient-2);}.cls-7{fill:url(#linear-gradient-3);}.cls-8{fill:url(#linear-gradient-4);}.cls-9{fill:url(#linear-gradient-5);}.cls-10{fill:url(#linear-gradient-6);}.cls-11{fill:url(#linear-gradient-7);}.cls-12{fill:url(#linear-gradient-8);}.cls-13{fill:url(#linear-gradient-9);}.cls-14{fill:url(#linear-gradient-10);}.cls-15{fill:url(#linear-gradient-11);}.cls-16{fill:url(#linear-gradient-12);}.cls-17{fill:url(#linear-gradient-13);}.cls-18{fill:url(#linear-gradient-14);}.cls-19{fill:#3f6380;}.cls-20{fill:#b9eef3;}.cls-21{fill:#203b4d;}.cls-22{fill:#101f22;}.cls-23{fill:#6e9ca6;}.cls-24{fill:#fff;}.cls-25{fill:#968ac5;}.cls-26{fill:#d5cef7;}.cls-27{fill:#668995;mix-blend-mode:multiply;}</style><linearGradient id="linear-gradient" x1="75.72" y1="107.5" x2="63.5" y2="210.9" gradientUnits="userSpaceOnUse"><stop offset="0" stop-color="#fe317f"/><stop offset="1" stop-color="maroon"/></linearGradient><linearGradient id="linear-gradient-2" x1="18.71" y1="39.99" x2="74.96" y2="39.99" gradientUnits="userSpaceOnUse"><stop offset="0" stop-color="#fff" stop-opacity="0"/><stop offset="1" stop-color="#fff"/></linearGradient><linearGradient id="linear-gradient-3" x1="60.63" y1="34.94" x2="102.55" y2="34.94" xlink:href="#linear-gradient-2"/><linearGradient id="linear-gradient-4" x1="77.72" y1="57.58" x2="189.48" y2="54.62" xlink:href="#linear-gradient-2"/><linearGradient id="linear-gradient-5" x1="18.71" y1="84.03" x2="66.73" y2="84.03" xlink:href="#linear-gradient-2"/><linearGradient id="linear-gradient-6" x1="113.58" y1="-2.71" x2="112.84" y2="91.28" gradientUnits="userSpaceOnUse"><stop offset="0" stop-color="#fe317f" stop-opacity="0"/><stop offset="1" stop-color="maroon"/></linearGradient><linearGradient id="linear-gradient-7" x1="132.96" y1="64.01" x2="237.32" y2="66.97" xlink:href="#linear-gradient-6"/><linearGradient id="linear-gradient-8" x1="98.2" y1="206.52" x2="75.25" y2="87.37" xlink:href="#linear-gradient-6"/><linearGradient id="linear-gradient-9" x1="122.9" y1="183.61" x2="126.6" y2="114.78" xlink:href="#linear-gradient-6"/><linearGradient id="linear-gradient-10" x1="134.96" y1="185.42" x2="183.8" y2="87.72" xlink:href="#linear-gradient-6"/><linearGradient id="linear-gradient-11" x1="132" y1="156.73" x2="217.97" y2="156.73" xlink:href="#linear-gradient-6"/><linearGradient id="linear-gradient-12" x1="246.8" y1="53.06" x2="207.57" y2="137.44" xlink:href="#linear-gradient"/><linearGradient id="linear-gradient-13" x1="79.2" y1="39.99" x2="124.04" y2="39.99" xlink:href="#linear-gradient-2"/><linearGradient id="linear-gradient-14" x1="133.08" y1="59.97" x2="237.43" y2="62.93" xlink:href="#linear-gradient-6"/></defs><g class="cls-1"><g id="Layer_1" data-name="Layer 1"><polygon class="cls-2" points="1.02 55.56 46.53 0 102.21 0 129.81 25.44 152.08 0 209.7 0 254.25 61.79 249.85 119.75 127.63 256 1.02 109.18 1.02 55.56"/><polygon class="cls-3" points="1.02 51.81 46.53 0 102.21 0 129.81 23.73 152.08 0 209.7 0 254.25 57.62 249.85 111.66 127.63 238.7 1.02 101.81 1.02 51.81"/><polygon class="cls-4" points="14.53 59.02 55.19 12.74 104.92 12.74 129.58 33.93 149.47 12.74 200.94 12.74 240.73 64.21 237.27 106.8 127.63 225.96 14.53 98.81 14.53 59.02"/><polygon class="cls-5" points="128.79 33.25 104.92 12.74 55.19 12.74 14.53 59.02 14.53 98.81 127.63 225.96 128.79 224.7 128.79 33.25"/><polygon class="cls-6" points="18.71 62.01 74.96 63.33 56.12 16.64 18.71 62.01"/><polygon class="cls-7" points="76.02 53.25 60.63 16.64 102.55 16.64 76.02 53.25"/><polygon class="cls-8" points="133.06 55.64 97.78 58.29 167.29 60.41 173.39 63.33 150.84 94.64 183.21 60.41 154.55 16.64 151.1 16.64 130.68 39.98 133.06 55.64"/><polygon class="cls-9" points="49.22 101.81 18.71 99.95 18.71 66.25 66.73 66.25 49.22 101.81"/><polygon class="cls-10" points="79.2 66.25 130.94 63.33 140.49 84.03 146.59 89.6 146.59 101.81 108.92 101.81 81.59 69.7 79.2 66.25"/><path class="cls-11" d="M193.82,37.33l-9,20.17,26.53,37.14,10.08-17.51S206.29,72.62,203.11,66,193.82,37.33,193.82,37.33Z"/><polygon class="cls-12" points="52.14 101.81 97.78 102.87 105.2 108.44 122.19 212.44 52.14 101.81"/><polygon class="cls-13" points="110.51 105.52 143.68 105.52 127.63 209.79 110.51 105.52"/><polygon class="cls-14" points="135.45 189.36 149.51 106.8 199.66 105.52 135.45 189.36"/><polygon class="cls-15" points="132 209.79 207.62 103.66 217.97 112.68 132 209.79"/><polygon class="cls-16" points="213.46 98.89 226.46 110.03 234.95 104.46 234.95 79.52 227.78 84.03 213.46 98.89"/><polygon class="cls-17" points="102.29 25.39 79.2 54.58 124.04 53.25 102.29 25.39"/><path class="cls-18" d="M202.18,22.14l22,39.59s1.06,9.73,1.06,12.22-19.68,27.85-19.68,27.85,25.48-19,29.37-23.55-4.72-22.61-4.72-22.61Z"/><path class="cls-19" d="M184.1,164.58,170.88,156s-7.84-14.21-7.35-20.58A72.27,72.27,0,0,1,179.45,134c8.33.25,16.17,5.15,17.88,7.84s3.43,11.6,3.43,15.36v15.76l-16.17,6.61Z"/><path class="cls-2" d="M195.67,158.64l-11.57,5.94.49,14.94,16.17-6.61V159.79Z"/><path class="cls-20" d="M196.11,160.49c.94,5,.43,11.54.15,14.26l4.5-1.84V157.15c0-3.76-1.71-12.66-3.43-15.36s-9.55-7.59-17.88-7.84a72.27,72.27,0,0,0-15.92,1.47s18.61,9.07,23.51,13.23S194.88,154,196.11,160.49Z"/><polygon class="cls-21" points="109.94 227.7 109.94 206.63 125.38 175.52 144.24 208.84 144.24 227.7 127.09 235.54 109.94 227.7"/><polygon class="cls-22" points="144.24 227.7 144.24 214.17 127.09 222.56 109.94 213.9 109.94 227.7 127.09 238.7 144.24 227.7"/><polygon class="cls-23" points="125.38 175.52 126.93 206.56 109.94 206.63 125.38 175.52"/><polygon class="cls-24" points="144.24 208.84 126.93 206.56 125.38 175.52 144.24 208.84"/><polygon class="cls-25" points="127.09 222.56 127.09 238.7 144.24 227.7 144.24 214.17 127.09 222.56"/><polygon class="cls-26" points="127.09 222.56 126.93 206.56 144.24 208.84 144.24 214.17 127.09 222.56"/><polygon class="cls-20" points="50.93 149.21 58.53 144.49 85.42 138.94 81.93 157.21 73.92 163.37 68.79 169.74 52.16 161.73 50.93 149.21"/><polygon class="cls-26" points="52.16 161.73 68.79 169.74 73.92 163.37 81.93 157.21 85.42 138.94 60.38 154.34 52.16 161.73"/><path class="cls-27" d="M50.93,149.21l1.23,12.52,16.63,8,5.13-6.37.13-.09-13.68-8.94s-1.58-8.47-1.81-9.86h0Z"/><polygon class="cls-22" points="127.63 256 127.63 232.56 109.94 219.58 109.94 227.7 60.05 165.53 52.16 161.73 56.59 173.62 127.63 256"/></g></g></svg>