<svg xmlns="http://www.w3.org/2000/svg" xmlns:xlink="http://www.w3.org/1999/xlink" viewBox="0 0 256 256" width="256" height="256"><defs><style>.cls-1{isolation:isolate;}.cls-2{fill:#101f22;}.cls-3{fill:#715f93;}.cls-4{fill:#ebebeb;}.cls-5{fill:#300042;}.cls-6{fill:#010029;}.cls-10,.cls-18,.cls-7,.cls-8,.cls-9{opacity:0.25;}.cls-7{fill:url(#linear-gradient);}.cls-8{fill:url(#linear-gradient-2);}.cls-9{fill:url(#linear-gradient-3);}.cls-10{fill:url(#linear-gradient-4);}.cls-11,.cls-12,.cls-13,.cls-14,.cls-15,.cls-16,.cls-17,.cls-19,.cls-27{mix-blend-mode:multiply;}.cls-11{fill:url(#linear-gradient-5);}.cls-12{fill:url(#linear-gradient-6);}.cls-13{fill:url(#linear-gradient-7);}.cls-14{fill:url(#linear-gradient-8);}.cls-15{fill:url(#linear-gradient-9);}.cls-16{fill:url(#linear-gradient-10);}.cls-17{fill:url(#linear-gradient-11);}.cls-18{fill:url(#linear-gradient-12);}.cls-19{fill:url(#linear-gradient-13);}.cls-20{fill:#3f6380;}.cls-21{fill:#b9eef3;}.cls-22{fill:#203b4d;}.cls-23{fill:#6e9ca6;}.cls-24{fill:#fff;}.cls-25{fill:#968ac5;}.cls-26{fill:#d5cef7;}.cls-27{fill:#668995;}.cls-28{fill:#fd0100;}.cls-29{fill:url(#linear-gradient-14);}</style><linearGradient id="linear-gradient" x1="32.85" y1="51.19" x2="82.06" y2="51.19" gradientUnits="userSpaceOnUse"><stop offset="0" stop-color="#fff" stop-opacity="0"/><stop offset="1" stop-color="#fff"/></linearGradient><linearGradient id="linear-gradient-2" x1="69.53" y1="46.78" x2="106.2" y2="46.78" xlink:href="#linear-gradient"/><linearGradient id="linear-gradient-3" x1="84.48" y1="66.58" x2="182.25" y2="63.99" xlink:href="#linear-gradient"/><linearGradient id="linear-gradient-4" x1="32.85" y1="89.72" x2="74.86" y2="89.72" xlink:href="#linear-gradient"/><linearGradient id="linear-gradient-5" x1="115.85" y1="13.84" x2="115.2" y2="96.07" gradientUnits="userSpaceOnUse"><stop offset="0" stop-color="#fe317f" stop-opacity="0"/><stop offset="1" stop-color="maroon"/></linearGradient><linearGradient id="linear-gradient-6" x1="132.81" y1="72.21" x2="224.1" y2="74.8" xlink:href="#linear-gradient-5"/><linearGradient id="linear-gradient-7" x1="102.39" y1="196.89" x2="82.32" y2="92.64" xlink:href="#linear-gradient-5"/><linearGradient id="linear-gradient-8" x1="124" y1="176.84" x2="127.24" y2="116.63" xlink:href="#linear-gradient-5"/><linearGradient id="linear-gradient-9" x1="134.55" y1="178.43" x2="177.29" y2="92.96" xlink:href="#linear-gradient-5"/><linearGradient id="linear-gradient-10" x1="131.97" y1="153.32" x2="207.17" y2="153.32" xlink:href="#linear-gradient-5"/><linearGradient id="linear-gradient-11" x1="232.4" y1="62.63" x2="198.08" y2="136.45" gradientUnits="userSpaceOnUse"><stop offset="0" stop-color="#fe317f"/><stop offset="1" stop-color="maroon"/></linearGradient><linearGradient id="linear-gradient-12" x1="85.77" y1="51.19" x2="125" y2="51.19" xlink:href="#linear-gradient"/><linearGradient id="linear-gradient-13" x1="132.91" y1="68.67" x2="224.2" y2="71.26" xlink:href="#linear-gradient-5"/><linearGradient id="linear-gradient-14" x1="128.14" y1="62.49" x2="128.14" y2="154.49" xlink:href="#linear-gradient"/></defs><g class="cls-1"><g id="Layer_3" data-name="Layer 3"><polygon points="244.14 64.69 244.31 62.64 243.05 61.01 203.55 9.92 201.95 7.85 199.34 7.85 148.25 7.85 145.94 7.85 144.37 9.53 128.1 26.85 107.49 9.13 106 7.85 104.02 7.85 54.65 7.85 52.24 7.85 50.65 9.66 10.29 55.6 8.97 57.11 8.97 59.11 8.97 62.44 8.97 103.45 8.97 109.99 8.97 111.97 10.26 113.46 59.53 170.6 122.53 243.66 126.48 248.24 130.53 243.74 238.91 122.92 240.12 121.57 240.25 119.76 244.15 68.37 244.29 66.43 244.03 66.07 244.14 64.69"/><polygon class="cls-2" points="237.06 64.93 198.02 14.43 147.53 14.43 128.01 35.23 103.82 14.43 55.02 14.43 15.13 59.84 15.13 63.13 15.13 103.66 15.13 110.12 63.83 166.59 63.83 166.59 126.1 238.79 233.21 119.38 237.06 68.59 236.79 68.22 237.06 64.93"/><path d="M125.94,255.15,4.33,114.14V55.77L50.13,3.63h57.69l19.39,16.66L142.85,3.63h60.48l44.84,58-.29,3.49.25.34-4.42,58.4Zm-100-149L126.26,222.44l96.46-107.53L226,71.71l-.29-.4.26-3.09-33.24-43H152.2L128.81,50.16l-29-24.93H59.91l-34,38.68Z"/></g><g id="Layer_2" data-name="Layer 2"><polygon points="244.15 67.04 244.31 65.02 243.07 63.41 204.09 13 202.52 10.96 199.94 10.96 149.53 10.96 147.26 10.96 145.71 12.62 129.66 29.71 109.33 12.23 107.85 10.96 105.9 10.96 57.19 10.96 54.81 10.96 53.25 12.74 13.43 58.07 12.12 59.55 12.12 61.53 12.12 64.82 12.12 105.28 12.12 111.73 12.12 113.68 13.4 115.16 62.01 171.53 124.17 243.6 128.06 248.13 132.05 243.68 238.98 124.48 240.17 123.15 240.31 121.37 244.15 70.67 244.29 68.75 244.04 68.4 244.15 67.04"/></g><g id="Layer_1" data-name="Layer 1"><polygon class="cls-3" points="17.37 64.82 57.19 16.21 105.9 16.21 130.05 38.47 149.53 16.21 199.94 16.21 238.91 70.27 235.07 120.98 128.14 240.18 17.37 111.73 17.37 64.82"/><polygon class="cls-4" points="17.37 61.53 57.19 16.21 105.9 16.21 130.05 36.97 149.53 16.21 199.94 16.21 238.91 66.62 235.07 113.9 128.14 225.04 17.37 105.28 17.37 61.53"/><polygon class="cls-5" points="29.19 67.84 64.76 27.35 108.28 27.35 129.84 45.89 147.25 27.35 192.28 27.35 227.09 72.38 224.06 109.65 128.14 213.9 29.19 102.65 29.19 67.84"/><polygon class="cls-6" points="129.16 45.3 108.28 27.35 64.76 27.35 29.19 67.84 29.19 102.65 128.14 213.9 129.16 212.8 129.16 45.3"/><polygon class="cls-7" points="32.85 70.46 82.06 71.62 65.58 30.76 32.85 70.46"/><polygon class="cls-8" points="82.99 62.8 69.53 30.76 106.2 30.76 82.99 62.8"/><polygon class="cls-9" points="132.89 64.89 102.02 67.21 162.84 69.06 168.18 71.62 148.45 99.01 176.76 69.06 151.7 30.76 148.68 30.76 130.81 51.19 132.89 64.89"/><polygon class="cls-10" points="59.54 105.28 32.85 103.65 32.85 74.17 74.86 74.17 59.54 105.28"/><polygon class="cls-11" points="85.77 74.17 131.04 71.62 139.39 89.72 144.73 94.6 144.73 105.28 111.77 105.28 87.86 77.19 85.77 74.17"/><path class="cls-12" d="M186.05,48.87l-7.89,17.64L201.37,99l8.82-15.32s-13.23-4-16-9.75S186.05,48.87,186.05,48.87Z"/><polygon class="cls-13" points="62.1 105.28 102.02 106.2 108.52 111.08 123.38 202.07 62.1 105.28"/><polygon class="cls-14" points="113.16 108.53 142.18 108.53 128.14 199.75 113.16 108.53"/><polygon class="cls-15" points="134.98 181.88 147.29 109.65 191.16 108.53 134.98 181.88"/><polygon class="cls-16" points="131.97 199.75 198.12 106.9 207.17 114.79 131.97 199.75"/><polygon class="cls-17" points="203.23 102.72 214.6 112.47 222.03 107.6 222.03 85.78 215.76 89.72 203.23 102.72"/><polygon class="cls-18" points="105.97 38.42 85.77 63.96 125 62.8 105.97 38.42"/><path class="cls-19" d="M193.37,35.58l19.26,34.64s.92,8.51.92,10.68-17.22,24.38-17.22,24.38,22.3-16.66,25.7-20.62-4.12-19.77-4.12-19.77Z"/><path class="cls-20" d="M177.55,160.19,166,152.69s-6.86-12.43-6.44-18a63.23,63.23,0,0,1,13.94-1.29c7.28.22,14.14,4.5,15.64,6.86s3,10.15,3,13.43v13.79L178,173.27Z"/><path class="cls-3" d="M187.67,155l-10.12,5.19.43,13.08,14.14-5.79V156Z"/><path class="cls-21" d="M188.05,156.62a48.43,48.43,0,0,1,.13,12.47l3.94-1.61V153.69c0-3.28-1.5-11.07-3-13.43s-8.36-6.64-15.64-6.86a63.23,63.23,0,0,0-13.94,1.29s16.29,7.93,20.58,11.57S187,150.9,188.05,156.62Z"/><polygon class="cls-22" points="112.67 215.42 112.67 196.99 126.17 169.77 142.68 198.91 142.68 215.42 127.67 222.28 112.67 215.42"/><polygon class="cls-2" points="142.68 215.42 142.68 203.58 127.67 210.92 112.67 203.34 112.67 215.42 127.67 225.04 142.68 215.42"/><polygon class="cls-23" points="126.17 169.77 127.53 196.92 112.67 196.99 126.17 169.77"/><polygon class="cls-24" points="142.68 198.91 127.53 196.92 126.17 169.77 142.68 198.91"/><polygon class="cls-25" points="127.67 210.92 127.67 225.04 142.68 215.42 142.68 203.58 127.67 210.92"/><polygon class="cls-26" points="127.67 210.92 127.53 196.92 142.68 198.91 142.68 203.58 127.67 210.92"/><polygon class="cls-21" points="61.04 146.75 67.68 142.62 91.21 137.77 88.16 153.75 81.16 159.14 76.67 164.71 62.12 157.7 61.04 146.75"/><polygon class="cls-26" points="62.12 157.7 76.67 164.71 81.16 159.14 88.16 153.75 91.21 137.77 69.3 151.24 62.12 157.7"/><path class="cls-27" d="M61,146.75l1.08,10.95,14.55,7,4.49-5.57.1-.08-12-7.82s-1.39-7.42-1.59-8.63h0Z"/><polygon class="cls-2" points="128.14 240.18 128.14 219.67 112.67 208.31 112.67 215.42 69.01 161.02 62.12 157.7 65.99 168.1 128.14 240.18"/><polygon class="cls-28" points="159.2 96.5 94.48 96.5 86.72 106.9 97.08 117.3 161.81 117.3 169.57 106.9 159.2 96.5"/><polygon class="cls-29" points="169.37 107.17 169.57 106.9 159.2 96.5 94.48 96.5 86.72 106.9 86.99 107.17 169.37 107.17"/></g></g></svg>
