<svg xmlns="http://www.w3.org/2000/svg" xmlns:xlink="http://www.w3.org/1999/xlink" viewBox="0 0 256 256" width="256" height="256"><defs><style>.cls-1{isolation:isolate;}.cls-2{fill:#715f93;}.cls-3{fill:#ebebeb;}.cls-4{fill:#300042;}.cls-5{fill:#010029;}.cls-17,.cls-6,.cls-7,.cls-8,.cls-9{opacity:0.25;}.cls-6{fill:url(#linear-gradient);}.cls-7{fill:url(#linear-gradient-2);}.cls-8{fill:url(#linear-gradient-3);}.cls-9{fill:url(#linear-gradient-4);}.cls-10,.cls-11,.cls-12,.cls-13,.cls-14,.cls-15,.cls-16,.cls-18,.cls-27{mix-blend-mode:multiply;}.cls-10{fill:url(#linear-gradient-5);}.cls-11{fill:url(#linear-gradient-6);}.cls-12{fill:url(#linear-gradient-7);}.cls-13{fill:url(#linear-gradient-8);}.cls-14{fill:url(#linear-gradient-9);}.cls-15{fill:url(#linear-gradient-10);}.cls-16{fill:url(#linear-gradient-11);}.cls-17{fill:url(#linear-gradient-12);}.cls-18{fill:url(#linear-gradient-13);}.cls-19{fill:#3f6380;}.cls-20{fill:#b9eef3;}.cls-21{fill:#203b4d;}.cls-22{fill:#101f22;}.cls-23{fill:#6e9ca6;}.cls-24{fill:#fff;}.cls-25{fill:#968ac5;}.cls-26{fill:#d5cef7;}.cls-27{fill:#668995;}.cls-28{fill:#fd0100;}.cls-29{fill:url(#linear-gradient-14);}</style><linearGradient id="linear-gradient" x1="19.21" y1="39.99" x2="75.46" y2="39.99" gradientUnits="userSpaceOnUse"><stop offset="0" stop-color="#fff" stop-opacity="0"/><stop offset="1" stop-color="#fff"/></linearGradient><linearGradient id="linear-gradient-2" x1="61.13" y1="34.94" x2="103.05" y2="34.94" xlink:href="#linear-gradient"/><linearGradient id="linear-gradient-3" x1="78.22" y1="57.58" x2="189.98" y2="54.62" xlink:href="#linear-gradient"/><linearGradient id="linear-gradient-4" x1="19.21" y1="84.03" x2="67.23" y2="84.03" xlink:href="#linear-gradient"/><linearGradient id="linear-gradient-5" x1="114.08" y1="-2.71" x2="113.34" y2="91.28" gradientUnits="userSpaceOnUse"><stop offset="0" stop-color="#fe317f" stop-opacity="0"/><stop offset="1" stop-color="maroon"/></linearGradient><linearGradient id="linear-gradient-6" x1="133.46" y1="64.01" x2="237.82" y2="66.97" xlink:href="#linear-gradient-5"/><linearGradient id="linear-gradient-7" x1="98.7" y1="206.52" x2="75.75" y2="87.37" xlink:href="#linear-gradient-5"/><linearGradient id="linear-gradient-8" x1="123.4" y1="183.61" x2="127.1" y2="114.78" xlink:href="#linear-gradient-5"/><linearGradient id="linear-gradient-9" x1="135.46" y1="185.42" x2="184.3" y2="87.72" xlink:href="#linear-gradient-5"/><linearGradient id="linear-gradient-10" x1="132.5" y1="156.73" x2="218.47" y2="156.73" xlink:href="#linear-gradient-5"/><linearGradient id="linear-gradient-11" x1="247.3" y1="53.06" x2="208.07" y2="137.44" gradientUnits="userSpaceOnUse"><stop offset="0" stop-color="#fe317f"/><stop offset="1" stop-color="maroon"/></linearGradient><linearGradient id="linear-gradient-12" x1="79.7" y1="39.99" x2="124.54" y2="39.99" xlink:href="#linear-gradient"/><linearGradient id="linear-gradient-13" x1="133.58" y1="59.97" x2="237.93" y2="62.93" xlink:href="#linear-gradient-5"/><linearGradient id="linear-gradient-14" x1="128.13" y1="52.9" x2="128.13" y2="158.05" xlink:href="#linear-gradient"/></defs><g class="cls-1"><g id="Layer_1" data-name="Layer 1"><polygon class="cls-2" points="1.52 55.56 47.03 0 102.71 0 130.31 25.44 152.58 0 210.2 0 254.75 61.79 250.35 119.75 128.13 256 1.52 109.18 1.52 55.56"/><polygon class="cls-3" points="1.52 51.81 47.03 0 102.71 0 130.31 23.73 152.58 0 210.2 0 254.75 57.62 250.35 111.66 128.13 238.7 1.52 101.81 1.52 51.81"/><polygon class="cls-4" points="15.03 59.02 55.69 12.74 105.42 12.74 130.08 33.93 149.97 12.74 201.44 12.74 241.23 64.21 237.77 106.8 128.13 225.96 15.03 98.81 15.03 59.02"/><polygon class="cls-5" points="129.29 33.25 105.42 12.74 55.69 12.74 15.03 59.02 15.03 98.81 128.13 225.96 129.29 224.7 129.29 33.25"/><polygon class="cls-6" points="19.21 62.01 75.46 63.33 56.62 16.64 19.21 62.01"/><polygon class="cls-7" points="76.52 53.25 61.13 16.64 103.05 16.64 76.52 53.25"/><polygon class="cls-8" points="133.56 55.64 98.28 58.29 167.79 60.41 173.89 63.33 151.34 94.64 183.71 60.41 155.05 16.64 151.6 16.64 131.18 39.98 133.56 55.64"/><polygon class="cls-9" points="49.72 101.81 19.21 99.95 19.21 66.25 67.23 66.25 49.72 101.81"/><polygon class="cls-10" points="79.7 66.25 131.44 63.33 140.99 84.03 147.09 89.6 147.09 101.81 109.42 101.81 82.09 69.7 79.7 66.25"/><path class="cls-11" d="M194.32,37.33l-9,20.17,26.53,37.14,10.08-17.51S206.79,72.62,203.61,66,194.32,37.33,194.32,37.33Z"/><polygon class="cls-12" points="52.64 101.81 98.28 102.87 105.7 108.44 122.69 212.44 52.64 101.81"/><polygon class="cls-13" points="111.01 105.52 144.18 105.52 128.13 209.79 111.01 105.52"/><polygon class="cls-14" points="135.95 189.36 150.01 106.8 200.16 105.52 135.95 189.36"/><polygon class="cls-15" points="132.5 209.79 208.12 103.66 218.47 112.68 132.5 209.79"/><polygon class="cls-16" points="213.96 98.89 226.96 110.03 235.45 104.46 235.45 79.52 228.28 84.03 213.96 98.89"/><polygon class="cls-17" points="102.79 25.39 79.7 54.58 124.54 53.25 102.79 25.39"/><path class="cls-18" d="M202.68,22.14l22,39.59s1.06,9.73,1.06,12.22-19.68,27.85-19.68,27.85,25.48-19,29.37-23.55-4.72-22.61-4.72-22.61Z"/><path class="cls-19" d="M184.6,164.58,171.38,156s-7.84-14.21-7.35-20.58A72.27,72.27,0,0,1,180,134c8.33.25,16.17,5.15,17.88,7.84s3.43,11.6,3.43,15.36v15.76l-16.17,6.61Z"/><path class="cls-2" d="M196.17,158.64l-11.57,5.94.49,14.94,16.17-6.61V159.79Z"/><path class="cls-20" d="M196.61,160.49c.94,5,.43,11.54.15,14.26l4.5-1.84V157.15c0-3.76-1.71-12.66-3.43-15.36S188.28,134.2,180,134A72.27,72.27,0,0,0,164,135.42s18.61,9.07,23.51,13.23S195.38,154,196.61,160.49Z"/><polygon class="cls-21" points="110.44 227.7 110.44 206.63 125.88 175.52 144.74 208.84 144.74 227.7 127.59 235.54 110.44 227.7"/><polygon class="cls-22" points="144.74 227.7 144.74 214.17 127.59 222.56 110.44 213.9 110.44 227.7 127.59 238.7 144.74 227.7"/><polygon class="cls-23" points="125.88 175.52 127.43 206.56 110.44 206.63 125.88 175.52"/><polygon class="cls-24" points="144.74 208.84 127.43 206.56 125.88 175.52 144.74 208.84"/><polygon class="cls-25" points="127.59 222.56 127.59 238.7 144.74 227.7 144.74 214.17 127.59 222.56"/><polygon class="cls-26" points="127.59 222.56 127.43 206.56 144.74 208.84 144.74 214.17 127.59 222.56"/><polygon class="cls-20" points="51.43 149.21 59.03 144.49 85.92 138.94 82.43 157.21 74.42 163.37 69.29 169.74 52.66 161.73 51.43 149.21"/><polygon class="cls-26" points="52.66 161.73 69.29 169.74 74.42 163.37 82.43 157.21 85.92 138.94 60.88 154.34 52.66 161.73"/><path class="cls-27" d="M51.43,149.21l1.23,12.52,16.63,8,5.13-6.37.13-.09-13.68-8.94s-1.58-8.47-1.81-9.86h0Z"/><polygon class="cls-22" points="128.13 256 128.13 232.56 110.44 219.58 110.44 227.7 60.55 165.53 52.66 161.73 57.09 173.62 128.13 256"/><polygon class="cls-28" points="163.63 91.77 89.65 91.77 80.78 103.66 92.63 115.55 166.61 115.55 175.48 103.66 163.63 91.77"/><polygon class="cls-29" points="175.25 103.97 175.48 103.66 163.63 91.77 89.65 91.77 80.78 103.66 81.09 103.97 175.25 103.97"/></g></g></svg>