<svg xmlns="http://www.w3.org/2000/svg" xmlns:xlink="http://www.w3.org/1999/xlink" viewBox="0 0 256 256" width="256" height="256"><defs><style>.cls-1{isolation:isolate;}.cls-2{fill:url(#linear-gradient);}.cls-3{fill:url(#linear-gradient-3);}.cls-18,.cls-22,.cls-4,.cls-5,.cls-6,.cls-7{mix-blend-mode:overlay;}.cls-4{fill:url(#radial-gradient);}.cls-5{fill:url(#radial-gradient-2);}.cls-6{fill:url(#radial-gradient-3);}.cls-8{fill:url(#radial-gradient-4);}.cls-9{fill:url(#radial-gradient-5);}.cls-10,.cls-12{fill:#541a75;}.cls-10,.cls-11{opacity:0.25;}.cls-13,.cls-21{opacity:0.4;}.cls-13{fill:url(#linear-gradient-4);}.cls-14{fill:url(#linear-gradient-5);}.cls-15{fill:url(#linear-gradient-6);}.cls-16{fill:url(#linear-gradient-7);}.cls-17{fill:url(#linear-gradient-8);}.cls-18{fill:url(#radial-gradient-6);}.cls-19{opacity:0.5;fill:url(#linear-gradient-9);}.cls-20{fill:url(#linear-gradient-10);}.cls-21{fill:#fdd684;}.cls-22{fill:url(#radial-gradient-8);}</style><linearGradient id="linear-gradient" x1="126.24" y1="291.88" x2="130.49" y2="42.23" gradientUnits="userSpaceOnUse"><stop offset="0" stop-color="#ac1d6e"/><stop offset="0.43" stop-color="#59a2de"/><stop offset="0.65" stop-color="#b4cbde"/><stop offset="0.78" stop-color="#77b0de"/></linearGradient><linearGradient id="linear-gradient-3" x1="127.88" y1="97.07" x2="127.88" y2="274.55" gradientUnits="userSpaceOnUse"><stop offset="0" stop-color="#539c58"/><stop offset="1" stop-color="#007844"/></linearGradient><radialGradient id="radial-gradient" cx="150.53" cy="141.14" r="88.72" gradientTransform="translate(-7.59) scale(0.9 1)" gradientUnits="userSpaceOnUse"><stop offset="0.05" stop-color="#c7c7c7"/><stop offset="1" stop-color="#60b2c7" stop-opacity="0"/></radialGradient><radialGradient id="radial-gradient-2" cx="164.44" cy="146.88" r="31.11" gradientTransform="matrix(1, 0, 0, 1, 0, 0)" xlink:href="#radial-gradient"/><radialGradient id="radial-gradient-3" cx="128.91" cy="170.33" r="17.5" gradientTransform="matrix(1, 0, 0, 1, 0, 0)" xlink:href="#radial-gradient"/><radialGradient id="radial-gradient-4" cx="107.53" cy="141.65" r="46.11" gradientTransform="matrix(1, 0, 0, 1, 0, 0)" xlink:href="#radial-gradient"/><radialGradient id="radial-gradient-5" cx="142.95" cy="142.28" r="20.52" gradientTransform="matrix(1, 0, 0, 1, 0, 0)" xlink:href="#radial-gradient"/><linearGradient id="linear-gradient-4" x1="128.57" y1="-30.27" x2="127.03" y2="55.32" gradientUnits="userSpaceOnUse"><stop offset="0" stop-color="#db8d0f"/><stop offset="0.59" stop-color="#deb902"/><stop offset="1" stop-color="#946300"/></linearGradient><linearGradient id="linear-gradient-5" x1="134.3" y1="-23.8" x2="123.85" y2="93.79" gradientUnits="userSpaceOnUse"><stop offset="0" stop-color="#db8d0f"/><stop offset="0.59" stop-color="#deb902"/><stop offset="1" stop-color="#de9400"/></linearGradient><linearGradient id="linear-gradient-6" x1="131.22" y1="-65.08" x2="126.66" y2="10.5" xlink:href="#linear-gradient-4"/><linearGradient id="linear-gradient-7" x1="102.55" y1="156.49" x2="64.84" y2="116.58" gradientUnits="userSpaceOnUse"><stop offset="0" stop-color="#ac1d6e"/><stop offset="0.43" stop-color="#59a2de"/><stop offset="0.65" stop-color="#b4cbde"/></linearGradient><linearGradient id="linear-gradient-8" x1="200.28" y1="85.72" x2="156.92" y2="39.84" xlink:href="#linear-gradient-7"/><radialGradient id="radial-gradient-6" cx="149.92" cy="128.51" r="282.13" gradientUnits="userSpaceOnUse"><stop offset="0.1" stop-color="#c7c7c7"/><stop offset="1" stop-color="#60b2c7" stop-opacity="0"/></radialGradient><linearGradient id="linear-gradient-9" x1="107.47" y1="-80.76" x2="118.32" y2="375.11" gradientUnits="userSpaceOnUse"><stop offset="0" stop-color="#acffff"/><stop offset="1" stop-color="#b4cbde" stop-opacity="0"/></linearGradient><linearGradient id="linear-gradient-10" x1="186.46" y1="302.61" x2="119.53" y2="231.79" xlink:href="#linear-gradient-7"/><radialGradient id="radial-gradient-8" cx="150.97" cy="187.09" r="127.99" xlink:href="#radial-gradient-6"/></defs><g class="cls-1"><g id="Layer_1" data-name="Layer 1"><path class="cls-2" d="M193.83,119.2c-6.73-16.31-20.92-27.66-26.59-38.3s1.06-18.43,6.38-25.53,5.27-21.27-8.53-23-37.21,0-37.21,0-23.4-1.78-37.2,0-13.86,16-8.54,23S94.2,70.27,88.52,80.9s-19.85,22-26.59,38.3-6.38,42.9-6.38,42.9v68a10.56,10.56,0,0,0,5.88,9.49c8.42,4.17,23.91,11.15,33.12,11.15h66.66c9.21,0,24.71-7,33.13-11.15a10.56,10.56,0,0,0,5.88-9.49v-68S200.57,135.51,193.83,119.2Z"/><path class="cls-2" d="M193.83,119.2c-6.73-16.31-20.92-27.66-26.59-38.3s1.06-18.43,6.38-25.53,5.27-21.27-8.53-23-37.21,0-37.21,0-23.4-1.78-37.2,0-13.86,16-8.54,23S94.2,70.27,88.52,80.9s-19.85,22-26.59,38.3-6.38,42.9-6.38,42.9v68a10.56,10.56,0,0,0,5.88,9.49c8.42,4.17,23.91,11.15,33.12,11.15h66.66c9.21,0,24.71-7,33.13-11.15a10.56,10.56,0,0,0,5.88-9.49v-68S200.57,135.51,193.83,119.2Z"/><path class="cls-3" d="M189.64,148.31H66.13c-.51,7.4-.44,12.86-.44,12.86v65a10.27,10.27,0,0,0,5.06,9.06c7.24,4,20.57,10.66,28.48,10.66h57.32c7.92,0,21.24-6.68,28.48-10.66a10.25,10.25,0,0,0,5.06-9.06v-65S190.14,155.71,189.64,148.31Z"/><path class="cls-4" d="M189.64,148.31H66.13c-.51,7.4-.44,12.86-.44,12.86v65a10.27,10.27,0,0,0,5.06,9.06c7.24,4,20.57,10.66,28.48,10.66h57.32c7.92,0,21.24-6.68,28.48-10.66a10.25,10.25,0,0,0,5.06-9.06v-65S190.14,155.71,189.64,148.31Z"/><circle class="cls-5" cx="162.54" cy="163.5" r="11.64"/><circle class="cls-6" cx="127.84" cy="179.69" r="6.55"/><g class="cls-7"><path class="cls-8" d="M96.5,178.11a13.62,13.62,0,1,1,13.62-13.62A13.64,13.64,0,0,1,96.5,178.11Zm0-23.78a10.16,10.16,0,1,0,10.15,10.16A10.17,10.17,0,0,0,96.5,154.33Z"/></g><g class="cls-7"><path class="cls-9" d="M139.85,148.31a4.52,4.52,0,1,1-3.62,0h-2.6a6,6,0,0,0-1.65,4.13,6.06,6.06,0,1,0,10.47-4.13Z"/></g><circle class="cls-10" cx="121.29" cy="158.5" r="2.74"/><circle class="cls-10" cx="179.01" cy="147.92" r="4.84"/><circle class="cls-10" cx="176.9" cy="128.51" r="2.74"/><circle class="cls-10" cx="125.52" cy="118.78" r="2.74"/><circle class="cls-10" cx="147.27" cy="134.28" r="5.77"/><circle class="cls-10" cx="75.16" cy="128.51" r="2.74"/><g class="cls-11"><path class="cls-12" d="M113.55,108.29a17.57,17.57,0,0,1-1.88-.1,12.28,12.28,0,0,1-9.13-5.3c-1.28-1.87-1.93-4-1.6-5.24a13.29,13.29,0,0,1,.72-1.91,12.66,12.66,0,0,1-6.53,2.77c-5.51.6-9.41-2.88-10.43-5.56-1-2.52,1.22-8.78,3.7-10.64,1.64-1.24,7-4.9,9.7-6.76a11.48,11.48,0,0,1-.88-1.33.6.6,0,0,1,.12-.68l5.74-5.5,1-1.83a.6.6,0,0,1,.51-.29h39A.63.63,0,0,1,144,66l9.16,6.83a.6.6,0,0,1,.22.39.58.58,0,0,1-.12.44s-.16.19-.46.5a114.85,114.85,0,0,1,13.06,7.61h0a11.36,11.36,0,0,1,4.57,7.51,9.59,9.59,0,0,1-1.51,7.11c-1.61,2.18-5.93,3-9.51,2.75-3.76-.22-6.82-1.4-8.46-3.22.12,2.92-.51,10.25-9.45,11.9-5.81,1.06-9.43-.63-11.45-2.25a7.5,7.5,0,0,1-3-4.9c0-.5,0-1.55,0-2.91h-1.58a18.92,18.92,0,0,1-.06,2.3C124.91,103.59,121,108.29,113.55,108.29Zm-5.63-16.18h-.52c-3,.14-4.76,3.74-5.34,5.84-.18.64.14,2.39,1.43,4.27a11.15,11.15,0,0,0,8.29,4.81c7.49.76,12-3.61,12.35-7.07a22.79,22.79,0,0,0,0-2.74.56.56,0,0,1,.16-.42.59.59,0,0,1,.41-.18h2.76a.58.58,0,0,1,.58.58c0,1.62,0,2.89,0,3.44a6.39,6.39,0,0,0,2.61,4c1.83,1.46,5.14,3,10.52,2,9.33-1.71,8.65-10,8.42-11.7a2.61,2.61,0,0,0-1.38-1.84,5.37,5.37,0,0,0-4.13-.26,3.25,3.25,0,0,1,2,3.43,3.66,3.66,0,0,1-1.6,2.4,8.31,8.31,0,0,1-5.71,1.17c-1.19-.22-1.66-2.08-1.85-3.61-.56-4.47.61-12,4.9-14,5.72-2.61,10.93,1,14,3.18l.44.31c4,2.78,4.27,4.07,4.12,4.79s-.74,1.08-1.76,1.26a5.59,5.59,0,0,1-4.31-1.29,6.62,6.62,0,0,1-1.83-2.06,4.55,4.55,0,0,0-2,2.25,4.45,4.45,0,0,0,.62,3.65c1.14,2,4.29,3.36,8.22,3.58s7.35-.71,8.51-2.28a8.43,8.43,0,0,0,1.3-6.25,10.25,10.25,0,0,0-4.11-6.75,119.42,119.42,0,0,0-13.62-7.87.58.58,0,0,1-.13-.94l.53-.51-8.5-6.34H105L104,68.68a.71.71,0,0,1-.1.14l-5.47,5.24a11.64,11.64,0,0,0,.92,1.25.54.54,0,0,1,.12.44.56.56,0,0,1-.24.4c-1.94,1.32-8.4,5.74-10.18,7.08-2,1.53-4.08,7.28-3.31,9.31A8.88,8.88,0,0,0,95,97.36a11.17,11.17,0,0,0,7.54-4.18,3.49,3.49,0,0,0,.88-2.42c-.22-1.09-1.38-1.87-2.38-2.32a2.67,2.67,0,0,1-.57,2.39c-1.35,1.55-4.64,1.8-7,.53a1.86,1.86,0,0,1-1.13-1.47c-.14-1.4,1.54-2.79,2.35-3.45l.15-.12a50.7,50.7,0,0,1,10.58-6.16.6.6,0,0,1,.49,0,30.89,30.89,0,0,0,9.86,2.71.58.58,0,0,1,.51.49c.39,2.71,1.3,9.27,1.3,11.63a5.81,5.81,0,0,1-2.09,4.43,4.68,4.68,0,0,1-3.84,1.08,5.52,5.52,0,0,1-3.74-3.35,3.15,3.15,0,0,1-.21-2.72c.48-.75,2.06-1.41,3.27-1.82A8.54,8.54,0,0,0,107.92,92.11Zm0-1.15a7.9,7.9,0,0,1,4.9,1.34.59.59,0,0,1,.2.57.57.57,0,0,1-.42.43c-1.65.45-3.63,1.24-3.95,1.74a2.42,2.42,0,0,0,.28,1.65,4.4,4.4,0,0,0,2.9,2.67,3.48,3.48,0,0,0,2.89-.83A4.64,4.64,0,0,0,116.39,95c0-2.17-.81-8.13-1.22-11a32.32,32.32,0,0,1-9.54-2.65A50.68,50.68,0,0,0,95.55,87.2l-.16.13c-.49.41-2,1.66-1.93,2.44,0,.08,0,.31.52.57,2.11,1.12,4.7.78,5.62-.27s0-2.24,0-2.29a.61.61,0,0,1,0-.66.59.59,0,0,1,.62-.22c.15,0,3.86,1,4.37,3.64a3.07,3.07,0,0,1-.12,1.51A5.14,5.14,0,0,1,107.35,91ZM146,82.58a8.74,8.74,0,0,0-3.66.81c-3.6,1.64-4.77,8.47-4.24,12.77.24,1.87.73,2.57.92,2.61a7.17,7.17,0,0,0,4.83-1A2.5,2.5,0,0,0,145,96.15c.34-2-2.59-2.68-2.62-2.69a.57.57,0,0,1-.11-1.09c3.42-1.48,5.6-.77,6.59-.21a5.16,5.16,0,0,1,.46.29,4.56,4.56,0,0,1,.2-2,6,6,0,0,1,3.17-3.22.56.56,0,0,1,.52,0,.61.61,0,0,1,.27.44,4.3,4.3,0,0,0,1.63,2,4.62,4.62,0,0,0,3.42,1.06c.6-.11.8-.28.82-.36s.16-1-3.65-3.6l-.44-.31C152.9,84.84,149.65,82.58,146,82.58ZM127.49,95h0l-2.92-.18a.58.58,0,0,1-.54-.53c-.13-1.77-.32-3.84-.56-6.17a.56.56,0,0,1,.16-.46.52.52,0,0,1,.45-.17l3.5.23a.59.59,0,0,1,.54.58c0,2,0,4.13,0,6.12a.56.56,0,0,1-.18.42A.59.59,0,0,1,127.49,95Zm-2.39-1.3,1.81.11c0-1.64,0-3.36,0-5l-2.27-.16C124.84,90.49,125,92.17,125.1,93.65Zm-1.36-7.5a.58.58,0,0,1-.58-.51c-.08-.76-.16-1.41-.22-1.89a.55.55,0,0,1,.14-.44.54.54,0,0,1,.41-.2h.29l.56,0c1.08-.07,2.12-.16,3.12-.26a.57.57,0,0,1,.45.15.59.59,0,0,1,.19.43V85.3a.57.57,0,0,1-.53.57l-3.78.28Zm.42-1.91q0,.33.09.72l2.69-.2V84c-.82.08-1.66.15-2.53.2Z"/></g><path class="cls-13" d="M124,36.85c-5.56-.29-15.9-1.59-17.49,3.38s-3.78,13.71-.2,16.3,2.58,4.57,1.79,6-4,3.38,1.39,3.78,35,.2,38.36,0,1-2.59-1-4-.6-7.15,1.19-9.34,2-6.56,1.5-9.74-2.49-6-8.06-6.16S127,37,124,36.85Z"/><path class="cls-14" d="M119.91,33.14c-2.58,0-5.08-.17-7.91.08s1.16,1.67,5.16,1.67,3.67.33,9.16.5,10.41-.17,14.24-.25,9-1.81,5.83-2-14,.36-19,.36S120.57,33.12,119.91,33.14Z"/><path class="cls-15" d="M104.4,31.56S96.83,18,95.75,15.4,93.42,6.24,98,6s31.48.16,41.64.41,13.07,1,16.15,1.09,3.09,4.58,2.25,7.58-10.33,16.48-10.33,16.48-13.18.78-18.62.78S106.47,32,104.4,31.56Z"/><g class="cls-11"><path class="cls-12" d="M131.17,245.58l-1.34,0c-20.39-.62-26.79-2.85-31.12-10.88-3.31-6.14-2.47-10.86-1.26-14-2.73,2.34-6.42,5.09-9.51,6-7.09,2-13.72.71-17.73-3.4-3.63-3.73-8.64-11.49-10.8-21.12-2.06-9.12.92-18.74,1.9-21.89l.09-.32c1.4-4.56,4.18-7.58,8.26-9,5.4-1.85,12.16,1.81,14.18,7.67,1.69,4.89,2.1,8.91,1.26,11.93,6.09-5.44,14.1-3.71,18.65-2.74a9.12,9.12,0,0,1,5.27,3.91c1.55-1.26,6.35-4.61,10.69-1.6a17.63,17.63,0,0,1,5.73,6.27c.94-2.17,3.1-6.34,6.15-7.47s8.89.18,11.85,2.05c1.32.84,2,1.73,2.11,2.66v.1c1.51-3.11,3.92-5.37,6.45-5.92,4.56-1,12.56-2.7,18.66,2.74-.85-3-.44-7,1.25-11.93,2-5.86,8.78-9.52,14.19-7.67,4.07,1.39,6.85,4.41,8.25,9h0l.1.31c1,3.16,3.95,12.78,1.9,21.9-2.17,9.63-7.18,17.4-10.81,21.12-4,4.12-10.64,5.38-17.73,3.4-4-1.12-9.38-5.53-13.61-9.77a19.9,19.9,0,0,1,1.29,9.43C155,230.9,151.61,245.58,131.17,245.58Zm-32-27.75a.53.53,0,0,1,.36.13.57.57,0,0,1,.13.75c-1.32,2.54-4,7.82.06,15.43s10.28,9.67,30.15,10.26c20.07.61,23.81-12.53,24.49-18.21a20,20,0,0,0-2.71-12,.6.6,0,0,1,.16-.76.58.58,0,0,1,.77.08c5.67,6.26,11.77,11,15.55,12,6.68,1.88,12.88.72,16.59-3.09,3.53-3.61,8.39-11.17,10.51-20.56,2-8.83-.92-18.22-1.88-21.3l-.09-.32c-1.29-4.19-3.82-7-7.53-8.22-4.83-1.65-10.89,1.67-12.72,7-2.79,8.09-2,13.34,2.27,15.62a6.42,6.42,0,0,0,7.72-.87,3,3,0,0,1-2.3-.77,4.13,4.13,0,0,1-.85-4,6.13,6.13,0,0,1,3.81-4.53,4.1,4.1,0,0,1,3.63.42c2,1.36,3.21,4.79,3.69,10.5.61,7.12-4.34,16.52-4.55,16.92a.53.53,0,0,1-.29.26c-.18.08-4.56,1.88-12.11.89-7.95-1.05-13.48-8-14.09-10.72a3.45,3.45,0,0,1,1.67-3.54c1.45-1,3.74-1.61,5.32-.66,1.84,1.11,1.62,3.44,1.3,4.8,1.53-.48,4.43-1.64,5.3-3.87.61-1.55.14-3.41-1.39-5.53-5.77-8-14.61-6.11-19.89-5-2.74.59-5.36,3.62-6.52,7.54a.59.59,0,0,1-.62.41.57.57,0,0,1-.51-.53l-.1-1.36c0-.5-.07-.94-.1-1.27-.05-.53-.61-1.17-1.58-1.78-2.68-1.7-8.11-2.94-10.83-1.94-3.58,1.32-6,8-6,8.07a.6.6,0,0,1-.56.39.58.58,0,0,1-.54-.41s-1.18-3.76-5.85-7c-4.15-2.88-9,1.23-9.65,1.85a.7.7,0,0,1-.22.2.57.57,0,0,1-.74-.19,8.47,8.47,0,0,0-4.93-4c-5.28-1.13-14.12-3-19.89,5-1.53,2.12-2,4-1.39,5.53.87,2.23,3.77,3.39,5.3,3.87-.32-1.36-.54-3.69,1.3-4.8,1.58-.95,3.87-.39,5.33.66a3.46,3.46,0,0,1,1.66,3.54c-.61,2.73-6.14,9.67-14.09,10.72-7.54,1-11.93-.81-12.11-.89a.57.57,0,0,1-.29-.26c-.21-.4-5.15-9.8-4.55-16.92.49-5.71,1.69-9.14,3.69-10.5a4.1,4.1,0,0,1,3.63-.42A6.13,6.13,0,0,1,75.91,189a4.13,4.13,0,0,1-.85,4,3.35,3.35,0,0,1-2.29.77,6.44,6.44,0,0,0,7.72.87c4.29-2.28,5.06-7.53,2.26-15.62-1.82-5.29-7.89-8.61-12.72-7-3.71,1.26-6.24,4-7.52,8.22l-.1.32c-1,3.08-3.87,12.47-1.88,21.3,2.12,9.39,7,16.95,10.51,20.56,3.71,3.81,9.91,5,16.59,3.09,2.79-.78,6.74-3.47,11.14-7.57A.59.59,0,0,1,99.17,217.83ZM165,199.21a4.8,4.8,0,0,0-2.73.93,2.47,2.47,0,0,0-1.21,2.35c.54,2.42,5.8,8.86,13.11,9.82a25.25,25.25,0,0,0,11.33-.73c.7-1.38,4.85-9.85,4.32-16.1-.45-5.26-1.52-8.5-3.19-9.63a3,3,0,0,0-2.65-.28,5,5,0,0,0-3,3.69,3,3,0,0,0,.51,2.89c.74.69,2,.49,2.91.2a.58.58,0,0,1,.64.21.57.57,0,0,1,0,.67c0,.06-4.11,5.73-10.32,2.43l-.38-.21a5.65,5.65,0,0,1,.26,4.44c-1.44,3.66-6.89,4.79-7.12,4.84a.58.58,0,0,1-.55-.2.56.56,0,0,1-.1-.58s1.29-3.34-.51-4.42A2.53,2.53,0,0,0,165,199.21ZM70.25,211.58a25.25,25.25,0,0,0,11.33.73c7.31-1,12.57-7.4,13.12-9.82a2.52,2.52,0,0,0-1.22-2.36,4,4,0,0,0-4-.6c-1.8,1.08-.52,4.38-.51,4.42a.58.58,0,0,1-.09.58.6.6,0,0,1-.56.2c-.23,0-5.68-1.18-7.12-4.84a5.69,5.69,0,0,1,.26-4.44l-.38.21c-6.21,3.3-10.27-2.37-10.32-2.43a.58.58,0,0,1,.65-.88c.92.29,2.17.49,2.92-.2a3,3,0,0,0,.5-2.89,5,5,0,0,0-3-3.69,3,3,0,0,0-2.65.28c-1.67,1.13-2.74,4.37-3.19,9.63C65.4,201.73,69.55,210.2,70.25,211.58Zm56.58,30c-4.93,0-10.39-.75-14.52-3.16a14.66,14.66,0,0,1-6.93-10.35c-.69-4,.18-7.87,2.3-10.36,4.19-4.93,16.35-13.13,16.86-13.48a.59.59,0,0,1,.6,0c.84.45,20.59,11.07,22.27,20s-6,15.39-10.76,16.44h0A48.66,48.66,0,0,1,126.83,241.59ZM124.9,205.4c-1.9,1.29-12.6,8.67-16.34,13.06-1.91,2.24-2.67,5.77-2,9.42a13.54,13.54,0,0,0,6.39,9.55c7.1,4.15,18.48,3.15,23.5,2h0c4.39-1,11.43-6.83,9.88-15.09C144.81,216.6,127.43,206.79,124.9,205.4Zm-15.52,4.28a.58.58,0,0,1-.46-.22.54.54,0,0,1-.08-.56c.07-.19,1.82-4.59,5.86-5.6a1.79,1.79,0,0,0,1.35-2.33c-.29-1.6-1.64-3.17-2.59-3.07a.59.59,0,0,1-.58-.32.56.56,0,0,1,.1-.65,6.19,6.19,0,0,1,6.64-1.35,4.58,4.58,0,0,1,2.72,3.38,8,8,0,0,1-2.07,6.84c-2.69,2.87-10.49,3.84-10.83,3.88ZM114.69,197a5.56,5.56,0,0,1,2.5,3.74,2.91,2.91,0,0,1-2.21,3.65,7.85,7.85,0,0,0-4.6,4c2.2-.36,7.19-1.37,9.05-3.36a6.94,6.94,0,0,0,1.78-5.81,3.41,3.41,0,0,0-2-2.55A4.73,4.73,0,0,0,114.69,197Zm30.93,12.65h-.06c-.4,0-9.73-1-12.94-3.84a7.39,7.39,0,0,1-2.56-6.62,4.77,4.77,0,0,1,3.3-3.65h0a8.09,8.09,0,0,1,7.79,1.32.57.57,0,0,1,.15.66.58.58,0,0,1-.58.35c-1.3-.12-3.05,1.62-3.3,3.27-.16,1.14.42,1.85,1.73,2.12a10.69,10.69,0,0,1,7,5.57.58.58,0,0,1,0,.58A.59.59,0,0,1,145.62,209.68Zm-11.88-13a3.61,3.61,0,0,0-2.55,2.78,6.2,6.2,0,0,0,2.2,5.53c2.3,2.05,8.54,3.07,11.13,3.42a9.31,9.31,0,0,0-5.6-4c-1.91-.39-2.9-1.67-2.64-3.42a5.65,5.65,0,0,1,3-4,6.91,6.91,0,0,0-5.55-.38Z"/></g><g class="cls-11"><path class="cls-12" d="M123.09,184.93a2,2,0,0,1-.69.27,8.66,8.66,0,0,1-.89.07l-1.06.08.46.07.38.05h0l.39,0h0l.34,0h.06l.08,0,.13.06h0a.76.76,0,0,1,.09.09h0a.56.56,0,0,1,0,.08.85.85,0,0,1,.06.19l.19-.14a.5.5,0,0,1,.55-.09l.07,0-.27.71-.11.27.13-.13.79-.76h0l0,0,.25.14h0a1.68,1.68,0,0,1-.44,1l-.08.1-.1.09-.2.17a2.07,2.07,0,0,1-2.22.28,3.53,3.53,0,0,1-.34-.24h0l-.33-.26h0l-.32-.28h0a15.17,15.17,0,0,1-1.63-1.8c1.12-.58,2.15-1.16,3.23-1.68,1.47-.7,2.52.56,2.68,1.83C123.86,185.48,123.5,185.06,123.09,184.93Z"/><path class="cls-12" d="M126.59,177.25l.54.63a2.52,2.52,0,0,1,.39.59,3,3,0,0,1,.23.66l0,.2c0,.12,0,.24,0,.36a3.85,3.85,0,0,1,0,.68l0,.17a3.67,3.67,0,0,1-1,1.94l-.12.13-.27.24-.14.12a5.25,5.25,0,0,1-1.34.74h0a1.62,1.62,0,0,0,0-.22l0-.45a8.38,8.38,0,0,0,0-1.12s0-.08,0-.13a3.38,3.38,0,0,1-.06-.77.84.84,0,0,1,.19-.45l-.07,0-.29-.14c.07-.21.14-.43.22-.64l.21-.65-.24,0-.1,0h-.11c0-.29,0-.55,0-.8-.42,1.16-.88,2.32-.34,3.57l-.56.11c.17.56.34,1.09.51,1.64-.06,0-.09,0-.1,0a3.58,3.58,0,0,1-1.9-3.84,5.67,5.67,0,0,1,.94-2.13,9.64,9.64,0,0,1,1.85-2.09h0Z"/><path class="cls-12" d="M130,187l-.18.06a4.61,4.61,0,0,1-.83.22h-.1l-.26,0h-.42l-.33-.06-.2-.05a3.59,3.59,0,0,1-.35-.12l-.22-.11a3.41,3.41,0,0,1-1.41-1.45,3.49,3.49,0,0,1,.48-.23,4.46,4.46,0,0,1,2.54-.09l-.25-.51,0-.08h1.31c.11,0,.28,0,.31-.11h0l0-.09,0,0,0,0,0,0h0a.4.4,0,0,1,.26-.05h0l.15,0h0c.14,0,.29,0,.43.05v-.15c-1.85-.49-3.57.26-5.38.68a3.31,3.31,0,0,1,1.21-1.61,3.72,3.72,0,0,1,3.2-.49c1.12.27,2.21.64,3.31,1,0,0,0,0,0,0h0s0,0,0,0h0l-.45.51-.46.51-.9,1-.13.14a4.06,4.06,0,0,1-1.18.86Z"/></g><path class="cls-16" d="M55.58,158.5c2.92-14.32,6.3-29.25,8.79-35.31C69.76,110,79.58,100.26,84.05,90.58a10.56,10.56,0,0,0,1-4.31c-6.72,9.17-17.51,19.32-23.13,32.93C56.7,131.85,55.75,150.69,55.58,158.5Z"/><path class="cls-17" d="M152.06,31.56a88,88,0,0,0,10.55,2.68c5.85,1.11,11.58,5.12,12,9.71s-1.49,9.29-4.13,12.84c-1.92,2.59-5.09,7.84-5.15,13.2,1.07-5.49,4.93-10.19,8.25-14.62,5.32-7.09,5.27-21.27-8.53-23A117.06,117.06,0,0,0,152.06,31.56Z"/><path class="cls-18" d="M194.34,239.59a10.56,10.56,0,0,0,5.88-9.49V208.24c-2.2,1.73-4.76,3.71-6.58,5-3.88,2.77-10.26,6.65-32.43,7.76s-72.09,1.39-85.95-1.94c-8.38-2-15.44-9.6-19.71-15.28V230.1a10.56,10.56,0,0,0,5.88,9.49c8.42,4.17,23.91,11.15,33.12,11.15h66.66C170.42,250.74,185.92,243.76,194.34,239.59Z"/><path class="cls-18" d="M194.34,239.59a10.56,10.56,0,0,0,5.88-9.49V208.24c-2.2,1.73-4.76,3.71-6.58,5-3.88,2.77-10.26,6.65-32.43,7.76s-72.09,1.39-85.95-1.94c-8.38-2-15.44-9.6-19.71-15.28V230.1a10.56,10.56,0,0,0,5.88,9.49c8.42,4.17,23.91,11.15,33.12,11.15h66.66C170.42,250.74,185.92,243.76,194.34,239.59Z"/><path class="cls-19" d="M153.11,92.32c-5.5,1-24,4.89-31.56-2.65s-6.19-18.66,2-28.86,16-13.39,7.79-16.26-3.48-7.37-3.48-7.37a53.11,53.11,0,0,0,7.78-5.3c-4.64.21-7.78.45-7.78.45s-21-1.6-35-.25c2.69,7.53,12.76,13.46,15.26,18.69,3.65,7.63-13.53,9.72-10.42,11.95S102,72,100.8,75.52s-5.62,11.24-19,34.6-12,68.65-9.78,98.07c1.12,14.82,2.33,28.09,3.25,37.6,6.83,2.7,14.08,5,19.3,5h29.73c-1.61-4.66-4.81-11.9-11.18-22.24-12.78-20.72-1.89-100.1,0-108.71s9.91-13.39,22.8-15.23S158.6,91.31,153.11,92.32Z"/><path class="cls-20" d="M87.08,242.58s25.81,1.81,37.9,1.65,36.43,0,46.46-2.63a26.56,26.56,0,0,1-11.84,4.26c-7.56,1-40.2,1.16-47.48.83S96.29,247.84,87.08,242.58Z"/><path class="cls-21" d="M152.76,10.29c-.22-1.56-.85-2.76-2.14-2.8-2.54-.09-4.93-.84-13.28-1.09S106.88,5.74,103.12,6a2.63,2.63,0,0,0-2.41,2.19C108.66,11.46,126.58,16.46,152.76,10.29Z"/><path class="cls-22" d="M101.28,225c43.11,2.72,88.87,1.59,95.21-13.84-1,.78-2,1.52-2.85,2.11-3.88,2.77-10.26,6.65-32.43,7.76s-72.09,1.39-85.95-1.94a26.38,26.38,0,0,1-9.68-4.89C67.15,217.94,74.31,223.28,101.28,225Z"/></g></g></svg>