<svg xmlns="http://www.w3.org/2000/svg" xmlns:xlink="http://www.w3.org/1999/xlink" viewBox="0 0 256 256" width="256" height="256"><defs><style>.cls-1{isolation:isolate;}.cls-2{fill:url(#linear-gradient);}.cls-3{fill:url(#linear-gradient-3);}.cls-18,.cls-22,.cls-4,.cls-5,.cls-6,.cls-7{mix-blend-mode:overlay;}.cls-4{fill:url(#radial-gradient);}.cls-5{fill:url(#radial-gradient-2);}.cls-6{fill:url(#radial-gradient-3);}.cls-8{fill:url(#radial-gradient-4);}.cls-9{fill:url(#radial-gradient-5);}.cls-10,.cls-12{fill:#541a75;}.cls-10,.cls-11{opacity:0.25;}.cls-13,.cls-21{opacity:0.4;}.cls-13{fill:url(#linear-gradient-4);}.cls-14{fill:url(#linear-gradient-5);}.cls-15{fill:url(#linear-gradient-6);}.cls-16{fill:url(#linear-gradient-7);}.cls-17{fill:url(#linear-gradient-8);}.cls-18{fill:url(#radial-gradient-6);}.cls-19{opacity:0.5;fill:url(#linear-gradient-9);}.cls-20{fill:url(#linear-gradient-10);}.cls-21{fill:#fdd684;}.cls-22{fill:url(#radial-gradient-8);}</style><linearGradient id="linear-gradient" x1="126.14" y1="285.4" x2="130.22" y2="46.07" gradientUnits="userSpaceOnUse"><stop offset="0" stop-color="#ac1d6e"/><stop offset="0.43" stop-color="#59a2de"/><stop offset="0.65" stop-color="#b4cbde"/><stop offset="0.78" stop-color="#77b0de"/></linearGradient><linearGradient id="linear-gradient-3" x1="127.72" y1="98.64" x2="127.72" y2="268.79" gradientUnits="userSpaceOnUse"><stop offset="0" stop-color="#539c58"/><stop offset="1" stop-color="#007844"/></linearGradient><radialGradient id="radial-gradient" cx="150.35" cy="140.89" r="85.05" gradientTransform="translate(-7.59) scale(0.9 1)" gradientUnits="userSpaceOnUse"><stop offset="0.05" stop-color="#c7c7c7"/><stop offset="1" stop-color="#60b2c7" stop-opacity="0"/></radialGradient><radialGradient id="radial-gradient-2" cx="162.77" cy="146.39" r="29.82" gradientTransform="matrix(1, 0, 0, 1, 0, 0)" xlink:href="#radial-gradient"/><radialGradient id="radial-gradient-3" cx="128.7" cy="168.88" r="16.78" gradientTransform="matrix(1, 0, 0, 1, 0, 0)" xlink:href="#radial-gradient"/><radialGradient id="radial-gradient-4" cx="108.21" cy="141.38" r="44.2" gradientTransform="matrix(1, 0, 0, 1, 0, 0)" xlink:href="#radial-gradient"/><radialGradient id="radial-gradient-5" cx="142.16" cy="141.98" r="19.67" gradientTransform="matrix(1, 0, 0, 1, 0, 0)" xlink:href="#radial-gradient"/><linearGradient id="linear-gradient-4" x1="128.38" y1="-23.44" x2="126.9" y2="58.62" gradientUnits="userSpaceOnUse"><stop offset="0" stop-color="#db8d0f"/><stop offset="0.59" stop-color="#deb902"/><stop offset="1" stop-color="#946300"/></linearGradient><linearGradient id="linear-gradient-5" x1="133.87" y1="-17.23" x2="123.85" y2="95.5" gradientUnits="userSpaceOnUse"><stop offset="0" stop-color="#db8d0f"/><stop offset="0.59" stop-color="#deb902"/><stop offset="1" stop-color="#de9400"/></linearGradient><linearGradient id="linear-gradient-6" x1="130.92" y1="-56.81" x2="126.54" y2="15.65" xlink:href="#linear-gradient-4"/><linearGradient id="linear-gradient-7" x1="103.43" y1="155.61" x2="67.28" y2="117.35" gradientUnits="userSpaceOnUse"><stop offset="0" stop-color="#ac1d6e"/><stop offset="0.43" stop-color="#59a2de"/><stop offset="0.65" stop-color="#b4cbde"/></linearGradient><linearGradient id="linear-gradient-8" x1="197.12" y1="87.76" x2="155.56" y2="43.77" xlink:href="#linear-gradient-7"/><radialGradient id="radial-gradient-6" cx="148.84" cy="128.78" r="270.47" gradientUnits="userSpaceOnUse"><stop offset="0.1" stop-color="#c7c7c7"/><stop offset="1" stop-color="#60b2c7" stop-opacity="0"/></radialGradient><linearGradient id="linear-gradient-9" x1="108.15" y1="-71.84" x2="118.55" y2="365.19" gradientUnits="userSpaceOnUse"><stop offset="0" stop-color="#acffff"/><stop offset="1" stop-color="#b4cbde" stop-opacity="0"/></linearGradient><linearGradient id="linear-gradient-10" x1="183.87" y1="295.69" x2="119.71" y2="227.8" xlink:href="#linear-gradient-7"/><radialGradient id="radial-gradient-8" cx="149.85" cy="184.94" r="122.7" xlink:href="#radial-gradient-6"/></defs><g class="cls-1"><g id="Layer_1" data-name="Layer 1"><path d="M198,117.48c-4.26-10.33-11.16-18.59-17.25-25.88-3.83-4.58-7.45-8.91-9.53-12.81a11.56,11.56,0,0,1-1.42-7.94c0-.24.1-.47.17-.75l0-.11c0-.18.1-.36.16-.55l.06-.18c.06-.19.13-.37.2-.57l.05-.15c.18-.46.4-.94.64-1.44l.09-.17c.09-.19.19-.37.28-.56l.11-.2.34-.59.09-.16c.3-.51.61-1,.94-1.51l1.2-1.73c.38-.52.75-1,1.14-1.54l1.93-2.57a21.67,21.67,0,0,0,4.07-14.9,19,19,0,0,0-.38-2.32,16.28,16.28,0,0,0-4.9-8.5,18.54,18.54,0,0,0-10.35-4.49l-.29,0-1.21-.14-.5-.05-1-.1-.57-.05-1-.08-4.83-.26c2.88-4.34,5.63-8.82,6.2-10.88.43-1.54,1.62-6.86-1.06-10.49A6.82,6.82,0,0,0,155.92,3c-.91,0-1.86-.13-3.17-.26-2.63-.28-6.24-.66-13-.82-3.12-.08-7.81-.17-12.93-.26-8.87-.17-16.62-.26-20.66-.23-4.37,0-7.12,0-8.41.07A7.53,7.53,0,0,0,91.61,5c-2.41,3.85-1.14,9.44,0,12.13.64,1.54,3.07,6.06,5.29,10.13-2.52.14-4.79.34-6.79.59-6.85.88-11.94,4.47-14.32,10.1-2.61,6.19-1.48,14.46,2.76,20.11l.94,1.24c5.64,7.46,8.8,12.49,5.07,19.48a40.31,40.31,0,0,1-3.12,4.82c-1.84,2.52-4.06,5.17-6.4,8a169.78,169.78,0,0,0-10.54,13.59l-.36.54c-.45.69-.89,1.37-1.32,2.07l-.47.76-.06.11q-.57.93-1.11,1.89l-.54,1q-.54,1-1.05,2l-.14.28c-.1.21-.21.42-.31.64-.53,1.09-1,2.08-1.36,3-.21.51-.41,1-.61,1.55l-.17.48c-.14.38-.27.76-.42,1.19l-.16.47c-.14.41-.28.84-.41,1.26l-.11.36c-.16.54-.33,1.09-.48,1.65l-.1.38c-.12.43-.24.86-.35,1.3l-.13.53-.3,1.24-.11.46c-.13.57-.25,1.14-.37,1.72l0,.09c-.12.54-.22,1.07-.33,1.61l-.09.49c-.08.42-.15.84-.23,1.27l-.09.5-.25,1.5,0,.19c-.09.57-.17,1.14-.26,1.72l0,.37-.18,1.31-.06.5c-.06.42-.11.84-.16,1.26l0,.41c-.07.55-.13,1.09-.19,1.63V143c0,.5-.1,1-.15,1.46l-.31,3.58c0,.48-.07.95-.1,1.42L51.12,157c-.1,3.12-.07,5.05-.07,5.07v68a15,15,0,0,0,8.38,13.53,175.21,175.21,0,0,0,19.35,8.27l.68.23,1.88.61.86.26c.56.17,1.11.34,1.66.49l1,.26,1.61.4.92.21,1.52.3.15,0c.27.05.54.1.79.13.55.09,1.09.16,1.6.22l.19,0,.61.07c.87.08,1.63.12,2.34.12h66.66c9.62,0,24.41-6.32,35.12-11.62a15,15,0,0,0,8.39-13.53V162.16C204.73,161,205,134.45,198,117.48Z"/><path d="M199.92,115.52c-4.4-10.65-11.52-19.17-17.24-26-3.34-4-6.5-7.79-8.11-10.81a3.86,3.86,0,0,1-.64-2.83c0-.06,0-.13,0-.2l0-.12.06-.22,0-.08.09-.26.05-.13a7.83,7.83,0,0,1,.33-.75l.06-.11.18-.35.07-.14.22-.39.07-.12c.2-.34.43-.71.69-1.09l0-.06.06-.09.3-.45.13-.18.33-.48.08-.1,0,0c.32-.46.65-.9,1-1.35l.08-.11,0-.05.43-.58.07-.08.1-.13.15-.21.36-.47.49-.65.08-.1a27.34,27.34,0,0,0,5.11-13,28,28,0,0,0,.19-2.88,24.08,24.08,0,0,0-3-12A21.42,21.42,0,0,0,180,36a22.16,22.16,0,0,0-3.84-3.78A24.12,24.12,0,0,0,166,27.71a16.23,16.23,0,0,0,.92-2.38c.79-2.83,2.16-10-2.1-15.81A13.41,13.41,0,0,0,154.3,4.08c-.58,0-1.35-.09-2.42-.21-2.43-.25-6.11-.64-12.72-.8-3-.07-7.44-.16-12.17-.24-3.4-.07-12-.23-17.87-.23h-3.84c-3.9,0-5.28.06-6,.09A14,14,0,0,0,88,9.24c-4.54,7.25-1.24,16-.53,17.73.13.31.31.69.53,1.15A22.37,22.37,0,0,0,72.72,41.06c-3.42,8.09-2,18.42,3.42,25.7L77,68c5.27,7,5.49,8.24,4.16,10.74a31.25,31.25,0,0,1-2.4,3.68c-1.6,2.18-3.6,4.58-5.72,7.12a163.33,163.33,0,0,0-10.29,13.29l-.28.43-.08.12c-.48.73-.93,1.42-1.35,2.1l-.49.8-.06.1c-.38.63-.76,1.28-1.13,1.94l-.57,1c-.34.63-.68,1.29-1.08,2.09l-.11.21-.37.75c-.55,1.14-1,2.18-1.43,3.18-.22.54-.44,1.1-.65,1.66l-.15.41,0,.1-.42,1.2-.18.54c-.15.44-.29.88-.43,1.33l0,0-.09.31c-.17.56-.34,1.13-.5,1.7l-.08.31,0,.08c-.12.44-.24.88-.35,1.33l-.14.54c-.1.42-.21.84-.31,1.26l0,.11-.08.36c-.13.57-.26,1.14-.38,1.72l0,.08v0c-.11.53-.22,1.07-.32,1.6l-.07.36,0,.13c-.08.42-.16.84-.23,1.26V132l-.08.45L51,133.91V134l0,.2c-.09.57-.18,1.13-.26,1.7l0,.24,0,.11-.18,1.31-.06.48c0,.42-.11.83-.15,1.24l0,.13,0,.28c-.07.54-.13,1.07-.18,1.6v.12c0,.46-.1.94-.14,1.43l0,.39v.07c0,.36-.06.73-.1,1.08v.13l0,.34L49.58,146v.08l0,.22c0,.45-.07.91-.1,1.36l0,.31v.13l-.06.92,0,.5,0,.82v.14l0,.33c0,.39,0,.77,0,1.13l0,.33v.14l0,.65,0,.56,0,.49,0,.56V155c-.08,2.74-.07,4.59-.06,5v63.58a21,21,0,0,0,11.72,18.89,169.89,169.89,0,0,0,18.93,8.08l.49.17.18.06,1.89.62.7.21.19.06c.57.17,1.14.34,1.7.49l1,.27c.55.15,1.1.28,1.64.41l1,.23,1.66.33.16,0,.86.15c.67.11,1.27.18,1.81.24h.09l.82.1c1,.09,1.93.13,2.81.13h62.38c8.3,0,20.4-3.9,36-11.59a21,21,0,0,0,11.72-18.89V160C206.78,156.86,206.84,132.27,199.92,115.52ZM170.61,60.16Z"/></g><g id="Layer_2" data-name="Layer 2"><path class="cls-2" d="M190.94,119.85c-6.46-15.63-20.05-26.51-25.49-36.71s1-17.67,6.12-24.47,5.05-20.4-8.19-22.1-35.66,0-35.66,0-22.44-1.7-35.67,0-13.28,15.3-8.18,22.1S95.42,73,90,83.14s-19,21.08-25.5,36.71S58.37,161,58.37,161v65.19A10.13,10.13,0,0,0,64,235.27c8.07,4,22.93,10.7,31.75,10.7h63.91c8.83,0,23.68-6.7,31.76-10.7a10.12,10.12,0,0,0,5.63-9.09V161S197.4,135.49,190.94,119.85Z"/><path class="cls-2" d="M190.94,119.85c-6.46-15.63-20.05-26.51-25.49-36.71s1-17.67,6.12-24.47,5.05-20.4-8.19-22.1-35.66,0-35.66,0-22.44-1.7-35.67,0-13.28,15.3-8.18,22.1S95.42,73,90,83.14s-19,21.08-25.5,36.71S58.37,161,58.37,161v65.19A10.13,10.13,0,0,0,64,235.27c8.07,4,22.93,10.7,31.75,10.7h63.91c8.83,0,23.68-6.7,31.76-10.7a10.12,10.12,0,0,0,5.63-9.09V161S197.4,135.49,190.94,119.85Z"/><path class="cls-3" d="M186.92,147.76H68.51c-.48,7.1-.42,12.33-.42,12.33v62.29a9.85,9.85,0,0,0,4.85,8.69c6.94,3.81,19.71,10.21,27.3,10.21h55c7.59,0,20.36-6.4,27.31-10.21a9.86,9.86,0,0,0,4.84-8.69V160.09S187.4,154.86,186.92,147.76Z"/><path class="cls-4" d="M186.92,147.76H68.51c-.48,7.1-.42,12.33-.42,12.33v62.29a9.85,9.85,0,0,0,4.85,8.69c6.94,3.81,19.71,10.21,27.3,10.21h55c7.59,0,20.36-6.4,27.31-10.21a9.86,9.86,0,0,0,4.84-8.69V160.09S187.4,154.86,186.92,147.76Z"/><circle class="cls-5" cx="160.95" cy="162.32" r="11.15"/><circle class="cls-6" cx="127.68" cy="177.84" r="6.28"/><g class="cls-7"><path class="cls-8" d="M97.63,176.34a13.06,13.06,0,1,1,13.06-13.06A13.08,13.08,0,0,1,97.63,176.34Zm0-22.8a9.74,9.74,0,1,0,9.74,9.74A9.75,9.75,0,0,0,97.63,153.54Z"/></g><g class="cls-7"><path class="cls-9" d="M139.19,147.76a4.34,4.34,0,1,1-3.47,0h-2.49a5.82,5.82,0,1,0,8.45,0Z"/></g><circle class="cls-10" cx="121.4" cy="157.54" r="2.63"/><circle class="cls-10" cx="176.74" cy="147.39" r="4.64"/><circle class="cls-10" cx="174.71" cy="128.78" r="2.63"/><circle class="cls-10" cx="125.45" cy="119.45" r="2.63"/><circle class="cls-10" cx="146.3" cy="134.31" r="5.53"/><circle class="cls-10" cx="77.17" cy="128.78" r="2.63"/><g class="cls-11"><path class="cls-12" d="M114,109.4a16.32,16.32,0,0,1-1.81-.1,11.8,11.8,0,0,1-8.75-5.08c-1.22-1.79-1.85-3.86-1.53-5a12,12,0,0,1,.69-1.83A12.06,12.06,0,0,1,96.32,100c-5.28.58-9-2.76-10-5.33-.92-2.41,1.17-8.42,3.54-10.2,1.58-1.19,6.7-4.7,9.31-6.48a7.68,7.68,0,0,1-.84-1.28.53.53,0,0,1,.11-.64l5.5-5.28,1-1.75a.56.56,0,0,1,.48-.28h37.38a.59.59,0,0,1,.33.11l8.78,6.54a.57.57,0,0,1,.22.38.54.54,0,0,1-.12.41s-.15.19-.44.49A108.74,108.74,0,0,1,164.08,84h0a10.91,10.91,0,0,1,4.38,7.2A9.23,9.23,0,0,1,167,98c-1.54,2.09-5.69,2.82-9.12,2.63-3.6-.21-6.53-1.34-8.11-3.08.11,2.79-.49,9.83-9.06,11.4-5.57,1-9-.6-11-2.15a7.2,7.2,0,0,1-2.92-4.7c0-.47,0-1.48,0-2.79h-1.52a20.1,20.1,0,0,1,0,2.21C124.86,104.89,121.07,109.4,114,109.4Zm-5.4-15.51h-.5c-2.85.13-4.56,3.58-5.12,5.59a6.26,6.26,0,0,0,1.37,4.1,10.71,10.71,0,0,0,8,4.61c7.18.73,11.49-3.47,11.84-6.78a20.85,20.85,0,0,0,0-2.62.55.55,0,0,1,.55-.58h2.64a.55.55,0,0,1,.55.56c0,1.55,0,2.76,0,3.3a6.2,6.2,0,0,0,2.51,3.88c1.75,1.4,4.92,2.87,10.08,1.93,8.95-1.65,8.3-9.64,8.08-11.22a2.52,2.52,0,0,0-1.33-1.77,5.14,5.14,0,0,0-4-.24,3.11,3.11,0,0,1,1.88,3.28,3.48,3.48,0,0,1-1.54,2.3,8,8,0,0,1-5.47,1.12c-1.13-.21-1.59-2-1.77-3.45-.54-4.29.59-11.52,4.7-13.39,5.48-2.5,10.47,1,13.46,3l.42.29c3.85,2.68,4.1,3.91,3.94,4.6s-.7,1-1.68,1.2a5.3,5.3,0,0,1-4.13-1.23,6.41,6.41,0,0,1-1.75-2,3.74,3.74,0,0,0-1.3,5.65c1.09,1.9,4.11,3.22,7.88,3.44s7-.69,8.16-2.19a8.11,8.11,0,0,0,1.25-6,9.84,9.84,0,0,0-4-6.47,114,114,0,0,0-13-7.55.57.57,0,0,1-.3-.42.54.54,0,0,1,.17-.48c.21-.19.37-.36.51-.49l-8.15-6.07H105.74l-.88,1.54a.64.64,0,0,1-.1.13l-5.24,5a11,11,0,0,0,.88,1.2.55.55,0,0,1,.12.43.59.59,0,0,1-.23.38c-1.86,1.26-8.05,5.5-9.76,6.78-2,1.47-3.92,7-3.17,8.93a8.5,8.5,0,0,0,8.83,4.62,10.72,10.72,0,0,0,7.23-4,3.35,3.35,0,0,0,.84-2.33c-.2-1-1.32-1.79-2.27-2.22a2.57,2.57,0,0,1-.55,2.29c-1.3,1.49-4.45,1.73-6.74.51a1.82,1.82,0,0,1-1.09-1.42c-.13-1.33,1.48-2.66,2.26-3.3l.14-.12a49.46,49.46,0,0,1,10.14-5.9.55.55,0,0,1,.47,0,29.72,29.72,0,0,0,9.46,2.6.55.55,0,0,1,.48.47c.38,2.6,1.25,8.88,1.25,11.14a5.58,5.58,0,0,1-2,4.25,4.48,4.48,0,0,1-3.69,1,5.31,5.31,0,0,1-3.58-3.21,3,3,0,0,1-.2-2.61c.46-.72,2-1.35,3.13-1.75A8.42,8.42,0,0,0,108.58,93.89Zm0-1.11a7.65,7.65,0,0,1,4.7,1.29.55.55,0,0,1-.21,1c-1.59.43-3.49,1.19-3.79,1.67a2.26,2.26,0,0,0,.27,1.58,4.24,4.24,0,0,0,2.78,2.56,3.31,3.31,0,0,0,2.77-.8,4.47,4.47,0,0,0,1.6-3.4c0-2.07-.78-7.79-1.17-10.56a30.86,30.86,0,0,1-9.15-2.54,48.94,48.94,0,0,0-9.66,5.64l-.15.12c-.48.4-1.93,1.59-1.86,2.34,0,.08,0,.3.51.55,2,1.07,4.51.75,5.38-.26s0-2.15,0-2.2a.55.55,0,0,1,.6-.84c.15,0,3.7,1,4.19,3.49a3,3,0,0,1-.12,1.45,5,5,0,0,1,2.8-1Zm36.5-8a8.44,8.44,0,0,0-3.5.77c-3.45,1.58-4.58,8.13-4.06,12.25.22,1.79.69,2.47.87,2.5a6.9,6.9,0,0,0,4.64-.93,2.42,2.42,0,0,0,1.08-1.58c.32-1.94-2.49-2.57-2.52-2.58a.56.56,0,0,1-.1-1.05c3.28-1.42,5.37-.73,6.32-.19a3.29,3.29,0,0,1,.44.28,4.33,4.33,0,0,1,.19-2,5.74,5.74,0,0,1,3-3.09.53.53,0,0,1,.49,0,.55.55,0,0,1,.27.42,4.17,4.17,0,0,0,1.56,1.94,4.37,4.37,0,0,0,3.27,1c.59-.1.77-.26.79-.35s.16-.92-3.49-3.45l-.43-.29C151.7,86.92,148.59,84.75,145.08,84.75ZM127.34,96.61h0l-2.8-.17a.57.57,0,0,1-.52-.52c-.12-1.69-.3-3.67-.53-5.9a.57.57,0,0,1,.15-.45.53.53,0,0,1,.44-.16l3.35.22a.55.55,0,0,1,.51.56c0,1.87,0,4,0,5.87a.56.56,0,0,1-.17.4A.55.55,0,0,1,127.34,96.61Zm-2.29-1.25,1.73.11c0-1.57,0-3.23,0-4.77l-2.18-.15C124.8,92.33,124.94,93.94,125.05,95.36Zm-1.31-7.18a.55.55,0,0,1-.55-.49c-.08-.73-.15-1.36-.21-1.82a.54.54,0,0,1,.13-.42.56.56,0,0,1,.4-.2h.27l.54,0c1-.06,2-.15,3-.25a.58.58,0,0,1,.42.14.57.57,0,0,1,.19.42v1.83a.56.56,0,0,1-.52.55l-3.62.27Zm.41-1.84c0,.21,0,.44.08.69l2.58-.19v-.71c-.78.08-1.59.14-2.42.19Z"/></g><path class="cls-13" d="M124,40.91c-5.34-.28-15.25-1.52-16.77,3.24s-3.62,13.15-.19,15.62,2.47,4.39,1.71,5.72-3.81,3.24,1.33,3.62,33.54.19,36.78,0,1-2.48-.95-3.81-.57-6.86,1.14-9S149,50.06,148.51,47s-2.39-5.72-7.73-5.91S126.87,41.06,124,40.91Z"/><path class="cls-14" d="M120.07,37.35c-2.47,0-4.87-.16-7.58.08s1.12,1.6,5,1.6,3.51.32,8.78.48,10-.16,13.66-.24,8.62-1.74,5.58-2-13.41.35-18.2.35S120.71,37.34,120.07,37.35Z"/><path class="cls-15" d="M105.2,35.83s-7.25-13-8.29-15.48-2.24-8.79,2.16-9,30.18.16,39.92.4,12.53,1,15.49,1,3,4.39,2.15,7.27-9.9,15.8-9.9,15.8-12.64.74-17.85.74S107.19,36.23,105.2,35.83Z"/><g class="cls-11"><path class="cls-12" d="M130.86,241c-.41,0-.84,0-1.27,0-19.56-.59-25.69-2.73-29.84-10.42-3.18-5.89-2.37-10.41-1.21-13.4-2.61,2.24-6.15,4.88-9.11,5.71-6.8,1.91-13.15.69-17-3.25-3.48-3.58-8.28-11-10.36-20.25-2-8.75.88-18,1.82-21l.09-.3c1.35-4.38,4-7.27,7.92-8.6,5.18-1.77,11.66,1.74,13.6,7.35,1.62,4.69,2,8.54,1.2,11.43,5.84-5.2,13.52-3.55,17.89-2.61a8.63,8.63,0,0,1,5,3.74c1.49-1.21,6.09-4.42,10.25-1.53a16.79,16.79,0,0,1,5.49,6c.91-2.08,3-6.08,5.9-7.16s8.52.17,11.36,2a3.72,3.72,0,0,1,2,2.55v.09c1.45-3,3.77-5.14,6.19-5.66,4.37-.94,12-2.59,17.88,2.61-.81-2.89-.42-6.74,1.2-11.43,1.94-5.61,8.42-9.12,13.6-7.35,3.91,1.33,6.57,4.22,7.92,8.6h0l.09.3c.94,3,3.79,12.24,1.82,21-2.08,9.23-6.88,16.68-10.36,20.25-3.84,3.94-10.2,5.16-17,3.25-3.83-1.07-9-5.3-13-9.36a19.23,19.23,0,0,1,1.24,9C153.68,227,150.46,241,130.86,241Zm-30.67-26.6a.55.55,0,0,1,.47.84c-1.26,2.44-3.87,7.5.06,14.79s9.85,9.27,28.9,9.85c19.25.58,22.83-12,23.48-17.46a19.22,19.22,0,0,0-2.6-11.51.56.56,0,0,1,.9-.65c5.43,6,11.28,10.53,14.9,11.55,6.41,1.79,12.35.68,15.91-3,3.38-3.46,8-10.71,10.07-19.71,1.91-8.46-.88-17.47-1.8-20.42l-.09-.31c-1.24-4-3.66-6.67-7.21-7.88-4.63-1.58-10.45,1.6-12.2,6.67-2.68,7.76-1.95,12.8,2.17,15a6.16,6.16,0,0,0,7.4-.83,2.92,2.92,0,0,1-2.2-.75,4,4,0,0,1-.81-3.82,5.85,5.85,0,0,1,3.65-4.35,3.92,3.92,0,0,1,3.48.41c1.91,1.3,3.07,4.59,3.54,10.06.58,6.82-4.16,15.84-4.37,16.22a.51.51,0,0,1-.27.25c-.17.07-4.38,1.8-11.61.85-7.62-1-12.93-7.66-13.51-10.28a3.31,3.31,0,0,1,1.6-3.39c1.39-1,3.59-1.54,5.1-.63,1.77,1.06,1.56,3.29,1.25,4.6,1.46-.46,4.24-1.57,5.08-3.71.58-1.48.13-3.27-1.33-5.3-5.54-7.68-14-5.86-19.07-4.77-2.63.56-5.14,3.47-6.26,7.22a.54.54,0,0,1-.59.39.55.55,0,0,1-.49-.5l-.1-1.31c0-.48-.06-.89-.09-1.21,0-.51-.58-1.12-1.51-1.71-2.57-1.63-7.78-2.82-10.38-1.86-3.44,1.26-5.72,7.68-5.75,7.74a.57.57,0,0,1-.53.37.55.55,0,0,1-.52-.39s-1.13-3.6-5.61-6.7c-4-2.76-8.6,1.18-9.26,1.77a.52.52,0,0,1-.2.19.54.54,0,0,1-.71-.18,8.09,8.09,0,0,0-4.73-3.82c-5.06-1.09-13.53-2.91-19.07,4.77-1.46,2-1.91,3.82-1.33,5.3.84,2.14,3.62,3.25,5.08,3.71-.3-1.31-.52-3.54,1.25-4.6,1.51-.91,3.71-.37,5.1.63a3.31,3.31,0,0,1,1.6,3.39c-.58,2.62-5.89,9.27-13.51,10.28-7.23.95-11.43-.78-11.61-.85a.55.55,0,0,1-.27-.25c-.21-.38-5-9.4-4.37-16.22.47-5.47,1.63-8.76,3.54-10.06a3.92,3.92,0,0,1,3.48-.41,5.85,5.85,0,0,1,3.65,4.35,3.93,3.93,0,0,1-.81,3.82,3.19,3.19,0,0,1-2.19.75,6.17,6.17,0,0,0,7.39.83c4.12-2.18,4.85-7.22,2.17-15-1.75-5.07-7.57-8.25-12.2-6.67-3.55,1.21-6,3.87-7.21,7.88l-.09.31c-.92,2.95-3.71,12-1.8,20.42,2,9,6.69,16.25,10.07,19.71,3.56,3.65,9.5,4.76,15.91,3,2.67-.75,6.46-3.33,10.68-7.26A.55.55,0,0,1,100.19,214.41Zm63.12-17.85a4.66,4.66,0,0,0-2.62.89,2.37,2.37,0,0,0-1.16,2.25c.52,2.32,5.57,8.5,12.57,9.42a24.38,24.38,0,0,0,10.86-.7c.67-1.32,4.65-9.44,4.14-15.43-.42-5-1.45-8.15-3-9.24a2.84,2.84,0,0,0-2.54-.26,4.78,4.78,0,0,0-2.89,3.53,2.87,2.87,0,0,0,.49,2.77c.71.66,1.91.47,2.79.2a.55.55,0,0,1,.62.84c0,.06-3.93,5.49-9.89,2.33l-.37-.21a5.45,5.45,0,0,1,.25,4.27c-1.38,3.5-6.6,4.58-6.82,4.63a.56.56,0,0,1-.62-.75s1.23-3.2-.49-4.23A2.47,2.47,0,0,0,163.31,196.56ZM72.47,208.42a24.38,24.38,0,0,0,10.86.7c7-.92,12-7.1,12.57-9.42a2.37,2.37,0,0,0-1.16-2.25,3.84,3.84,0,0,0-3.89-.58c-1.72,1-.5,4.2-.49,4.23a.56.56,0,0,1-.62.75c-.22,0-5.44-1.13-6.82-4.63a5.45,5.45,0,0,1,.25-4.27l-.37.21c-6,3.16-9.85-2.27-9.89-2.33a.56.56,0,0,1,0-.64.54.54,0,0,1,.61-.2,3,3,0,0,0,2.8-.2,2.87,2.87,0,0,0,.48-2.77,4.78,4.78,0,0,0-2.89-3.53,2.81,2.81,0,0,0-2.54.26c-1.6,1.09-2.62,4.2-3,9.24C67.82,199,71.8,207.1,72.47,208.42Zm54.24,28.77c-4.73,0-10-.72-13.92-3a14.1,14.1,0,0,1-6.65-9.92c-.65-3.83.17-7.54,2.21-9.94,4-4.72,15.67-12.58,16.16-12.91a.53.53,0,0,1,.57,0c.81.43,19.75,10.61,21.36,19.13s-5.74,14.75-10.32,15.76h0A46.49,46.49,0,0,1,126.71,237.19Zm-1.86-34.7c-1.82,1.24-12.08,8.31-15.66,12.53-1.82,2.15-2.56,5.52-2,9a13,13,0,0,0,6.12,9.15c6.81,4,17.72,3,22.53,2h0c4.21-.92,11-6.54,9.47-14.46C143.94,213.24,127.28,203.82,124.85,202.49ZM110,206.6a.55.55,0,0,1-.51-.75c.07-.18,1.75-4.4,5.62-5.37a1.72,1.72,0,0,0,1.29-2.23c-.27-1.54-1.57-3.05-2.48-2.95a.56.56,0,0,1-.55-.3.55.55,0,0,1,.09-.63,5.91,5.91,0,0,1,6.36-1.29,4.4,4.4,0,0,1,2.62,3.24,7.72,7.72,0,0,1-2,6.56c-2.58,2.75-10.06,3.68-10.38,3.72Zm5.1-12.12a5.29,5.29,0,0,1,2.39,3.57,2.79,2.79,0,0,1-2.11,3.51,7.52,7.52,0,0,0-4.42,3.79c2.12-.35,6.9-1.32,8.68-3.23a6.63,6.63,0,0,0,1.71-5.57,3.25,3.25,0,0,0-1.95-2.44A4.52,4.52,0,0,0,115.07,194.48Zm29.65,12.12h-.06c-.38,0-9.32-1-12.4-3.68a7.1,7.1,0,0,1-2.46-6.35,4.59,4.59,0,0,1,3.17-3.5h0a7.78,7.78,0,0,1,7.47,1.26.56.56,0,0,1-.42,1c-1.25-.11-2.92,1.56-3.15,3.14-.17,1.09.39,1.77,1.65,2a10.21,10.21,0,0,1,6.7,5.33.59.59,0,0,1-.05.56A.56.56,0,0,1,144.72,206.6Zm-11.39-12.48a3.48,3.48,0,0,0-2.44,2.66,6,6,0,0,0,2.1,5.31c2.22,2,8.19,2.94,10.68,3.27a8.89,8.89,0,0,0-5.37-3.8c-1.83-.38-2.78-1.61-2.53-3.28a5.4,5.4,0,0,1,2.88-3.8,6.62,6.62,0,0,0-5.32-.36Z"/></g><g class="cls-11"><path class="cls-12" d="M123.12,182.87a1.86,1.86,0,0,1-.66.26,7.9,7.9,0,0,1-.85.07l-1,.07.44.08.37,0h0l.37,0h0a1.67,1.67,0,0,1,.32,0h.06l.08,0a.31.31,0,0,1,.13.06h0l.08.07v0a.43.43,0,0,1,0,.07.84.84,0,0,1,.07.19l.18-.14a.49.49,0,0,1,.52-.09l.07,0c-.08.22-.16.43-.26.68l-.1.27.12-.13.76-.72h0l0,0,.23.13h0a1.6,1.6,0,0,1-.41,1l-.08.09-.09.09-.2.16a2,2,0,0,1-2.12.28,4,4,0,0,1-.34-.23h0l-.31-.24,0,0-.3-.26h0a14.55,14.55,0,0,1-1.57-1.71c1.07-.56,2.07-1.12,3.1-1.61,1.41-.68,2.41.53,2.57,1.74C123.86,183.4,123.52,183,123.12,182.87Z"/><path class="cls-12" d="M126.48,175.5c.17.21.34.41.52.61a2.92,2.92,0,0,1,.37.57,2.77,2.77,0,0,1,.22.63,1.29,1.29,0,0,1,0,.19c0,.12,0,.23.05.34a3.59,3.59,0,0,1,0,.66.78.78,0,0,1,0,.16,3.58,3.58,0,0,1-1,1.87l-.12.12-.25.23-.14.11a4.8,4.8,0,0,1-1.28.71h0c0-.07,0-.14,0-.21l0-.43a9.6,9.6,0,0,0,0-1.07s0-.08,0-.13a3.07,3.07,0,0,1,0-.74.89.89,0,0,1,.18-.43l-.07,0-.28-.13.21-.62.21-.62-.23,0h-.1l-.1,0h0c0-.27,0-.52,0-.77-.4,1.12-.84,2.23-.32,3.43l-.54.1c.17.54.33,1,.49,1.58,0,0-.08,0-.1,0a3.45,3.45,0,0,1-1.82-3.69,5.59,5.59,0,0,1,.9-2,9.9,9.9,0,0,1,1.78-2h0C125.55,174.4,126,175,126.48,175.5Z"/><path class="cls-12" d="M129.75,184.87l-.18.06a4.81,4.81,0,0,1-.79.21l-.1,0-.25,0a2.67,2.67,0,0,1-.4,0l-.32,0-.19-.05-.33-.12-.21-.11a3.16,3.16,0,0,1-1.35-1.38,2.77,2.77,0,0,1,.46-.22,4.25,4.25,0,0,1,2.43-.09c-.09-.18-.16-.31-.24-.49l0-.07h1.25c.11,0,.28,0,.31-.1h0a.2.2,0,0,1,0-.08l0,0,0,0s0,0,0,0v0a.42.42,0,0,1,.25-.05h0l.14,0h0l.42,0v-.14c-1.76-.47-3.42.25-5.15.65a3.12,3.12,0,0,1,1.15-1.54,3.59,3.59,0,0,1,3.08-.47c1.06.26,2.11.61,3.17.93,0,0,0,0,0,0h0a0,0,0,0,0,0,0h0c-.14.17-.29.33-.44.49l-.43.49-.87,1-.13.14a3.85,3.85,0,0,1-1.12.82Z"/></g><path class="cls-16" d="M58.4,157.54c2.8-13.74,6.05-28,8.43-33.86,5.17-12.61,14.59-22,18.87-31.26a10.34,10.34,0,0,0,1-4.13c-6.45,8.79-16.79,18.52-22.18,31.56C59.48,132,58.56,150.05,58.4,157.54Z"/><path class="cls-17" d="M150.89,35.84A83.41,83.41,0,0,0,161,38.41c5.6,1.06,11.1,4.91,11.54,9.3s-1.43,8.91-4,12.32c-1.84,2.48-4.88,7.51-4.93,12.65,1-5.27,4.73-9.77,7.91-14,5.1-6.8,5.05-20.4-8.19-22.1A112.71,112.71,0,0,0,150.89,35.84Z"/><path class="cls-18" d="M191.43,235.27a10.12,10.12,0,0,0,5.63-9.09v-21c-2.11,1.66-4.55,3.55-6.3,4.8-3.72,2.66-9.84,6.38-31.1,7.44s-69.1,1.33-82.39-1.86c-8-1.93-14.8-9.2-18.9-14.65v25.23A10.13,10.13,0,0,0,64,235.27c8.07,4,22.93,10.7,31.75,10.7h63.91C168.5,246,183.35,239.27,191.43,235.27Z"/><path class="cls-18" d="M191.43,235.27a10.12,10.12,0,0,0,5.63-9.09v-21c-2.11,1.66-4.55,3.55-6.3,4.8-3.72,2.66-9.84,6.38-31.1,7.44s-69.1,1.33-82.39-1.86c-8-1.93-14.8-9.2-18.9-14.65v25.23A10.13,10.13,0,0,0,64,235.27c8.07,4,22.93,10.7,31.75,10.7h63.91C168.5,246,183.35,239.27,191.43,235.27Z"/><path class="cls-19" d="M151.9,94.09c-5.27,1-23,4.69-30.25-2.54s-5.94-17.89,1.93-27.67S138.94,51,131.05,48.29s-3.33-7.07-3.33-7.07a50,50,0,0,0,7.45-5.08c-4.45.21-7.45.43-7.45.43s-20.17-1.52-33.54-.23c2.58,7.22,12.23,12.9,14.63,17.92,3.5,7.31-13,9.32-10,11.46s4.05,8.86,2.93,12.27-5.39,10.77-18.23,33.17S72,177,74.14,205.17c1.08,14.21,2.24,26.92,3.12,36,6.55,2.6,13.5,4.76,18.5,4.76h28.5c-1.54-4.48-4.61-11.42-10.72-21.33-12.25-19.86-1.8-96,0-104.22s9.5-12.83,21.86-14.6S157.17,93.12,151.9,94.09Z"/><path class="cls-20" d="M88.6,238.14s24.75,1.73,36.34,1.58,34.92,0,44.54-2.53a25.48,25.48,0,0,1-11.35,4.09c-7.25,1-38.54,1.12-45.52.8S97.43,243.19,88.6,238.14Z"/><path class="cls-21" d="M151.57,15.45c-.21-1.5-.82-2.65-2.06-2.69-2.43-.08-4.72-.8-12.73-1s-29.2-.64-32.81-.4a2.54,2.54,0,0,0-2.3,2.11C109.29,16.57,126.47,21.36,151.57,15.45Z"/><path class="cls-22" d="M102.22,221.26c41.32,2.61,85.19,1.53,91.26-13.27-1,.76-1.93,1.46-2.72,2-3.72,2.66-9.84,6.38-31.1,7.44s-69.1,1.33-82.39-1.86A25.19,25.19,0,0,1,68,210.91C69.5,214.51,76.36,219.63,102.22,221.26Z"/></g></g></svg>
