<svg xmlns="http://www.w3.org/2000/svg" xmlns:xlink="http://www.w3.org/1999/xlink" viewBox="0 0 256 256" width="256" height="256"><defs><style>.cls-1{isolation:isolate;}.cls-2{fill:url(#linear-gradient);}.cls-3{fill:url(#linear-gradient-3);}.cls-13,.cls-17,.cls-4{mix-blend-mode:overlay;}.cls-4{fill:url(#radial-gradient);}.cls-5,.cls-9{fill:none;stroke:#541a75;stroke-linecap:round;stroke-linejoin:round;}.cls-5{opacity:0.3;}.cls-16,.cls-6{opacity:0.4;}.cls-6{fill:url(#linear-gradient-4);}.cls-7{fill:url(#linear-gradient-5);}.cls-8{fill:url(#linear-gradient-6);}.cls-10{fill:#541a75;}.cls-11{fill:url(#linear-gradient-7);}.cls-12{fill:url(#linear-gradient-8);}.cls-13{fill:url(#radial-gradient-2);}.cls-14{opacity:0.5;fill:url(#linear-gradient-9);}.cls-15{fill:url(#linear-gradient-10);}.cls-16{fill:#fdd684;}.cls-17{fill:url(#radial-gradient-4);}</style><linearGradient id="linear-gradient" x1="126.21" y1="294.48" x2="130.53" y2="40.86" gradientUnits="userSpaceOnUse"><stop offset="0" stop-color="#ac1d6e"/><stop offset="0.43" stop-color="#59a2de"/><stop offset="0.65" stop-color="#b4cbde"/><stop offset="0.78" stop-color="#77b0de"/></linearGradient><linearGradient id="linear-gradient-3" x1="127.88" y1="96.57" x2="127.88" y2="276.87" gradientUnits="userSpaceOnUse"><stop offset="0" stop-color="#8769c7"/><stop offset="1" stop-color="#39005c"/></linearGradient><radialGradient id="radial-gradient" cx="150.53" cy="141.35" r="90.13" gradientTransform="translate(-7.59) scale(0.9 1)" gradientUnits="userSpaceOnUse"><stop offset="0.05" stop-color="#c7c7c7"/><stop offset="1" stop-color="#60b2c7" stop-opacity="0"/></radialGradient><linearGradient id="linear-gradient-4" x1="127.44" y1="49.3" x2="123.43" y2="113.46" gradientUnits="userSpaceOnUse"><stop offset="0" stop-color="#db8d0f"/><stop offset="0.59" stop-color="#deb902"/><stop offset="1" stop-color="#de9400"/></linearGradient><linearGradient id="linear-gradient-5" x1="134.41" y1="-26.22" x2="123.79" y2="93.24" xlink:href="#linear-gradient-4"/><linearGradient id="linear-gradient-6" x1="131.28" y1="-68.16" x2="126.64" y2="8.62" gradientUnits="userSpaceOnUse"><stop offset="0" stop-color="#db8d0f"/><stop offset="0.59" stop-color="#deb902"/><stop offset="1" stop-color="#946300"/></linearGradient><linearGradient id="linear-gradient-7" x1="102.15" y1="156.94" x2="63.83" y2="116.4" gradientUnits="userSpaceOnUse"><stop offset="0" stop-color="#ac1d6e"/><stop offset="0.43" stop-color="#59a2de"/><stop offset="0.65" stop-color="#b4cbde"/></linearGradient><linearGradient id="linear-gradient-8" x1="201.43" y1="85.04" x2="157.38" y2="38.43" xlink:href="#linear-gradient-7"/><radialGradient id="radial-gradient-2" cx="150.27" cy="128.51" r="286.62" gradientUnits="userSpaceOnUse"><stop offset="0.1" stop-color="#c7c7c7"/><stop offset="1" stop-color="#60b2c7" stop-opacity="0"/></radialGradient><linearGradient id="linear-gradient-9" x1="107.14" y1="-84.09" x2="118.17" y2="379.04" gradientUnits="userSpaceOnUse"><stop offset="0" stop-color="#acffff"/><stop offset="1" stop-color="#b4cbde" stop-opacity="0"/></linearGradient><linearGradient id="linear-gradient-10" x1="187.39" y1="305.38" x2="119.4" y2="233.44" xlink:href="#linear-gradient-7"/><radialGradient id="radial-gradient-4" cx="151.34" cy="188.03" r="130.03" xlink:href="#radial-gradient-2"/></defs><g class="cls-1"><g id="Layer_1" data-name="Layer 1"><path class="cls-2" d="M194.88,119.05c-6.84-16.57-21.25-28.1-27-38.9s1.08-18.73,6.48-25.94,5.35-21.61-8.67-23.41-37.8,0-37.8,0-23.77-1.8-37.79,0S76,47,81.41,54.21,93.66,69.34,87.9,80.15s-20.17,22.33-27,38.9-6.48,43.59-6.48,43.59v69.08a10.74,10.74,0,0,0,6,9.64c8.55,4.24,24.3,11.33,33.65,11.33h67.72c9.36,0,25.1-7.09,33.66-11.33a10.75,10.75,0,0,0,6-9.64V162.64S201.73,135.62,194.88,119.05Z"/><path class="cls-2" d="M194.88,119.05c-6.84-16.57-21.25-28.1-27-38.9s1.08-18.73,6.48-25.94,5.35-21.61-8.67-23.41-37.8,0-37.8,0-23.77-1.8-37.79,0S76,47,81.41,54.21,93.66,69.34,87.9,80.15s-20.17,22.33-27,38.9-6.48,43.59-6.48,43.59v69.08a10.74,10.74,0,0,0,6,9.64c8.55,4.24,24.3,11.33,33.65,11.33h67.72c9.36,0,25.1-7.09,33.66-11.33a10.75,10.75,0,0,0,6-9.64V162.64S201.73,135.62,194.88,119.05Z"/><path class="cls-3" d="M190.39,145.58h-125c-.77,9-.68,16.11-.68,16.11v66a10.46,10.46,0,0,0,5.14,9.21c7.36,4,20.89,10.82,28.94,10.82H157c8,0,21.58-6.78,28.93-10.82a10.44,10.44,0,0,0,5.14-9.21v-66S191.15,154.6,190.39,145.58Z"/><path class="cls-4" d="M190.39,145.58h-125c-.77,9-.68,16.11-.68,16.11v66a10.46,10.46,0,0,0,5.14,9.21c7.36,4,20.89,10.82,28.94,10.82H157c8,0,21.58-6.78,28.93-10.82a10.44,10.44,0,0,0,5.14-9.21v-66S191.15,154.6,190.39,145.58Z"/><path class="cls-5" d="M166.07,81.53a121.52,121.52,0,0,0-13.92-8h0a10.91,10.91,0,0,0,1-1l-9.31-6.94h-39.6l-1.1,1.94-5.89,5.64a9.91,9.91,0,0,0,1.22,1.75c-2.84,1.94-8.65,5.92-10.36,7.2-2.29,1.73-4.42,7.86-3.56,10.14s4.48,5.88,10,5.27,9.52-5.07,9.06-7.4-4-3.24-4-3.24,1.15,1.72,0,3-4.13,1.62-6.42.4.72-3.51,1.49-4.15c2.93-2.47,7.69-4.83,10.62-6.18a31.81,31.81,0,0,0,10.2,2.81c.39,2.72,1.32,9.37,1.32,11.73,0,3-2.63,5.53-5.33,5s-4.26-4.26-3.62-5.28,4.36-2,4.36-2-1.66-1.38-5.16-1.22-5.4,4.3-6,6.36,2.42,9.16,10.39,10,12.77-3.86,13.18-7.71a21.46,21.46,0,0,0,0-2.86h2.8c0,1.65,0,3,0,3.51.1,2.47,4.33,8.5,14,6.72s9.32-10.48,9-12.55-3.17-4.11-7.88-2.07c0,0,3.56.77,3.12,3.4s-4.4,3.57-6.74,3.14-2.53-14.1,3.24-16.73,10.95,1.3,14.13,3.49,5.56,4.58,2.63,5.09-5.71-2.55-5.81-3.65c0,0-5.09,2.08-2.21,7.11s15.29,5,18,1.38S171.07,85.18,166.07,81.53Zm-38.55,1.14c0,.51,0,1.17,0,1.94l-3.84.29c-.09-.78-.16-1.44-.22-1.93l.87,0C125.43,82.87,126.49,82.78,127.52,82.67Zm-3.58,4.7,3.55.24c0,2,0,4.2,0,6.22l-3-.18C124.36,91.57,124.15,89.33,123.94,87.37Z"/><path class="cls-6" d="M124,35.39c-5.65-.29-16.15-1.61-17.77,3.44s-3.84,13.93-.2,16.56,2.62,4.64,1.82,6-4,3.44,1.41,3.84,35.54.2,39,0,1-2.62-1-4-.6-7.27,1.21-9.49,2-6.66,1.52-9.89-2.53-6.06-8.18-6.26S127,35.55,124,35.39Z"/><path class="cls-7" d="M119.78,31.62c-2.62.05-5.16-.17-8,.09s1.18,1.69,5.24,1.69,3.72.34,9.31.51,10.57-.17,14.47-.26,9.13-1.84,5.92-2.06S132.47,32,127.4,32,120.46,31.61,119.78,31.62Z"/><path class="cls-8" d="M104,30s-7.68-13.8-8.78-16.42S92.87,4.29,97.52,4s32,.17,42.3.42,13.29,1,16.42,1.1,3.13,4.66,2.28,7.7S148,30,148,30s-13.4.79-18.92.79S106.13,30.44,104,30Z"/><path class="cls-9" d="M195.11,180.93a12.65,12.65,0,0,0-8.05-8.73c-5.22-1.78-11.74,1.72-13.72,7.43s-3.35,13.44,2.59,16.59,9.76-2.29,9.76-2.29c-6.4,2-5-6.72-.76-8s6.1,3.44,6.71,10.58-4.58,16.87-4.58,16.87-4.42,1.86-12,.86-13.26-7.72-13.87-10.44,4-5,6.25-3.63.76,5.21.76,5.21,11.43-2.29,5.34-10.73-15.56-6.43-20.89-5.28c-3.12.66-5.91,4.06-7.1,8.06-.08-1.12-.14-2.06-.2-2.68-.26-2.92-9.49-5.73-13.44-4.28s-6.46,8.56-6.46,8.56-1.19-4-6.2-7.41-10.67,2-10.67,2v0a9.13,9.13,0,0,0-5.4-4.31c-5.33-1.15-14.78-3.15-20.88,5.28s5.33,10.73,5.33,10.73-1.52-3.84.77-5.21,6.86.92,6.25,3.63-6.25,9.44-13.88,10.44-12-.86-12-.86-5.19-9.72-4.58-16.87,2.44-11.86,6.71-10.58,5.64,10-.76,8c0,0,3.81,5.43,9.76,2.29s4.57-10.87,2.59-16.59-8.49-9.21-13.72-7.43a12.67,12.67,0,0,0-8.05,8.73c-.84,2.73-4.16,12.81-2,22.27s7,17.22,10.87,21.17,10.33,5.3,17.49,3.3c3.22-.9,7.54-4,11.61-7.83h0c-1.38,2.67-4.29,8.21.06,16.25s11.07,10.13,31.24,10.74,24.78-12.35,25.57-19a20.76,20.76,0,0,0-2.83-12.56c5.08,5.58,11.67,11.16,16.14,12.41,7.16,2,13.63.65,17.49-3.3s8.73-11.71,10.87-21.17S196,183.66,195.11,180.93ZM133.66,197.2a7.75,7.75,0,0,1,7.37,1.22c-2.89-.26-6.44,5.68-1.78,6.64a10.35,10.35,0,0,1,6.72,5.33s-9.7-1-12.87-3.76S129.38,198.68,133.66,197.2Zm-20.55,1.22a5.66,5.66,0,0,1,6.12-1.22c3.56,1.48,3.09,6.64.46,9.43S109,210.39,109,210.39s1.7-4.37,5.57-5.33S115.51,198.16,113.11,198.42Zm23.59,43.4c-4.58,1-16.77,2.29-24.4-2.14s-8.84-15.16-4.57-20.16,17.07-13.58,17.07-13.58,20.74,11,22.42,19.87S141.27,240.82,136.7,241.82Z"/><path class="cls-10" d="M123,185.83a2,2,0,0,1-.69.28c-.3,0-.61,0-.91.07l-1.08.07a4,4,0,0,0,.46.08l.4,0h0l.4,0h0l.34,0H122l.08,0,.13.07h0l.08.08h0a.35.35,0,0,1,0,.08.93.93,0,0,1,.07.2l.19-.14a.51.51,0,0,1,.55-.1l.08,0-.28.72-.11.28.14-.13.8-.77h0l0,0,.25.15h0a1.76,1.76,0,0,1-.44,1.06l-.09.09-.1.1-.2.17a2.08,2.08,0,0,1-2.25.29l-.36-.24h0c-.11-.09-.23-.17-.33-.26h0l-.32-.28h0a16.42,16.42,0,0,1-1.66-1.82c1.13-.6,2.19-1.19,3.28-1.71,1.5-.71,2.56.57,2.73,1.85C123.79,186.39,123.43,186,123,185.83Z"/><path class="cls-10" d="M126.57,178l.55.65a2.38,2.38,0,0,1,.39.6,2.55,2.55,0,0,1,.24.67,1.42,1.42,0,0,1,0,.2,2.23,2.23,0,0,1,0,.36,4.08,4.08,0,0,1,0,.7l0,.17a3.8,3.8,0,0,1-1,2l-.13.13-.27.24-.15.12a5.34,5.34,0,0,1-1.35.75h0a1.62,1.62,0,0,1,0-.22l0-.46a10.84,10.84,0,0,0,0-1.14s0-.08,0-.13a3.42,3.42,0,0,1-.06-.78.89.89,0,0,1,.2-.46l-.07,0-.3-.14.22-.66.22-.65-.24,0h-.11l-.11,0h0c0-.28,0-.55,0-.81-.43,1.18-.89,2.36-.35,3.63l-.57.11c.18.57.35,1.11.52,1.67,0,0-.08,0-.1,0a3.64,3.64,0,0,1-1.93-3.91,5.92,5.92,0,0,1,1-2.16,10.16,10.16,0,0,1,1.87-2.12h0C125.59,176.85,126.08,177.44,126.57,178Z"/><path class="cls-10" d="M130,188l-.18.07a7.38,7.38,0,0,1-.84.22h-.11l-.26,0h-.43l-.34-.06-.19-.05-.36-.13-.22-.11a3.39,3.39,0,0,1-1.43-1.47,3.12,3.12,0,0,1,.49-.23,4.39,4.39,0,0,1,2.57-.09l-.25-.52,0-.08h1.33c.11,0,.29,0,.32-.12h0a.59.59,0,0,1,0-.08l0,0,0,0,0,0h0a.38.38,0,0,1,.26,0h0l.16,0h0c.14,0,.29,0,.43.05v-.15c-1.88-.5-3.63.27-5.46.69a3.28,3.28,0,0,1,1.22-1.63,3.78,3.78,0,0,1,3.26-.51c1.13.28,2.24.66,3.36,1a.11.11,0,0,1,0,.05h0v0h0c-.15.17-.3.35-.46.52s-.31.34-.46.52c-.31.34-.62.69-.92,1a1,1,0,0,1-.14.15,3.84,3.84,0,0,1-1.19.87Z"/><path class="cls-11" d="M54.43,159c3-14.55,6.4-29.71,8.93-35.87,5.47-13.37,15.46-23.29,20-33.13a10.86,10.86,0,0,0,1-4.38c-6.83,9.31-17.79,19.63-23.5,33.45C55.57,131.91,54.6,151.05,54.43,159Z"/><path class="cls-12" d="M152.44,30a89.35,89.35,0,0,0,10.72,2.73c5.94,1.12,11.77,5.19,12.23,9.85s-1.51,9.44-4.19,13c-1.95,2.63-5.17,8-5.23,13.41,1.08-5.58,5-10.35,8.38-14.85,5.4-7.2,5.35-21.61-8.67-23.41A120.59,120.59,0,0,0,152.44,30Z"/><path class="cls-13" d="M195.4,241.36a10.75,10.75,0,0,0,6-9.64v-22.2c-2.24,1.75-4.83,3.76-6.68,5.08-3.95,2.82-10.42,6.76-32.95,7.89s-73.23,1.4-87.31-2c-8.52-2-15.69-9.74-20-15.52v26.73a10.74,10.74,0,0,0,6,9.64c8.55,4.24,24.3,11.33,33.65,11.33h67.72C171.1,252.69,186.84,245.6,195.4,241.36Z"/><path class="cls-13" d="M195.4,241.36a10.75,10.75,0,0,0,6-9.64v-22.2c-2.24,1.75-4.83,3.76-6.68,5.08-3.95,2.82-10.42,6.76-32.95,7.89s-73.23,1.4-87.31-2c-8.52-2-15.69-9.74-20-15.52v26.73a10.74,10.74,0,0,0,6,9.64c8.55,4.24,24.3,11.33,33.65,11.33h67.72C171.1,252.69,186.84,245.6,195.4,241.36Z"/><path class="cls-14" d="M153.51,91.75c-5.59,1-24.4,5-32.06-2.7s-6.29-19,2-29.31,16.27-13.61,7.92-16.52-3.54-7.49-3.54-7.49a53.07,53.07,0,0,0,7.9-5.39c-4.71.22-7.9.46-7.9.46s-21.37-1.62-35.54-.25c2.74,7.65,13,13.67,15.51,19,3.7,7.75-13.75,9.87-10.59,12.14s4.29,9.39,3.1,13-5.7,11.42-19.31,35.15-12.21,69.74-9.94,99.63c1.14,15.06,2.37,28.53,3.3,38.2,6.94,2.75,14.3,5,19.61,5h30.2c-1.63-4.74-4.88-12.09-11.36-22.59-13-21-1.91-101.7,0-110.45s10.07-13.6,23.16-15.47S159.09,90.72,153.51,91.75Z"/><path class="cls-15" d="M86.43,244.4s26.22,1.84,38.51,1.67,37,0,47.2-2.67a27,27,0,0,1-12,4.33c-7.69,1-40.84,1.18-48.24.85S95.79,249.75,86.43,244.4Z"/><path class="cls-16" d="M153.16,8.42c-.23-1.59-.87-2.81-2.18-2.86-2.57-.08-5-.84-13.49-1.1S106.55,3.79,102.72,4a2.68,2.68,0,0,0-2.44,2.23C108.36,9.6,126.56,14.68,153.16,8.42Z"/><path class="cls-17" d="M100.86,226.52c43.79,2.76,90.28,1.61,96.72-14.07-1.05.8-2.05,1.55-2.89,2.15-3.95,2.82-10.42,6.76-32.95,7.89s-73.23,1.4-87.31-2a26.8,26.8,0,0,1-9.85-5C66.19,219.36,73.46,224.79,100.86,226.52Z"/></g></g></svg>