<svg xmlns="http://www.w3.org/2000/svg" xmlns:xlink="http://www.w3.org/1999/xlink" viewBox="0 0 256 256" width="256" height="256"><defs><style>.cls-1{isolation:isolate;}.cls-14,.cls-18,.cls-2,.cls-5{mix-blend-mode:overlay;}.cls-3{fill:url(#linear-gradient);}.cls-4{fill:url(#linear-gradient-3);}.cls-5{fill:url(#radial-gradient);}.cls-10,.cls-6{fill:none;stroke:#541a75;stroke-linecap:round;stroke-linejoin:round;}.cls-6{opacity:0.3;}.cls-17,.cls-7{opacity:0.4;}.cls-7{fill:url(#linear-gradient-4);}.cls-8{fill:url(#linear-gradient-5);}.cls-9{fill:url(#linear-gradient-6);}.cls-11{fill:#541a75;}.cls-12{fill:url(#linear-gradient-7);}.cls-13{fill:url(#linear-gradient-8);}.cls-14{fill:url(#radial-gradient-2);}.cls-15{opacity:0.5;fill:url(#linear-gradient-9);}.cls-16{fill:url(#linear-gradient-10);}.cls-17{fill:#fdd684;}.cls-18{fill:url(#radial-gradient-4);}</style><linearGradient id="linear-gradient" x1="126.23" y1="292.74" x2="130.5" y2="41.77" gradientUnits="userSpaceOnUse"><stop offset="0" stop-color="#ac1d6e"/><stop offset="0.43" stop-color="#59a2de"/><stop offset="0.65" stop-color="#b4cbde"/><stop offset="0.78" stop-color="#77b0de"/></linearGradient><linearGradient id="linear-gradient-3" x1="127.88" y1="96.91" x2="127.88" y2="275.32" gradientUnits="userSpaceOnUse"><stop offset="0" stop-color="#8769c7"/><stop offset="1" stop-color="#39005c"/></linearGradient><radialGradient id="radial-gradient" cx="150.53" cy="141.21" r="89.19" gradientTransform="translate(-7.59) scale(0.9 1)" gradientUnits="userSpaceOnUse"><stop offset="0.05" stop-color="#c7c7c7"/><stop offset="1" stop-color="#60b2c7" stop-opacity="0"/></radialGradient><linearGradient id="linear-gradient-4" x1="127.45" y1="50.13" x2="123.48" y2="113.61" gradientUnits="userSpaceOnUse"><stop offset="0" stop-color="#db8d0f"/><stop offset="0.59" stop-color="#deb902"/><stop offset="1" stop-color="#de9400"/></linearGradient><linearGradient id="linear-gradient-5" x1="134.34" y1="-24.6" x2="123.83" y2="93.61" xlink:href="#linear-gradient-4"/><linearGradient id="linear-gradient-6" x1="131.24" y1="-66.1" x2="126.65" y2="9.88" gradientUnits="userSpaceOnUse"><stop offset="0" stop-color="#db8d0f"/><stop offset="0.59" stop-color="#deb902"/><stop offset="1" stop-color="#946300"/></linearGradient><linearGradient id="linear-gradient-7" x1="102.42" y1="156.64" x2="64.51" y2="116.52" gradientUnits="userSpaceOnUse"><stop offset="0" stop-color="#ac1d6e"/><stop offset="0.43" stop-color="#59a2de"/><stop offset="0.65" stop-color="#b4cbde"/></linearGradient><linearGradient id="linear-gradient-8" x1="200.66" y1="85.49" x2="157.08" y2="39.37" xlink:href="#linear-gradient-7"/><radialGradient id="radial-gradient-2" cx="150.04" cy="128.51" r="283.62" gradientUnits="userSpaceOnUse"><stop offset="0.1" stop-color="#c7c7c7"/><stop offset="1" stop-color="#60b2c7" stop-opacity="0"/></radialGradient><linearGradient id="linear-gradient-9" x1="107.36" y1="-81.87" x2="118.27" y2="376.41" gradientUnits="userSpaceOnUse"><stop offset="0" stop-color="#acffff"/><stop offset="1" stop-color="#b4cbde" stop-opacity="0"/></linearGradient><linearGradient id="linear-gradient-10" x1="186.77" y1="303.53" x2="119.49" y2="232.34" xlink:href="#linear-gradient-7"/><radialGradient id="radial-gradient-4" cx="151.09" cy="187.4" r="128.67" xlink:href="#radial-gradient-2"/></defs><g class="cls-1"><g id="Layer_1" data-name="Layer 1"><g class="cls-2"><path d="M194.18,119.15c-6.77-16.4-21-27.8-26.73-38.5a16,16,0,0,1-1.88-11c.06-.32.13-.63.21-1,0-.08.05-.16.07-.24.06-.24.13-.47.21-.71a2.58,2.58,0,0,1,.08-.26c.08-.24.17-.48.26-.72a1.18,1.18,0,0,1,.07-.2c.24-.61.5-1.22.79-1.81a2.26,2.26,0,0,0,.11-.22l.35-.67.13-.24.39-.68.1-.19c.34-.57.7-1.14,1.07-1.7l.14-.21.43-.63.16-.24.45-.63c0-.06.09-.12.13-.19l1.19-1.62.18-.23c.15-.2.3-.41.46-.61l.18-.25.55-.71c.17-.23.34-.45.5-.68l.08-.1a17.17,17.17,0,0,0,3-7.27c.05-.3.09-.6.13-.91a15.1,15.1,0,0,0-.78-7.13c-1.48-3.91-4.91-7.08-11-7.86l-1.41-.17-.46,0-1-.1-.55-.05-1-.07-.57,0-1-.07-.58,0-1-.05-.55,0L156,31.13h-.47l-1.31,0h-.34c-2,0-4-.05-6,0,.15-.21,9.54-13.57,10.37-16.56s.84-7.54-2.26-7.62-6-.84-16.24-1.09c-3.12-.08-7.82-.17-13-.25-7.42-.15-16-.27-20.7-.24-3.9,0-6.91,0-8.19.07-4.61.25-3.35,6.87-2.26,9.46S104.2,30.91,104.27,31a120.88,120.88,0,0,0-13.79.78C76.61,33.6,76.55,47.86,81.9,55S94,70,88.32,80.65a46.59,46.59,0,0,1-3.48,5.4c-4.71,6.42-11.39,13.32-16.93,21.53l-.34.53c-.43.64-.85,1.3-1.27,2-.17.27-.33.55-.5.83-.36.59-.7,1.18-1,1.78l-.51.92c-.34.62-.66,1.25-1,1.88-.14.29-.29.57-.43.86-.44.92-.86,1.86-1.26,2.81-.19.46-.37.94-.56,1.42-.05.15-.1.3-.16.45-.13.35-.25.7-.37,1-.06.16-.11.32-.17.49-.13.39-.25.78-.38,1.18,0,.12-.07.23-.1.34-.16.51-.31,1-.45,1.55,0,.12-.07.25-.1.37-.12.41-.22.81-.33,1.22,0,.17-.08.34-.13.51-.09.4-.19.79-.28,1.19,0,.15-.07.3-.11.45L58.08,131v0l-.33,1.63c0,.15,0,.31-.08.46-.08.41-.15.82-.23,1.23,0,.16,0,.32-.08.48-.08.47-.16.93-.23,1.4a2.17,2.17,0,0,0,0,.25c-.09.56-.18,1.11-.26,1.66,0,.12,0,.24,0,.36-.06.43-.12.86-.17,1.29,0,.16,0,.32-.07.48l-.15,1.23c0,.13,0,.27,0,.4l-.18,1.6v.09L56,145c0,.16,0,.32,0,.48,0,.36-.07.71-.1,1.07,0,.16,0,.32,0,.48,0,.4-.07.8-.1,1.19,0,.09,0,.19,0,.28,0,.47-.07.93-.1,1.38l0,.46-.06.91,0,.53c0,.26,0,.53,0,.79l0,.51c0,.34,0,.67,0,1l0,.67c0,.19,0,.39,0,.58s0,.4,0,.59,0,.32,0,.47,0,.4,0,.59,0,.2,0,.3c-.09,3.08-.06,5-.06,5v68.36a10.64,10.64,0,0,0,5.91,9.54,178.44,178.44,0,0,0,16.49,7.22h0q1.22.45,2.43.87l.66.22c.59.2,1.19.4,1.78.58l.84.26q.78.24,1.56.45l.9.25,1.45.36.9.2,1.39.28.84.15,1.42.18.69.08c.67.06,1.32.1,1.95.1h67c9.25,0,24.83-7,33.3-11.21a10.62,10.62,0,0,0,5.91-9.54V162.28S201,135.55,194.18,119.15Zm-66.3-87.33h0Z"/><path d="M161.39,255.35h-67c-.71,0-1.46,0-2.31-.11l-.57-.07-.21,0c-.52-.06-1-.13-1.59-.22l-.72-.12-.21,0-1.52-.3-.91-.21c-.57-.13-1.09-.26-1.61-.4l-1-.26-1.64-.47-.88-.27-1.86-.61-.67-.23c-.85-.29-1.69-.59-2.53-.9-6.42-2.39-12.72-5.34-16.87-7.39a14.5,14.5,0,0,1-8.11-13.09V162.28s0-2,.07-5.1l.37-7.55c0-.45.07-.93.1-1.41l.31-3.57c0-.49.1-1,.16-1.49v-.1c.05-.54.12-1.08.18-1.63l.05-.41c0-.42.1-.85.16-1.27l.06-.44c.06-.49.12-.93.18-1.37l.06-.39c.08-.56.17-1.13.26-1.7l0-.26.24-1.44.09-.51c.07-.41.15-.84.23-1.26l.09-.48.33-1.69c.13-.59.25-1.16.38-1.72l.11-.47.3-1.24.14-.54c.11-.43.22-.86.34-1.29l.1-.38c.16-.56.32-1.1.48-1.64l.11-.36c.13-.42.27-.84.41-1.26l.17-.52c.13-.38.27-.76.4-1.13l.18-.47c.2-.53.4-1,.6-1.55.4-1,.84-1.93,1.35-3l.32-.63.14-.28c.34-.68.68-1.35,1-2,.18-.34.36-.66.54-1,.36-.63.73-1.26,1.1-1.88l.06-.09.47-.78c.44-.7.88-1.38,1.33-2.06l.36-.55A167.49,167.49,0,0,1,75.18,91.76c2.36-2.83,4.6-5.5,6.46-8.05a41.09,41.09,0,0,0,3.18-4.92c3.91-7.32.66-12.51-5.15-20.19l-.94-1.24c-4.14-5.53-5.25-13.61-2.7-19.65,2.31-5.47,7.26-9,14-9.82,2.22-.28,4.79-.49,7.68-.63-2.3-4.2-5-9.3-5.73-10.93-.12-.28-2.91-7.07,0-11.67a7,7,0,0,1,5.72-3.27c1.29-.07,4-.1,8.43-.08,4.06,0,11.84.06,20.76.24,5.14.08,9.86.18,13,.25,6.78.17,10.39.55,13,.83,1.32.14,2.28.24,3.22.26a6.3,6.3,0,0,1,5,2.58c2.54,3.44,1.39,8.57,1,10.06-.61,2.18-3.82,7.29-6.72,11.62h.3l5.54.28,1,.08.57.05,1.06.1.49,0,1.5.17c6.94.89,12,4.58,14.17,10.39a19.11,19.11,0,0,1,1,9c-.05.37-.1.74-.16,1.1a21.2,21.2,0,0,1-3.78,9l-.6.8L175.07,60c-.37.5-.76,1-1.13,1.54l-.69,1-.41.6-.08.12c-.38.57-.7,1.09-1,1.61l-.09.16c-.12.19-.23.39-.33.59l-.12.21-.3.58-.06.12c-.28.57-.5,1.07-.69,1.56l0,.13c-.08.22-.15.41-.21.6l-.07.23c-.06.16-.11.35-.16.54l0,.1c-.08.32-.14.56-.19.8a12.16,12.16,0,0,0,1.49,8.36c2.12,4,5.78,8.35,9.64,13,6.1,7.3,13,15.56,17.26,25.87h0c7,17,6.73,43.57,6.72,44.69v68.31a14.51,14.51,0,0,1-8.12,13.09C185.73,249,170.94,255.35,161.39,255.35ZM98.53,9.27a9.68,9.68,0,0,0,.7,4C100,15,104.7,23.69,107.72,29.1L111,34.93l-6.66.07A116,116,0,0,0,91,35.75c-3.89.49-6.47,2.19-7.67,5-1.46,3.46-.71,8.55,1.75,11.82L86,53.83c5.23,6.91,12.4,16.37,5.83,28.69A51.06,51.06,0,0,1,88,88.39c-2,2.75-4.33,5.51-6.77,8.44a159.76,159.76,0,0,0-10.07,13l-.33.5c-.4.61-.8,1.23-1.19,1.86-.15.23-.28.46-.42.69l-.06.09c-.34.56-.66,1.12-1,1.68l-.49.87c-.31.58-.61,1.17-.91,1.76l-.17.34c-.07.15-.15.31-.23.46-.45,1-.84,1.8-1.17,2.61-.18.43-.34.87-.51,1.31l-.15.41c-.12.32-.23.64-.35,1l-.15.45-.36,1.1-.09.31c-.15.49-.29,1-.43,1.47l-.1.35-.3,1.16-.13.49-.27,1.13-.1.43c-.12.52-.23,1-.34,1.56s-.22,1.06-.32,1.58l-.08.46c-.08.38-.15.78-.22,1.17l-.08.48c-.08.45-.15.89-.22,1.34l0,.25-.24,1.61,0,.36c-.06.41-.11.82-.17,1.24l-.06.45c0,.42-.1.82-.15,1.22l0,.38c-.06.53-.12,1.05-.17,1.56l-.16,1.51-.29,3.4c0,.47-.07.93-.1,1.37l-.36,7.22c-.09,3-.07,4.8-.07,4.82v68.41a6.62,6.62,0,0,0,3.71,6,174.94,174.94,0,0,0,16.11,7.06c.79.3,1.58.58,2.35.85l.65.21c.55.19,1.12.38,1.68.55l.81.25,1.47.43.83.22c.48.13.93.24,1.37.34l.82.19c.44.1.86.18,1.28.25l.22,0,.52.1,1.25.16.31,0,.29,0a15.77,15.77,0,0,0,1.59.08h67c6.17,0,17.67-3.93,31.55-10.8a6.63,6.63,0,0,0,3.7-6V162.28c0-.31.26-26.18-6.12-41.62h0c-3.79-9.18-10.28-17-16-23.81-4.14-5-8-9.63-10.55-14.33a20.19,20.19,0,0,1-2.28-13.6q.12-.58.27-1.17l.06-.21c.1-.38.18-.66.27-.94l.09-.29c.11-.32.21-.61.32-.9l.1-.27c.26-.66.57-1.38.92-2.09l.13-.26.39-.76.16-.28c.13-.25.28-.51.43-.76l.1-.19c.39-.65.78-1.28,1.19-1.9l.15-.22.47-.69.79-1.12c.39-.55.81-1.11,1.22-1.67l1.89-2.49L173.86,55l-3.16-2.38A13.16,13.16,0,0,0,173,47.05c0-.23.07-.47.1-.7a11.36,11.36,0,0,0-.55-5.27c-1.15-3-3.76-4.82-7.78-5.33l-1.33-.16-.44,0-1-.1-5.11-.32-1.57-.06-1.28,0h-.33c-1.85,0-3.84-.05-5.9,0l-7.7,0,4.44-6.29c3.62-5.13,9.2-13.55,9.81-15.38a8.22,8.22,0,0,0,.31-2.62c-.85-.06-1.71-.15-2.71-.25-2.51-.26-5.93-.62-12.4-.78-3.11-.08-7.8-.17-12.94-.26-8.86-.17-16.56-.26-20.6-.23C101.67,9.21,99.55,9.24,98.53,9.27ZM127.79,35.8l-.51-.07.37-2.4.12-3-.19-2.43.19,2.43v-.14l-.15-2.29.16,2,.08-2,.62.05-.4,2.64.18,5.21Z"/></g></g><g id="Layer_2" data-name="Layer 2"><path class="cls-3" d="M194.18,119.15c-6.77-16.4-21-27.8-26.73-38.5s1.07-18.53,6.41-25.66,5.3-21.39-8.58-23.17-37.4,0-37.4,0-23.52-1.78-37.4,0S76.55,47.86,81.9,55,94,70,88.32,80.65s-20,22.1-26.74,38.5-6.41,43.13-6.41,43.13v68.36a10.64,10.64,0,0,0,5.91,9.54c8.47,4.19,24.05,11.21,33.31,11.21h67c9.25,0,24.83-7,33.3-11.21a10.62,10.62,0,0,0,5.91-9.54V162.28S201,135.55,194.18,119.15Z"/><path class="cls-3" d="M194.18,119.15c-6.77-16.4-21-27.8-26.73-38.5s1.07-18.53,6.41-25.66,5.3-21.39-8.58-23.17-37.4,0-37.4,0-23.52-1.78-37.4,0S76.55,47.86,81.9,55,94,70,88.32,80.65s-20,22.1-26.74,38.5-6.41,43.13-6.41,43.13v68.36a10.64,10.64,0,0,0,5.91,9.54c8.47,4.19,24.05,11.21,33.31,11.21h67c9.25,0,24.83-7,33.3-11.21a10.62,10.62,0,0,0,5.91-9.54V162.28S201,135.55,194.18,119.15Z"/><path class="cls-4" d="M189.73,145.4H66c-.75,8.93-.67,15.94-.67,15.94v65.32a10.33,10.33,0,0,0,5.08,9.11c7.28,4,20.67,10.71,28.63,10.71h57.62c8,0,21.36-6.71,28.64-10.71a10.35,10.35,0,0,0,5.08-9.11V161.34S190.49,154.33,189.73,145.4Z"/><path class="cls-5" d="M189.73,145.4H66c-.75,8.93-.67,15.94-.67,15.94v65.32a10.33,10.33,0,0,0,5.08,9.11c7.28,4,20.67,10.71,28.63,10.71h57.62c8,0,21.36-6.71,28.64-10.71a10.35,10.35,0,0,0,5.08-9.11V161.34S190.49,154.33,189.73,145.4Z"/><path class="cls-6" d="M165.67,82a121.15,121.15,0,0,0-13.77-8h0a9.7,9.7,0,0,0,1-1l-9.21-6.86H104.49l-1.08,1.91-5.83,5.59a10.09,10.09,0,0,0,1.21,1.73c-2.82,1.92-8.56,5.85-10.25,7.13-2.27,1.7-4.38,7.78-3.52,10s4.42,5.82,9.87,5.22,9.42-5,9-7.33-4-3.21-4-3.21,1.13,1.71,0,3-4.09,1.61-6.36.4.72-3.47,1.48-4.11c2.9-2.44,7.61-4.78,10.5-6.11a31.94,31.94,0,0,0,10.1,2.78c.39,2.69,1.3,9.27,1.3,11.6,0,3-2.6,5.47-5.27,5s-4.22-4.21-3.58-5.22,4.31-2,4.31-2-1.64-1.36-5.11-1.21-5.33,4.25-5.9,6.29,2.39,9.06,10.28,9.87,12.64-3.82,13-7.63a22.52,22.52,0,0,0,0-2.83h2.77c0,1.64,0,2.92,0,3.48.09,2.44,4.28,8.41,13.88,6.64s9.23-10.36,8.94-12.41-3.13-4.07-7.8-2.05c0,0,3.53.76,3.1,3.36s-4.36,3.53-6.68,3.11-2.5-14,3.2-16.56,10.85,1.29,14,3.46,5.5,4.53,2.61,5-5.66-2.52-5.75-3.61c0,0-5,2.06-2.19,7s15.12,5,17.79,1.36S170.61,85.63,165.67,82Zm-38.15,1.13c0,.51,0,1.16,0,1.92l-3.79.28c-.09-.77-.17-1.42-.23-1.9l.87,0C125.45,83.34,126.5,83.25,127.52,83.15ZM124,87.8l3.52.24c0,2,0,4.15,0,6.15L124.55,94C124.4,92,124.19,89.74,124,87.8Z"/><path class="cls-7" d="M124,36.37c-5.59-.3-16-1.6-17.58,3.39s-3.8,13.79-.2,16.39,2.59,4.59,1.8,6-4,3.4,1.39,3.8,35.17.2,38.57,0,1-2.6-1-4-.6-7.19,1.2-9.39,2-6.59,1.5-9.79-2.5-6-8.1-6.19S127,36.52,124,36.37Z"/><path class="cls-8" d="M119.87,32.63c-2.6.06-5.11-.16-8,.09s1.18,1.67,5.2,1.67,3.68.34,9.2.51,10.47-.17,14.32-.26,9-1.82,5.86-2S132.43,33,127.4,33,120.53,32.62,119.87,32.63Z"/><path class="cls-9" d="M104.27,31S96.67,17.4,95.58,14.8s-2.35-9.21,2.26-9.46,31.65.17,41.86.42,13.14,1,16.24,1.09,3.1,4.6,2.26,7.62S147.82,31,147.82,31s-13.26.78-18.72.78S106.35,31.46,104.27,31Z"/><path class="cls-10" d="M194.4,180.38a12.5,12.5,0,0,0-8-8.64c-5.18-1.76-11.62,1.7-13.58,7.36s-3.32,13.29,2.56,16.41,9.66-2.27,9.66-2.27c-6.34,2-5-6.64-.76-7.92s6,3.4,6.64,10.47-4.52,16.69-4.52,16.69-4.38,1.84-11.92.85S161.4,205.69,160.8,203s3.92-4.95,6.18-3.59.76,5.15.76,5.15S179.05,202.3,173,194s-15.39-6.36-20.67-5.23c-3.08.66-5.85,4-7,8-.09-1.1-.14-2-.2-2.64-.26-2.9-9.39-5.67-13.3-4.24s-6.39,8.47-6.39,8.47-1.18-3.91-6.14-7.34-10.56,2-10.56,2l0,0a9.09,9.09,0,0,0-5.35-4.26c-5.28-1.13-14.63-3.12-20.67,5.23S88,204.56,88,204.56s-1.5-3.8.76-5.15,6.79.91,6.18,3.59-6.18,9.34-13.72,10.33-11.92-.85-11.92-.85-5.13-9.62-4.53-16.69,2.41-11.74,6.64-10.47,5.58,9.9-.76,7.92c0,0,3.78,5.38,9.66,2.27s4.53-10.75,2.56-16.41-8.4-9.12-13.57-7.36a12.49,12.49,0,0,0-8,8.64c-.84,2.71-4.12,12.68-2,22s6.94,17,10.76,21,10.22,5.24,17.31,3.26c3.19-.89,7.46-4,11.49-7.75v0C97.53,221.53,94.65,227,99,235s11,10,30.91,10.63,24.52-12.22,25.3-18.82a20.57,20.57,0,0,0-2.8-12.43c5,5.53,11.55,11,16,12.28,7.09,2,13.49.64,17.31-3.26s8.64-11.6,10.76-21S195.24,183.09,194.4,180.38Zm-60.8,16.1a7.68,7.68,0,0,1,7.29,1.21c-2.86-.26-6.37,5.62-1.75,6.57a10.25,10.25,0,0,1,6.64,5.27s-9.6-.95-12.73-3.72S129.36,198,133.6,196.48Zm-20.33,1.21a5.59,5.59,0,0,1,6-1.21c3.52,1.47,3.06,6.57.46,9.33s-10.57,3.72-10.57,3.72,1.68-4.32,5.51-5.27S115.64,197.43,113.27,197.69Zm23.33,42.94c-4.52,1-16.59,2.27-24.13-2.12s-8.76-15-4.53-19.95,16.9-13.43,16.9-13.43S145.36,216,147,224.79,141.13,239.64,136.6,240.63Z"/><path class="cls-11" d="M123.06,185.23a2,2,0,0,1-.69.27,8.66,8.66,0,0,1-.89.07l-1.07.08.46.08.39,0h0l.4,0h0l.33,0,.07,0,.08,0,.13.07h0a.34.34,0,0,1,.09.08h0l0,.08a.93.93,0,0,1,.07.2l.19-.15a.51.51,0,0,1,.54-.09l.07,0c-.08.23-.17.45-.27.71l-.11.28.14-.13.79-.76h0l0,0,.25.14h0a1.71,1.71,0,0,1-.44,1l-.09.1-.09.09-.2.17a2.09,2.09,0,0,1-2.23.29l-.35-.24h0c-.12-.08-.23-.17-.34-.26h0c-.11-.09-.22-.18-.32-.28h0a15.35,15.35,0,0,1-1.64-1.81c1.12-.58,2.17-1.17,3.24-1.68,1.49-.71,2.54.55,2.7,1.83C123.84,185.78,123.48,185.36,123.06,185.23Z"/><path class="cls-11" d="M126.58,177.5c.18.22.36.43.55.64a2.52,2.52,0,0,1,.39.59,3.12,3.12,0,0,1,.23.67l0,.2c0,.12,0,.24,0,.36a4,4,0,0,1,0,.69l0,.17a3.74,3.74,0,0,1-1,2l-.13.13-.27.24-.14.12a5.25,5.25,0,0,1-1.34.74h0a1.7,1.7,0,0,1,0-.22l0-.45a8.5,8.5,0,0,0,0-1.13.49.49,0,0,0,0-.12,3,3,0,0,1,0-.78.87.87,0,0,1,.19-.46l-.07,0-.3-.13c.08-.22.15-.44.22-.65l.22-.65-.24,0-.11,0h-.1c0-.29,0-.55,0-.81-.42,1.17-.88,2.33-.34,3.59l-.56.11.51,1.65h-.1a3.58,3.58,0,0,1-1.91-3.86,5.88,5.88,0,0,1,.94-2.14,10,10,0,0,1,1.86-2.1h0Z"/><path class="cls-11" d="M130,187.33l-.18.06a4.61,4.61,0,0,1-.83.22h-.11a1.09,1.09,0,0,1-.26,0,3,3,0,0,1-.42,0,1.91,1.91,0,0,1-.33-.06l-.2-.05a2.06,2.06,0,0,1-.35-.12l-.23-.11a3.41,3.41,0,0,1-1.41-1.45,3.58,3.58,0,0,1,.48-.24,4.5,4.5,0,0,1,2.55-.09l-.25-.51,0-.08h1.32c.11,0,.28,0,.31-.11h0l.05-.09s0,0,0,0l0,0,0,0h0a.35.35,0,0,1,.26-.06h0l.15,0h0c.14,0,.29,0,.43.06v-.16c-1.85-.49-3.59.27-5.4.68a3.31,3.31,0,0,1,1.21-1.61,3.73,3.73,0,0,1,3.22-.49c1.12.27,2.22.64,3.33,1l0,0h0s0,0,0,0h0l-.45.51c-.16.17-.31.34-.46.52-.31.34-.61.68-.91,1l-.14.15a3.93,3.93,0,0,1-1.18.86Z"/><path class="cls-12" d="M55.2,158.66c2.94-14.4,6.33-29.4,8.83-35.5,5.42-13.22,15.3-23,19.79-32.78a10.67,10.67,0,0,0,1-4.33c-6.76,9.21-17.61,19.42-23.26,33.1C56.33,131.87,55.37,150.81,55.2,158.66Z"/><path class="cls-13" d="M152.18,31a86.2,86.2,0,0,0,10.61,2.71c5.88,1.11,11.64,5.14,12.11,9.75s-1.5,9.34-4.15,12.91c-1.93,2.6-5.12,7.88-5.18,13.27,1.07-5.52,5-10.25,8.29-14.69,5.35-7.13,5.3-21.39-8.58-23.17A118.09,118.09,0,0,0,152.18,31Z"/><path class="cls-14" d="M194.69,240.18a10.62,10.62,0,0,0,5.91-9.54v-22c-2.21,1.73-4.78,3.72-6.61,5-3.9,2.78-10.31,6.69-32.61,7.8S88.92,222.89,75,219.55c-8.43-2-15.53-9.65-19.83-15.36v26.45a10.64,10.64,0,0,0,5.91,9.54c8.47,4.19,24.05,11.21,33.31,11.21h67C170.64,251.39,186.22,244.37,194.69,240.18Z"/><path class="cls-14" d="M194.69,240.18a10.62,10.62,0,0,0,5.91-9.54v-22c-2.21,1.73-4.78,3.72-6.61,5-3.9,2.78-10.31,6.69-32.61,7.8S88.92,222.89,75,219.55c-8.43-2-15.53-9.65-19.83-15.36v26.45a10.64,10.64,0,0,0,5.91,9.54c8.47,4.19,24.05,11.21,33.31,11.21h67C170.64,251.39,186.22,244.37,194.69,240.18Z"/><path class="cls-15" d="M153.24,92.13c-5.53,1-24.14,4.92-31.72-2.67s-6.23-18.75,2-29S139.65,47,131.38,44.11s-3.5-7.41-3.5-7.41a53.22,53.22,0,0,0,7.82-5.33c-4.67.21-7.82.45-7.82.45s-21.15-1.6-35.17-.25c2.71,7.57,12.83,13.53,15.35,18.79,3.66,7.67-13.6,9.77-10.48,12s4.25,9.29,3.07,12.87S95,86.54,81.54,110s-12.08,69-9.84,98.58c1.13,14.9,2.35,28.24,3.27,37.8,6.87,2.72,14.15,5,19.41,5h29.88c-1.62-4.69-4.83-12-11.24-22.36-12.85-20.83-1.9-100.63,0-109.28s10-13.47,22.92-15.31S158.77,91.11,153.24,92.13Z"/><path class="cls-16" d="M86.86,243.19s26,1.81,38.11,1.65,36.62,0,46.7-2.65a26.55,26.55,0,0,1-11.9,4.29c-7.6,1-40.41,1.17-47.73.84S96.12,248.48,86.86,243.19Z"/><path class="cls-17" d="M152.89,9.67c-.22-1.57-.85-2.78-2.15-2.82-2.55-.09-5-.84-13.35-1.09s-30.62-.67-34.4-.42a2.65,2.65,0,0,0-2.42,2.21C108.56,10.84,126.57,15.87,152.89,9.67Z"/><path class="cls-18" d="M101.14,225.49c43.34,2.73,89.34,1.6,95.71-13.92-1,.79-2,1.53-2.86,2.13-3.9,2.78-10.31,6.69-32.61,7.8S88.92,222.89,75,219.55a26.4,26.4,0,0,1-9.74-4.92C66.83,218.41,74,223.78,101.14,225.49Z"/></g></g></svg>
