<svg xmlns="http://www.w3.org/2000/svg" data-name="Layer 1" viewBox="0 0 64 64" x="0px" y="0px" width="256" height="256"><path d="M55.29,6.88c-.53-.12-13.16-2.79-20.03,2.39A10.38568,10.38568,0,0,0,33,11.6V4.96a1,1,0,0,0-2,0V25.93c-2.34-1.66-6.82-4.22-11.49-3.52-3.41.51-6.27,2.65-8.48,6.36-2.94,4.94-1.91,9.28.85,13.03l.00831.0108A10.09669,10.09669,0,0,0,10.501,47.544c.22363,5.06591-1.0835,7.60156-1.09375,7.62109a1.00006,1.00006,0,0,0,1.75683.95605c.06494-.11914,1.58545-2.98437,1.335-8.665a8.42927,8.42927,0,0,1,.75025-3.98693L13.25,43.47a44.68154,44.68154,0,0,0,8.12,6.71l.00561.00373a11.493,11.493,0,0,0-.0177,1.27087c.22363,5.06592-1.083,7.60156-1.09326,7.62109a1.00006,1.00006,0,0,0,1.75683.95606c.0644-.1181,1.55634-2.93891,1.3382-8.52191L23.36,51.51c.52.34,1.02.66,1.51.98,2.79,1.82,5.97,3.87,6.15,4.82v.01c.01.04.03.07.04.11a1.59441,1.59441,0,0,0,.1.23.90119.90119,0,0,0,.09.1.80749.80749,0,0,0,.16.16.74262.74262,0,0,0,.12.07.84855.84855,0,0,0,.22.09l.06.03a1.8082,1.8082,0,0,0,.38,0l.06-.03a.84809.84809,0,0,0,.22-.09.74779.74779,0,0,0,.12-.07.80723.80723,0,0,0,.16-.16.9014.9014,0,0,0,.09-.1,1.59424,1.59424,0,0,0,.1-.23c.01-.04.03-.07.04-.11v-.01c.18-.95,3.36-3,6.15-4.82.49-.32.99-.64,1.51-.98l.00031-.00018c-.21814,5.583,1.2738,8.40381,1.3382,8.52191a1.00009,1.00009,0,0,0,1.75976-.95069c-.01318-.0249-1.31982-2.56054-1.09619-7.62646a11.493,11.493,0,0,0-.0177-1.27087L42.63,50.18a44.6795,44.6795,0,0,0,8.12-6.71l.00073-.00085a8.42927,8.42927,0,0,1,.75025,3.98693c-.25049,5.68067,1.27,8.5459,1.335,8.665a1.00009,1.00009,0,0,0,1.75976-.95068c-.01318-.0249-1.32031-2.56055-1.09668-7.62646a10.09669,10.09669,0,0,0-1.38733-5.73316L52.12,41.8c2.76-3.75,3.79-8.09.85-13.03-2.21-3.71-5.07-5.85-8.48-6.36-4.68-.7-9.15,1.86-11.49,3.52V19.46a6.80019,6.80019,0,0,0,2.89.68005,7.77772,7.77772,0,0,0,5.56-2.66c5.64-5.71,13.88-8.65,13.96-8.68a.99807.99807,0,0,0-.12-1.92ZM43.28,27.19a.99862.99862,0,0,1,1.27-.63,10.08192,10.08192,0,0,1,5.32,4.69,1.0065,1.0065,0,0,1-.35,1.37.95949.95949,0,0,1-.51.14.99272.99272,0,0,1-.86-.49005,8.14464,8.14464,0,0,0-4.24-3.81A1.01507,1.01507,0,0,1,43.28,27.19Z"></path></svg>