<svg xmlns="http://www.w3.org/2000/svg" data-name="Layer 1" viewBox="0 0 64 64" x="0px" y="0px" width="256" height="256"><path d="M54.61035,6.62109c-.53369-.11523-13.16406-2.79-20.03662,2.38868a10.44015,10.44015,0,0,0-2.25684,2.32879V4.70508a1,1,0,0,0-2,0V25.67383C27.978,24.01074,23.49854,21.457,18.8252,22.14941c-3.4126.51075-6.26416,2.65039-8.4751,6.36036-6.353,10.65918,5.79443,18.52246,13.833,23.72558,2.79882,1.81153,5.9707,3.86524,6.15136,4.81543l.00452.01178a.95665.95665,0,0,0,.03931.10315,1.00408,1.00408,0,0,0,.10229.23816.97561.97561,0,0,0,.08.09235,1.022,1.022,0,0,0,.50494.324c.02319.00616.041.02191.06488.02649a1.02076,1.02076,0,0,0,.18329.01721l.00226.00037.001-.00012.001.00012.0022-.00037a1.02457,1.02457,0,0,0,.18335-.01721c.024-.00458.04181-.02039.065-.02655a.98735.98735,0,0,0,.21631-.08826,1.01146,1.01146,0,0,0,.11932-.06793,2.38436,2.38436,0,0,0,.24927-.26025,1.00126,1.00126,0,0,0,.10162-.23664.93773.93773,0,0,0,.03992-.10461l.00446-.01166c.18066-.95019,3.353-3.0039,6.15185-4.81543,8.03809-5.20312,20.18555-13.0664,13.833-23.72558-2.21094-3.71-5.0625-5.84961-8.4751-6.36036-4.67377-.69268-9.15381,1.869-11.49219,3.53009V19.20087a6.779,6.779,0,0,0,2.89258.67608,7.75536,7.75536,0,0,0,5.55664-2.65625C46.40918,11.51562,54.647,8.57129,54.72949,8.542a1.00039,1.00039,0,0,0-.11914-1.9209ZM42.60059,26.92773a.99987.99987,0,0,1,1.26806-.626,10.08211,10.08211,0,0,1,5.31543,4.68847.99977.99977,0,1,1-1.71777,1.02344,8.165,8.165,0,0,0-4.23926-3.81738A1.00047,1.00047,0,0,1,42.60059,26.92773Z"></path></svg>