<svg xmlns:x="http://ns.adobe.com/Extensibility/1.0/" xmlns:i="http://ns.adobe.com/AdobeIllustrator/10.0/" xmlns:graph="http://ns.adobe.com/Graphs/1.0/" xmlns="http://www.w3.org/2000/svg" xmlns:xlink="http://www.w3.org/1999/xlink" version="1.1" x="0px" y="0px" viewBox="0 0 100 100" style="enable-background:new 0 0 100 100;" xml:space="preserve" width="256" height="256"><switch><g i:extraneous="self"><g><path d="M35.3,16.7h29.4c1.7,0,3.2-1.4,3.2-3.2V5.7c0-1.7-1.4-3.2-3.2-3.2H35.3c-1.7,0-3.2,1.4-3.2,3.2v7.9     C32.2,15.3,33.6,16.7,35.3,16.7z"></path><path d="M60.6,29.3v-7.1H39.4v7.1c-12.3,1.2-22,11.6-22,24.3v34.9c0,5,4.1,9,9,9h47.2c5,0,9-4.1,9-9V53.6     C82.6,40.9,72.9,30.5,60.6,29.3z M62.2,61L49.5,79.9c-1.5,2.3-5,1-4.7-1.7l1.1-10.4c0-0.5-0.4-1-0.9-1L40.1,67     c-2.1,0.1-3.5-2.3-2.3-4.1L50.5,44c1.5-2.2,5.1-1,4.7,1.7l-1,10.4c-0.1,0.5,0.4,1,0.9,1l4.8-0.3C62.1,56.8,63.4,59.2,62.2,61z"></path></g></g></switch></svg>