<svg xmlns="http://www.w3.org/2000/svg" xmlns:xlink="http://www.w3.org/1999/xlink" version="1.1" x="0px" y="0px" viewBox="0 0 32 32" enable-background="new 0 0 32 32" xml:space="preserve" width="256" height="256"><path d="M14.158,21c-1.584-0.094-2.105,0.886-1.994,1.772c0.111,0.886,0.332,1.994,1.994,0.886C15.82,22.551,16.041,21.11,14.158,21  z"></path><path d="M16,23.758c0,0-0.275-0.044-0.594,0.714c-0.32,0.757-0.592,1.768-0.135,1.768c0.229,0,0.729,0,0.729,0s0.498,0,0.727,0  c0.457,0,0.188-1.011-0.133-1.768C16.273,23.714,16,23.758,16,23.758z"></path><path d="M17.842,21c-1.885,0.11-1.662,1.551,0,2.658c1.66,1.108,1.883,0,1.994-0.886C19.947,21.886,19.426,20.906,17.842,21z"></path><path d="M21.188,14.43V8.628h0.057c0.709,0,1.283-0.575,1.283-1.283c0-0.709-0.574-1.284-1.283-1.284h-2l0.799-3.5  C20.227,1.758,19.701,1.1,18.877,1.1h-5.754c-0.826,0-1.35,0.658-1.166,1.462l0.797,3.5h-1.998c-0.709,0-1.283,0.575-1.283,1.284  c0,0.708,0.574,1.283,1.283,1.283h0.055v5.802c-3.4,1.881-5.566,5.512-5.566,9.41c0,2.461,0.814,4.781,2.357,6.709  c0.178,0.223,0.445,0.352,0.73,0.352h15.334c0.285,0,0.555-0.129,0.732-0.352c1.543-1.928,2.357-4.248,2.357-6.709  C26.756,19.941,24.588,16.311,21.188,14.43z M12.686,8.628h6.627v5.435h-6.627V8.628z M20.387,26.239  c-0.738,0.979-0.822,0.411-1.279,0.594s0.914,1.736-3.107,1.736s-2.65-1.554-3.107-1.736s-0.541,0.385-1.279-0.594  c-0.51-0.677-1.736-1.111-0.549-2.481c1.189-1.371-0.521-3.198,0.488-4.951c1.371-2.381,2.857-2.441,4.447-2.441  c1.588,0,3.076,0.061,4.447,2.441c1.01,1.753-0.701,3.58,0.488,4.951C22.123,25.128,20.896,25.563,20.387,26.239z"></path></svg>