<svg xmlns="http://www.w3.org/2000/svg" xmlns:xlink="http://www.w3.org/1999/xlink" viewBox="0 0 256 256" width="256" height="256"><defs><style>.cls-1{fill:#1b467d;}.cls-2{fill:#112c4e;}.cls-3{fill:url(#radial-gradient);}.cls-4{fill:url(#linear-gradient);}.cls-5{fill:url(#radial-gradient-2);}.cls-6{fill:url(#radial-gradient-3);}.cls-7{fill:url(#linear-gradient-2);}.cls-8{fill:url(#linear-gradient-3);}.cls-9{fill:url(#linear-gradient-4);}.cls-10{fill:url(#linear-gradient-5);}.cls-11{fill:url(#linear-gradient-6);}.cls-12{fill:url(#linear-gradient-7);}.cls-13{fill:url(#linear-gradient-8);}</style><radialGradient id="radial-gradient" cx="128.86" cy="84.69" r="70.78" gradientUnits="userSpaceOnUse"><stop offset="0" stop-color="#84ffff"/><stop offset="1" stop-color="#58aeff"/></radialGradient><linearGradient id="linear-gradient" x1="128.99" y1="-41.26" x2="128.99" y2="94.32" gradientUnits="userSpaceOnUse"><stop offset="0" stop-color="#fff" stop-opacity="0"/><stop offset="1" stop-color="#fff"/></linearGradient><radialGradient id="radial-gradient-2" cx="128.99" cy="155.79" r="44.97" xlink:href="#radial-gradient"/><radialGradient id="radial-gradient-3" cx="133.48" cy="199.62" r="17.82" gradientTransform="translate(-102.06 152.85) rotate(-45)" xlink:href="#radial-gradient"/><linearGradient id="linear-gradient-2" x1="18.26" y1="86.08" x2="182.63" y2="83.32" xlink:href="#linear-gradient"/><linearGradient id="linear-gradient-3" x1="73.29" y1="158.95" x2="148.75" y2="147.4" xlink:href="#linear-gradient"/><linearGradient id="linear-gradient-4" x1="82.59" y1="155.66" x2="216.11" y2="157.04" xlink:href="#linear-gradient"/><linearGradient id="linear-gradient-5" x1="115.55" y1="199.62" x2="151.03" y2="199.62" xlink:href="#linear-gradient"/><linearGradient id="linear-gradient-6" x1="124.01" y1="100.76" x2="126.99" y2="65.35" xlink:href="#linear-gradient"/><linearGradient id="linear-gradient-7" x1="126.23" y1="167.18" x2="128.16" y2="144.12" xlink:href="#linear-gradient"/><linearGradient id="linear-gradient-8" x1="131.72" y1="220.51" x2="133.32" y2="201.43" xlink:href="#linear-gradient"/></defs><g id="Layer_2" data-name="Layer 2"><path d="M40.46,139.24a58.42,58.42,0,0,0,12.65-10.5l-3.56-3.65C45.08,132.65,40.46,139.24,40.46,139.24Z"/><path d="M235.07,143.93a121.86,121.86,0,0,1-9-12.05l0,0a5.41,5.41,0,0,0-.24-6.63l-.26-.3a5.31,5.31,0,0,0,1.37-1.53,5.41,5.41,0,0,0-.87-6.68,5.41,5.41,0,0,0-.54-6.9l-10.34-10.6c1.15-8.38,7.13-17.91,18.19-29.06a5.4,5.4,0,0,0-3.83-9.2,5.29,5.29,0,0,0-.8.06c-.89.13-8.44,1.53-17.07,11.72-2.76-2.49-5.6-5-8.57-7.43a30.26,30.26,0,0,0-5.76-3.72l.24-.17c.38-.26.75-.53,1.11-.8a27.66,27.66,0,0,0,4-3.78c.61-.7,1.21-1.45,1.76-2.22.32-.45.62-.9.91-1.36A25,25,0,0,0,208,48a23.59,23.59,0,0,0,1.22-5.88c.13-1.78.28-3.56.43-5.35.24-2.89.5-5.79.76-8.71l.54-6a5.4,5.4,0,0,0-4.77-5.84,61.92,61.92,0,0,0-7-.39A76.68,76.68,0,0,0,186.42,17a42.26,42.26,0,0,0-16.21,5.92,26.92,26.92,0,0,0-7.94,7.68c-2.31-2.42-4.66-4.67-7.15-7-1.1-1.07-2.23-2.14-3.36-3.24A5.4,5.4,0,0,0,148,18.74a4.44,4.44,0,0,0-.63,0,5.4,5.4,0,0,0-3.94,2.48c-.58.93-1.11,1.8-1.61,2.64l-3.13-3.21-4.58-4.92a5.39,5.39,0,0,0-3.84-1.71h-.11a5.44,5.44,0,0,0-2.08.42,5.37,5.37,0,0,0-1.86,1.19l-4.64,4.53-1.18-2.84-1.11-2.71-.2-.48L117.76,11A5.39,5.39,0,0,0,113,7.63h-.46a5.53,5.53,0,0,0-4.2,1.84c-1.14,1.28-2.28,2.54-3.42,3.8-2.8,3.08-5.68,6.27-8.38,9.61a31.09,31.09,0,0,0-3.73,5.78c0-.08-.1-.17-.16-.25-.26-.38-.53-.75-.8-1.11a28.28,28.28,0,0,0-3.78-4c-.7-.61-1.45-1.2-2.22-1.75-.45-.32-.91-.63-1.36-.91a25,25,0,0,0-5.21-2.52,22.73,22.73,0,0,0-5.88-1.22L68,16.43c-2.89-.24-5.79-.5-8.71-.76l-6-.54a3.77,3.77,0,0,0-.47,0,5.4,5.4,0,0,0-5.36,4.79,69.47,69.47,0,0,0,.73,19.7,42.41,42.41,0,0,0,5.92,16.22,27.25,27.25,0,0,0,7.7,7.93c-2.43,2.31-4.68,4.67-7.07,7.15l-1.9,2-.44-.58C43.05,60.14,34.5,58.55,33.56,58.41a5.49,5.49,0,0,0-.8-.06,5.4,5.4,0,0,0-3.83,9.21c9.75,9.83,15.52,18.33,17.55,25.89L32.25,107.34a5.4,5.4,0,0,0-.1,7.64l2.46,2.52a5.48,5.48,0,0,0,.75,3.3,5.31,5.31,0,0,0,1.38,1.52l-.26.31a5.39,5.39,0,0,0-.25,6.62l0,0a122.82,122.82,0,0,1-9,12,5.4,5.4,0,0,0,4.07,8.95,5.46,5.46,0,0,0,.9-.07,47.09,47.09,0,0,0,11.15-3.34c-.13.66-.25,1.31-.35,1.94a58.58,58.58,0,0,0-.69,9.54c0,1,0,2,.11,2.94a10.29,10.29,0,0,0-1.76.44c-1.61.55-4.87,2.41-5.66,5.45a5.69,5.69,0,0,0,2.08,6,6.58,6.58,0,0,0,1.93,1c1,3.17,4.24,4.71,7.31,4.9l1.07,2c1.33,2.54,2.7,5.17,4.23,7.73s2.94,4.85,4.31,6.94a5.39,5.39,0,0,0-2.61,4.83c0,1.23.11,2.46.16,3.68l0,.61.14,3.06c.08,2,.19,4.65.27,7.28,0,.43,0,.88.07,1.32A27.29,27.29,0,0,0,56.51,226c.29.62.61,1.26,1,1.88.2.37.41.73.63,1.09a35.46,35.46,0,0,0,3.19,4.42c.14.17.3.34.46.51l.07.07c.44.49.9.95,1.37,1.38a20.13,20.13,0,0,0,2.39,1.88,22.17,22.17,0,0,0,2.11,1.26c.42.21.86.42,1.31.62a22.58,22.58,0,0,0,2.5.94c.55.16,1.12.31,1.69.43a23,23,0,0,0,4.91.53,23.6,23.6,0,0,0,9.09-1.82,5.4,5.4,0,0,0,2.82-2.7,5.42,5.42,0,0,0,2.59-2.9c6.06,6.82,13.94,11.22,21.88,12.16,1.11.13,2.16.15,3.09.17l1.07,0h.22a5.4,5.4,0,0,0,3.78-1.55,40,40,0,0,0,17.79,4.26c13.3,0,25.73-7.21,31.21-14.7a22.46,22.46,0,0,0,4.17,5.31,5.38,5.38,0,0,0,3.7,1.46,5.27,5.27,0,0,0,.68,0,4.93,4.93,0,0,0,.89.74,15.25,15.25,0,0,0,8.53,2.5,17.44,17.44,0,0,0,1.76-.09l1.12-.14c.36-.06.73-.13,1.09-.21a19.94,19.94,0,0,0,2.14-.59c7.39-2.47,12.81-8.66,13.17-15.05.06-.94.09-1.92.09-2.92v-.12c0-.92,0-1.88-.08-2.86v-.09c-.05-.94-.13-1.9-.23-2.87v-.05a96.74,96.74,0,0,0-3.13-15.59,5.35,5.35,0,0,0-.95-1.89c2-2.86,4-6,6.29-9.87,1.52-2.56,2.9-5.19,4.23-7.73l1.15-2.18c3-.27,6.07-1.81,7-4.87a7,7,0,0,0,1.93-1,5.7,5.7,0,0,0,2.08-6c-.8-3.05-4.05-4.9-5.66-5.46a11.92,11.92,0,0,0-1.76-.44c.06-.95.11-1.93.11-2.94a58.75,58.75,0,0,0-.69-9.54c-.1-.63-.22-1.28-.35-1.93a47.46,47.46,0,0,0,11.14,3.33,5.59,5.59,0,0,0,.91.08,5.4,5.4,0,0,0,4.07-8.95Zm-176.43-91A37.32,37.32,0,0,1,53.5,38.72a65.46,65.46,0,0,1-.7-18.21c5,.43,9.89.89,14.77,1.3,1.8.15,3.6.3,5.4.43a18,18,0,0,1,4.51.94,20,20,0,0,1,4.09,2c.38.24.74.49,1.11.75.63.45,1.23.92,1.8,1.42a22.23,22.23,0,0,1,3,3.25c.22.29.43.59.64.89a22.53,22.53,0,0,1,2.35,4.45,23,23,0,0,0,.1,7.11A21.63,21.63,0,0,0,92.07,48c0,.21,0,.41,0,.62s0,.34-.07.51l-6.46,6.31a50,50,0,0,0-4.36-4.6c-.2-.19-.41-.36-.63-.54a21.32,21.32,0,0,1-3.73-3.32,5.62,5.62,0,0,1-1.17-3l-.47.18-2,.74-1.9-4c-.62-1.32-1.25-2.64-1.89-4l-1.28,1-.57.42-.56.41L63.27,35c3.26,7.34,6.33,14.79,14.5,18.1-.84,1.21-1.43,2.06-2.15,3.08l5.84,3.12L78.21,62.5a13,13,0,0,0-7.58-2.57,11.58,11.58,0,0,0-3.65.59A21.07,21.07,0,0,1,58.64,52.91Zm8.81,157.3-.54.58c.66.44,1.29.91,2,1.3h0c.25.14.49.28.71.43h0a2.09,2.09,0,0,1,.9,1.12l0,.11,0,.23v.22c0,.07,0,.13,0,.2a3.4,3.4,0,0,1-.1.5h0c-.12.39.49,1.16.94,1.55s.87.74,1.31,1.11c1.1.92,2.26,1.85,3.48,2.84l.7.57-.42.19-2.79,1.22c4.33,2.35,8,5.12,10.27,9.17a17.93,17.93,0,0,1,1.21,2.62,18.33,18.33,0,0,1-7,1.41,18,18,0,0,1-3.76-.4c-.43-.1-.86-.21-1.28-.34a15.25,15.25,0,0,1-1.89-.7l-1-.47c-.54-.29-1.07-.6-1.58-.94a15.77,15.77,0,0,1-1.77-1.4c-.35-.32-.69-.66-1-1l-.4-.44a30,30,0,0,1-2.7-3.74c-.18-.3-.36-.6-.53-.91-.28-.5-.54-1-.78-1.54a21.68,21.68,0,0,1-2-7.56c0-.35,0-.7,0-1.06-.07-2.45-.17-4.91-.28-7.35,0-1.23-.11-2.45-.16-3.68s-.11-2.44-.16-3.66h0l.17-.08.12-.05c1.14,1.57,2.37,3.18,3.64,4.76a5.37,5.37,0,0,0,4.21,2h.19a5.39,5.39,0,0,0,3.82-1.78c.8.35,1.59.71,2.38,1.08a48.45,48.45,0,0,0,9.07,5.44l.47.44a36.57,36.57,0,0,0,5.62,15.83,19.7,19.7,0,0,1-.89,3.6C81.44,223.71,76.81,214.6,67.45,210.21Zm33.41-.21.1-.67c0,.17.08.35.13.53a27.7,27.7,0,0,0,2.69,7.08,6.18,6.18,0,0,0-.9.43C101.37,214.88,100.54,212.06,100.86,210Zm67.58,18.89c-2.93,5.77-14.14,14.34-28,14.34a34.63,34.63,0,0,1-16.38-4.2,5.8,5.8,0,0,0-.6-1.35,14.47,14.47,0,0,0-3.62-3.87l-.66-.55-1.88-1.7c-2.12-1.92-4.27-3.87-6.41-5.85a49.53,49.53,0,0,0,19,6.86,26.26,26.26,0,0,0,7.48,1.15,20.26,20.26,0,0,0,13-4.44,33.35,33.35,0,0,0,18.83-23.88,19.19,19.19,0,0,0,.49-2,54.43,54.43,0,0,1,1.07,6.35,5.7,5.7,0,0,0,.17,1.79,49.74,49.74,0,0,1,.16,5.12,14.92,14.92,0,0,0-2,5.89,16.3,16.3,0,0,0,.11,4.62C169,227.74,168.73,228.33,168.44,228.89Zm6.4-27.2a5.24,5.24,0,0,0-1.38-2.41l14.16-13.8A137.84,137.84,0,0,1,175.15,203C175,202.27,174.87,201.8,174.84,201.69Zm28.74,23.19c0,.87,0,1.75-.08,2.63-.25,4.44-4.55,8.59-9.49,10.24a14.61,14.61,0,0,1-1.57.43c-.27.06-.53.11-.8.15l-.8.11q-.61.06-1.23.06a9.85,9.85,0,0,1-5.53-1.59c.06-.54.13-1.13.2-1.76l0-.26h0l6.65-1.3,1.11-.22-1.76-.44-4.51-1.14c0-.19,0-.35.07-.51a3.18,3.18,0,0,1,2.43-2.42c.44-.17.91-.31,1.39-.47a4.34,4.34,0,0,1-.71-1,3.32,3.32,0,0,1-.22-.53l0-.1a2.55,2.55,0,0,1-.1-.72v-.09a3.76,3.76,0,0,1,.14-.88,3.35,3.35,0,0,1,.19-.53c0-.12.11-.24.17-.36a17.17,17.17,0,0,1,1.1-1.78h0c.46-.67.9-1.36,1.32-2.06l.08-.13c.42-.7.82-1.41,1.21-2.13s.88-1.7,1.27-2.6c-1.42,1.72-2.84,3.43-4.25,5.15-1.18,1.43-2.26,3-3.57,4.27a13.34,13.34,0,0,1-3.83,2.52c-.88,2.55-.08,5.87-3,7.93a16.69,16.69,0,0,1-4.7-7.75,36.67,36.67,0,0,0,1.62-9.18,12.38,12.38,0,0,1,3.82-3.22c4-2.24,8-4.32,12.21-6.42a5.46,5.46,0,0,0,3,1h.18a5.39,5.39,0,0,0,4.22-2c.33-.4.64-.81,1-1.21a85.39,85.39,0,0,1,2.49,12.89v.07c.09.86.16,1.73.2,2.6,0,0,0,.07,0,.11,0,.86.07,1.72.07,2.58Zm11.54-83.62,0,0s-2,.68.61,3.33c0,0-7.77-2.23-5.72-7.27a33.36,33.36,0,0,1-5.36-6s0,8.41.75,15q2.21.9,4.65,1.77a1.62,1.62,0,0,0-.1-.18,16.87,16.87,0,0,0,3.19.39c.33,1.33.6,2.65.81,4a53.64,53.64,0,0,1,.62,8.67c0,1.15-.08,2.28-.17,3.41l-.1,0a5.61,5.61,0,0,0-1.58-.31l-1.78-12-5.08-2.62a1.43,1.43,0,0,0,0,.22,49.64,49.64,0,0,1-.31,17.91,7.1,7.1,0,0,0-1.09,3.14,7.74,7.74,0,0,0,0,1.8,97.2,97.2,0,0,1-4.64,14,42.78,42.78,0,0,1-6.43,10.76l4,.48L210,180.09l.65.39.09.05c-1.46,2.78-2.9,5.58-4.5,8.28-2.15,3.62-4.4,7.19-6.86,10.61a5.74,5.74,0,0,0-1.53.51c-1.42.74-2.84,1.45-4.24,2.16-1.18-.47-2.32-.88-3.45-1.22a42.62,42.62,0,0,1-13.93,9.23V210c1.26-1.41,20-22.69,21.6-36,1.44-12.3.59-20.66-2-35.23l-11,10.67-6.5,8.59,13.07,13.41-1.36,1.32,1.37,1.41-26.83,26.14c0,.29,0,.57-.06.85a4.83,4.83,0,0,0-.3,1.13c-.08.56-.17,1.11-.28,1.66-1.17,3.83-3.81,7.28-6.69,10.63a24.06,24.06,0,0,0,.69-12.12l-4.78,4.79a15.53,15.53,0,0,1-4.52,5.15c-.74.57-1.49,1.11-2.26,1.62l-10.07,10.07,15.52-8a14.07,14.07,0,0,1-4.47,8.61,31.53,31.53,0,0,1-12.81,2.78c-.95,0-1.89,0-2.8-.14l-.82-.1-.46-.14,2-1-4.43-4.43c-.78.23-1.57.4-2.35.62a11.29,11.29,0,0,1-3.1.54c-2.63,0-4-1.63-4.59-5.28-.38-2.25-.62-4.53-.89-6.81L111.45,205a43.73,43.73,0,0,0,1.72,12.47c.18.65.32,1.31.6,2.49a16,16,0,0,1-4.64-4.6c-1.59-3.09-1.67-10.59-1-15.39a6.4,6.4,0,0,0,.07-.88,5.37,5.37,0,0,0-3.07-4.86,42.92,42.92,0,0,1,1.2-7.43L100,192.92c-.47.89-.92,1.76-1.33,2.65l-.09.11a4.74,4.74,0,0,0-.37.51c-4.26,6.57-5.57,12.66-3.92,18.1A16,16,0,0,0,99.53,222c.28.36.56.71.85,1.05a5.39,5.39,0,0,0,.88,2,65.21,65.21,0,0,0,14.86,15.31c-.33,0-.67,0-1-.08-8.24-1-16-6.46-21.1-13.69a22.66,22.66,0,0,0-.81-7.18,24,24,0,0,0-5.12-9.58,25,25,0,0,1,.1-2.87A24.06,24.06,0,0,1,91,197.75L66.52,172.6l1.37-1.33-1.37-1.4,15.1-14.72-7.33-8.79-2.06,2-6.64-6.81c-1.86,11.45-2.34,19.17-1.08,29.89,1.62,13.78,21.67,36.09,21.67,36.09s-.33-.11-.88-.35a32,32,0,0,0-6.6-4.27q-1.33-.65-2.67-1.26a43.82,43.82,0,0,1-3.91-3.43c-.7.22-1.41.47-2.13.74l-3.65-1.56-3.83-1.63c-2.2-3.14-4.25-6.39-6.21-9.69-1.6-2.7-3-5.49-4.5-8.27.26-.14.51-.29.75-.44L65.08,195l3.69-.44a43,43,0,0,1-6.34-10.67,98.51,98.51,0,0,1-4.65-14,7.82,7.82,0,0,0,0-1.81A7.15,7.15,0,0,0,56.73,165a49.58,49.58,0,0,1-.31-17.9c0-.07,0-.15,0-.22l-5.08,2.62-1.78,12a5.29,5.29,0,0,0-1.59.32l-.09,0c-.1-1.12-.17-2.25-.17-3.4a53.56,53.56,0,0,1,.62-8.67c.21-1.3.48-2.62.8-4a17,17,0,0,0,3.2-.4l-.11.19q2.45-.87,4.66-1.77c.4-3.46.59-7.42.68-10.4l-2-2a39.77,39.77,0,0,1-3.34,3.4c2,5-5.73,7.26-5.73,7.26,2.59-2.64.61-3.32.61-3.32l0,0a41.53,41.53,0,0,1-15.88,6.21s8.89-10.2,14.08-20.67l-4.8,1.89a20.22,20.22,0,0,1,5.52-4.51l-4.21-4.31L40,118s.55-.49,1.44-1.25L36,111.21l16.36-16C51.08,87,45.9,77,32.76,63.75c0,0,7.06,1.06,15.34,11.85A44.72,44.72,0,0,1,55.7,92l9.17-8.94c-.3-.12-.6-.23-.89-.36h0A60.11,60.11,0,0,1,55.35,78c3.57-3.66,6.84-7.22,10.33-10.54a8.32,8.32,0,0,1,1.32-1,29,29,0,0,0,9.63,1.87A12,12,0,0,1,78,70.23l2-2a32,32,0,0,0,6.39-1.12,6,6,0,0,0,2.91-1.94h0a4.63,4.63,0,0,0,.4-.48,5.4,5.4,0,0,0,4-3.05A41.65,41.65,0,0,0,97,51.7l2.21-2.16A16.77,16.77,0,0,1,97.57,47l0-.58c0-.46,0-.92,0-1.38a31.19,31.19,0,0,0-1.54-9.57,22,22,0,0,1,4.63-9.19c3.68-4.56,7.73-8.82,11.63-13.2,0,0,.09,0,.17,0h.26l1.32,3.19c.43,1.07.87,2.13,1.31,3.2q1.32,3.19,2.68,6.38c.13.31.25.62.37.93a19.72,19.72,0,0,1,.89,3.19L130,19.52l.05.05.12-.11,4.63,5,8.43,8.65.11-.3,0,0A60.11,60.11,0,0,1,148,24.14c3.66,3.57,7.22,6.84,10.54,10.33,4.18,4.39,1.71,9.47-2.23,12L167,57.43l.78-.68L170,54.87a56.32,56.32,0,0,0,5.29-4.95c.19-.2.36-.41.54-.62a21.38,21.38,0,0,1,3.31-3.74,5.74,5.74,0,0,1,3-1.17c-.07-.17-.12-.32-.18-.47-.28-.73-.49-1.31-.74-2l4-1.89,4-1.89-.95-1.29-.42-.57-.41-.55c1.29-1.31,2.47-2.5,3.64-3.7-7.33,3.27-14.78,6.33-18.1,14.5l-3.07-2.14-5.25,9.82c-.26-.26-.44-.35-.47-.48-2.29-8.07-1.32-19.71,9-26.32a37.17,37.17,0,0,1,14.19-5.15,71.86,71.86,0,0,1,11.83-1.05,55.2,55.2,0,0,1,6.38.36c-.44,5-.9,9.89-1.3,14.76-.16,1.8-.3,3.6-.44,5.4a17.06,17.06,0,0,1-.94,4.51,19.8,19.8,0,0,1-2,4.1c-.24.37-.49.74-.75,1.1-.45.64-.93,1.24-1.42,1.81a22.67,22.67,0,0,1-3.25,3c-.29.22-.59.44-.89.64A23.94,23.94,0,0,1,181,61h-.12c-.35,0-.69,0-1,0-.78,0-1.56-.08-2.35-.17l-1.19-.16a35.51,35.51,0,0,1-8.66-2.56l9.32,9.56a16.15,16.15,0,0,1,7-2.92,18.7,18.7,0,0,1,3-.26c4.79,0,9,2,12.82,5,4.4,3.55,8.52,7.44,12.74,11.2.55-.85,1.12-1.69,1.75-2.51,8.27-10.79,15.34-11.84,15.34-11.84-15,15.1-19.62,26-20,34.86l12.06,12.37L218.14,117c2.37,1.93,4.21,3.56,4.21,3.56l-5.68-2.13-2.31,2.26c.14.37.27.74.4,1.1.25.69.52,1.38.82,2.07,3.23,1.31,6.14,4.79,6.14,4.79l-4.81-1.89c5.2,10.48,14.09,20.67,14.09,20.67A41.3,41.3,0,0,1,215.12,141.26Zm-22,24.14-7.6-7.79,3.45-4.56,3.21-3.13A89.27,89.27,0,0,1,193.09,165.4ZM69.22,159.7c0-2.15.12-4.34.32-6.65a5.44,5.44,0,0,0,2.62.71h.07a5.1,5.1,0,0,0,1.11-.11l.93,1.12Z"/><path d="M209.82,82.88l-3.2,1.31q-3.19,1.32-6.38,2.68c-.31.13-.62.26-.93.37a19,19,0,0,1-2.56.75L206,97.47a50.09,50.09,0,0,1,5.6-15.32Z"/><path d="M206.66,128.24a58.14,58.14,0,0,0,15.21,13.59s-6.12-8.72-11.08-17.62Z"/><path d="M197.05,76.81a.93.93,0,0,1,.23,0,2.11,2.11,0,0,1,1.08.34h0c.21.13.43.27.65.43h0c.6.43,1.25.78,1.88,1.17l.29-.69c-6.23-5.22-14-6.32-21.69-7.75l4.25,4.36a33.72,33.72,0,0,1,4.6,2.92c0-1,0-1.83-.06-2.86,0-.14,0-.28,0-.44l.77.38c1.33.65,2.57,1.27,3.8,1.85l1.46.67a3.43,3.43,0,0,0,1.26.31.7.7,0,0,0,.44-.12h0a2.4,2.4,0,0,1,.38-.29,1.29,1.29,0,0,1,.16-.09l.19-.09.21-.06Z"/><path d="M108.34,27.67a6.07,6.07,0,0,1,.43-.65h0c.43-.6.78-1.26,1.17-1.89l-.7-.28c-5.43,6.48-6.4,14.59-7.92,22.64l3.84-3.75a30.85,30.85,0,0,1,3.62-6.05l-2.86.06h-.44l.38-.78c.65-1.32,1.26-2.57,1.84-3.79.23-.49.46-1,.68-1.46s.44-1.41.19-1.7h0a4.28,4.28,0,0,1-.29-.38l-.09-.16c0-.07-.06-.13-.08-.19a1.72,1.72,0,0,1-.07-.21s0-.08,0-.11a2,2,0,0,1,.33-1.31Z"/><path d="M73,71.21h-.15a8.81,8.81,0,0,1-2.3,1.91c-1.07.57-2.23.95-3.35,1.41l-4,1.67c.64-.07,1.25-.18,1.87-.29l1.55-.35.1,0c.52-.13,1-.27,1.54-.43h0a11.67,11.67,0,0,1,1.32-.34l.26,0,.31,0h0a2.8,2.8,0,0,1,.58.08l.06,0a2.07,2.07,0,0,1,.43.2l0,0a1.54,1.54,0,0,1,.29.23,3.12,3.12,0,0,1,.51.64c.19-.26.37-.53.55-.77a2.39,2.39,0,0,1,1.37-1l2.6-2.54-.41,0C75.14,71.59,74.05,71.21,73,71.21Z"/><path d="M152.94,191.7l1.46,1.45c-.36-.64-.73-1.28-1.11-1.91Z"/><path d="M152.91,39.36A35.16,35.16,0,0,1,151.5,36c-.56-1.34-1.12-2.68-1.67-4,.07.63.17,1.25.29,1.86s.22,1,.35,1.56l0,.09c.13.52.27,1,.42,1.54h0a11.15,11.15,0,0,1,.34,1.32,2.17,2.17,0,0,1,0,.25,2.32,2.32,0,0,1,0,.37,1.87,1.87,0,0,1-.08.57s0,0,0,.06a1.86,1.86,0,0,1-.2.43l0,0a1.54,1.54,0,0,1-.23.29l-.21.19,3.91,4a26,26,0,0,0,.35-3A8.8,8.8,0,0,1,152.91,39.36Z"/><path d="M76.49,55c.39-.56.8-1.13,1.28-1.83C69.6,49.81,66.53,42.36,63.27,35L67,38.67l.56-.41.57-.42,1.28-1c.64,1.34,1.27,2.66,1.89,4l1.9,4,2-.74L75.6,44a5.62,5.62,0,0,0,1.17,3,21.32,21.32,0,0,0,3.73,3.32c.22.18.43.35.63.54l.26.24,4-3.93a28.12,28.12,0,0,1-.7-3.08A29.21,29.21,0,0,1,86.17,29a21.86,21.86,0,0,0-1.69-1.64c-.57-.5-1.17-1-1.8-1.42-.37-.26-.73-.51-1.11-.75a20,20,0,0,0-4.09-2A18,18,0,0,0,73,22.24c-1.8-.13-3.6-.28-5.4-.43-4.88-.41-9.77-.87-14.77-1.3a65.46,65.46,0,0,0,.7,18.21,37.32,37.32,0,0,0,5.14,14.19,22.49,22.49,0,0,0,2.84,3.58,17.62,17.62,0,0,1,15-1.54Z"/><path d="M53.12,63.94Q55,62,57,60.05A27.78,27.78,0,0,1,53.85,56a42.66,42.66,0,0,1-6-16.33,70.77,70.77,0,0,1-.73-19.78,5.68,5.68,0,0,1,5.65-5.05,4.26,4.26,0,0,1,.5,0l6,.53q4.38.41,8.7.77l5.35.43a23.18,23.18,0,0,1,6,1.23,25.34,25.34,0,0,1,5.27,2.55c.47.29.92.6,1.37.92a27.92,27.92,0,0,1,2.25,1.78c.19.16.36.33.55.5a38.12,38.12,0,0,1,3.07-4.43l.23-.27-.1-.09a33,33,0,0,0-2.69-2.12c-.54-.39-1.08-.75-1.63-1.1a31.24,31.24,0,0,0-6.46-3.12,29,29,0,0,0-7.39-1.53l-5.29-.42c-2.88-.24-5.76-.5-8.67-.77l-6.06-.53c-.33,0-.67-.05-1-.05a11.39,11.39,0,0,0-11.3,10.11,76.35,76.35,0,0,0,.78,21.36,48.28,48.28,0,0,0,6.78,18.46,36.49,36.49,0,0,0,2.18,3Q52.16,62.94,53.12,63.94Z"/><path d="M80.5,50.25a21.32,21.32,0,0,1-3.73-3.32,5.62,5.62,0,0,1-1.17-3l-.47.18-2,.74-1.9-4c-.62-1.32-1.25-2.64-1.89-4l-1.28,1-.57.42-.56.41L63.27,35c3.26,7.34,6.33,14.79,14.5,18.1-.48.7-.89,1.27-1.28,1.83l.66.22L81.39,51l-.26-.24C80.93,50.6,80.72,50.43,80.5,50.25Z"/><path d="M61.48,56.49a22.49,22.49,0,0,1-2.84-3.58A37.32,37.32,0,0,1,53.5,38.72a65.46,65.46,0,0,1-.7-18.21c5,.43,9.89.89,14.77,1.3,1.8.15,3.6.3,5.4.43a18,18,0,0,1,4.51.94,20,20,0,0,1,4.09,2c.38.24.74.49,1.11.75.63.45,1.23.92,1.8,1.42A21.86,21.86,0,0,1,86.17,29a31.8,31.8,0,0,1,2.61-5.42c-.19-.17-.36-.34-.55-.5A27.92,27.92,0,0,0,86,21.27c-.45-.32-.9-.63-1.37-.92a25.34,25.34,0,0,0-5.27-2.55,23.18,23.18,0,0,0-6-1.23L68,16.14q-4.32-.36-8.7-.77l-6-.53a4.26,4.26,0,0,0-.5,0,5.68,5.68,0,0,0-5.65,5.05,70.77,70.77,0,0,0,.73,19.78,42.66,42.66,0,0,0,6,16.33A27.78,27.78,0,0,0,57,60.05c.27-.27.54-.54.82-.8A20.14,20.14,0,0,1,61.48,56.49Z"/><path d="M71.16,212.2l-.15.05a34.19,34.19,0,0,1,6.89,6.37c-.22-.88-.42-1.76-.58-2.64A54.44,54.44,0,0,1,71.16,212.2Z"/><path d="M73.64,222.38l2.79-1.22.42-.19-.7-.57c-1.22-1-2.38-1.92-3.48-2.84-.44-.37-.88-.73-1.31-1.11s-1.06-1.16-.94-1.55h0a3.4,3.4,0,0,0,.1-.5c0-.07,0-.13,0-.2V214l0-.23,0-.11a2,2,0,0,0-.73-1,11.34,11.34,0,0,1-2.47.37H66.9A11.38,11.38,0,0,1,59.17,210c.07,1.7.14,3.4.19,5.1,0,.36,0,.71,0,1.06a21.68,21.68,0,0,0,2,7.56c.24.53.5,1,.78,1.54.17.31.35.61.53.91a30,30,0,0,0,2.7,3.74l.4.44c.32.35.66.69,1,1a15.77,15.77,0,0,0,1.77,1.4c.51.34,1,.65,1.58.94l1,.47a15.25,15.25,0,0,0,1.89.7c.42.13.85.24,1.28.34a18,18,0,0,0,3.76.4,18.33,18.33,0,0,0,7-1.41c-.11-.31-.24-.6-.37-.89a45.57,45.57,0,0,1-2.9-4.66A28.31,28.31,0,0,0,73.64,222.38Z"/><path d="M88.92,238.39a5.48,5.48,0,0,1-1.62,1,23.94,23.94,0,0,1-9.2,1.84,23.56,23.56,0,0,1-5-.53c-.58-.13-1.16-.28-1.71-.44a23.64,23.64,0,0,1-2.53-1c-.45-.19-.89-.4-1.33-.63a22.74,22.74,0,0,1-2.14-1.27A20.89,20.89,0,0,1,63,235.53c-.48-.44-1-.91-1.38-1.38l-.07-.07c-.16-.18-.33-.35-.48-.54a36.12,36.12,0,0,1-3.21-4.44c-.22-.37-.44-.74-.64-1.12-.34-.61-.67-1.25-1-1.89a27.58,27.58,0,0,1-2.5-9.52c0-.44-.06-.89-.07-1.34-.07-2.42-.17-4.85-.28-7.27,0,0-.15-3.46-.25-5.7-1.48-2.12-3-4.4-4.57-7a11.39,11.39,0,0,0-1.19,5.55c0,1.23.11,2.47.16,3.7l0,.58.14,3.08c.08,2,.19,4.6.27,7.19,0,.53,0,1.07.08,1.6a33.22,33.22,0,0,0,3,11.49c.35.75.74,1.51,1.15,2.26.24.43.49.87.75,1.3a43,43,0,0,0,3.73,5.17c.29.34.55.62.69.76l0,0c.56.61,1.14,1.18,1.73,1.73a28,28,0,0,0,3.08,2.42,29.13,29.13,0,0,0,2.7,1.61c.54.28,1.1.54,1.67.79a27.34,27.34,0,0,0,3.18,1.19c.7.21,1.42.39,2.14.55a29.09,29.09,0,0,0,6.18.66,29.55,29.55,0,0,0,11.38-2.27,11.45,11.45,0,0,0,3.57-2.38A46.12,46.12,0,0,1,88.92,238.39Z"/><path d="M84.75,233.28c.13.29.26.58.37.89a18.33,18.33,0,0,1-7,1.41,18,18,0,0,1-3.76-.4c-.43-.1-.86-.21-1.28-.34a15.25,15.25,0,0,1-1.89-.7l-1-.47c-.54-.29-1.07-.6-1.58-.94a15.77,15.77,0,0,1-1.77-1.4c-.35-.32-.69-.66-1-1l-.4-.44a30,30,0,0,1-2.7-3.74c-.18-.3-.36-.6-.53-.91-.28-.5-.54-1-.78-1.54a21.68,21.68,0,0,1-2-7.56c0-.35,0-.7,0-1.06,0-1.7-.12-3.4-.19-5.1A11.06,11.06,0,0,1,58,208.75c-1.34-1.67-2.63-3.35-3.83-5l-1-1.47c.1,2.24.25,5.7.25,5.7.11,2.42.21,4.85.28,7.27,0,.45,0,.9.07,1.34a27.58,27.58,0,0,0,2.5,9.52c.3.64.63,1.28,1,1.89.2.38.42.75.64,1.12a36.12,36.12,0,0,0,3.21,4.44c.15.19.32.36.48.54l.07.07c.43.47.9.94,1.38,1.38a20.89,20.89,0,0,0,2.43,1.92,22.74,22.74,0,0,0,2.14,1.27c.44.23.88.44,1.33.63a23.64,23.64,0,0,0,2.53,1c.55.16,1.13.31,1.71.44a23.56,23.56,0,0,0,5,.53,23.94,23.94,0,0,0,9.2-1.84,5.48,5.48,0,0,0,1.62-1c-.78-.83-1.54-1.68-2.26-2.58S85.36,234.14,84.75,233.28Z"/><path d="M71,212.25a10.7,10.7,0,0,1-1.25.4,2,2,0,0,1,.73,1l0,.11,0,.23v.22c0,.07,0,.13,0,.2a3.4,3.4,0,0,1-.1.5h0c-.12.39.49,1.16.94,1.55s.87.74,1.31,1.11c1.1.92,2.26,1.85,3.48,2.84l.7.57-.42.19-2.79,1.22a28.31,28.31,0,0,1,8.21,6.24,43.9,43.9,0,0,1-3.95-10A34.19,34.19,0,0,0,71,212.25Z"/><path d="M195.24,215.75c-.41,0-.82-.06-1.22-.12-.37.83-.76,1.62-1.18,2.4s-.79,1.43-1.21,2.13l-.08.13c-.42.7-.86,1.39-1.32,2.06h0a17.17,17.17,0,0,0-1.1,1.78c-.06.12-.12.24-.17.36a3.35,3.35,0,0,0-.19.53,3.76,3.76,0,0,0-.14.88V226a2.55,2.55,0,0,0,.1.72l0,.1a3.32,3.32,0,0,0,.22.53,4.34,4.34,0,0,0,.71,1c-.48.16-.95.3-1.39.47a3.18,3.18,0,0,0-2.43,2.42c0,.16-.05.32-.07.51l4.51,1.14,1.76.44-1.11.22-6.65,1.3h0l0,.26c-.07.63-.14,1.22-.2,1.76a9.85,9.85,0,0,0,5.53,1.59q.62,0,1.23-.06l.8-.11c.27,0,.53-.09.8-.15a14.61,14.61,0,0,0,1.57-.43c4.94-1.65,9.24-5.8,9.49-10.24.05-.88.07-1.76.08-2.63v-.1c0-.86,0-1.72-.07-2.58,0,0,0-.07,0-.11,0-.87-.11-1.74-.2-2.6v-.07c-.2-1.95-.51-3.92-.89-5.91a11.33,11.33,0,0,1-6.76,2.24Z"/><path d="M182.32,219.89a38,38,0,0,1-3.73,14.17l-.11.19q.5.56,1,1.05c2.88-2.06,2.08-5.38,3-7.93a13.34,13.34,0,0,0,3.83-2.52c1.31-1.3,2.39-2.84,3.57-4.27l4.09-5a11.36,11.36,0,0,1-2.82-.79A54,54,0,0,1,182.32,219.89Z"/><path d="M207.08,208.18A84.59,84.59,0,0,1,209,218.84a.57.57,0,0,0,0,.13c.09.92.17,1.89.22,2.81v.15c.05,1,.08,1.92.08,2.85v.16c0,1,0,1.95-.08,2.89-.37,6.51-5.87,12.81-13.37,15.32a19.42,19.42,0,0,1-2.17.59c-.38.09-.75.16-1.13.22l-1.13.14a17.68,17.68,0,0,1-1.78.09,15.6,15.6,0,0,1-8.69-2.54,5.15,5.15,0,0,1-.84-.69l-.57,0a5.7,5.7,0,0,1-3.9-1.54c-.14-.13-.27-.27-.4-.4a37.32,37.32,0,0,1-4,4l.53.52a11.47,11.47,0,0,0,6.36,3,21.35,21.35,0,0,0,11.53,3.28c.77,0,1.57,0,2.35-.11.49-.05,1-.12,1.48-.19l1.41-.27a26.19,26.19,0,0,0,2.76-.76c9.82-3.28,16.75-11.47,17.26-20.39.06-1,.09-2.1.09-3.19v-.19c0-1,0-2.05-.08-3.12v-.18c-.05-1-.13-2-.24-3.09v-.13a101.09,101.09,0,0,0-3.23-16.21c-1,1.56-2,3-3,4.41C207.94,207,207.51,207.61,207.08,208.18Z"/><path d="M202.4,213.51c.38,2,.69,4,.89,5.91v.07c.09.86.16,1.73.2,2.6,0,0,0,.07,0,.11,0,.86.07,1.72.07,2.58v.1c0,.87,0,1.75-.08,2.63-.25,4.44-4.55,8.59-9.49,10.24a14.61,14.61,0,0,1-1.57.43c-.27.06-.53.11-.8.15l-.8.11q-.61.06-1.23.06a9.85,9.85,0,0,1-5.53-1.59c.06-.54.13-1.13.2-1.76l0-.26h0l6.65-1.3,1.11-.22-1.76-.44-4.51-1.14c0-.19,0-.35.07-.51a3.18,3.18,0,0,1,2.43-2.42c.44-.17.91-.31,1.39-.47a4.34,4.34,0,0,1-.71-1,3.32,3.32,0,0,1-.22-.53l0-.1a2.55,2.55,0,0,1-.1-.72v-.09a3.76,3.76,0,0,1,.14-.88,3.35,3.35,0,0,1,.19-.53c0-.12.11-.24.17-.36a17.17,17.17,0,0,1,1.1-1.78h0c.46-.67.9-1.36,1.32-2.06l.08-.13c.42-.7.82-1.41,1.21-2.13s.81-1.57,1.18-2.4H194l-4.09,5c-1.18,1.43-2.26,3-3.57,4.27a13.34,13.34,0,0,1-3.83,2.52c-.88,2.55-.08,5.87-3,7.93q-.52-.5-1-1.05a26.71,26.71,0,0,1-3.27,4.8c.13.13.26.27.4.4a5.7,5.7,0,0,0,3.9,1.54l.57,0a5.15,5.15,0,0,0,.84.69,15.6,15.6,0,0,0,8.69,2.54,17.68,17.68,0,0,0,1.78-.09l1.13-.14c.38-.06.75-.13,1.13-.22a19.42,19.42,0,0,0,2.17-.59c7.5-2.51,13-8.81,13.37-15.32.05-.94.08-1.88.08-2.89v-.16c0-.93,0-1.89-.08-2.85v-.15c-.05-.92-.13-1.89-.22-2.81a.57.57,0,0,1,0-.13,84.59,84.59,0,0,0-1.88-10.66c-.83,1.1-1.68,2.21-2.56,3.3A11.3,11.3,0,0,1,202.4,213.51Z"/><path d="M163,224.43a11.62,11.62,0,0,1-2.21,1c-4.2,8.67-13,14.25-23.43,14.25a31.77,31.77,0,0,1-7.26-.86,11.76,11.76,0,0,1,.06,2.78,33.69,33.69,0,0,0,10.25,1.61,36.26,36.26,0,0,0,24.39-9.71A24.78,24.78,0,0,1,163,224.43Z"/><path d="M168.82,222.49a14.79,14.79,0,0,1,.71-3.11c-.3-.22-.59-.44-.86-.68-.88,1.14-1.8,2.25-2.72,3.32a11,11,0,0,1-2.93,2.41,24.78,24.78,0,0,0,1.8,9.09,18.08,18.08,0,0,0,3.62-4.63c.21-.4.39-.82.57-1.24A16.92,16.92,0,0,1,168.82,222.49Z"/><path d="M168.82,222.49a16.92,16.92,0,0,0,.19,5.16,26.69,26.69,0,0,0,1.86-7.46,10.6,10.6,0,0,1-1.34-.81A14.79,14.79,0,0,0,168.82,222.49Z"/><path d="M167.58,238.73a41.57,41.57,0,0,1-27.15,10.19,39.46,39.46,0,0,1-12.22-2,11.39,11.39,0,0,1-5.22,4.15,45.51,45.51,0,0,0,17.44,3.5,48.24,48.24,0,0,0,30.76-11.52A28.62,28.62,0,0,1,167.58,238.73Z"/><path d="M182.32,219.89c-1.29.58-2.15.89-2.42,1a11.46,11.46,0,0,1-3.45.62,33.74,33.74,0,0,1-1.5,6.57,16.55,16.55,0,0,0,3.53,6.18l.11-.19A38,38,0,0,0,182.32,219.89Z"/><path d="M175.21,239.05a22.53,22.53,0,0,1-3.61-4.59,31.46,31.46,0,0,1-4,4.27,28.62,28.62,0,0,0,3.61,4.36A37.32,37.32,0,0,0,175.21,239.05Z"/><path d="M175,228.07a26.59,26.59,0,0,1-1.43,3.4,19.61,19.61,0,0,1-1.92,3,22.53,22.53,0,0,0,3.61,4.59,26.71,26.71,0,0,0,3.27-4.8A16.55,16.55,0,0,1,175,228.07Z"/><path d="M140.43,243.23a33.69,33.69,0,0,1-10.25-1.61,11.3,11.3,0,0,1-1.49,4.64c-.15.25-.32.47-.48.7a39.46,39.46,0,0,0,12.22,2,41.57,41.57,0,0,0,27.15-10.19,28.33,28.33,0,0,1-2.76-5.21A36.26,36.26,0,0,1,140.43,243.23Z"/><path d="M176.16,221.51a9.76,9.76,0,0,1-1.32-.09,11.43,11.43,0,0,0,.11,6.65,33.74,33.74,0,0,0,1.5-6.57Z"/><path d="M168.44,228.89a18.08,18.08,0,0,1-3.62,4.63,28.33,28.33,0,0,0,2.76,5.21,31.46,31.46,0,0,0,4-4.27,20.77,20.77,0,0,1-2.59-6.81C168.83,228.07,168.65,228.49,168.44,228.89Z"/><path d="M175,228.07a11.43,11.43,0,0,1-.11-6.65,11.33,11.33,0,0,1-4-1.23,26.69,26.69,0,0,1-1.86,7.46,20.77,20.77,0,0,0,2.59,6.81,19.61,19.61,0,0,0,1.92-3A26.59,26.59,0,0,0,175,228.07Z"/><path d="M40.43,180.67l0-.12a13.49,13.49,0,0,1-5.82-1.9,13.46,13.46,0,0,0,7.87,5.8l-.3-.57C41.57,182.8,41,181.73,40.43,180.67Z"/><path d="M36.57,162.72c-.11-1.37-.21-2.82-.21-4.37,0-.41,0-.8,0-1.19-2.42,1.33-5.94,4-7.12,8.51a11.66,11.66,0,0,0,4.23,12.26c.31.23.68.48,1.08.72a12.2,12.2,0,0,1-1.41-3.29C31.94,170.64,33.69,166.15,36.57,162.72Z"/><path d="M39.09,175.08a4.61,4.61,0,0,1-.28-.68,7,7,0,0,1-1.87-1,6,6,0,0,1-2.19-6.29,7.09,7.09,0,0,1,1.93-3.2c0-.39-.07-.78-.11-1.19-2.88,3.43-4.63,7.92-3.42,12.64a12.2,12.2,0,0,0,1.41,3.29,13.49,13.49,0,0,0,5.82,1.9A11.27,11.27,0,0,1,39.09,175.08Z"/><path d="M39.12,174.52c-.11,0-.2-.08-.31-.12a4.61,4.61,0,0,0,.28.68A5.4,5.4,0,0,1,39.12,174.52Z"/><path d="M38.49,171.86a11.32,11.32,0,0,1-1.5-4.77c-.06-.72-.13-1.44-.21-2.15,0-.33-.06-.68-.1-1a7.09,7.09,0,0,0-1.93,3.2,6,6,0,0,0,2.19,6.29,7,7,0,0,0,1.87,1c-.05-.15-.1-.3-.14-.45A6.49,6.49,0,0,1,38.49,171.86Z"/><path d="M39.3,173.09a10,10,0,0,1-.81-1.23,6.49,6.49,0,0,0,.18,2.09c0,.15.09.3.14.45s.2.09.31.12A9.81,9.81,0,0,1,39.3,173.09Z"/><path d="M222.1,183.4c-.57,1.06-1.13,2.13-1.69,3.21l-.18.34a13.38,13.38,0,0,0,7.55-5.71,13.57,13.57,0,0,1-5.54,1.87A2.53,2.53,0,0,1,222.1,183.4Z"/><path d="M225.76,165.31c2.88,3.43,4.63,7.92,3.42,12.64a11.74,11.74,0,0,1-1.4,3.29,11.24,11.24,0,0,0,1.08-.72,11.7,11.7,0,0,0,4.23-12.26c-1.19-4.53-4.7-7.17-7.12-8.51,0,.39,0,.79,0,1.19C226,162.49,225.88,163.94,225.76,165.31Z"/><path d="M225.76,165.31c0,.41-.07.81-.11,1.2a6.89,6.89,0,0,1,1.93,3.19A6,6,0,0,1,225.4,176a7.06,7.06,0,0,1-1.88,1l-.09.29a11.49,11.49,0,0,1-1.19,5.83,13.57,13.57,0,0,0,5.54-1.87,11.74,11.74,0,0,0,1.4-3.29C230.39,173.23,228.64,168.74,225.76,165.31Z"/><path d="M223.43,177.28l.09-.29a.43.43,0,0,1-.12,0Z"/><path d="M225.35,169.68a11.32,11.32,0,0,1-1.5,4.77,6.72,6.72,0,0,1-.18,2.08c0,.16-.1.31-.15.46a7.06,7.06,0,0,0,1.88-1,6,6,0,0,0,2.18-6.29,6.89,6.89,0,0,0-1.93-3.19c0,.34-.06.69-.1,1C225.48,168.25,225.41,169,225.35,169.68Z"/><path d="M223.85,174.45c-.21.36-.43.71-.67,1.05a11.65,11.65,0,0,1,.22,1.54.43.43,0,0,0,.12,0c0-.15.11-.3.15-.46A6.72,6.72,0,0,0,223.85,174.45Z"/><path d="M60.8,189,56,182.24c-.46.3-.92.59-1.41.86.55,1,1.11,2,1.69,3S57.43,188,58,188.9a10.63,10.63,0,0,1,1.16-.07A11.22,11.22,0,0,1,60.8,189Z"/><path d="M206.52,185l-6,8.39a11.36,11.36,0,0,1,2.65.37c1-1.62,2-3.27,3-4.92.58-1,1.14-2,1.7-3l-.19-.1C207.32,185.48,206.92,185.23,206.52,185Z"/><path d="M99.15,232.52c.26.24.51.47.78.7l-.73-.89C99.18,232.39,99.17,232.46,99.15,232.52Z"/><path d="M109.24,24.85l.7.28c-.39.63-.74,1.29-1.17,1.89h0a6.07,6.07,0,0,0-.43.65h0A2,2,0,0,0,108,29s0,.07,0,.11a1.72,1.72,0,0,0,.07.21c0,.06.05.12.08.19l.09.16a4.28,4.28,0,0,0,.29.38h0c.25.29,0,1.19-.19,1.7s-.45,1-.68,1.46c-.58,1.22-1.19,2.47-1.84,3.79l-.38.78h.44l2.86-.06a30.85,30.85,0,0,0-3.62,6.05l-1.56,1.52c0,.46,0,.91,0,1.36,0,1.07-.12,2.16-.24,3.25-.07.54-.14,1.09-.22,1.61a47.25,47.25,0,0,1-3.9,12.69A11.39,11.39,0,0,1,93.06,70a11.5,11.5,0,0,1-5,2.9,38.25,38.25,0,0,1-10.5,1.46c-1.22,0-2.43-.08-3.62-.19a2.45,2.45,0,0,0-1.29,1c-.18.24-.36.51-.55.77a3.12,3.12,0,0,0-.51-.64,1.54,1.54,0,0,0-.29-.23l0,0a2.07,2.07,0,0,0-.43-.2l-.06,0a2.8,2.8,0,0,0-.58-.08h0l-.31,0-.26,0a11.67,11.67,0,0,0-1.32.34h0c-.51.16-1,.3-1.54.43l-.1,0-1.55.35c-.62.11-1.23.22-1.87.29l4-1.67c.86-.35,1.75-.66,2.6-1a33.37,33.37,0,0,1-7.55-2.61C60,73.19,57.74,75.59,55.35,78a60.11,60.11,0,0,0,8.59,4.65h0c.29.13.59.24.89.36L55.7,92a44.72,44.72,0,0,0-7.6-16.4C39.82,64.81,32.76,63.75,32.76,63.75,45.9,77,51.08,87,52.38,95.25L36,111.21l5.41,5.55C40.54,117.52,40,118,40,118l1.94-.73,4.21,4.31a20.22,20.22,0,0,0-5.52,4.51l4.8-1.89c-5.19,10.47-14.08,20.67-14.08,20.67a41.53,41.53,0,0,0,15.88-6.21l0,0s2,.68-.61,3.32c0,0,7.77-2.22,5.73-7.26a39.77,39.77,0,0,0,3.34-3.4l2,2c-.09,3-.28,6.94-.68,10.4q-2.22.9-4.66,1.77l.11-.19a17,17,0,0,1-3.2.4c-.32,1.33-.59,2.65-.8,4a48.42,48.42,0,0,0-.56,5.79l.45.11a12.17,12.17,0,0,1,1.6-.11l.62,0c.31-2.05.61-4.07.9-6l5.08-2.62c0,.07,0,.15,0,.22a42.43,42.43,0,0,0-.63,9.6,13.18,13.18,0,0,1,8,10.85,14.87,14.87,0,0,1-3.45,10.86c.62,1.77,1.31,3.6,2.1,5.5a43,43,0,0,0,3.61,6.9l2.63,1.12c2.52,1.07,5.1,2.17,7.69,3.33-5.34-7.4-11-16.71-11.85-23.78-1.26-10.72-.78-18.44,1.08-29.89l6.64,6.81,2.06-2,7.33,8.79-15.1,14.72,1.37,1.4-1.37,1.33,24.13,24.76A41.22,41.22,0,0,1,93.09,193a9.33,9.33,0,0,1,.72-1,11.4,11.4,0,0,1,9-4.35,11,11,0,0,1,2.34.26l1.18-1.15c-.12.45-.2.91-.3,1.37a6.91,6.91,0,0,1,.73.24,11.36,11.36,0,0,1,7.41,11.17,8.54,8.54,0,0,1-.12,1.24,45,45,0,0,0-.28,6.45l3.48,3.48c.23,2,.46,4,.76,5.94a37.9,37.9,0,0,0,14.46,4.75,19.5,19.5,0,0,0,2.18.12,24.13,24.13,0,0,0,4.89-.54l6.94-6.94c.77-.51,1.52-1.05,2.26-1.62a15.53,15.53,0,0,0,4.52-5.15l4.78-4.79c0,.17.06.35.09.52.1-.49.19-1,.26-1.5a11.39,11.39,0,0,1,10.6-9.82l.68,0a11.42,11.42,0,0,1,3.37.52l18.47-18-1.37-1.4,1.36-1.33-13.07-13.41,6.5-8.59,11-10.67c2.59,14.57,3.44,22.93,2,35.23-.92,7.83-7.78,18.4-13.54,26.07l4.46-2.26c2.08-1,4.23-2.13,6.36-3.23l.49-.22a42.71,42.71,0,0,0,4.31-7.92c.79-1.91,1.47-3.73,2.1-5.51a14.81,14.81,0,0,1-3.45-10.86,13.17,13.17,0,0,1,8-10.85,42,42,0,0,0-.62-9.6,1.43,1.43,0,0,1,0-.22l5.08,2.62c.29,2,.59,4,.89,6l.63,0a10.67,10.67,0,0,1,1.6.12l.45-.11a48.39,48.39,0,0,0-.56-5.8c-.21-1.3-.48-2.62-.81-4a16.87,16.87,0,0,1-3.19-.39,1.62,1.62,0,0,1,.1.18q-2.44-.87-4.65-1.77c-.77-6.58-.75-15-.75-15a33.36,33.36,0,0,0,5.36,6c-2.05,5,5.72,7.27,5.72,7.27-2.58-2.65-.61-3.33-.61-3.33l0,0A41.3,41.3,0,0,0,231,147.47s-8.89-10.19-14.09-20.67l4.81,1.89s-2.91-3.48-6.14-4.79c-.3-.69-.57-1.38-.82-2.07-.13-.36-.26-.73-.4-1.1l2.31-2.26,5.68,2.13s-1.84-1.63-4.21-3.56l3.55-3.46-12.06-12.37c.33-8.88,5-19.76,20-34.86,0,0-7.07,1.05-15.34,11.84-.63.82-1.2,1.66-1.75,2.51-4.22-3.76-8.34-7.65-12.74-11.2-3.78-3-8-5-12.82-5a18.7,18.7,0,0,0-3,.26,16.15,16.15,0,0,0-7,2.92l-9.32-9.56a35.51,35.51,0,0,0,8.66,2.56l1.19.16c.79.09,1.57.15,2.35.17.35,0,.69,0,1,0H181a23.94,23.94,0,0,0,13.59-4c.3-.2.6-.42.89-.64a22.67,22.67,0,0,0,3.25-3c.49-.57,1-1.17,1.42-1.81.26-.36.51-.73.75-1.1a19.8,19.8,0,0,0,2-4.1,17.06,17.06,0,0,0,.94-4.51c.14-1.8.28-3.6.44-5.4.4-4.87.86-9.77,1.3-14.76a55.2,55.2,0,0,0-6.38-.36,71.86,71.86,0,0,0-11.83,1.05,37.17,37.17,0,0,0-14.19,5.15c-10.33,6.61-11.3,18.25-9,26.32,0,.13.21.22.47.48l5.25-9.82,3.07,2.14c3.32-8.17,10.77-11.23,18.1-14.5-1.17,1.2-2.35,2.39-3.64,3.7l.41.55.42.57.95,1.29-4,1.89-4,1.89c.25.66.46,1.24.74,2,.06.15.11.3.17.47a5.74,5.74,0,0,0-3,1.17,21.38,21.38,0,0,0-3.31,3.74c-.18.21-.35.42-.54.62A56.32,56.32,0,0,1,170,54.87l-2.21,1.88-.78.68L156.3,46.5c3.94-2.56,6.41-7.64,2.23-12C155.21,31,151.65,27.71,148,24.14a60.11,60.11,0,0,0-4.65,8.59l0,0-.11.3-8.43-8.65-4.63-5-.12.11-.05-.05L119.34,29.91a19.72,19.72,0,0,0-.89-3.19c-.12-.31-.24-.62-.37-.93q-1.36-3.18-2.68-6.38c-.44-1.07-.88-2.13-1.31-3.2L112.77,13h-.26c-.08,0-.14,0-.17,0-3.9,4.38-8,8.64-11.63,13.2-.47.59-.91,1.18-1.33,1.79A35.05,35.05,0,0,1,103,38.66C104.16,33.69,105.81,29,109.24,24.85ZM40.46,139.24s4.62-6.59,9.09-14.15l3.56,3.65A58.42,58.42,0,0,1,40.46,139.24Zm170.33-15c5,8.9,11.08,17.62,11.08,17.62a58.14,58.14,0,0,1-15.21-13.59Zm-1-41.33,1.77-.73A50.09,50.09,0,0,0,206,97.47L196.75,88a19,19,0,0,0,2.56-.75c.31-.11.62-.24.93-.37q3.18-1.37,6.38-2.68ZM201.18,78l-.29.69c-.63-.39-1.28-.74-1.88-1.17h0c-.22-.16-.44-.3-.65-.43h0a2.11,2.11,0,0,0-1.08-.34.93.93,0,0,0-.23,0l-.11,0-.21.06-.19.09a1.29,1.29,0,0,0-.16.09,2.4,2.4,0,0,0-.38.29h0a.7.7,0,0,1-.44.12,3.43,3.43,0,0,1-1.26-.31l-1.46-.67c-1.23-.58-2.47-1.2-3.8-1.85l-.77-.38c0,.16,0,.3,0,.44,0,1,0,1.83.06,2.86a33.72,33.72,0,0,0-4.6-2.92l-4.25-4.36C187.23,71.72,195,72.82,201.18,78ZM152.94,191.7l.35-.46c.38.63.75,1.27,1.11,1.91ZM151.5,36a35.16,35.16,0,0,0,1.41,3.34,8.8,8.8,0,0,0,1.9,2.3,26,26,0,0,1-.35,3l-3.91-4,.21-.19a2.09,2.09,0,0,0,.23-.29l0,0a1.86,1.86,0,0,0,.2-.43s0,0,0-.06a1.87,1.87,0,0,0,.08-.57,2.32,2.32,0,0,0,0-.37,2.17,2.17,0,0,0,0-.25,11.15,11.15,0,0,0-.34-1.32h0c-.15-.51-.29-1-.42-1.54l0-.09c-.13-.52-.25-1-.35-1.56s-.22-1.23-.29-1.86C150.38,33.34,150.94,34.68,151.5,36Z"/><path d="M97.89,46.42c0,.35,0,.69-.06,1a17.12,17.12,0,0,0,1.39,2.08l-1.85,1.81a41.88,41.88,0,0,1-3.31,10.42A5.69,5.69,0,0,1,89.91,65a4.23,4.23,0,0,1-.34.4,6.14,6.14,0,0,1-3.06,2,32.26,32.26,0,0,1-6.79,1.16L78,70.23a11.48,11.48,0,0,0-1.15-1.61,29.48,29.48,0,0,1-10.16-2,8.74,8.74,0,0,0-1,.85c-1.16,1.09-2.28,2.22-3.41,3.37a33.37,33.37,0,0,0,7.55,2.61q.38-.17.75-.36a8.81,8.81,0,0,0,2.3-1.91H73c1,0,2.12.38,3.21.38l.41,0L74,74.11l-.08,0c1.19.11,2.4.19,3.62.19a38.25,38.25,0,0,0,10.5-1.46,11.5,11.5,0,0,0,5-2.9,11.39,11.39,0,0,0,6.16-5.8,47.25,47.25,0,0,0,3.9-12.69c.08-.52.15-1.07.22-1.61.12-1.09.2-2.18.24-3.25,0-.45,0-.9,0-1.36l-2.28,2.23c.56-3,1-5.93,1.71-8.83a35.05,35.05,0,0,0-3.65-10.6,21,21,0,0,0-3.18,6.87A30.94,30.94,0,0,1,97.91,45C97.91,45.49,97.91,46,97.89,46.42Z"/><path d="M70.63,65.33a6.69,6.69,0,0,0-3.92,1.32,29.48,29.48,0,0,0,10.16,2A8.43,8.43,0,0,0,70.63,65.33Z"/><path d="M89.57,65.37a4.23,4.23,0,0,0,.34-.4,5.69,5.69,0,0,0,4.15-3.2,41.88,41.88,0,0,0,3.31-10.42L79.72,68.56a32.26,32.26,0,0,0,6.79-1.16A6.14,6.14,0,0,0,89.57,65.37Z"/><path d="M96,42.13a16.15,16.15,0,0,0,1.88,5.33c0-.35,0-.69.06-1s0-.93,0-1.39a30.94,30.94,0,0,0-1.71-10.1A17.49,17.49,0,0,0,96,42.13Z"/><path d="M76.36,195.22c-2.59-1.16-5.17-2.26-7.69-3.33L66,190.77a44.52,44.52,0,0,0,2.73,3.77l-3.69.44-4.28-6a11.22,11.22,0,0,0-1.64-.14,10.63,10.63,0,0,0-1.16.07c1.34,2.17,2.73,4.32,4.19,6.41l4.25,1.82,3.94,1.68c.58-.21,1.16-.41,1.74-.59,1,1,2,1.87,3,2.68,1.25.57,2.49,1.15,3.73,1.75a32,32,0,0,1,7.29,4.86l.06,0S81.42,202.24,76.36,195.22Z"/><path d="M96.39,228.61A11.4,11.4,0,0,1,95,226.06c-.24-.21-.48-.42-.72-.65,0,.53,0,1.07,0,1.61a36.5,36.5,0,0,0,4.88,5.5c0-.06,0-.13,0-.19Q97.79,230.56,96.39,228.61Z"/><path d="M90.75,221A34.67,34.67,0,0,0,94.27,227c0-.54,0-1.08,0-1.61A22.47,22.47,0,0,1,90.75,221Z"/><path d="M75.1,200.9a41.14,41.14,0,0,0,11,6.61,32,32,0,0,0-7.29-4.86C77.59,202.05,76.35,201.47,75.1,200.9Z"/><path d="M62.19,195.31c.4.59.8,1.17,1.22,1.75,1.12,1.55,2.29,3.08,3.49,4.58a8.69,8.69,0,0,1,1.9-2l-.19-.16c.59-.25,1.18-.47,1.77-.68l-3.94-1.68Z"/><path d="M197.46,197.71l-4-.48c.73-.89,1.44-1.84,2.12-2.84l-.49.22c-2.13,1.1-4.28,2.19-6.36,3.23l-4.46,2.26c-1,1.34-2,2.59-2.87,3.72.18,1,.36,2.14.53,3.41a45.36,45.36,0,0,0,8.21-6.36c1,.3,2,.67,3.08,1.08,1.48-.75,3-1.5,4.48-2.28a5.83,5.83,0,0,1,1.9-.59c1.24-1.74,2.44-3.53,3.59-5.35a11.36,11.36,0,0,0-2.65-.37Z"/><path d="M193.24,202l.69.27-.19.16a8.44,8.44,0,0,1,1.89,2c1.21-1.5,2.37-3,3.5-4.58.17-.23.32-.47.49-.71a5.83,5.83,0,0,0-1.9.59C196.21,200.45,194.72,201.2,193.24,202Z"/><path d="M157.3,214.61a37.08,37.08,0,0,0,5.91-8.56,29.58,29.58,0,0,0,.77-3.77,5.68,5.68,0,0,1,3-4.27l6-5.82a11.42,11.42,0,0,0-3.37-.52l-.68,0a11.39,11.39,0,0,0-10.6,9.82c-.07.51-.16,1-.26,1.5A24.19,24.19,0,0,1,157.3,214.61Z"/><path d="M122.68,222.81a11.29,11.29,0,0,0,3.1-.54c.78-.22,1.57-.39,2.35-.62l4.43,4.43-1.68.87,1,.13c.9.09,1.83.14,2.77.14a31.21,31.21,0,0,0,13.48-3.13,14.19,14.19,0,0,0,3.8-8l-15.52,8,3.13-3.13a24.13,24.13,0,0,1-4.89.54,19.5,19.5,0,0,1-2.18-.12A37.9,37.9,0,0,1,118,216.66c.05.29.08.58.13.87C118.7,221.18,120.05,222.81,122.68,222.81Z"/><path d="M105.29,230.75a11.24,11.24,0,0,1-4.42-.9c-.23-.1-.62-.28-1.11-.53a28.91,28.91,0,0,1-.56,3l.73.89a28.87,28.87,0,0,0,15.19,7.14l.43,0A60,60,0,0,1,105.29,230.75Z"/><path d="M96.39,228.61q1.39,1.95,2.81,3.72a28.91,28.91,0,0,0,.56-3A23.36,23.36,0,0,1,95,226.06,11.4,11.4,0,0,0,96.39,228.61Z"/><path d="M176.55,210a36.23,36.23,0,0,0,5.4-2.74c-.17-1.27-.35-2.42-.53-3.41-2.31,2.92-4.15,5-4.9,5.89Z"/><path d="M137.38,228.32a14.62,14.62,0,0,0,10.7-4.23,31.21,31.21,0,0,1-13.48,3.13c-.94,0-1.87-.05-2.77-.14l-1-.13-.36.18A21.64,21.64,0,0,0,137.38,228.32Z"/><path d="M167,198a5.68,5.68,0,0,0-3,4.27,29.58,29.58,0,0,1-.77,3.77,15.2,15.2,0,0,0,1.42-5.71Z"/><path d="M105.29,230.75a60,60,0,0,0,10.26,9.64c1.1.1,2.2.08,3.3.13a14.31,14.31,0,0,0-3.31-3.26c-2.51-2.28-5-4.54-7.52-6.84a11.16,11.16,0,0,1-2.7.34Z"/><path d="M176.16,210.12l.39-.15,0-.26Z"/><path d="M89.06,202.55a31.88,31.88,0,0,1,4.39,4.5A27.62,27.62,0,0,1,98,196a5.57,5.57,0,0,1,1-1.18c.31-.62.62-1.23.95-1.85l5.14-5a11,11,0,0,0-2.34-.26,11.4,11.4,0,0,0-9,4.35,9.33,9.33,0,0,0-.72,1,41.22,41.22,0,0,0-2.44,4.33l.38.39A24.19,24.19,0,0,0,89.06,202.55Z"/><path d="M108.39,199.82a46.28,46.28,0,0,0-.11,11,11.11,11.11,0,0,1,3.79,1.73,39.78,39.78,0,0,1-.62-7.59l2.27,2.26a45,45,0,0,1,.28-6.45,8.54,8.54,0,0,0,.12-1.24,11.36,11.36,0,0,0-7.41-11.17,6.91,6.91,0,0,0-.73-.24,42,42,0,0,0-.87,5.76A5.69,5.69,0,0,1,108.39,199.82Z"/><path d="M95.21,217.3A15.83,15.83,0,0,1,94,214.38a17,17,0,0,1-.52-7.33,31.88,31.88,0,0,0-4.39-4.5,25.32,25.32,0,0,0-.87,4.49c-.08.81-.1,1.63-.1,2.44a24.34,24.34,0,0,1,5.4,9.93,22.83,22.83,0,0,1,.82,6c.24.23.48.44.72.65A11.55,11.55,0,0,1,95.21,217.3Z"/><path d="M94.31,225.41a22.83,22.83,0,0,0-.82-6,24.34,24.34,0,0,0-5.4-9.93A28.57,28.57,0,0,0,90.75,221,22.47,22.47,0,0,0,94.31,225.41Z"/><path d="M110.55,217.17a16.26,16.26,0,0,0,3.22,2.76c-.28-1.18-.42-1.84-.6-2.49-.45-1.65-.82-3.27-1.1-4.87a11.11,11.11,0,0,0-3.79-1.73,10.93,10.93,0,0,0,1.5,5A5.53,5.53,0,0,1,110.55,217.17Z"/><path d="M99.76,229.32c.49.25.88.43,1.11.53a11.24,11.24,0,0,0,4.42.9c-1.43-1.67-2.86-3.47-4.27-5.45a5.73,5.73,0,0,1-1-2.5l-.17-.13A28.45,28.45,0,0,1,99.76,229.32Z"/><path d="M99.87,222.67a16.83,16.83,0,0,1-4.66-5.37,11.55,11.55,0,0,0-.18,8.76,23.36,23.36,0,0,0,4.73,3.26A28.45,28.45,0,0,0,99.87,222.67Z"/><path d="M100.3,223l-.26-.19a5.73,5.73,0,0,0,1,2.5c1.41,2,2.84,3.78,4.27,5.45h0a11.16,11.16,0,0,0,2.7-.34c-2.2-2-4.39-4.06-6.53-6.15C101.08,223.87,100.69,223.44,100.3,223Z"/><path d="M106.33,208.57c.17.68.36,1.36.58,2a10.61,10.61,0,0,1,1.37.24,46.28,46.28,0,0,1,.11-11,5.69,5.69,0,0,0-3.28-5.92A45.71,45.71,0,0,0,106.33,208.57Z"/><path d="M95.52,209.18c.54-3.51,1-6.62,1.82-10.06A21.38,21.38,0,0,1,99,194.77,5.57,5.57,0,0,0,98,196a27.62,27.62,0,0,0-4.53,11.1,30.43,30.43,0,0,1,2,2.81C95.47,209.63,95.48,209.4,95.52,209.18Z"/><path d="M94,214.38a15.83,15.83,0,0,0,1.24,2.92,11.64,11.64,0,0,1,1-1.73,14.77,14.77,0,0,1-.71-5.71,30.43,30.43,0,0,0-2-2.81A17,17,0,0,0,94,214.38Z"/><path d="M99.85,222.43c0,.08,0,.16,0,.24l.17.13a.77.77,0,0,1,0-.15A1.84,1.84,0,0,1,99.85,222.43Z"/><path d="M110.55,217.17a5.53,5.53,0,0,0-.77-1.35,10.93,10.93,0,0,1-1.5-5,10.61,10.61,0,0,0-1.37-.24A17.72,17.72,0,0,0,110.55,217.17Z"/><path d="M95.21,217.3a16.83,16.83,0,0,0,4.66,5.37c0-.08,0-.16,0-.24a22.08,22.08,0,0,1-3.69-6.86A11.64,11.64,0,0,0,95.21,217.3Z"/><path d="M100,222.8l.26.19-.28-.34A.77.77,0,0,0,100,222.8Z"/><path d="M50.48,155.49l-.62,0a12.17,12.17,0,0,0-1.6.11,13.73,13.73,0,0,1,2.11.7Z"/><path d="M52.72,177.6c-.26.17-.51.32-.78.47.88,1.69,1.76,3.37,2.67,5,.49-.27,1-.56,1.41-.86C54.92,180.7,53.82,179.16,52.72,177.6Z"/><path d="M57.33,163.16a11.4,11.4,0,0,1,.78,4.9v0a8,8,0,0,1-.15,2.53q.93,3.64,2.37,7.76a14.87,14.87,0,0,0,3.45-10.86,13.18,13.18,0,0,0-8-10.85c.06,1.35.17,2.78.34,4.31A11.31,11.31,0,0,1,57.33,163.16Z"/><path d="M58.11,168.08v0a10.77,10.77,0,0,1-.3,2l.15.58A8,8,0,0,0,58.11,168.08Z"/><path d="M52.53,177.35c-.24.16-.47.32-.72.47,0,.09.09.17.13.25.27-.15.52-.3.78-.47Z"/><path d="M47.81,155.47c0,.07,0,.13,0,.19l.46-.08Z"/><path d="M57.33,163.16a11.31,11.31,0,0,0-1.2-2.19c.13,1.06.29,2.18.48,3.33a7.39,7.39,0,0,1,1.5,3.76A11.4,11.4,0,0,0,57.33,163.16Z"/><path d="M49.64,161.17c.24-1.64.49-3.27.73-4.89a13.73,13.73,0,0,0-2.11-.7l-.46.08c0,.9,0,1.8,0,2.69,0,1,.06,2.07.15,3.09l.1,0A5.6,5.6,0,0,1,49.64,161.17Z"/><path d="M56.61,164.3c.31,1.8.7,3.71,1.2,5.73a10.77,10.77,0,0,0,.3-2A7.39,7.39,0,0,0,56.61,164.3Z"/><path d="M49.29,162.14l.19.15c.05-.37.11-.74.16-1.12a5.6,5.6,0,0,0-1.64.3A7.51,7.51,0,0,1,49.29,162.14Z"/><path d="M50.47,175.28c.45.85.89,1.7,1.34,2.54.25-.15.48-.31.72-.47l-1.62-2.28Z"/><path d="M48,161.47l-.1,0v.06Z"/><path d="M48,161.47l-.1,0c.13,1.56.31,3.1.43,4.66l.6-.19c.18-1.23.36-2.46.55-3.68l-.19-.15A7.51,7.51,0,0,0,48,161.47Z"/><path d="M204.23,170.67h0a11.44,11.44,0,0,1,.78-4.91,11.27,11.27,0,0,1,1.19-2.19c.18-1.52.29-3,.34-4.31a13.17,13.17,0,0,0-8,10.85A14.81,14.81,0,0,0,202,181c1-2.74,1.74-5.32,2.37-7.76A8,8,0,0,1,204.23,170.67Z"/><path d="M209.83,180.33,206.52,185c.4.26.8.51,1.23.74l.19.1c.91-1.66,1.79-3.34,2.67-5l-.09,0C210.28,180.61,210.05,180.47,209.83,180.33Z"/><path d="M214.08,158.18a10.67,10.67,0,0,0-1.6-.12l-.63,0,.12.78A14.08,14.08,0,0,1,214.08,158.18Z"/><path d="M210,180.08l-.17.25c.22.14.45.28.69.41l.09,0,.13-.24C210.49,180.39,210.24,180.24,210,180.08Z"/><path d="M204.23,170.67a8,8,0,0,0,.15,2.53c.05-.19.09-.38.14-.58a11.73,11.73,0,0,1-.29-2Z"/><path d="M214.53,158.25v-.18l-.45.11Z"/><path d="M212,158.87c.24,1.62.48,3.25.73,4.9a5.59,5.59,0,0,1,1.63.3l.11,0c.08-1,.15-2,.15-3.09,0-.89,0-1.79-.06-2.69l-.45-.07A14.08,14.08,0,0,0,212,158.87Z"/><path d="M205,165.75a11.44,11.44,0,0,0-.78,4.91,7.41,7.41,0,0,1,1.49-3.77q.3-1.72.48-3.33A11.27,11.27,0,0,0,205,165.75Z"/><path d="M204.52,172.62q.75-3,1.2-5.73a7.41,7.41,0,0,0-1.49,3.77A11.73,11.73,0,0,0,204.52,172.62Z"/><path d="M212.07,178l-.44-.21L210,180.08c.24.16.49.31.74.46C211.18,179.69,211.62,178.85,212.07,178Z"/><path d="M213.05,164.73a7.35,7.35,0,0,1,1.28-.66,5.59,5.59,0,0,0-1.63-.3l.16,1.11Z"/><path d="M214.44,164.1V164l-.11,0Z"/><path d="M212.86,164.88c.18,1.23.37,2.46.55,3.69l.59.19c.13-1.56.31-3.1.44-4.66l-.11,0a7.35,7.35,0,0,0-1.28.66Z"/><path d="M96.88,238.18a11.45,11.45,0,0,1-2.46,2.55,11.42,11.42,0,0,1-1.37,1.58,40,40,0,0,0,20.73,9.35,35.3,35.3,0,0,0,3.68.21l.94,0h.46a11.32,11.32,0,0,0,4.13-.79,50.91,50.91,0,0,1-9.59-5.25A34.75,34.75,0,0,1,96.88,238.18Z"/><path d="M42.11,155.29a53.92,53.92,0,0,1,.64-6.53c.07-.46.16-.93.25-1.4a47.64,47.64,0,0,1-10.71,3.13,5.15,5.15,0,0,1-.95.08,5.68,5.68,0,0,1-4.29-9.43,121,121,0,0,0,8.86-11.85,5.69,5.69,0,0,1,.34-6.85l.07-.08a5.65,5.65,0,0,1-2-4.75l-2.37-2.43a5.69,5.69,0,0,1,.1-8L46.16,93.37c-2.06-7.47-7.79-15.88-17.44-25.6a5.7,5.7,0,0,1,4-9.71,5.93,5.93,0,0,1,.84.06c1,.15,9.61,1.76,19,14l.23.3,1.66-1.74,2.76-2.86a32.42,32.42,0,0,1-6-5.79C43,54.19,36,52.73,34.45,52.49a12.11,12.11,0,0,0-1.69-.12,11.38,11.38,0,0,0-8.08,19.4c7.48,7.54,12.48,14.26,14.91,20L28.07,103.06a11.39,11.39,0,0,0-.2,16.1l.93,1a11.07,11.07,0,0,0,.9,2.75,11.36,11.36,0,0,0-.19,5.73c-2.78,4-5.48,7.34-6.75,8.8a11.39,11.39,0,0,0,8.58,18.87,12.41,12.41,0,0,0,1.91-.16c1.06-.18,2.12-.4,3.16-.64,0,.55,0,1.12,0,1.69a16.37,16.37,0,0,1,2.37-1.09A17.58,17.58,0,0,1,42.11,155.29Z"/><path d="M186.24,187.23,178,195.3a12,12,0,0,1,1.41,1.9C181.7,194.12,184.12,190.67,186.24,187.23Z"/><path d="M213.47,187.56c-.75,1.39-1.52,2.78-2.34,4.15-1,1.72-2,3.31-2.93,4.81a11.32,11.32,0,0,1,3.11,5.23c0,.1.06.2.08.3,1.48-2.24,3-4.67,4.64-7.43,1.53-2.59,2.89-5.17,4.2-7.67a16.72,16.72,0,0,1-4.92.73A15.94,15.94,0,0,1,213.47,187.56Z"/><path d="M239.58,140c-.05-.05-3.27-3.78-6.75-8.79a11.47,11.47,0,0,0-.19-5.73,11.36,11.36,0,0,0,.16-9.39,11.37,11.37,0,0,0-3-10.44l-8.13-8.34c1.81-6.45,7.07-14,15.94-22.93A11.39,11.39,0,0,0,229.58,55a10.78,10.78,0,0,0-1.69.13c-1.55.23-8.43,1.65-16.53,9.31q-2-1.79-4.18-3.53l.09-.1c.74-.85,1.45-1.75,2.12-2.68.39-.54.75-1.09,1.1-1.64A31.37,31.37,0,0,0,213.6,50a29.21,29.21,0,0,0,1.54-7.4c.13-1.76.27-3.52.42-5.29.24-2.87.5-5.76.76-8.67q.27-3,.54-6.05A11.39,11.39,0,0,0,206.8,10.28a69.14,69.14,0,0,0-7.66-.42,83,83,0,0,0-13.7,1.2A48.12,48.12,0,0,0,167,17.85a34.32,34.32,0,0,0-5,3.91c-.89-.87-1.78-1.72-2.67-2.57-1.09-1.05-2.2-2.11-3.32-3.2A11.42,11.42,0,0,0,148,12.76a10.14,10.14,0,0,0-1.34.08,11.21,11.21,0,0,0-5.23,2l-2.95-3.16a11.38,11.38,0,0,0-8.08-3.62h-.24a11.54,11.54,0,0,0-4.21.8A11.14,11.14,0,0,0,123.82,10l-.53-1.29a11.39,11.39,0,0,0-10.06-7h-.76a11.48,11.48,0,0,0-8.62,3.83c-1.14,1.29-2.27,2.54-3.4,3.78-2.77,3.06-5.63,6.23-8.37,9.6A33.11,33.11,0,0,1,96,23l.24-.31c2.71-3.35,5.59-6.54,8.39-9.62q1.71-1.89,3.41-3.79a5.83,5.83,0,0,1,4.43-2h.26A5.7,5.7,0,0,1,118,10.84l2.63,6.4c.34.81.67,1.62,1,2.44L126,15.45a5.85,5.85,0,0,1,2-1.25,5.68,5.68,0,0,1,2.2-.44h.11a5.71,5.71,0,0,1,4.05,1.81l4.59,4.92,2.86,2.93c.43-.74.91-1.51,1.41-2.31a5.68,5.68,0,0,1,4.15-2.62,5,5,0,0,1,.67,0,5.67,5.67,0,0,1,4,1.62q1.68,1.65,3.35,3.22c2.4,2.31,4.67,4.49,6.91,6.82a27.23,27.23,0,0,1,7.82-7.47,42.65,42.65,0,0,1,16.33-6,77,77,0,0,1,12.76-1.13,62.45,62.45,0,0,1,7,.39,5.69,5.69,0,0,1,5,6.15c-.18,2-.35,4-.53,6-.27,2.93-.53,5.84-.77,8.75-.15,1.78-.3,3.56-.43,5.35a23.21,23.21,0,0,1-1.24,5.94,25.37,25.37,0,0,1-2.54,5.28c-.29.46-.6.92-.92,1.37-.57.79-1.17,1.54-1.78,2.25a28.37,28.37,0,0,1-4.08,3.82l-1,.69a32.06,32.06,0,0,1,5.38,3.53c2.89,2.34,5.66,4.81,8.35,7.24,8.62-10.06,16.16-11.46,17-11.59a6.22,6.22,0,0,1,.85-.07,5.7,5.7,0,0,1,4,9.71c-11,11-16.9,20.47-18.09,28.74l10.24,10.51a5.69,5.69,0,0,1,.7,7.07,5.67,5.67,0,0,1,.75,6.86A5.91,5.91,0,0,1,226,125l.07.08a5.71,5.71,0,0,1,.34,6.85,122.52,122.52,0,0,0,8.86,11.85,5.69,5.69,0,0,1-4.29,9.43,6.22,6.22,0,0,1-1-.08,47.58,47.58,0,0,1-10.7-3.14c.09.48.17,1,.25,1.41a53.59,53.59,0,0,1,.63,6.53,16.79,16.79,0,0,1,3.37.77,17,17,0,0,1,2.38,1.09c0-.57,0-1.14,0-1.68,1,.24,2.09.45,3.16.63A11.39,11.39,0,0,0,240.93,153,11.4,11.4,0,0,0,239.58,140Z"/><path d="M73.22,154a5.36,5.36,0,0,1-1,.09,5.75,5.75,0,0,1-2.43-.55c-.16,1.9-.25,3.71-.28,5.49l4.35-4.25Z"/><path d="M52.53,190.86,51.4,189c-.79-1.34-1.54-2.69-2.27-4a14.62,14.62,0,0,1-2.1.16,16.76,16.76,0,0,1-4.6-.64c1.27,2.43,2.59,4.93,4.08,7.44.71,1.19,1.39,2.32,2.06,3.41A11.28,11.28,0,0,1,52.53,190.86Z"/><path d="M191.94,150.53l-2.78,2.72-3.29,4.34,6.94,7.12A87.15,87.15,0,0,0,191.94,150.53Z"/><path d="M76.49,55a17.62,17.62,0,0,0-15,1.54,20.68,20.68,0,0,0,5.15,3.85,11.78,11.78,0,0,1,4-.71,13.26,13.26,0,0,1,7.55,2.49l3-2.94-5.57-3C75.93,55.77,76.21,55.36,76.49,55Z"/><path d="M87.53,30.58c-.43-.56-.88-1.09-1.36-1.61A29.21,29.21,0,0,0,84.72,44a28.12,28.12,0,0,0,.7,3.08l-4,3.93a51,51,0,0,1,3.91,4.14L92,48.61v0a22,22,0,0,1-1.69-5.52,23.24,23.24,0,0,1,0-7.67,22.25,22.25,0,0,0-2.13-3.93C88,31.17,87.75,30.87,87.53,30.58Z"/><path d="M57.27,67.84c1.33-1.37,2.67-2.72,4.06-4.05A26,26,0,0,1,57,60.05Q55,62,53.12,63.94q-1-1-1.89-1.89A32.42,32.42,0,0,0,57.27,67.84Z"/><path d="M88.78,23.55a27.66,27.66,0,0,1,3.27,3.58c.24.31.47.63.7,1A30.66,30.66,0,0,1,96,23a33.11,33.11,0,0,0-4-4.16l-.23.27A38.12,38.12,0,0,0,88.78,23.55Z"/><path d="M81.39,51l-4.24,4.14L76.49,55c-.28.41-.56.82-.87,1.25l5.57,3,4.11-4A51,51,0,0,0,81.39,51Z"/><path d="M66.63,60.34a20.68,20.68,0,0,1-5.15-3.85,20.14,20.14,0,0,0-3.65,2.76c-.28.26-.55.53-.82.8a26,26,0,0,0,4.32,3.74l.42-.42A13.66,13.66,0,0,1,66.63,60.34Z"/><path d="M92,48.61v0Z"/><path d="M87.53,30.58c.22.29.43.59.64.89A22.25,22.25,0,0,1,90.3,35.4a24.25,24.25,0,0,1,2.45-7.31c-.23-.33-.46-.65-.7-1a27.66,27.66,0,0,0-3.27-3.58A31.8,31.8,0,0,0,86.17,29C86.65,29.49,87.1,30,87.53,30.58Z"/><path d="M58.76,200.38c.05,1.22.1,2.44.16,3.66s.11,2.45.16,3.68l.09,2.25A11.38,11.38,0,0,0,66.9,213h.39a11.34,11.34,0,0,0,2.47-.37l-.17-.13h0c-.22-.15-.46-.29-.71-.43h0c-.68-.39-1.31-.86-2-1.3l.54-.58a24.76,24.76,0,0,1,3.56,2l.15-.05A54.44,54.44,0,0,0,77.32,216c.16.88.36,1.76.58,2.64,3.44,4.06,6.33,8.71,9.66,13a20.35,20.35,0,0,0,.8-3.06,37,37,0,0,1-5.84-16.41,49.44,49.44,0,0,1-10.42-6.4l-.91-.4a5.72,5.72,0,0,1-4.09,2h-.2a5.69,5.69,0,0,1-4.44-2.13c-1.28-1.6-2.51-3.22-3.66-4.81l0,0Z"/><path d="M83.91,231.55a17.92,17.92,0,0,0-2.06-2.93,45.57,45.57,0,0,0,2.9,4.66A18.46,18.46,0,0,0,83.91,231.55Z"/><path d="M53.07,200.62a5.69,5.69,0,0,1,1.66-4.26,5.88,5.88,0,0,1,.83-.68c-1-1.5-2-3.09-3-4.82a11.28,11.28,0,0,0-4,4.44c1.59,2.56,3.09,4.84,4.57,7C53.11,201.53,53.08,200.92,53.07,200.62Z"/><path d="M94.42,240.73a11.45,11.45,0,0,0,2.46-2.55,42.46,42.46,0,0,1-4.24-4,5.67,5.67,0,0,1-2.41,2.53,5.87,5.87,0,0,1-1.31,1.71,46.12,46.12,0,0,0,4.13,3.92A11.42,11.42,0,0,0,94.42,240.73Z"/><path d="M71.35,205.19c0,.07-.11.12-.16.19l.91.4C71.85,205.58,71.6,205.4,71.35,205.19Z"/><path d="M87.56,231.65c-3.33-4.32-6.22-9-9.66-13a43.9,43.9,0,0,0,3.95,10,17.92,17.92,0,0,1,2.06,2.93,18.46,18.46,0,0,1,.84,1.73c.61.86,1.24,1.71,1.91,2.53s1.48,1.75,2.26,2.58a5.87,5.87,0,0,0,1.31-1.71,5.67,5.67,0,0,0,2.41-2.53,42.59,42.59,0,0,1-4.28-5.56A20.35,20.35,0,0,1,87.56,231.65Z"/><path d="M67.45,210.21l-.54.58c.66.44,1.29.91,2,1.3h0c.25.14.49.28.71.43h0l.17.13a10.7,10.7,0,0,0,1.25-.4A24.76,24.76,0,0,0,67.45,210.21Z"/><path d="M58,208.75A11.06,11.06,0,0,0,59.17,210l-.09-2.25c0-1.23-.11-2.45-.16-3.68s-.11-2.44-.16-3.66h0c-1.06-1.47-2.13-3-3.22-4.69a5.88,5.88,0,0,0-.83.68,5.69,5.69,0,0,0-1.66,4.26c0,.3,0,.91.07,1.64l1,1.47C55.39,205.4,56.68,207.08,58,208.75Z"/><path d="M182.32,219.89a54,54,0,0,0,8.81-5.06,11.36,11.36,0,0,0,2.82.79l.16-.19-.09.2c.4.06.81.1,1.22.12h.4a11.33,11.33,0,0,0,6.76-2.24c-.41-2.17-.92-4.37-1.51-6.63-.27.35-.53.7-.81,1.05a5.69,5.69,0,0,1-4.44,2.13h-.2a5.66,5.66,0,0,1-3.27-1.19c-3.3,1.67-6.53,3.34-9.7,5.06A57.49,57.49,0,0,1,182.32,219.89Z"/><path d="M208.2,196.52c-1.12,1.75-2.19,3.37-3.25,4.9a5.67,5.67,0,0,1,.87,1.82c.48,1.76.89,3.39,1.26,4.94.43-.57.86-1.15,1.27-1.72,1-1.39,2-2.85,3-4.41,0-.1,0-.2-.08-.3A11.32,11.32,0,0,0,208.2,196.52Z"/><path d="M194,215.62H194l.09-.2Z"/><path d="M200.89,206.88c.59,2.26,1.1,4.46,1.51,6.63a11.3,11.3,0,0,0,2.12-2c.88-1.09,1.73-2.2,2.56-3.3-.37-1.55-.78-3.18-1.26-4.94a5.67,5.67,0,0,0-.87-1.82l-1.21,1.71C202.85,204.36,201.88,205.62,200.89,206.88Z"/><path d="M192.17,208.87a5.55,5.55,0,0,1-1.13-1.14,50.48,50.48,0,0,1-8.58,5.75c0,.15,0,.3,0,.45C185.64,212.21,188.87,210.54,192.17,208.87Z"/><path d="M168.64,207.81a34.78,34.78,0,0,1-1.18,3.53,22.68,22.68,0,0,1,3.11-3.25c-.25-1.73-.52-3.13-.71-4A21.7,21.7,0,0,1,168.64,207.81Z"/><path d="M130.12,238.84a31.77,31.77,0,0,0,7.26.86c10.45,0,19.23-5.58,23.43-14.25a11.62,11.62,0,0,0,2.21-1,22.88,22.88,0,0,1,.14-2.62,22,22,0,0,1,.9-4.07,34.14,34.14,0,0,1-12.65,11,20.39,20.39,0,0,1-14,5.23,27.3,27.3,0,0,1-8.68-1.48l-.54-.23a49.47,49.47,0,0,1-14.61-5.07,3.83,3.83,0,0,1-.29.28l4.21,3.81,1.89,1.72c.21.19.43.36.65.54a15.1,15.1,0,0,1,3.69,3.95,5.65,5.65,0,0,1,.68,1.68,37.19,37.19,0,0,0,5.8,2.41A11.76,11.76,0,0,0,130.12,238.84Z"/><path d="M171,212.55a5.74,5.74,0,0,1-.37-3.84c0-.21-.06-.41-.08-.62a22.68,22.68,0,0,0-3.11,3.25,32.49,32.49,0,0,1-3.4,6.4,22,22,0,0,0-.9,4.07,22.88,22.88,0,0,0-.14,2.62A11,11,0,0,0,166,222c.92-1.07,1.84-2.18,2.72-3.32.27.24.56.46.86.68a15.09,15.09,0,0,1,1.58-3.32C171.12,214.85,171.09,213.67,171,212.55Z"/><path d="M169.53,219.38a10.6,10.6,0,0,0,1.34.81,38.72,38.72,0,0,0,.24-4.13A15.09,15.09,0,0,0,169.53,219.38Z"/><path d="M175.31,202.35c1.25-1.52,2.63-3.26,4.06-5.15a12,12,0,0,0-1.41-1.9l-4.09,4a5.74,5.74,0,0,1,1.26,2.33C175.17,201.77,175.23,202,175.31,202.35Z"/><path d="M128.21,247a40.85,40.85,0,0,1-5.52-2.25,5.68,5.68,0,0,1-3.83,1.5h-.23c-.36,0-.72,0-1.08,0-.93,0-2,0-3.1-.17l-1-.15a50.91,50.91,0,0,0,9.59,5.25A11.39,11.39,0,0,0,128.21,247Z"/><path d="M179.9,220.88c.27-.1,1.13-.41,2.42-1a57.49,57.49,0,0,0,.15-6c-.74.41-1.5.81-2.23,1.22a12.75,12.75,0,0,0-3.47,2.79c-.05,1.17-.16,2.36-.32,3.56A11.46,11.46,0,0,0,179.9,220.88Z"/><path d="M176.83,215.76c0,.72,0,1.45-.06,2.18a12.75,12.75,0,0,1,3.47-2.79c.73-.41,1.49-.81,2.23-1.22,0-.15,0-.3,0-.45a34.85,34.85,0,0,1-4.43,2A5.73,5.73,0,0,1,176.83,215.76Z"/><path d="M168.64,207.81a41.35,41.35,0,0,1-7,10.51,5.67,5.67,0,0,1-4.32,2,4.89,4.89,0,0,1-.54,0,19.38,19.38,0,0,1-5.35,8.5,34.14,34.14,0,0,0,12.65-11,21.09,21.09,0,0,1,3.4-6.4A34.78,34.78,0,0,0,168.64,207.81Z"/><path d="M125,228.3a14.14,14.14,0,0,1-2.27.2,9.41,9.41,0,0,1-7.26-3.12,4,4,0,0,1-.5.11c-.17.27-.35.52-.53.77s-.55.67-.84,1a49.47,49.47,0,0,0,14.61,5.07A5.69,5.69,0,0,1,125,228.3Z"/><path d="M130.18,241.62a37.19,37.19,0,0,1-5.8-2.41,5.68,5.68,0,0,1-.61,4.18,6,6,0,0,1-1.08,1.32,40.85,40.85,0,0,0,5.52,2.25c.16-.23.33-.45.48-.7A11.3,11.3,0,0,0,130.18,241.62Z"/><path d="M169.86,204.08c.19.88.46,2.28.71,4l.45-.38a5.61,5.61,0,0,1,.9-1.39c.91-1,2.08-2.37,3.39-4-.08-.33-.14-.58-.18-.73a5.74,5.74,0,0,0-1.26-2.33l-3.8,3.7C170,203.36,169.94,203.72,169.86,204.08Z"/><path d="M176.45,221.5c.16-1.2.27-2.39.32-3.56a9.87,9.87,0,0,0-1.93,3.48,9.76,9.76,0,0,0,1.32.09Z"/><path d="M171.42,213.28a5.8,5.8,0,0,1-.4-.73c.07,1.12.1,2.3.09,3.51a15.79,15.79,0,0,1,1.25-1.7A5.74,5.74,0,0,1,171.42,213.28Z"/><path d="M170.65,208.71a5.5,5.5,0,0,1,.37-1l-.45.38C170.59,208.3,170.62,208.5,170.65,208.71Z"/><path d="M164.06,217.74a32.49,32.49,0,0,0,3.4-6.4A21.09,21.09,0,0,0,164.06,217.74Z"/><path d="M176.83,215.76a5.05,5.05,0,0,1-.67.06,5.7,5.7,0,0,1-3.8-1.46,15.79,15.79,0,0,0-1.25,1.7,38.72,38.72,0,0,1-.24,4.13,11.33,11.33,0,0,0,4,1.23,9.87,9.87,0,0,1,1.93-3.48C176.81,217.21,176.83,216.48,176.83,215.76Z"/><path d="M101.12,211.46l.08,0c0-.14-.08-.29-.12-.42C101.08,211.14,101.11,211.3,101.12,211.46Z"/><path d="M103,217a3.49,3.49,0,0,1,.39-.19,26.89,26.89,0,0,1-2.18-5.38l-.08,0A13.26,13.26,0,0,0,103,217Z"/><path d="M103,217a15.93,15.93,0,0,0,1.22,1.77c.24.15.46.28.64.37a20.46,20.46,0,0,1-1.47-2.33A3.49,3.49,0,0,0,103,217Z"/><path d="M113.26,227.51a3.83,3.83,0,0,0,.29-.28c-.51-.26-1-.53-1.45-.8Z"/><path d="M114.92,225.49a5.41,5.41,0,0,1-4.29-.81c-.53-.35-1-.72-1.5-1.09l0,0,3,2.79c.46.27.94.54,1.45.8.29-.3.57-.63.84-1S114.75,225.76,114.92,225.49Z"/><path d="M105.47,220.19l1.1,1.08a22.08,22.08,0,0,1-1.72-2.14c-.18-.09-.4-.22-.64-.37A12.38,12.38,0,0,0,105.47,220.19Z"/><path d="M109.08,223.64l0,0c-.23-.17-.46-.35-.67-.53Z"/><path d="M49.13,184.93c-.67-1.24-1.32-2.48-2-3.69-.21-.41-.43-.81-.64-1.21a18.87,18.87,0,0,1-4.64.6,14.5,14.5,0,0,1-1.51-.08l0,.12c.58,1.06,1.14,2.13,1.7,3.21l.3.57a16.76,16.76,0,0,0,4.6.64A14.62,14.62,0,0,0,49.13,184.93Z"/><path d="M42.46,166.83a4.34,4.34,0,0,0-2.2,1.72.32.32,0,0,0,.14.33,2.49,2.49,0,0,0,1.49.36,7.93,7.93,0,0,0,1.54-.18,5.73,5.73,0,0,1-.75-2.29Z"/><path d="M36.57,162.72a20.08,20.08,0,0,1,5.24-4.44l.25-.11c0-1,0-2,0-2.88a17.58,17.58,0,0,0-3.37.78,16.37,16.37,0,0,0-2.37,1.09c0,.39,0,.78,0,1.19C36.36,159.9,36.46,161.35,36.57,162.72Z"/><path d="M39.09,175.08a11.27,11.27,0,0,0,1.29,5.47,14.5,14.5,0,0,0,1.51.08,18.87,18.87,0,0,0,4.64-.6c-.11-.23-.23-.45-.35-.67C43.33,179.13,40.35,177.78,39.09,175.08Z"/><path d="M42.15,161.06c0-.88-.1-1.78-.1-2.71a1.09,1.09,0,0,1,0-.18l-.25.11a20.08,20.08,0,0,0-5.24,4.44c0,.41.07.8.11,1.19a11.82,11.82,0,0,1,3.92-2.46A10.65,10.65,0,0,1,42.15,161.06Z"/><path d="M46.18,179.36c-.24-.46-.48-.93-.73-1.38a5.78,5.78,0,0,1-.63-3.41,13,13,0,0,1-2.93.36,9,9,0,0,1-2.77-.41,5.4,5.4,0,0,0,0,.56C40.35,177.78,43.33,179.13,46.18,179.36Z"/><path d="M45.16,170.89l-.33-.25a2.67,2.67,0,0,0-.65,1.89,1.52,1.52,0,0,0,1,.81,5.6,5.6,0,0,1,1.12-1.88A6,6,0,0,1,45.16,170.89Z"/><path d="M37,167.09a11.32,11.32,0,0,0,1.5,4.77c.17-2.78,2-5.31,4-7.06,0-.15,0-.29,0-.44-.11-1.07-.22-2.17-.3-3.3a10.65,10.65,0,0,0-1.55.39,11.82,11.82,0,0,0-3.92,2.46c0,.35.07.7.1,1C36.86,165.65,36.93,166.37,37,167.09Z"/><path d="M45.13,173.34a1.52,1.52,0,0,1-1-.81,2.67,2.67,0,0,1,.65-1.89,5.69,5.69,0,0,1-1.4-1.58,7.93,7.93,0,0,1-1.54.18,2.49,2.49,0,0,1-1.49-.36.32.32,0,0,1-.14-.33,4.34,4.34,0,0,1,2.2-1.72l.22-.06c0-.05,0-.1,0-.15,0-.61-.11-1.21-.17-1.82-2,1.75-3.83,4.28-4,7.06a10,10,0,0,0,.81,1.23,9.81,9.81,0,0,0-.18,1.43,9,9,0,0,0,2.77.41,13,13,0,0,0,2.93-.36,7.13,7.13,0,0,1,.22-1Z"/><path d="M222.1,183.4a2.53,2.53,0,0,0,.14-.29,16.87,16.87,0,0,1-1.79.11,18.86,18.86,0,0,1-4.4-.54c-.23.43-.46.86-.68,1.29-.62,1.18-1.25,2.38-1.9,3.59a15.94,15.94,0,0,0,1.84.12,16.72,16.72,0,0,0,4.92-.73l.18-.34C221,185.53,221.53,184.46,222.1,183.4Z"/><path d="M221.94,171.47a.33.33,0,0,0,.14-.33,4.38,4.38,0,0,0-2.21-1.72l-.21-.06a5.69,5.69,0,0,1-.76,2.29,7.24,7.24,0,0,0,1.55.18A2.51,2.51,0,0,0,221.94,171.47Z"/><path d="M220.22,157.89c0,.91.06,1.86.06,2.86l.24.13a20,20,0,0,1,5.24,4.43c.12-1.37.22-2.82.22-4.37,0-.4,0-.8,0-1.19a17,17,0,0,0-2.38-1.09A16.79,16.79,0,0,0,220.22,157.89Z"/><path d="M220.18,163.65a9.94,9.94,0,0,1,5.47,2.86c0-.39.08-.79.11-1.2a20,20,0,0,0-5.24-4.43l-.24-.13v.19C220.28,161.87,220.24,162.77,220.18,163.65Z"/><path d="M216.45,181.92l-.4.76a18.86,18.86,0,0,0,4.4.54,16.87,16.87,0,0,0,1.79-.11,11.49,11.49,0,0,0,1.19-5.83C222.31,180.15,219.34,181.62,216.45,181.92Z"/><path d="M220.45,177.53h0a13,13,0,0,1-2.75-.32,5.69,5.69,0,0,1-.61,3.5c-.22.4-.43.81-.64,1.21,2.89-.3,5.86-1.77,7-4.64l0-.24A8.9,8.9,0,0,1,220.45,177.53Z"/><path d="M216.14,174a6,6,0,0,1,1.2,1.84,1.34,1.34,0,0,0,.81-.75,2.65,2.65,0,0,0-.64-1.89l-.34.25A5.1,5.1,0,0,1,216.14,174Z"/><path d="M220.18,163.65c-.07,1.13-.18,2.23-.29,3.31,0,.14,0,.29,0,.43,2,1.75,3.83,4.28,4,7.06a11.32,11.32,0,0,0,1.5-4.77c.06-.72.13-1.43.2-2.15,0-.33.07-.68.1-1a9.94,9.94,0,0,0-5.47-2.86Z"/><path d="M219.66,169.36l.21.06a4.38,4.38,0,0,1,2.21,1.72.33.33,0,0,1-.14.33,2.51,2.51,0,0,1-1.49.36,7.24,7.24,0,0,1-1.55-.18,5.65,5.65,0,0,1-1.39,1.58,2.65,2.65,0,0,1,.64,1.89,1.34,1.34,0,0,1-.81.75c0,.13.11.26.15.4a5.83,5.83,0,0,1,.21.94,13,13,0,0,0,2.75.32h0a8.9,8.9,0,0,0,3-.49,11.65,11.65,0,0,0-.22-1.54c.24-.34.46-.69.67-1.05-.17-2.78-2-5.31-4-7.06-.06.61-.12,1.22-.17,1.83A.68.68,0,0,0,219.66,169.36Z"/><path d="M158.08,203c0-.17-.05-.35-.09-.52l-4.78,4.79a15.53,15.53,0,0,1-4.52,5.15c-.74.57-1.49,1.11-2.26,1.62L139.49,221C147.09,219.39,155.9,214.05,158.08,203Z"/><path d="M106.28,186.77l-1.18,1.15c.29.06.58.13.88.22C106.08,187.68,106.16,187.22,106.28,186.77Z"/><path d="M40.46,139.24a58.42,58.42,0,0,0,12.65-10.5l-3.56-3.65C45.08,132.65,40.46,139.24,40.46,139.24Z"/><path d="M116,215.49c.57.37,1.22.76,1.94,1.17-.3-2-.53-4-.76-5.94l-3.48-3.48a17.88,17.88,0,0,0,.72,5.32A11.57,11.57,0,0,1,116,215.49Z"/><path d="M54.22,189.94a11.58,11.58,0,0,1,3.78-1c-.57-.94-1.14-1.88-1.7-2.82s-1.14-2-1.69-3l0,0A16,16,0,0,1,50,184.81c-.29.05-.6.08-.89.12.73,1.36,1.48,2.71,2.27,4l1.13,1.88a10.57,10.57,0,0,1,1.31-.75Z"/><path d="M88.73,202.26a32.92,32.92,0,0,1,1.92-4.9L66.52,172.6l1.37-1.33-1.37-1.4,15.1-14.72-7.33-8.79-2.06,2-6.64-6.81c-1.86,11.45-2.34,19.17-1.08,29.89.83,7.07,6.51,16.38,11.85,23.78q2.49,1.11,5,2.32A37.59,37.59,0,0,1,88.73,202.26ZM69.8,153.51a5.75,5.75,0,0,0,2.43.55,5.36,5.36,0,0,0,1-.09l.65.78L69.52,159C69.55,157.22,69.64,155.41,69.8,153.51Z"/><path d="M178,195.3l8.28-8.07c-2.12,3.44-4.54,6.89-6.87,10a11.3,11.3,0,0,1,1.27,3c.07.27.2.83.38,1.61l3.27-1.69c5.76-7.67,12.62-18.24,13.54-26.07,1.44-12.3.59-20.66-2-35.23l-11,10.67-6.5,8.59,13.07,13.41-1.36,1.33,1.37,1.4-18.47,18A11.45,11.45,0,0,1,178,195.3Zm7.91-37.71,3.29-4.34,2.78-2.72a87.15,87.15,0,0,1,.87,14.18Z"/><path d="M199.31,87.24a19,19,0,0,1-2.56.75L206,97.47a50.09,50.09,0,0,1,5.6-15.32l-1.77.73-3.2,1.31q-3.19,1.32-6.38,2.68C199.93,87,199.62,87.13,199.31,87.24Z"/><path d="M221.87,141.83s-6.12-8.72-11.08-17.62l-4.13,4A58.14,58.14,0,0,0,221.87,141.83Z"/><path d="M44.46,155.14a16.41,16.41,0,0,1,3.35.33,48.42,48.42,0,0,1,.56-5.79c.21-1.3.48-2.62.8-4a17,17,0,0,0,3.2-.4l-.11.19q2.45-.87,4.66-1.77c.4-3.46.59-7.42.68-10.4l-2-2a39.77,39.77,0,0,1-3.34,3.4c2,5-5.73,7.26-5.73,7.26,2.59-2.64.61-3.32.61-3.32l0,0a41.53,41.53,0,0,1-15.88,6.21s8.89-10.2,14.08-20.67l-4.8,1.89a20.22,20.22,0,0,1,5.52-4.51l-4.21-4.31L40,118s.55-.49,1.44-1.25L36,111.21l16.36-16C51.08,87,45.9,77,32.76,63.75c0,0,7.06,1.06,15.34,11.85A44.72,44.72,0,0,1,55.7,92l9.17-8.94c-.3-.12-.6-.23-.89-.36h0A60.11,60.11,0,0,1,55.35,78c2.39-2.45,4.65-4.85,6.92-7.17a32.16,32.16,0,0,1-5-3L54.51,70.7l-1.66,1.74-.23-.3c-9.41-12.26-18.06-13.87-19-14a5.93,5.93,0,0,0-.84-.06,5.7,5.7,0,0,0-4,9.71c9.65,9.72,15.38,18.13,17.44,25.6L32,107.14a5.69,5.69,0,0,0-.1,8l2.37,2.43a5.65,5.65,0,0,0,2,4.75l-.07.08a5.69,5.69,0,0,0-.34,6.85,121,121,0,0,1-8.86,11.85,5.68,5.68,0,0,0,4.29,9.43,5.15,5.15,0,0,0,.95-.08A47.64,47.64,0,0,0,43,147.36c-.09.47-.18.94-.25,1.4a53.92,53.92,0,0,0-.64,6.53,19.7,19.7,0,0,1,2.35-.15Z"/><path d="M207.94,185.81c-.56,1-1.12,2-1.7,3-1,1.65-2,3.3-3,4.92a12.61,12.61,0,0,1,1.7.58,11.39,11.39,0,0,1,3.29,2.21c.94-1.5,1.91-3.09,2.93-4.81.82-1.37,1.59-2.76,2.34-4.15-.39,0-.78-.09-1.15-.16A15.79,15.79,0,0,1,207.94,185.81Z"/><path d="M63.2,76.2c.64-.07,1.25-.18,1.87-.29l1.55-.35.1,0c.52-.13,1-.27,1.54-.43h0a11.67,11.67,0,0,1,1.32-.34l.26,0,.31,0h0a2.8,2.8,0,0,1,.58.08l.06,0a2.07,2.07,0,0,1,.43.2l0,0a1.54,1.54,0,0,1,.29.23,3.12,3.12,0,0,1,.51.64c.19-.26.37-.53.55-.77a2.45,2.45,0,0,1,1.29-1,35,35,0,0,1-4.14-.66c-.85.39-1.74.7-2.6,1Z"/><path d="M108.78,37.69l-2.86.06h-.44l.38-.78c.65-1.32,1.26-2.57,1.84-3.79.23-.49.46-1,.68-1.46s.44-1.41.19-1.7h0a4.28,4.28,0,0,1-.29-.38l-.09-.16c0-.07-.06-.13-.08-.19a1.72,1.72,0,0,1-.07-.21s0-.08,0-.11a2,2,0,0,1,.33-1.31h0a6.07,6.07,0,0,1,.43-.65h0c.43-.6.78-1.26,1.17-1.89l-.7-.28c-3.43,4.1-5.08,8.84-6.21,13.81a38.06,38.06,0,0,1,.58,6.35c0,.08,0,.17,0,.25l1.56-1.52A30.85,30.85,0,0,1,108.78,37.69Z"/><path d="M211.42,158.11h0a2.88,2.88,0,0,1,.41,0c-.3-2.05-.6-4.08-.89-6l-5.08-2.62a1.43,1.43,0,0,0,0,.22,42,42,0,0,1,.62,9.6q.69-.3,1.41-.54A14.26,14.26,0,0,1,211.42,158.11Z"/><path d="M200.56,193.36l6-8.39a19,19,0,0,1-4.51-4c-.63,1.78-1.31,3.6-2.1,5.51a42.71,42.71,0,0,1-4.31,7.92,11.46,11.46,0,0,1,4.73-1Z"/><path d="M188.34,77.57c0-1,0-1.83-.06-2.86,0-.14,0-.28,0-.44l.77.38c1.33.65,2.57,1.27,3.8,1.85l1.46.67a3.43,3.43,0,0,0,1.26.31.7.7,0,0,0,.44-.12h0a2.4,2.4,0,0,1,.38-.29,1.29,1.29,0,0,1,.16-.09l.19-.09.21-.06.11,0a.93.93,0,0,1,.23,0,2.11,2.11,0,0,1,1.08.34h0c.21.13.43.27.65.43h0c.6.43,1.25.78,1.88,1.17l.29-.69c-6.23-5.22-14-6.32-21.69-7.75l4.25,4.36A33.72,33.72,0,0,1,188.34,77.57Z"/><path d="M99.93,233.22c-.27-.23-.52-.46-.78-.7a28.53,28.53,0,0,1-.86,2.92,11.64,11.64,0,0,1-1.41,2.74,34.75,34.75,0,0,0,16.52,7.68A66.74,66.74,0,0,1,99.93,233.22Z"/><path d="M150.47,35.42l0,.09c.13.52.27,1,.42,1.54h0a11.15,11.15,0,0,1,.34,1.32,2.17,2.17,0,0,1,0,.25,2.32,2.32,0,0,1,0,.37,1.87,1.87,0,0,1-.08.57s0,0,0,.06a1.86,1.86,0,0,1-.2.43l0,0a2.09,2.09,0,0,1-.23.29l-.21.19,3.91,4a26,26,0,0,0,.35-3,8.8,8.8,0,0,1-1.9-2.3A35.16,35.16,0,0,1,151.5,36c-.56-1.34-1.12-2.68-1.67-4,.07.63.17,1.25.29,1.86S150.34,34.9,150.47,35.42Z"/><path d="M152.94,191.7l1.46,1.45c-.36-.64-.73-1.28-1.11-1.91Z"/><path d="M56,182.24,60.8,189a11.45,11.45,0,0,1,2.94.81c.76.34,1.53.66,2.3,1a43,43,0,0,1-3.61-6.9c-.79-1.9-1.48-3.73-2.1-5.5A19.4,19.4,0,0,1,56,182.24Z"/><path d="M50.92,155.51a13.93,13.93,0,0,1,3.46.61,14.72,14.72,0,0,1,1.41.54,42.43,42.43,0,0,1,.63-9.6c0-.07,0-.15,0-.22l-5.08,2.62c-.29,2-.59,4-.9,6l.42,0Z"/><path d="M97.56,25c.66,1,1.26,2,1.82,3,.42-.61.86-1.2,1.33-1.79,3.68-4.56,7.73-8.82,11.63-13.2,0,0,.09,0,.17,0h.26l1.32,3.19c.43,1.07.87,2.13,1.31,3.2q1.32,3.19,2.68,6.38c.13.31.25.62.37.93a19.72,19.72,0,0,1,.89,3.19L130,19.52l.05.05.12-.11,4.63,5,8.43,8.65.11-.3,0,0A60.11,60.11,0,0,1,148,24.14c3.66,3.57,7.22,6.84,10.54,10.33,4.18,4.39,1.71,9.47-2.23,12L167,57.43l.78-.68L170,54.87a56.32,56.32,0,0,0,5.29-4.95c.19-.2.36-.41.54-.62a21.38,21.38,0,0,1,3.31-3.74,5.74,5.74,0,0,1,3-1.17c-.06-.17-.11-.32-.17-.47-.28-.73-.49-1.31-.74-2l4-1.89,4-1.89-.95-1.29-.42-.57-.41-.55c1.29-1.31,2.47-2.5,3.64-3.7-7.33,3.27-14.78,6.33-18.1,14.5l-3.07-2.14-5.25,9.82c-.26-.26-.44-.35-.47-.48-2.29-8.07-1.32-19.71,9-26.32a37.17,37.17,0,0,1,14.19-5.15,71.86,71.86,0,0,1,11.83-1.05,55.2,55.2,0,0,1,6.38.36c-.44,5-.9,9.89-1.3,14.76-.16,1.8-.3,3.6-.44,5.4a17.06,17.06,0,0,1-.94,4.51,19.8,19.8,0,0,1-2,4.1c-.24.37-.49.74-.75,1.1-.45.64-.93,1.24-1.42,1.81a22.67,22.67,0,0,1-3.25,3c-.29.22-.59.44-.89.64A23.94,23.94,0,0,1,181,61h-.13c-.34,0-.68,0-1,0-.78,0-1.56-.08-2.35-.17l-1.19-.16a35.51,35.51,0,0,1-8.66-2.56l9.32,9.56a16.15,16.15,0,0,1,7-2.92,18.7,18.7,0,0,1,3-.26c4.79,0,9,2,12.82,5,4.4,3.55,8.52,7.44,12.74,11.2.55-.85,1.12-1.69,1.75-2.51,8.27-10.79,15.34-11.84,15.34-11.84-15,15.1-19.62,26-20,34.86l12.06,12.37L218.14,117c2.37,1.93,4.21,3.56,4.21,3.56l-5.68-2.13-2.31,2.26c.14.37.27.74.4,1.1.25.69.52,1.38.82,2.07,3.23,1.31,6.14,4.79,6.14,4.79l-4.81-1.89c5.2,10.48,14.09,20.67,14.09,20.67a41.3,41.3,0,0,1-15.88-6.21l0,0s-2,.68.61,3.33c0,0-7.77-2.23-5.72-7.27a33.36,33.36,0,0,1-5.36-6s0,8.41.75,15q2.21.9,4.65,1.77a1.62,1.62,0,0,0-.1-.18,16.87,16.87,0,0,0,3.19.39c.33,1.33.6,2.65.81,4a48.39,48.39,0,0,1,.56,5.8,16.3,16.3,0,0,1,3.34-.34,17.9,17.9,0,0,1,2.35.16,53.59,53.59,0,0,0-.63-6.53c-.08-.46-.16-.93-.25-1.41a47.58,47.58,0,0,0,10.7,3.14,6.22,6.22,0,0,0,1,.08,5.69,5.69,0,0,0,4.29-9.43,122.52,122.52,0,0,1-8.86-11.85,5.71,5.71,0,0,0-.34-6.85L226,125a5.91,5.91,0,0,0,1.2-1.42,5.67,5.67,0,0,0-.75-6.86,5.69,5.69,0,0,0-.7-7.07L215.53,99.1c1.19-8.27,7.13-17.71,18.09-28.74a5.7,5.7,0,0,0-4-9.71,6.22,6.22,0,0,0-.85.07c-.89.13-8.43,1.53-17,11.59-2.69-2.43-5.46-4.9-8.35-7.24A32.06,32.06,0,0,0,198,61.54l1-.69A28.37,28.37,0,0,0,203,57c.61-.71,1.21-1.46,1.78-2.25.32-.45.63-.91.92-1.37a25.37,25.37,0,0,0,2.54-5.28,23.21,23.21,0,0,0,1.24-5.94c.13-1.79.28-3.57.43-5.35.24-2.91.5-5.82.77-8.75.18-2,.35-4,.53-6a5.69,5.69,0,0,0-5-6.15,62.45,62.45,0,0,0-7-.39,77,77,0,0,0-12.76,1.13,42.65,42.65,0,0,0-16.33,6,27.23,27.23,0,0,0-7.82,7.47c-2.24-2.33-4.51-4.51-6.91-6.82q-1.66-1.58-3.35-3.22a5.67,5.67,0,0,0-4-1.62,5,5,0,0,0-.67,0,5.68,5.68,0,0,0-4.15,2.62c-.5.8-1,1.57-1.41,2.31l-2.86-2.93-4.59-4.92a5.71,5.71,0,0,0-4.05-1.81h-.11a5.68,5.68,0,0,0-2.2.44,5.85,5.85,0,0,0-2,1.25l-4.33,4.23c-.34-.82-.67-1.63-1-2.44L118,10.84a5.7,5.7,0,0,0-5.26-3.51h-.26a5.83,5.83,0,0,0-4.43,2q-1.69,1.91-3.41,3.79c-2.8,3.08-5.68,6.27-8.39,9.62L96,23c.18.22.36.43.53.66C96.91,24.1,97.24,24.56,97.56,25Z"/><path d="M70.63,59.63a11.78,11.78,0,0,0-4,.71,23.47,23.47,0,0,0,11,2.6,27.21,27.21,0,0,0,7.39-1c.13,0,.22-.22.47-.47l-4.25-2.27-3,2.94A13.26,13.26,0,0,0,70.63,59.63Z"/><path d="M86.08,56.08c.62.74,1.24,1.48,1.87,2.21l1,1.08a35.36,35.36,0,0,0,3-9.62c.06-.38.11-.76.16-1.14L85.3,55.17Z"/><path d="M90.33,43.07A22,22,0,0,0,92,48.59v0c.09-.79.15-1.58.18-2.35,0-.39,0-.78,0-1.16A25.22,25.22,0,0,0,90.3,35.4,23.24,23.24,0,0,0,90.33,43.07Z"/><path d="M92.86,28.24a27.91,27.91,0,0,1,3.34,6.69,21,21,0,0,1,3.18-6.87c-.56-1-1.16-2.06-1.82-3-.32-.46-.65-.92-1-1.35-.17-.23-.35-.44-.53-.66a30.66,30.66,0,0,0-3.29,5.08Z"/><path d="M97.83,47.46c0,.59-.08,1.17-.15,1.76s-.12.93-.19,1.4l-.12.73,1.85-1.81A17.12,17.12,0,0,1,97.83,47.46Z"/><path d="M74,74.11l2.6-2.54-.41,0c-1.09,0-2.18-.38-3.21-.38h-.15a8.81,8.81,0,0,1-2.3,1.91q-.37.19-.75.36a35,35,0,0,0,4.14.66Z"/><path d="M103,38.66c-.67,2.9-1.15,5.87-1.71,8.83l2.28-2.23c0-.08,0-.17,0-.25A38.06,38.06,0,0,0,103,38.66Z"/><path d="M65.68,67.5a8.74,8.74,0,0,1,1-.85,26.65,26.65,0,0,1-5.38-2.86c-1.39,1.33-2.73,2.68-4.06,4.05a32.16,32.16,0,0,0,5,3C63.4,69.72,64.52,68.59,65.68,67.5Z"/><path d="M79.72,68.56c-.71,0-1.42.08-2.14.08h0l-.71,0A11.48,11.48,0,0,1,78,70.23Z"/><path d="M70.63,65.33a8.43,8.43,0,0,1,6.24,3.29l.71,0h0c.72,0,1.43,0,2.14-.08L97.37,51.35l.12-.73c.07-.47.14-.94.19-1.4s.11-1.17.15-1.76A16.15,16.15,0,0,1,96,42.13a17.49,17.49,0,0,1,.25-7.2,27.91,27.91,0,0,0-3.34-6.69l-.11-.15A24.25,24.25,0,0,0,90.3,35.4a25.22,25.22,0,0,1,1.92,9.66c0,.38,0,.77,0,1.16,0,.77-.09,1.56-.18,2.35v0h0c0,.38-.1.76-.16,1.14a35.36,35.36,0,0,1-3,9.62l-1-1.08c-.63-.73-1.25-1.47-1.87-2.21l-.78-.91-4.11,4,4.25,2.27c-.25.25-.34.43-.47.47a27.21,27.21,0,0,1-7.39,1,23.47,23.47,0,0,1-11-2.6,13.66,13.66,0,0,0-4.88,3l-.42.42a26.65,26.65,0,0,0,5.38,2.86A6.69,6.69,0,0,1,70.63,65.33Z"/><path d="M88.36,228.59a17.12,17.12,0,0,0-.36-7.67c-1.72-6.3-6.09-10.41-11.68-13.16-1.4-.68-2.8-1.34-4.22-2a49.44,49.44,0,0,0,10.42,6.4A37,37,0,0,0,88.36,228.59Z"/><path d="M62.46,205.2a5.69,5.69,0,0,0,4.44,2.13h.2a5.72,5.72,0,0,0,4.09-2c-4-1.77-8-3.42-12-5.15h0a.79.79,0,0,0-.23.08.52.52,0,0,1-.15.07l0,0C60,202,61.18,203.6,62.46,205.2Z"/><path d="M59.16,194.53a5.76,5.76,0,0,1,2.31.48l.72.3c-1.46-2.09-2.85-4.24-4.19-6.41a11.58,11.58,0,0,0-3.78,1l-.38.17a10.57,10.57,0,0,0-1.31.75c1,1.73,2,3.32,3,4.82a5.74,5.74,0,0,1,1-.55A5.88,5.88,0,0,1,59.16,194.53Z"/><path d="M70.38,198.81c1.57.67,3.15,1.37,4.72,2.09-1-.81-2-1.69-3-2.68C71.54,198.4,71,198.6,70.38,198.81Z"/><path d="M81.34,197.54q-2.49-1.22-5-2.32c5.06,7,9.82,12.31,9.82,12.31l-.06,0c.52.47,1,1,1.49,1.45a25.89,25.89,0,0,1,1.12-6.7A37.59,37.59,0,0,0,81.34,197.54Z"/><path d="M99.15,232.52a36.5,36.5,0,0,1-4.88-5.5,24.27,24.27,0,0,1-1.34,6.52,5.71,5.71,0,0,1-.29.61,42.46,42.46,0,0,0,4.24,4,11.64,11.64,0,0,0,1.41-2.74A28.53,28.53,0,0,0,99.15,232.52Z"/><path d="M60.8,189l4.28,6,3.69-.44A44.52,44.52,0,0,1,66,190.77c-.77-.33-1.54-.65-2.3-1A11.45,11.45,0,0,0,60.8,189Z"/><path d="M94.27,227A34.67,34.67,0,0,1,90.75,221,21.47,21.47,0,0,1,88.53,216a21.92,21.92,0,0,1-.92-7.08c-.47-.5-1-1-1.49-1.45a41.14,41.14,0,0,1-11-6.61c-1.57-.72-3.15-1.42-4.72-2.09-.59.21-1.18.43-1.77.68l.19.16a8.69,8.69,0,0,0-1.9,2c-1.2-1.5-2.37-3-3.49-4.58-.42-.58-.82-1.16-1.22-1.75l-.72-.3a5.76,5.76,0,0,0-2.31-.48,5.88,5.88,0,0,0-2.6.6,5.74,5.74,0,0,0-1,.55c1.09,1.67,2.16,3.22,3.22,4.69a.52.52,0,0,0,.15-.07.79.79,0,0,1,.23-.08h0c4,1.73,8,3.38,12,5.15,0-.07.11-.12.16-.19.25.21.5.39.75.59,1.42.64,2.82,1.3,4.22,2,5.59,2.75,10,6.86,11.68,13.16a17.12,17.12,0,0,1,.36,7.67,42.59,42.59,0,0,0,4.28,5.56,5.71,5.71,0,0,0,.29-.61A24.27,24.27,0,0,0,94.27,227Z"/><path d="M195.64,210.06a5.69,5.69,0,0,0,4.44-2.13c.28-.35.54-.7.81-1.05-.18-.71-.37-1.42-.56-2.15-2.77,1.43-5.48,2.79-8.16,4.14a5.66,5.66,0,0,0,3.27,1.19Z"/><path d="M204.91,194.31a12.61,12.61,0,0,0-1.7-.58c-1.15,1.82-2.35,3.61-3.59,5.35.23,0,.47,0,.71,0a5.7,5.7,0,0,1,2.29.48,5.77,5.77,0,0,1,2.33,1.9c1.06-1.53,2.13-3.15,3.25-4.9A11.39,11.39,0,0,0,204.91,194.31Z"/><path d="M182,207.23l.06.48c3-1.61,6.1-3.17,9.29-4.78l1.94-1c-1.05-.41-2.07-.78-3.08-1.08A45.36,45.36,0,0,1,182,207.23Z"/><path d="M181.42,203.82c.9-1.13,1.87-2.38,2.87-3.72L181,201.79C181.14,202.36,181.28,203,181.42,203.82Z"/><path d="M197.46,197.71l3.1-4.35h-.23a11.46,11.46,0,0,0-4.73,1c-.68,1-1.39,2-2.12,2.84Z"/><path d="M202.62,199.52a5.7,5.7,0,0,0-2.29-.48c-.24,0-.48,0-.71,0-.17.24-.32.48-.49.71-1.13,1.55-2.29,3.08-3.5,4.58a8.44,8.44,0,0,0-1.89-2l.19-.16-.69-.27-1.94,1c-3.19,1.61-6.26,3.17-9.29,4.78.21,1.73.38,3.68.45,5.77a50.48,50.48,0,0,0,8.58-5.75,5.55,5.55,0,0,0,1.13,1.14c2.68-1.35,5.39-2.71,8.16-4.14.19.73.38,1.44.56,2.15,1-1.26,2-2.52,2.85-3.75l1.21-1.71A5.77,5.77,0,0,0,202.62,199.52Z"/><path d="M169.62,203.06a38.36,38.36,0,0,1-1,4.75,21.7,21.7,0,0,0,1.22-3.73C169.71,203.42,169.62,203.06,169.62,203.06Z"/><path d="M120,233.58c-.22-.18-.44-.35-.65-.54l-1.89-1.72-4.21-3.81a11.46,11.46,0,0,1-1.9,1.51,48.29,48.29,0,0,0,13,10.19,5.65,5.65,0,0,0-.68-1.68A15.1,15.1,0,0,0,120,233.58Z"/><path d="M131.23,232.74c-1-.11-2.07-.26-3.07-.44l.54.23a27.3,27.3,0,0,0,8.68,1.48,20.39,20.39,0,0,0,14-5.23,37.23,37.23,0,0,1-16.81,4.13C133.46,232.91,132.33,232.85,131.23,232.74Z"/><path d="M171,212.55c-.09-1.38-.22-2.67-.37-3.84A5.74,5.74,0,0,0,171,212.55Z"/><path d="M175.78,204.61c1.74-1,3.48-1.9,5.24-2.82-.18-.78-.31-1.34-.38-1.61a11.3,11.3,0,0,0-1.27-3c-1.43,1.89-2.81,3.63-4.06,5.15C175.43,202.89,175.6,203.66,175.78,204.61Z"/><path d="M115.12,240.36a28.87,28.87,0,0,1-15.19-7.14,66.74,66.74,0,0,0,13.47,12.64l1,.15c1.12.13,2.17.15,3.1.17.36,0,.72,0,1.08,0h.23a5.68,5.68,0,0,0,3.83-1.5,46.69,46.69,0,0,1-7.14-4.32Z"/><path d="M116.33,222.25a43.73,43.73,0,0,0,14.55,4.7l1.68-.87-4.43-4.43c-.78.23-1.57.4-2.35.62a11.29,11.29,0,0,1-3.1.54c-2.63,0-4-1.63-4.59-5.28,0-.29-.08-.58-.13-.87-.72-.41-1.37-.8-1.94-1.17A11.39,11.39,0,0,1,116.33,222.25Z"/><path d="M169.28,197.37h.34a5.7,5.7,0,0,1,4.25,1.93l4.09-4a11.45,11.45,0,0,0-5-3.11L167,198A5.78,5.78,0,0,1,169.28,197.37Z"/><path d="M151.88,216.12a14.19,14.19,0,0,1-3.8,8,28,28,0,0,0,15.13-18,37.08,37.08,0,0,1-5.91,8.56,24.19,24.19,0,0,0,.78-11.6c-2.18,11-11,16.38-18.59,18l-3.13,3.13Z"/><path d="M176.55,210c0,.24,0,.48.07.72.27-.17.54-.34.82-.49,1.52-.86,3-1.68,4.57-2.49l-.06-.48A36.23,36.23,0,0,1,176.55,210Z"/><path d="M175.78,204.61c.26,1.36.54,3.11.74,5.1.75-.85,2.59-3,4.9-5.89-.14-.78-.28-1.46-.4-2C179.26,202.71,177.52,203.65,175.78,204.61Z"/><path d="M176.62,210.69c.14,1.57.22,3.29.21,5.07a5.73,5.73,0,0,0,1.2-.26,34.85,34.85,0,0,0,4.43-2c-.07-2.09-.24-4-.45-5.77-1.53.81-3,1.63-4.57,2.49C177.16,210.35,176.89,210.52,176.62,210.69Z"/><path d="M156.76,220.28a4.89,4.89,0,0,0,.54,0,5.67,5.67,0,0,0,4.32-2,41.35,41.35,0,0,0,7-10.51,38.36,38.36,0,0,0,1-4.75s.09.36.24,1c.08-.36.15-.72.21-1.09l3.8-3.7a5.7,5.7,0,0,0-4.25-1.93h-.34A5.78,5.78,0,0,0,167,198l-2.39,2.33a15.2,15.2,0,0,1-1.42,5.71,28,28,0,0,1-15.13,18,14.62,14.62,0,0,1-10.7,4.23,21.64,21.64,0,0,1-6.86-1.19l.36-.18a43.73,43.73,0,0,1-14.55-4.7,11.08,11.08,0,0,1-1.41,3.24,4,4,0,0,0,.5-.11,9.41,9.41,0,0,0,7.26,3.12,14.14,14.14,0,0,0,2.27-.2,5.69,5.69,0,0,0,3.21,4c1,.18,2,.33,3.07.44s2.23.17,3.37.17a37.23,37.23,0,0,0,16.81-4.13A19.38,19.38,0,0,0,156.76,220.28Z"/><path d="M123.77,243.39a5.68,5.68,0,0,0,.61-4.18,48.29,48.29,0,0,1-13-10.19,11.39,11.39,0,0,1-3.34,1.4c2.5,2.3,5,4.56,7.52,6.84a14.31,14.31,0,0,1,3.31,3.26c-1.1-.05-2.2,0-3.3-.13a46.69,46.69,0,0,0,7.14,4.32A6,6,0,0,0,123.77,243.39Z"/><path d="M171.92,206.32a5.61,5.61,0,0,0-.9,1.39,25.6,25.6,0,0,1,3.62-2.47l1.14-.63c-.18-1-.35-1.72-.47-2.26C174,204,172.83,205.31,171.92,206.32Z"/><path d="M176.52,209.71c-.2-2-.48-3.74-.74-5.1l-1.14.63a25.6,25.6,0,0,0-3.62,2.47,5.5,5.5,0,0,0-.37,1c.15,1.17.28,2.46.37,3.84a5.28,5.28,0,0,0,1.34,1.81,17.92,17.92,0,0,1,4.26-3.67c0-.24-.05-.48-.07-.72l-.39.15Z"/><path d="M172.36,214.36a5.7,5.7,0,0,0,3.8,1.46,5.05,5.05,0,0,0,.67-.06c0-1.78-.07-3.5-.21-5.07A17.92,17.92,0,0,0,172.36,214.36Z"/><path d="M101.08,211c0,.13.08.28.12.42a11.65,11.65,0,0,1,1.36-.49,56.35,56.35,0,0,1,.19-11.87c-3.81,5.84-4.27,10.2-3.41,13.36a11,11,0,0,1,1.78-1C101.11,211.3,101.08,211.14,101.08,211Z"/><path d="M101.2,211.42a26.89,26.89,0,0,0,2.18,5.38,3.38,3.38,0,0,1,.44-.18,23.33,23.33,0,0,1-1.26-5.69A11.65,11.65,0,0,0,101.2,211.42Z"/><path d="M101.12,211.46a11,11,0,0,0-1.78,1,10.45,10.45,0,0,0,3,4.94A5.51,5.51,0,0,1,103,217,13.26,13.26,0,0,1,101.12,211.46Z"/><path d="M102.38,217.36a12.1,12.1,0,0,0,1.83,1.4A15.93,15.93,0,0,1,103,217,5.51,5.51,0,0,0,102.38,217.36Z"/><path d="M104.85,219.13c.29.16.47.24.47.24a10.48,10.48,0,0,1-1.5-2.75,3.38,3.38,0,0,0-.44.18A20.46,20.46,0,0,0,104.85,219.13Z"/><path d="M112.07,212.57a12.07,12.07,0,0,1,1.15.91,28.88,28.88,0,0,0,2.8,2,11.57,11.57,0,0,0-1.58-2.93,17.88,17.88,0,0,1-.72-5.32L111.45,205A39.78,39.78,0,0,0,112.07,212.57Z"/><path d="M89.06,202.55a24.19,24.19,0,0,1,2-4.8l-.38-.39a32.92,32.92,0,0,0-1.92,4.9Z"/><path d="M99,194.77a5.72,5.72,0,0,1,5.72-1.05c.13.05.25.13.38.18a42,42,0,0,1,.87-5.76c-.3-.09-.59-.16-.88-.22l-5.14,5C99.63,193.54,99.32,194.15,99,194.77Z"/><path d="M88.19,207a25.32,25.32,0,0,1,.87-4.49l-.33-.29a25.89,25.89,0,0,0-1.12,6.7l.48.52C88.09,208.67,88.11,207.85,88.19,207Z"/><path d="M88.09,209.48l-.48-.52a21.92,21.92,0,0,0,.92,7.08A21.47,21.47,0,0,0,90.75,221,28.57,28.57,0,0,1,88.09,209.48Z"/><path d="M112.1,226.43c-1.45-.83-2.68-1.62-3.66-2.3a5.77,5.77,0,0,1-.85.45c1.25,1.6,2.5,3.08,3.77,4.44a11.46,11.46,0,0,0,1.9-1.51Z"/><path d="M113.77,219.93a16.26,16.26,0,0,1-3.22-2.76,5.73,5.73,0,0,1,.43,1.77,46.07,46.07,0,0,0,5.35,3.31,11.39,11.39,0,0,0-.31-6.76,28.88,28.88,0,0,1-2.8-2,12.07,12.07,0,0,0-1.15-.91c.28,1.6.65,3.22,1.1,4.87C113.35,218.09,113.49,218.75,113.77,219.93Z"/><path d="M105.32,225.06a5.76,5.76,0,0,1-2.22-.45,16.27,16.27,0,0,1-2.8-1.62c.39.45.78.88,1.19,1.28,2.14,2.09,4.33,4.13,6.53,6.15a11.39,11.39,0,0,0,3.34-1.4c-1.27-1.36-2.52-2.84-3.77-4.44A5.74,5.74,0,0,1,105.32,225.06Z"/><path d="M109.85,222.81a5.37,5.37,0,0,1-.72.78c.47.37,1,.74,1.5,1.09a5.41,5.41,0,0,0,4.29.81,11.08,11.08,0,0,0,1.41-3.24,46.07,46.07,0,0,1-5.35-3.31A5.66,5.66,0,0,1,109.85,222.81Z"/><path d="M108.44,224.13c1,.68,2.21,1.47,3.66,2.3l-3-2.79A6.35,6.35,0,0,1,108.44,224.13Z"/><path d="M95.52,209.18c0,.22,0,.45-.07.68a31.14,31.14,0,0,1,2.11,4c.16-.16.32-.33.5-.49a12.94,12.94,0,0,1,1.28-1c-.86-3.16-.4-7.52,3.41-13.36h0a56.35,56.35,0,0,0-.19,11.87,11.35,11.35,0,0,1,3.06-.42,11.18,11.18,0,0,1,1.29.09c-.22-.67-.41-1.35-.58-2a45.71,45.71,0,0,1-1.22-14.67c-.13-.05-.25-.13-.38-.18A5.72,5.72,0,0,0,99,194.77a21.38,21.38,0,0,0-1.67,4.35C96.49,202.56,96.06,205.67,95.52,209.18Zm7.23,1.27Z"/><path d="M97.56,213.87a31.14,31.14,0,0,0-2.11-4,14.77,14.77,0,0,0,.71,5.71A10.72,10.72,0,0,1,97.56,213.87Z"/><path d="M107.59,224.58a5.77,5.77,0,0,0,.85-.45,30.26,30.26,0,0,1-2.78-2.14C106.3,222.89,106.94,223.75,107.59,224.58Z"/><path d="M99.34,212.42a12.94,12.94,0,0,0-1.28,1c-.18.16-.34.33-.5.49a30.29,30.29,0,0,1,1.42,4,28.59,28.59,0,0,1,.87,4.52,1.84,1.84,0,0,0,.17.22,5.68,5.68,0,0,1,1.84-4.9,6.41,6.41,0,0,1,.52-.39A10.45,10.45,0,0,1,99.34,212.42Z"/><path d="M106.91,210.6a11.18,11.18,0,0,0-1.29-.09,11.35,11.35,0,0,0-3.06.42,23.33,23.33,0,0,0,1.26,5.69,5.61,5.61,0,0,1,5.63,1.13s.56.48,1.53,1.19a5.73,5.73,0,0,0-.43-1.77A17.72,17.72,0,0,1,106.91,210.6Z"/><path d="M97.56,213.87a10.72,10.72,0,0,0-1.4,1.7,22.08,22.08,0,0,0,3.69,6.86,28.59,28.59,0,0,0-.87-4.52A30.29,30.29,0,0,0,97.56,213.87Z"/><path d="M108.46,223.06c.21.18.44.36.67.53a5.37,5.37,0,0,0,.72-.78,5.66,5.66,0,0,0,1.13-3.87c-1-.71-1.51-1.17-1.53-1.19a5.61,5.61,0,0,0-5.63-1.13,10.48,10.48,0,0,0,1.5,2.75s-.18-.08-.47-.24a22.08,22.08,0,0,0,1.72,2.14l-1.1-1.08a12.38,12.38,0,0,1-1.26-1.43,12.1,12.1,0,0,1-1.83-1.4,6.41,6.41,0,0,0-.52.39,5.68,5.68,0,0,0-1.84,4.9l.28.34a16.27,16.27,0,0,0,2.8,1.62,5.65,5.65,0,0,0,4.49,0c-.65-.83-1.29-1.69-1.93-2.59a30.26,30.26,0,0,0,2.78,2.14,6.35,6.35,0,0,0,.64-.49Z"/><path d="M54.59,183.12l0,0c-.91-1.66-1.79-3.34-2.67-5l-.11.07a10.49,10.49,0,0,1-2.67,1,19.76,19.76,0,0,1-2.63.87c.21.4.43.8.64,1.21.64,1.21,1.29,2.45,2,3.69.29,0,.6-.07.89-.12A16,16,0,0,0,54.59,183.12Z"/><path d="M52.48,157.43a9.19,9.19,0,0,1,1,.75A11.21,11.21,0,0,1,56.13,161c-.17-1.53-.28-3-.34-4.31a14.72,14.72,0,0,0-1.41-.54,13.93,13.93,0,0,0-3.46-.61h0l-.42,0-.11.79A12.66,12.66,0,0,1,52.48,157.43Z"/><path d="M52.72,177.6c1.1,1.56,2.2,3.1,3.3,4.64a19.4,19.4,0,0,0,4.31-3.87q-1.44-4.11-2.37-7.76A11.41,11.41,0,0,1,52.72,177.6Z"/><path d="M58,170.61l-.15-.58a11.37,11.37,0,0,1-2.68,5.05,14.59,14.59,0,0,1-1.89,1.78c-.23.17-.47.33-.71.49l.19.25A11.41,11.41,0,0,0,58,170.61Z"/><path d="M49.16,179.16a10.49,10.49,0,0,0,2.67-1l.11-.07c0-.08-.09-.16-.13-.25A18.27,18.27,0,0,1,49.16,179.16Z"/><path d="M46.75,167.37c-.17,0-.33,0-.51,0l-.18,0c-.66.09-1.33.22-2,.34l-.62.11a7.86,7.86,0,0,1,2.64-1,3.19,3.19,0,0,0-1.63-.32,6.59,6.59,0,0,0-1.78.24,5.73,5.73,0,0,0,.75,2.29,7.52,7.52,0,0,0,2.88-1.24A4.65,4.65,0,0,0,46.75,167.37Z"/><path d="M47.8,155.66c0-.06,0-.12,0-.19a16.41,16.41,0,0,0-3.35-.33h0a19.7,19.7,0,0,0-2.35.15c0,.92,0,1.88,0,2.88a9.4,9.4,0,0,1,1.19-.59A11.39,11.39,0,0,1,47.8,155.66Z"/><path d="M49.77,172.34a12.33,12.33,0,0,1-2.25,1.32c.11,0,.22,0,.33,0a4.47,4.47,0,0,0,1.21-.47c2.5-1.39,3.74-3.48,3.3-4.89a5.69,5.69,0,0,1-1.46,3A8.17,8.17,0,0,1,49.77,172.34Z"/><path d="M48.93,179.22a9.87,9.87,0,0,1-1.9.18c-.28,0-.57,0-.85,0,.12.22.24.44.35.67a19.76,19.76,0,0,0,2.63-.87Z"/><path d="M53.47,158.18a9.19,9.19,0,0,0-1-.75,12.66,12.66,0,0,0-2.11-1.15c-.24,1.62-.49,3.25-.73,4.89h.19q.31,0,.63,0h.11a8.26,8.26,0,0,1,2.1.35,7.87,7.87,0,0,1,3.94,2.75c-.19-1.15-.35-2.27-.48-3.33A11.21,11.21,0,0,0,53.47,158.18Z"/><path d="M42.15,161.06a12.74,12.74,0,0,1,2.31-.23,9.46,9.46,0,0,1,3.44.61c-.09-1-.15-2.05-.15-3.09,0-.89,0-1.79,0-2.69a11.39,11.39,0,0,0-4.55,1.92,9.4,9.4,0,0,0-1.19.59,1.09,1.09,0,0,0,0,.18C42.05,159.28,42.1,160.18,42.15,161.06Z"/><path d="M50.47,175.28l.44-.21,1.62,2.28c.24-.16.48-.32.71-.49a14.59,14.59,0,0,0,1.89-1.78A11.37,11.37,0,0,0,57.81,170c-.5-2-.89-3.93-1.2-5.73a7.87,7.87,0,0,0-3.94-2.75,8.26,8.26,0,0,0-2.1-.35h-.11q-.32,0-.63,0h-.19c0,.38-.11.75-.16,1.12.15.12.31.23.45.36a5.66,5.66,0,0,1,2.43,5.62c.44,1.41-.8,3.5-3.3,4.89a4.47,4.47,0,0,1-1.21.47c-.11,0-.22,0-.33,0a14.06,14.06,0,0,1-2.7.91,5.78,5.78,0,0,0,.63,3.41c.25.45.49.92.73,1.38.28,0,.57,0,.85,0a9.87,9.87,0,0,0,1.9-.18l.23-.06a18.27,18.27,0,0,0,2.65-1.34C51.36,177,50.92,176.13,50.47,175.28Z"/><path d="M50.94,167a6.85,6.85,0,0,0-1.08-.12,4.28,4.28,0,0,0-.71.86c-.29.71-.47,1.4-.69,2.1-.06.2-.11.4-.18.65-.71-.35-.83-.76-.75-2.33a8.6,8.6,0,0,0-2.7,2.51l.33.25a6,6,0,0,0,1.09.57,5.6,5.6,0,0,0-1.12,1.88,5.14,5.14,0,0,0,1.9.36,4.22,4.22,0,0,0,.49,0,12.33,12.33,0,0,0,2.25-1.32,8.17,8.17,0,0,0,1.13-1.07,5.69,5.69,0,0,0,1.46-3A2,2,0,0,0,50.94,167Z"/><path d="M46,162.64a5.66,5.66,0,0,1,1.89-1.14v-.06a9.46,9.46,0,0,0-3.44-.61,12.74,12.74,0,0,0-2.31.23c.08,1.13.19,2.23.3,3.3,0,.15,0,.29,0,.44a13.78,13.78,0,0,1,2.18-1.59A5.81,5.81,0,0,1,46,162.64Z"/><path d="M47,173.7a5.14,5.14,0,0,1-1.9-.36l-.09.21a7.13,7.13,0,0,0-.22,1,14.06,14.06,0,0,0,2.7-.91A4.22,4.22,0,0,1,47,173.7Z"/><path d="M42.68,166.77a6.59,6.59,0,0,1,1.78-.24,3.19,3.19,0,0,1,1.63.32,7.86,7.86,0,0,0-2.64,1l.62-.11c.66-.12,1.33-.25,2-.34l.18,0c.18,0,.34,0,.51,0a4.65,4.65,0,0,1-.44.45,7.52,7.52,0,0,1-2.88,1.24,5.69,5.69,0,0,0,1.4,1.58,8.6,8.6,0,0,1,2.7-2.51c-.08,1.57,0,2,.75,2.33.07-.25.12-.45.18-.65.22-.7.4-1.39.69-2.1a4.28,4.28,0,0,1,.71-.86,6.85,6.85,0,0,1,1.08.12,2,2,0,0,1,1.42,1.3,5.66,5.66,0,0,0-2.43-5.62c-.14-.13-.3-.24-.45-.36-.19,1.22-.37,2.45-.55,3.68l-.6.19c-.12-1.56-.3-3.1-.43-4.66A5.66,5.66,0,0,0,46,162.64a5.81,5.81,0,0,0-1.34.57,13.78,13.78,0,0,0-2.18,1.59c.06.61.12,1.21.17,1.82C42.66,166.67,42.68,166.72,42.68,166.77Z"/><path d="M208.87,160.77a10.16,10.16,0,0,1,1-.75,13.16,13.16,0,0,1,2.12-1.15l-.12-.78a2.88,2.88,0,0,0-.41,0h0a14.26,14.26,0,0,0-3.47.6q-.72.24-1.41.54c0,1.35-.16,2.79-.34,4.31A11.43,11.43,0,0,1,208.87,160.77Z"/><path d="M210.61,180.78c-.88,1.69-1.76,3.37-2.67,5a15.79,15.79,0,0,0,4.38,1.59c.37.07.76.12,1.15.16.65-1.21,1.28-2.41,1.9-3.59.22-.43.45-.86.68-1.29a20,20,0,0,1-2.87-.93A9.7,9.7,0,0,1,210.61,180.78Z"/><path d="M206.52,185l3.31-4.64a11.5,11.5,0,0,1-5.45-7.13c-.63,2.44-1.41,5-2.37,7.76A19,19,0,0,0,206.52,185Z"/><path d="M210.61,180.78a9.7,9.7,0,0,0,2.57,1,19.1,19.1,0,0,1-2.44-1.21Z"/><path d="M209.83,180.33l.17-.25c-.3-.21-.61-.41-.9-.63a14,14,0,0,1-1.89-1.77,11.42,11.42,0,0,1-2.69-5.06c-.05.2-.09.39-.14.58A11.5,11.5,0,0,0,209.83,180.33Z"/><path d="M217.87,169.12a3.23,3.23,0,0,0-1.62.32,7.77,7.77,0,0,1,2.64,1l-.62-.12c-.66-.12-1.33-.25-2-.34h-.19c-.17,0-.33,0-.5,0a3.09,3.09,0,0,0,.44.45,7.54,7.54,0,0,0,2.87,1.24,5.69,5.69,0,0,0,.76-2.29A6.61,6.61,0,0,0,217.87,169.12Z"/><path d="M214.53,158.07v.18a11.27,11.27,0,0,1,4.55,1.92,11,11,0,0,1,1.2.58c0-1,0-1.95-.06-2.86a17.9,17.9,0,0,0-2.35-.16A16.3,16.3,0,0,0,214.53,158.07Z"/><path d="M213.27,175.76a4.7,4.7,0,0,0,1.21.46c.11,0,.23,0,.34,0a11.08,11.08,0,0,1-2.26-1.32,7.42,7.42,0,0,1-1.12-1.07l0,0a5.67,5.67,0,0,1-1.51-3C209.53,172.27,210.77,174.37,213.27,175.76Z"/><path d="M208.87,160.77a11.43,11.43,0,0,0-2.67,2.79q-.18,1.6-.48,3.33a8,8,0,0,1,3.95-2.75,8.26,8.26,0,0,1,2.1-.35h.13q.3,0,.6,0l.2,0c-.25-1.65-.49-3.28-.73-4.9a13.16,13.16,0,0,0-2.12,1.15A10.16,10.16,0,0,0,208.87,160.77Z"/><path d="M215.31,182a10,10,0,0,1-1.91-.18l-.22-.06a20,20,0,0,0,2.87.93l.4-.76A11.24,11.24,0,0,1,215.31,182Z"/><path d="M214.53,158.25c0,.9.06,1.8.06,2.69,0,1.05-.07,2.07-.15,3.09a9.37,9.37,0,0,1,3.43-.6,12.65,12.65,0,0,1,2.31.22c.06-.88.1-1.78.1-2.71v-.19a11,11,0,0,0-1.2-.58A11.27,11.27,0,0,0,214.53,158.25Z"/><path d="M214.48,176.22a4.7,4.7,0,0,1-1.21-.46c-2.5-1.39-3.74-3.49-3.3-4.9a5.77,5.77,0,0,1,.33-3,5.69,5.69,0,0,1,2.1-2.61c.15-.13.3-.24.46-.36l-.16-1.11-.2,0q-.3,0-.6,0h-.13a8.26,8.26,0,0,0-2.1.35,8,8,0,0,0-3.95,2.75q-.45,2.72-1.2,5.73a11.42,11.42,0,0,0,2.69,5.06,14,14,0,0,0,1.89,1.77c.29.22.6.42.9.63l1.63-2.28.44.21c-.45.84-.89,1.68-1.33,2.53a19.1,19.1,0,0,0,2.44,1.21l.22.06a10,10,0,0,0,1.91.18,11.24,11.24,0,0,0,1.14-.07c.21-.4.42-.81.64-1.21a5.69,5.69,0,0,0,.61-3.5,15,15,0,0,1-2.88-1C214.71,176.24,214.59,176.24,214.48,176.22Z"/><path d="M211.44,173.86a7.42,7.42,0,0,0,1.12,1.07,11.08,11.08,0,0,0,2.26,1.32,3.87,3.87,0,0,0,.49.05,4.93,4.93,0,0,0,2-.43,6,6,0,0,0-1.2-1.84,5.1,5.1,0,0,0,1-.55l.34-.25a9,9,0,0,0-2.7-2.51c.08,1.57,0,2-.75,2.33l-.18-.65c-.22-.69-.4-1.39-.69-2.09a4.77,4.77,0,0,0-.71-.87,5.92,5.92,0,0,0-1.09.13,2,2,0,0,0-1.42,1.29,5.67,5.67,0,0,0,1.51,3Z"/><path d="M216.31,165.23a6,6,0,0,1,1.36.57,15,15,0,0,1,2.18,1.59c0-.14,0-.29,0-.43.11-1.08.22-2.18.29-3.31a12.65,12.65,0,0,0-2.31-.22,9.37,9.37,0,0,0-3.43.6v.07A5.71,5.71,0,0,1,216.31,165.23Z"/><path d="M216.31,165.23a5.71,5.71,0,0,0-1.87-1.13c-.13,1.56-.31,3.1-.44,4.66l-.59-.19c-.18-1.23-.37-2.46-.55-3.69-.16.12-.31.23-.46.36a5.69,5.69,0,0,0-2.1,2.61,5.77,5.77,0,0,0-.33,3,2,2,0,0,1,1.42-1.29,5.92,5.92,0,0,1,1.09-.13,4.77,4.77,0,0,1,.71.87c.29.7.47,1.4.69,2.09l.18.65c.71-.35.83-.76.75-2.33a9,9,0,0,1,2.7,2.51,5.65,5.65,0,0,0,1.39-1.58,7.54,7.54,0,0,1-2.87-1.24,3.09,3.09,0,0,1-.44-.45c.17,0,.33,0,.5,0h.19c.66.09,1.33.22,2,.34l.62.12a7.77,7.77,0,0,0-2.64-1,3.23,3.23,0,0,1,1.62-.32,6.61,6.61,0,0,1,1.79.24.68.68,0,0,1,0-.14c0-.61.11-1.22.17-1.83a15,15,0,0,0-2.18-1.59A6,6,0,0,0,216.31,165.23Z"/><path d="M217.34,175.87a4.93,4.93,0,0,1-2,.43,3.87,3.87,0,0,1-.49-.05,15,15,0,0,0,2.88,1,5.83,5.83,0,0,0-.21-.94C217.45,176.13,217.39,176,217.34,175.87Z"/></g><g id="Layer_3" data-name="Layer 3"><polygon points="83.23 107.89 61.8 134.46 60.36 188.35 81.17 222.81 131.23 232.74 172.32 227 201.18 179.65 210.18 140.83 193.13 100.73 153.67 88.54 83.23 107.89"/></g><g id="Layer_1" data-name="Layer 1"><path class="cls-1" d="M184.54,149.8,129.1,92.93,72.23,148.36,36,111.21l94-91.69.05.05.12-.11,4.63,5,86.91,89.16Zm-55.19-76,55.43,56.87,17.78-17.33L129.87,38.77l-.13.13-.07-.08L55.15,111.46l17.33,17.77Z"/><path class="cls-1" d="M164.32,200.65,129.1,164.52,93,199.74,66.52,172.6l1.37-1.33-1.37-1.4L124.91,113l4.55-5.06.32.32L130,108l4.54,5,56.94,58.42-1.36,1.32,1.37,1.41Zm-35-55.26,35.22,36.13,7.76-7.57L171,172.56l1.37-1.34-42.45-43.55-.21.23-.33-.37L85.65,170.11,87,171.52l-1.36,1.32,7.56,7.77Z"/><path class="cls-1" d="M133.48,227l-27.39-27.38,27.39-27.39,27.38,27.39Zm-8.25-27.38,8.25,8.25,8.25-8.25-8.25-8.26Z"/><path class="cls-1" d="M72.87,71.21a8.81,8.81,0,0,1-2.3,1.91c-1.07.57-2.23.95-3.35,1.41l-4,1.67c.64-.07,1.25-.18,1.87-.29l1.55-.35.1,0c.52-.13,1-.27,1.54-.43h0a11.67,11.67,0,0,1,1.32-.34l.26,0,.36,0a2.8,2.8,0,0,1,.58.08l.06,0a2.07,2.07,0,0,1,.43.2l0,0a1.54,1.54,0,0,1,.29.23,3.12,3.12,0,0,1,.51.64c.19-.26.37-.53.55-.77a2.09,2.09,0,0,1,2-1.06l.32.06c0,1-.09,1.91-.14,3,0,.37,0,.76-.06,1.18.12-.23.23-.44.35-.65l2.08-3.9h0l.17,0,1.14.21h0a6.69,6.69,0,0,1-.35,4.51A5,5,0,0,1,78,79l-.25.47a8.51,8.51,0,0,1-.57.9c-2,2.76-5.38,4.65-8.19,4-.56-.13-1.11-.29-1.66-.45l-.06,0q-.8-.26-1.59-.54l-.07,0c-.53-.2-1.06-.41-1.58-.63h0A60.11,60.11,0,0,1,55.35,78c3.57-3.66,6.84-7.22,10.33-10.54,4.8-4.58,10.45-1.19,12.69,3.38C76.54,72.28,74.63,71.15,72.87,71.21Z"/><path class="cls-1" d="M67.57,21.81c1.8.15,3.6.3,5.4.43a18,18,0,0,1,4.51.94,20,20,0,0,1,4.09,2c.38.24.74.49,1.11.75.63.45,1.23.92,1.8,1.42a22.23,22.23,0,0,1,3,3.25c.22.29.43.59.64.89a23.92,23.92,0,0,1,4,13.59c0,.38,0,.77,0,1.16,0,.77-.09,1.56-.18,2.35,0,.39-.09.79-.16,1.18a35.36,35.36,0,0,1-3,9.62h0l-1-1.08c-.63-.73-1.25-1.47-1.87-2.21a54,54,0,0,0-5-5.29c-.2-.19-.41-.36-.63-.54a21.32,21.32,0,0,1-3.73-3.32,5.62,5.62,0,0,1-1.17-3l-.47.18-2,.74-1.9-4c-.62-1.32-1.25-2.64-1.89-4l-1.28,1-.57.42-.56.41h0L63.27,35c3.26,7.34,6.33,14.79,14.5,18.1-.84,1.21-1.43,2.06-2.15,3.08l9.82,5.25c-.25.25-.34.43-.47.47-8.07,2.29-19.72,1.31-26.33-9A37.32,37.32,0,0,1,53.5,38.72a65.46,65.46,0,0,1-.7-18.21h0C57.8,20.94,62.69,21.4,67.57,21.81Z"/><path class="cls-1" d="M119.68,35.58c0,.33-.05.66-.09,1a28.17,28.17,0,0,1-.82,4.27c0,.18-.11.35-.17.52-.13.43-.29.85-.46,1.27a16.91,16.91,0,0,1-1,1.9,15.55,15.55,0,0,1-1,1.42c-.21.27-.43.54-.65.79a14.23,14.23,0,0,1-1.34,1.35c-.31.28-.63.54-1,.8a17.11,17.11,0,0,1-9.59,3.41,16.48,16.48,0,0,1,0-2.72c.33-4.35,2.37-8.17,5.13-11.88l-2.86.06h-.44l.38-.78c.65-1.32,1.26-2.57,1.84-3.79.23-.49.46-1,.68-1.46s.44-1.41.19-1.7h0a4.28,4.28,0,0,1-.29-.38l-.09-.16c0-.07-.06-.13-.08-.19a1.72,1.72,0,0,1-.07-.21s0-.08,0-.11a2,2,0,0,1,.33-1.31h0a6.07,6.07,0,0,1,.43-.65h0c.43-.6.78-1.26,1.17-1.89l-.7-.28c-6.24,7.46-6.59,17.06-8.66,26.25a16.31,16.31,0,0,1-4.63-9c-1-6.06,1.08-11.29,4.76-15.86s7.73-8.82,11.63-13.2c0-.05.13,0,.25,0h.18l1.32,3.19c.43,1.07.87,2.13,1.31,3.2q1.32,3.19,2.68,6.38c.13.31.25.62.37.93A20.39,20.39,0,0,1,119.74,34Q119.74,34.77,119.68,35.58Z"/><path class="cls-1" d="M154.81,41.66a8.8,8.8,0,0,1-1.9-2.3A35.16,35.16,0,0,1,151.5,36c-.56-1.34-1.12-2.68-1.67-4,.07.63.17,1.25.29,1.86s.22,1,.35,1.56l0,.09c.13.52.27,1,.42,1.54h0a11.15,11.15,0,0,1,.34,1.32,2.17,2.17,0,0,1,0,.25,2.32,2.32,0,0,1,0,.37,1.87,1.87,0,0,1-.08.57s0,0,0,.06a1.86,1.86,0,0,1-.2.43l0,0a2.09,2.09,0,0,1-.23.29,2.94,2.94,0,0,1-.65.51c.27.19.54.37.78.56a2.08,2.08,0,0,1,1.05,2,2,2,0,0,1-.05.33l-3-.15-1.18-.06.65.35,3.9,2.08h0a1,1,0,0,0,0,.17c-.07.41-.14.79-.2,1.14h0a6.68,6.68,0,0,1-4.51-.34l-.48-.22-.47-.24a10.61,10.61,0,0,1-.9-.58c-2.76-2-4.65-5.37-4-8.19.13-.56.29-1.11.45-1.65l0-.06c.16-.54.34-1.07.54-1.6l0-.07c.19-.53.4-1.05.62-1.58l0,0A60.11,60.11,0,0,1,148,24.14c3.66,3.57,7.22,6.84,10.54,10.33,4.57,4.81,1.19,10.46-3.39,12.7C153.74,45.34,154.88,43.42,154.81,41.66Z"/><path class="cls-1" d="M204.22,36.36c-.16,1.8-.3,3.6-.44,5.4a17.06,17.06,0,0,1-.94,4.51,19.8,19.8,0,0,1-2,4.1c-.24.37-.49.74-.75,1.1-.45.64-.93,1.24-1.42,1.81a22.67,22.67,0,0,1-3.25,3c-.29.22-.59.44-.89.64A23.94,23.94,0,0,1,181,61c-.38,0-.77,0-1.16,0-.78,0-1.56-.08-2.35-.17l-1.19-.16a35.79,35.79,0,0,1-9.61-3h0l1.08-.94L170,54.87a56.32,56.32,0,0,0,5.29-4.95c.19-.2.36-.41.54-.62a21.38,21.38,0,0,1,3.31-3.74,5.74,5.74,0,0,1,3-1.17c-.07-.17-.12-.32-.18-.47-.28-.73-.49-1.31-.74-2l4-1.89,4-1.89-.95-1.29-.42-.57-.41-.55h0c1.29-1.31,2.47-2.5,3.64-3.7-7.33,3.27-14.78,6.33-18.1,14.5l-3.07-2.14-5.25,9.82c-.26-.26-.44-.35-.47-.48-2.29-8.07-1.32-19.71,9-26.32a37.17,37.17,0,0,1,14.19-5.15,65.06,65.06,0,0,1,18.21-.69h0C205.08,26.59,204.62,31.49,204.22,36.36Z"/><path class="cls-1" d="M190.44,88.48l-1-.09a28,28,0,0,1-4.27-.83l-.53-.17a11.15,11.15,0,0,1-1.26-.46,13.53,13.53,0,0,1-1.9-1,13.78,13.78,0,0,1-1.42-1,10.12,10.12,0,0,1-.79-.65A17.07,17.07,0,0,1,177.94,83c-.27-.31-.54-.63-.79-1a17,17,0,0,1-3.41-9.59,17.53,17.53,0,0,1,2.71,0c4.36.34,8.17,2.37,11.89,5.13,0-1,0-1.83-.06-2.86,0-.14,0-.28,0-.44l.77.38c1.33.65,2.57,1.27,3.8,1.85l1.46.67c.51.23,1.41.45,1.7.19h0a2.4,2.4,0,0,1,.38-.29,1.29,1.29,0,0,1,.16-.09l.19-.09.21-.06.11,0a1.91,1.91,0,0,1,1.31.32h0c.21.13.43.27.65.43h0c.6.43,1.25.78,1.88,1.17l.29-.69c-7.46-6.25-17.06-6.6-26.26-8.67a16.37,16.37,0,0,1,9-4.63c6.06-1,11.29,1.08,15.85,4.76s8.83,7.73,13.21,11.63c0,0,0,.13,0,.26h0v.17h0l-3.18,1.32-3.2,1.31q-3.19,1.32-6.38,2.68c-.31.13-.62.26-.93.37a20.4,20.4,0,0,1-7.24,1.3C191.53,88.54,191,88.51,190.44,88.48Z"/><path class="cls-1" d="M62.19,225.23c.17.31.35.61.53.91a30,30,0,0,0,2.7,3.74l.4.44c.32.35.66.69,1,1a15.77,15.77,0,0,0,1.77,1.4c.51.34,1,.65,1.58.94l1,.47a15.25,15.25,0,0,0,1.89.7c.42.13.85.24,1.28.34a18.14,18.14,0,0,0,10.78-1,17.93,17.93,0,0,0-1.21-2.62c-2.27-4.05-5.94-6.82-10.27-9.17l2.79-1.22.42-.19-.7-.57c-1.22-1-2.38-1.92-3.48-2.84-.44-.37-.88-.73-1.31-1.11s-1.06-1.16-.94-1.55h0a3.4,3.4,0,0,0,.1-.5c0-.07,0-.13,0-.2V214l0-.23,0-.11a2.09,2.09,0,0,0-.9-1.12h0c-.22-.15-.46-.29-.71-.43h0c-.68-.39-1.31-.86-2-1.3l.54-.58c9.36,4.39,14,13.5,20.11,21.44A17.43,17.43,0,0,0,88,220.92c-1.72-6.3-6.09-10.41-11.68-13.16s-11.4-5-17.12-7.53c-.06,0-.15,0-.27.07h0l-.17.08h0c.05,1.22.1,2.44.16,3.66s.11,2.45.16,3.68c.11,2.44.21,4.9.28,7.35,0,.36,0,.71,0,1.06a21.68,21.68,0,0,0,2,7.56C61.65,224.22,61.91,224.73,62.19,225.23Z"/><path class="cls-1" d="M182.46,227.37a13.34,13.34,0,0,0,3.83-2.52c1.31-1.3,2.39-2.84,3.57-4.27,1.41-1.72,2.83-3.43,4.25-5.15-.39.9-.82,1.76-1.27,2.6s-.79,1.43-1.21,2.13l-.08.13c-.42.7-.86,1.39-1.32,2.06h0a17.17,17.17,0,0,0-1.1,1.78c-.06.12-.12.24-.17.36a3.35,3.35,0,0,0-.19.53,3.76,3.76,0,0,0-.14.88V226a2.55,2.55,0,0,0,.1.72l0,.1a3.32,3.32,0,0,0,.22.53,4.34,4.34,0,0,0,.71,1c-.48.16-.95.3-1.39.47a3.18,3.18,0,0,0-2.43,2.42c0,.16-.05.32-.07.51l4.51,1.14,1.76.44-1.11.22-6.65,1.3h0l0,.26c-.07.63-.14,1.22-.2,1.76h0a10.25,10.25,0,0,0,6.76,1.53l.8-.11c.27,0,.53-.09.8-.15a14.61,14.61,0,0,0,1.57-.43c4.94-1.65,9.24-5.8,9.49-10.24.05-.88.07-1.76.08-2.63v-.1c0-.86,0-1.72-.07-2.58,0,0,0-.07,0-.11,0-.87-.11-1.74-.2-2.6v-.07a93.26,93.26,0,0,0-3-14.69c-7,3.6-13.66,6.79-20.09,10.42-8.87,5-6.43,14.81-.74,20.15C182.38,233.24,181.58,229.92,182.46,227.37Z"/><path class="cls-1" d="M117.27,209.42c-.27-2.08-.48-4.16-.8-6.22-1.65-10.44,3.71-17.57,11.24-23.6,3.3-2.65,6.74-2.77,10.37-.27,6.7,4.6,12.28,10.08,15.1,17.9,2.31,6.4,1,10.93-4.49,15.2-6.07,4.72-13.23,7.08-20.48,9.2-.8.24-1.63.41-2.43.64-4.75,1.4-6.88.13-7.69-4.74-.45-2.68-.71-5.39-1-8.08Zm19.85-.5A15.56,15.56,0,0,0,147.34,203c2.57-3.18,3.21-5.42.69-8.48A128.6,128.6,0,0,0,136,182.39c-.71-.65-2.42-.7-3.5-.42A15.93,15.93,0,0,0,121,195.81c-.14,2.25.09,5.12,1.38,6.75A16.8,16.8,0,0,0,137.12,208.92Z"/><path class="cls-1" d="M113.77,219.93c-4.47-3-6.37-7-7.44-11.36a44.16,44.16,0,0,1,1.55-26.84c3.7-9.63,16-14.68,25.84-10.66-3.86,3.83-7.56,7.8-11.59,11.41-10.81,9.71-12.65,21.6-9,35C113.35,218.09,113.49,218.75,113.77,219.93Z"/><path class="cls-1" d="M103.51,184.94c-1.63,5.7-5,9.34-6.17,14.18-.85,3.44-1.28,6.55-1.82,10.06-.8,5.17,2.19,11.4,6,15.09,4.57,4.45,9.32,8.7,14.05,13a14.31,14.31,0,0,1,3.31,3.26c-1.24-.05-2.5,0-3.73-.16C100.18,238.58,86.73,222,88.19,207,89.15,197.26,95.19,190.83,103.51,184.94Z"/><path class="cls-1" d="M163.37,188.82c-4.39-2.59-8.58-5.13-12.85-7.54s-8.41-4.57-12.65-6.86c3.6-4.61,11-5.2,18.17-1.61C162.63,176.12,165.28,181.75,163.37,188.82Z"/><path class="cls-1" d="M148.58,184.32c6.48,1.39,12.66,3.66,15.13,10.42,2.9,7.93-1.42,14-6.41,19.87C161,202.57,155.21,193.43,148.58,184.32Z"/><path class="cls-1" d="M130.52,227.13l21.36-11C150.45,225.82,141.23,230.74,130.52,227.13Z"/><path class="cls-1" d="M131,201.64c-7.11-1.59-8.39-4.15-5.29-10a26.5,26.5,0,0,1,3.33-4.93,4.38,4.38,0,0,1,6-.92c2.17,1.23,1.77,3.12,1,4.94C134.33,194.31,132.65,197.91,131,201.64Z"/><path class="cls-1" d="M141,190.06c1.49,2.53,3.1,5,4.38,7.64a2.82,2.82,0,0,1-1,2.53c-2.31,1.33-4.8,2.35-7.76,3.74a22.52,22.52,0,0,1,3.1-13.5Z"/><path class="cls-1" d="M105.66,222a49.35,49.35,0,0,0,25.57,10.75c15.4,1.62,35.43-8.08,38.39-29.68,0,0,4,15.55-1.18,25.83S131.65,258.37,105.66,222Z"/><path class="cls-1" d="M102.75,199.06s-2,14.6,2.57,20.31C105.32,219.37,92.94,214.11,102.75,199.06Z"/><path class="cls-1" d="M32.76,63.75S39.82,64.81,48.1,75.6c7.93,10.34,9.11,23.46,9.67,29.78.71,8.19-17.31,33.86-17.31,33.86S66.87,124,62.6,100.6c0,0,7.71,15.05,4.92,30.08-3.37,18.15-4.63,27-3,40.76s21.67,36.09,21.67,36.09a43.81,43.81,0,0,1-23.75-23.66c-7.44-18-7.29-30.21-6-36.81s1.25-18.3,1.25-18.3a40.67,40.67,0,0,1-26.33,16.12s11.94-13.69,16.23-25.64C52.4,105.82,61.14,92.35,32.76,63.75Z"/><path class="cls-1" d="M47.75,158.35a53.56,53.56,0,0,1,.62-8.67c.21-1.3.48-2.62.8-4a17,17,0,0,0,3.2-.4l-.11.19q3.38-1.2,6.3-2.47a17.77,17.77,0,0,0,.32,2.55l-7.5,3.86c-.78,5.24-1.62,10.88-2.45,16.51l-.6.19C48.12,163.56,47.75,161,47.75,158.35Z"/><path class="cls-1" d="M50.61,114,40,118s9.42-8.39,13.1-9.55S50.61,114,50.61,114Z"/><path class="cls-1" d="M47.35,123.46l-6.73,2.64S45,120.81,49,120.82,47.35,123.46,47.35,123.46Z"/><path class="cls-1" d="M47.19,138.69s2,.68-.61,3.32c0,0,8.08-2.31,5.61-7.55Z"/><path class="cls-1" d="M47.53,168.13c-2,1.13-3.62,3.33-3.35,4.4.2.78,2.15,1.39,3.67,1.1a4.47,4.47,0,0,0,1.21-.47c3.54-2,4.56-5.34,1.88-6.19a6.85,6.85,0,0,0-1.08-.12,4.28,4.28,0,0,0-.71.86c-.29.71-.47,1.4-.69,2.1-.06.2-.11.4-.18.65C47.57,170.11,47.45,169.7,47.53,168.13Z"/><path class="cls-1" d="M46.09,166.85a5.36,5.36,0,0,0-3.63,0,4.34,4.34,0,0,0-2.2,1.72.32.32,0,0,0,.14.33c1,.79,4.25.21,5.91-1.06a4.65,4.65,0,0,0,.44-.45,3.24,3.24,0,0,0-.7,0c-.65.09-1.32.22-2,.34l-.62.11A7.86,7.86,0,0,1,46.09,166.85Z"/><polygon class="cls-1" points="73.7 145.65 133.48 217.44 193.37 138.24 151.88 76.51 120.95 68.56 98.97 84.69 73.7 145.65"/><path class="cls-1" d="M229.57,66.35s-7.06,1.05-15.33,11.84c-7.94,10.35-9.12,23.46-9.67,29.79-.72,8.18,17.3,33.85,17.3,33.85s-26.41-15.19-22.14-38.64c0,0-7.7,15-4.91,30.08,3.37,18.15,4.62,27,3,40.76s-21.67,36.09-21.67,36.09a43.84,43.84,0,0,0,23.75-23.65c7.43-18,7.28-30.22,6-36.82s-1.25-18.3-1.25-18.3A40.63,40.63,0,0,0,231,147.47s-11.94-13.69-16.24-25.64C209.94,108.41,201.19,95,229.57,66.35Z"/><path class="cls-1" d="M214.59,160.94a53.64,53.64,0,0,0-.62-8.67c-.21-1.3-.48-2.62-.81-4a16.87,16.87,0,0,1-3.19-.39,1.62,1.62,0,0,1,.1.18c-2.24-.8-4.34-1.61-6.29-2.46a17.81,17.81,0,0,1-.32,2.54l7.5,3.86c.78,5.24,1.61,10.88,2.45,16.52l.59.19C214.21,166.16,214.59,163.6,214.59,160.94Z"/><path class="cls-1" d="M211.73,116.62l10.62,4s-9.43-8.39-13.11-9.55S211.73,116.62,211.73,116.62Z"/><path class="cls-1" d="M215,126.05l6.74,2.64s-4.42-5.29-8.42-5.28S215,126.05,215,126.05Z"/><path class="cls-1" d="M215.14,141.28s-2,.68.61,3.33c0,0-8.08-2.32-5.6-7.56Z"/><path class="cls-1" d="M214.81,170.72c1.95,1.14,3.62,3.33,3.34,4.4-.2.78-2.15,1.39-3.67,1.1a4.7,4.7,0,0,1-1.21-.46c-3.53-2-4.55-5.34-1.88-6.19a5.92,5.92,0,0,1,1.09-.13,4.77,4.77,0,0,1,.71.87c.29.7.47,1.4.69,2.09l.18.65C214.77,172.7,214.89,172.29,214.81,170.72Z"/><path class="cls-1" d="M216.25,169.44a5.33,5.33,0,0,1,3.62,0,4.38,4.38,0,0,1,2.21,1.72.33.33,0,0,1-.14.33c-1,.79-4.26.21-5.91-1.06a3.09,3.09,0,0,1-.44-.45,3.15,3.15,0,0,1,.69,0c.66.09,1.33.22,2,.34l.62.12A7.77,7.77,0,0,0,216.25,169.44Z"/><path class="cls-1" d="M206.24,188.81c-2.23,3.75-4.56,7.45-7.11,11-1.13,1.55-2.29,3.08-3.5,4.58a8.44,8.44,0,0,0-1.89-2l.19-.16a37.63,37.63,0,0,0-5.06-1.7c.66-1.19,1.27-2.39,1.84-3.62l6.75.81c4.5-6.32,9.33-13.12,14.17-19.91l.44.21C210.14,181.62,208.32,185.29,206.24,188.81Z"/><path class="cls-1" d="M56.3,186.08c2.22,3.75,4.56,7.45,7.11,11,1.12,1.55,2.29,3.08,3.49,4.58a8.69,8.69,0,0,1,1.9-2l-.19-.16a37.63,37.63,0,0,1,5.06-1.7c-.66-1.19-1.28-2.39-1.84-3.62l-6.75.81L50.91,175.07l-.44.21C52.4,178.89,54.22,182.56,56.3,186.08Z"/><polygon class="cls-2" points="129.93 36.4 129.92 36.41 129.91 36.4 45.58 117.95 72.36 145.21 129.23 92.93 184.66 146.63 212.13 120.07 129.93 36.4"/><polygon class="cls-2" points="129.67 124.35 129.66 124.36 129.65 124.35 76.08 176.16 77.45 177.55 76.08 178.87 93.09 196.18 129.22 161.24 164.44 197.09 181.89 180.21 180.52 178.82 181.89 177.5 129.67 124.35"/><polygon class="cls-2" points="115.66 205.55 133.48 223.23 151.3 205.55 133.48 187.87 115.66 205.55"/><polygon class="cls-3" points="212.13 113.46 129.93 29.14 129.92 29.15 129.91 29.14 45.58 111.33 72.36 138.8 129.23 83.36 184.66 140.23 212.13 113.46"/><polygon class="cls-4" points="181.89 171.34 129.67 117.78 129.66 117.78 129.65 117.78 76.08 169.99 93.09 187.44 129.22 152.22 164.44 188.35 181.89 171.34"/><polygon class="cls-5" points="181.89 174.07 129.67 120.51 129.66 120.51 129.65 120.51 76.08 172.72 93.09 190.17 129.22 154.95 164.44 191.08 181.89 174.07"/><rect class="cls-6" x="120.88" y="187.02" width="25.2" height="25.2" transform="translate(180.25 -35.92) rotate(45)"/><polygon class="cls-7" points="128.41 30.6 45.58 111.33 72.36 138.8 128.41 84.16 128.41 30.6"/><polygon class="cls-8" points="128.41 118.99 76.08 169.99 93.09 187.44 128.41 153.02 128.41 118.99"/><polygon class="cls-9" points="128.41 121.72 76.08 172.72 93.09 190.17 128.41 155.75 128.41 121.72"/><polygon class="cls-10" points="133.48 181.8 115.66 199.62 133.48 217.44 133.48 181.8"/><polygon class="cls-11" points="129.92 29.15 125.01 33.91 129.23 83.36 134.27 33.59 129.92 29.15"/><polygon class="cls-12" points="127.25 122.85 129.66 120.51 132.55 123.46 129.9 155.65 129.22 154.95 128.41 155.75 127.25 122.85"/><polygon class="cls-13" points="122.63 192.65 132.55 184.98 133.54 211.06 134.58 184.98 145.4 193.72 133.48 181.8 122.63 192.65"/></g></svg>
