<svg id="Layer_1" data-name="Layer 1" xmlns="http://www.w3.org/2000/svg" xmlns:xlink="http://www.w3.org/1999/xlink" viewBox="0 0 256 256" width="256" height="256"><defs><style>.cls-1{fill:#1b467d;}.cls-2{fill:#112c4e;}.cls-3{fill:url(#radial-gradient);}.cls-4{fill:url(#linear-gradient);}.cls-5{fill:url(#radial-gradient-2);}.cls-6{fill:url(#radial-gradient-3);}.cls-7{fill:url(#linear-gradient-2);}.cls-8{fill:url(#linear-gradient-3);}.cls-9{fill:url(#linear-gradient-4);}.cls-10{fill:url(#linear-gradient-5);}.cls-11{fill:url(#linear-gradient-6);}.cls-12{fill:url(#linear-gradient-7);}.cls-13{fill:url(#linear-gradient-8);}</style><radialGradient id="radial-gradient" cx="128.6" cy="79.86" r="78.64" gradientUnits="userSpaceOnUse"><stop offset="0" stop-color="#84ffff"/><stop offset="1" stop-color="#58aeff"/></radialGradient><linearGradient id="linear-gradient" x1="128.74" y1="-60.06" x2="128.74" y2="90.57" gradientUnits="userSpaceOnUse"><stop offset="0" stop-color="#fff" stop-opacity="0"/><stop offset="1" stop-color="#fff"/></linearGradient><radialGradient id="radial-gradient-2" cx="128.74" cy="158.87" r="49.96" xlink:href="#radial-gradient"/><radialGradient id="radial-gradient-3" cx="133.74" cy="207.55" r="19.8" gradientTransform="translate(-107.59 155.36) rotate(-45)" xlink:href="#radial-gradient"/><linearGradient id="linear-gradient-2" x1="5.73" y1="81.41" x2="188.35" y2="78.34" xlink:href="#linear-gradient"/><linearGradient id="linear-gradient-3" x1="66.87" y1="162.37" x2="150.7" y2="149.54" xlink:href="#linear-gradient"/><linearGradient id="linear-gradient-4" x1="77.2" y1="158.71" x2="225.54" y2="160.25" xlink:href="#linear-gradient"/><linearGradient id="linear-gradient-5" x1="113.82" y1="207.55" x2="153.23" y2="207.55" xlink:href="#linear-gradient"/><linearGradient id="linear-gradient-6" x1="123.22" y1="97.72" x2="126.52" y2="58.38" xlink:href="#linear-gradient"/><linearGradient id="linear-gradient-7" x1="125.68" y1="171.51" x2="127.83" y2="145.9" xlink:href="#linear-gradient"/><linearGradient id="linear-gradient-8" x1="131.78" y1="230.77" x2="133.56" y2="209.57" xlink:href="#linear-gradient"/></defs><path class="cls-1" d="M190.46,152.2,128.88,89,65.69,150.61,25.46,109.33,129.85,7.47l.05,0,.13-.13,5.15,5.52L231.74,112ZM129.15,67.77,190.73,131l19.75-19.25L129.73,28.85l-.15.15-.08-.09-82.79,80.7L66,129.35Z"/><path class="cls-1" d="M168,208.7l-39.13-40.14L88.73,207.68,59.34,177.54l1.52-1.48-1.52-1.56,64.88-63.23,5.06-5.63.34.36.22-.22,5,5.6,63.25,64.9-1.51,1.47,1.52,1.56Zm-38.86-61.4,39.13,40.14,8.62-8.4-1.52-1.55,1.52-1.48-47.17-48.39-.23.25-.36-.4L80.6,174.78l1.51,1.55-1.51,1.48,8.4,8.62Z"/><path class="cls-1" d="M133.73,238l-30.42-30.43,30.42-30.42,30.43,30.42Zm-9.16-30.43,9.16,9.17,9.17-9.17-9.17-9.17Z"/><path class="cls-1" d="M66.4,64.9A9.68,9.68,0,0,1,63.84,67c-1.18.63-2.47,1-3.71,1.56l-4.47,1.86c.7-.08,1.39-.2,2.07-.33s1.16-.25,1.73-.39l.11,0c.57-.15,1.14-.31,1.7-.48h0a12.34,12.34,0,0,1,1.47-.39l.28,0,.41,0a2.74,2.74,0,0,1,.64.09l.06,0a2.3,2.3,0,0,1,.48.22l.06,0a3.82,3.82,0,0,1,.32.27,3.28,3.28,0,0,1,.57.71c.21-.3.4-.59.61-.86a2.31,2.31,0,0,1,2.19-1.17l.37.06c-.06,1.09-.11,2.13-.17,3.36,0,.41,0,.85-.06,1.31.13-.24.26-.48.38-.72.88-1.63,1.59-3,2.32-4.33h0l.19,0,1.26.23h0a7.41,7.41,0,0,1-.38,5,5.05,5.05,0,0,1-.24.53c-.08.18-.18.35-.27.52a10.57,10.57,0,0,1-.64,1c-2.18,3.07-6,5.17-9.1,4.41-.62-.16-1.23-.33-1.84-.51l-.06,0c-.6-.18-1.19-.38-1.78-.6l-.07,0c-.59-.22-1.18-.45-1.76-.7h0a67.11,67.11,0,0,1-9.55-5.17c4-4.07,7.6-8,11.48-11.71,5.34-5.08,11.61-1.32,14.1,3.76C70.48,66.09,68.35,64.83,66.4,64.9Z"/><path class="cls-1" d="M60.51,10l6,.48a19.58,19.58,0,0,1,5,1,21.64,21.64,0,0,1,4.55,2.19c.41.27.82.54,1.23.83a25.83,25.83,0,0,1,5.38,5.19c.25.33.49.65.72,1a26.73,26.73,0,0,1,4.5,15.1c0,.43,0,.86,0,1.29,0,.86-.1,1.73-.2,2.61q-.08.65-.18,1.32a39.86,39.86,0,0,1-3.29,10.68h0l-1-1.21c-.7-.81-1.39-1.63-2.09-2.45a62.4,62.4,0,0,0-5.49-5.88c-.23-.2-.46-.4-.7-.59a23.83,23.83,0,0,1-4.15-3.69,6.31,6.31,0,0,1-1.3-3.31l-.52.2-2.19.82-2.11-4.44-2.09-4.43-1.43,1.06-.63.46c-.21.15-.42.3-.62.46h0l-4.11-4c3.63,8.15,7,16.43,16.11,20.11l-2.38,3.42,10.91,5.83c-.28.28-.38.48-.53.52-9,2.55-21.9,1.46-29.25-10A41.33,41.33,0,0,1,44.88,28.8a72.31,72.31,0,0,1-.77-20.24h0C49.65,9.05,55.09,9.56,60.51,10Z"/><path class="cls-1" d="M118.41,25.31c0,.36-.06.73-.1,1.09a31.71,31.71,0,0,1-.92,4.74c0,.2-.12.39-.18.58a13,13,0,0,1-.52,1.4,15,15,0,0,1-1.07,2.12,17,17,0,0,1-1.08,1.58c-.23.3-.48.59-.73.88a17.44,17.44,0,0,1-1.48,1.5c-.34.31-.7.6-1.07.88a19,19,0,0,1-10.66,3.79,18.9,18.9,0,0,1,0-3c.37-4.85,2.63-9.08,5.7-13.21l-3.18.07h-.49c.14-.3.28-.57.42-.86.72-1.47,1.41-2.86,2-4.22q.39-.81.75-1.62c.25-.57.49-1.57.21-1.88h0a2.92,2.92,0,0,1-.32-.42c0-.06-.06-.12-.1-.18a1.89,1.89,0,0,1-.09-.21,2.25,2.25,0,0,1-.08-.24.36.36,0,0,0,0-.11,2.17,2.17,0,0,1,.36-1.46h0c.14-.24.31-.48.48-.72h0c.48-.67.87-1.4,1.3-2.1l-.77-.31c-6.94,8.28-7.33,19-9.63,29.17a18.19,18.19,0,0,1-5.14-10C90.9,25.86,93.24,20,97.33,15S105.92,5.17,110.25.3c0,0,.14,0,.28,0h0a1.2,1.2,0,0,0,.19,0h0l1.46,3.54c.49,1.18,1,2.37,1.46,3.55,1,2.37,2,4.74,3,7.09.15.35.29.69.42,1a22.6,22.6,0,0,1,1.43,8Q118.47,24.41,118.41,25.31Z"/><path class="cls-1" d="M157.44,32.07a9.68,9.68,0,0,1-2.12-2.56c-.63-1.18-1-2.47-1.57-3.72-.61-1.49-1.23-3-1.85-4.46q.12,1.05.33,2.07c.11.58.24,1.16.38,1.73l0,.1c.15.58.3,1.15.48,1.71h0a12.61,12.61,0,0,1,.38,1.46c0,.1,0,.2,0,.29a2.82,2.82,0,0,1,0,.41,2.23,2.23,0,0,1-.09.63.14.14,0,0,1,0,.07,2.05,2.05,0,0,1-.22.48l0,.06a2.44,2.44,0,0,1-.26.32,3.91,3.91,0,0,1-.71.56c.29.21.59.41.86.62A2.31,2.31,0,0,1,154.25,34a2.58,2.58,0,0,1-.06.37l-3.37-.17-1.31-.06.72.38,4.33,2.32h0l0,.18c-.09.46-.16.88-.23,1.27h0a7.4,7.4,0,0,1-5-.38c-.18-.07-.36-.16-.53-.24l-.52-.27a11.35,11.35,0,0,1-1-.64c-3.08-2.19-5.18-6-4.41-9.1.15-.62.32-1.23.51-1.84l0-.06c.18-.6.38-1.19.59-1.78l0-.07c.22-.59.45-1.18.69-1.76l0,0a67.11,67.11,0,0,1,5.17-9.55c4.07,4,8,7.6,11.71,11.48,5.08,5.34,1.32,11.61-3.76,14.1C156.25,36.15,157.51,34,157.44,32.07Z"/><path class="cls-1" d="M212.32,26.18q-.25,3-.48,6a19.66,19.66,0,0,1-1,5,21.92,21.92,0,0,1-2.2,4.55c-.26.41-.54.82-.83,1.23-.5.7-1,1.37-1.58,2a24.45,24.45,0,0,1-3.61,3.38c-.32.25-.65.48-1,.71a26.57,26.57,0,0,1-15.1,4.5c-.43,0-.86,0-1.29,0-.86,0-1.73-.09-2.61-.19l-1.32-.18a39.75,39.75,0,0,1-10.68-3.29h0c.39-.36.8-.71,1.2-1.06l2.45-2.08a61.2,61.2,0,0,0,5.88-5.49c.21-.23.4-.47.6-.7a23.83,23.83,0,0,1,3.68-4.15,6.35,6.35,0,0,1,3.31-1.3c-.06-.19-.13-.35-.19-.52-.31-.82-.55-1.46-.82-2.2l4.44-2.1,4.42-2.1-1-1.42-.47-.64-.45-.62h0c1.43-1.45,2.74-2.77,4-4.1-8.14,3.63-16.42,7-20.11,16.11l-3.41-2.38L168.29,46c-.29-.28-.49-.39-.53-.53-2.54-9-1.46-21.9,10-29.25a41.38,41.38,0,0,1,15.77-5.71,72.24,72.24,0,0,1,20.23-.78h0C213.29,15.32,212.78,20.76,212.32,26.18Z"/><path class="cls-1" d="M197,84.08l-1.08-.1a31.71,31.71,0,0,1-4.74-.92c-.2,0-.39-.13-.59-.19-.47-.15-.94-.32-1.4-.51a16.06,16.06,0,0,1-2.11-1.07,17.09,17.09,0,0,1-1.59-1.08c-.3-.24-.59-.48-.87-.73A16.22,16.22,0,0,1,183.13,78c-.3-.34-.6-.7-.88-1.07a19,19,0,0,1-3.79-10.66,19.05,19.05,0,0,1,3,0c4.84.37,9.08,2.63,13.21,5.7,0-1.15-.05-2-.07-3.17,0-.17,0-.32,0-.49l.86.42c1.47.72,2.85,1.4,4.21,2l1.63.75c.57.25,1.56.49,1.88.2h0a3.66,3.66,0,0,1,.43-.32l.18-.1.21-.1.23-.07.12,0a2.18,2.18,0,0,1,1.46.36h0c.23.14.47.31.72.48h0c.66.48,1.39.87,2.09,1.3.11-.26.21-.52.32-.77-8.29-6.94-18.95-7.33-29.17-9.63a18.13,18.13,0,0,1,10-5.14c6.73-1.14,12.55,1.2,17.61,5.29s9.81,8.59,14.68,12.91c.05,0,0,.15,0,.29h0a1.28,1.28,0,0,0,0,.19h0l-3.55,1.46L215,79.32q-3.56,1.46-7.09,3c-.34.15-.69.29-1,.42a22.82,22.82,0,0,1-8,1.43C198.23,84.14,197.63,84.12,197,84.08Z"/><path class="cls-1" d="M54.54,236c.18.34.38.67.58,1a34.68,34.68,0,0,0,3,4.16l.44.48c.36.39.74.76,1.13,1.12a16.76,16.76,0,0,0,3.73,2.6c.36.19.72.36,1.09.52a18.88,18.88,0,0,0,2.1.79c.47.14.94.26,1.43.37a20.1,20.1,0,0,0,12-1.12A19.87,19.87,0,0,0,78.67,243c-2.53-4.51-6.6-7.58-11.41-10.19l3.09-1.36.48-.2-.79-.64c-1.35-1.1-2.64-2.13-3.87-3.15l-1.44-1.23c-.5-.44-1.18-1.29-1.05-1.73h0a3.32,3.32,0,0,0,.13-.55,1.7,1.7,0,0,0,0-.22,2.08,2.08,0,0,0,0-.25,2.34,2.34,0,0,0,0-.26l0-.12a2.28,2.28,0,0,0-1-1.24h0a7.36,7.36,0,0,0-.78-.48h0c-.76-.43-1.46-1-2.19-1.44l.6-.66c10.4,4.89,15.54,15,22.34,23.83a19.34,19.34,0,0,0,.49-11.93c-1.91-7-6.77-11.56-13-14.61s-12.67-5.61-19-8.37c-.06,0-.16,0-.29.08h0l-.19.09h0l.18,4.07.18,4.08c.12,2.72.23,5.45.31,8.17,0,.4,0,.79.06,1.18a24.32,24.32,0,0,0,2.21,8.4C53.93,234.88,54.23,235.45,54.54,236Z"/><path class="cls-1" d="M188.15,238.39a15.14,15.14,0,0,0,4.26-2.8c1.45-1.45,2.65-3.16,4-4.75l4.72-5.72c-.43,1-.91,1.95-1.41,2.89s-.87,1.59-1.34,2.36l-.09.15c-.47.77-1,1.54-1.46,2.29h0a18.24,18.24,0,0,0-1.22,2c-.07.13-.13.26-.19.4s-.15.39-.21.58a3.64,3.64,0,0,0-.15,1v.1a2.87,2.87,0,0,0,.11.81l0,.1a4.07,4.07,0,0,0,.24.59,5.65,5.65,0,0,0,.79,1.15c-.53.18-1.05.33-1.54.51-1.32.49-2.4,1.14-2.7,2.7a4.5,4.5,0,0,0-.07.56l5,1.27,1.95.49-1.22.24-7.39,1.45h0l0,.3c-.09.7-.16,1.36-.23,2h0a11.4,11.4,0,0,0,7.51,1.69c.3,0,.6-.07.89-.12s.59-.1.89-.16a16.34,16.34,0,0,0,1.75-.49c5.48-1.83,10.26-6.44,10.54-11.37.06-1,.08-1.95.08-2.92v-.11c0-1,0-1.92-.07-2.87a.49.49,0,0,1,0-.12c-.05-1-.13-1.93-.23-2.89v-.07a103.46,103.46,0,0,0-3.3-16.33c-7.74,4-15.17,7.55-22.32,11.58-9.84,5.56-7.14,16.45-.81,22.38C188.06,244.91,187.17,241.22,188.15,238.39Z"/><path class="cls-1" d="M115.72,218.44c-.29-2.3-.52-4.62-.88-6.91C113,199.94,119,192,127.33,185.31c3.66-2.94,7.49-3.08,11.52-.3,7.44,5.12,13.64,11.2,16.78,19.89,2.56,7.11,1.11,12.14-5,16.89-6.73,5.24-14.69,7.86-22.75,10.22-.89.26-1.8.45-2.7.71-5.28,1.55-7.64.15-8.54-5.26-.5-3-.79-6-1.17-9Zm22.06-.55a17.34,17.34,0,0,0,11.36-6.61c2.85-3.54,3.56-6,.76-9.42-4-4.87-8.75-9.13-13.39-13.44-.78-.73-2.68-.78-3.89-.47a17.67,17.67,0,0,0-12.76,15.37c-.16,2.5.1,5.69,1.53,7.5A18.7,18.7,0,0,0,137.78,217.89Z"/><path class="cls-1" d="M111.84,230.12c-5-3.28-7.08-7.78-8.27-12.62a49,49,0,0,1,1.73-29.83c4.1-10.68,17.81-16.3,28.71-11.84-4.3,4.26-8.41,8.67-12.88,12.69-12,10.78-14.06,24-9.95,38.83C111.37,228.07,111.52,228.81,111.84,230.12Z"/><path class="cls-1" d="M100.44,191.25c-1.81,6.33-5.53,10.37-6.85,15.74-1,3.83-1.43,7.29-2,11.19-.88,5.74,2.43,12.66,6.64,16.76,5.07,4.94,10.36,9.67,15.61,14.43,1.18,1.07,2.61,1.89,3.68,3.62-1.39-.05-2.78,0-4.15-.18-16.6-2-31.55-20.37-29.92-37C84.49,204.94,91.2,197.79,100.44,191.25Z"/><path class="cls-1" d="M167,195.55c-4.89-2.87-9.54-5.69-14.28-8.37s-9.35-5.07-14.06-7.62c4-5.12,12.23-5.78,20.19-1.79C166.12,181.45,169.07,187.7,167,195.55Z"/><path class="cls-1" d="M150.51,190.55c7.2,1.55,14.06,4.07,16.81,11.59,3.22,8.8-1.57,15.61-7.12,22.07C164.34,210.83,157.88,200.68,150.51,190.55Z"/><path class="cls-1" d="M130.45,238.12l23.73-12.23C152.59,236.67,142.35,242.13,130.45,238.12Z"/><path class="cls-1" d="M130.92,209.8c-7.9-1.76-9.31-4.61-5.87-11.17a29.71,29.71,0,0,1,3.7-5.47c1.81-2.13,4.19-2.41,6.62-1s2,3.47,1.08,5.49C134.68,201.66,132.81,205.65,130.92,209.8Z"/><path class="cls-1" d="M142,196.94c1.65,2.81,3.44,5.56,4.86,8.49.31.63-.41,2.38-1.13,2.8-2.57,1.48-5.34,2.62-8.62,4.16a25,25,0,0,1,3.44-15Z"/><path class="cls-1" d="M102.82,232.41a54.89,54.89,0,0,0,28.42,11.94c17.1,1.8,39.36-9,42.65-33,0,0,4.5,17.29-1.31,28.71S131.71,272.82,102.82,232.41Z"/><path class="cls-1" d="M99.59,206.93s-2.19,16.22,2.86,22.57C102.45,229.5,88.7,223.65,99.59,206.93Z"/><path class="cls-1" d="M21.84,56.61s7.84,1.17,17,13.16C47.69,81.26,49,95.83,49.62,102.86c.8,9.09-19.22,37.61-19.22,37.61S59.74,123.59,55,97.54c0,0,8.56,16.73,5.47,33.42-3.75,20.17-5.14,30-3.35,45.29s24.07,40.09,24.07,40.09A48.69,48.69,0,0,1,54.8,190.06c-8.26-20-8.09-33.57-6.68-40.9s1.39-20.33,1.39-20.33a45.17,45.17,0,0,1-29.25,17.91s13.27-15.21,18-28.49C43.65,103.34,53.37,88.38,21.84,56.61Z"/><path class="cls-1" d="M38.49,161.7a59.91,59.91,0,0,1,.69-9.63c.23-1.45.53-2.91.89-4.38a19.36,19.36,0,0,0,3.55-.45,2.25,2.25,0,0,1-.12.21c2.5-.89,4.83-1.79,7-2.74a19.94,19.94,0,0,0,.36,2.82l-8.34,4.29c-.86,5.83-1.79,12.09-2.72,18.35l-.66.21C38.91,167.5,38.49,164.66,38.49,161.7Z"/><path class="cls-1" d="M41.67,112.46l-11.8,4.43s10.47-9.33,14.56-10.61S41.67,112.46,41.67,112.46Z"/><path class="cls-1" d="M38.05,122.94l-7.48,2.93S35.48,120,39.92,120,38.05,122.94,38.05,122.94Z"/><path class="cls-1" d="M37.88,139.86s2.19.75-.69,3.69c0,0,9-2.56,6.23-8.39Z"/><path class="cls-1" d="M38.25,172.57c-2.17,1.26-4,3.7-3.72,4.89.22.87,2.39,1.54,4.07,1.22a5.17,5.17,0,0,0,1.35-.52C43.88,176,45,172.23,42,171.29a6.28,6.28,0,0,0-1.21-.14,5,5,0,0,0-.79,1c-.32.78-.52,1.55-.76,2.33-.07.22-.12.44-.2.71C38.29,174.77,38.15,174.31,38.25,172.57Z"/><path class="cls-1" d="M36.64,171.14a5.94,5.94,0,0,0-4,0A4.81,4.81,0,0,0,30.17,173a.37.37,0,0,0,.15.37c1.15.87,4.73.23,6.57-1.18a5.72,5.72,0,0,0,.49-.5,3.27,3.27,0,0,0-.77,0c-.73.1-1.47.25-2.21.38l-.69.13A8.66,8.66,0,0,1,36.64,171.14Z"/><polygon class="cls-1" points="67.32 147.59 133.74 227.35 200.28 139.36 154.18 70.78 119.82 61.95 95.4 79.86 67.32 147.59"/><path class="cls-1" d="M240.5,59.49s-7.85,1.17-17,13.16c-8.82,11.49-10.13,26.06-10.74,33.09-.8,9.09,19.22,37.61,19.22,37.61s-29.34-16.88-24.6-42.93c0,0-8.56,16.73-5.46,33.42,3.74,20.17,5.14,30,3.34,45.29s-24.07,40.09-24.07,40.09a48.65,48.65,0,0,0,26.39-26.28c8.26-20,8.09-33.57,6.67-40.9s-1.39-20.33-1.39-20.33a45.21,45.21,0,0,0,29.26,17.91s-13.27-15.21-18-28.49C218.68,106.22,209,91.26,240.5,59.49Z"/><path class="cls-1" d="M223.85,164.58a59.91,59.91,0,0,0-.69-9.63q-.36-2.17-.9-4.38a19.26,19.26,0,0,1-3.54-.45l.11.21c-2.5-.89-4.83-1.79-7-2.74a20.27,20.27,0,0,1-.36,2.83l8.34,4.29c.86,5.82,1.79,12.08,2.71,18.34l.66.22C223.43,170.38,223.85,167.54,223.85,164.58Z"/><path class="cls-1" d="M220.67,115.34l11.8,4.43s-10.47-9.33-14.56-10.61S220.67,115.34,220.67,115.34Z"/><path class="cls-1" d="M224.28,125.82l7.49,2.93s-4.91-5.87-9.36-5.86S224.28,125.82,224.28,125.82Z"/><path class="cls-1" d="M224.46,142.74s-2.19.76.68,3.69c0,0-9-2.56-6.23-8.39Z"/><path class="cls-1" d="M224.09,175.45c2.17,1.26,4,3.7,3.72,4.89-.22.87-2.39,1.54-4.08,1.22a4.78,4.78,0,0,1-1.34-.52c-3.93-2.18-5.07-5.93-2.09-6.87a6.18,6.18,0,0,1,1.2-.14,5,5,0,0,1,.79,1c.32.78.52,1.55.77,2.33.07.22.12.44.19.71C224.05,177.65,224.18,177.19,224.09,175.45Z"/><path class="cls-1" d="M225.69,174a6,6,0,0,1,4,0,4.73,4.73,0,0,1,2.44,1.91.35.35,0,0,1-.15.37c-1.14.87-4.73.23-6.57-1.18a5.55,5.55,0,0,1-.48-.5,3.25,3.25,0,0,1,.77,0c.73.1,1.47.25,2.21.38l.69.13A8.75,8.75,0,0,0,225.69,174Z"/><path class="cls-1" d="M214.57,195.54c-2.47,4.17-5.06,8.28-7.9,12.2-1.25,1.73-2.55,3.42-3.88,5.09a9.36,9.36,0,0,0-2.11-2.21l.22-.18a42.7,42.7,0,0,0-5.62-1.89c.72-1.32,1.41-2.65,2-4l7.51.9,15.74-22.12.49.24C218.9,187.56,216.88,191.64,214.57,195.54Z"/><path class="cls-1" d="M48,192.51c2.47,4.17,5.06,8.28,7.9,12.2,1.25,1.72,2.55,3.42,3.88,5.09a9.36,9.36,0,0,1,2.11-2.21l-.22-.18a41.28,41.28,0,0,1,5.62-1.89c-.72-1.32-1.41-2.66-2-4l-7.51.89L42,180.28l-.49.24C43.66,184.52,45.68,188.61,48,192.51Z"/><polygon class="cls-2" points="129.79 26.22 129.78 26.23 129.77 26.22 36.09 116.83 65.83 147.1 129.01 89.02 190.6 148.69 221.11 119.17 129.79 26.22"/><polygon class="cls-2" points="129.5 123.93 129.5 123.94 129.49 123.93 69.97 181.49 71.49 183.03 69.97 184.5 88.87 203.74 129.01 164.91 168.13 204.74 187.52 185.99 186 184.45 187.52 182.98 129.5 123.93"/><polygon class="cls-2" points="113.94 214.15 133.74 233.79 153.53 214.15 133.74 194.5 113.94 214.15"/><polygon class="cls-3" points="221.11 111.83 129.79 18.15 129.78 18.17 129.77 18.15 36.09 109.47 65.83 139.98 129.01 78.39 190.6 141.58 221.11 111.83"/><polygon class="cls-4" points="187.52 176.14 129.5 116.63 129.5 116.64 129.49 116.63 69.97 174.64 88.87 194.02 129.01 154.9 168.13 195.04 187.52 176.14"/><polygon class="cls-5" points="187.52 179.18 129.5 119.66 129.5 119.67 129.49 119.66 69.97 177.67 88.87 197.06 129.01 157.93 168.13 198.07 187.52 179.18"/><rect class="cls-6" x="119.74" y="193.55" width="28" height="28" transform="translate(185.93 -33.77) rotate(45)"/><polygon class="cls-7" points="128.1 19.78 36.09 109.47 65.83 139.98 128.1 79.28 128.1 19.78"/><polygon class="cls-8" points="128.1 117.98 69.97 174.64 88.87 194.02 128.1 155.78 128.1 117.98"/><polygon class="cls-9" points="128.1 121.01 69.97 177.67 88.87 197.06 128.1 158.82 128.1 121.01"/><polygon class="cls-10" points="133.74 187.76 113.94 207.55 133.74 227.35 133.74 187.76"/><polygon class="cls-11" points="129.78 18.17 124.33 23.45 129.01 78.39 134.61 23.1 129.78 18.17"/><polygon class="cls-12" points="126.81 122.27 129.5 119.67 132.7 122.94 129.76 158.7 129.01 157.93 128.1 158.82 126.81 122.27"/><polygon class="cls-13" points="121.68 199.81 132.7 191.29 133.8 220.26 134.96 191.29 146.97 200.99 133.74 187.76 121.68 199.81"/></svg>