<svg xmlns="http://www.w3.org/2000/svg" xmlns:xlink="http://www.w3.org/1999/xlink" viewBox="0 0 256 256" width="256" height="256"><defs><style>.cls-1{fill:#33547d;}.cls-2{fill:#112c4e;}.cls-3{fill:#7034c5;}.cls-4{fill:url(#radial-gradient);}.cls-5{fill:url(#radial-gradient-2);}.cls-6{fill:url(#radial-gradient-3);}.cls-7{fill:url(#linear-gradient);}.cls-8{fill:url(#linear-gradient-2);}.cls-9{fill:url(#linear-gradient-3);}.cls-10{fill:url(#linear-gradient-4);}.cls-11{fill:url(#linear-gradient-5);}.cls-12{fill:url(#linear-gradient-6);}.cls-13{fill:url(#linear-gradient-7);}.cls-14{fill:url(#linear-gradient-8);}.cls-15{fill:url(#linear-gradient-9);}.cls-16{fill:url(#linear-gradient-10);}.cls-17{fill:url(#linear-gradient-11);}</style><radialGradient id="radial-gradient" cx="122.92" cy="302.3" r="178.49" gradientTransform="translate(0 16.62) scale(1 0.96)" gradientUnits="userSpaceOnUse"><stop offset="0" stop-color="#fe958d" stop-opacity="0.92"/><stop offset="1" stop-color="#ff00f6" stop-opacity="0"/></radialGradient><radialGradient id="radial-gradient-2" cx="121.18" cy="204.76" r="178.49" xlink:href="#radial-gradient"/><radialGradient id="radial-gradient-3" cx="125.95" cy="213.57" r="178.49" xlink:href="#radial-gradient"/><linearGradient id="linear-gradient" x1="60.09" y1="157.76" x2="326.83" y2="157.76" gradientUnits="userSpaceOnUse"><stop offset="0" stop-color="#fff" stop-opacity="0"/><stop offset="1" stop-color="#fff"/></linearGradient><linearGradient id="linear-gradient-2" x1="60.09" y1="96.05" x2="326.83" y2="96.05" xlink:href="#linear-gradient"/><linearGradient id="linear-gradient-3" x1="60.09" y1="48.66" x2="326.83" y2="48.66" xlink:href="#linear-gradient"/><linearGradient id="linear-gradient-4" x1="60.09" y1="151.14" x2="326.83" y2="151.14" xlink:href="#linear-gradient"/><linearGradient id="linear-gradient-5" x1="60.09" y1="153.06" x2="326.83" y2="153.06" xlink:href="#linear-gradient"/><linearGradient id="linear-gradient-6" x1="63.98" y1="92.6" x2="314.54" y2="92.6" xlink:href="#linear-gradient"/><linearGradient id="linear-gradient-7" x1="60.09" y1="93.65" x2="326.83" y2="93.65" xlink:href="#linear-gradient"/><linearGradient id="linear-gradient-8" x1="60.09" y1="48.03" x2="326.83" y2="48.03" xlink:href="#linear-gradient"/><linearGradient id="linear-gradient-9" x1="119.55" y1="58.37" x2="120.65" y2="45.28" xlink:href="#linear-gradient"/><linearGradient id="linear-gradient-10" x1="120.83" y1="142.35" x2="123.58" y2="109.58" xlink:href="#linear-gradient"/><linearGradient id="linear-gradient-11" x1="119.56" y1="183.68" x2="122.43" y2="149.6" xlink:href="#linear-gradient"/></defs><g id="Layer_2" data-name="Layer 2"><path d="M232.11,145.06a124,124,0,0,1-9.54-12.85,5.27,5.27,0,0,0,.43-.51,4.52,4.52,0,0,0-.2-5.54c-.11-.13-.47-.55-1-1.13a4.51,4.51,0,0,0,1.19-7.52,114.53,114.53,0,0,0-10.39-8.22c-2.39-9.26-1.25-20.72,17.89-40a4.52,4.52,0,0,0-3.21-7.7,3.85,3.85,0,0,0-.67.05c-.84.12-7.94,1.45-16.25,11q-2-1.77-4.07-3.47a18.71,18.71,0,0,0-11.87-4.54,16.56,16.56,0,0,0-2.88.25,16.1,16.1,0,0,0-4.13,1.27l-1.81-1.86a27.41,27.41,0,0,0,8.88-4c.37-.26.74-.52,1.08-.78a27,27,0,0,0,3.94-3.69c.6-.69,1.18-1.42,1.72-2.18.31-.43.61-.88.89-1.32a24.23,24.23,0,0,0,2.45-5.08,22.12,22.12,0,0,0,1.19-5.69c.13-1.81.28-3.61.43-5.41.24-2.93.51-5.86.77-8.81.18-2,.37-4.05.54-6.09a4.52,4.52,0,0,0-4-4.89,63.76,63.76,0,0,0-6.95-.38,76.27,76.27,0,0,0-12.69,1.12,41.75,41.75,0,0,0-16,5.84,26.2,26.2,0,0,0-8.37,8.53c-.21-.25-.42-.49-.65-.73-2.38-2.5-4.8-4.82-7.36-7.27-1.12-1.08-2.26-2.16-3.4-3.28A4.53,4.53,0,0,0,144.87,19a3.15,3.15,0,0,0-.53,0,4.48,4.48,0,0,0-3.29,2.08,69.26,69.26,0,0,0-4.17,7.39l-12.81-12.8a4.53,4.53,0,0,0-6.39,0l-1.47,1.48-.07-.17L115,14.26l-.21-.51c-.44-1.08-.88-2.16-1.33-3.23a4.52,4.52,0,0,0-4-2.79H109a4.72,4.72,0,0,0-3.55,1.54q-1.72,2-3.46,3.85c-2.81,3.11-5.72,6.31-8.43,9.67A29.11,29.11,0,0,0,89.25,30c-.33-.58-.69-1.14-1.07-1.69q-.37-.55-.78-1.08a26.93,26.93,0,0,0-3.69-3.94,26.34,26.34,0,0,0-2.17-1.71c-.44-.31-.88-.61-1.33-.9a24.65,24.65,0,0,0-5.07-2.45,22.6,22.6,0,0,0-5.7-1.18L64,16.62l-8.79-.78-6.11-.54-.39,0a4.52,4.52,0,0,0-4.49,4A69.45,69.45,0,0,0,45,38.94a42,42,0,0,0,5.85,16,26.82,26.82,0,0,0,5.07,5.86A12.26,12.26,0,0,0,50.25,64c-1.85,1.77-3.61,3.56-5.4,5.41C36.79,60.4,30,59.13,29.17,59a5,5,0,0,0-.67,0,4.53,4.53,0,0,0-3.21,7.71c19.14,19.28,20.28,30.74,17.9,40a118.84,118.84,0,0,0-10.4,8.22,4.53,4.53,0,0,0,1.2,7.53c-.56.57-.92,1-1,1.12a4.49,4.49,0,0,0-1,3.4l-3.31,3.22a4.53,4.53,0,0,0-1.36,3.18,4.49,4.49,0,0,0,1.17,3.1c-2.68,3.58-4.76,6-4.78,6a4.52,4.52,0,0,0,3.4,7.49,4.77,4.77,0,0,0,.76-.06,46.81,46.81,0,0,0,10.65-3.14L40,148.31c-.08.42-.15.82-.21,1.22a57.82,57.82,0,0,0-.69,9.48c0,1.31.08,2.56.19,3.79a10.58,10.58,0,0,0-2.48.5s-4.24,1.5-5.12,4.87a4.85,4.85,0,0,0,1.76,5.07,6,6,0,0,0,2.16,1l0,.2c.81,3.13,4.16,4.55,7.16,4.58.45.84.89,1.68,1.33,2.52,1.34,2.55,2.72,5.19,4.24,7.76,1.75,3,3.36,5.51,4.92,7.84l-.26.12a1.11,1.11,0,0,0-.27.12,4.5,4.5,0,0,0-2.53,4.25c0,1.23.1,2.47.16,3.71l0,.5.14,3.2c.09,2,.2,4.7.28,7.36,0,.43,0,.87.07,1.29a26.47,26.47,0,0,0,2.42,9.2c.28.61.6,1.23.94,1.84.2.36.4.72.62,1.07A35.08,35.08,0,0,0,58,234.17c.13.16.27.31.42.47l.08.09c.43.46.87.91,1.33,1.32a19.94,19.94,0,0,0,2.31,1.83,21.49,21.49,0,0,0,2,1.21c.4.21.83.41,1.26.6a21.11,21.11,0,0,0,2.43.9c.53.16,1.08.31,1.63.43a22.24,22.24,0,0,0,4.76.51,23,23,0,0,0,8.82-1.77,4.5,4.5,0,0,0,2.49-2.56,4.5,4.5,0,0,0,2.5-2.66A22,22,0,0,0,88.65,221c-.13-.46-.27-.92-.42-1.37,1.17,2,2,3.2,2.17,3.37A4.51,4.51,0,0,0,96,224.45c.09,0,.16-.09.25-.14A19.12,19.12,0,0,0,99.28,229a20.85,20.85,0,0,0,1.47,1.5,4.69,4.69,0,0,0-.08,1.45c1,9.5,7.17,15.48,16.85,16.38.9.09,1.8.13,2.69.13,7.3,0,13.4-2.87,16.65-7.56a4.5,4.5,0,0,0,2.64.91h.38a25,25,0,0,0,17.53-7.5,23.35,23.35,0,0,0,7.09-16.55v-.38a4.43,4.43,0,0,0,1.69-1.12l3.53-2.24a4.38,4.38,0,0,0,1.62,1.35,14.48,14.48,0,0,0-4.22,8.58c-.67,5.55,1.82,11.71,6.48,16.08a4.45,4.45,0,0,0,4.14,1.1,4.4,4.4,0,0,0,1.07,1,14.44,14.44,0,0,0,8.09,2.36,16.06,16.06,0,0,0,1.69-.08c.36,0,.72-.08,1.08-.14s.7-.12,1.05-.2c.69-.15,1.38-.34,2.06-.56,7.11-2.38,12.32-8.29,12.67-14.38.05-.93.08-1.91.08-2.9v-.11c0-.91,0-1.87-.08-2.84v-.09c0-.94-.13-1.9-.23-2.87v-.05a96.19,96.19,0,0,0-3.13-15.58,4.52,4.52,0,0,0-1.25-2.09c2.14-3,4.3-6.39,6.74-10.5,1.53-2.57,2.91-5.21,4.25-7.77.46-.89.93-1.78,1.41-2.66,2.92-.12,6.09-1.54,6.87-4.58,0-.06,0-.13,0-.19a6.11,6.11,0,0,0,2.15-1,4.83,4.83,0,0,0,1.76-5.07c-.88-3.37-5.07-4.85-5.12-4.87a10.6,10.6,0,0,0-2.47-.51c.1-1.22.18-2.47.18-3.78a59,59,0,0,0-.68-9.48c-.16-1-.36-2-.58-3a4.67,4.67,0,0,0,.6-.38,46.65,46.65,0,0,0,11.95,3.72,4.87,4.87,0,0,0,.76.06,4.52,4.52,0,0,0,3.41-7.49ZM150.27,51.17l.21-.07L145,56.43Z"/><path d="M120.21,254.59c-1.08,0-2.17-.05-3.26-.15-12.24-1.15-20.46-8.8-22.22-20.58-.24.91-.51,1.82-.84,2.73a10.69,10.69,0,0,1-3.73,5,10.68,10.68,0,0,1-4.7,3.8,28.93,28.93,0,0,1-11.17,2.24,28.64,28.64,0,0,1-6.07-.65c-.71-.16-1.42-.34-2.09-.54A30.25,30.25,0,0,1,63,245.32c-.56-.25-1.11-.51-1.63-.78A24.71,24.71,0,0,1,58.73,243a26.76,26.76,0,0,1-3-2.37A23.53,23.53,0,0,1,54,238.86l0,0c-.2-.21-.43-.46-.64-.71A40.86,40.86,0,0,1,49.64,233c-.26-.42-.51-.85-.74-1.28-.42-.74-.8-1.5-1.14-2.24a32.64,32.64,0,0,1-3-11.31c0-.53-.06-1.06-.08-1.58-.07-2.63-.18-5.26-.27-7.27l-.17-3.69c0-1.25-.11-2.49-.16-3.74a10.68,10.68,0,0,1,1.33-5.61c-.76-1.21-1.53-2.49-2.33-3.83-1.55-2.63-2.94-5.25-4.27-7.8a12.86,12.86,0,0,1-7.91-5.75,10.67,10.67,0,0,1-1.19-.79,11,11,0,0,1-4-11.5c1.19-4.56,4.91-7.12,7.21-8.31,0-1.14,0-2.23.09-3.28-1.38.36-2.79.65-4.21.89A10.66,10.66,0,0,1,19,138.41c.14-.16,1-1.2,2.33-2.84a10.41,10.41,0,0,1-.22-2.31,10.58,10.58,0,0,1,3.22-7.5L26,124.12c.07-.33.17-.67.27-1a10.67,10.67,0,0,1,2.41-12.82c.21-.19,4.64-4.13,9-7.32.94-5.19.43-14.64-16.8-32A10.66,10.66,0,0,1,28.5,52.82a10.41,10.41,0,0,1,1.58.12c1.85.27,7.64,1.6,14.72,7.77L46,59.53l.29-.27c-.22-.32-.44-.65-.65-1A48,48,0,0,1,38.92,40a75.47,75.47,0,0,1-.77-21.34A10.63,10.63,0,0,1,49.68,9.19q3.06.26,6.11.54h.11c2.9.26,5.78.52,8.64.76,1.79.15,3.57.29,5.36.42a28.47,28.47,0,0,1,7.25,1.51,30.83,30.83,0,0,1,6.34,3.06c.55.35,1.09.71,1.62,1.09a31.89,31.89,0,0,1,2.64,2.09c.26.22.51.44.75.67l.33-.41c2.82-3.5,5.78-6.77,8.65-9.93,1.14-1.27,2.28-2.52,3.42-3.81A10.93,10.93,0,0,1,109,1.59q.33,0,.66,0a10.68,10.68,0,0,1,9.48,6.57l.07.16a11.38,11.38,0,0,1,1.66-.12,10.63,10.63,0,0,1,7.54,3.12l7.06,7.06.37-.59a10.68,10.68,0,0,1,16.47-1.95q1.59,1.56,3.17,3.06l.19.18L159,22.25a32.86,32.86,0,0,1,5.53-4.43,47.71,47.71,0,0,1,18.33-6.73,83.08,83.08,0,0,1,13.7-1.21,68.9,68.9,0,0,1,7.64.43,10.59,10.59,0,0,1,9.42,11.52c-.15,1.8-.31,3.58-.47,5.36l-.07.75q-.41,4.41-.77,8.77c-.15,1.78-.3,3.57-.43,5.35a28.63,28.63,0,0,1-1.51,7.26,30.07,30.07,0,0,1-3.06,6.34c-.34.54-.7,1.08-1.08,1.61-.66.92-1.36,1.81-2.09,2.65l-.47.52a27.91,27.91,0,0,1,6.29,3.83c7.81-7.17,14.34-8.51,15.75-8.72a10.66,10.66,0,0,1,9.15,18.06C217.61,91,217.1,100.42,218,105.61c4.21,3.06,8.47,6.83,9,7.31a10.68,10.68,0,0,1,2.42,12.81,10.76,10.76,0,0,1,.18,6c3.59,5.21,7,9.12,7.09,9.26h0a10.66,10.66,0,0,1-8,17.67,10.84,10.84,0,0,1-1.8-.15c-1.41-.24-2.81-.54-4.2-.89.05,1,.08,2.14.09,3.28,2.31,1.19,6,3.75,7.22,8.31a11,11,0,0,1-4,11.5,11.89,11.89,0,0,1-1.17.78,12.64,12.64,0,0,1-7.61,5.68c-1.3,2.48-2.77,5.3-4.38,8-1.73,2.92-3.32,5.46-4.87,7.79l0,.06a102.92,102.92,0,0,1,3.31,16.56v.1c.11,1.06.19,2.11.24,3.12V223c0,1,.08,2.07.08,3.1v.17c0,1.08,0,2.15-.09,3.19-.49,8.67-7.27,16.65-16.86,19.85a25.1,25.1,0,0,1-2.7.75c-.46.1-.94.19-1.39.26s-1,.14-1.44.18a21.67,21.67,0,0,1-2.29.12,20.7,20.7,0,0,1-11.35-3.29,10.73,10.73,0,0,1-6.15-2.82,28.15,28.15,0,0,1-5.84-7.84c-.56.67-1.16,1.32-1.79,2A31.21,31.21,0,0,1,139.88,248h-.47l-.57,0C134.22,252.2,127.66,254.59,120.21,254.59Zm-13.43-23.31c.71,6.61,4.52,10.29,11.31,10.93.71.06,1.42.1,2.12.1,5.13,0,9.47-1.84,11.6-4.92l8.74-1.41a1.6,1.6,0,0,0-1-.32h.28a18.85,18.85,0,0,0,13.18-5.7,17.21,17.21,0,0,0,5.3-12.18v-.36l4-5.8a1.59,1.59,0,0,0-.32.16l.86-.71,3.55-2.25,7.65,1.4,1.6,9.48a8.29,8.29,0,0,0-2.47,5c-.43,3.59,1.37,7.86,4.59,10.87a1.64,1.64,0,0,0-1.48-.39l6.26,2.21a1.45,1.45,0,0,0-.38-.36,8.87,8.87,0,0,0,5.77,1.28l.73-.09.7-.14a12.5,12.5,0,0,0,1.42-.39c4.64-1.55,8.29-5.37,8.49-8.9,0-.82.07-1.68.07-2.56v-.15c0-.79,0-1.63-.07-2.47v-.15c0-.76-.11-1.63-.2-2.51v-.09a90.33,90.33,0,0,0-3-14.55,1.6,1.6,0,0,0,.44.74l-.77-8c2-2.9,4.11-6.1,6.47-10.08,1.45-2.45,2.79-5,4.08-7.48l1.43-2.71,5.19-3.25a2.74,2.74,0,0,0,1.39-.37.85.85,0,0,0-.23.41v0l3.38-3.54a4.51,4.51,0,0,0-.66-.33,4.61,4.61,0,0,0-1-.18l-5.57-6.64c.07-.89.16-2.06.16-3.26a51.52,51.52,0,0,0-.61-8.5c-.14-.86-.31-1.76-.51-2.67l3.12-6.64,6.08-.61a40.13,40.13,0,0,0,5.87,2.19c-1.94-2.47-4.56-6-7.06-9.88L218,130c-.13-.14-.33-.37-.6-.65L218.8,122a109,109,0,0,0-9.63-7.62l-2.54-3.58c-3.2-12.43.55-24.22,12.49-38.29A40.66,40.66,0,0,0,215,76.69l-8.72.57c-1.47-1.31-2.69-2.35-3.85-3.28-3.24-2.61-6.44-3.6-9.87-3a10,10,0,0,0-2.56.79l-7-1.28-1.81-1.86,2.9-10.25A21.28,21.28,0,0,0,191,55.28c.28-.19.56-.39.83-.6a20,20,0,0,0,3-2.85,20.29,20.29,0,0,0,1.34-1.69c.24-.34.48-.7.7-1a18.46,18.46,0,0,0,1.84-3.8,16.32,16.32,0,0,0,.86-4.15c.14-1.82.28-3.64.44-5.47.24-2.93.51-5.88.78-8.84l.06-.75.33-3.73a65,65,0,0,0-16.37.85,35.71,35.71,0,0,0-13.72,5,20,20,0,0,0-6.42,6.52l-10,.74a4.48,4.48,0,0,0-.36-.4c-2.29-2.42-4.66-4.68-7.16-7.08l-.19-.18L145.19,26c-1.14,1.9-2,3.54-2.77,5.07l-9.89,1.7L120.88,21.15l-.33.33-10-2-1.41-3.42c-.15-.38-.31-.76-.47-1.14l-2.07,2.3c-2.76,3-5.6,6.18-8.21,9.41a23.1,23.1,0,0,0-3.45,5.68l-11,.75c-.26-.43-.53-.87-.82-1.29s-.4-.56-.6-.83a21,21,0,0,0-2.85-3c-.54-.47-1.11-.92-1.7-1.34-.34-.25-.69-.48-1-.71A18.44,18.44,0,0,0,73.13,24,16.71,16.71,0,0,0,69,23.17c-1.82-.13-3.65-.28-5.47-.43-2.9-.24-5.8-.5-8.72-.77h-.11l-4.49-.4A65,65,0,0,0,51,37.93a36,36,0,0,0,5,13.72,20.57,20.57,0,0,0,3.9,4.52L57.3,66.81a6.21,6.21,0,0,0-2.81,1.62c-1.9,1.8-3.7,3.65-5.22,5.23l-9-.17a39,39,0,0,0-3.63-3.58c12,14.07,15.7,25.86,12.49,38.29l-2.54,3.58A110.89,110.89,0,0,0,37,119.4l1.44,7.29c-.39.41-.65.7-.73.8a1.68,1.68,0,0,0,.38-1.23l-1.82,5.08-3.14,3.06.27,5.71c-.74,1-1.43,1.88-2.05,2.67a39.88,39.88,0,0,0,4.74-1.69l6.82,1.36L44.41,144l1.64,5.43c-.07.36-.13.71-.19,1a53.8,53.8,0,0,0-.61,8.5c0,.94,0,2,.17,3.26l-5.59,6.65a4.43,4.43,0,0,0-.94.17,3.9,3.9,0,0,0-.64.33l3.35,3.5a.88.88,0,0,0-.22-.39,2.87,2.87,0,0,0,1.49.36l5.37,3.27c.45.85.9,1.7,1.34,2.55,1.31,2.49,2.65,5,4.09,7.48,1.68,2.84,3.23,5.32,4.73,7.56l-2.67,9a1.58,1.58,0,0,0,.64-1.35c.06,1.23.11,2.46.17,3.7l.16,3.7c.09,2.06.2,4.77.28,7.46,0,.33,0,.67.05,1a20.66,20.66,0,0,0,1.87,7.07c.22.48.47,1,.74,1.45.16.29.32.58.5.86a30.11,30.11,0,0,0,2.58,3.58l.18.2.12.13c.35.38.66.69,1,1a13.81,13.81,0,0,0,1.61,1.27,16.35,16.35,0,0,0,1.43.85c.28.14.58.29.89.42a15.42,15.42,0,0,0,1.73.65c.38.12.78.22,1.18.31a16.78,16.78,0,0,0,9.9-.93l1.59-1.63a15.85,15.85,0,0,0,.4-9.83c-.1-.35-.21-.7-.32-1l11.09-5.11c1.08,1.81,1.87,2.91,1.88,2.92a1.62,1.62,0,0,0-1-.64c0,.19.11.38.16.57l7.22,2.39a13.09,13.09,0,0,0,2.11,3.21c.33.37.67.71,1,1l1.85,5.84A1.49,1.49,0,0,0,106.78,231.28Zm-26,2.81a1.64,1.64,0,0,0-.88.91Zm2.47-2.55a1.62,1.62,0,0,0-.88.92Zm136.93-54.66h0ZM41.66,173.15l0,.24C41.69,173.31,41.67,173.23,41.66,173.15Zm176.57-.55ZM37.08,168.29Zm190.39-19.21h0ZM28.32,146.43h0ZM33,132.32l.1,2.05a1.6,1.6,0,0,0,.32-1A1.55,1.55,0,0,0,33,132.32Zm185.18-4.39a1.59,1.59,0,0,0-.21,2Zm1.15-8.52a1.59,1.59,0,0,0-.74.64,1.63,1.63,0,0,0,.22,2ZM36.45,116.79,37,119.4a1.62,1.62,0,0,0,.23-2A1.66,1.66,0,0,0,36.45,116.79ZM48.6,21.42h0Zm126,188.89h0ZM149.31,60.82l-8.64-8.74,5.26-5.25,2.42-1.47,6.42,10.14Z"/></g><g id="Layer_1" data-name="Layer 1"><path class="cls-1" d="M60.63,71a8.62,8.62,0,0,1-2.32,1.93c-1.08.57-2.25,1-3.38,1.42l-4.06,1.69c.64-.07,1.26-.18,1.88-.3s1-.22,1.57-.35l.1,0c.52-.13,1-.27,1.55-.43h0a10.08,10.08,0,0,1,1.33-.35l.26,0h.37a1.89,1.89,0,0,1,.58.08l.06,0a1.52,1.52,0,0,1,.43.2l.06,0a3.07,3.07,0,0,1,.29.24,2.94,2.94,0,0,1,.51.65c.2-.27.38-.54.56-.78a2.11,2.11,0,0,1,2-1.07l.33.06c0,1-.1,1.93-.15,3.06,0,.37,0,.77-.06,1.19.12-.23.24-.44.35-.66L65,73.63h0l.17,0,1.15.21h0A6.68,6.68,0,0,1,66,78.42c-.07.17-.14.33-.22.49l-.25.47c-.17.31-.37.61-.57.91-2,2.79-5.43,4.7-8.28,4-.56-.14-1.12-.29-1.67-.46l-.06,0c-.54-.16-1.08-.34-1.61-.54l-.07,0c-.54-.2-1.07-.41-1.6-.63l0,0a60.3,60.3,0,0,1-8.67-4.7c3.6-3.69,6.9-7.29,10.43-10.64,4.85-4.62,10.56-1.2,12.82,3.42C64.34,72.1,62.41,71,60.63,71Z"/><path class="cls-1" d="M63.65,21.12c1.82.16,3.64.3,5.46.44a17.87,17.87,0,0,1,4.55,1,19.73,19.73,0,0,1,4.14,2q.56.34,1.11.75a21.47,21.47,0,0,1,1.83,1.44A22.08,22.08,0,0,1,83.81,30c.22.29.44.59.65.89A24.35,24.35,0,0,1,88.55,44.6c0,.39,0,.78,0,1.17,0,.78-.09,1.58-.18,2.37,0,.4-.1.8-.16,1.2a36,36,0,0,1-3,9.71h0c-.33-.36-.64-.72-1-1.09-.64-.74-1.26-1.49-1.9-2.23a57.44,57.44,0,0,0-5-5.35l-.63-.54a21.1,21.1,0,0,1-3.78-3.35,5.7,5.7,0,0,1-1.18-3l-.47.18-2,.75c-.64-1.36-1.27-2.7-1.91-4l-1.9-4-1.3,1-.58.42-.56.41h0c-1.32-1.3-2.52-2.49-3.73-3.67C62.61,41.87,65.7,49.4,74,52.75l-2.17,3.1,9.91,5.3c-.25.26-.34.44-.48.48-8.15,2.31-19.9,1.32-26.58-9.1a37.67,37.67,0,0,1-5.2-14.33,66,66,0,0,1-.7-18.39h0C53.78,20.25,58.73,20.71,63.65,21.12Z"/><path class="cls-1" d="M116.28,35q0,.49-.09,1a28.71,28.71,0,0,1-.83,4.31c0,.18-.11.35-.17.53-.14.43-.29.86-.47,1.27a13.28,13.28,0,0,1-1,1.92,15.85,15.85,0,0,1-1,1.44c-.22.28-.44.54-.66.8a17.45,17.45,0,0,1-1.35,1.37c-.31.27-.64.54-1,.8a17.28,17.28,0,0,1-9.69,3.44,16.73,16.73,0,0,1,0-2.74c.34-4.4,2.39-8.25,5.18-12l-2.89.07h-.44l.38-.77c.66-1.34,1.28-2.6,1.87-3.84.23-.49.46-1,.68-1.47s.45-1.43.19-1.72h0a3,3,0,0,1-.29-.38l-.09-.17-.09-.19a.83.83,0,0,1-.06-.21.43.43,0,0,1,0-.11,1.94,1.94,0,0,1,.32-1.32h0c.13-.22.28-.44.44-.66h0c.43-.6.79-1.27,1.18-1.9l-.7-.29C99.43,31.72,99.08,41.42,97,50.7a16.57,16.57,0,0,1-4.68-9.06c-1-6.12,1.1-11.4,4.81-16s7.81-8.91,11.74-13.34c0,0,.14,0,.26,0h.18c.45,1.07.89,2.14,1.33,3.22s.88,2.15,1.33,3.23q1.32,3.23,2.7,6.44c.14.31.26.63.38.94a20.78,20.78,0,0,1,1.3,7.31C116.34,33.94,116.32,34.48,116.28,35Z"/><path class="cls-1" d="M151.76,41.17a8.65,8.65,0,0,1-1.92-2.33,35.85,35.85,0,0,1-1.43-3.37l-1.68-4.06c.07.64.17,1.26.29,1.88s.23,1.05.36,1.57a.36.36,0,0,0,0,.1c.13.52.28,1,.43,1.55h0a12,12,0,0,1,.36,1.33l0,.26a2.3,2.3,0,0,1,0,.37,2.25,2.25,0,0,1-.08.58s0,0,0,.06a1.86,1.86,0,0,1-.2.43l0,.06a3.07,3.07,0,0,1-.24.29,2.94,2.94,0,0,1-.65.51l.79.56a2.1,2.1,0,0,1,1.06,2c0,.1,0,.21-.05.33l-3.06-.15-1.19-.06.65.35,3.94,2.1h0l0,.17c-.08.42-.15.8-.21,1.15h0a6.71,6.71,0,0,1-4.56-.34l-.48-.22c-.16-.08-.32-.16-.47-.25a7.8,7.8,0,0,1-.91-.58c-2.79-2-4.7-5.43-4-8.27.14-.56.3-1.12.46-1.67l0-.06c.17-.54.35-1.08.54-1.61l0-.07c.19-.54.4-1.07.63-1.6v0a61.3,61.3,0,0,1,4.7-8.67c3.7,3.6,7.29,6.9,10.65,10.43,4.61,4.85,1.19,10.56-3.42,12.82C150.68,44.88,151.83,42.94,151.76,41.17Z"/><path class="cls-1" d="M201.65,35.82c-.15,1.82-.3,3.63-.43,5.45a18,18,0,0,1-.95,4.56,20.16,20.16,0,0,1-2,4.13c-.24.38-.49.75-.75,1.12-.46.64-.94,1.24-1.44,1.82A22.54,22.54,0,0,1,192.8,56c-.29.23-.59.44-.9.65a24.14,24.14,0,0,1-13.72,4.09c-.39,0-.78,0-1.17,0-.79,0-1.58-.08-2.38-.18-.39,0-.79-.09-1.2-.16a36.24,36.24,0,0,1-9.71-3h0l1.1-1,2.23-1.89a54.93,54.93,0,0,0,5.34-5c.19-.2.37-.42.54-.63a21.79,21.79,0,0,1,3.35-3.77,5.77,5.77,0,0,1,3-1.18c-.06-.17-.12-.32-.17-.48l-.75-2,4-1.91,4-1.91-1-1.3q-.22-.29-.42-.57l-.42-.56h0l3.68-3.73c-7.41,3.29-14.93,6.39-18.28,14.64L166.93,44l-5.31,9.92c-.25-.26-.44-.35-.47-.48-2.32-8.15-1.33-19.91,9.1-26.59a37.49,37.49,0,0,1,14.33-5.19,65.58,65.58,0,0,1,18.39-.7h0C202.53,26,202.07,30.89,201.65,35.82Z"/><path class="cls-1" d="M196.88,86.07c-.23,0-.46,0-.69-.06a20.21,20.21,0,0,1-3-.58l-.37-.12a9.25,9.25,0,0,1-.88-.32,10.52,10.52,0,0,1-1.34-.68,11.26,11.26,0,0,1-1-.69l-.55-.46a9.36,9.36,0,0,1-.95-.94c-.2-.22-.38-.44-.56-.68a12,12,0,0,1-2.4-6.75,12.18,12.18,0,0,1,1.91,0c3.07.23,5.75,1.66,8.37,3.61,0-.73,0-1.3-.05-2v-.31l.54.26,2.67,1.3,1,.47c.36.17,1,.32,1.19.14h0a3.4,3.4,0,0,1,.27-.21l.12-.06.13-.06.15,0h.07a1.37,1.37,0,0,1,.93.23h0a3.91,3.91,0,0,1,.45.3h0c.43.3.89.55,1.33.82.07-.16.13-.32.2-.49-5.25-4.39-12-4.64-18.48-6.1a11.64,11.64,0,0,1,6.32-3.26c4.26-.72,7.95.77,11.16,3.36s6.21,5.44,9.3,8.18c0,0,0,.1,0,.18h0a.49.49,0,0,0,0,.12h0l-2.25.92-2.25.93c-1.5.62-3,1.24-4.49,1.88-.22.1-.44.18-.66.26a14.15,14.15,0,0,1-5.09.91C197.64,86.11,197.26,86.1,196.88,86.07Z"/><path class="cls-1" d="M58.22,226.56c.17.31.35.61.53.91a31.51,31.51,0,0,0,2.73,3.79c.13.15.27.28.4.43q.49.54,1,1a16.27,16.27,0,0,0,1.8,1.42,14.25,14.25,0,0,0,1.6.94q.48.26,1,.48a15.58,15.58,0,0,0,1.91.71c.42.13.86.24,1.29.34a18.31,18.31,0,0,0,10.88-1,18.17,18.17,0,0,0-1.21-2.64c-2.3-4.1-6-6.89-10.37-9.26l2.81-1.24.43-.19c-.24-.2-.48-.38-.71-.58-1.23-1-2.4-1.93-3.52-2.86-.44-.37-.88-.74-1.31-1.12s-1.07-1.17-.95-1.57h0a3.49,3.49,0,0,0,.11-.5,1.34,1.34,0,0,0,0-.2,1.61,1.61,0,0,0,0-.22,2,2,0,0,0,0-.24l0-.11a2.09,2.09,0,0,0-.91-1.13h0c-.22-.15-.46-.3-.71-.44h0c-.69-.39-1.33-.87-2-1.31l.54-.59C73,215.82,77.66,225,83.84,233a17.56,17.56,0,0,0,.45-10.84c-1.74-6.36-6.16-10.51-11.8-13.29S61,203.81,55.2,201.3c-.06,0-.15,0-.27.08h0l-.17.08h0c.05,1.23.1,2.46.16,3.7s.11,2.47.16,3.71c.11,2.47.21,4.95.28,7.43,0,.36,0,.71.06,1.07a21.85,21.85,0,0,0,2,7.63C57.68,225.53,57.94,226.05,58.22,226.56Z"/><path class="cls-1" d="M179.68,228.72a13.49,13.49,0,0,0,3.87-2.55c1.32-1.32,2.41-2.87,3.6-4.31q2.15-2.61,4.3-5.2c-.39.9-.83,1.77-1.29,2.62s-.79,1.45-1.22,2.15a1,1,0,0,1-.08.14c-.43.7-.87,1.4-1.33,2.08h0a17.54,17.54,0,0,0-1.12,1.79c-.06.12-.11.25-.17.37a4.72,4.72,0,0,0-.18.53,3.39,3.39,0,0,0-.15.89v.09a3.06,3.06,0,0,0,.1.73l0,.1a4.6,4.6,0,0,0,.22.53,4.81,4.81,0,0,0,.72,1.05c-.48.16-.95.3-1.4.47a3.22,3.22,0,0,0-2.45,2.44,4.08,4.08,0,0,0-.07.52l4.55,1.15,1.77.45-1.11.22-6.72,1.32h0l0,.26c-.07.64-.14,1.24-.2,1.78h0a10.26,10.26,0,0,0,6.83,1.54l.8-.1.81-.15c.53-.12,1.06-.27,1.59-.44,5-1.67,9.33-5.86,9.58-10.34,0-.89.08-1.78.08-2.66v-.1c0-.87,0-1.74-.07-2.61,0,0,0-.07,0-.11,0-.87-.12-1.75-.2-2.63v-.06a91.89,91.89,0,0,0-3-14.84c-7,3.63-13.78,6.86-20.29,10.53-8.94,5.05-6.49,15-.73,20.34C179.6,234.65,178.79,231.29,179.68,228.72Z"/><path class="cls-1" d="M141,195.15c1,1.86,2,3.74,3,5.57,5.37,9.21,2.94,17.89-1.93,26.33-2.13,3.7-5.32,5.07-9.66,4-8-1.87-15.25-5-20.77-11.3-4.52-5.17-5-9.92-1.35-16,4-6.67,9.85-11.52,15.9-16.17.67-.52,1.38-1,2-1.5,4-3.05,6.43-2.64,9,1.64,1.41,2.36,2.64,4.81,3.95,7.23Zm-18.49,7.76a15.7,15.7,0,0,0-7.44,9.35c-1.25,3.93-1,6.27,2.46,8.22a130.08,130.08,0,0,0,15.78,7c.91.36,2.53-.23,3.45-.89a16.07,16.07,0,0,0,5.73-17.23c-.69-2.17-2-4.79-3.77-5.85A16.94,16.94,0,0,0,122.5,202.91Z"/><path class="cls-1" d="M140.43,184c5.28,1.14,8.56,4.26,11.16,8A44.54,44.54,0,0,1,160,217.77c.05,10.41-9.7,19.69-20.41,19.51,2.24-5,4.26-10.12,6.72-15,6.62-13.11,4-25-4.39-36.18C141.49,185.56,141.13,185,140.43,184Z"/><path class="cls-1" d="M162.92,213.14c-.57-6,1.25-10.61.6-15.6-.46-3.55-1.2-6.64-2-10.14-1.15-5.16-6.24-9.92-11.15-12-5.93-2.52-12-4.78-18-7.07a14.87,14.87,0,0,1-4.31-1.85c1.19-.41,2.36-.91,3.57-1.22,14.71-3.81,33.45,6.84,37.56,21.46C171.9,196.28,168.58,204.55,162.92,213.14Z"/><path class="cls-1" d="M105.17,231.45c5.08.82,10,1.68,14.85,2.38s9.6,1.21,14.43,1.81c-1.7,5.66-8.45,8.93-16.51,8.18C110.52,243.12,106,238.81,105.17,231.45Z"/><path class="cls-1" d="M120.74,230.26c-6.61,1.07-13.26,1.2-18.06-4.26-5.64-6.39-3.83-13.74-1.27-21.05C102.33,217.65,111.15,224.12,120.74,230.26Z"/><path class="cls-1" d="M122,183.35,106,201.54C103.75,191.89,110.62,183.88,122,183.35Z"/><path class="cls-1" d="M131,207.49c7.27-1.11,9.41.83,8.67,7.52a27.48,27.48,0,0,1-1.33,5.86,4.43,4.43,0,0,1-5.27,3c-2.5-.36-2.81-2.28-2.73-4.29C130.48,215.63,130.74,211.63,131,207.49Z"/><path class="cls-1" d="M125.81,222.06c-2.33-1.84-4.76-3.58-6.93-5.59a2.84,2.84,0,0,1,0-2.74c1.68-2.11,3.65-4,5.92-6.37a22.55,22.55,0,0,1,2,13.84Z"/><path class="cls-1" d="M147.3,179.06a49.87,49.87,0,0,0-28-.72c-15.08,4.12-30.37,20.59-25.23,42,0,0-9.53-13.14-8.37-24.73S109.5,154.38,147.3,179.06Z"/><path class="cls-1" d="M158.45,199.58s-3.5-14.46-9.87-18.17C148.58,181.41,162.16,181.82,158.45,199.58Z"/><path class="cls-1" d="M28.5,63.48s7.13,1.07,15.49,12c8,10.45,9.21,23.7,9.76,30.08.73,8.27-17.47,34.19-17.47,34.19s26.67-15.34,22.36-39c0,0,7.78,15.2,5,30.37-3.4,18.34-4.67,27.25-3,41.17s21.89,36.45,21.89,36.45a44.28,44.28,0,0,1-24-23.89c-7.51-18.16-7.36-30.52-6.07-37.18s1.27-18.48,1.27-18.48a41.1,41.1,0,0,1-26.59,16.28s12-13.83,16.39-25.89C48.33,106,57.16,92.36,28.5,63.48Z"/><path class="cls-1" d="M43.63,159a54.85,54.85,0,0,1,.63-8.76c.22-1.31.49-2.64.81-4a17.23,17.23,0,0,0,3.23-.4,1.62,1.62,0,0,0-.1.18c2.27-.81,4.38-1.63,6.35-2.48a17.91,17.91,0,0,0,.33,2.56L47.3,150c-.78,5.3-1.63,11-2.47,16.68l-.6.19C44,164.28,43.63,161.7,43.63,159Z"/><path class="cls-1" d="M46.53,114.25l-10.73,4s9.52-8.47,13.24-9.64S46.53,114.25,46.53,114.25Z"/><path class="cls-1" d="M43.24,123.78c-.67.25-6.8,2.66-6.8,2.66s4.46-5.34,8.5-5.33S43.24,123.78,43.24,123.78Z"/><path class="cls-1" d="M43.08,139.16s2,.68-.62,3.35c0,0,8.16-2.33,5.66-7.63Z"/><path class="cls-1" d="M43.41,168.89c-2,1.15-3.65,3.36-3.38,4.44.21.79,2.18,1.41,3.71,1.11A4.22,4.22,0,0,0,45,174c3.57-2,4.61-5.39,1.9-6.25a6.85,6.85,0,0,0-1.09-.12,4.47,4.47,0,0,0-.72.87c-.29.71-.47,1.41-.69,2.12-.07.2-.12.4-.19.65C43.46,170.89,43.33,170.48,43.41,168.89Z"/><path class="cls-1" d="M42,167.59a5.39,5.39,0,0,0-3.66,0,4.35,4.35,0,0,0-2.23,1.74.34.34,0,0,0,.14.33c1,.79,4.3.21,6-1.07a3.88,3.88,0,0,0,.45-.46,3.24,3.24,0,0,0-.7,0c-.67.09-1.34.22-2,.34l-.63.12A8,8,0,0,1,42,167.59Z"/><polygon class="cls-1" points="69.85 146.18 130.22 218.68 190.7 138.7 148.8 76.36 117.56 68.34 95.36 84.62 69.85 146.18"/><path class="cls-1" d="M124.59,228.58l-5-5.13-87.78-90L69.31,96.83l56,57.43,57.43-56L219.3,135.8l-90.2,87.92ZM51.11,133.65,124.6,209,200,135.55l-17.5-18-57.43,56-56-57.43Z"/><path class="cls-1" d="M124.11,139.32l-4.43-5.54L62.33,74.94l1.38-1.34-1.38-1.41,27.4-26.71L125.3,82,161.79,46.4,188.5,73.8l-1.38,1.34,1.38,1.42ZM81.65,75.19l43.21,44.33,44.32-43.21L167.8,74.9l1.38-1.35-7.64-7.83-36.49,35.56L89.49,64.8l-7.84,7.63L83,73.85Z"/><path class="cls-1" d="M120.88,74.17,93.22,46.52l27.66-27.66,27.65,27.66Zm-8.34-27.65,8.34,8.33,8.33-8.33-8.33-8.34Z"/><path class="cls-1" d="M227.26,66.1s-7.13,1.07-15.49,12c-8,10.45-9.2,23.69-9.76,30.08-.72,8.26,17.47,34.19,17.47,34.19s-26.67-15.35-22.35-39c0,0-7.79,15.2-5,30.37,3.4,18.34,4.67,27.25,3,41.17s-21.88,36.45-21.88,36.45a44.28,44.28,0,0,0,24-23.89c7.51-18.17,7.36-30.52,6.07-37.18s-1.26-18.48-1.26-18.48A41.06,41.06,0,0,0,228.7,148s-12.06-13.83-16.4-25.9C207.43,108.58,198.6,95,227.26,66.1Z"/><path class="cls-1" d="M212.13,161.63a53.63,53.63,0,0,0-.63-8.76c-.21-1.31-.48-2.64-.81-4a16.69,16.69,0,0,1-3.23-.41l.11.19c-2.27-.81-4.39-1.63-6.36-2.49a17.87,17.87,0,0,1-.32,2.57l7.57,3.9c.79,5.3,1.63,11,2.48,16.68l.6.19C211.75,166.9,212.13,164.32,212.13,161.63Z"/><path class="cls-1" d="M209.24,116.87l10.73,4s-9.52-8.47-13.24-9.64S209.24,116.87,209.24,116.87Z"/><path class="cls-1" d="M212.53,126.4l6.8,2.66s-4.46-5.34-8.51-5.33S212.53,126.4,212.53,126.4Z"/><path class="cls-1" d="M212.69,141.78s-2,.68.62,3.35c0,0-8.16-2.33-5.67-7.63Z"/><path class="cls-1" d="M212.35,171.51c2,1.14,3.66,3.36,3.38,4.44-.2.79-2.17,1.41-3.71,1.11a4.66,4.66,0,0,1-1.22-.47c-3.57-2-4.6-5.39-1.9-6.25a7.12,7.12,0,0,1,1.1-.12,4.86,4.86,0,0,1,.72.87c.29.71.47,1.41.69,2.12.06.2.11.4.18.65C212.31,173.51,212.43,173.09,212.35,171.51Z"/><path class="cls-1" d="M213.81,170.21a5.39,5.39,0,0,1,3.66,0,4.32,4.32,0,0,1,2.22,1.73.33.33,0,0,1-.14.34c-1,.79-4.3.21-6-1.07a3.78,3.78,0,0,1-.44-.46,3.24,3.24,0,0,1,.7,0c.66.09,1.34.22,2,.34l.62.12A8,8,0,0,0,213.81,170.21Z"/><path class="cls-1" d="M203.69,189.77c-2.24,3.79-4.6,7.53-7.18,11.09-1.13,1.57-2.31,3.11-3.52,4.63a8.47,8.47,0,0,0-1.92-2l.2-.16a37.94,37.94,0,0,0-5.11-1.72c.66-1.2,1.28-2.42,1.85-3.65l6.82.81,14.31-20.11.45.22C207.63,182.51,205.8,186.22,203.69,189.77Z"/><path class="cls-1" d="M52.27,187c2.25,3.78,4.6,7.52,7.18,11.08q1.71,2.35,3.53,4.63a8.47,8.47,0,0,1,1.92-2l-.2-.16a37.47,37.47,0,0,1,5.11-1.72c-.66-1.2-1.28-2.42-1.85-3.65l-6.82.81c-4.55-6.38-9.43-13.24-14.31-20.1l-.45.21C48.33,179.75,50.17,183.47,52.27,187Z"/><polygon class="cls-2" points="202.55 132.68 204.54 130.81 179.1 105.68 125.06 156.4 72.38 104.37 46.28 128.86 48.18 130.73 46.28 132.7 46.28 132.7 46.28 132.7 48.16 134.56 46.28 136.39 46.28 136.39 46.28 136.39 105.77 197.42 124.17 216.29 124.17 216.29 124.39 216.52 124.4 216.5 124.42 216.52 204.54 138.41 202.63 136.45 204.54 134.65 202.55 132.68"/><polygon class="cls-2" points="124.17 135.2 124.17 135.2 124.64 135.68 124.65 135.67 124.66 135.68 175.56 86.06 174.64 85.11 175.56 84.25 173.87 82.58 175.56 80.99 159.4 65.03 125.07 97.24 91.6 64.19 75.02 79.75 76.71 81.42 75.02 83.02 75.92 83.9 75.02 84.77 124.17 135.2"/><polygon class="cls-2" points="120.92 71.34 120.92 71.34 121.02 71.45 137.95 54.52 137.63 54.2 137.95 53.89 121.02 37.59 120.92 37.69 120.92 37.69 104.09 53.89 104.41 54.2 104.09 54.52 120.92 71.34"/><polygon class="cls-3" points="46.28 130.53 124.39 210.66 124.4 210.65 124.42 210.66 204.54 132.56 179.1 106.46 125.06 159.13 72.38 105.09 46.28 130.53"/><polygon class="cls-3" points="75.02 78.92 124.64 129.82 124.65 129.82 124.66 129.82 175.56 80.2 159.4 63.62 125.07 97.09 91.6 62.76 75.02 78.92"/><rect class="cls-3" x="109.05" y="36.69" width="23.95" height="23.95" transform="translate(1.04 99.83) rotate(-45)"/><polygon class="cls-4" points="46.28 123.01 124.39 200.15 124.4 200.14 124.42 200.15 204.54 124.95 179.1 99.83 125.06 150.54 72.38 98.52 46.28 123.01"/><polygon class="cls-5" points="46.28 126.85 124.39 203.99 124.4 203.98 124.42 203.99 204.54 128.8 179.1 103.67 125.06 154.38 72.38 102.36 46.28 126.85"/><polygon class="cls-6" points="75.02 73.89 124.64 122.9 124.65 122.89 124.66 122.9 175.56 75.13 159.4 59.17 125.07 91.39 91.6 58.34 75.02 73.89"/><polygon class="cls-4" points="75.02 77.16 124.64 126.17 124.65 126.16 124.66 126.17 175.56 78.4 159.4 62.43 125.07 94.65 91.6 61.6 75.02 77.16"/><polygon class="cls-4" points="121.02 31.73 137.95 48.03 121.02 64.33 104.09 48.03 121.02 31.73"/><polygon class="cls-7" points="124.17 158.22 72.38 105.09 46.28 130.53 124.17 210.43 124.17 158.22"/><polygon class="cls-8" points="124.17 96.17 91.6 62.76 75.02 78.92 124.17 129.34 124.17 96.17"/><polygon class="cls-9" points="120.92 31.83 104.09 48.66 120.92 65.49 120.92 31.83"/><polygon class="cls-10" points="124.17 157.88 69.81 102.36 46.28 123.01 124.17 199.93 124.17 157.88"/><polygon class="cls-11" points="124.17 158.22 69.81 102.36 46.28 126.85 124.17 203.77 124.17 158.22"/><polygon class="cls-12" points="124.17 96.17 91.6 62.76 78 75.97 124.17 122.44 124.17 96.17"/><polygon class="cls-13" points="124.17 93.77 91.6 61.6 75.02 77.16 124.17 125.7 124.17 93.77"/><polygon class="cls-14" points="120.92 31.83 104.09 48.03 120.92 64.23 120.92 31.83"/><polygon class="cls-15" points="107.97 44.3 120.92 31.83 133.55 43.79 121.79 33.81 121.02 51.9 119.75 34.17 107.97 44.3"/><polygon class="cls-16" points="107.33 78.53 125.07 94.65 145.13 77.65 125.55 96.83 124.64 126.17 124.17 96.83 107.33 78.53"/><polygon class="cls-17" points="83.31 116.15 124.17 166.9 166.98 118.27 124.17 158.22 83.31 116.15"/></g></svg>
