<svg id="Layer_1" data-name="Layer 1" xmlns="http://www.w3.org/2000/svg" xmlns:xlink="http://www.w3.org/1999/xlink" viewBox="0 0 256 256" width="256" height="256"><defs><style>.cls-1{fill:#1b467d;}.cls-2{fill:#112c4e;}.cls-3{fill:#7034c5;}.cls-4{fill:url(#radial-gradient);}.cls-5{fill:url(#radial-gradient-3);}.cls-6{fill:url(#linear-gradient);}.cls-7{fill:url(#linear-gradient-2);}.cls-8{fill:url(#linear-gradient-3);}.cls-9{fill:url(#linear-gradient-4);}.cls-10{fill:url(#linear-gradient-5);}.cls-11{fill:url(#linear-gradient-6);}.cls-12{fill:url(#linear-gradient-7);}.cls-13{fill:url(#linear-gradient-8);}.cls-14{fill:url(#linear-gradient-9);}.cls-15{fill:url(#linear-gradient-10);}.cls-16{fill:url(#linear-gradient-11);}</style><radialGradient id="radial-gradient" cx="122.4" cy="322.02" r="197.36" gradientTransform="translate(0 16.62) scale(1 0.96)" gradientUnits="userSpaceOnUse"><stop offset="0" stop-color="#fe958d" stop-opacity="0.92"/><stop offset="1" stop-color="#ff00f6" stop-opacity="0"/></radialGradient><radialGradient id="radial-gradient-3" cx="125.74" cy="223.91" r="197.36" xlink:href="#radial-gradient"/><linearGradient id="linear-gradient" x1="52.93" y1="160.9" x2="347.86" y2="160.9" gradientUnits="userSpaceOnUse"><stop offset="0" stop-color="#fff" stop-opacity="0"/><stop offset="1" stop-color="#fff"/></linearGradient><linearGradient id="linear-gradient-2" x1="52.93" y1="92.66" x2="347.86" y2="92.66" xlink:href="#linear-gradient"/><linearGradient id="linear-gradient-3" x1="52.93" y1="40.26" x2="347.86" y2="40.26" xlink:href="#linear-gradient"/><linearGradient id="linear-gradient-4" x1="52.93" y1="153.58" x2="347.86" y2="153.58" xlink:href="#linear-gradient"/><linearGradient id="linear-gradient-5" x1="52.93" y1="155.7" x2="347.86" y2="155.7" xlink:href="#linear-gradient"/><linearGradient id="linear-gradient-6" x1="57.22" y1="88.84" x2="334.28" y2="88.84" xlink:href="#linear-gradient"/><linearGradient id="linear-gradient-7" x1="52.93" y1="90.01" x2="347.86" y2="90.01" xlink:href="#linear-gradient"/><linearGradient id="linear-gradient-8" x1="52.93" y1="39.57" x2="347.86" y2="39.57" xlink:href="#linear-gradient"/><linearGradient id="linear-gradient-9" x1="118.67" y1="51" x2="119.89" y2="36.53" xlink:href="#linear-gradient"/><linearGradient id="linear-gradient-10" x1="120.08" y1="143.86" x2="123.13" y2="107.62" xlink:href="#linear-gradient"/><linearGradient id="linear-gradient-11" x1="118.68" y1="189.55" x2="121.85" y2="151.88" xlink:href="#linear-gradient"/></defs><path class="cls-1" d="M53.52,65A9.77,9.77,0,0,1,51,67.11c-1.19.63-2.48,1.06-3.73,1.57l-4.49,1.87c.7-.08,1.39-.2,2.08-.33S46,70,46.54,69.83l.11,0c.58-.14,1.15-.3,1.72-.48h0a14.59,14.59,0,0,1,1.47-.39l.29,0a2.67,2.67,0,0,1,.4,0,2.82,2.82,0,0,1,.65.08l.06,0a2.12,2.12,0,0,1,.48.23l.06,0a1.92,1.92,0,0,1,.32.26,3.35,3.35,0,0,1,.57.72c.22-.3.41-.6.62-.87a2.3,2.3,0,0,1,2.21-1.17l.36.06c0,1.09-.1,2.14-.16,3.38,0,.41,0,.85-.07,1.32.14-.25.26-.49.39-.73l2.32-4.35h0l.19,0,1.27.24h0a7.34,7.34,0,0,1-.38,5q-.1.27-.24.54c-.08.17-.18.35-.27.52-.2.34-.41.68-.64,1-2.2,3.09-6,5.2-9.15,4.43-.62-.15-1.24-.32-1.84-.51l-.07,0c-.6-.18-1.2-.38-1.78-.6l-.08,0c-.59-.22-1.18-.45-1.77-.7l0,0A66.13,66.13,0,0,1,34,72.6c4-4.09,7.63-8.06,11.53-11.77,5.37-5.11,11.67-1.33,14.18,3.78C57.62,66.18,55.48,64.91,53.52,65Z"/><path class="cls-1" d="M56.86,9.81c2,.17,4,.34,6,.48a20.15,20.15,0,0,1,5,1.05,22.63,22.63,0,0,1,4.57,2.21c.42.27.83.54,1.24.84q1,.75,2,1.59a24.66,24.66,0,0,1,3.4,3.62c.25.33.48.66.71,1a26.75,26.75,0,0,1,4.53,15.18c0,.43,0,.86,0,1.3,0,.86-.1,1.74-.2,2.62Q84.1,40.35,84,41a39.73,39.73,0,0,1-3.31,10.74h0c-.35-.4-.71-.8-1.06-1.21-.7-.81-1.39-1.64-2.09-2.46A61.84,61.84,0,0,0,72,42.17c-.23-.21-.47-.4-.7-.6a24.14,24.14,0,0,1-4.18-3.7,6.42,6.42,0,0,1-1.3-3.33l-.53.19-2.2.83L61,31.1l-2.11-4.45-1.44,1.06-.63.47-.63.45h0l-4.12-4.06c3.65,8.19,7.07,16.51,16.19,20.21l-2.39,3.43,11,5.86c-.28.29-.38.49-.53.53-9,2.56-22,1.47-29.4-10.06a41.63,41.63,0,0,1-5.74-15.85,72.57,72.57,0,0,1-.78-20.33h0C46,8.84,51.42,9.36,56.86,9.81Z"/><path class="cls-1" d="M115.06,25.19c0,.37-.06.73-.1,1.09a30.9,30.9,0,0,1-.93,4.77c0,.2-.12.39-.18.59a14.77,14.77,0,0,1-.52,1.4,16.31,16.31,0,0,1-1.07,2.13,17.19,17.19,0,0,1-1.09,1.59c-.24.3-.48.59-.73.88A17.69,17.69,0,0,1,109,39.15c-.35.31-.71.6-1.08.89a19,19,0,0,1-10.71,3.81,19.18,19.18,0,0,1,0-3c.38-4.87,2.65-9.13,5.73-13.28l-3.19.07H99.2c.14-.3.28-.58.42-.86.72-1.48,1.41-2.88,2.06-4.24.26-.55.51-1.09.75-1.63s.5-1.58.21-1.9h0a3.35,3.35,0,0,1-.32-.42l-.1-.19a1,1,0,0,1-.1-.21,1.19,1.19,0,0,1-.07-.23l0-.12a2.21,2.21,0,0,1,.37-1.47h0a7.5,7.5,0,0,1,.48-.72h0c.48-.67.87-1.4,1.3-2.11l-.77-.32c-7,8.33-7.36,19.05-9.68,29.32a18.28,18.28,0,0,1-5.17-10c-1.14-6.76,1.21-12.61,5.32-17.7s8.63-9.86,13-14.75c.05,0,.15,0,.29,0h.2l1.47,3.56c.48,1.19,1,2.38,1.46,3.57q1.47,3.57,3,7.13c.15.34.29.69.42,1a22.92,22.92,0,0,1,1.44,8.09C115.12,24,115.1,24.59,115.06,25.19Z"/><path class="cls-1" d="M154.29,32a9.58,9.58,0,0,1-2.13-2.57c-.64-1.19-1.06-2.49-1.58-3.73l-1.86-4.49c.08.7.19,1.39.33,2.08s.24,1.16.39,1.73c0,0,0,.08,0,.11.15.58.31,1.15.48,1.72h0a10.69,10.69,0,0,1,.39,1.47,2.89,2.89,0,0,1,0,.29,2.68,2.68,0,0,1,0,.4,2.37,2.37,0,0,1-.09.65.14.14,0,0,1,0,.06,1.74,1.74,0,0,1-.22.48l0,.06a2.69,2.69,0,0,1-.27.32,3.28,3.28,0,0,1-.71.57c.29.21.59.41.87.62A2.34,2.34,0,0,1,151.08,34a2.7,2.7,0,0,1-.06.36l-3.38-.16-1.32-.07.72.39,4.36,2.32h0a1.62,1.62,0,0,0,0,.19c-.08.46-.16.89-.23,1.27h0a7.38,7.38,0,0,1-5-.38c-.18-.07-.35-.15-.53-.24s-.35-.18-.52-.27c-.35-.2-.68-.41-1-.64-3.09-2.2-5.2-6-4.43-9.15.16-.62.33-1.24.51-1.85a.14.14,0,0,0,0-.06c.19-.6.39-1.2.6-1.79l0-.07c.22-.59.45-1.18.7-1.77v0a67.21,67.21,0,0,1,5.2-9.59c4.09,4,8.06,7.63,11.77,11.53,5.1,5.37,1.32,11.67-3.78,14.18C153.09,36.08,154.36,33.94,154.29,32Z"/><path class="cls-1" d="M209.45,26.06q-.25,3-.48,6a19.81,19.81,0,0,1-1.05,5,22.11,22.11,0,0,1-2.21,4.57c-.26.42-.54.83-.83,1.24q-.75,1.05-1.59,2a24.73,24.73,0,0,1-3.63,3.4c-.32.25-.65.48-1,.71a26.74,26.74,0,0,1-15.17,4.53l-1.3,0c-.87,0-1.74-.1-2.62-.2-.44,0-.89-.11-1.33-.18a40,40,0,0,1-10.74-3.31h0l1.21-1.06,2.47-2.09a63.06,63.06,0,0,0,5.91-5.52l.6-.7a23.34,23.34,0,0,1,3.7-4.18,6.35,6.35,0,0,1,3.33-1.3c-.07-.19-.13-.36-.2-.53-.3-.82-.55-1.47-.82-2.2l4.46-2.11,4.45-2.11-1.06-1.44-.47-.63-.46-.63h0l4.07-4.12c-8.19,3.65-16.51,7.07-20.21,16.19l-3.44-2.39-5.86,11c-.28-.28-.48-.38-.53-.53-2.55-9-1.46-22,10.07-29.4a41.52,41.52,0,0,1,15.84-5.74,72.63,72.63,0,0,1,20.34-.78h0C210.42,15.15,209.91,20.62,209.45,26.06Z"/><path class="cls-1" d="M204.17,81.63l-.76-.07a21.59,21.59,0,0,1-3.32-.64l-.41-.13c-.33-.11-.66-.23-1-.36a12.83,12.83,0,0,1-1.48-.75,10.86,10.86,0,0,1-1.11-.76c-.21-.16-.42-.33-.62-.51a12.88,12.88,0,0,1-1.05-1c-.21-.24-.42-.49-.62-.75a13.34,13.34,0,0,1-2.65-7.46,12.41,12.41,0,0,1,2.11,0c3.39.26,6.36,1.84,9.25,4,0-.8,0-1.43,0-2.22v-.34l.6.29c1,.5,2,1,2.95,1.44l1.14.52c.4.18,1.1.35,1.32.15h0a1.5,1.5,0,0,1,.3-.23l.13-.07.14-.07.17,0h.08a1.46,1.46,0,0,1,1,.25h0l.51.33h0c.46.33,1,.6,1.46.9l.23-.54c-5.81-4.86-13.28-5.13-20.44-6.74a12.71,12.71,0,0,1,7-3.6c4.71-.8,8.79.84,12.34,3.7s6.86,6,10.28,9c0,0,0,.11,0,.2h0a.33.33,0,0,0,0,.14h0l-2.48,1-2.49,1q-2.49,1-5,2.08l-.72.29a15.91,15.91,0,0,1-5.63,1C205,81.68,204.59,81.66,204.17,81.63Z"/><path class="cls-1" d="M50.86,237c.19.34.38.68.58,1a33.24,33.24,0,0,0,3,4.18c.14.17.3.32.45.48A14.94,14.94,0,0,0,56,243.77a17.6,17.6,0,0,0,2,1.57c.57.38,1.16.73,1.76,1,.36.18.73.36,1.1.52a19.82,19.82,0,0,0,2.11.79c.47.14.95.27,1.44.37a20.14,20.14,0,0,0,12-1.12A20.64,20.64,0,0,0,75.11,244c-2.54-4.52-6.63-7.61-11.47-10.24l3.11-1.36.48-.21-.79-.64c-1.36-1.1-2.65-2.14-3.88-3.17-.5-.41-1-.82-1.46-1.23s-1.18-1.3-1.05-1.74h0a3.13,3.13,0,0,0,.12-.56c0-.07,0-.14,0-.22v-.24a2,2,0,0,0,0-.26l0-.13a2.34,2.34,0,0,0-1-1.25h0c-.25-.17-.51-.32-.79-.48h0c-.76-.43-1.47-1-2.2-1.45l.6-.65c10.45,4.91,15.62,15.07,22.45,23.94a19.42,19.42,0,0,0,.5-12c-1.92-7-6.81-11.62-13.05-14.69S53.9,211.82,47.51,209c-.06,0-.16,0-.29.09h0l-.19.08h0l.18,4.09c.06,1.36.13,2.73.19,4.1.11,2.73.22,5.47.3,8.21,0,.4,0,.8.06,1.19A24.5,24.5,0,0,0,50,235.25C50.25,235.83,50.55,236.41,50.86,237Z"/><path class="cls-1" d="M185.16,239.36a14.89,14.89,0,0,0,4.27-2.82c1.47-1.46,2.67-3.17,4-4.77l4.75-5.75c-.44,1-.92,2-1.42,2.91q-.65,1.2-1.35,2.37l-.09.15c-.47.78-1,1.55-1.47,2.3h0a21.46,21.46,0,0,0-1.23,2c-.06.13-.13.27-.18.4a3.48,3.48,0,0,0-.21.59,3.65,3.65,0,0,0-.16,1v.11a3.21,3.21,0,0,0,.11.8l0,.11a4.07,4.07,0,0,0,.24.59,5.5,5.5,0,0,0,.8,1.16c-.53.17-1.06.33-1.55.51-1.33.49-2.41,1.15-2.71,2.71a4.6,4.6,0,0,0-.08.57l5,1.27,2,.5-1.24.24-7.42,1.46h0a2.89,2.89,0,0,0,0,.29c-.08.71-.16,1.37-.23,2h0a11.36,11.36,0,0,0,7.56,1.7l.89-.11.89-.17a15.88,15.88,0,0,0,1.76-.49c5.51-1.84,10.31-6.47,10.6-11.43.05-1,.08-2,.08-2.94v-.1c0-1,0-1.93-.08-2.89v-.12c-.06-1-.13-1.94-.23-2.91v-.07a102.09,102.09,0,0,0-3.31-16.4c-7.79,4-15.25,7.58-22.44,11.63-9.89,5.59-7.18,16.54-.81,22.5C185.07,245.91,184.17,242.2,185.16,239.36Z"/><path class="cls-1" d="M142.38,202.25c1.11,2.05,2.18,4.13,3.35,6.15,6,10.19,3.26,19.78-2.12,29.11-2.36,4.09-5.89,5.61-10.69,4.49-8.83-2.08-16.86-5.51-23-12.5-5-5.72-5.48-11-1.5-17.64,4.4-7.37,10.89-12.73,17.58-17.88.74-.57,1.52-1.08,2.26-1.65,4.38-3.38,7.11-2.93,9.93,1.81,1.56,2.6,2.92,5.32,4.37,8Zm-20.45,8.57a17.37,17.37,0,0,0-8.23,10.34c-1.38,4.35-1.14,6.93,2.72,9.09,5.53,3.1,11.54,5.36,17.45,7.7,1,.4,2.8-.25,3.82-1A17.78,17.78,0,0,0,144,217.92c-.77-2.4-2.18-5.3-4.18-6.47A18.74,18.74,0,0,0,121.93,210.82Z"/><path class="cls-1" d="M141.75,189.89c5.85,1.26,9.47,4.7,12.35,8.81a49.19,49.19,0,0,1,9.27,28.55c.06,11.51-10.72,21.77-22.56,21.57,2.47-5.55,4.71-11.18,7.43-16.57,7.31-14.49,4.41-27.61-4.86-40C142.93,191.64,142.53,191,141.75,189.89Z"/><path class="cls-1" d="M166.62,222.13c-.62-6.59,1.39-11.73.67-17.25-.51-3.92-1.33-7.34-2.19-11.21-1.27-5.7-6.9-11-12.33-13.27-6.56-2.78-13.23-5.28-19.89-7.82-1.5-.57-3.13-.81-4.77-2,1.32-.46,2.61-1,3.95-1.35,16.26-4.21,37,7.56,41.53,23.73C176.56,203.49,172.88,212.63,166.62,222.13Z"/><path class="cls-1" d="M102.76,242.38c5.63.91,11,1.85,16.43,2.63s10.61,1.34,15.95,2c-1.88,6.26-9.34,9.88-18.25,9.05C108.69,255.29,103.64,250.51,102.76,242.38Z"/><path class="cls-1" d="M120,241.06c-7.3,1.18-14.65,1.32-20-4.71-6.23-7.07-4.23-15.19-1.39-23.27C99.63,227.12,109.38,234.27,120,241.06Z"/><path class="cls-1" d="M121.4,189.19l-17.75,20.12C101.2,198.64,108.79,189.78,121.4,189.19Z"/><path class="cls-1" d="M131.3,215.89c8-1.23,10.41.91,9.58,8.31a30,30,0,0,1-1.47,6.48c-.92,2.65-3,3.78-5.83,3.38s-3.1-2.53-3-4.75C130.75,224.88,131,220.46,131.3,215.89Z"/><path class="cls-1" d="M125.59,232c-2.58-2-5.26-4-7.66-6.17a3.16,3.16,0,0,1,0-3c1.86-2.33,4-4.4,6.55-7a25.09,25.09,0,0,1,2.26,15.3Z"/><path class="cls-1" d="M149.36,184.45a55.11,55.11,0,0,0-31-.8c-16.68,4.56-33.58,22.77-27.9,46.45,0,0-10.53-14.54-9.25-27.36S107.56,157.15,149.36,184.45Z"/><path class="cls-1" d="M161.69,207.13s-3.88-16-10.92-20.08C150.77,187.05,165.78,187.5,161.69,207.13Z"/><path class="cls-1" d="M18,56.65s7.89,1.18,17.13,13.23C44,81.43,45.3,96.07,45.92,103.14c.8,9.13-19.33,37.8-19.33,37.8s29.5-17,24.73-43.15c0,0,8.6,16.81,5.49,33.59-3.77,20.27-5.17,30.13-3.36,45.52s24.19,40.3,24.19,40.3a48.92,48.92,0,0,1-26.52-26.41C42.82,170.7,43,157,44.41,149.68s1.4-20.44,1.4-20.44a45.41,45.41,0,0,1-29.4,18S29.74,132,34.53,118.61C39.92,103.62,49.69,88.59,18,56.65Z"/><path class="cls-1" d="M34.73,162.28a60.53,60.53,0,0,1,.69-9.68q.36-2.19.9-4.41a19.59,19.59,0,0,0,3.57-.44l-.12.2c2.51-.89,4.85-1.8,7-2.75a20.22,20.22,0,0,0,.36,2.84l-8.38,4.31c-.87,5.86-1.8,12.15-2.73,18.45l-.67.21C35.15,168.1,34.73,165.25,34.73,162.28Z"/><path class="cls-1" d="M37.92,112.79l-11.86,4.44s10.53-9.37,14.64-10.66S37.92,112.79,37.92,112.79Z"/><path class="cls-1" d="M34.29,123.32c-.74.28-7.52,3-7.52,3s4.93-5.91,9.4-5.9S34.29,123.32,34.29,123.32Z"/><path class="cls-1" d="M34.11,140.33s2.2.75-.68,3.71c0,0,9-2.58,6.26-8.44Z"/><path class="cls-1" d="M34.48,173.21c-2.18,1.26-4,3.71-3.73,4.91.22.87,2.4,1.55,4.09,1.22a5,5,0,0,0,1.36-.52c3.94-2.19,5.09-6,2.1-6.91a7.35,7.35,0,0,0-1.21-.13,4.72,4.72,0,0,0-.8,1c-.32.79-.52,1.56-.77,2.34-.07.23-.12.45-.2.72C34.53,175.41,34.39,175,34.48,173.21Z"/><path class="cls-1" d="M32.87,171.77c-.69-.47-2.71-.48-4,0a4.81,4.81,0,0,0-2.46,1.92.34.34,0,0,0,.15.37c1.15.88,4.75.24,6.6-1.18a4.58,4.58,0,0,0,.49-.5,3.25,3.25,0,0,0-.77,0c-.73.1-1.48.25-2.22.38l-.7.13A8.83,8.83,0,0,1,32.87,171.77Z"/><polygon class="cls-1" points="63.71 148.1 130.46 228.26 197.34 139.82 151.01 70.89 116.47 62.02 91.93 80.02 63.71 148.1"/><path class="cls-1" d="M124.24,239.21l-5.55-5.67L21.63,134,63.12,93.52,125,157l63.51-61.9L229,136.61l-99.74,97.22ZM43,134.24l81.26,83.36,83.35-81.26-19.35-19.85-63.5,61.9-61.91-63.5Z"/><path class="cls-1" d="M123.71,140.51l-4.9-6.13-63.41-65,1.52-1.49L55.4,66.28,85.7,36.74,125,77.08l40.34-39.32,29.54,30.3-1.52,1.49,1.52,1.56ZM76.76,69.6l47.78,49,49-47.77L172,69.27l1.52-1.48-8.44-8.67L124.75,98.45,85.43,58.1l-8.67,8.45,1.53,1.56Z"/><path class="cls-1" d="M120.14,68.47,89.56,37.89,120.14,7.31l30.58,30.58Zm-9.22-30.58,9.22,9.22,9.21-9.22-9.21-9.21Z"/><path class="cls-1" d="M237.77,59.55s-7.88,1.17-17.13,13.22C211.78,84.32,210.46,99,209.85,106c-.8,9.14,19.32,37.81,19.32,37.81s-29.49-17-24.72-43.15c0,0-8.61,16.81-5.49,33.58,3.76,20.28,5.16,30.13,3.36,45.53s-24.2,40.3-24.2,40.3a48.92,48.92,0,0,0,26.52-26.42c8.31-20.08,8.14-33.74,6.71-41.11S210,132.13,210,132.13a45.41,45.41,0,0,0,29.4,18S226,134.84,221.23,121.5C215.84,106.51,206.08,91.48,237.77,59.55Z"/><path class="cls-1" d="M221,165.18a59.54,59.54,0,0,0-.7-9.69c-.23-1.45-.53-2.92-.9-4.4a18.62,18.62,0,0,1-3.56-.45l.11.21c-2.51-.9-4.85-1.8-7-2.75a19.17,19.17,0,0,1-.36,2.84l8.38,4.31c.87,5.85,1.8,12.15,2.74,18.44l.66.21C220.62,171,221,168.15,221,165.18Z"/><path class="cls-1" d="M217.84,115.69l11.86,4.44s-10.52-9.37-14.64-10.66S217.84,115.69,217.84,115.69Z"/><path class="cls-1" d="M221.48,126.22c.73.27,7.52,2.94,7.52,2.94s-4.94-5.9-9.41-5.89S221.48,126.22,221.48,126.22Z"/><path class="cls-1" d="M221.65,143.22s-2.2.76.69,3.71c0,0-9-2.58-6.26-8.43Z"/><path class="cls-1" d="M221.28,176.1c2.18,1.27,4,3.71,3.74,4.91-.23.87-2.41,1.56-4.1,1.23a5.17,5.17,0,0,1-1.35-.52c-3.95-2.19-5.09-6-2.1-6.91a6.28,6.28,0,0,1,1.21-.14,4.75,4.75,0,0,1,.79,1c.32.78.53,1.56.77,2.34.07.22.13.44.2.72C221.23,178.31,221.37,177.85,221.28,176.1Z"/><path class="cls-1" d="M222.89,174.67c.69-.47,2.71-.48,4.05,0a4.9,4.9,0,0,1,2.46,1.92.37.37,0,0,1-.16.37c-1.15.88-4.75.23-6.6-1.19a3.85,3.85,0,0,1-.49-.5,4,4,0,0,1,.78,0c.73.11,1.48.25,2.22.38l.69.13A8.8,8.8,0,0,0,222.89,174.67Z"/><path class="cls-1" d="M211.71,196.3c-2.48,4.18-5.09,8.32-7.94,12.25-1.25,1.74-2.56,3.45-3.9,5.12a9.44,9.44,0,0,0-2.12-2.22l.22-.18a41.72,41.72,0,0,0-5.65-1.9c.73-1.33,1.42-2.67,2.05-4l7.54.9L217.73,184l.49.24C216.07,188.27,214,192.37,211.71,196.3Z"/><path class="cls-1" d="M44.28,193.25c2.48,4.18,5.09,8.32,7.94,12.26,1.25,1.73,2.56,3.44,3.9,5.11a9.44,9.44,0,0,1,2.12-2.22l-.22-.18a43.16,43.16,0,0,1,5.65-1.9c-.73-1.33-1.42-2.67-2.05-4l-7.54.9L38.26,181l-.5.24C39.92,185.22,42,189.32,44.28,193.25Z"/><polygon class="cls-2" points="210.44 133.17 212.65 131.1 184.52 103.31 124.76 159.39 66.52 101.86 37.66 128.94 39.75 131.01 37.66 133.19 37.66 133.19 37.66 133.19 39.73 135.24 37.66 137.27 37.66 137.27 37.66 137.27 103.44 204.75 123.78 225.61 123.78 225.61 124.02 225.87 124.03 225.85 124.05 225.87 212.65 139.5 210.53 137.33 212.65 135.34 210.44 133.17"/><polygon class="cls-2" points="123.78 135.95 123.78 135.95 124.3 136.48 124.31 136.47 124.31 136.48 180.6 81.61 179.58 80.57 180.6 79.62 178.73 77.77 180.6 76.01 162.73 58.36 124.77 93.98 87.76 57.44 69.43 74.64 71.3 76.49 69.43 78.25 70.42 79.23 69.43 80.19 123.78 135.95"/><polygon class="cls-2" points="120.18 65.35 120.18 65.35 120.3 65.46 139.02 46.74 138.66 46.38 139.02 46.04 120.3 28.02 120.18 28.13 120.18 28.13 101.57 46.04 101.93 46.38 101.57 46.74 120.18 65.35"/><polygon class="cls-3" points="37.66 130.79 124.02 219.39 124.03 219.38 124.05 219.39 212.65 133.03 184.52 104.17 124.76 162.42 66.52 102.66 37.66 130.79"/><polygon class="cls-3" points="69.43 73.72 124.3 130.01 124.31 130 124.31 130.01 180.6 75.14 162.73 56.81 124.77 93.81 87.76 55.85 69.43 73.72"/><rect class="cls-3" x="107.06" y="27.03" width="26.48" height="26.48" transform="translate(6.76 96.85) rotate(-45)"/><polygon class="cls-4" points="37.66 122.47 124.02 207.77 124.03 207.75 124.05 207.77 212.65 124.62 184.52 96.84 124.76 152.92 66.52 95.39 37.66 122.47"/><polygon class="cls-4" points="37.66 126.72 124.02 212.01 124.03 212 124.05 212.01 212.65 128.87 184.52 101.09 124.76 157.16 66.52 99.64 37.66 126.72"/><polygon class="cls-5" points="69.43 68.17 124.3 122.35 124.31 122.34 124.31 122.35 180.6 69.53 162.73 51.88 124.77 87.51 87.76 50.96 69.43 68.17"/><polygon class="cls-4" points="69.43 71.77 124.3 125.96 124.31 125.95 124.31 125.96 180.6 73.14 162.73 55.49 124.77 91.12 87.76 54.57 69.43 71.77"/><polygon class="cls-4" points="120.3 21.54 139.02 39.57 120.3 57.59 101.57 39.57 120.3 21.54"/><polygon class="cls-6" points="123.78 161.4 66.52 102.66 37.66 130.79 123.78 219.14 123.78 161.4"/><polygon class="cls-7" points="123.78 92.79 87.76 55.85 69.43 73.72 123.78 129.47 123.78 92.79"/><polygon class="cls-8" points="120.18 21.66 101.57 40.26 120.18 58.87 120.18 21.66"/><polygon class="cls-9" points="123.78 161.03 63.67 99.64 37.66 122.47 123.78 207.52 123.78 161.03"/><polygon class="cls-10" points="123.78 161.4 63.67 99.64 37.66 126.72 123.78 211.77 123.78 161.4"/><polygon class="cls-11" points="123.78 92.79 87.76 55.85 72.72 70.47 123.78 121.84 123.78 92.79"/><polygon class="cls-12" points="123.78 90.14 87.76 54.57 69.43 71.77 123.78 125.45 123.78 90.14"/><polygon class="cls-13" points="120.18 21.65 101.57 39.57 120.18 57.48 120.18 21.65"/><polygon class="cls-14" points="105.86 35.44 120.18 21.65 134.15 34.88 121.15 23.85 120.3 43.84 118.89 24.24 105.86 35.44"/><polygon class="cls-15" points="105.16 73.3 124.77 91.12 146.95 72.31 125.31 93.53 124.3 125.96 123.78 93.53 105.16 73.3"/><polygon class="cls-16" points="78.6 114.89 123.78 171.01 171.12 117.23 123.78 161.4 78.6 114.89"/></svg>