<svg xmlns="http://www.w3.org/2000/svg" xmlns:xlink="http://www.w3.org/1999/xlink" xml:space="preserve" version="1.1" style="shape-rendering:geometricPrecision;text-rendering:geometricPrecision;image-rendering:optimizeQuality;" viewBox="0 0 846.66 846.66" x="0px" y="0px" fill-rule="evenodd" clip-rule="evenodd" fill="#000"><defs></defs><g><path class="fil0" d="M63.06 292.59l198.24 0 90.47 -89 0 439.5 -90.47 -89 -198.24 0c-23.38,0 -42.51,-19.12 -42.51,-42.5l0 -176.5c0,-23.38 19.13,-42.5 42.51,-42.5zm378.8 131.6l24.33 0 40.94 -90.22c9.91,-21.98 42.16,-17.67 46.41,5.7l21.76 84.76 57.08 -174.82c7.81,-24.03 42.5,-21.63 47.31,2.87l30.39 154.61 10.77 -14.06c4.81,-6.3 12.09,-9.61 19.45,-9.62l61.62 -0.05c32.25,0 32.25,49.05 0,49.05l-49.59 0 -35.7 46.59c-12.18,17.56 -40,12.16 -44.18,-9.26l-22.7 -115.59 -54.01 165.22c-7.5,22.98 -40.83,22.23 -46.89,-1.52l-25.79 -100.5 -18.2 40.11c-3.52,9.22 -12.46,15.77 -22.92,15.77l-40.08 0 0 206.43 -50.24 0 0 -512.64 50.24 0 0 257.17z"></path></g></svg>