<?xml version="1.0" encoding="UTF-8"?><svg id="Layer_1" xmlns="http://www.w3.org/2000/svg" viewBox="0 0 100 100"><path d="M80.33,53.63c-1.16,.43-2.59,.74-4,.74s-2.9-.33-4-1.18c-4.21-3.24-1.03-8.17,.89-11.71,.73-1.35,2.26-3.78,1.06-5.26-.43-.53-1-.74-1.59-.74-1.39,0-2.95,1.18-3.46,2.31-1.2,2.63-2.58,5.15-3.16,8.01-1.17-1.2-4.48-2.47-7.16-2.47-2.08,0-3.78,.76-3.78,2.92,0,1.41,.74,1.86,1.69,1.86,1.1,0,2.49-.58,3.36-.92h.17c4.87,0,10.9,9.33,7.63,13.61-1.69,2.21-6.14,3.31-9.86,3.31-1.57,0-3.02-.2-4.07-.59-1.74-.65-2.35-2.62-3.95-3.6-2.26-1.38-4.54-1.99-6.79-1.99-2.99,0-5.93,1.06-8.75,2.77,.48,1.15-.31,3.32,1.05,3.85,2.11-1.44,4.37-2.09,6.48-2.09,3.77,0,7.04,2.09,8.09,5.5,.28,.9-2.21,1.11-2.91,1.11-.06,0-.1,0-.13,0-.43-.04-.81-.09-1.17-.09-.51,0-.98,.11-1.46,.55-1.4,1.26-1.84,3.51-2.53,5.17-.49,1.2-.91,2.43-1.31,3.67-.36,1.12-1.36,3.08-1.23,4.23-.26-2.32-.15-4.62,.05-6.94,.05-.58,.41-6.1,.09-6.11-.13,0-.26,0-.39,0-1.1,0-2.19,.14-3.24,.14-1.19,0-2.35-.17-3.48-.89-.87-.55-2.59-2.38-3.59-2.38-.02,0-.04,0-.06,0-.84,.08-1.87,1.52-2.66,1.92-.53,.27-1.07,.41-1.6,.41s-1.08-.16-1.62-.49c-5.11-3.23-2.65-10.09,1.91-12.37,5.01-2.51,12.16,.38,15.79-5.35,.9-1.41-.53-4.81-2.48-4.81-.72,0-1.53,.35-2.48,.95-1.2,.74-2.44,1.43-3.72,2.05-1.15,.56-2.7,1.45-4.11,1.45-.25,0-.51-.03-.76-.1-1.23-.34-1.16-3.45-1.35-4.43-.25-1.26-.99-5.03-2.82-5.03-.21,0-.44,.05-.68,.16-1.64,.76-1.13,3.55-.81,4.88,.41,1.72,1.61,3.43,1.3,5.27-.26,1.52-1.53,2.65-2.5,3.75-.87,.98-2.67,3.54-4.03,3.54-.52,0-.97-.37-1.28-1.33-.52-1.62-.82-3.84-.43-5.54,.62-2.72,2.08-5.17,3.28-7.66,.29-.59-.62-2.75-.77-3.43-.21-.93-.41-1.87-.51-2.82-.2-2.04,.07-4.15,1.4-5.8,1.66-2.05,4.53-3.42,7.01-4.2,1.77-.56,4.1-.94,6.48-.94,3.83,0,7.8,.98,9.74,3.76,1.68,2.42,.98,5.73,2.53,8.23,.59,.94,1.98,1.75,3.19,1.75,.9,0,1.7-.45,1.97-1.65,.63-2.8-2.53-5.98-3.63-8.4-1.22-2.69,.89-1.8,2.01-3.67,.61-1.02,.02-2.4-.87-3.06-.4-.3-.79-.42-1.18-.42-1.03,0-2.01,.85-3.04,1.18-.68,.22-1.41,.31-2.12,.31-.38,0-.76-.02-1.14-.07-1.53-.2-3.53-.6-4.77-1.58-.33-.26-.54-.52-.65-.77-1.08-2.38,6.49-4.33,8.16-4.61,.36-.06,.7-.09,1.03-.09,2.99,0,5.02,2.3,7.05,4.33,1.08,1.08,2.56,2.94,3.93,3.51,.77-1.14,1.29-2.47,2.06-3.63,1.56-2.31,3.92-4.11,6.75-4.11,.32,0,.65,.02,.98,.07,5.76,.84,5.3,7.55,8.58,10.98,.57,.61,1.05,.83,1.51,.83,.57,0,1.13-.34,1.88-.75,.49-.27,.98-.38,1.46-.38,2.2,0,4.27,2.42,5.29,4.09,1.49,2.41,2.03,5.44,1.83,8.25-.06,.85-.19,1.71-.42,2.53-.62,2.22,2.04,3.05,2.17,5.3,.14,2.62-3.3,4.41-5.37,5.18m10.32-10.9c.08-.53,.14-1.07,.18-1.63,.31-4.46-.69-8.82-2.82-12.29-1.37-2.21-5.18-7.36-11.18-7.36-.34,0-.67,.02-1.01,.05-.02-.06-.05-.12-.07-.17-1.33-3.28-3.83-9.39-11.36-10.49-.66-.09-1.32-.14-1.98-.14-3.67,0-7.16,1.48-9.97,4.16-2.26-2.08-5.38-4.27-9.82-4.27-.72,0-1.45,.06-2.18,.19-2.38,.4-10.35,2.09-13.04,7.09-.38,.7-.64,1.45-.8,2.2-1.33,.21-2.61,.51-3.79,.88-3.11,.98-7.43,2.9-10.29,6.43-1.61,1.99-3.41,5.46-2.89,10.75,.14,1.37,.41,2.61,.63,3.61,.06,.27,.16,.61,.29,1.02-1.05,2.06-2.17,4.39-2.79,7.12-.88,3.86,.13,7.66,.6,9.12,1.01,3.13,3.05,4.85,5.15,5.61,.73,4.23,2.72,7.51,5.75,9.42,1.62,1.02,3.46,1.56,5.31,1.56,1.46,0,2.91-.32,4.32-.96,1.14,.71,2.35,1.21,3.67,1.52-.16,2.23-.24,4.65,.05,7.23,.4,3.49,3.39,6.07,6.85,6.07,.26,0,.52-.01,.78-.05,3.43-.39,5.99-3.21,6.12-6.53,.09-.27,.25-.66,.35-.91,.23-.56,.43-1.09,.56-1.52,.39-1.25,.75-2.25,1.12-3.16,.18-.45,.36-.94,.54-1.45,2.17-.23,4.97-1.03,6.74-3.41,.36-.48,.65-.99,.88-1.51,.52,.03,1.04,.04,1.58,.04,5.21,0,11.98-1.58,15.36-6.02,.86-1.11,1.48-2.38,1.86-3.73,.33,.02,.66,.03,1,.03,2.7,0,4.98-.64,6.42-1.17,6.44-2.39,10.12-6.86,9.84-11.96-.13-2.39-1.11-4.17-1.94-5.35"/></svg>