<svg xmlns="http://www.w3.org/2000/svg" xmlns:xlink="http://www.w3.org/1999/xlink" version="1.1" x="0px" y="0px" viewBox="0 0 100 100" enable-background="new 0 0 100 100" xml:space="preserve"><path d="M78.67,53.006c-0.991,0.368-2.206,0.626-3.408,0.626c-1.238,0-2.465-0.277-3.403-1.002  c-3.579-2.756-0.877-6.954,0.758-9.964c0.623-1.147,1.925-3.221,0.901-4.475c-0.37-0.45-0.847-0.633-1.351-0.633  c-1.179,0-2.51,1.006-2.947,1.962c-1.022,2.24-2.197,4.383-2.693,6.814c-0.996-1.023-3.816-2.101-6.096-2.101  c-1.77,0-3.214,0.65-3.217,2.482c-0.002,1.204,0.627,1.58,1.438,1.58c0.937,0,2.121-0.497,2.864-0.785h0.144  c4.148,0,9.274,7.939,6.49,11.581c-1.436,1.882-5.227,2.814-8.396,2.814c-1.339,0-2.57-0.166-3.463-0.501  c-1.477-0.549-2-2.228-3.358-3.064c-1.925-1.178-3.864-1.691-5.776-1.691c-2.544,0-5.047,0.901-7.444,2.356  c0.412,0.98-0.268,2.824,0.891,3.276c1.795-1.226,3.719-1.783,5.514-1.783c3.207,0,5.995,1.78,6.889,4.681  c0.236,0.763-1.88,0.948-2.477,0.948c-0.049,0-0.085,0-0.11-0.003c-0.365-0.031-0.693-0.077-0.996-0.077  c-0.435,0-0.832,0.095-1.246,0.472c-1.189,1.075-1.568,2.984-2.15,4.403c-0.417,1.022-0.778,2.068-1.112,3.12  c-0.304,0.952-1.154,2.625-1.043,3.602c-0.225-1.978-0.125-3.932,0.043-5.908c0.042-0.491,0.348-5.191,0.073-5.2  c-0.112-0.005-0.225-0.007-0.332-0.007c-0.939,0-1.86,0.118-2.76,0.118c-1.01,0-2-0.146-2.963-0.761  c-0.738-0.47-2.202-2.025-3.055-2.025c-0.018,0-0.038,0.003-0.055,0.003c-0.719,0.064-1.593,1.295-2.268,1.634  c-0.455,0.227-0.907,0.351-1.36,0.351c-0.462,0-0.92-0.132-1.377-0.418c-4.349-2.749-2.255-8.584,1.626-10.528  c4.262-2.137,10.349,0.325,13.438-4.552c0.763-1.204-0.454-4.092-2.111-4.092c-0.615,0-1.3,0.301-2.112,0.81  c-1.022,0.634-2.081,1.216-3.164,1.745c-0.977,0.478-2.3,1.235-3.501,1.235c-0.217,0-0.433-0.024-0.643-0.084  c-1.048-0.286-0.984-2.939-1.147-3.767c-0.212-1.072-0.845-4.28-2.401-4.28c-0.181,0-0.377,0.044-0.583,0.14  c-1.398,0.646-0.959,3.024-0.69,4.157c0.348,1.467,1.37,2.92,1.105,4.488c-0.218,1.29-1.302,2.258-2.131,3.194  c-0.737,0.831-2.271,3.015-3.429,3.015c-0.439,0-0.822-0.313-1.088-1.133c-0.446-1.383-0.697-3.27-0.368-4.712  c0.524-2.319,1.768-4.402,2.795-6.523c0.247-0.506-0.526-2.338-0.658-2.916c-0.176-0.794-0.349-1.593-0.43-2.397  c-0.172-1.74,0.057-3.531,1.193-4.934c1.414-1.746,3.853-2.907,5.968-3.576c1.504-0.475,3.487-0.797,5.516-0.797  c3.263,0,6.637,0.835,8.291,3.202c1.434,2.057,0.833,4.876,2.153,7.008c0.498,0.803,1.685,1.486,2.716,1.486  c0.77,0,1.451-0.386,1.677-1.401c0.533-2.383-2.152-5.088-3.087-7.151c-1.035-2.292,0.758-1.534,1.711-3.121  c0.518-0.864,0.017-2.041-0.739-2.607c-0.342-0.258-0.674-0.358-1.002-0.358c-0.879,0-1.708,0.726-2.586,1.003  c-0.581,0.186-1.196,0.265-1.808,0.265c-0.325,0-0.647-0.021-0.97-0.059c-1.304-0.167-3.008-0.508-4.058-1.349  c-0.28-0.225-0.456-0.442-0.554-0.657c-0.919-2.029,5.522-3.683,6.942-3.922c0.305-0.051,0.595-0.076,0.874-0.076  c2.549,0,4.271,1.96,5.999,3.689c0.917,0.917,2.181,2.505,3.346,2.991c0.659-0.974,1.095-2.104,1.755-3.089  c1.325-1.963,3.339-3.498,5.744-3.498c0.273,0,0.552,0.021,0.835,0.062c4.901,0.714,4.515,6.425,7.305,9.348  c0.488,0.515,0.89,0.71,1.289,0.71c0.484,0,0.966-0.286,1.604-0.642c0.413-0.228,0.832-0.326,1.244-0.326  c1.87,0,3.635,2.059,4.506,3.479c1.265,2.054,1.725,4.626,1.56,7.021c-0.051,0.723-0.16,1.457-0.357,2.155  c-0.528,1.886,1.74,2.597,1.847,4.514C83.363,50.832,80.436,52.354,78.67,53.006 M87.454,43.725  c0.066-0.449,0.116-0.913,0.152-1.389c0.263-3.799-0.591-7.511-2.404-10.46c-1.162-1.885-4.411-6.268-9.518-6.268  c-0.289,0-0.574,0.017-0.859,0.042c-0.02-0.051-0.04-0.1-0.062-0.146c-1.136-2.792-3.258-7.992-9.67-8.926  c-0.561-0.08-1.126-0.122-1.686-0.122c-3.125,0-6.097,1.262-8.486,3.541c-1.924-1.77-4.58-3.635-8.358-3.635  c-0.609,0-1.233,0.054-1.853,0.158c-2.027,0.341-8.809,1.782-11.099,6.032c-0.32,0.6-0.548,1.23-0.682,1.872  c-1.131,0.18-2.221,0.432-3.226,0.751c-2.651,0.837-6.323,2.467-8.758,5.47c-1.37,1.693-2.905,4.65-2.458,9.149  c0.116,1.164,0.35,2.225,0.537,3.073c0.052,0.227,0.133,0.521,0.245,0.864c-0.892,1.753-1.85,3.733-2.375,6.061  c-0.745,3.283,0.107,6.52,0.508,7.762c0.861,2.664,2.593,4.129,4.382,4.774c0.625,3.598,2.313,6.39,4.892,8.017  c1.376,0.868,2.943,1.325,4.522,1.325c1.246,0,2.479-0.275,3.673-0.82c0.968,0.603,2.003,1.03,3.125,1.297  c-0.137,1.901-0.205,3.958,0.045,6.153c0.343,2.971,2.884,5.165,5.826,5.165c0.223,0,0.441-0.011,0.668-0.039  c2.923-0.329,5.1-2.73,5.205-5.558c0.08-0.232,0.211-0.56,0.294-0.777c0.192-0.479,0.362-0.925,0.48-1.293  c0.335-1.062,0.636-1.912,0.954-2.69c0.156-0.384,0.306-0.801,0.457-1.234c1.848-0.199,4.231-0.877,5.74-2.899  c0.305-0.408,0.552-0.842,0.745-1.289c0.439,0.024,0.885,0.038,1.345,0.038c4.432,0,10.194-1.345,13.075-5.124  c0.728-0.948,1.256-2.022,1.581-3.172c0.28,0.016,0.564,0.025,0.853,0.025c2.299,0,4.238-0.542,5.466-0.996  c5.482-2.031,8.613-5.835,8.372-10.179C88.99,46.247,88.155,44.727,87.454,43.725"></path></svg>