<svg xmlns="http://www.w3.org/2000/svg" viewBox="0 0 60 60" x="0px" y="0px" fill="#000"><title>Weaponary - Solid - 058 - Buster Sword</title><g><path d="M52.63,21.28,47.68.77A1,1,0,0,0,46,.29L45.3,1,13,32.84l-.71-.71a2,2,0,0,0-2.83,0L8.07,33.54a2,2,0,0,0,0,2.83L13,41.32,5.95,48.39l-.71-.71a2,2,0,0,0-2.83,0L1,49.1a2,2,0,0,0,0,2.83L8.07,59a2,2,0,0,0,2.83,0l1.41-1.41a2,2,0,0,0,0-2.83l-.71-.71L18.68,47l4.95,4.95a2,2,0,0,0,1.41.59h0a2,2,0,0,0,1.41-.59l1.41-1.41a2,2,0,0,0,0-2.83l-.7-.7L52.36,22.22A1,1,0,0,0,52.63,21.28ZM26.1,25.41a3.5,3.5,0,1,1,0,5A3.51,3.51,0,0,1,26.1,25.41ZM22.21,37.75a3.5,3.5,0,1,1,2.47-1A3.49,3.49,0,0,1,22.21,37.75Zm2.12,13.47.71-.71h0Zm1.42-5.65-2.12-2.12L46.7,20.8a1,1,0,0,0,.3-.71V6.46l3.55,14.73Z"></path></g></svg>