<svg xmlns="http://www.w3.org/2000/svg" xmlns:xlink="http://www.w3.org/1999/xlink" version="1.1" x="0px" y="0px" viewBox="0 0 100 100" enable-background="new 0 0 100 100" xml:space="preserve"><polygon points="20.337,20.324 13.402,21.6 12.126,26.52 23.138,25.583 "></polygon><path d="M50,36.142c-10.441,0-18.905,8.465-18.905,18.907c0,10.441,8.464,18.904,18.905,18.904s18.906-8.463,18.906-18.904  C68.906,44.606,60.441,36.142,50,36.142z M50,64.133c-5.018,0-9.085-4.066-9.085-9.084c0-5.018,4.067-9.086,9.085-9.086  s9.085,4.068,9.085,9.086C59.085,60.066,55.018,64.133,50,64.133z"></path><path d="M61.903,23.561l-4.215-9.678L35.56,15.032l-3.277,11.049L5,28.402l5.104,52.609l78.515,5.105L95,20.745L61.903,23.561z   M41.325,18.319l10.969-0.569l2.621,4.728l-15.442,0.801L41.325,18.319z M50,76.082c-11.617,0-21.034-9.418-21.034-21.033  c0-11.618,9.417-21.035,21.034-21.035s21.034,9.417,21.034,21.035C71.034,66.664,61.617,76.082,50,76.082z M85.86,60.477  l1.126-31.768L67.257,27.25l22.639-1.4L85.86,60.477z"></path></svg>