<?xml version="1.0" ?><!DOCTYPE svg  PUBLIC '-//W3C//DTD SVG 1.1//EN'  'http://www.w3.org/Graphics/SVG/1.1/DTD/svg11.dtd'><svg height="1710.258px" style="enable-background:new 0 0 1262 1710.258;" version="1.1" viewBox="0 0 1262 1710.258" width="1262px" xml:space="preserve" xmlns="http://www.w3.org/2000/svg" xmlns:xlink="http://www.w3.org/1999/xlink"><g id="lock" fill="#fff"><g><path d="M1196.495,713.258H1090V459.592c0-253.285-205.802-459.35-459.001-459.35C377.799,0.242,172,206.442,172,459.892v253.366    H66.686C30.195,713.258,0,742.241,0,778.731v766.42c0,91.079,74.712,165.106,165.792,165.106h931.597    c91.08,0,164.611-74.027,164.611-165.106v-766.42C1262,742.241,1232.985,713.258,1196.495,713.258z M304,459.892    c0-180.588,146.664-327.508,326.999-327.508C811.335,132.384,958,279.168,958,459.592v253.666H304V459.892z M1130,1545.151    c0,18.218-14.395,33.106-32.611,33.106H165.792c-18.216,0-33.792-14.889-33.792-33.106V845.258h998V1545.151z"/><path d="M631,1409.707c36.491,0,66-29.58,66-66.071v-237.854c0-36.49-29.51-66.07-66-66.07c-36.49,0-66,29.58-66,66.07v237.854    C565,1380.127,594.509,1409.707,631,1409.707z"/></g></g><g id="Layer_1"/></svg>