<svg width="31" height="19" viewBox="0 0 31 19" fill="none" xmlns="http://www.w3.org/2000/svg">
<path d="M10.1557 9L0.5 0H31.5V19H0.5L10.1557 9Z" fill="#0094FF"/>
<g filter="url(#filter0_d_16_12)">
<path d="M24.6667 14.6667L20.6667 14.6667C20.3 14.6667 20 14.9667 20 15.3333C20 15.7 20.3 16 20.6667 16L24.6667 16C25.4 16 26 15.4 26 14.6667L26 5.33333C26 4.6 25.4 4 24.6667 4L20.6667 4C20.3 4 20 4.3 20 4.66667C20 5.03333 20.3 5.33333 20.6667 5.33333L24.6667 5.33333L24.6667 14.6667Z" fill="white"/>
</g>
<g filter="url(#filter1_d_16_12)">
<path d="M21.9042 9.78734L20.0112 8.09208C19.964 8.04867 19.9035 8.01885 19.8372 8.00645C19.771 7.99404 19.7022 7.99962 19.6395 8.02246C19.5769 8.04529 19.5232 8.08436 19.4855 8.13465C19.4478 8.18493 19.4277 8.24416 19.4277 8.30475V9.39238H14.6785C14.3053 9.39238 14 9.66581 14 10C14 10.3342 14.3053 10.6076 14.6785 10.6076H19.4277V11.6953C19.4277 11.9687 19.7941 12.1024 20.0044 11.9079L21.8974 10.2127C22.0331 10.0972 22.0331 9.90278 21.9042 9.78734Z" fill="white"/>
</g>
<defs>
<filter id="filter0_d_16_12" x="16" y="4" width="14" height="20" filterUnits="userSpaceOnUse" color-interpolation-filters="sRGB">
<feFlood flood-opacity="0" result="BackgroundImageFix"/>
<feColorMatrix in="SourceAlpha" type="matrix" values="0 0 0 0 0 0 0 0 0 0 0 0 0 0 0 0 0 0 127 0" result="hardAlpha"/>
<feOffset dy="4"/>
<feGaussianBlur stdDeviation="2"/>
<feComposite in2="hardAlpha" operator="out"/>
<feColorMatrix type="matrix" values="0 0 0 0 0 0 0 0 0 0 0 0 0 0 0 0 0 0 0.25 0"/>
<feBlend mode="normal" in2="BackgroundImageFix" result="effect1_dropShadow_16_12"/>
<feBlend mode="normal" in="SourceGraphic" in2="effect1_dropShadow_16_12" result="shape"/>
</filter>
<filter id="filter1_d_16_12" x="10" y="8" width="16" height="12" filterUnits="userSpaceOnUse" color-interpolation-filters="sRGB">
<feFlood flood-opacity="0" result="BackgroundImageFix"/>
<feColorMatrix in="SourceAlpha" type="matrix" values="0 0 0 0 0 0 0 0 0 0 0 0 0 0 0 0 0 0 127 0" result="hardAlpha"/>
<feOffset dy="4"/>
<feGaussianBlur stdDeviation="2"/>
<feComposite in2="hardAlpha" operator="out"/>
<feColorMatrix type="matrix" values="0 0 0 0 0 0 0 0 0 0 0 0 0 0 0 0 0 0 0.25 0"/>
<feBlend mode="normal" in2="BackgroundImageFix" result="effect1_dropShadow_16_12"/>
<feBlend mode="normal" in="SourceGraphic" in2="effect1_dropShadow_16_12" result="shape"/>
</filter>
</defs>
</svg>
