<svg width="31" height="19" viewBox="0 0 31 19" fill="none" xmlns="http://www.w3.org/2000/svg">
<path d="M10 9L0.5 0H31V19H0.5L10 9Z" fill="#FF0000"/>
<path d="M16.3333 5.33333H20.3333C20.7 5.33333 21 5.03333 21 4.66667C21 4.3 20.7 4 20.3333 4H16.3333C15.6 4 15 4.6 15 5.33333V14.6667C15 15.4 15.6 16 16.3333 16H20.3333C20.7 16 21 15.7 21 15.3333C21 14.9667 20.7 14.6667 20.3333 14.6667H16.3333V5.33333Z" fill="white"/>
<path d="M26.9042 9.78734L25.0112 8.09208C24.964 8.04867 24.9035 8.01885 24.8372 8.00645C24.771 7.99404 24.7022 7.99962 24.6395 8.02246C24.5769 8.04529 24.5232 8.08436 24.4855 8.13465C24.4478 8.18493 24.4277 8.24416 24.4277 8.30475V9.39238H19.6785C19.3053 9.39238 19 9.66581 19 10C19 10.3342 19.3053 10.6076 19.6785 10.6076H24.4277V11.6953C24.4277 11.9687 24.7941 12.1024 25.0044 11.9079L26.8974 10.2127C27.0331 10.0972 27.0331 9.90278 26.9042 9.78734V9.78734Z" fill="white"/>
</svg>
