<svg xmlns="http://www.w3.org/2000/svg" xmlns:xlink="http://www.w3.org/1999/xlink" version="1.1" x="0px" y="0px" viewBox="0 0 100 100" enable-background="new 0 0 100 100" xml:space="preserve"><path fill="#000000" d="M88.102,76.182c-0.754-4.313-3.31-7.445-6.078-7.445c-0.209,0-0.42,0.021-0.625,0.056l-2.674,0.47  l-8.238-47.123l2.676-0.467c1.543-0.27,2.77-1.477,3.449-3.397c0.592-1.666,0.715-3.736,0.35-5.83C76.206,8.131,73.648,5,70.882,5  c-0.209,0-0.42,0.018-0.625,0.054l-54.555,9.537c-0.001,0-0.003,0-0.005,0.001c-1.543,0.27-2.769,1.476-3.45,3.397  c-0.59,1.666-0.714,3.736-0.348,5.829l2.486,14.225l0,0l0.146,0.836l8.509,48.676C23.794,91.869,26.35,95,29.118,95l0,0  c0.209,0,0.419-0.018,0.625-0.055c0.002,0,0.004,0,0.007,0l54.553-9.537C87.248,84.895,88.917,80.841,88.102,76.182z M35.037,88.048  l-1.476,2.101c0.107-0.578,0.165-1.188,0.179-1.813C34.1,88.255,34.534,88.16,35.037,88.048z M83.922,72.661  c0.448,0.599,0.862,1.376,1.178,2.302l-6.125,8.721l-3.187,0.559L83.922,72.661z M83.982,82.792  c-0.043,0.015-0.086,0.03-0.129,0.039l-2.691,0.47l4.418-6.291c0.202,1.438,0.107,2.743-0.173,3.754L83.982,82.792z M82.768,71.574  l-9.166,13.049l-2.705,0.473l7.895-11.238c1.411-0.787,2.666-1.59,3.725-2.403C82.598,71.484,82.682,71.525,82.768,71.574z   M68.709,85.479l-3.186,0.558l6.201-8.83c1.42-0.587,2.779-1.188,4.06-1.802L68.709,85.479z M63.336,86.417l-2.809,0.491l5.213-7.42  c1.126-0.399,2.236-0.809,3.322-1.225L63.336,86.417z M58.341,87.291l-3.139,0.548l4.437-6.315c1.193-0.377,2.387-0.764,3.569-1.162  L58.341,87.291z M53.609,87.377c-0.161,0.229-0.18,0.514-0.08,0.755l-3.7,0.646l3.835-5.459c1.163-0.334,2.34-0.68,3.523-1.039  L53.609,87.377z M47.643,89.161l-2.808,0.491l3.393-4.832c0.993-0.264,2.009-0.539,3.043-0.826L47.643,89.161z M42.648,90.034  l-3.187,0.557l3.017-4.294c1.077-0.268,2.213-0.553,3.398-0.859L42.648,90.034z M37.275,90.973l-2.706,0.473l2.75-3.916  c0.857-0.196,1.812-0.422,2.844-0.67L37.275,90.973z M79.137,71.844c-11.984,7.221-39.008,13.469-45.46,14.895  c-0.034-0.338-0.075-0.678-0.135-1.018c-0.392-2.238-1.267-4.158-2.406-5.486L79.137,71.844z M24.004,24.108l-1.575,2.243  c0.11-0.617,0.169-1.265,0.174-1.934C22.99,24.333,23.457,24.231,24.004,24.108z M72.764,8.901c0.449,0.594,0.864,1.37,1.185,2.294  l-6.151,8.757l-0.336,0.059l0,0l-2.852,0.498L72.764,8.901z M74.292,16.919c-0.003,0.013-0.008,0.025-0.013,0.038l-1.481,2.111  c-0.028,0.008-0.058,0.021-0.087,0.025l-2.729,0.477l4.451-6.337C74.622,14.548,74.573,15.851,74.292,16.919z M71.602,7.824  l-9.18,13.068l-2.706,0.473l8.097-11.526c1.266-0.714,2.402-1.441,3.379-2.177C71.325,7.696,71.461,7.748,71.602,7.824z   M57.529,21.748l-3.188,0.557l6.375-9.076c1.428-0.592,2.79-1.199,4.071-1.817L57.529,21.748z M52.156,22.687l-2.808,0.491  l5.375-7.653c1.129-0.401,2.24-0.812,3.328-1.23L52.156,22.687z M47.161,23.56l-3.139,0.549l4.595-6.542  c1.195-0.377,2.389-0.767,3.572-1.166L47.161,23.56z M42.46,23.603c-0.169,0.241-0.181,0.542-0.062,0.79l-3.749,0.655l3.99-5.681  c1.165-0.334,2.342-0.682,3.526-1.041L42.46,23.603z M36.462,25.43l-2.808,0.491l3.545-5.048c0.994-0.265,2.01-0.541,3.045-0.829  L36.462,25.43z M31.468,26.303l-3.186,0.557l3.166-4.507c1.078-0.267,2.215-0.554,3.399-0.861L31.468,26.303z M26.094,27.243  l-2.706,0.473l2.898-4.126c0.86-0.199,1.813-0.423,2.846-0.671L26.094,27.243z M67.546,8.184  c-12.174,7.11-38.622,13.228-45.026,14.642c-0.032-0.28-0.07-0.561-0.12-0.843c-0.391-2.237-1.267-4.156-2.406-5.485L67.546,8.184z   M16.962,37.592l0.412-0.072l-0.392,0.188L16.962,37.592z M25.617,87.105l-8.261-47.256l14.68-7.017L16.6,35.531l-2.126-12.163  c-0.286-1.632-0.199-3.274,0.237-4.504c0.347-0.978,0.87-1.596,1.435-1.694c0.057-0.01,0.116-0.015,0.174-0.015  c1.245,0,2.949,2.121,3.501,5.279c0.285,1.633,0.199,3.274-0.237,4.504c-0.347,0.978-0.87,1.596-1.435,1.694l0.222,1.268  l-0.652,0.715l0.756-0.118L18.6,31.21c0.001,0,0.003,0,0.005-0.001l49.304-8.619l8.237,47.12l-49.309,8.62c-0.001,0-0.001,0-0.002,0  l0.45,2.576c0.058-0.01,0.116-0.014,0.175-0.014c1.245,0,2.949,2.121,3.501,5.277c0.286,1.635,0.199,3.273-0.237,4.504  c-0.347,0.979-0.87,1.596-1.435,1.694l0,0c-0.057,0.01-0.116,0.016-0.175,0.016C27.874,92.385,26.169,90.262,25.617,87.105z   M36.761,43.175c-0.107,0-0.217,0.009-0.325,0.028c-1.998,0.349-2.226,3.506-2.246,3.865l-0.053,0.986l5.788-1.012l-0.282-0.861  C39.479,45.679,38.567,43.175,36.761,43.175z M35.908,46.151c0.164-0.696,0.445-1.34,0.799-1.401  c0.019-0.003,0.037-0.005,0.054-0.005c0.313,0,0.712,0.504,1.021,1.079L35.908,46.151z M36.257,50.009  c0.17,0.008,4.168,0.231,4.704,3.298l0.135,0.772l-0.773,0.135c-0.834,0.146-1.912,0.351-2.623,0.486l0.119,0.682  c0.075,0.427-0.211,0.833-0.638,0.908c-0.046,0.008-0.091,0.013-0.136,0.013c-0.374,0-0.706-0.27-0.772-0.65l-0.384-2.198  l0.755-0.146c0.016-0.004,1.259-0.246,2.457-0.468c-0.833-1.139-2.895-1.261-2.919-1.262c-0.432-0.021-0.766-0.392-0.744-0.823  C35.458,50.322,35.827,49.987,36.257,50.009z M33.392,41.496l-0.724-4.143l6.38-1.115l-1.32,1.628  c-0.139,0.175-0.485,0.755-0.39,1.275c0.063,0.343,0.323,0.656,0.775,0.929c0.371,0.224,0.49,0.707,0.266,1.078  s-0.707,0.49-1.078,0.266c-1.072-0.647-1.413-1.45-1.511-2.009c-0.062-0.356-0.045-0.697,0.016-1.006l-1.322,0.231l0.454,2.596  c0.075,0.427-0.21,0.834-0.638,0.908c-0.046,0.008-0.091,0.012-0.136,0.012C33.791,42.146,33.459,41.877,33.392,41.496z   M25.687,50.47l-0.384-2.199l0.755-0.147c0.016-0.003,1.258-0.246,2.455-0.466c-0.833-1.129-2.891-1.261-2.915-1.262  c-0.433-0.021-0.768-0.388-0.747-0.821c0.02-0.433,0.389-0.766,0.821-0.747c0.17,0.008,4.168,0.23,4.704,3.297l0.135,0.773  l-0.773,0.135c-0.834,0.146-1.912,0.35-2.623,0.486l0.119,0.682c0.075,0.427-0.21,0.833-0.638,0.908  c-0.046,0.008-0.091,0.012-0.136,0.012C26.085,51.12,25.754,50.852,25.687,50.47z M24.917,43.84c-0.374,0-0.706-0.269-0.772-0.65  c-0.067-0.381,0.154-0.744,0.506-0.872c-0.342,0-0.657-0.227-0.754-0.572c-0.118-0.417,0.125-0.851,0.543-0.968l3.17-0.894  l-0.009-0.05l-3.15,0.551c-0.427,0.076-0.833-0.211-0.908-0.638c-0.075-0.427,0.211-0.833,0.638-0.908l4.696-0.821l0.523,2.993  l-4.333,1.221l3.638-0.636c0.428-0.075,0.833,0.211,0.908,0.638c0.075,0.427-0.211,0.833-0.638,0.908l-3.923,0.686  C25.008,43.836,24.962,43.84,24.917,43.84z M29.574,58.124c0.059-0.011,0.115-0.017,0.167-0.017c0.334,0,0.611,0.244,0.824,0.726  c0.017,0.108,0.034,0.213,0.051,0.312c0.068,0.392,0.156,0.895,0.523,1.1l0.895,2.201c-0.376-0.311-0.821-0.521-1.344-0.521  c-0.108,0-0.217,0.01-0.325,0.028c-1.998,0.349-2.227,3.506-2.246,3.864l-0.054,0.986l5.789-1.013l-0.282-0.86  c-0.076-0.232-0.312-0.887-0.718-1.527l-0.562-3.653c0.098-0.392-0.041-0.912-0.205-1.337c-0.023-0.15-0.046-0.313-0.071-0.479  c-0.366-2.512-0.867-5.949-3.15-5.949c-0.119,0-0.241,0.011-0.362,0.031c-2.616,0.459-2.915,1.569-2.561,3.596  c0.217,1.24,0.462,2.646,2.363,2.646C28.65,58.256,29.065,58.213,29.574,58.124z M29.839,64.898c0.167-0.699,0.454-1.34,0.798-1.4  c0.019-0.003,0.037-0.005,0.054-0.005c0.313,0,0.712,0.504,1.021,1.079L29.839,64.898z M27.492,55.339  c-0.244-1.396-0.264-1.508,1.285-1.778c0.032-0.006,0.063-0.008,0.092-0.008c0.645,0,1.077,1.625,1.342,3.035  c-0.286-0.061-0.593-0.064-0.907-0.01c-0.419,0.072-0.745,0.109-0.996,0.109C27.782,56.688,27.727,56.688,27.492,55.339z   M51.508,34.833c-0.086-0.425,0.189-0.839,0.614-0.925c0.423-0.085,0.837,0.189,0.924,0.613c0.005,0.025,0.456,1.989,1.415,1.818  l0.277-0.048c0.437-0.222,0.441-0.774,0.429-0.958c-0.028-0.43,0.295-0.805,0.726-0.837c0.431-0.029,0.803,0.283,0.84,0.712  c0.058,0.676-0.164,1.91-1.24,2.467l0.304,1.739c0.075,0.427-0.211,0.834-0.638,0.909c-0.047,0.008-0.092,0.012-0.137,0.012  c-0.375,0-0.707-0.269-0.771-0.65l-0.313-1.791C52.477,37.646,51.732,35.944,51.508,34.833z M60.27,56.4  c-0.172,0.271-0.584,1.141-0.416,1.856c0.09,0.382,0.336,0.688,0.752,0.938c0.371,0.226,0.49,0.707,0.267,1.078  s-0.707,0.49-1.078,0.267c-0.776-0.47-1.286-1.138-1.47-1.933c-0.133-0.572-0.086-1.133,0.027-1.615l-1.394,0.242l0.476,3.136  c0.063,0.429-0.229,0.829-0.66,0.894c-0.039,0.006-0.08,0.01-0.119,0.01c-0.381,0-0.715-0.278-0.773-0.668l-0.704-4.65l6.063-1.061  L60.27,56.4z M66.109,41.988l0.136,0.773l-0.772,0.135c-0.834,0.146-1.912,0.35-2.625,0.486l0.119,0.682  c0.075,0.427-0.211,0.833-0.638,0.908c-0.045,0.008-0.091,0.012-0.136,0.012c-0.375,0-0.707-0.269-0.772-0.65l-0.384-2.199  l0.755-0.148c0.017-0.003,1.258-0.245,2.455-0.465c-0.833-1.129-2.89-1.262-2.915-1.263c-0.434-0.021-0.768-0.388-0.747-0.821  s0.39-0.77,0.821-0.748C61.576,38.699,65.574,38.922,66.109,41.988z M59.251,33.458c-0.075-0.427,0.211-0.834,0.638-0.908  l4.696-0.821l0.522,2.993l-4.332,1.221l3.639-0.636c0.428-0.075,0.833,0.211,0.908,0.638c0.074,0.427-0.211,0.833-0.639,0.908  l-3.922,0.686c-0.047,0.008-0.093,0.012-0.138,0.012c-0.375,0-0.706-0.271-0.771-0.65c-0.066-0.381,0.153-0.744,0.506-0.871  c-0.342,0-0.657-0.227-0.754-0.572c-0.119-0.417,0.125-0.851,0.541-0.968l3.172-0.894l-0.01-0.05l-3.149,0.551  C59.732,34.172,59.326,33.886,59.251,33.458z M41.879,59.451l-2.915,0.509l1.398,1.104c0.34,0.269,0.398,0.762,0.129,1.102  c-0.155,0.195-0.384,0.299-0.616,0.299c-0.17,0-0.342-0.055-0.486-0.169l-4.154-3.276l6.373-1.115  c0.428-0.072,0.834,0.213,0.908,0.64C42.592,58.971,42.306,59.376,41.879,59.451z M56.848,49.907  c-1.998,0.35-2.227,3.506-2.246,3.865l-0.053,0.986l5.789-1.012l-0.283-0.861c-0.164-0.503-1.076-3.007-2.882-3.007  C57.064,49.879,56.955,49.889,56.848,49.907z M58.193,52.527l-1.875,0.328c0.164-0.696,0.447-1.34,0.8-1.401  c0.019-0.003,0.036-0.005,0.054-0.005C57.484,51.449,57.884,51.953,58.193,52.527z M44.222,68.295  c0.075,0.428-0.21,0.833-0.638,0.908l-4.644,0.813c-0.045,0.008-0.091,0.012-0.136,0.012c-0.375,0-0.706-0.27-0.772-0.649  c-0.075-0.427,0.211-0.833,0.638-0.907l4.644-0.814C43.742,67.582,44.147,67.868,44.222,68.295z M48.833,39.746  c0.075,0.427-0.21,0.833-0.638,0.908l-4.644,0.812c-0.046,0.008-0.091,0.012-0.136,0.012c-0.375,0-0.706-0.269-0.772-0.65  c-0.075-0.427,0.211-0.833,0.638-0.908l4.644-0.812C48.354,39.033,48.759,39.318,48.833,39.746z M46.065,42.156  c-0.955,0.167-1.905,0.427-2.385,1.19c-0.431,0.687-0.329,1.53-0.176,2.405c0.217,1.241,0.463,2.646,2.363,2.646  c0.342,0,0.757-0.043,1.267-0.132c2.603-0.455,3.015-1.001,2.589-3.436c-0.218-1.249-0.49-2.802-2.438-2.802  C46.954,42.027,46.566,42.068,46.065,42.156z M48.176,45.1c0.067,0.385,0.193,1.102,0.142,1.243  c-0.154,0.146-1.099,0.313-1.455,0.376c-0.419,0.073-0.745,0.109-0.996,0.109c-0.526,0-0.581,0-0.816-1.347  c-0.056-0.319-0.187-1.067-0.04-1.3c0.079-0.127,0.374-0.313,1.325-0.479c0.403-0.071,0.714-0.105,0.949-0.105  C47.768,43.597,47.914,43.597,48.176,45.1z M43.586,38.167l-2.776-2.19l6.373-1.114c0.428-0.075,0.834,0.211,0.908,0.638  c0.075,0.427-0.211,0.834-0.638,0.909l-2.915,0.51l1.122,0.885l1.976-0.346c0.428-0.075,0.834,0.211,0.909,0.638  c0.075,0.427-0.211,0.833-0.638,0.908l-4.644,0.812c-0.045,0.008-0.091,0.012-0.136,0.012c-0.375,0-0.706-0.269-0.772-0.65  c-0.075-0.427,0.211-0.833,0.638-0.908L43.586,38.167z M38.516,68.379c-0.374,0-0.706-0.27-0.772-0.65  c-0.075-0.426,0.211-0.832,0.638-0.908l0.593-0.104l-2.776-2.189l6.373-1.112c0.427-0.075,0.833,0.211,0.908,0.64  c0.075,0.426-0.211,0.834-0.638,0.906l-2.916,0.512l1.123,0.885l1.976-0.346c0.428-0.074,0.834,0.211,0.908,0.639  c0.075,0.427-0.211,0.834-0.638,0.908l-4.644,0.812C38.606,68.375,38.561,68.379,38.516,68.379z M56.624,45.249l0.741-1.115  c0.24-0.361,0.727-0.459,1.088-0.219c0.361,0.24,0.459,0.727,0.22,1.088l-2.917,4.392l-0.793-4.536l-0.566,0.979  c-0.217,0.375-0.696,0.503-1.072,0.286c-0.375-0.217-0.504-0.697-0.286-1.072l2.729-4.713L56.624,45.249z M50.657,52.538  c0.36,0.239,0.459,0.728,0.22,1.088l-2.917,4.392l-0.793-4.535L46.6,54.461c-0.217,0.375-0.697,0.503-1.072,0.286  c-0.375-0.218-0.503-0.698-0.286-1.073l2.729-4.713l0.858,4.911l0.741-1.115C49.809,52.396,50.295,52.297,50.657,52.538z"></path></svg>