<?xml version="1.0" ?>
<svg data-name="Layer 2" id="ae6d098f-c8d8-4b34-82be-011b395ed85d" viewBox="0 0 38 38" xmlns="http://www.w3.org/2000/svg">

<path stroke="#000" opacity="0.5" stroke-width="3" d="M13.683,27.366h-.1a.389.389,0,0,1-.1-.013,4.163,4.163,0,0,1-1.462-.539,1.858,1.858,0,0,1-.715-.839,2.884,2.884,0,0,1-.2-1.1l.026-1.327a1.883,1.883,0,0,0-.149-.806,1.016,1.016,0,0,0-.41-.461,1.276,1.276,0,0,0-.6-.163H9.926a.586.586,0,0,1-.422-.169.611.611,0,0,1,0-.858.586.586,0,0,1,.422-.169H10a1.336,1.336,0,0,0,.579-.175,1.04,1.04,0,0,0,.4-.462,1.845,1.845,0,0,0,.149-.793l-.026-1.325a3.145,3.145,0,0,1,.111-.852,1.875,1.875,0,0,1,.37-.709,2.248,2.248,0,0,1,.722-.546,4.661,4.661,0,0,1,1.176-.377.577.577,0,0,1,.546.123.627.627,0,0,1,.182.449.467.467,0,0,1-.123.312.7.7,0,0,1-.319.208,2.63,2.63,0,0,0-.78.4,1.024,1.024,0,0,0-.344.507,2.563,2.563,0,0,0-.085.709l.026,1.352a1.709,1.709,0,0,1-.377,1.177,2.251,2.251,0,0,1-1.027.63V21.49a2.252,2.252,0,0,1,1.027.631,1.706,1.706,0,0,1,.377,1.176l-.026,1.352a2.428,2.428,0,0,0,.085.689,1.011,1.011,0,0,0,.344.5,2.96,2.96,0,0,0,.78.423.577.577,0,0,1,.442.546.557.557,0,0,1-.156.39A.492.492,0,0,1,13.683,27.366Z"/>
<path stroke="#000" opacity="0.5" stroke-width="3" d="M13.683,27.615h-.1a.672.672,0,0,1-.159-.02,4.322,4.322,0,0,1-1.54-.573,2.116,2.116,0,0,1-.808-.953,3.153,3.153,0,0,1-.22-1.2l.026-1.331a1.627,1.627,0,0,0-.125-.693.765.765,0,0,0-.308-.353,1.03,1.03,0,0,0-.484-.13h0a.86.86,0,0,1-.637-.239.811.811,0,0,1-.252-.608.838.838,0,0,1,.848-.848H10a1.089,1.089,0,0,0,.452-.142.774.774,0,0,0,.3-.354,1.6,1.6,0,0,0,.125-.685l-.026-1.32a3.4,3.4,0,0,1,.12-.924,2.149,2.149,0,0,1,.419-.8,2.509,2.509,0,0,1,.8-.608,4.828,4.828,0,0,1,1.241-.4.819.819,0,0,1,.774.194.872.872,0,0,1,.253.623.726.726,0,0,1-.184.476.959.959,0,0,1-.429.281,2.359,2.359,0,0,0-.7.352.773.773,0,0,0-.263.383,2.326,2.326,0,0,0-.075.64l.026,1.347a1.956,1.956,0,0,1-.44,1.347,2.241,2.241,0,0,1-.539.439,2.278,2.278,0,0,1,.539.437,1.96,1.96,0,0,1,.44,1.344l-.026,1.356a2.163,2.163,0,0,0,.075.614.763.763,0,0,0,.263.378,2.776,2.776,0,0,0,.714.383.816.816,0,0,1,.6.779.8.8,0,0,1-.222.559A.746.746,0,0,1,13.683,27.615Zm-.019-11.7a.778.778,0,0,0-.132.013,4.454,4.454,0,0,0-1.107.353,2.026,2.026,0,0,0-.643.484,1.63,1.63,0,0,0-.321.616,2.921,2.921,0,0,0-.1.784l.026,1.32a2.093,2.093,0,0,1-.174.907,1.282,1.282,0,0,1-.5.569,1.585,1.585,0,0,1-.685.209h-.1a.332.332,0,0,0-.248.1.36.36,0,0,0,0,.5.336.336,0,0,0,.249.1,1.586,1.586,0,0,1,.775.2,1.263,1.263,0,0,1,.51.569,2.118,2.118,0,0,1,.174.915l-.026,1.331a2.661,2.661,0,0,0,.183,1,1.6,1.6,0,0,0,.624.726,3.924,3.924,0,0,0,1.373.5l.144.008a.244.244,0,0,0,.193-.088.307.307,0,0,0,.09-.22c0-.1-.033-.218-.28-.313a3.172,3.172,0,0,1-.851-.464,1.266,1.266,0,0,1-.425-.622,2.69,2.69,0,0,1-.1-.76l.026-1.356a1.471,1.471,0,0,0-.314-1.006,1.941,1.941,0,0,0-.765-.506.242.242,0,0,1-.222-.036.249.249,0,0,1-.1-.2.3.3,0,0,1,.1-.228.26.26,0,0,1,.222-.063,1.949,1.949,0,0,0,.766-.506,1.476,1.476,0,0,0,.313-1.011l-.026-1.346a2.776,2.776,0,0,1,.1-.783,1.265,1.265,0,0,1,.425-.63,2.806,2.806,0,0,1,.856-.44A.444.444,0,0,0,13.9,16.4a.213.213,0,0,0,.063-.148.377.377,0,0,0-.112-.276A.235.235,0,0,0,13.664,15.912Z"/>
<path stroke="#000" opacity="0.5" stroke-width="3" d="M24.317,27.353a.414.414,0,0,1-.377-.215.762.762,0,0,1-.13-.383.455.455,0,0,1,.124-.318.726.726,0,0,1,.318-.2,2.46,2.46,0,0,0,.787-.4,1.03,1.03,0,0,0,.338-.513,2.61,2.61,0,0,0,.084-.7l-.026-1.353a1.683,1.683,0,0,1,.384-1.183,2.349,2.349,0,0,1,1.02-.624v.052a2.435,2.435,0,0,1-1.02-.637,1.662,1.662,0,0,1-.384-1.17l.026-1.352a2.449,2.449,0,0,0-.084-.7,1.054,1.054,0,0,0-.345-.5,2.62,2.62,0,0,0-.78-.416.579.579,0,0,1-.442-.547.557.557,0,0,1,.156-.39.5.5,0,0,1,.377-.169h.1a.44.44,0,0,1,.1.013A3.941,3.941,0,0,1,26,16.186a1.9,1.9,0,0,1,.715.845,2.911,2.911,0,0,1,.2,1.105l-.026,1.326a1.864,1.864,0,0,0,.15.806,1.007,1.007,0,0,0,.416.462,1.294,1.294,0,0,0,.591.162H28.1a.591.591,0,0,1,.423.169.613.613,0,0,1,0,.858.586.586,0,0,1-.423.169h-.078a1.177,1.177,0,0,0-.578.169,1.081,1.081,0,0,0-.4.461,1.827,1.827,0,0,0-.15.8l.026,1.326a3.365,3.365,0,0,1-.1.852,1.778,1.778,0,0,1-.37.708,2.334,2.334,0,0,1-.728.546,4.63,4.63,0,0,1-1.177.377c-.035.008-.067.015-.1.019A.821.821,0,0,1,24.317,27.353Z"/>
<path stroke="#000" opacity="0.5" stroke-width="3" d="M24.317,27.6a.662.662,0,0,1-.591-.336,1,1,0,0,1-.166-.512.7.7,0,0,1,.189-.486A.99.99,0,0,1,24.172,26a2.244,2.244,0,0,0,.7-.349.8.8,0,0,0,.26-.392,2.4,2.4,0,0,0,.074-.633l-.026-1.348a1.931,1.931,0,0,1,.45-1.357,2.348,2.348,0,0,1,.543-.433,2.422,2.422,0,0,1-.543-.437,1.9,1.9,0,0,1-.45-1.339l.026-1.357a2.21,2.21,0,0,0-.073-.619.815.815,0,0,0-.268-.381,2.438,2.438,0,0,0-.705-.372.809.809,0,0,1-.382-1.341.748.748,0,0,1,.56-.249h.1a.727.727,0,0,1,.152.018,4.127,4.127,0,0,1,1.549.572,2.155,2.155,0,0,1,.8.956,3.166,3.166,0,0,1,.22,1.2l-.026,1.331a1.625,1.625,0,0,0,.125.692.758.758,0,0,0,.313.353,1.043,1.043,0,0,0,.48.13h0a.863.863,0,0,1,.636.238.864.864,0,0,1,0,1.219.835.835,0,0,1-.6.239h-.077a.907.907,0,0,0-.448.132.833.833,0,0,0-.31.358,1.6,1.6,0,0,0-.124.69l.026,1.321a3.691,3.691,0,0,1-.111.919,2.034,2.034,0,0,1-.423.807,2.568,2.568,0,0,1-.8.608,4.856,4.856,0,0,1-1.241.4.883.883,0,0,1-.114.023A1.12,1.12,0,0,1,24.317,27.6Zm2.451-5.848a2.013,2.013,0,0,0-.765.5,1.452,1.452,0,0,0-.318,1.014l.026,1.347a2.885,2.885,0,0,1-.093.774,1.285,1.285,0,0,1-.418.637,2.688,2.688,0,0,1-.867.442.48.48,0,0,0-.213.133.2.2,0,0,0-.06.151.512.512,0,0,0,.094.253.237.237,0,0,0,.248.091.71.71,0,0,0,.075-.015,4.481,4.481,0,0,0,1.125-.357,2.082,2.082,0,0,0,.651-.486,1.555,1.555,0,0,0,.319-.61,3.132,3.132,0,0,0,.1-.787l-.026-1.321a2.09,2.09,0,0,1,.175-.915,1.323,1.323,0,0,1,.5-.564,1.419,1.419,0,0,1,.7-.206H28.1a.337.337,0,0,0,.25-.1.318.318,0,0,0,.1-.249.324.324,0,0,0-.1-.249.339.339,0,0,0-.249-.1,1.61,1.61,0,0,1-.765-.2,1.25,1.25,0,0,1-.52-.571,2.131,2.131,0,0,1-.174-.914l.026-1.331a2.66,2.66,0,0,0-.183-1.007,1.638,1.638,0,0,0-.625-.732,3.717,3.717,0,0,0-1.368-.494l-.148-.008a.245.245,0,0,0-.193.089.3.3,0,0,0-.09.219c0,.1.034.218.282.314a2.835,2.835,0,0,1,.852.459,1.3,1.3,0,0,1,.422.618,2.708,2.708,0,0,1,.095.767l-.026,1.358a1.422,1.422,0,0,0,.318,1,2.111,2.111,0,0,0,.769.514.256.256,0,0,1,.214.039.249.249,0,0,1,.1.2.3.3,0,0,1-.1.229A.268.268,0,0,1,26.768,21.755Z"/>
<path stroke="#000" opacity="0.5" stroke-width="3" d="M29.429,36.744H8.571a5.259,5.259,0,0,1-5.252-5.252V6.509A5.259,5.259,0,0,1,8.571,1.256h13.32A5.239,5.239,0,0,1,25.615,2.8h0l7.521,7.515a5.3,5.3,0,0,1,1.545,3.727V31.492A5.259,5.259,0,0,1,29.429,36.744ZM8.571,3.756A2.757,2.757,0,0,0,5.819,6.509V31.492a2.756,2.756,0,0,0,2.752,2.752H29.429a2.756,2.756,0,0,0,2.752-2.752V14.04a2.786,2.786,0,0,0-.811-1.958L23.848,4.566h0a2.75,2.75,0,0,0-1.957-.811Z"/>
<path stroke="#000" opacity="0.5" stroke-width="3" d="M32.32,13.72H27.665A5.24,5.24,0,0,1,22.43,8.485V2.51h2.5V8.485a2.738,2.738,0,0,0,2.735,2.735H32.32Z"/>

<path opacity="0.5" stroke="#fff" stroke-width="1" d="M13.683,27.366h-.1a.389.389,0,0,1-.1-.013,4.163,4.163,0,0,1-1.462-.539,1.858,1.858,0,0,1-.715-.839,2.884,2.884,0,0,1-.2-1.1l.026-1.327a1.883,1.883,0,0,0-.149-.806,1.016,1.016,0,0,0-.41-.461,1.276,1.276,0,0,0-.6-.163H9.926a.586.586,0,0,1-.422-.169.611.611,0,0,1,0-.858.586.586,0,0,1,.422-.169H10a1.336,1.336,0,0,0,.579-.175,1.04,1.04,0,0,0,.4-.462,1.845,1.845,0,0,0,.149-.793l-.026-1.325a3.145,3.145,0,0,1,.111-.852,1.875,1.875,0,0,1,.37-.709,2.248,2.248,0,0,1,.722-.546,4.661,4.661,0,0,1,1.176-.377.577.577,0,0,1,.546.123.627.627,0,0,1,.182.449.467.467,0,0,1-.123.312.7.7,0,0,1-.319.208,2.63,2.63,0,0,0-.78.4,1.024,1.024,0,0,0-.344.507,2.563,2.563,0,0,0-.085.709l.026,1.352a1.709,1.709,0,0,1-.377,1.177,2.251,2.251,0,0,1-1.027.63V21.49a2.252,2.252,0,0,1,1.027.631,1.706,1.706,0,0,1,.377,1.176l-.026,1.352a2.428,2.428,0,0,0,.085.689,1.011,1.011,0,0,0,.344.5,2.96,2.96,0,0,0,.78.423.577.577,0,0,1,.442.546.557.557,0,0,1-.156.39A.492.492,0,0,1,13.683,27.366Z"/>
<path opacity="0.5" stroke="#fff" stroke-width="1" d="M13.683,27.615h-.1a.672.672,0,0,1-.159-.02,4.322,4.322,0,0,1-1.54-.573,2.116,2.116,0,0,1-.808-.953,3.153,3.153,0,0,1-.22-1.2l.026-1.331a1.627,1.627,0,0,0-.125-.693.765.765,0,0,0-.308-.353,1.03,1.03,0,0,0-.484-.13h0a.86.86,0,0,1-.637-.239.811.811,0,0,1-.252-.608.838.838,0,0,1,.848-.848H10a1.089,1.089,0,0,0,.452-.142.774.774,0,0,0,.3-.354,1.6,1.6,0,0,0,.125-.685l-.026-1.32a3.4,3.4,0,0,1,.12-.924,2.149,2.149,0,0,1,.419-.8,2.509,2.509,0,0,1,.8-.608,4.828,4.828,0,0,1,1.241-.4.819.819,0,0,1,.774.194.872.872,0,0,1,.253.623.726.726,0,0,1-.184.476.959.959,0,0,1-.429.281,2.359,2.359,0,0,0-.7.352.773.773,0,0,0-.263.383,2.326,2.326,0,0,0-.075.64l.026,1.347a1.956,1.956,0,0,1-.44,1.347,2.241,2.241,0,0,1-.539.439,2.278,2.278,0,0,1,.539.437,1.96,1.96,0,0,1,.44,1.344l-.026,1.356a2.163,2.163,0,0,0,.075.614.763.763,0,0,0,.263.378,2.776,2.776,0,0,0,.714.383.816.816,0,0,1,.6.779.8.8,0,0,1-.222.559A.746.746,0,0,1,13.683,27.615Zm-.019-11.7a.778.778,0,0,0-.132.013,4.454,4.454,0,0,0-1.107.353,2.026,2.026,0,0,0-.643.484,1.63,1.63,0,0,0-.321.616,2.921,2.921,0,0,0-.1.784l.026,1.32a2.093,2.093,0,0,1-.174.907,1.282,1.282,0,0,1-.5.569,1.585,1.585,0,0,1-.685.209h-.1a.332.332,0,0,0-.248.1.36.36,0,0,0,0,.5.336.336,0,0,0,.249.1,1.586,1.586,0,0,1,.775.2,1.263,1.263,0,0,1,.51.569,2.118,2.118,0,0,1,.174.915l-.026,1.331a2.661,2.661,0,0,0,.183,1,1.6,1.6,0,0,0,.624.726,3.924,3.924,0,0,0,1.373.5l.144.008a.244.244,0,0,0,.193-.088.307.307,0,0,0,.09-.22c0-.1-.033-.218-.28-.313a3.172,3.172,0,0,1-.851-.464,1.266,1.266,0,0,1-.425-.622,2.69,2.69,0,0,1-.1-.76l.026-1.356a1.471,1.471,0,0,0-.314-1.006,1.941,1.941,0,0,0-.765-.506.242.242,0,0,1-.222-.036.249.249,0,0,1-.1-.2.3.3,0,0,1,.1-.228.26.26,0,0,1,.222-.063,1.949,1.949,0,0,0,.766-.506,1.476,1.476,0,0,0,.313-1.011l-.026-1.346a2.776,2.776,0,0,1,.1-.783,1.265,1.265,0,0,1,.425-.63,2.806,2.806,0,0,1,.856-.44A.444.444,0,0,0,13.9,16.4a.213.213,0,0,0,.063-.148.377.377,0,0,0-.112-.276A.235.235,0,0,0,13.664,15.912Z"/>
<path opacity="0.5" stroke="#fff" stroke-width="1" d="M24.317,27.353a.414.414,0,0,1-.377-.215.762.762,0,0,1-.13-.383.455.455,0,0,1,.124-.318.726.726,0,0,1,.318-.2,2.46,2.46,0,0,0,.787-.4,1.03,1.03,0,0,0,.338-.513,2.61,2.61,0,0,0,.084-.7l-.026-1.353a1.683,1.683,0,0,1,.384-1.183,2.349,2.349,0,0,1,1.02-.624v.052a2.435,2.435,0,0,1-1.02-.637,1.662,1.662,0,0,1-.384-1.17l.026-1.352a2.449,2.449,0,0,0-.084-.7,1.054,1.054,0,0,0-.345-.5,2.62,2.62,0,0,0-.78-.416.579.579,0,0,1-.442-.547.557.557,0,0,1,.156-.39.5.5,0,0,1,.377-.169h.1a.44.44,0,0,1,.1.013A3.941,3.941,0,0,1,26,16.186a1.9,1.9,0,0,1,.715.845,2.911,2.911,0,0,1,.2,1.105l-.026,1.326a1.864,1.864,0,0,0,.15.806,1.007,1.007,0,0,0,.416.462,1.294,1.294,0,0,0,.591.162H28.1a.591.591,0,0,1,.423.169.613.613,0,0,1,0,.858.586.586,0,0,1-.423.169h-.078a1.177,1.177,0,0,0-.578.169,1.081,1.081,0,0,0-.4.461,1.827,1.827,0,0,0-.15.8l.026,1.326a3.365,3.365,0,0,1-.1.852,1.778,1.778,0,0,1-.37.708,2.334,2.334,0,0,1-.728.546,4.63,4.63,0,0,1-1.177.377c-.035.008-.067.015-.1.019A.821.821,0,0,1,24.317,27.353Z"/>
<path opacity="0.5" stroke="#fff" stroke-width="1" d="M24.317,27.6a.662.662,0,0,1-.591-.336,1,1,0,0,1-.166-.512.7.7,0,0,1,.189-.486A.99.99,0,0,1,24.172,26a2.244,2.244,0,0,0,.7-.349.8.8,0,0,0,.26-.392,2.4,2.4,0,0,0,.074-.633l-.026-1.348a1.931,1.931,0,0,1,.45-1.357,2.348,2.348,0,0,1,.543-.433,2.422,2.422,0,0,1-.543-.437,1.9,1.9,0,0,1-.45-1.339l.026-1.357a2.21,2.21,0,0,0-.073-.619.815.815,0,0,0-.268-.381,2.438,2.438,0,0,0-.705-.372.809.809,0,0,1-.382-1.341.748.748,0,0,1,.56-.249h.1a.727.727,0,0,1,.152.018,4.127,4.127,0,0,1,1.549.572,2.155,2.155,0,0,1,.8.956,3.166,3.166,0,0,1,.22,1.2l-.026,1.331a1.625,1.625,0,0,0,.125.692.758.758,0,0,0,.313.353,1.043,1.043,0,0,0,.48.13h0a.863.863,0,0,1,.636.238.864.864,0,0,1,0,1.219.835.835,0,0,1-.6.239h-.077a.907.907,0,0,0-.448.132.833.833,0,0,0-.31.358,1.6,1.6,0,0,0-.124.69l.026,1.321a3.691,3.691,0,0,1-.111.919,2.034,2.034,0,0,1-.423.807,2.568,2.568,0,0,1-.8.608,4.856,4.856,0,0,1-1.241.4.883.883,0,0,1-.114.023A1.12,1.12,0,0,1,24.317,27.6Zm2.451-5.848a2.013,2.013,0,0,0-.765.5,1.452,1.452,0,0,0-.318,1.014l.026,1.347a2.885,2.885,0,0,1-.093.774,1.285,1.285,0,0,1-.418.637,2.688,2.688,0,0,1-.867.442.48.48,0,0,0-.213.133.2.2,0,0,0-.06.151.512.512,0,0,0,.094.253.237.237,0,0,0,.248.091.71.71,0,0,0,.075-.015,4.481,4.481,0,0,0,1.125-.357,2.082,2.082,0,0,0,.651-.486,1.555,1.555,0,0,0,.319-.61,3.132,3.132,0,0,0,.1-.787l-.026-1.321a2.09,2.09,0,0,1,.175-.915,1.323,1.323,0,0,1,.5-.564,1.419,1.419,0,0,1,.7-.206H28.1a.337.337,0,0,0,.25-.1.318.318,0,0,0,.1-.249.324.324,0,0,0-.1-.249.339.339,0,0,0-.249-.1,1.61,1.61,0,0,1-.765-.2,1.25,1.25,0,0,1-.52-.571,2.131,2.131,0,0,1-.174-.914l.026-1.331a2.66,2.66,0,0,0-.183-1.007,1.638,1.638,0,0,0-.625-.732,3.717,3.717,0,0,0-1.368-.494l-.148-.008a.245.245,0,0,0-.193.089.3.3,0,0,0-.09.219c0,.1.034.218.282.314a2.835,2.835,0,0,1,.852.459,1.3,1.3,0,0,1,.422.618,2.708,2.708,0,0,1,.095.767l-.026,1.358a1.422,1.422,0,0,0,.318,1,2.111,2.111,0,0,0,.769.514.256.256,0,0,1,.214.039.249.249,0,0,1,.1.2.3.3,0,0,1-.1.229A.268.268,0,0,1,26.768,21.755Z"/>
<path opacity="0.5" stroke="#fff" stroke-width="1" d="M29.429,36.744H8.571a5.259,5.259,0,0,1-5.252-5.252V6.509A5.259,5.259,0,0,1,8.571,1.256h13.32A5.239,5.239,0,0,1,25.615,2.8h0l7.521,7.515a5.3,5.3,0,0,1,1.545,3.727V31.492A5.259,5.259,0,0,1,29.429,36.744ZM8.571,3.756A2.757,2.757,0,0,0,5.819,6.509V31.492a2.756,2.756,0,0,0,2.752,2.752H29.429a2.756,2.756,0,0,0,2.752-2.752V14.04a2.786,2.786,0,0,0-.811-1.958L23.848,4.566h0a2.75,2.75,0,0,0-1.957-.811Z"/>
<path opacity="0.5" stroke="#fff" stroke-width="1" d="M32.32,13.72H27.665A5.24,5.24,0,0,1,22.43,8.485V2.51h2.5V8.485a2.738,2.738,0,0,0,2.735,2.735H32.32Z"/>

</svg>