<?xml version="1.0" encoding="UTF-8"?><svg id="Layer_1" xmlns="http://www.w3.org/2000/svg" viewBox="0 0 100 100"><path d="M54.69,56.79c-.95,0-1.86,.4-2.51,1.11-1.26,1.38-1.16,3.53,.23,4.79,.63,.57,1.43,.88,2.28,.88h0c.95,0,1.86-.4,2.51-1.11,.61-.67,.92-1.53,.88-2.44s-.43-1.74-1.1-2.35c-.63-.57-1.43-.88-2.28-.88Zm.89,4.2c-.23,.25-.55,.4-.9,.4-.3,0-.59-.11-.81-.32-.49-.45-.53-1.22-.08-1.71,.23-.26,.55-.4,.9-.4,.3,0,.59,.11,.81,.31,.24,.22,.38,.52,.39,.84,.02,.32-.09,.63-.31,.87Z"/><path d="M50.38,51.68c-.63-.57-1.43-.88-2.28-.88-.95,0-1.87,.4-2.51,1.11-.61,.67-.92,1.54-.88,2.44,.04,.91,.43,1.74,1.1,2.35,.63,.57,1.43,.88,2.28,.88h0c.95,0,1.86-.4,2.51-1.11,.61-.67,.92-1.54,.88-2.44-.04-.91-.44-1.74-1.1-2.35Zm-1.39,3.32c-.23,.25-.55,.39-.89,.39-.3,0-.59-.11-.81-.31-.24-.22-.38-.52-.4-.84-.01-.32,.1-.63,.31-.87,.23-.25,.55-.4,.9-.4,.3,0,.59,.11,.81,.31,.24,.22,.38,.51,.39,.84,.02,.32-.1,.63-.31,.87Z"/><path d="M86.91,84.03l-13.3-12.1c.69-.89,.6-2.17-.24-2.95h0s4.56-5.02,4.56-5.02c.39-.43,.59-.99,.56-1.57s-.28-1.12-.71-1.51l-4.17-3.79c-.53-.48-1.23-.65-1.88-.52L18.41,8.05c-.62-.56-1.5-.72-2.28-.41-.78,.31-1.31,1.04-1.36,1.87l-2.38,33.71c-.05,.67,.21,1.32,.71,1.77l37.84,34.44c-.01,.1-.02,.21-.02,.31,.03,.58,.28,1.12,.71,1.51l4.17,3.79c.42,.38,.94,.57,1.47,.57,.59,0,1.18-.24,1.61-.71l4.56-5.01h0c.4,.37,.93,.57,1.47,.57,.03,0,.07,0,.1,0,.52-.03,1.01-.25,1.39-.6l13.3,12.1c.42,.38,.94,.57,1.47,.57,.59,0,1.18-.24,1.61-.71l4.28-4.7c.39-.43,.59-.99,.57-1.57-.03-.58-.29-1.12-.71-1.51Zm-14.98-5.04l1.34-1.48,5.95,5.42-1.34,1.48-5.95-5.42Zm-2.58-2.35l1.34-1.48,.97,.88-1.34,1.48-.97-.88Zm-11.02-5.99s-.03-.04-.04-.06c0,0-8.79-8.04-17.6-16.07-4.41-4.02-8.82-8.04-12.14-11.05-1.66-1.51-3.05-2.76-4.02-3.64-.6-.55-1.01-.91-1.3-1.16-.42-2.11-2.54-14.13-4.34-24.3l49.59,45.13-10.15,11.15ZM18.48,24.64c.66,3.7,1.31,7.4,1.81,10.18,.25,1.39,.46,2.55,.61,3.36,.04,.2,.07,.38,.1,.54l-4.08,2.17,1.27-17.89c.1,.55,.19,1.09,.29,1.64Zm3.63,15.96c3.75,3.33,25.87,23.54,34.7,31.61,.02,.02,.04,.03,.06,.04l-3.33,3.66L17.46,43.06l4.65-2.47Zm49.58,21.84l.66,.6-14.93,16.4-.66-.6,14.93-16.4Zm9.32,24.83l-1.52-1.39,1.34-1.48,1.52,1.39-1.34,1.48Z"/></svg>