<svg height='100px' width='100px'  fill="#000000" xmlns="http://www.w3.org/2000/svg" xmlns:xlink="http://www.w3.org/1999/xlink" version="1.1" x="0px" y="0px" viewBox="0 0 96 96" enable-background="new 0 0 96 96" xml:space="preserve"><g><polygon points="61.344,25.564 48,38.908 34.656,25.564 25.564,34.656 38.908,48 25.564,61.344 34.656,70.436 48,57.092    61.344,70.436 70.436,61.344 57.092,48 70.436,34.656  "></polygon><path d="M48,6.615C25.181,6.615,6.615,25.181,6.615,48S25.181,89.385,48,89.385S89.385,70.819,89.385,48S70.819,6.615,48,6.615z    M48,81.576c-18.514,0-33.576-15.063-33.576-33.576S29.486,14.424,48,14.424S81.576,29.486,81.576,48S66.514,81.576,48,81.576z"></path></g></svg>