<svg height='100px' width='100px'  fill="#000000" xmlns:dc="http://purl.org/dc/elements/1.1/" xmlns:cc="http://creativecommons.org/ns#" xmlns:rdf="http://www.w3.org/1999/02/22-rdf-syntax-ns#" xmlns:svg="http://www.w3.org/2000/svg" xmlns="http://www.w3.org/2000/svg" xmlns:sodipodi="http://sodipodi.sourceforge.net/DTD/sodipodi-0.dtd" xmlns:inkscape="http://www.inkscape.org/namespaces/inkscape" viewBox="0 0 224.36813 180.26412" version="1.1" x="0px" y="0px"><g transform="translate(191.01668,10.440435)"><path style="" d="m -146.03832,34.536885 44.97836,-44.97732 10.937641,10.9333695 10.93765,10.9333805 -34.131291,34.13265 -34.1313,34.132655 34.1313,34.13265 34.131291,34.13266 -10.93765,10.93338 -10.937641,10.93337 -44.97836,-44.97732 c -24.7381,-24.73752 -44.97836,-45.057155 -44.97836,-45.15474 0,-0.09759 20.24026,-20.417221 44.97836,-45.154735 z m 112.536106,0 44.97836,-44.97732 10.93764,10.9333695 10.93765,10.9333805 -34.13129,34.13265 -34.13129,34.132655 34.13129,34.13265 34.13129,34.13266 -10.93765,10.93338 -10.93764,10.93337 -44.97836,-44.97732 c -24.738093,-24.73752 -44.978355,-45.057155 -44.978355,-45.15474 0,-0.09759 20.240262,-20.417221 44.978355,-45.154735 z" fill="#000000" stroke-width="0.35277775"></path></g></svg>