<svg height='100px' width='100px'  fill="#000000" xmlns:dc="http://purl.org/dc/elements/1.1/" xmlns:cc="http://creativecommons.org/ns#" xmlns:rdf="http://www.w3.org/1999/02/22-rdf-syntax-ns#" xmlns:svg="http://www.w3.org/2000/svg" xmlns="http://www.w3.org/2000/svg" xmlns:sodipodi="http://sodipodi.sourceforge.net/DTD/sodipodi-0.dtd" xmlns:inkscape="http://www.inkscape.org/namespaces/inkscape" viewBox="0 0 219.95693 180.19419" version="1.1" x="0px" y="0px"><g transform="translate(180.88621,-18.938653)"><path style="" d="m -5.9083024,63.916643 -44.9790296,-44.97799 -9.78972,9.81781 -9.78972,9.81782 35.36597,35.17633 c 19.45129,19.34699 35.36596964,35.327757 35.36596964,35.512817 0,0.18506 -15.79600964,16.13308 -35.10225964,35.44005 l -35.10226,35.10357 9.66769,9.66289 9.66768,9.6629 44.8373496,-44.7332 C 18.893918,129.79638 39.070717,109.49279 39.070717,109.28053 c 0,-0.21225 -20.240559,-20.626001 -44.9790194,-45.363887 z m -110.4194376,0 -44.97903,-44.97799 -9.78971,9.81781 -9.78973,9.81782 35.36597,35.17633 c 19.45129,19.34699 35.36597,35.327757 35.36597,35.512817 0,0.18506 -15.79601,16.13308 -35.10226,35.44005 l -35.10226,35.10357 9.66769,9.66289 9.66769,9.6629 44.83735,-44.7332 c 24.660538,-24.60326 44.837348,-44.90685 44.837348,-45.11911 0,-0.21225 -20.24056,-20.626001 -44.979028,-45.363887 z" fill="#000000" stroke-width="0.35277775"></path></g></svg>