<svg height='100px' width='100px'  fill="#00000020" xmlns="http://www.w3.org/2000/svg" xmlns:xlink="http://www.w3.org/1999/xlink" version="1.1" x="0px" y="0px" viewBox="0 0 90 90" enable-background="new 0 0 90 90" xml:space="preserve"><rect x="17.6" y="66.3" width="54.8" height="10.5"></rect><polygon points="13.7,39 17.6,64.2 43.6,64.2 43.6,22.9 32.5,20.3 "></polygon><polygon points="46.4,22.9 46.4,64.2 72.4,64.2 76.3,39 57.5,20.3 "></polygon><path d="M6.7,18.2L6.9,18c6.5-6.5,17-6.5,23.4,0l0.6,0.6L7.4,42.2l-0.7-0.6C0.3,35.1,0.3,24.6,6.7,18.2z"></path><path d="M83,17.9l0.2,0.2c6.5,6.5,6.5,17,0,23.4l-0.6,0.7L59,18.6l0.6-0.6C66.1,11.5,76.6,11.5,83,17.9z"></path></svg>