<svg height='100px' width='100px'  fill="#00000020" xmlns="http://www.w3.org/2000/svg" viewBox="0 0 24 24" x="0px" y="0px"><path fill-rule="evenodd" d="M86.3636568,11.455675 L89.9972339,16.231715 C90.9903993,17.5371497 90.737255,19.4005332 89.4318203,20.3936986 C88.914828,20.7870227 88.283139,21 87.6335353,21 L80.3663812,21 C78.7260954,21 77.3963812,19.6702857 77.3963812,18.03 C77.3963812,17.3803964 77.6093585,16.7487073 78.0026826,16.231715 L81.6362596,11.455675 C82.629425,10.1502403 84.4928086,9.89709602 85.7982432,10.8902614 C86.0113399,11.0523838 86.2015344,11.2425783 86.3636568,11.455675 L86.3636568,11.455675 Z M81,3 C82.1045695,3 83,3.8954305 83,5 L83,6 C83,7.1045695 82.1045695,8 81,8 C79.8954305,8 79,7.1045695 79,6 L79,5 C79,3.8954305 79.8954305,3 81,3 Z M77,8 C78.1045695,8 79,8.8954305 79,10 L79,11 C79,12.1045695 78.1045695,13 77,13 C75.8954305,13 75,12.1045695 75,11 L75,10 C75,8.8954305 75.8954305,8 77,8 Z M87,3 C88.1045695,3 89,3.8954305 89,5 L89,6 C89,7.1045695 88.1045695,8 87,8 C85.8954305,8 85,7.1045695 85,6 L85,5 C85,3.8954305 85.8954305,3 87,3 Z M91,8 C92.1045695,8 93,8.8954305 93,10 L93,11 C93,12.1045695 92.1045695,13 91,13 C89.8954305,13 89,12.1045695 89,11 L89,10 C89,8.8954305 89.8954305,8 91,8 Z" transform="translate(-72)"></path></svg>