<svg xmlns="http://www.w3.org/2000/svg" data-name="Layer 1" fill="#FFFFFF" viewBox="0 0 100 100" x="0px" y="0px"><title>Artboard 1 copy</title><path d="M47.09,13.53h0L21.9,38.9a6.25,6.25,0,0,0,8.87,8.81l16.38-16.5A12.51,12.51,0,0,0,47.09,13.53Z"></path><path d="M80.72,80.88,55.55,33.43c-.17-.31-.37-.6-.56-.9L74,21.36A12.51,12.51,0,0,0,78.5,4.25l-26,15.26A14.55,14.55,0,0,1,51,29.28c-.11.21-.22.41-.34.61-.23.39-.48.76-.75,1.13l-.31.39c-.33.41-.67.82-1,1.21L47.23,34h0L34.77,46.52l2.35,4.31a8,8,0,0,1,1,3.76V68.84A23.07,23.07,0,0,1,35,80.36h0a10.25,10.25,0,0,0,8.87,15.39h0l6.63-11.7a23,23,0,0,0,3-11.28V65A.81.81,0,0,1,55,64.57l16.8,31.18A10.12,10.12,0,0,0,80.72,80.88Z"></path><path d="M22.74,35.21l17.4-17.52a12.42,12.42,0,1,0-17.4,17.52Z"></path></svg>