<svg xmlns="http://www.w3.org/2000/svg" xmlns:xlink="http://www.w3.org/1999/xlink" version="1.1" x="0px" y="0px" viewBox="0 0 100 100" enable-background="new 0 0 100 100" xml:space="preserve"><g><path d="M92.95,8.779c1.847-1.694,1.977-4.571,0.284-6.424c-1.688-1.855-4.559-1.98-6.418-0.29L59.433,27.078l-43.806-0.106   c-2.51,0-4.547,2.036-4.547,4.547c0,2.509,2.037,4.547,4.547,4.547h26.701v16.416l-18.625,0.018   c-1.794,0.006-3.475,0.888-4.49,2.368c-1.019,1.48-1.241,3.369-0.598,5.044l8.338,21.728c0.834,2.172,2.902,3.505,5.095,3.505   c0.651,0,1.312-0.119,1.954-0.367c2.815-1.077,4.22-4.233,3.14-7.045l-5.497-14.32l24.452-0.024l0.031,14.983l-21.542,9.812   c-2.742,1.248-3.953,4.485-2.704,7.229c0.915,2.006,2.896,3.196,4.967,3.196c0.759,0,1.526-0.159,2.26-0.491l24.747-11.273   c1.947-0.888,3.201-2.836,3.189-4.978L66.96,32.513L92.95,8.779z"></path><path d="M57.643,16.913c0,4.967-4.027,8.998-8.99,8.998c-4.97,0-9-4.031-9-8.998c0-4.968,4.029-8.999,9-8.999   C53.615,7.914,57.643,11.945,57.643,16.913z"></path></g></svg>