<svg xmlns="http://www.w3.org/2000/svg" xmlns:xlink="http://www.w3.org/1999/xlink" version="1.1" fill="#FFFFFF" x="0px" y="0px" viewBox="0 0 256.612 488" style="enable-background:new 0 0 256.612 488;" xml:space="preserve"><g><path d="M238.583,183.337c4.438-12.073,0.614-24.972-8.51-29.615c-1.964,17.44-5.03,33.146-8.899,45.942   C228.532,198.233,235.393,192.013,238.583,183.337z"></path><path d="M69.739,238.838c0.278-6.332,0.546-13.39,0.579-21.461c0.023-5.642,2.993-10.233,7.75-11.981   c3.327-1.221,7.022-0.861,10.168,0.816c2.23-2.103,4.935-2.912,7.338-3.135c-0.855-9.411,5.427-12.825,7.664-13.731   c1.898-0.768,4.102-1.114,6.226-1.005c0.614-6.512,4.721-10.604,9.253-11.855c5.065-1.397,11.168,0.443,15.134,6.125   c0.769-0.471,1.58-0.859,2.421-1.137c5.408-1.785,12.745,0.388,15.696,7.937c0.038,0.097,0.072,0.195,0.103,0.295l3,9.888   c2.572-1.253,5.622-1.738,8.475-1.084c1.876,0.431,6.798,2.183,8.254,8.735c1.53-0.576,2.928-0.796,4.041-0.851   c2.822-0.143,5.551,0.846,7.494,2.703c1.469,1.404,3.216,3.985,3.199,8.312c-0.031,8.109,0.199,15.178,0.458,21.538   c7.445-6.636,13.821-14.04,18.004-21.012c7.948-13.245,14.478-38.95,17.53-68.9c-19.489-43.798-40.563-47.523-67.195-52.22   c-21.859-3.855-46.341-8.189-73.648-35.359c-7.657,51.128-39.422,81.753-47.251,88.615c3.096,29.507,9.568,54.772,17.423,67.864   C56.014,224.865,62.346,232.229,69.739,238.838z M174.645,191.328c-0.682,0.455-1.453,0.672-2.215,0.672   c-1.293,0-2.562-0.625-3.332-1.782l-8-12c-1.226-1.838-0.729-4.322,1.109-5.547c1.838-1.227,4.322-0.728,5.547,1.109l8,12   C176.98,187.619,176.483,190.103,174.645,191.328z M190.645,191.328c-0.682,0.455-1.453,0.672-2.215,0.672   c-1.293,0-2.562-0.625-3.332-1.782l-8-12c-1.226-1.838-0.729-4.322,1.109-5.547c1.839-1.227,4.322-0.728,5.547,1.109l8,12   C192.98,187.619,192.483,190.103,190.645,191.328z M199.754,173.781l8,12c1.226,1.838,0.729,4.322-1.109,5.547   c-0.682,0.455-1.453,0.672-2.215,0.672c-1.293,0-2.562-0.625-3.332-1.782l-8-12c-1.226-1.838-0.729-4.322,1.109-5.547   C196.045,171.445,198.53,171.944,199.754,173.781z M157.936,105.146c1.554-1.571,4.086-1.583,5.657-0.03   c6.973,6.898,16.602,4.719,17.009,4.622c2.141-0.505,4.301,0.81,4.818,2.949c0.519,2.139-0.779,4.292-2.916,4.821   c-0.231,0.058-2.567,0.612-5.938,0.612c-5.064,0-12.467-1.251-18.6-7.318C156.396,109.249,156.382,106.716,157.936,105.146z    M168.42,139.994c0.327,0,0.649,0.023,0.97,0.049c6.214-2.088,8.237-6.717,8.322-6.921c0.804-2.058,3.114-3.052,5.173-2.248   c2.058,0.804,3.064,3.146,2.261,5.204c-0.1,0.256-1.895,4.658-6.833,8.271c3.311,0.015,6.164-1.599,8.673-4.898   c1.336-1.758,3.846-2.1,5.604-0.763s2.101,3.847,0.763,5.605c-3.525,4.636-7.996,7.343-12.944,7.932   c-0.125,6.509-5.449,11.768-11.988,11.768c-6.617,0-12-5.383-12-12S161.803,139.994,168.42,139.994z M90.645,191.328   C89.963,191.783,89.192,192,88.43,192c-1.293,0-2.562-0.625-3.332-1.782l-8-12c-1.226-1.838-0.729-4.322,1.109-5.547   c1.839-1.227,4.322-0.728,5.547,1.109l8,12C92.98,187.619,92.483,190.103,90.645,191.328z M71.446,112.665   c0.53-2.139,2.688-3.446,4.827-2.926c0.45,0.105,10.052,2.257,17.006-4.623c1.572-1.554,4.104-1.54,5.657,0.03   c1.554,1.571,1.54,4.103-0.03,5.657c-6.132,6.067-13.535,7.318-18.6,7.318c-3.372,0-5.707-0.555-5.938-0.612   C72.223,116.978,70.915,114.809,71.446,112.665z M64.252,138.689c1.759-1.337,4.269-0.996,5.605,0.762   c2.509,3.299,5.365,4.913,8.673,4.898c-4.938-3.613-6.733-8.015-6.833-8.271c-0.804-2.058,0.212-4.377,2.27-5.181   c2.047-0.799,4.349,0.2,5.167,2.232c0.117,0.276,2.159,4.844,8.319,6.914c0.321-0.026,0.643-0.049,0.97-0.049   c6.617,0,12,5.383,12,12s-5.383,12-12,12c-6.539,0-11.863-5.259-11.988-11.768c-4.948-0.59-9.418-3.296-12.944-7.932   C62.153,142.536,62.495,140.026,64.252,138.689z M62.208,172.672c1.838-1.227,4.322-0.728,5.547,1.109l8,12   c1.226,1.838,0.729,4.322-1.109,5.547C73.963,191.783,73.192,192,72.43,192c-1.293,0-2.562-0.625-3.332-1.782l-8-12   C59.873,176.381,60.37,173.897,62.208,172.672z M46.208,172.672c1.838-1.227,4.322-0.728,5.547,1.109l8,12   c1.226,1.838,0.729,4.322-1.109,5.547C57.963,191.783,57.192,192,56.43,192c-1.293,0-2.562-0.625-3.332-1.782l-8-12   C43.873,176.381,44.37,173.897,46.208,172.672z"></path><path d="M18.27,183.337c3.19,8.676,10.052,14.896,17.409,16.327c-3.869-12.796-6.936-28.502-8.899-45.942   C17.656,158.364,13.832,171.264,18.27,183.337z"></path><path d="M179.186,243.735c-0.324-7.559-0.691-16.125-0.651-26.356c0.003-0.819-0.12-1.917-0.727-2.497   c-0.517-0.494-1.276-0.511-1.572-0.497c-4.305,0.212-11.589,7.528-11.589,33.6c0,2.209-1.791,4-4,4s-4-1.791-4-4   c0-5.021,0.259-9.422,0.708-13.313l-12.889-42.477c-1.193-2.889-3.745-3.765-5.684-3.125c-2.367,0.782-3.17,3.494-2.147,7.254   l10.876,38.401c0.602,2.125-0.633,4.336-2.759,4.938c-0.364,0.103-0.731,0.152-1.092,0.152c-1.744,0-3.348-1.15-3.847-2.911   l-10.888-38.442c-0.911-3.353-0.905-6.264-0.278-8.708c-1.803-4.565-5.186-6.278-7.802-5.558c-2.991,0.825-4.176,4.433-3.032,9.204   l13.182,43.277c0.644,2.113-0.548,4.348-2.66,4.992c-0.389,0.118-0.781,0.174-1.167,0.174c-1.715,0-3.3-1.11-3.825-2.835   l-12.926-42.437c-1.023-0.394-3.498-0.5-5.208,0.757c-2.466,1.813-1.816,5.822-0.837,8.866l11.776,35.283   c0.699,2.096-0.432,4.361-2.527,5.061c-0.42,0.14-0.848,0.207-1.268,0.207c-1.674,0-3.234-1.059-3.793-2.734l-11.012-32.992   c-1.341-0.054-2.946,0.132-3.876,1.051c-1.514,1.494-1.651,5.302-0.381,10.448c0.009,0.034,0.017,0.067,0.024,0.101   c0.149,0.68,15.211,68.212,38.122,86.154c0.751,0.587,1.267,1.424,1.455,2.358c0.19,0.941,16.71,82.69,27.401,130.778   c11.078,6.048,23.286,7.009,34.558,2.655c10.745-4.151,19.115-12.547,22.649-22.608c-11.618-31.275-41.712-110.214-48.814-119.684   c-1.002-1.336-1.068-3.155-0.166-4.561C180.687,278.761,180.154,266.32,179.186,243.735z"></path><path d="M88.423,155.994c2.206,0,4-1.794,4-4s-1.794-4-4-4s-4,1.794-4,4S86.217,155.994,88.423,155.994z"></path><path d="M39.353,421.959c3.535,10.061,11.904,18.456,22.649,22.607c11.274,4.355,23.479,3.393,34.557-2.655   c9.911-44.579,24.823-118.046,27.105-129.312c-23.34-22.238-37.402-84.809-38.152-88.212c-1.05-4.27-1.325-7.944-0.841-11.01   c-1.337-0.792-2.785-0.86-3.843-0.472c-1.609,0.591-2.5,2.191-2.51,4.505c-0.04,9.714-0.412,17.944-0.74,25.206   c-1.077,23.852-1.618,35.824,10.755,55.096c0.902,1.406,0.836,3.225-0.166,4.561C81.068,311.738,51.005,390.59,39.353,421.959z"></path><path d="M123.885,351.477c1.468,0.334,2.982,0.523,4.541,0.523c1.559,0,3.073-0.189,4.541-0.523   c-1.734-8.423-3.283-15.989-4.541-22.154C127.168,335.488,125.62,343.052,123.885,351.477z"></path><path d="M168.42,155.994c2.206,0,4-1.794,4-4s-1.794-4-4-4s-4,1.794-4,4S166.214,155.994,168.42,155.994z"></path><path d="M215.236,488h5.19v-5.106c-0.392,0.466-0.795,0.924-1.209,1.373C217.967,485.624,216.634,486.867,215.236,488z"></path><path d="M24.708,384.414c-5.779,20.986-5.243,42.449,1.186,61.66c0.487-8.005,2.291-16.585,5.441-25.505   c3.042-8.206,23.203-62.392,37.634-96.47C47.618,337.386,31.752,358.835,24.708,384.414z"></path><path d="M187.884,324.099c14.429,34.075,34.585,88.248,37.612,96.412c3.161,8.95,4.971,17.553,5.458,25.575   c6.433-19.214,6.971-40.682,1.19-61.672C225.101,358.835,209.234,337.386,187.884,324.099z"></path><path d="M197.734,452.028c-5.622,2.172-11.43,3.25-17.241,3.25c-6.053,0-12.111-1.169-17.975-3.487   c0.717,3.139,1.394,6.054,2.021,8.692c3.293,14.109,11.398,23.83,22.242,26.687c9.376,2.472,19.549-0.72,26.554-8.323   c9.536-10.351,12.149-26.672,7.58-45.709C215.653,441.502,207.504,448.253,197.734,452.028z"></path><path d="M255.135,182.447c5.847-64.5-5.687-113.075-34.278-144.376C189.469,3.709,145.761,0,128.426,0   c-24.614,0.008-43.121,9.893-56.672,30.219c-0.863,1.295-2.395,1.973-3.937,1.735c-11.405-1.756-22.247,2.158-32.24,11.625   C9.319,68.454-4.459,124.248,1.294,182.415c1.503,15.192,5.072,30.802,10.913,47.72c8.762,25.381,5.274,50.032,2.197,71.781   c-3.62,25.59-6.521,46.172,9.61,61.473c10.659-22.496,28.243-40.629,50.19-51.305c2.368-5.237,4.431-9.463,6.031-12.229   c-11.1-18.205-11.692-31.578-10.939-50.902c-10.05-8.088-18.843-17.804-24.301-26.901c-2.326-3.876-4.517-8.61-6.538-14.072   c-11.787-0.166-22.872-8.761-27.696-21.882c-6.135-16.683,0.328-34.813,14.405-40.417c1.005-0.4,2.08-0.729,3.256-1   c5.361-4.637,40.54-36.979,46.147-90.76c-0.759-0.853-1.517-1.71-2.28-2.6c-1.438-1.678-1.241-4.203,0.437-5.64   s4.203-1.242,5.64,0.436c29.255,34.161,55.34,38.762,78.354,42.821c26.517,4.677,51.581,9.103,72.738,56.005   c0.782,0.215,1.522,0.458,2.225,0.738c14.078,5.604,20.541,23.735,14.406,40.418c-4.822,13.12-15.909,21.715-27.696,21.882   c-2.021,5.462-4.212,10.196-6.538,14.072c-5.487,9.146-14.332,18.903-24.443,27.016c0.742,19.383,0.283,32.607-10.797,50.787   c1.601,2.766,3.663,6.992,6.031,12.229c21.858,10.632,39.388,28.659,50.06,51.027c15.807-15.27,12.921-35.744,9.32-61.195   c-3.077-21.749-6.564-46.4,2.197-71.781C250.236,212.725,253.804,197.126,255.135,182.447z"></path><path d="M94.335,451.791c-5.864,2.317-11.923,3.487-17.975,3.487c-5.813,0-11.618-1.078-17.241-3.25   c-9.772-3.775-17.922-10.529-23.183-18.895c-4.57,19.019-1.96,35.356,7.583,45.714c7.005,7.604,17.183,10.794,26.553,8.323   c10.844-2.856,18.95-12.577,22.239-26.67C92.938,457.857,93.617,454.936,94.335,451.791z"></path><path d="M37.634,484.267c-0.413-0.449-0.816-0.906-1.208-1.372V488h5.19C40.218,486.867,38.885,485.624,37.634,484.267z"></path><path d="M164.054,213.58c0.314-2.552,0.38-6.657-2.297-7.271c-1.626-0.372-3.436,0.401-4.292,1.177l3.559,11.728   C161.952,216.977,162.976,215.113,164.054,213.58z"></path><path d="M156.751,462.317c-5.579-23.463-15.031-68.45-22.166-102.991c-1.997,0.443-4.055,0.674-6.16,0.674   c-2.105,0-4.163-0.231-6.16-0.674c-7.136,34.544-16.588,79.534-22.169,103.007c-2.563,10.98-7.714,19.796-14.733,25.667h86.125   C164.469,482.128,159.317,473.308,156.751,462.317z"></path></g></svg>