<svg xmlns="http://www.w3.org/2000/svg" xmlns:xlink="http://www.w3.org/1999/xlink" version="1.1" fill="#FFFFFF" x="0px" y="0px" viewBox="0 0 424.011 488" style="enable-background:new 0 0 424.011 488;" xml:space="preserve"><g><path d="M148.673,385.781l13.966-20.948l-17.137-13.71c-1.273-1.019-1.801-2.71-1.332-4.272   c4.302-14.338,10.49-25.316,16.783-33.569c-23.25,12.998-49.762,35.545-70.31,74.575c3.766,2.691,7.495,5.709,11.098,9.333   c7.803,7.85,12.264,18.379,12.561,29.65L115.911,488h51.213c-11.345-56.927-18.981-98.856-19.059-99.284   C147.88,387.695,148.098,386.644,148.673,385.781z"></path><path d="M80.194,468.065c-7.87,0-16.614-0.763-25.548-2.902L52.423,488h55.485l-0.601-22.823   C101.717,466.397,91.926,468.065,80.194,468.065z"></path><path d="M208.001,356h8.845c1.482,0,2.819-0.801,3.52-2.1l3.927-9.609l-12.291-14.317l-10.43,12.149l2.684,11.279   C204.839,354.962,206.327,356,208.001,356z"></path><path d="M55.876,452.515l-0.448,4.607c22.286,5.621,43.967,1.672,51.664-0.111l-0.788-29.959   c-0.242-9.224-3.878-17.825-10.236-24.221c-6.846-6.887-14.504-11.577-21.91-16.112c-5.202-3.186-10.581-6.479-15.638-10.498   c-7.609-6.226-13.624-6.177-16.227-3.381c-1.461,1.569-1.871,4.28,0.468,6.836c1.471,1.341,16.236,14.758,23.625,20.149   c1.785,1.303,2.176,3.805,0.874,5.589c-1.303,1.786-3.806,2.175-5.589,0.874c-8.099-5.91-23.763-20.208-24.425-20.814   c-0.072-0.065-0.143-0.135-0.21-0.206c-3.328-3.523-4.551-8.002-3.652-12.089c-6.346-4.944-11.056-5.265-13.041-3.181   c-0.092,0.097-0.171,0.207-0.254,0.314c-0.062,0.12-0.109,0.243-0.184,0.359c-0.078,0.12-0.174,0.219-0.262,0.328   c-1.485,2.854-0.536,7.982,3.925,12.559c0.987,0.935,15.035,14.221,22.372,20.219c1.711,1.397,1.964,3.918,0.565,5.628   c-0.79,0.968-1.94,1.469-3.099,1.469c-0.891,0-1.786-0.296-2.529-0.903c-7.798-6.373-22.258-20.079-22.869-20.659   c-0.035-0.033-0.069-0.067-0.103-0.102c-6.035-6.151-7.729-13.288-6.43-18.827c-4.353-1.642-8.012-0.386-9.958,1.959   c-1.969,2.373-2.577,6.484,1.621,10.904c0.184,0.199,14.207,15.415,41.395,41.331C52.494,432.166,56.629,442.35,55.876,452.515z"></path><path d="M152.636,346.586l17.864,14.291c1.62,1.296,1.98,3.615,0.829,5.342l-15.103,22.653c1.512,8.247,8.798,47.72,19.054,99.128   h8.253l-0.123-185.624C175.392,308.16,160.829,321.54,152.636,346.586z"></path><path d="M304.748,199.665c7.358-1.431,14.22-7.651,17.41-16.328c4.438-12.072,0.613-24.972-8.511-29.615   C311.684,171.163,308.618,186.868,304.748,199.665z"></path><path d="M214.554,111.729c-1.014-0.394-21.847-8.837-36.204-41.4c-1.915,9.522-5.952,21.043-14.384,30.356   c-1.05,1.16-2.684,1.601-4.172,1.129c-1.492-0.473-2.571-1.771-2.763-3.324c-0.762-6.183-1.626-10.707-2.764-14.646   c-6.652,31.464-30.459,59.433-36.292,65.917c3.083,29.641,9.572,55.038,17.455,68.176c10.685,17.807,40.921,46.058,76.57,46.058   s65.886-28.251,76.57-46.058c7.946-13.243,14.476-38.942,17.529-68.888c-14.134-31.348-23.676-38.236-34.704-46.179   c-8.118-5.848-17.174-12.372-29.023-28.471c-0.463,5.72-0.285,13.25,2.364,20.17c0.56,1.461,0.216,3.113-0.878,4.23   c-1.095,1.116-2.737,1.495-4.212,0.964c-11.395-4.1-20.559-11.01-27.738-20.967c0.622,8.08,2.517,18.315,7.572,27.229   c0.834,1.472,0.653,3.309-0.453,4.589C217.921,111.895,216.129,112.342,214.554,111.729z M252.011,160c-4.418,0-8-3.582-8-8   c0-4.418,3.582-8,8-8s8,3.582,8,8C260.011,156.418,256.429,160,252.011,160z M242.051,110.886   c9.983-7.032,23.205-4.804,23.762-4.705c2.176,0.384,3.629,2.458,3.245,4.634c-0.382,2.172-2.448,3.628-4.625,3.246   c-0.181-0.029-10.575-1.707-17.774,3.364c-0.7,0.494-1.504,0.73-2.3,0.73c-1.258,0-2.495-0.591-3.273-1.696   C239.813,114.653,240.245,112.158,242.051,110.886z M172.011,160c-4.418,0-8-3.582-8-8c0-4.418,3.582-8,8-8s8,3.582,8,8   C180.011,156.418,176.429,160,172.011,160z M181.971,113.037c-6.029,4.248-13.241,5.117-18.13,5.117   c-3.205,0-5.411-0.373-5.632-0.412c-2.176-0.384-3.629-2.458-3.245-4.634c0.382-2.172,2.446-3.634,4.625-3.246   c0.181,0.029,10.575,1.708,17.774-3.364c1.807-1.275,4.303-0.839,5.573,0.966C184.209,109.27,183.777,111.765,181.971,113.037z    M224.943,158.077c10.43,4.642,8.935,19.744-2.073,18.995c-1.478-0.101-2.934-0.348-4.343-0.604   c-4.042-0.735-8.178,0.035-11.849,2.223c-2.103,1.253-4.399,2.468-6.693,2.706c-8.23,0.852-9.491-8.014-6.524-13.76   C198.143,158.573,211.587,152.648,224.943,158.077z"></path><path d="M119.254,199.664c-3.869-12.796-6.936-28.501-8.899-45.942c-9.124,4.644-12.948,17.544-8.51,29.615   C105.035,192.014,111.897,198.233,119.254,199.664z"></path><path d="M148.001,68c0-1.854,1.273-3.465,3.077-3.893c1.807-0.425,3.666,0.441,4.497,2.097c3.77,7.506,6.148,12.951,7.887,21.66   c9.374-16.029,8.556-35.437,8.544-35.663c-0.1-2.028,1.336-3.812,3.34-4.145c2.002-0.34,3.938,0.887,4.499,2.837   c7.255,25.208,18.915,39.2,27.333,46.469c-5.12-16.826-3.25-33.001-3.147-33.847c0.217-1.777,1.589-3.194,3.358-3.469   c1.766-0.266,3.507,0.661,4.25,2.29c5.717,12.508,13.235,21.126,23.325,26.604c-2.286-13.23,1.012-25.396,1.184-26.013   c0.419-1.51,1.682-2.635,3.229-2.88c1.541-0.244,3.096,0.436,3.961,1.743c13.924,21.036,23.486,27.925,32.734,34.587   c10.898,7.85,20.457,14.736,33.423,41.083c11.157-38.102,7.829-71.093-9.785-95.875C277.916,10.925,240.089,0,211.943,0   c-0.013,0-0.022,0-0.035,0c-23.484,0.008-40.975,4.397-55.582,26.225c-0.653,0.977-1.703,1.616-2.87,1.75   c-12.559,1.435-25.115,10.596-33.591,24.505c-14.05,23.061-15.637,54.876-4.579,88.115C125.101,128.76,148.001,97.938,148.001,68z"></path><polygon points="191.412,305.993 191.436,341.647 206.729,323.834  "></polygon><path d="M333.362,387.864c-20.549-39.036-47.061-61.584-70.313-74.583c6.293,8.253,12.482,19.231,16.783,33.569   c0.469,1.563-0.059,3.254-1.332,4.272l-17.137,13.71l13.966,20.948c0.575,0.862,0.793,1.914,0.607,2.935   c-0.078,0.428-7.713,42.357-19.059,99.284h51.227l1.609-61.159c0.297-11.271,4.758-21.802,12.56-29.65   C325.873,393.57,329.6,390.553,333.362,387.864z"></path><path d="M343.823,468.065c-11.733,0-21.523-1.668-27.114-2.888L316.108,488h55.484l-2.223-22.836   C360.435,467.303,351.691,468.065,343.823,468.065z"></path><path d="M422.497,372.341c-1.946-2.345-5.604-3.603-9.957-1.96c1.3,5.539-0.394,12.677-6.429,18.828   c-0.033,0.034-0.067,0.068-0.103,0.102c-0.611,0.58-15.072,14.286-22.87,20.659c-0.743,0.607-1.639,0.903-2.529,0.903   c-1.159,0-2.309-0.501-3.099-1.469c-1.398-1.71-1.146-4.23,0.565-5.628c7.338-5.998,21.388-19.286,22.373-20.22   c4.458-4.574,5.409-9.7,3.927-12.555c-0.089-0.11-0.186-0.21-0.265-0.331c-0.075-0.116-0.124-0.241-0.186-0.362   c-0.083-0.105-0.161-0.215-0.252-0.311c-1.986-2.083-6.698-1.763-13.042,3.18c0.899,4.087-0.324,8.566-3.652,12.089   c-0.067,0.071-0.138,0.141-0.21,0.206c-0.662,0.606-16.326,14.904-24.425,20.814c-1.783,1.3-4.287,0.911-5.589-0.874   c-1.302-1.784-0.911-4.286,0.874-5.589c7.392-5.395,22.154-18.809,23.625-20.149c2.339-2.555,1.929-5.267,0.467-6.836   c-2.603-2.796-8.616-2.843-16.182,3.345c-5.102,4.055-10.479,7.349-15.682,10.534c-7.406,4.535-15.064,9.226-21.911,16.112   c-6.358,6.396-9.993,14.997-10.235,24.221l-0.788,29.956c7.712,1.778,29.432,5.718,51.662,0.115l-0.439-4.515   c-0.761-10.258,3.374-20.44,11.336-28.031c27.188-25.915,41.21-41.132,41.349-41.282   C425.075,378.825,424.466,374.714,422.497,372.341z"></path><path d="M196.617,355.795c-0.037-0.111-0.069-0.225-0.097-0.34l-1.388-5.831l-3.688,4.295l0.049,73.524l8.257-66.735   C198.351,359.382,197.257,357.714,196.617,355.795z"></path><path d="M252.673,366.219c-1.151-1.727-0.791-4.046,0.829-5.342l17.864-14.291c-8.192-25.043-22.752-38.423-30.776-44.21   L240.469,488h8.253c10.256-51.408,17.542-90.881,19.054-99.128L252.673,366.219z"></path><path d="M208.001,364c-0.2,0-0.396-0.014-0.594-0.024L192.062,488h39.877l-15.391-124H208.001z"></path><path d="M212.001,271.994c-6.927,0-13.657-0.984-20.116-2.685l-0.483,22.033l0.001,2.36l20.597,23.991l20.596-23.99l0.001-2.452   l-0.481-21.942C225.659,271.01,218.929,271.994,212.001,271.994z"></path><path d="M227.704,357.091c-0.039,0.094-0.08,0.187-0.126,0.276c-0.807,1.614-1.938,2.981-3.289,4.052l8.22,66.225l0.049-73.725   l-2.41-2.807L227.704,357.091z"></path><polygon points="232.566,341.646 232.589,305.993 217.273,323.834  "></polygon></g></svg>