<svg xmlns="http://www.w3.org/2000/svg" xmlns:xlink="http://www.w3.org/1999/xlink" version="1.1" fill="#FFFFFF" x="0px" y="0px" viewBox="0 0 100 100" enable-background="new 0 0 100 100" xml:space="preserve"><path d="M39.699,22.083c-1.118,0.449-2.328,0.691-3.576,0.691c-1.807,0-3.56-0.503-5.095-1.467c-1.508-0.964-2.69-2.296-3.451-3.858  c-0.027-0.027-0.041-0.055-0.054-0.082c-0.028-0.055-0.041-0.095-0.055-0.136c-0.068-0.312,0.082-0.638,0.38-0.775  c0.014,0,0.027-0.014,0.041-0.014c0.326-0.135,0.706,0.014,0.869,0.339c0.639,1.345,1.658,2.528,3.003,3.37  c1.345,0.856,2.867,1.264,4.361,1.264c2.705,0,5.354-1.345,6.917-3.805c0.095-0.163,0.19-0.326,0.285-0.488  c0-0.014,0.014-0.014,0.014-0.028c0.176-0.408,0.353-0.813,0.53-1.25c1.182-3.491-0.136-7.445-3.383-9.51  c-1.345-0.857-2.859-1.137-4.348-1.265c-12.803-1.1-13.902,11.323-19.455,12.562c-0.23,0.051-0.315,0.331-0.124,0.469  c1.116,0.803,3.953,2.528,6.717,1.633c0.242-0.078,0.446,0.19,0.295,0.394c-0.928,1.255-3.135,3.752-6.16,4.854  c-0.212,0.077-0.252,0.354-0.057,0.465c1.129,0.645,4.242,1.944,8.079-0.444c0.203-0.126,0.459,0.039,0.402,0.272  c-0.187,0.771-0.679,2.191-1.944,3.766c-0.168,0.21,0.042,0.508,0.293,0.411c1.335-0.51,3.728-1.52,4.89-2.595  c0.152-0.14,0.394-0.086,0.441,0.115c0.176,0.75,0.32,2.4-1.006,4.423c-0.129,0.196,0.035,0.46,0.265,0.416  c6.328-1.178,7.803-5.671,11.216-9.309C40.188,22.289,39.967,21.975,39.699,22.083z M51.279,48.152l7.769-1.873l0.484-0.877  l-6.63-6.461l-11.013,2.653c-0.093,0.023-0.176,0.066-0.267,0.094c-0.146,0.045-0.292,0.09-0.433,0.151  c-0.129,0.056-0.253,0.126-0.377,0.195c-0.119,0.066-0.238,0.131-0.352,0.21c-0.127,0.087-0.246,0.19-0.365,0.293  c-0.07,0.061-0.148,0.107-0.215,0.173c-0.026,0.026-0.042,0.056-0.068,0.083c-0.108,0.111-0.199,0.232-0.292,0.352  c-0.081,0.105-0.168,0.207-0.238,0.317c-0.073,0.115-0.128,0.236-0.19,0.356c-0.064,0.127-0.135,0.251-0.187,0.383  c-0.049,0.126-0.08,0.256-0.117,0.385c-0.038,0.134-0.083,0.266-0.107,0.403c-0.025,0.135-0.03,0.274-0.042,0.413  c-0.012,0.138-0.029,0.276-0.027,0.415c0.002,0.128,0.021,0.256,0.035,0.384c0.016,0.155,0.03,0.309,0.063,0.461  c0.007,0.036,0.006,0.07,0.014,0.104c0.03,0.125,0.079,0.238,0.119,0.356c0.032,0.095,0.056,0.19,0.095,0.283  c0.096,0.229,0.209,0.454,0.347,0.669c0.005,0.008,0.009,0.017,0.014,0.025c0.145,0.222,0.317,0.431,0.507,0.63  c0.014,0.014,0.022,0.031,0.037,0.044l11.724,11.872l0.16-0.672c0.129-0.496,0.309-0.957,0.532-1.375l3.345-6.066L51.279,48.152z   M83.479,14.444c-0.386-2.06-2.181-3.511-4.201-3.511c-0.26,0-0.521,0.023-0.785,0.073l-30.396,5.571  c-0.258,0.04-0.516,0.081-0.774,0.135c-0.19,0.027-0.367,0.082-0.544,0.136c-0.068,0.013-0.149,0.042-0.217,0.068  c-0.992,0.326-1.929,0.897-2.717,1.711c-2.636,2.704-2.582,7.052,0.122,9.702l17.202,16.768l0.055,0.054L53.45,59.255  c-0.179,0.326-0.312,0.693-0.408,1.06l-0.519,2.176c-0.106,0.367-0.162,0.762-0.162,1.154c0,0.149,0.015,0.299,0.029,0.448  c0.012,0.136,0.025,0.272,0.053,0.408c0,0.013,0.014,0.04,0.014,0.054l6.025,27.062C58.918,93.628,60.698,95,62.668,95  c0.298,0,0.609-0.04,0.911-0.096c2.31-0.504,3.79-2.785,3.288-5.108l-5.822-26.098l0.204-0.815l10.312-18.737  c0.312-0.448,0.569-0.923,0.774-1.412V42.72c0.462-1.141,0.584-2.391,0.394-3.587c-0.203-1.427-0.869-2.786-1.981-3.859  L58.545,23.371l21.48-3.94C82.363,19.009,83.898,16.781,83.479,14.444z"></path></svg>