<svg xmlns="http://www.w3.org/2000/svg" xmlns:xlink="http://www.w3.org/1999/xlink" version="1.1" fill="#FFFFFF" x="0px" y="0px" viewBox="0 0 487.967 484.535" style="enable-background:new 0 0 487.967 484.535;" xml:space="preserve"><g><path d="M11.512,132.351c-0.687,0-1.351,0.045-1.987,0.141c-7.166,1.073-9.924,4.787-9.479,7.991   c0.369,2.653,3.147,5.211,8.382,4.533c3.182-0.407,4.8-1.265,7.039-2.45c2.898-1.535,6.296-3.335,13.289-4.659   C23.413,135.021,16.8,132.351,11.512,132.351z"></path><path d="M441.916,32.145c4.934-1.868,6.188-5.427,5.266-7.942c-0.766-2.09-2.984-3.679-6.517-3.679   c-1.603,0-3.476,0.327-5.606,1.082c-5.278,1.872-10.632,8.106-14.427,13.823c6.794-2.119,10.64-2.129,13.92-2.137   C437.086,33.285,438.916,33.281,441.916,32.145z"></path><path d="M481.474,92.943c-3.642-1.036-9.054,0.028-13.863,1.637c4.313,1.608,6.569,3.198,8.529,4.578   c1.7,1.198,2.824,1.989,5.254,2.625c3.748,0.981,5.979-0.497,6.467-2.283C488.44,97.381,486.687,94.426,481.474,92.943z"></path><path d="M62.963,28.397c3.651,1.382,5.858,1.388,8.914,1.396c4.099,0.01,8.958,0.021,18.042,3.09   c-4.57-7.239-11.529-15.778-18.399-18.215c-2.584-0.916-4.868-1.313-6.835-1.313c-4.496,0-7.336,2.078-8.331,4.792   C55.152,21.423,56.708,26.028,62.963,28.397z"></path><path d="M229.841,196.332c0.705-0.161,1.377-0.397,2.043-0.667l-1.058-12.691c-3.71,1.74-6.084,4.352-6.746,7.676   c-0.357,1.794,0.169,3.744,1.309,4.853C226.411,196.495,227.909,196.775,229.841,196.332z"></path><path d="M243.955,191.792c1.609,0,3.039,0.235,4.348,0.592l0.961-11.525c-1.659-0.208-3.426-0.324-5.309-0.324   c-1.871,0-3.627,0.115-5.277,0.321l0.96,11.52C240.937,192.023,242.357,191.792,243.955,191.792z"></path><path d="M189.676,91.929c-21.662,36.514-32.963,83.172-36.289,98.615c3.475,18.943,8.39,34.561,14.014,43.935   c10.685,17.807,40.92,46.057,76.57,46.057c35.647,0,65.884-28.254,76.57-46.063c6.568-10.948,12.171-30.407,15.64-53.74   c-0.89-4.456-4.515-13.515-7.71-20.954c-3.88,8.658-9.089,15.176-9.386,15.544c-1.083,1.344-2.906,1.843-4.522,1.231   c-1.615-0.607-2.659-2.184-2.587-3.908c2-48.477-13.735-73.188-22.549-83.115c0.148,8.869,2.334,15.991,2.362,16.083   c0.448,1.433,0.056,2.998-1.016,4.05c-1.073,1.051-2.643,1.416-4.066,0.942c-13.679-4.56-24.764-14.427-32.129-22.64   c2.22,8.084,5.062,15.242,5.109,15.359c0.571,1.429,0.272,3.059-0.769,4.191c-1.04,1.133-2.639,1.567-4.11,1.121   c-19.832-6.036-29.959-21.074-34.8-31.67c-8.106,17.439-24.374,33.838-25.207,34.671c-1.271,1.272-3.234,1.539-4.799,0.652   c-1.564-0.886-2.346-2.706-1.91-4.45C189.614,101.745,189.881,96.26,189.676,91.929z M203.981,176.542c-4.418,0-8-3.582-8-8   c0-4.418,3.582-8,8-8s8,3.582,8,8C211.981,172.96,208.399,176.542,203.981,176.542z M283.981,176.542c-4.418,0-8-3.582-8-8   c0-4.418,3.582-8,8-8s8,3.582,8,8C291.981,172.96,288.399,176.542,283.981,176.542z M269.572,123.333   c1.769-1.322,4.275-0.963,5.6,0.806c3.221,4.304,10.025,6.396,20.799,6.396c2.209,0,4,1.791,4,4s-1.791,4-4,4   c-8.593,0-20.762-0.995-27.204-9.604C267.443,127.163,267.804,124.656,269.572,123.333z M251.577,120.555   c2.193-0.22,4.156,1.389,4.373,3.588c0.58,5.879,5.026,8.922,5.215,9.049c1.823,1.222,2.337,3.695,1.132,5.53   c-0.77,1.171-2.044,1.811-3.345,1.811c-0.736,0-1.481-0.205-2.148-0.634c-0.32-0.206-7.847-5.16-8.814-14.971   C247.772,122.729,249.378,120.771,251.577,120.555z M226.78,133.188c0.245-0.165,4.635-3.206,5.21-9.046   c0.216-2.197,2.174-3.802,4.373-3.588c2.198,0.217,3.805,2.175,3.588,4.373c-0.967,9.811-8.495,14.765-8.815,14.971   c-0.67,0.431-1.42,0.637-2.162,0.637c-1.315,0-2.602-0.646-3.367-1.834C224.417,136.852,224.943,134.391,226.78,133.188z    M243.955,172.535c22.693,0,26.979,12.67,27.752,16.553c0.893,4.482-0.479,9.139-3.579,12.152   c-2.233,2.171-5.125,3.295-8.358,3.295c-1.115,0-2.271-0.134-3.455-0.404c-2.499-0.572-4.526-1.565-6.314-2.442   c-2.163-1.06-3.871-1.896-6.046-1.896c-2.17,0-3.867,0.835-6.016,1.892c-1.785,0.878-3.808,1.874-6.313,2.447   c-4.614,1.055-8.809,0.028-11.813-2.891c-3.1-3.014-4.472-7.67-3.579-12.152C217.007,185.205,221.292,172.535,243.955,172.535z    M191.969,130.535c10.774,0,17.578-2.093,20.799-6.396c1.324-1.77,3.832-2.129,5.599-0.806c1.769,1.323,2.13,3.83,0.806,5.599   c-6.442,8.608-18.611,9.604-27.204,9.604c-2.209,0-4-1.791-4-4S189.76,130.535,191.969,130.535z"></path><path d="M264.322,296.598l-0.235-10.748c-6.458,1.702-13.188,2.685-20.115,2.685c-6.927,0-13.656-0.983-20.115-2.685l-0.235,10.75   c1.094,3.75,6.504,21.142,20.348,49.533C257.856,317.646,263.235,300.329,264.322,296.598z"></path><path d="M319.558,40.248c-1.522,1.296-2.26,3.418-2.01,5.283c2.313,0.369,4.729,1.459,7.064,3.53   c0.103,0.091,0.2,0.188,0.292,0.288c0.429,0.468,10.563,11.585,14.967,22.663c0.816,2.053-0.186,4.378-2.239,5.194   c-2.052,0.817-4.379-0.187-5.195-2.239c-3.597-9.046-12.092-18.718-13.289-20.056c-2.188-1.86-4.41-2.026-5.973-0.436   c-2.059,2.099-2.125,6.413,1.735,10.598c10.145,11.403,12.878,22.353,15.289,32.013c3.319,13.295,5.94,23.796,26.418,33.055   c0.655,0.297,16.05,7.422,29.316,25.11c11.921,15.894,24.217,43.626,16.091,86.01c21.551,13.01,46.669,15.032,55.749,15.32   c5.151-54.653-14.639-95.217-32.392-119.798c-19.761-27.361-41.365-41.498-41.581-41.638c-0.881-0.569-1.505-1.464-1.734-2.488   c-6.891-30.845-32.491-53.805-32.749-54.033c-4.755-4.294-9.125-6.218-13.028-5.746c-1.526,0.185-2.854,0.734-3.958,1.395   c1.032,0.671,2.081,1.455,3.145,2.376c0.665,0.599,14.98,13.639,23.592,32.776c0.907,2.015,0.009,4.383-2.006,5.289   c-0.533,0.24-1.091,0.354-1.639,0.354c-1.526,0-2.983-0.878-3.65-2.359c-7.9-17.555-21.461-29.944-21.597-30.067   C325.968,38.996,322.075,38.104,319.558,40.248z"></path><path d="M132.532,195.33c0.302,1.517,0.728,3.039,1.283,4.548c2.193,5.965,6.122,10.769,10.754,13.654   c2.105,1.312,4.356,2.226,6.656,2.674c-3.869-12.797-6.935-28.502-8.899-45.942C134.341,174.327,130.415,184.71,132.532,195.33z"></path><path d="M262.552,195.503c1.14-1.108,1.666-3.059,1.309-4.853c-0.661-3.321-3.036-5.932-6.747-7.672l-1.057,12.688   c0.666,0.269,1.339,0.505,2.043,0.666C260.034,196.774,261.532,196.496,262.552,195.503z"></path><path d="M216.586,300.996c-1.867,0.649-4.647,2.687-6.822,8.823l-6.185,17.213l23.236,0.938   C221.068,314.58,217.975,305.457,216.586,300.996z"></path><path d="M104.171,270.145c0.106-2.188-1.005-4.749-2.831-6.525c-2.478-2.409-3.717-5.91-3.399-9.605   c0.302-3.521-1.146-6.194-2.62-7.188c-0.913-0.615-1.862-0.661-2.974-0.142c-27.657,17.838-60.65,18.017-65.393,17.942   c-0.875,0.327-2.793,1.935-3.441,4.296c-0.639,2.325,0.276,4.539,2.719,6.581c2.652,2.217,3.935,5.793,3.348,9.333   c-0.339,2.044-0.615,5.8,1.35,7.993c1.999,2.233,6.051,2.504,9.093,2.338c0.459-0.017,38.446-1.565,61.427-20.237   C103.199,273.53,104.082,271.972,104.171,270.145z"></path><path d="M230.411,336.121l-32.601-1.314c-1.273-0.052-2.445-0.706-3.157-1.763c-0.711-1.057-0.877-2.389-0.446-3.587l5.635-15.683   c-4.873,0.769-9.685,1.128-14.404,1.128c-39.344,0-72.306-24.229-81.574-31.736c-19.155,14.09-45.1,18.285-57.036,19.506   c39.449,66.752,113.16,82.063,113.92,82.214c1.932,0.383,3.298,2.115,3.219,4.084l-3.833,95.565h63.836v-99.718   c-0.001-0.715,0.188-1.431,0.568-2.065c5.713-10,10.661-19.221,14.947-27.635C236.015,348.191,233.004,341.848,230.411,336.121z"></path><path d="M302.504,314.901c-4.721,0-9.532-0.359-14.405-1.127l5.636,15.683c0.431,1.198,0.265,2.53-0.446,3.587   c-0.712,1.057-1.884,1.711-3.157,1.763l-26.968,1.088c2.451,3.031,5.409,6.823,8.077,10.611c1.238,1.758,0.865,4.18-0.844,5.484   c-0.194,0.147-19.255,14.752-38.426,34.439v98.105h95.836l-3.833-95.565c-0.079-1.969,1.288-3.702,3.221-4.084   c0.193-0.039,19.875-4.05,44.057-16.867c21.089-11.178,49.827-31.455,69.86-65.345c-11.882-1.215-37.845-5.405-57.033-19.509   C374.812,290.67,341.847,314.901,302.504,314.901z M251.971,466.197c-4.418,0-8-3.582-8-8c0-4.418,3.582-8,8-8c4.418,0,8,3.582,8,8   C259.971,462.615,256.389,466.197,251.971,466.197z M251.971,406.197c-4.418,0-8-3.582-8-8c0-4.418,3.582-8,8-8   c4.418,0,8,3.582,8,8C259.971,402.615,256.389,406.197,251.971,406.197z"></path><path d="M460.988,264.627c-4.747,0.085-37.735-0.104-65.393-17.942c-1.111-0.519-2.061-0.473-2.974,0.142   c-1.474,0.993-2.922,3.666-2.62,7.188c0.317,3.694-0.921,7.195-3.399,9.604c-1.826,1.776-2.937,4.338-2.831,6.525   c0.089,1.827,0.971,3.386,2.698,4.767c23.054,18.73,60.991,20.24,61.372,20.253c3.124,0.173,7.174-0.103,9.173-2.334   c1.964-2.193,1.689-5.949,1.35-7.993c-0.587-3.54,0.696-7.116,3.348-9.333c2.443-2.042,3.358-4.256,2.719-6.581   C463.781,266.562,461.863,264.954,460.988,264.627z"></path><path d="M85.916,241.262c-8.126-42.384,4.17-70.116,16.091-86.01c13.266-17.688,28.661-24.813,29.31-25.108   c20.484-9.261,23.105-19.762,26.424-33.057c2.411-9.66,5.145-20.609,15.241-31.959c3.908-4.238,3.843-8.553,1.784-10.651   c-1.563-1.593-3.784-1.425-5.973,0.436c-1.197,1.337-9.692,11.01-13.289,20.056c-0.816,2.054-3.142,3.058-5.195,2.239   c-2.053-0.816-3.055-3.142-2.239-5.194c4.404-11.078,14.538-22.195,14.967-22.663c0.092-0.101,0.19-0.197,0.292-0.288   c2.334-2.072,4.751-3.163,7.064-3.531c0.249-1.865-0.489-3.986-2.01-5.282c-2.517-2.145-6.41-1.253-10.681,2.448   c-0.074,0.068-13.635,12.458-21.535,30.013c-0.667,1.481-2.124,2.359-3.65,2.359c-0.549,0-1.106-0.113-1.639-0.354   c-2.015-0.906-2.913-3.274-2.006-5.289c8.612-19.138,22.927-32.178,23.532-32.724c1.086-0.941,2.156-1.743,3.208-2.425   c-1.105-0.663-2.433-1.213-3.962-1.399c-3.903-0.469-8.273,1.452-13,5.721c-0.285,0.253-25.904,23.294-32.777,54.059   c-0.229,1.026-0.854,1.921-1.737,2.49c-0.213,0.138-21.817,14.274-41.579,41.636c-17.753,24.581-37.543,65.145-32.392,119.797   C39.244,256.292,64.363,254.272,85.916,241.262z"></path><path d="M255.921,339.673c-3.315,7.167-7.241,15.204-11.868,24.071c7.986-7.207,14.72-12.736,18.424-15.7   C260.189,344.965,257.83,342.006,255.921,339.673z"></path><path d="M278.2,309.88c0-0.001-0.001-0.002-0.001-0.004l-0.014-0.04c-2.178-6.146-4.959-8.187-6.826-8.839   c-1.389,4.472-4.478,13.598-10.215,26.972l23.22-0.937L278.2,309.88z"></path><path d="M355.958,188.594c-0.3-8.044-4.068-15.138-10.34-18.331c-1.964,17.438-5.03,33.14-8.898,45.936   c7.357-1.432,14.217-7.652,17.407-16.328C355.514,196.101,356.094,192.25,355.958,188.594z"></path><path d="M152.755,24.955c5.612,0.726,9.51,4.001,11.561,6.211c3.768-0.241,6.968,1.045,9.255,2.992   c3.782,3.222,5.472,8.31,4.671,12.949c0.825,0.506,1.58,1.1,2.235,1.767c4.707,4.799,5.681,13.768-1.565,21.624   c-8.74,9.826-11.113,19.333-13.408,28.526c-3.288,13.171-6.69,26.776-28.943,37.497c-0.547,2.778-1.791,7.906-4.399,14.19   c3.439-1.813,7.135-4.14,9.892-6.852c1.123-1.104,2.79-1.448,4.257-0.876c1.468,0.572,2.463,1.952,2.543,3.524l0.919,18.109   c0.157,1.584,0.326,3.153,0.502,4.713c6.711-25.237,18.907-62.017,38.386-90.765c0.034-0.05,0.078-0.088,0.114-0.136   c0.05-0.067,0.107-0.129,0.162-0.193c0.117-0.138,0.236-0.272,0.368-0.391c0.053-0.048,0.112-0.089,0.168-0.135   c0.149-0.12,0.3-0.234,0.463-0.33c0.058-0.034,0.12-0.062,0.18-0.093c0.176-0.092,0.353-0.176,0.539-0.24   c0.024-0.008,0.043-0.022,0.067-0.03c0.047-0.016,0.095-0.018,0.142-0.031c0.183-0.053,0.366-0.096,0.554-0.123   c0.084-0.012,0.166-0.017,0.25-0.024c0.172-0.013,0.343-0.019,0.517-0.01c0.093,0.005,0.184,0.016,0.275,0.027   c0.161,0.02,0.319,0.046,0.477,0.085c0.1,0.025,0.197,0.057,0.295,0.09c0.141,0.047,0.28,0.097,0.417,0.161   c0.115,0.053,0.223,0.116,0.333,0.18c0.077,0.045,0.159,0.076,0.234,0.126c0.036,0.024,0.062,0.056,0.097,0.081   c0.113,0.082,0.217,0.175,0.321,0.268c0.092,0.083,0.186,0.162,0.269,0.252c0.089,0.096,0.166,0.202,0.245,0.307   c0.079,0.105,0.161,0.208,0.229,0.319c0.062,0.102,0.112,0.212,0.166,0.32c0.064,0.13,0.128,0.259,0.177,0.395   c0.013,0.036,0.035,0.068,0.047,0.105c0.127,0.381,2.261,6.956,1.955,16.821c7.009-8.502,16.108-21.243,18.328-32.341   c0.373-1.863,2.003-3.206,3.903-3.216c0.006,0,0.013,0,0.02,0c1.891,0,3.525,1.325,3.914,3.178   c0.054,0.249,5.161,23.015,25.281,33.709c-2.356-7.155-5.196-17.341-5.196-24.887c0-1.79,1.188-3.361,2.911-3.849   c1.722-0.489,3.558,0.229,4.496,1.752c0.135,0.22,12.462,19.917,31,29.403c-0.856-5.206-1.479-12.419-0.363-19.897   c0.202-1.355,1.084-2.513,2.337-3.067c1.255-0.553,2.704-0.429,3.843,0.334c1.32,0.883,30.25,20.966,31.885,81.309   c1.655-3.303,3.167-7.04,3.98-10.825c0.361-1.682,1.758-2.943,3.467-3.135c1.709-0.186,3.35,0.733,4.073,2.294   c0.604,1.304,3.694,8.019,6.68,15.323l0.809-15.943c0.08-1.572,1.075-2.952,2.543-3.524c1.467-0.573,3.134-0.229,4.257,0.876   c2.766,2.721,6.459,5.047,9.895,6.858c-2.609-6.286-3.854-11.417-4.401-14.196c-22.252-10.716-25.655-24.324-28.943-37.497   c-2.295-9.193-4.668-18.7-13.457-28.58c-7.198-7.803-6.224-16.771-1.517-21.57c0.655-0.667,1.41-1.26,2.235-1.766   c-0.801-4.639,0.888-9.728,4.671-12.949c2.167-1.846,5.156-3.099,8.663-3.026c1.598-3.249,2.648-6.343,3.325-8.976   c-10.983,5.56-21.691,6.019-22.244,6.038c-1.718,0.088-3.32-1.007-3.909-2.646s-0.049-3.47,1.333-4.527   c6.043-4.627,9.578-9.838,11.636-14.147c-17.079,8.256-39.58,11.151-40.708,11.292c-1.774,0.233-3.48-0.761-4.179-2.407   c-0.698-1.646-0.219-3.556,1.174-4.677c4.587-3.693,7.172-7.723,8.629-11.082c-15.033,7.038-23.901,7.515-32.515,7.978   c-9.383,0.505-18.246,0.981-35.969,9.809c-6.121,3.048-12.773,3.63-18.732,1.635c-7.667-2.565-15.418-6.334-20.979-9.288   c1.018,3.961,1.89,6.86,1.904,6.908c0.365,1.212,0.136,2.525-0.619,3.541c-0.754,1.017-1.945,1.615-3.211,1.615   c-7.784,0-16.732-4.281-22.899-7.895c1.147,4.459,2.941,8.283,4.14,10.548C150.399,24.769,151.58,24.803,152.755,24.955z"></path></g></svg>