<svg xmlns="http://www.w3.org/2000/svg" xmlns:xlink="http://www.w3.org/1999/xlink" version="1.1" fill="#FFFFFF" x="0px" y="0px" viewBox="0 0 302.89 487.942" style="enable-background:new 0 0 302.89 487.942;" xml:space="preserve"><g><path d="M126.659,267.891c-7.799-2.524-15.143-6.076-21.872-10.214c-6.722,10.61-16.299,31.413-17.498,55.129   c-1.456,28.781,9.228,53.924,31.791,74.916c-4.104-17.407,0.141-30.27,4.583-43.731   C129.595,326.017,136.292,305.675,126.659,267.891z"></path><path d="M151.443,327.942c15.447,0,29.846-8.276,37.738-21.381c-5.029-2.203-9.811-3.98-14.236-5.411   c-1.62-0.524-2.731-2.016-2.769-3.719l-0.617-28.182c-6.458,1.702-13.189,2.685-20.116,2.685c-5.464,0-10.802-0.621-15.985-1.71   c5.519,23.931,4.613,41.343,1.732,55.339C141.764,327.134,146.542,327.942,151.443,327.942z"></path><path d="M261.601,183.279c4.438-12.072,0.613-24.972-8.511-29.615c-1.964,17.44-5.03,33.146-8.899,45.942   C251.549,198.175,258.41,191.955,261.601,183.279z"></path><path d="M228.014,217.878c7.953-13.255,14.488-38.989,17.537-68.969c-12.761-31.73-31.714-42.01-55.655-54.978   c-15.206-8.235-32.242-17.463-50.999-33.56c0.971,12.805,8.622,30.77,12.125,37.782c0.698,1.397,0.519,3.073-0.459,4.292   s-2.58,1.755-4.089,1.377c-21.483-5.371-34.375-23.695-41.053-36.79c-8.83,43.991-40.495,75.859-47.981,82.884   c3.092,29.549,9.569,54.856,17.433,67.962c10.685,17.807,40.921,46.057,76.57,46.057S217.329,235.686,228.014,217.878z    M94.406,113.057c0.383-2.173,2.449-3.621,4.625-3.247c0.18,0.03,10.574,1.708,17.774-3.364c1.807-1.272,4.303-0.839,5.573,0.966   c1.272,1.806,0.84,4.301-0.966,5.574c-6.029,4.248-13.241,5.116-18.13,5.116c-3.205,0-5.411-0.373-5.632-0.412   C95.476,117.307,94.022,115.232,94.406,113.057z M99.56,194.942c0.092-9.546,7.93-19,7.93-19s7.911,9.454,7.93,19   C115.443,206.942,99.443,206.942,99.56,194.942z M111.434,164.148c-6.617,0-12-5.383-12-12c0-2.209,1.791-4,4-4s4,1.791,4,4   c0,2.206,1.794,4,4,4s4-1.794,4-4c0-2.209,1.791-4,4-4s4,1.791,4,4C123.434,158.765,118.051,164.148,111.434,164.148z    M170.743,171.479c-0.77,1.165-2.043,1.796-3.342,1.796c-0.757,0-1.522-0.214-2.201-0.663   c-15.442-10.203-26.979-0.422-27.093-0.322c-1.668,1.452-4.193,1.278-5.645-0.387c-1.451-1.665-1.278-4.192,0.387-5.644   c5.555-4.842,20.387-11.138,36.761-0.322C171.453,167.155,171.96,169.636,170.743,171.479z M187.444,194.942   c0.092-9.546,7.93-19,7.93-19s7.911,9.454,7.93,19C203.328,206.942,187.328,206.942,187.444,194.942z M191.434,164.148   c-6.617,0-12-5.383-12-12c0-2.209,1.791-4,4-4s4,1.791,4,4c0,2.206,1.794,4,4,4s4-1.794,4-4c0-2.209,1.791-4,4-4s4,1.791,4,4   C203.434,158.765,198.051,164.148,191.434,164.148z M205.255,117.69c-0.221,0.039-2.428,0.412-5.632,0.412   c-4.889,0-12.1-0.868-18.13-5.116c-1.806-1.272-2.238-3.768-0.966-5.574c1.271-1.806,3.767-2.239,5.573-0.966   c7.226,5.091,17.673,3.381,17.776,3.364c2.17-0.371,4.243,1.086,4.619,3.258C208.873,115.241,207.427,117.308,205.255,117.69z"></path><polygon points="69.613,439.942 67.613,487.942 235.274,487.942 233.274,439.942  "></polygon><path d="M196.456,309.979c-9.228,15.89-26.485,25.963-45.013,25.963c-5.534,0-10.938-0.869-16.127-2.566   c-1.278,4.699-2.703,9.023-4.055,13.122c-5.484,16.616-9.815,29.741-0.152,51.842c0.729,1.668,0.24,3.618-1.189,4.745   c-0.726,0.571-1.601,0.858-2.476,0.858c-0.851,0-1.701-0.27-2.416-0.812c-27.233-20.636-42.728-46.699-45.427-76.031   C48.706,351.398,12.183,398.434,0,487.933l59.607,0.009l3.84-92.164c0.092-2.208,1.959-3.921,4.163-3.83   c2.207,0.092,3.922,1.956,3.829,4.163l-1.493,35.832H232.94l-1.493-35.832c-0.093-2.207,1.622-4.071,3.829-4.163   c2.236-0.087,4.072,1.623,4.163,3.83l3.84,92.165h59.61C287.84,377.127,236.416,329.998,196.456,309.979z"></path><path d="M58.696,199.606c-3.869-12.796-6.936-28.502-8.899-45.943c-9.124,4.643-12.948,17.542-8.51,29.615   C44.477,191.954,51.339,198.175,58.696,199.606z"></path><path d="M99.453,51.66c0.137-1.926,1.63-3.48,3.55-3.693c1.916-0.216,3.717,0.977,4.271,2.826   c0.102,0.336,9.484,30.563,32.596,42.1c-4.64-11.091-11.275-30.046-8.308-41.92c0.343-1.37,1.383-2.458,2.736-2.862   c1.353-0.405,2.819-0.065,3.857,0.893c20.47,18.895,39.106,28.989,55.549,37.895c21.758,11.785,40.889,22.145,54.589,48.736   c7.603-40.463,1.517-74.604-17.822-99.262C212.342,13.257,183.503,0,151.349,0c-27.664,0-44.578,7.815-56.558,26.131   c-0.535,0.818-1.351,1.411-2.293,1.669C73.967,32.867,61.51,45.88,55.474,66.479c-5.629,19.21-5.55,44.037,0.224,73.87   C67.593,128.046,96.453,94.097,99.453,51.66z"></path></g></svg>