<svg xmlns="http://www.w3.org/2000/svg" xmlns:xlink="http://www.w3.org/1999/xlink" version="1.1" fill="#FFFFFF" x="0px" y="0px" viewBox="0 0 305.088 487.932" style="enable-background:new 0 0 305.088 487.932;" xml:space="preserve"><g><path d="M136.915,179.9c0.859-0.089,1.809-0.413,2.772-0.849l-2.231-13.27c-1.569,1.432-2.851,3.054-3.752,4.797   c-1.419,2.748-1.56,6.325-0.32,8.143C133.654,179.115,134.367,180.166,136.915,179.9z"></path><path d="M124.497,119.941c-0.494,0-0.996-0.092-1.482-0.287c-6.413-2.562-16.315-5.655-21.007-7.083   c-13.401,17.004-28.634,28.572-43.417,37.83c3.112,29.341,9.563,54.442,17.384,67.477c10.684,17.807,40.92,46.058,76.57,46.058   s65.886-28.25,76.57-46.058c7.776-12.96,14.199-37.847,17.331-66.971c-16.334-7.965-20.652-35.12-21.635-43.953   c-23.526-8.184-32.897-31.733-35.413-39.54c-29.774-5.928-46.725-18.932-54.639-26.817c-6.477,27.798-16.246,48.775-27.692,65.158   c5.267,1.634,13.253,4.209,18.916,6.471c2.052,0.819,3.05,3.147,2.23,5.198C127.588,118.989,126.085,119.941,124.497,119.941z    M112.541,163.934c-6.538,0-11.863-5.259-11.988-11.767c-4.948-0.59-9.419-3.296-12.945-7.932   c-1.337-1.758-0.996-4.268,0.762-5.605c1.759-1.337,4.268-0.997,5.605,0.762c2.509,3.299,5.364,4.912,8.673,4.898   c-4.937-3.613-6.732-8.015-6.833-8.271c-0.804-2.058,0.213-4.377,2.271-5.182c2.046-0.797,4.35,0.201,5.166,2.232   c0.118,0.276,2.158,4.843,8.319,6.914c0.321-0.026,0.643-0.049,0.971-0.049c6.617,0,12,5.383,12,12   S119.158,163.934,112.541,163.934z M211.104,139.392c1.337-1.759,3.846-2.1,5.605-0.762c1.758,1.337,2.1,3.847,0.762,5.605   c-3.526,4.636-7.997,7.342-12.945,7.932c-0.125,6.509-5.45,11.767-11.988,11.767c-6.617,0-12-5.383-12-12s5.383-12,12-12   c0.327,0,0.649,0.023,0.97,0.049c6.214-2.089,8.236-6.717,8.322-6.921c0.804-2.057,3.114-3.053,5.172-2.248   c2.058,0.804,3.065,3.146,2.262,5.204c-0.1,0.256-1.895,4.658-6.832,8.271C205.741,144.303,208.595,142.691,211.104,139.392z    M179.015,112.226c8.956-3.578,23.73-7.939,24.354-8.123c2.116-0.625,4.343,0.587,4.967,2.707c0.624,2.119-0.588,4.343-2.707,4.967   c-0.149,0.044-15.041,4.44-23.646,7.877c-0.486,0.194-0.989,0.287-1.483,0.287c-1.588,0-3.09-0.952-3.715-2.517   C175.965,115.373,176.963,113.045,179.015,112.226z M166.287,154.521c0.041,0.017,0.081,0.034,0.12,0.051   c8.489,3.778,11.306,12.296,9.702,18.758c-1.591,6.408-7.047,10.248-13.88,9.782c-1.86-0.127-3.67-0.438-5.221-0.72   c-3.511-0.636-7.064,0.035-10.271,1.946c-2.73,1.626-5.709,3.178-8.998,3.519c-0.542,0.056-1.072,0.084-1.591,0.084   c-3.987,0-7.276-1.641-9.372-4.712c-2.93-4.296-3.002-10.855-0.18-16.322C132.45,155.571,149.288,147.611,166.287,154.521z"></path><path d="M154.468,174.16l-0.577-14.221c-0.226-0.006-0.453-0.016-0.677-0.016c-2.985,0-5.815,0.537-8.384,1.466l2.353,13.992   C149.549,174.573,151.994,174.152,154.468,174.16z"></path><path d="M225.447,358.092c6.066-2.323,13.682-5.243,24.187-10.601c-5.016-6.308-10.695-12.155-16.942-17.481   c-1.357,4.281-3.294,8.36-5.811,12.03c-1.308,1.907-2.732,3.631-4.251,5.182c0.507,2.677,1.088,7.153,0.514,11.755   C223.889,358.689,224.654,358.396,225.447,358.092z"></path><path d="M193.163,322.309c-6.555-6.096-11.378-13.035-14.615-18.596c-3.137,6.885-8.073,20.58-3.595,31.073   c1.794,4.205,5.045,7.552,9.689,10.019c-2.359-5.403-4.988-12.456-6.038-19.012c-0.35-2.182,1.136-4.233,3.317-4.582   c2.179-0.357,4.232,1.136,4.583,3.316c0.605,3.777,1.852,7.836,3.249,11.581C190.557,331.016,191.727,326.429,193.163,322.309z"></path><path d="M178.712,350.633c-2.602,3.85-6.102,11.234-5.803,19.68c0.258,7.295,3.383,13.642,9.278,18.903   c2.51-0.944,5.02-1.905,7.532-2.885c-6.994-10.287-4.26-24.656-2.264-31.682C184.188,353.574,181.276,352.231,178.712,350.633z"></path><path d="M162.772,175.131c3.984,0.274,5.198-2.22,5.572-3.728c0.798-3.213-0.711-7.497-5.133-9.496   c-0.418-0.169-0.836-0.325-1.253-0.471l0.555,13.672C162.599,175.114,162.686,175.125,162.772,175.131z"></path><path d="M288.176,353.795l10.33-4.884c6.444-3.764,7.59-8.917,5.855-12.375c-1.208-2.407-4.287-4.491-9-2.495l-10.5,5.315   c0.291,0.325,0.529,0.622,0.708,0.864C288.296,343.922,289.079,348.936,288.176,353.795z"></path><path d="M192.538,147.935c-2.206,0-4,1.794-4,4s1.794,4,4,4s4-1.794,4-4S194.744,147.935,192.538,147.935z"></path><path d="M272.208,378.221c-0.175-2.168-1.189-3.698-2.056-4.331l-14.624,10.549c-3.776,3.446-6.371,7.565-7.47,11.788   C266.499,392.244,272.695,384.263,272.208,378.221z"></path><path d="M172.66,269.251c-6.458,1.702-13.188,2.685-20.116,2.685c-6.927,0-13.657-0.983-20.115-2.685l-0.617,28.181   c-0.03,1.393-0.787,2.636-1.947,3.332l20.449,22.721c0.778,0.864,1.731,0.993,2.23,0.993s1.452-0.129,2.23-0.993l13.22-14.688   c1.883-5.878,4.197-10.475,5.26-12.446L172.66,269.251z"></path><path d="M232.61,421.551c6.639,1.902,11.922,3.745,15.776,5.839c7.174,3.541,13.297,7.668,18.369,12.357   c7.877-2.882,16.478-4.396,26.109-4.575c-4.717-15.953-10.5-30.729-17.336-44.228c-4.998,5.928-14.322,11.173-29.58,13.841   C243.537,411.215,239.026,416.869,232.61,421.551z"></path><path d="M199.97,390.008c-0.45,0.746-1.132,1.325-1.941,1.648c-10.814,4.32-21.508,8.279-32.408,11.999   c18.092,5.451,33.696,9.361,46.748,12.623c3.423,0.855,6.641,1.661,9.674,2.437c10.419-5.474,16.378-12.761,17.692-21.683   c1.001-6.797,4.765-13.432,10.598-18.681c0.107-0.097,0.219-0.188,0.336-0.271l25.885-18.672c4.38-4.021,5.004-11.146,2.576-14.441   c-2.166-2.938-6.304-1.326-9.394,0.545c-19.976,11.834-32.374,16.583-41.426,20.051   C215.084,370.629,210.629,372.335,199.97,390.008z"></path><path d="M112.541,147.935c-2.206,0-4,1.794-4,4s1.794,4,4,4s4-1.794,4-4S114.747,147.935,112.541,147.935z"></path><path d="M49.667,384.516L34.936,373.89c-0.866,0.634-1.881,2.163-2.056,4.331c-0.487,6.047,5.719,14.034,24.192,18.014   C55.987,391.362,53.656,387.685,49.667,384.516z"></path><path d="M272.769,446.17c6.703,8.358,10.639,18.171,11.756,29.375c0.219,2.198-1.386,4.157-3.584,4.377   c-2.199,0.221-4.157-1.386-4.377-3.584c-1.818-18.249-12.513-32.315-31.787-41.808c-0.052-0.025-0.103-0.052-0.153-0.08   c-6.275-3.433-17.987-6.359-34.197-10.411c-25.149-6.285-59.593-14.894-103.367-32.383c-0.81-0.323-1.491-0.902-1.941-1.648   c-10.66-17.673-15.114-19.379-28.339-24.445c-9.052-3.468-21.45-8.217-41.393-20.031c-3.122-1.891-7.261-3.504-9.427-0.564   c-2.429,3.296-1.804,10.421,2.576,14.442l25.885,18.671c0.047,0.034,0.094,0.069,0.139,0.104c6.19,4.889,9.62,10.878,10.794,18.848   c2.302,15.626,18.563,22.98,28.051,25.975c5.2,1.641,10.28,4.055,15.097,7.174l89.208,57.751h106.278   c-2.144-15.76-5.116-30.693-8.875-44.773C286.876,443.133,279.497,444.129,272.769,446.17z"></path><path d="M59.798,199.606c-3.869-12.796-6.936-28.502-8.9-45.943c-9.125,4.643-12.949,17.542-8.51,29.615   C45.578,191.955,52.44,198.175,59.798,199.606z"></path><path d="M180.75,273.265l0.391,17.851c0.974,2.31,4.822,10.847,11.706,19.19c-0.514-7.717-0.51-14.717-0.138-21.015   C189.372,282.828,184.62,277.219,180.75,273.265z"></path><path d="M104.155,436.896c-4.215-2.729-8.642-4.835-13.157-6.26c-2.618-0.826-5.673-1.947-8.855-3.424   c-9.74,2.539-17.166,4.77-21.679,7.239c-0.05,0.028-0.101,0.055-0.152,0.08c-19.274,9.492-29.969,23.559-31.787,41.808   c-0.206,2.063-1.945,3.604-3.976,3.604c-0.133,0-0.267-0.006-0.401-0.02c-2.198-0.22-3.803-2.179-3.584-4.377   c1.117-11.204,5.053-21.018,11.756-29.375c-6.728-2.041-14.107-3.036-22.342-3.01c-3.76,14.08-6.733,29.013-8.877,44.773h106.277   l37.806-24.475L104.155,436.896z"></path><path d="M128.623,31.152c0.319-1.585,1.562-2.822,3.148-3.134c0.258-0.051,0.518-0.076,0.774-0.076c1.32,0,2.577,0.655,3.328,1.781   c0.146,0.214,15.814,22.725,57.387,30.283c1.546,0.281,2.784,1.441,3.165,2.965c0.074,0.292,7.837,29.872,33.219,37.124   c1.622,0.464,2.779,1.896,2.892,3.579c0.605,8.903,4.541,31.339,15.438,38.888c9.671-43.5,4.033-80.138-16.401-106.192   C213.443,13.257,184.604,0,152.45,0c-27.664,0-44.578,7.815-56.558,26.131c-0.535,0.818-1.351,1.411-2.293,1.669   c-18.532,5.066-30.988,18.08-37.024,38.678c-5.725,19.538-5.546,44.881,0.522,75.397C85.84,123.318,115.791,94.841,128.623,31.152z   "></path><path d="M29.563,390.948c-6.836,13.499-12.619,28.274-17.336,44.224c9.629,0.179,18.23,1.693,26.106,4.575   c5.072-4.689,11.194-8.815,18.368-12.356c3.864-2.101,9.045-3.918,15.722-5.829c-5.6-4.075-10.614-9.537-13.298-16.779   C43.88,402.115,34.561,396.873,29.563,390.948z"></path><path d="M6.583,348.912l10.33,4.884c-0.903-4.86-0.12-9.874,2.608-13.574c0.179-0.242,0.416-0.54,0.707-0.864l-10.5-5.316   c-4.713-1.992-7.793,0.089-9,2.495C-1.008,339.995,0.139,345.148,6.583,348.912z"></path><path d="M198.533,258.083c-4.533,2.745-9.339,5.217-14.37,7.291c2.842,2.708,6.473,6.513,9.898,11.111   C195.218,269.032,196.856,262.912,198.533,258.083z"></path><path d="M213.516,363.243c1.734-2.745,2.009-6.817,1.772-10.346c-4.618,2.605-9.771,3.959-15.241,3.96   c-1.572,0-3.171-0.124-4.789-0.349c-1.589,5.485-4.017,17.036,0.737,24.766C202.534,371.216,207.499,366.555,213.516,363.243z"></path><path d="M209.548,296.962c4.86-4.396,9.322-6.85,11.76-7.988c6.864-21.357-0.292-37.708-4.367-44.623   c-1.688,1.525-3.459,3.031-5.294,4.512c-1.232,1.807-11.285,17.581-11.197,50.215c2.783-8.709,6.004-18.205,8.664-24.433   c0.868-2.03,3.216-2.976,5.25-2.107c2.031,0.868,2.975,3.219,2.107,5.25C214.387,282.667,211.89,289.816,209.548,296.962z"></path><path d="M220.283,337.515c7.943-11.581,8.905-28.642,2.681-40.423c-4.976,2.702-15.04,9.795-21.213,25.135   c-0.005,0.018-0.015,0.051-0.016,0.056c-0.005,0.017-0.016,0.026-0.022,0.041c-2.3,5.745-4.049,12.642-4.783,20.895   c3.406-3.46,7.637-8.815,11.254-16.597c0.931-2.005,3.308-2.875,5.313-1.941c2.003,0.931,2.873,3.31,1.941,5.313   c-4.013,8.635-8.725,14.685-12.667,18.716C211.808,347.685,217.429,341.677,220.283,337.515z"></path><polygon points="122.098,487.932 182.99,487.932 152.545,468.222  "></polygon><path d="M262.701,183.279c4.439-12.072,0.615-24.971-8.509-29.615c-1.964,17.44-5.031,33.146-8.9,45.942   C252.65,198.176,259.511,191.956,262.701,183.279z"></path><path d="M79.642,358.092c13.631,5.222,19.996,7.659,31.625,26.629c14.851,5.9,28.592,10.749,41.271,14.849   c7.229-2.337,14.325-4.761,21.377-7.306c-5.62-6.17-8.714-13.55-9.001-21.666c-0.354-9.999,3.679-19.566,7.585-25.058   c-2.062-2.249-3.705-4.795-4.915-7.639c-1.918-4.507-2.539-9.325-2.384-14.041l-4.48,4.977c-2.083,2.314-5.063,3.642-8.176,3.642   s-6.094-1.327-8.176-3.642l-22.603-25.114c-18.281,6.992-42.036,20.191-63.893,44.983   C67.135,353.297,74.051,355.951,79.642,358.092z"></path></g></svg>