<svg xmlns="http://www.w3.org/2000/svg" xmlns:xlink="http://www.w3.org/1999/xlink" version="1.1" fill="#FFFFFF" x="0px" y="0px" viewBox="0 0 356.212 488" style="enable-background:new 0 0 356.212 488;" xml:space="preserve"><g><path d="M121.768,365.001c-3.525,17.842-6.656,33.68,0.836,47.564c2.002-17.16,9.417-28.489,16.63-39.509   c11.497-17.566,23.365-35.74,16.99-80.229c-25.704-7.358-46.82-26.153-57.802-41.167c2.876,12.646,7.557,26.72,15.178,40.393   c9.789,17.559,13.397,31.996,12.067,48.273C124.979,348.752,123.346,357.012,121.768,365.001z"></path><path d="M215.176,138.614c-19.084-7.849-38.787-15.954-70.538-46.524c-7.01,32.434-22.735,53.06-35.139,64.887   c-10.703,10.205-20.603,15.643-25.304,17.887c3.127,29.168,9.556,54.098,17.341,67.073c10.685,17.807,40.92,46.057,76.57,46.057   s65.886-28.25,76.57-46.057c7.863-13.105,14.341-38.408,17.433-67.953C247.987,152.118,232.037,145.549,215.176,138.614z    M148.165,179.431l-20,12c-0.645,0.386-1.354,0.57-2.054,0.57c-1.359,0-2.684-0.692-3.434-1.942   c-1.136-1.895-0.522-4.352,1.372-5.488l14.284-8.57l-14.284-8.57c-1.894-1.137-2.508-3.594-1.372-5.488s3.592-2.508,5.488-1.372   l20,12c1.205,0.723,1.942,2.025,1.942,3.43S149.37,178.707,148.165,179.431z M178.138,204h-0.062   c-14.621,0-19.969-5.333-19.969-11.254c0-4.51,3.237-8.746,7.82-8.746c3.777,0,6.174,2.238,12.18,2.238   c6.006,0,8.403-2.238,12.18-2.238c4.583,0,7.82,4.236,7.82,8.746C198.107,198.667,192.759,204,178.138,204z M232.165,184.57   c1.894,1.137,2.508,3.594,1.372,5.488c-0.75,1.25-2.075,1.942-3.434,1.942c-0.7,0-1.41-0.184-2.054-0.57l-20-12   c-1.205-0.723-1.942-2.025-1.942-3.43s0.737-2.707,1.942-3.43l20-12c1.896-1.136,4.351-0.521,5.488,1.372   c1.136,1.895,0.522,4.352-1.372,5.488L217.881,176L232.165,184.57z"></path><path d="M178.107,295.994c-4.61,0-9.131-0.442-13.546-1.23c1.657,12.946,1.793,23.822,0.859,33.146   c3.979,2.711,8.234,4.084,12.677,4.084c4.425,0,8.663-1.357,12.625-4.033c-0.939-9.332-0.807-20.22,0.852-33.184   C187.184,295.556,182.689,295.994,178.107,295.994z"></path><path d="M321.849,41.726c3.835,2.188,7.628,0.891,8.149,0.691c0.064-0.024,0.169-0.063,0.234-0.084   c6.462-2.089,15.36-17.877,15.82-23.109c0.208-2.776-0.69-4.851-2.675-6.115c-1.726-1.1-4.056-1.437-6.124-0.995   C336.566,20.851,330.173,34.013,321.849,41.726z"></path><path d="M60.462,8.412c-4.129-6.286-8.617-8.523-11.573-8.406c-2.796,0.115-4.138,2.142-4.772,3.822   c-0.873,2.235,1.184,6.929,4.158,10.301C52.278,11.245,56.53,9.402,60.462,8.412z"></path><path d="M313.632,26.197c-0.624,3.953-3.349,7.354-7.16,9.069c0.331,1.695,1.211,2.282,1.569,2.517   c1.695,1.114,4.314,0.946,5.546,0.333c8.856-5.897,16.462-22.312,15.701-28.229c-0.378-2.572-1.452-4.241-3.274-5.032   c-1.783-0.774-3.978-0.62-5.724-0.111c0.146,5.56-3.356,11.657-7.295,15.677C313.711,22.269,313.943,24.229,313.632,26.197z"></path><path d="M257.679,251.814c-11.025,15.005-32.118,33.721-57.771,41.037c-6.367,44.471,5.499,62.641,16.994,80.204   c7.212,11.02,14.627,22.349,16.629,39.509c7.492-13.884,4.362-29.722,0.836-47.564c-1.579-7.988-3.211-16.248-3.9-24.673   c-1.331-16.278,2.278-30.715,12.067-48.274C250.126,278.436,254.8,264.42,257.679,251.814z"></path><path d="M312.114,3.872c-0.651-1.724-1.993-3.751-4.79-3.866c-2.945-0.131-7.44,2.115-11.573,8.407   c3.932,0.99,8.185,2.833,12.188,5.717C310.913,10.758,312.974,6.071,312.114,3.872z"></path><path d="M42.627,38.116c1.233,0.613,3.851,0.78,5.547-0.333c0.358-0.235,1.238-0.822,1.569-2.517   c-3.812-1.715-6.536-5.116-7.161-9.069c-0.311-1.968-0.079-3.928,0.637-5.776c-3.932-4.014-7.427-10.101-7.286-15.674   c-1.747-0.512-3.948-0.668-5.733,0.108c-1.822,0.792-2.896,2.46-3.284,5.103C26.165,15.805,33.771,32.219,42.627,38.116z"></path><path d="M82.683,166.665c4.733-2.473,12.915-7.426,21.579-15.749c12.332-11.847,28.224-33.186,33.899-67.567   c0.245-1.479,1.295-2.698,2.723-3.157c1.429-0.458,2.992-0.081,4.052,0.979c33.807,33.808,53.875,42.062,73.283,50.043   c15.958,6.563,32.423,13.335,55.696,33.662c8.888-41.606,3.562-76.775-15.527-102.025c-17.77-23.505-47.118-37.667-80.518-38.854   c-1.038-0.037-2.077-0.055-3.11-0.055c-17.98,0-35.007,5.542-46.036,15.083c-0.269,0.232-0.567,0.428-0.887,0.582   C83.631,60.815,68.452,103.547,82.683,166.665z"></path><path d="M249.522,295.948c-8.958,16.07-12.272,29.147-11.081,43.727c0.652,7.972,2.239,16.005,3.774,23.774   c4.32,21.863,8.788,44.47-9.301,63.321c-0.77,0.802-1.819,1.23-2.887,1.23c-0.518,0-1.041-0.101-1.538-0.308   c-1.524-0.635-2.501-2.142-2.459-3.792c0.539-21.466-7.042-33.05-15.821-46.463c-7.139-10.908-14.843-22.69-18.263-40.921   c-4.37,2.293-9.003,3.478-13.849,3.478c-4.865,0-9.515-1.197-13.901-3.516c-3.416,18.252-11.125,30.044-18.269,40.959   c-8.779,13.413-16.36,24.997-15.822,46.463c0.042,1.651-0.936,3.157-2.459,3.792c-0.498,0.208-1.02,0.308-1.538,0.308   c-1.068,0-2.117-0.428-2.887-1.23c-18.089-18.851-13.622-41.458-9.301-63.32c1.535-7.77,3.123-15.803,3.774-23.775   c1.192-14.58-2.122-27.657-11.081-43.727c-5.165-9.264-9.05-18.693-11.97-27.772l-10.881,5.405   c4.195,20.789,6.345,41.771,6.345,62.42v152h176V336c0-20.649,2.15-41.631,6.345-62.42l-10.949-5.438   C258.581,277.232,254.693,286.672,249.522,295.948z"></path><path d="M355.029,26.62c-0.629-0.982-1.393-1.68-2.133-2.169c-2.414,6.959-8.347,17.452-15.202,22.732   c1.237,0.987,2.476,1.478,3.693,1.424c4.919-0.205,10.793-7.888,12.867-11.577C356.573,33.018,356.833,29.433,355.029,26.62z"></path><path d="M25.981,42.332c0.091,0.03,0.182,0.063,0.271,0.099c0.495,0.188,4.281,1.482,8.113-0.705   c-8.341-7.727-14.743-20.921-15.416-29.614c-2.065-0.439-4.389-0.102-6.112,0.996c-1.984,1.265-2.883,3.339-2.671,6.167   C10.621,24.456,19.519,40.244,25.981,42.332z"></path><path d="M263.795,260.348l10.474,5.202l9.539-39.125c-4.401,3.258-9.462,5.201-14.701,5.495   C268.222,240.129,266.618,249.888,263.795,260.348z"></path><path d="M279.754,177.723c-1.964,17.44-5.031,33.146-8.9,45.942c7.358-1.431,14.219-7.651,17.409-16.328   C292.702,195.266,288.878,182.366,279.754,177.723z"></path><path d="M3.311,24.455c-0.738,0.489-1.499,1.186-2.126,2.166c-1.804,2.813-1.543,6.398,0.751,10.368   c1.683,2.974,7.615,11.406,12.897,11.618c1.226,0.05,2.46-0.439,3.689-1.421C11.658,41.9,5.719,31.391,3.311,24.455z"></path><path d="M85.36,223.665c-3.869-12.796-6.936-28.502-8.899-45.943c-9.125,4.643-12.949,17.542-8.51,29.615   C71.141,216.013,78.002,222.234,85.36,223.665z"></path><path d="M74.848,169.681c0.102-0.041,0.21-0.076,0.314-0.115c-8-34.853-7.365-64.439,1.951-87.955   c0.854-2.155,1.799-4.244,2.795-6.297L67.396,44.227c-0.555-1.38-0.299-2.955,0.666-4.087c6.279-7.372,8.763-14.129,6.994-19.026   c-1.25-3.461-4.31-5.202-5.944-5.486c-3.834-0.664-10.735,0.928-16.545,5.261c-1.113,0.911-2.354,2.342-2.083,4.061   c0.213,1.348,1.31,2.586,2.794,3.155c1.969,0.754,4.209,0.231,6.304-1.474c1.713-1.394,4.233-1.135,5.627,0.579   c1.394,1.714,1.135,4.233-0.579,5.627c-2.161,1.758-4.529,2.888-6.94,3.36c-0.698,4.619-3.347,7.105-5.125,8.273   c-2.29,1.504-4.943,2.135-7.46,2.135c-1.186,0-2.338-0.144-3.411-0.399c-3.914,3.617-8.414,4.755-12.196,4.755   c-1.138,0-2.207-0.105-3.179-0.273c-1.74,2.054-3.505,3.436-5.197,4.345c0.826,2.182,2.336,4.981,4.961,6.586   c2.746,1.68,6.419,1.785,10.918,0.313c2.1-0.688,4.358,0.458,5.045,2.558s-0.458,4.359-2.558,5.045   c-1.745,0.571-3.423,0.95-5.045,1.182l27.168,111.433C64.474,176.501,69.001,172.008,74.848,169.681z"></path><path d="M329.895,50.687c-0.972,0.167-2.041,0.273-3.179,0.273c-3.782,0-8.282-1.137-12.196-4.755   c-1.073,0.254-2.225,0.398-3.411,0.398c-2.517,0-5.17-0.63-7.46-2.134c-1.778-1.168-4.426-3.654-5.125-8.273   c-2.411-0.472-4.779-1.602-6.941-3.36c-1.713-1.395-1.973-3.914-0.579-5.627c1.395-1.713,3.914-1.973,5.627-0.579   c2.095,1.705,4.333,2.229,6.304,1.474c1.484-0.568,2.582-1.807,2.794-3.155c0.271-1.719-0.97-3.15-2.083-4.061   c-5.81-4.333-12.714-5.928-16.545-5.261c-1.635,0.284-4.695,2.025-5.944,5.486c-1.769,4.897,0.715,11.654,6.994,19.026   c0.964,1.133,1.221,2.707,0.666,4.087l-13.023,32.356c11.604,25.425,13.454,57.079,5.271,92.988   c0.099,0.037,0.202,0.071,0.299,0.11c5.847,2.328,10.375,6.821,13.237,12.469l27.165-111.423c-1.622-0.231-3.299-0.611-5.043-1.182   c-2.1-0.687-3.245-2.946-2.558-5.045s2.947-3.245,5.045-2.558c4.515,1.477,8.2,1.364,10.95-0.334   c2.607-1.611,4.108-4.401,4.93-6.573C333.4,54.124,331.635,52.741,329.895,50.687z"></path><path d="M87.028,231.915c-5.211-0.308-10.243-2.248-14.622-5.489l9.539,39.124l10.406-5.168   C89.521,249.907,87.914,240.134,87.028,231.915z"></path></g></svg>