<svg xmlns="http://www.w3.org/2000/svg" xmlns:xlink="http://www.w3.org/1999/xlink" version="1.1" fill="#FFFFFF" x="0px" y="0px" viewBox="0 0 302.888 487.99" style="enable-background:new 0 0 302.888 487.99;" xml:space="preserve"><g><path d="M251.359,109.234c-4.59-0.081-9.065-0.34-13.424-0.757c4.84,7.699,8.478,16.338,11.017,23.531   C250.276,124.169,251.077,116.559,251.359,109.234z"></path><path d="M261.6,183.337c4.439-12.071,0.615-24.972-8.509-29.615c-1.964,17.441-5.031,33.147-8.9,45.943   C251.548,198.234,258.409,192.014,261.6,183.337z"></path><path d="M46.648,155.818c-0.044,0.041-0.087,0.083-0.133,0.122c-6.693,5.775-9.089,16.896-5.228,27.397   c3.19,8.676,10.052,14.896,17.41,16.327c-3.869-12.796-6.936-28.502-8.9-45.943C48.663,154.299,47.612,155.004,46.648,155.818z"></path><path d="M228.013,217.937c7.982-13.302,14.536-39.172,17.571-69.291c-0.966-3.992-6.933-27.15-18.389-41.538   c-29.477-4.715-52.981-16.39-69.456-27.27c-17.448-11.521-29.53-23.591-35.997-30.826c-8.153,31.306-37.83,67.843-39.203,69.521   c-1.164,1.421-3.146,1.867-4.805,1.083c-1.661-0.785-2.573-2.6-2.213-4.4c1.757-8.785,0.307-16.806-1.652-22.734   c-6.181,28.214-11.263,45.579-16.518,56.623c3.055,29.921,9.583,55.597,17.523,68.832c10.684,17.807,40.92,46.058,76.57,46.058   S217.329,235.743,228.013,217.937z M111.453,160c-4.418,0-8-3.582-8-8c0-4.418,3.582-8,8-8s8,3.582,8,8   C119.453,156.418,115.871,160,111.453,160z M123.049,110.814c-0.383,2.172-2.452,3.623-4.625,3.247   c-0.165-0.029-10.571-1.712-17.775,3.363c-0.7,0.494-1.504,0.73-2.3,0.73c-1.257,0-2.494-0.591-3.273-1.696   c-1.272-1.806-0.84-4.301,0.966-5.573c9.98-7.032,23.204-4.805,23.762-4.705C121.98,106.564,123.433,108.639,123.049,110.814z    M151.474,180h-0.062c-14.621,0-19.969-5.333-19.969-11.254c0-4.51,3.237-8.746,7.82-8.746c3.777,0,6.174,2.238,12.18,2.238   c6.006,0,8.403-2.238,12.18-2.238c4.583,0,7.82,4.236,7.82,8.746C171.443,174.667,166.095,180,151.474,180z M191.453,160   c-4.418,0-8-3.582-8-8c0-4.418,3.582-8,8-8s8,3.582,8,8C199.453,156.418,195.871,160,191.453,160z M207.83,116.459   c-0.779,1.105-2.017,1.696-3.273,1.696c-0.796,0-1.6-0.236-2.3-0.73c-7.175-5.055-17.662-3.385-17.765-3.365   c-2.177,0.383-4.25-1.069-4.634-3.245c-0.383-2.176,1.069-4.25,3.245-4.634c0.558-0.099,13.78-2.328,23.761,4.705   C208.67,112.158,209.103,114.653,207.83,116.459z"></path><path d="M172.177,297.49l-0.618-28.181c-6.458,1.702-13.188,2.685-20.116,2.685c-6.927,0-13.657-0.983-20.115-2.685l-0.617,28.181   c-0.037,1.702-1.148,3.194-2.768,3.718c-2.155,0.697-4.399,1.481-6.71,2.351c6.594,10.232,17.807,16.441,30.21,16.441   c12.403,0,23.617-6.21,30.21-16.441c-2.311-0.87-4.554-1.654-6.709-2.351C173.325,300.685,172.214,299.192,172.177,297.49z"></path><path d="M48.185,145.68c0.718-0.286,1.479-0.534,2.285-0.753c7.026-15.269,13.317-43.006,18.058-65.743   c0.327-1.567,1.558-2.79,3.128-3.105c1.566-0.315,3.177,0.336,4.084,1.656c0.378,0.55,7.322,10.84,8.435,25.409   c10.633-14.707,28.628-42.268,31.299-63.64c0.203-1.624,1.375-2.961,2.959-3.374c1.583-0.415,3.259,0.18,4.23,1.497   c0.136,0.184,14.051,18.802,39.741,35.705c22.009,14.48,57.167,30.45,102.682,27.6c-3.475-3.124-7.19-7.08-9.221-11.143   c-0.734-1.47-0.497-3.238,0.601-4.46c1.097-1.223,2.829-1.652,4.369-1.079c0.069,0.025,5.427,1.952,12.118,1.74   c-13.559-9.689-25.256-22.549-36.631-35.055C212.496,24.741,189.992,0,151.349,0c-19.082,0-28.709,3.492-41.202,14.948   c-0.988,0.907-2.363,1.258-3.666,0.935c-15.599-3.865-31.038,1.39-43.466,14.8C43.392,51.854,30.973,95.547,46.158,146.61   C46.817,146.273,47.489,145.957,48.185,145.68z"></path><path d="M218.723,378.932c-0.736-0.683-1.188-1.617-1.267-2.618l-2-25.452c-0.275-2.765-1.197-6.094-3.911-6.068   c-3.771,0.102-9.703,5.454-10.101,13.303V376c0,2.093-1.613,3.831-3.699,3.988c-0.205,0.016-20.529,1.569-29.164,3.849   c-3.822,1.281-5.572,5.563-5.053,8.994c0.257,1.7,1.12,3.7,3.664,3.879c5.286-1.042,15.561-1.676,16.01-1.702   c2.198-0.167,4.102,1.544,4.235,3.75c0.134,2.204-1.545,4.101-3.75,4.234c-0.108,0.007-10.831,0.667-15.393,1.659   c-3.381,0.674-4.98,4.365-4.563,7.406c0.377,2.747,2.042,4.024,4.97,3.802l0.554-0.052c3.456-0.325,9.888-0.929,15.248,0.543   c2.13,0.585,3.383,2.786,2.799,4.916c-0.488,1.776-2.099,2.942-3.855,2.942c-0.351,0-0.707-0.046-1.061-0.144   c-3.951-1.084-9.436-0.57-12.383-0.293l-0.146,0.013c-1.581,0.553-2.763,2.727-2.458,4.628c0.561,3.502,5.736,3.614,8.01,3.487   c3.965-0.374,8.831-0.016,9.038,0c2.202,0.166,3.854,2.085,3.689,4.287s-2.079,3.833-4.286,3.691   c-0.044-0.004-4.353-0.318-7.626-0.018c-2.761,0.408-3.701,2.402-3.662,3.996c0.021,0.879,0.4,2.943,3.448,3.251   c2.574,0.138,14.475,0.876,19.231,2.934c0.796,0.344,1.459,0.938,1.889,1.692l20.636,36.256h59.028   c-14.467-27.551-22.845-47.2-29.07-61.802C238.166,403.774,233.37,392.524,218.723,378.932z"></path><path d="M294.768,445.94c-6.427-1.574-16.313-2.735-30.214-1.181c5.359,11.851,12.16,26.048,21.291,43.231h17.044   C300.826,472.804,298.073,458.828,294.768,445.94z"></path><path d="M8.121,445.939C4.815,458.827,2.062,472.804,0,487.99h17.042c9.131-17.183,15.932-31.38,21.291-43.231   C24.436,443.205,14.549,444.367,8.121,445.939z"></path><path d="M175.5,455.093c-0.051-0.002-0.103-0.006-0.154-0.011c-6.207-0.567-10.642-5.104-10.784-11.032   c-0.047-1.96,0.423-4,1.397-5.843c-3.939-1.944-5.938-5.258-6.461-8.529c-0.444-2.775,0.123-5.563,1.402-7.92   c-2.727-1.855-4.576-4.837-5.095-8.611c-0.558-4.056,0.594-8.526,3.309-11.81c-1.807-1.835-3.047-4.329-3.498-7.311   c-1.008-6.673,2.366-15.191,10.605-17.835c0.062-0.021,0.125-0.038,0.188-0.056c7.029-1.881,20.505-3.238,27.034-3.816V358   c0-0.061,0.001-0.121,0.004-0.182c0.551-12.121,9.867-20.807,17.882-21.022c0.101-0.002,0.201-0.004,0.302-0.004   c5.116,0,10.812,3.494,11.792,13.36l1.886,23.992c15.014,14.292,20.322,26.744,29.771,48.907c1.803,4.23,3.799,8.905,6.063,14.059   c13.52-1.757,23.854-1.141,31.282,0.169c-23.18-80.797-68.977-115.652-103.252-130.664C181.246,319.89,167.119,328,151.443,328   c-15.676,0-29.803-8.11-37.73-21.384c-34.275,15.012-80.071,49.867-103.25,130.662c7.428-1.31,17.761-1.925,31.28-0.168   c2.264-5.154,4.26-9.829,6.063-14.059c9.449-22.163,14.757-34.615,29.771-48.907l1.879-23.91   c1.008-10.142,6.916-13.552,12.102-13.438c8.016,0.216,17.331,8.901,17.882,21.022c0.002,0.061,0.004,0.121,0.004,0.182v14.319   c6.529,0.578,20.005,1.936,27.034,3.816c0.116,0.031,0.23,0.067,0.343,0.108c8.158,2.991,11.665,11.865,10.342,18.717   c-0.509,2.635-1.664,4.838-3.289,6.486c2.639,3.271,3.76,7.689,3.209,11.701c-0.519,3.777-2.37,6.76-5.092,8.616   c1.277,2.355,1.843,5.142,1.399,7.915c-0.524,3.27-2.523,6.585-6.462,8.528c0.974,1.842,1.444,3.883,1.397,5.843   c-0.143,5.929-4.577,10.465-10.784,11.032c-0.051,0.005-0.103,0.009-0.154,0.011c-4.703,0.249-12.002,0.977-15.42,1.909   L94.328,487.99h114.23l-17.638-30.988C187.5,456.067,180.202,455.341,175.5,455.093z"></path><path d="M107.647,450.042c4.756-2.058,16.658-2.796,19.231-2.934c3.047-0.308,3.427-2.372,3.448-3.251   c0.038-1.594-0.902-3.587-3.662-3.996c-3.274-0.297-7.583,0.014-7.627,0.018c-2.199,0.147-4.121-1.489-4.286-3.692   c-0.164-2.202,1.487-4.121,3.69-4.286c0.207-0.015,5.073-0.37,9.037,0c2.276,0.125,7.451,0.015,8.011-3.487   c0.304-1.902-0.878-4.075-2.458-4.628l-0.146-0.013c-2.946-0.277-8.432-0.791-12.383,0.293c-0.354,0.097-0.71,0.144-1.061,0.144   c-1.757,0-3.367-1.166-3.855-2.942c-0.584-2.13,0.668-4.331,2.799-4.916c5.359-1.473,11.792-0.868,15.248-0.543l0.61,0.057   c2.864,0.214,4.536-1.06,4.914-3.807c0.418-3.041-1.181-6.732-4.495-7.393c-4.63-1.006-15.353-1.666-15.461-1.673   c-2.205-0.134-3.884-2.03-3.75-4.234c0.134-2.206,2.025-3.922,4.235-3.75c0.453,0.027,10.891,0.67,16.2,1.741   c0.956-0.01,2.842-0.301,3.422-3.304c0.665-3.444-1.093-8.065-5.085-9.63c-8.682-2.268-28.875-3.811-29.079-3.826   c-2.086-0.157-3.699-1.896-3.699-3.988v-17.904c-0.398-7.848-6.33-13.201-10.101-13.303c-0.029,0-0.058-0.001-0.086-0.001   c-2.659,0-3.552,3.336-3.832,6.151l-1.993,25.37c-0.079,1.001-0.531,1.936-1.267,2.618c-14.647,13.593-19.443,24.843-28.999,47.257   c-6.225,14.602-14.604,34.251-29.07,61.802h59.028l20.636-36.256C106.188,450.98,106.851,450.386,107.647,450.042z"></path></g></svg>