<svg xmlns="http://www.w3.org/2000/svg" xmlns:xlink="http://www.w3.org/1999/xlink" version="1.1" fill="#FFFFFF" x="0px" y="0px" viewBox="0 0 488.034 488" style="enable-background:new 0 0 488.034 488;" xml:space="preserve"><g><path d="M320.591,217.937c7.802-13.002,14.24-38.008,17.36-67.253c-20.615-10.757-34.284-24.315-43.607-38.001   c-4.755,1.449-14.5,4.5-20.839,7.033c-0.483,0.192-0.986,0.285-1.483,0.285c-1.231,0-2.428-0.569-3.201-1.6l-6-8   c-1.325-1.768-0.967-4.275,0.8-5.601c1.768-1.324,4.274-0.968,5.601,0.8l4.187,5.583c5.467-2.03,12.082-4.143,16.52-5.515   c-7.215-12.44-11.209-24.599-13.945-34.439c-9.622,23.382-30.036,28.43-31.053,28.667c-1.357,0.316-2.782-0.096-3.76-1.09   c-0.978-0.993-1.368-2.424-1.03-3.775c1.434-5.735,2.338-12.048,2.908-17.717c-10.673,13.305-24.968,18.216-25.763,18.481   c-1.352,0.451-2.842,0.147-3.912-0.796c-1.068-0.944-1.555-2.386-1.274-3.783c1.982-9.912,2.495-18.865,2.528-25.204   c-6.242,8.769-12.51,21.918-14.93,27.563c-0.613,1.432-2.002,2.377-3.56,2.423c-1.513,0.049-2.997-0.815-3.695-2.209   c-2.348-4.697-3.744-9.966-4.531-15.153c-7.576,20.345-16.269,34.582-25.92,50.391c-3.864,6.328-7.855,12.872-12.049,20.225   c3.061,29.859,9.579,55.472,17.508,68.685c10.685,17.807,40.921,46.058,76.57,46.058S309.906,235.743,320.591,217.937z    M188.184,106.87c0.623-2.119,2.848-3.333,4.967-2.707c0.562,0.165,12.559,3.706,21.483,7.02l4.187-5.583   c1.326-1.766,3.834-2.124,5.601-0.8c1.767,1.325,2.125,3.833,0.8,5.601l-6,8c-0.773,1.03-1.97,1.6-3.201,1.6   c-0.497,0-1-0.093-1.483-0.285c-8.604-3.438-23.496-7.834-23.646-7.878C188.771,111.213,187.56,108.989,188.184,106.87z    M179.847,138.688c1.759-1.338,4.269-0.996,5.605,0.762c2.51,3.299,5.362,4.915,8.673,4.899c-4.938-3.614-6.733-8.016-6.833-8.272   c-0.804-2.058,0.212-4.377,2.271-5.181c2.044-0.798,4.349,0.2,5.166,2.231c0.116,0.275,2.157,4.845,8.319,6.915   c0.321-0.026,0.643-0.049,0.97-0.049c6.617,0,12,5.383,12,11.999c0,6.617-5.383,12-12,12c-6.539,0-11.863-5.259-11.988-11.768   c-4.948-0.59-9.419-3.296-12.944-7.931C177.747,142.534,178.089,140.025,179.847,138.688z M177.517,211.248   c-0.725,0.553-1.577,0.82-2.424,0.82c-1.204,0-2.396-0.542-3.183-1.573c-1.336-1.75-1.006-4.25,0.735-5.594   c0.885-0.695,3.213-3.044,3.419-5.576c0.124-1.516-0.53-3.031-2.001-4.633c-1.494-1.627-1.387-4.157,0.241-5.651   c1.626-1.493,4.156-1.387,5.651,0.241c3.79,4.127,4.308,8.139,4.075,10.777C183.46,206.537,178.123,210.785,177.517,211.248z    M205.274,215.437c-1.226,1.836-3.711,2.332-5.548,1.104c-1.685-1.126-3.144-1.515-4.46-1.185   c-2.173,0.542-3.882,2.957-4.357,3.842c-0.724,1.347-2.111,2.119-3.544,2.119c-0.627,0-1.262-0.148-1.854-0.46   c-1.943-1.026-2.703-3.414-1.692-5.365c0.334-0.644,3.433-6.333,9.425-7.876c2.476-0.638,6.383-0.761,10.926,2.272   C206.007,211.115,206.502,213.599,205.274,215.437z M202.951,200.774c-0.107,0-0.215-0.004-0.323-0.013   c-10.404-0.83-13.341-9.852-13.44-14.507c-0.047-2.208,1.705-4.037,3.914-4.084c0.028-0.001,0.058-0.001,0.087-0.001   c2.16,0,3.935,1.72,3.996,3.886c0.043,1.062,0.54,6.29,6.08,6.731c2.202,0.176,3.845,2.104,3.669,4.306   C206.767,199.187,205.016,200.774,202.951,200.774z M272.499,183.992c-2.548,2.638-6.028,4.01-10.034,4.01   c-1.213,0-2.474-0.126-3.771-0.381c-1.954-0.383-3.66-0.975-5.213-1.588c-0.008-0.003-0.016-0.004-0.023-0.007   c-0.007-0.003-0.013-0.007-0.02-0.01c-0.65-0.257-1.28-0.516-1.878-0.767c-2.65-1.113-4.743-1.992-7.558-1.992   c-2.81,0-4.89,0.877-7.523,1.988c-0.589,0.248-1.21,0.505-1.85,0.759c-0.016,0.006-0.028,0.016-0.044,0.022   c-0.017,0.006-0.034,0.008-0.051,0.014c-1.543,0.61-3.239,1.199-5.185,1.58c-5.583,1.098-10.486-0.192-13.806-3.629   c-2.927-3.029-4.153-7.46-3.2-11.563c0.588-2.532,2.918-8.827,11.773-12.849c0.119-0.06,0.23-0.13,0.357-0.178   c0.054-0.021,0.109-0.026,0.163-0.044c4.581-1.979,10.826-3.357,19.367-3.357c8.54,0,14.786,1.374,19.371,3.348   c0.065,0.021,0.132,0.028,0.197,0.053c0.215,0.082,0.412,0.189,0.604,0.302c8.647,4.026,10.943,10.219,11.525,12.726   C276.652,176.532,275.426,180.963,272.499,183.992z M296.003,152.224c-0.125,6.509-5.449,11.768-11.988,11.768   c-6.617,0-12-5.383-12-12c0-6.616,5.383-11.999,12-11.999c0.327,0,0.648,0.023,0.969,0.049c6.269-2.108,8.286-6.827,8.306-6.876   c0.805-2.059,3.126-3.071,5.181-2.271c2.059,0.804,3.074,3.123,2.271,5.181c-0.1,0.257-1.895,4.659-6.833,8.272   c3.308,0.015,6.164-1.599,8.673-4.898c1.337-1.759,3.846-2.101,5.604-0.763c1.759,1.337,2.101,3.847,0.763,5.605   C305.422,148.928,300.951,151.635,296.003,152.224z"></path><path d="M220.135,174.238c-0.346,1.489,0.099,3.097,1.161,4.195c1.37,1.418,3.684,1.893,6.511,1.338   c0.039-0.008,0.074-0.02,0.113-0.027l-4.09-10.768C221.74,170.595,220.553,172.438,220.135,174.238z"></path><path d="M223.906,269.309l-0.579,26.411l20.693,19.608l20.695-19.61l-0.579-26.41c-6.458,1.702-13.189,2.685-20.116,2.685   C237.094,271.994,230.364,271.011,223.906,269.309z"></path><path d="M264.21,168.979l-4.089,10.765c0.038,0.008,0.074,0.02,0.113,0.027c2.825,0.555,5.141,0.08,6.511-1.338   c1.063-1.099,1.507-2.706,1.161-4.194C267.488,172.439,266.301,170.598,264.21,168.979z"></path><path d="M133.864,183.337c3.189,8.677,10.052,14.896,17.409,16.327c-3.869-12.796-6.936-28.501-8.899-45.942   C133.25,158.365,129.426,171.266,133.864,183.337z"></path><path d="M284.015,147.993c-2.206,0-4,1.794-4,3.999c0,2.206,1.794,4,4,4s4-1.794,4-4   C288.015,149.787,286.221,147.993,284.015,147.993z"></path><path d="M235.444,177.024c1.386-0.541,2.888-1.035,4.558-1.365v-11.523c-3.467,0.218-6.427,0.714-8.916,1.416L235.444,177.024z"></path><path d="M217.835,301.535c-17.858,1.467-33.372,10.438-51.242,20.805C142.626,336.242,115.463,352,76.02,352   c-4.438,0-14.812-0.81-22.553-7.606c-4.492,28.01-18.747,48.124-25.301,56.127c2.911,1.507,6.003,2.738,9.255,3.617   c14.887,4.024,56.514,11.693,121.323-3.981c1.221-0.296,2.508,0,3.479,0.797c0.97,0.797,1.51,2.003,1.457,3.258L160.19,488h63.83   V340.301c0-3.826,1.593-7.53,4.371-10.162l9.814-9.3L217.835,301.535z"></path><path d="M412.013,352c-39.442,0-66.604-15.758-90.566-29.66c-17.869-10.367-33.382-19.339-51.24-20.805l-36.313,34.41   c-1.19,1.128-1.873,2.716-1.873,4.355V488h95.823l-3.49-83.789c-0.053-1.254,0.487-2.46,1.457-3.257   c0.971-0.797,2.256-1.093,3.479-0.797c64.811,15.675,106.436,8.005,121.322,3.981c3.252-0.879,6.344-2.11,9.256-3.617   c-6.554-8.004-20.81-28.118-25.301-56.128C426.825,351.19,416.451,352,412.013,352z M252.02,476c-4.418,0-8-3.582-8-8s3.582-8,8-8   c4.418,0,8,3.582,8,8S256.439,476,252.02,476z M252.02,416c-4.418,0-8-3.582-8-8s3.582-8,8-8c4.418,0,8,3.582,8,8   S256.439,416,252.02,416z M252.02,356c-4.418,0-8-3.582-8-8s3.582-8,8-8c4.418,0,8,3.582,8,8S256.439,356,252.02,356z"></path><path d="M456.414,169.747c-0.068-0.141-0.129-0.287-0.181-0.438c-2.571-7.42-6.378-11.714-11.314-12.763   c-5.296-1.131-10.975,1.388-14.575,3.57c1.596,1.502,3.223,3.298,4.864,5.476c1.33,1.765,0.977,4.272-0.787,5.602   c-1.764,1.331-4.272,0.977-5.602-0.787c-4.7-6.237-9.573-9.366-14.096-9.105c-4.115,0.256-8.213,3.424-11.242,8.692   c-5.93,10.524-4.051,20.115,0.878,24.135c3.495,2.852,8.173,2.535,12.766-0.759c-0.54-4.724-2.145-7.537-6.825-9.756   c-1.997-0.946-2.848-3.331-1.901-5.327c0.946-1.997,3.334-2.849,5.327-1.901c9.001,4.266,11.067,11.057,11.533,18.285   c0.004,0.028,0.003,0.056,0.006,0.085c0.135,2.148,0.131,4.333,0.126,6.501c-0.019,8.397-0.04,17.915,6.801,28.265   c2.975,4.502,5.056,9.612,6.186,15.191c5.571,27.514,5.636,73.35,5.636,75.287c0,5.856-0.963,10.633-2.55,14.551   c2.335,31.427,19.113,54.284,25.238,61.655c7.775-5.956,13.478-14.29,15.945-23.852   C503.341,292.111,457.853,173.346,456.414,169.747z"></path><path d="M120.442,266.211c0.96-1.918,3.263-2.735,5.217-1.86c1.956,0.879,2.872,3.144,2.075,5.135   c-0.055,0.141-4.613,12.165-2.836,33.954c1.973-6.269,4.562-12.812,7.794-17.658c1.013-1.519,2.928-2.16,4.649-1.557   c1.724,0.603,2.819,2.297,2.664,4.116c-0.018,0.22-1.627,21.386,8.888,34.863c4.712-2.581,9.255-5.215,13.684-7.784   c17.391-10.088,33.876-19.651,52.792-21.708l0.589-26.891c-26.12-9.558-46.705-30.328-55.368-44.769   c-2.326-3.876-4.517-8.609-6.538-14.071c-11.788-0.166-22.873-8.761-27.696-21.883c-6.134-16.682,0.328-34.813,14.405-40.418   c0.771-0.307,1.592-0.569,2.464-0.799c4.165-7.288,8.114-13.76,11.937-20.022c13.442-22.018,24.06-39.407,32.985-73.861   c0.537-2.072,2.611-3.35,4.703-2.91c2.094,0.445,3.467,2.459,3.114,4.57c-0.03,0.184-2.445,15.238,0.589,28.719   c4.562-9.243,12.129-22.975,19.224-28.526c1.143-0.892,2.679-1.099,4.016-0.537c1.337,0.563,2.265,1.805,2.425,3.246   c0.065,0.591,1.384,12.95-0.977,29.604c7.141-3.98,18.235-12.183,22.983-26.427c0.621-1.862,2.499-3,4.436-2.684   c1.937,0.314,3.359,1.986,3.359,3.948c0,0.713-0.034,15.204-2.558,29.549c7.515-3.938,19.385-13.329,22.605-34.16   c0.286-1.849,1.814-3.252,3.681-3.38c1.87-0.118,3.571,1.057,4.106,2.85c0.639,2.145,1.29,4.638,1.979,7.277   c3.048,11.672,7.185,27.468,17.15,43.197c0.278,0.308,0.504,0.663,0.677,1.057c8.981,13.803,22.545,27.479,43.913,38.195   c1.358,0.29,2.582,0.648,3.705,1.095c14.075,5.604,20.538,23.734,14.405,40.417c-4.824,13.121-15.911,21.716-27.697,21.883   c-2.021,5.462-4.212,10.196-6.538,14.071c-8.664,14.44-29.247,35.21-55.366,44.768l0.589,26.892   c18.915,2.057,35.398,11.62,52.788,21.708c4.421,2.565,8.956,5.195,13.659,7.771c10.483-13.481,8.839-34.625,8.82-34.849   c-0.154-1.819,0.942-3.514,2.666-4.116c1.724-0.604,3.635,0.036,4.647,1.555c3.231,4.847,5.821,11.39,7.794,17.657   c1.776-21.788-2.782-33.815-2.842-33.967c-0.779-1.991,0.143-4.251,2.098-5.12c1.95-0.864,4.242-0.054,5.2,1.859   c5.007,10.015,11.545,17.879,17.289,23.542c-14.277-34.572-13.671-66.846-13.034-100.75c0.129-6.852,0.262-13.937,0.262-21.003   c0-116.053-64.288-168-128-168c-12.875,0-24.063,2.478-34.204,7.574C209.26,7.854,208.644,8,208.02,8   c-26.289,0-48.961,14.713-65.564,42.549C125.162,79.542,116.02,120.156,116.02,168c0,7.066,0.133,14.151,0.262,21.003   c0.636,33.873,1.241,66.12-12.995,100.656C108.988,284.003,115.463,276.17,120.442,266.211z"></path><path d="M248.002,175.659c1.682,0.331,3.195,0.829,4.593,1.373l4.359-11.476c-2.498-0.705-5.469-1.203-8.951-1.421V175.659z"></path><path d="M44.02,320c0-1.938,0.064-47.774,5.637-75.287c1.13-5.581,3.211-10.692,6.186-15.191   c6.841-10.35,6.819-19.867,6.801-28.265c-0.005-2.161-0.008-4.338,0.125-6.479c0.004-0.038,0.003-0.075,0.007-0.113   c0.466-7.226,2.534-14.015,11.532-18.28c1.993-0.948,4.381-0.096,5.327,1.901c0.946,1.996,0.096,4.381-1.901,5.327   c-4.68,2.219-6.284,5.032-6.824,9.757c4.593,3.294,9.269,3.61,12.767,0.758c4.929-4.02,6.807-13.61,0.859-24.166   c-3.012-5.237-7.109-8.405-11.225-8.661c-2.257-0.139-4.585,0.567-6.932,2.071c-0.032,0.021-0.063,0.041-0.096,0.061   c-2.357,1.532-4.731,3.87-7.068,6.973c-1.33,1.763-3.839,2.118-5.602,0.787c-1.764-1.329-2.117-3.837-0.787-5.602   c1.64-2.177,3.267-3.972,4.864-5.475c-3.602-2.183-9.282-4.702-14.577-3.571c-4.937,1.05-8.742,5.344-11.313,12.763   c-0.052,0.15-0.112,0.297-0.181,0.437c-1.439,3.6-46.926,122.365-26.23,202.607c2.466,9.56,8.167,17.892,15.939,23.848   c6.124-7.393,22.912-30.315,25.244-61.649C44.984,330.634,44.02,325.857,44.02,320z"></path><path d="M354.178,183.337c4.438-12.072,0.613-24.972-8.511-29.615c-1.964,17.441-5.03,33.146-8.899,45.943   C344.126,198.234,350.987,192.014,354.178,183.337z"></path><path d="M204.018,155.992c2.206,0,4-1.794,4-4c0-2.205-1.794-3.999-4-3.999s-4,1.794-4,3.999   C200.018,154.198,201.811,155.992,204.018,155.992z"></path></g></svg>