<svg xmlns="http://www.w3.org/2000/svg" fill="#FFFFFF" viewBox="0 0 512 512" x="0px" y="0px"><title>love rain copy 2</title><g data-name="Layer 16"><path d="M180.079,234.787c-20.026,0-36.318,18.081-36.318,40.3S160.053,315.4,180.079,315.4,216.4,297.315,216.4,275.091,200.106,234.787,180.079,234.787Zm0,70.609c-14.512,0-26.318-13.6-26.318-30.305s11.806-30.3,26.318-30.3,26.319,13.594,26.319,30.3S194.591,305.4,180.079,305.4Z"></path><path d="M366.569,275.091c0-22.223-16.292-40.3-36.319-40.3s-36.318,18.081-36.318,40.3S310.224,315.4,330.25,315.4,366.569,297.315,366.569,275.091ZM330.25,305.4c-14.511,0-26.318-13.6-26.318-30.305s11.807-30.3,26.318-30.3,26.319,13.594,26.319,30.3S344.762,305.4,330.25,305.4Z"></path><path d="M444.874,424.71a14.217,14.217,0,0,0-3.251-23.159V298.971c0-.08.006-.161.006-.242V218.388A186.462,186.462,0,0,0,252.691,31.944c-49.4.641-95.731,20.773-130.449,56.687A189.64,189.64,0,0,0,68.707,221.094v180.55a14.225,14.225,0,0,0-3.166,22.968A37.592,37.592,0,0,0,67,476.24l23.051,23.053a5,5,0,0,0,7.071,0l23.053-23.053a37.589,37.589,0,0,0,1.543-51.526,14.217,14.217,0,0,0-3.254-23.167V393.6L134,411.232a5,5,0,0,0,3.751,1.694,4.916,4.916,0,0,0,.878-.078,5,5,0,0,0,3.785-3.117l4.247-10.973,14.7,12.923a4.945,4.945,0,0,0,1.284.8,146.373,146.373,0,0,0,184.593.368,4.989,4.989,0,0,0,2.464-1.169l14.7-12.923,4.247,10.973a5,5,0,0,0,8.414,1.5l14.81-16.806v7.215a14.225,14.225,0,0,0-3.169,22.974,37.647,37.647,0,0,0,1.458,51.625l23.051,23.053a5,5,0,0,0,7.072,0l23.052-23.053A37.645,37.645,0,0,0,444.874,424.71Zm-5.417-10.445a4.267,4.267,0,0,1-4.262,4.263H398.484a4.263,4.263,0,1,1,0-8.526H435.2A4.268,4.268,0,0,1,439.457,414.265ZM75.329,410H112.04a4.263,4.263,0,0,1,0,8.526H75.329a4.263,4.263,0,1,1,0-8.526Zm45.855,39.651a27.416,27.416,0,0,1-8.084,19.516L93.583,488.686,74.068,469.169a27.6,27.6,0,0,1,0-39.029c.531-.531,1.118-1.056,1.8-1.612h35.448c.678.557,1.265,1.083,1.792,1.608A27.423,27.423,0,0,1,121.184,449.653Zm-4.677-130.041a5,5,0,0,0-8.046,3.966V400H78.707V221.094c0-97.538,78.107-177.9,174.114-179.15.79-.011,1.576-.016,2.364-.016a176.463,176.463,0,0,1,176.444,176.46v80.093c0,.08-.006.161-.006.242V400H401.868V322.454a5,5,0,0,0-8.183-3.856,45.436,45.436,0,0,1-6.905,4.73,45.985,45.985,0,0,1-19,5.676,97.86,97.86,0,0,0,18.245-25.284,96.806,96.806,0,0,0,10.062-37.308,5,5,0,0,0-.341-2.16,87.911,87.911,0,0,0-4.781-10.147,154.208,154.208,0,0,0-61.356-60.934l-34.5-18.768a5,5,0,0,0-5.449.437,201.607,201.607,0,0,0-54.828,65.119,150.319,150.319,0,0,1,2.006-35.817,148.475,148.475,0,0,1,5.473-21.444,5,5,0,0,0-6.661-6.2,355.488,355.488,0,0,0-39.9,19.588c-.085.048-.168.1-.25.152a276.315,276.315,0,0,0-68.953,64.049l-.2.258a87.391,87.391,0,0,0-10.873,18.687,5,5,0,0,0-.271,3.1A96.516,96.516,0,0,0,141.134,329a45.961,45.961,0,0,1-19-5.676A45.414,45.414,0,0,1,116.507,319.612Zm202.419-98.469c-12.141,9.373-21.421,11.917-24.252,11.612.423-2.821,5.231-11.15,17.372-20.523a73.05,73.05,0,0,1,14.855-9.1c2.115,1.2,4.2,2.431,6.246,3.726A67.941,67.941,0,0,1,318.926,221.143ZM195.144,208.527c1.658,1.1,3.383,2.317,5.18,3.705,12.141,9.373,16.949,17.7,17.372,20.523-2.836.307-12.112-2.239-24.253-11.612a84.113,84.113,0,0,1-7.2-6.208Q190.622,211.644,195.144,208.527Zm-16.821,12.6c1.077,1.082,2.2,2.158,3.379,3.223-.263,0-.522-.02-.786-.02a50.648,50.648,0,0,0-7.053.5Q176.073,222.959,178.323,221.129Zm46.5,19q.372,6.112,1.212,12.208a50.6,50.6,0,0,0-6.369-9.78A9.732,9.732,0,0,0,224.827,240.131Zm2.161-37.731a160.682,160.682,0,0,0-2.324,21.4c-.408-.708-.846-1.432-1.353-2.192-3.788-5.673-9.781-11.815-16.875-17.292-.7-.538-1.4-1.056-2.1-1.566,8.24-4.579,16.723-8.869,25.378-12.783C228.632,194.107,227.72,198.262,226.988,202.4Zm-90.93,196.045-17.6-19.967V351.927a146.73,146.73,0,0,0,21.218,37.16Zm119.107,36.988h0c-62.836,0-115.9-42.618-131.818-100.465a57.233,57.233,0,0,0,31.172,3.328,5,5,0,0,0,2.185-8.886,87.919,87.919,0,0,1-24.87-30.16,87,87,0,0,1-6.5-17.594,77.565,77.565,0,0,1,5.284-9.711c-.05.916-.08,1.838-.08,2.766a4.414,4.414,0,0,0,8.827,0,41.294,41.294,0,0,1,6.474-22.231q4.964-5.679,10.231-11.055a41.534,41.534,0,0,1,66.4,33.286,4.413,4.413,0,0,0,8.826,0,50.3,50.3,0,0,0-1.621-12.69,4.978,4.978,0,0,0,6.827-2.482,194.757,194.757,0,0,1,37.751-57.374,192.126,192.126,0,0,1,18.967-17.4l23.117,12.576a92.452,92.452,0,0,0-10.4,6.979c-7.1,5.477-13.088,11.619-16.875,17.292-6.127,9.179-4.756,14.547-2.527,17.434a9.353,9.353,0,0,0,5.852,3.459,50.143,50.143,0,0,0-11.678,32.21,4.414,4.414,0,0,0,8.827,0,41.554,41.554,0,1,1,83.107,0,4.413,4.413,0,0,0,8.826,0,50.436,50.436,0,0,0-50.379-50.379c-.137,0-.27.009-.406.01A71.137,71.137,0,0,0,341.4,212.5a144.164,144.164,0,0,1,40.815,46.446,77.837,77.837,0,0,1,3.817,7.951,86.819,86.819,0,0,1-8.949,32.355,87.917,87.917,0,0,1-24.87,30.161,5,5,0,0,0,2.185,8.886,57.115,57.115,0,0,0,32.776-4.019C371.481,392.475,318.25,435.433,255.165,435.433ZM375,398.445l-3.861-9.976,0-.009a146.733,146.733,0,0,0,20.735-36.532V379.3Zm61.264,70.724-19.518,19.517-19.515-19.517a27.631,27.631,0,0,1,0-39.031c.528-.528,1.115-1.053,1.793-1.61h35.448c.677.555,1.263,1.08,1.792,1.608A27.632,27.632,0,0,1,436.262,469.169Z"></path><path d="M256.513,351.757c-25.389,0-46.813,22.819-46.813,37.15a5,5,0,0,0,5,5h83.624a5,5,0,0,0,5-5C303.324,374.576,281.9,351.757,256.513,351.757ZM221.1,383.907c4.313-9.014,18.179-22.15,35.415-22.15s31.1,13.136,35.415,22.15Z"></path></g></svg>