<svg xmlns="http://www.w3.org/2000/svg" fill="#FFFFFF" viewBox="0 0 512 512" x="0px" y="0px"><title>love charger copy 2</title><g data-name="Layer 16"><path d="M297.672,362.168H214.048a5,5,0,0,0-5,5c0,14.509,20.125,25.452,46.812,25.452s46.812-10.943,46.812-25.452A5,5,0,0,0,297.672,362.168ZM255.86,382.62c-16.282,0-29.383-4.872-34.5-10.452h68.993C285.243,377.748,272.141,382.62,255.86,382.62Z"></path><path d="M255.864,31.252C153.049,31.252,69.4,114.9,69.4,217.712V420.078a5,5,0,0,0,2.8,4.49l24.42,11.958a5,5,0,0,0,7.2-4.49v-6.855l6.125,9.553a5,5,0,0,0,4.209,2.3h13.138a5,5,0,0,0,5-5V422.8h46.477a146.329,146.329,0,0,0,154.2,0h46.467v9.237a5,5,0,0,0,5,5H397.57a5,5,0,0,0,4.209-2.3l6.125-9.553v6.855a5,5,0,0,0,7.2,4.49l24.42-11.958a5,5,0,0,0,2.8-4.49V217.712C442.324,114.9,358.678,31.252,255.864,31.252ZM132.294,412.8V377.021A147.88,147.88,0,0,0,164.566,412.8Zm247.139,0h-32.28a147.884,147.884,0,0,0,32.28-35.776Zm0-56.375A136.854,136.854,0,0,1,255.86,434.757h0a136.858,136.858,0,0,1-123.566-78.305V278.218a4.393,4.393,0,0,0,7.066-3.506,41.433,41.433,0,0,1,13.488-30.6h4.022a42.2,42.2,0,0,0-12.414,30.3c0,22.223,16.292,40.3,36.319,40.3s36.318-18.081,36.318-40.3a42.206,42.206,0,0,0-12.413-30.3h4.294a41.424,41.424,0,0,1,13.493,30.6,4.413,4.413,0,0,0,8.826,0,50.074,50.074,0,0,0-10.41-30.6h34.228a5,5,0,0,0,4.9-4.009l4.23-20.916,3.668,20.793a5,5,0,0,0,4.924,4.132h60.341a5,5,0,0,0,4.9-4.009l4.23-20.916,3.316,18.795-52.814,32.987a4.413,4.413,0,0,0,.5,7.753l69.471,31.927a4.413,4.413,0,0,0,3.685-8.02l-62.035-28.51,48.044-30.007h22.611l4.354,7.876ZM132.294,261.539V257.6l7.458-13.489h1.2A50.242,50.242,0,0,0,132.294,261.539Zm56.484-27.624.22,1.252a32.8,32.8,0,0,0-5.856-.96l.2-.972A41.424,41.424,0,0,1,188.778,233.915Zm-3.679-9.386,1.08-5.343.978,5.543C186.477,224.643,185.787,224.587,185.1,224.529Zm21.994,49.888c0,16.71-11.806,30.3-26.318,30.3s-26.319-13.594-26.319-30.3,11.806-30.3,26.319-30.3S207.093,257.707,207.093,274.417ZM432.324,416.959,417.9,424.02v-15.9a5,5,0,0,0-9.209-2.7l-13.858,21.615h-5.4V250.7a5,5,0,0,0-.624-2.419L382.4,236.693a5,5,0,0,0-4.376-2.581H368.01a4.4,4.4,0,0,0-5.732-6.533l-7.51,4.69-7.2-40.834a5,5,0,0,0-9.825-.122l-8.655,42.8H277.029L269.5,191.436a5,5,0,0,0-9.825-.123l-8.655,42.8H198.967l-7.529-42.677a5,5,0,0,0-9.825-.122l-8.655,42.8H136.8a5,5,0,0,0-4.375,2.581l-9.51,17.2a4.989,4.989,0,0,0-.624,2.419V427.036h-5.4l-13.859-21.615a5,5,0,0,0-9.209,2.7v15.9L79.4,416.959V217.712c0-97.3,79.161-176.46,176.462-176.46s176.46,79.16,176.46,176.46Z"></path></g></svg>