<svg xmlns="http://www.w3.org/2000/svg" fill="#FFFFFF" viewBox="0 0 512 512" x="0px" y="0px"><title>love present copy 2</title><g data-name="Layer 16"><path d="M312.987,354.414c-9.834,8.14-30.453,21.692-58.02,21.083a82.975,82.975,0,0,1-30.43-6.591,4.413,4.413,0,1,0-3.426,8.134,91.753,91.753,0,0,0,33.657,7.281c.684.016,1.36.023,2.035.023,29.407,0,51.273-14.406,61.812-23.132a4.413,4.413,0,1,0-5.628-6.8Z"></path><path d="M181.157,234.407c-20.026,0-36.318,18.081-36.318,40.3s16.292,40.305,36.318,40.305,36.319-18.081,36.319-40.305S201.184,234.407,181.157,234.407Zm0,70.609c-14.512,0-26.318-13.6-26.318-30.305s11.806-30.3,26.318-30.3,26.319,13.6,26.319,30.3S195.67,305.016,181.157,305.016Z"></path><path d="M331.328,234.407c-20.026,0-36.318,18.081-36.318,40.3s16.292,40.305,36.318,40.305,36.319-18.081,36.319-40.305S351.355,234.407,331.328,234.407Zm0,70.609c-14.512,0-26.318-13.6-26.318-30.305s11.806-30.3,26.318-30.3,26.319,13.6,26.319,30.3S345.84,305.016,331.328,305.016Z"></path><path d="M485.935,356.328,442.7,217.235C442.278,114.776,358.8,31.548,256.247,31.548S70.224,114.766,69.8,217.217L26.55,356.329a5,5,0,0,0,8.682,4.6c10.014-12.537,22.209-26.533,28.775-32.6,3.528,16.688,13.226,57.137,13.7,59.133a5,5,0,0,0,8.064,2.675l37.026-30.87a146.787,146.787,0,0,0,14.524,24.883l1.757,28.27a5,5,0,0,0,8.981,2.7l7.606-10.079a146.426,146.426,0,0,0,201.147,0l7.605,10.078a5,5,0,0,0,8.981-2.7l1.757-28.269a146.829,146.829,0,0,0,14.525-24.884l37.025,30.869a5,5,0,0,0,8.064-2.674c.479-2,10.177-42.445,13.7-59.134,6.567,6.067,18.761,20.062,28.776,32.6a5,5,0,0,0,8.681-4.6ZM79.785,218.008c0-97.3,79.16-176.46,176.462-176.46s176.46,79.16,176.46,176.46v49.448l-16.961-51.025A5,5,0,0,0,406,218.008v60.966l-35.05-63.386c-.039-.07-.08-.14-.122-.209l-37.878-61.266a5,5,0,0,0-8.33-.266A314.135,314.135,0,0,0,270.77,285.755l-75.123-99.627a5.018,5.018,0,0,0-.737-1.422l-12.369-16.649a5,5,0,0,0-8.247.321l-29.509,46.97q-.073.118-.141.24L109.6,278.974V218.008a5,5,0,0,0-9.688-1.739L79.785,270.5ZM340.8,195.225c-1.64,2.335-9.665,7.635-24.716,10.589a82.614,82.614,0,0,1-10.94,1.436q2.781-5.987,5.817-11.848c.953-.221,1.932-.435,2.954-.636C328.969,191.812,338.4,193.683,340.8,195.225Zm-23.665-11.138q5.336-9.3,11.326-18.214l11.406,18.447C333.625,182.82,325.453,182.9,317.139,184.087Zm-128.494,9.366,9.652,12.8c-.8-.134-1.6-.275-2.439-.439-15.051-2.954-23.077-8.254-24.716-10.589C173,194.035,179.061,192.663,188.645,193.453Zm-12.065-9.915,2.293-3.65,2.47,3.325C179.7,183.255,178.1,183.362,176.58,183.538ZM85.563,377.3c-4.917-20.644-12.077-51.226-12.846-56.539a5.932,5.932,0,0,0-4.285-5.011c-3.693-1-7.421-.177-24.83,19.638l-.108.122,26.291-84.573v47.413a5,5,0,0,0,9.687,1.739L99.6,245.857v52.492a5,5,0,0,0,9.375,2.42l.587-1.061a145.939,145.939,0,0,0,9.228,49.894Zm62.662,21.014-.054-.865c.129.141.261.279.39.419Zm216.036,0-.336-.445c.129-.14.261-.278.39-.419Zm28.686-99.964c0,75.379-61.325,136.7-136.7,136.7h0c-75.379,0-136.7-61.325-136.7-136.7V281.654l16.834-30.444a50.051,50.051,0,0,0-5.837,23.5,4.413,4.413,0,1,0,8.826,0,41.554,41.554,0,0,1,83.107,0,4.414,4.414,0,1,0,8.827,0,50.363,50.363,0,0,0-94.171-24.862l16.2-29.3L164.5,202.764a28.941,28.941,0,0,0,6.6,4.943c5.924,3.38,14.031,6.193,22.826,7.92a93.261,93.261,0,0,0,12.654,1.617l63.427,84.116a5,5,0,0,0,8.944-2.321l.824-5.919q1.055-7.563,2.5-15.06a4.39,4.39,0,0,0,7.257-3.349,41.554,41.554,0,0,1,83.108,0,4.413,4.413,0,1,0,8.826,0,50.363,50.363,0,0,0-90.778-30.067q4.342-13.871,9.989-27.285c.169,0,.333.009.5.009a88.714,88.714,0,0,0,16.831-1.741c8.8-1.727,16.9-4.54,22.826-7.92,4.636-2.646,7.293-5.276,8.733-7.695l12.687,20.521,30.687,55.5Zm75.936,37.037c-17.41-19.818-21.136-20.645-24.83-19.638a5.931,5.931,0,0,0-4.284,5.011c-.77,5.314-7.929,35.9-12.846,56.539L393.7,349.6a146,146,0,0,0,9.245-51.253v-4.233l3.679,6.653a5,5,0,0,0,9.375-2.42V248.9l16.961,51.024a5,5,0,0,0,9.745-1.577v-47.4l26.285,84.556Z"></path></g></svg>