<svg xmlns="http://www.w3.org/2000/svg" fill="#FFFFFF" viewBox="0 0 512 512" x="0px" y="0px"><title>love drink copy 2</title><g data-name="Layer 16"><path d="M235.5,375.051c-2.286.259-4.528,1.845-4.413,4.414.1,2.168,1.956,4.691,4.413,4.413a51.3,51.3,0,0,1,10.878-.082q.521.054,1.041.119c.111.019.784.113.812.118q1.291.206,2.572.477a52.921,52.921,0,0,1,5.267,1.4q1.247.4,2.471.863c.408.154.814.314,1.218.477l.115.047c.212.092.425.185.636.28q2.385,1.074,4.657,2.382a51.266,51.266,0,0,1,4.39,2.838c.3.216.6.437.889.66.106.087.561.449.636.511.788.645,1.552,1.317,2.3,2.007a4.413,4.413,0,0,0,6.241-6.242A56.639,56.639,0,0,0,235.5,375.051Z"></path><path d="M497.941,345.736a5,5,0,0,0-4-4.49L442.6,330.967V217.817A186.46,186.46,0,0,0,253.668,31.373c-49.4.641-95.733,20.773-130.452,56.687A189.635,189.635,0,0,0,69.68,220.523V330.967L18.343,341.246a5,5,0,0,0-.792,9.578L57.71,366.052,26.861,403.32a5,5,0,0,0,3.852,8.189H77.756l-3.061,45.914a5,5,0,0,0,8.548,3.846l64.036-64.9a146.432,146.432,0,0,0,217.723,0l64.037,64.9a5,5,0,0,0,8.548-3.846l-3.061-45.914h47.043a5,5,0,0,0,3.852-8.189l-30.848-37.268,40.158-15.228A5,5,0,0,0,497.941,345.736Zm-460.587,1.9,32.326-6.472v7.512a85.16,85.16,0,0,0,1.11,13.711,5,5,0,0,0-3-3.208Zm48.214,97.037,2.522-37.834a5,5,0,0,0-4.989-5.332H41.342L69.87,367.044a5,5,0,0,0,1.136-3.429A83.3,83.3,0,0,0,109.2,419.863a5.1,5.1,0,0,0,.559.3Zm31.271-31.694V371.07l15.6,5.85q3.9,6.1,8.362,11.771Zm139.3,21.882h0A136.51,136.51,0,0,1,149.2,383.2l30.1,11.284a5,5,0,0,0,5.414-8.089,134.3,134.3,0,0,1-36.141-91.83c0-.66.019-1.32.031-1.981,5.98,13.175,18.276,22.239,32.451,22.239,20.026,0,36.319-18.081,36.319-40.3s-16.293-40.305-36.319-40.305a34.073,34.073,0,0,0-23.2,9.327l1.007-4.014a41.513,41.513,0,0,1,63.612,35.183,4.413,4.413,0,0,0,8.826,0,50.312,50.312,0,0,0-69.588-46.54l5.8-23.121c6.278,4.621,16.172,8.155,26.319,10.147a89.668,89.668,0,0,0,16.951,1.766,41.738,41.738,0,0,0,13.5-1.908l28.645,24.169a5,5,0,0,0,6.448,0L287.839,215.2a42.771,42.771,0,0,0,13.119,1.763A89.687,89.687,0,0,0,317.91,215.2c10.4-2.042,20.53-5.7,26.778-10.5L350.61,228.3a50.327,50.327,0,0,0-69.905,46.415,4.413,4.413,0,0,0,8.826,0,41.511,41.511,0,0,1,63.952-34.965l.955,3.8a34.08,34.08,0,0,0-23.214-9.335c-20.027,0-36.319,18.081-36.319,40.305s16.292,40.3,36.319,40.3c14.179,0,26.478-9.07,32.456-22.251.008.415.026.833.028,1.245A134.221,134.221,0,0,1,327.57,386.4a5,5,0,0,0,5.415,8.089l30.077-11.276A136.5,136.5,0,0,1,256.139,434.863Zm-101.4-160.342c0-16.71,11.807-30.305,26.319-30.305s26.319,13.595,26.319,30.305-11.807,30.3-26.319,30.3S154.734,291.231,154.734,274.521Zm43.188-80.185c.821.162,1.615.332,2.394.506L214.484,206.8a70.668,70.668,0,0,1-18.731-1.411c-15.05-2.955-23.076-8.255-24.716-10.59C173.439,193.253,182.874,191.384,197.922,194.336ZM172.87,183.685l.017-.067a6.331,6.331,0,0,1,10.22-3.3l2.973,2.509A53.912,53.912,0,0,0,172.87,183.685ZM340.7,194.8c-1.64,2.335-9.666,7.635-24.715,10.59a71.717,71.717,0,0,1-18.228,1.449l14.4-12.146c.55-.119,1.092-.24,1.663-.352C328.862,191.381,338.3,193.254,340.7,194.8Zm-14.472-11.983,2.95-2.49a6.329,6.329,0,0,1,10.219,3.3l.049.2A51.917,51.917,0,0,0,326.227,182.812Zm31.316,91.709c0,16.71-11.807,30.3-26.319,30.3s-26.319-13.594-26.319-30.3,11.807-30.305,26.319-30.305S357.543,257.811,357.543,274.521Zm37.9,138.459-23.97-24.294q4.455-5.664,8.352-11.76l15.618-5.855Zm3.244-53.805-51.866,19.444a144.1,144.1,0,0,0,26.887-84.856,129.732,129.732,0,0,0-4.072-30.735L349.1,181.185a16.328,16.328,0,0,0-26.367-8.5l-66.586,56.181L189.556,172.68a16.328,16.328,0,0,0-26.368,8.5l-20.893,83.248a123.906,123.906,0,0,0-3.724,30.139,144.191,144.191,0,0,0,26.893,84.048L113.6,359.175a5,5,0,0,0-6.756,4.681v42.068A73.381,73.381,0,0,1,79.68,348.678V220.523c0-97.539,78.109-177.906,174.118-179.15A176.461,176.461,0,0,1,432.6,217.817V348.678a73.381,73.381,0,0,1-27.159,57.246V363.856a5,5,0,0,0-6.756-4.681Zm72.253,42.334H429.181a5,5,0,0,0-4.988,5.332l2.521,37.834L402.527,420.16a5.008,5.008,0,0,0,.56-.3,83.3,83.3,0,0,0,38.19-56.257,5,5,0,0,0,1.136,3.438Zm-26.449-42.328a5,5,0,0,0-3,3.215,85.133,85.133,0,0,0,1.112-13.718v-7.512l32.326,6.472Z"></path></g></svg>