<svg xmlns="http://www.w3.org/2000/svg" fill="#FFFFFF" viewBox="0 0 512 512" x="0px" y="0px"><title>love ice cream copy 2</title><g data-name="Layer 16"><path d="M290.949,382.258,256,366.961l-34.948,15.3a4.413,4.413,0,1,0,3.539,8.086L256,376.6l31.408,13.749a4.413,4.413,0,0,0,3.539-8.086Z"></path><path d="M181.1,234.618c-20.027,0-36.319,18.081-36.319,40.3s16.292,40.3,36.319,40.3,36.318-18.081,36.318-40.3S201.123,234.618,181.1,234.618Zm0,70.609c-14.512,0-26.319-13.595-26.319-30.3s11.807-30.3,26.319-30.3,26.318,13.594,26.318,30.3S195.609,305.227,181.1,305.227Z"></path><path d="M367.586,274.922c0-22.223-16.292-40.3-36.318-40.3s-36.319,18.081-36.319,40.3,16.292,40.3,36.319,40.3S367.586,297.146,367.586,274.922Zm-36.318,30.3c-14.512,0-26.319-13.595-26.319-30.3s11.807-30.3,26.319-30.3,26.318,13.594,26.318,30.3S345.78,305.227,331.268,305.227Z"></path><path d="M446.811,354.56l-9.506-68.253a101.013,101.013,0,0,0,5.342-32.471V218.218A186.462,186.462,0,0,0,253.712,31.774c-49.4.641-95.733,20.772-130.452,56.686A189.633,189.633,0,0,0,69.724,220.923v32.913a101.012,101.012,0,0,0,5.337,32.457L65.554,354.56a22.021,22.021,0,0,0,32.67,22.132,72.474,72.474,0,0,0,67.22,45.758H177.69a146.424,146.424,0,0,0,156.975,0h12.256a72.473,72.473,0,0,0,67.219-45.758,22.022,22.022,0,0,0,32.671-22.132ZM79.724,220.923c0-97.539,78.109-177.9,174.117-179.149A176.462,176.462,0,0,1,432.647,218.218v35.618a90.052,90.052,0,0,1-42.323,76.635V218.218a5,5,0,0,0-5-5,77.723,77.723,0,0,1-48.969-17.428l-33.246-27.1a5,5,0,0,0-6.769.416l-21.866,22.809a69.51,69.51,0,0,1-49.941,21.306H127.047a5,5,0,0,0-5,5V330.471a90.051,90.051,0,0,1-42.323-76.635Zm247.737-19.482a84.6,84.6,0,0,1-9.17,2.32c-15.05,2.954-24.484,1.083-26.885-.459,1.64-2.335,9.665-7.634,24.716-10.59.175-.034.342-.062.515-.095ZM105.419,366.707a5,5,0,0,0-3.836-3.577,5.078,5.078,0,0,0-.986-.1,5,5,0,0,0-3.934,1.914,11.931,11.931,0,0,1-21.2-9.008l7.3-52.432a100.009,100.009,0,0,0,32.022,34.168,147.078,147.078,0,0,0,49,74.74A62.413,62.413,0,0,1,105.419,366.707Zm150.763,68.556A136.929,136.929,0,0,1,127.269,344.03a5,5,0,0,0,4.778-4.994V278.073a4.408,4.408,0,0,0,7.5-3.152,41.554,41.554,0,0,1,83.107,0,4.413,4.413,0,1,0,8.826,0,50.374,50.374,0,0,0-99.429-11.457V223.218h92.486a79.56,79.56,0,0,0,57.16-24.386l18.673-19.479,6.494,5.294a69.284,69.284,0,0,0-15.491,6.174c-9.585,5.47-10.759,10.884-10.056,14.464h0c1.412,7.193,10.6,10.056,21.953,10.056a89.668,89.668,0,0,0,16.951-1.766,88.765,88.765,0,0,0,16.755-4.952,87.841,87.841,0,0,0,43.352,14.452v40.42a50.374,50.374,0,0,0-99.436,11.427,4.413,4.413,0,1,0,8.826,0,41.554,41.554,0,0,1,83.107,0,4.409,4.409,0,0,0,7.5,3.146v60.969a4.977,4.977,0,0,0,4.786,4.985A136.938,136.938,0,0,1,256.182,435.263Zm173.573-66.7a11.545,11.545,0,0,1-14.053-3.618,5,5,0,0,0-8.756,1.759,62.415,62.415,0,0,1-58.361,45.708,147.077,147.077,0,0,0,48.991-74.731,100,100,0,0,0,32.029-34.167l7.3,52.422A11.544,11.544,0,0,1,429.755,368.566Z"></path></g></svg>