<svg xmlns="http://www.w3.org/2000/svg" viewBox="0 0 512 512" x="0px" y="0px"><title>love document copy 2</title><g data-name="Layer 16"><path d="M294.845,372.575H217.158a4.413,4.413,0,0,0,0,8.826h77.687a4.413,4.413,0,0,0,0-8.826Z"></path><path d="M442.134,320.292c.438-5.728.685-11.488.685-17.278V218.046A186.462,186.462,0,0,0,253.882,31.6c-49.4.642-95.732,20.775-130.45,56.688A189.638,189.638,0,0,0,69.9,220.753v57.492a4.976,4.976,0,0,0-.361,1.868v22.9c0,5.791.247,11.551.684,17.278L61.048,431.96a5,5,0,0,0,9.056,3.31l15.934-22.377,16.4,41.8a5,5,0,0,0,7.511,2.277l12.15-8.457a227.211,227.211,0,0,0,43.422,40.319,5,5,0,0,0,7.289-6.459l-15.26-28.16A216.653,216.653,0,0,1,146.84,431.3l1.927-1.341,12.291,25.111a5,5,0,0,0,4.054,2.782c.147.014.293.02.438.02a5,5,0,0,0,4.039-2.054l19.684-26.984a146.482,146.482,0,0,0,133.9.128l19.59,26.856a5,5,0,0,0,4.039,2.054c.145,0,.291-.006.438-.02a5,5,0,0,0,4.053-2.782l12.292-25.111,1.927,1.341A216.455,216.455,0,0,1,354.8,454.215l-15.26,28.159a5,5,0,0,0,7.289,6.46,227.152,227.152,0,0,0,43.422-40.319l12.15,8.457a5,5,0,0,0,7.51-2.277l16.405-41.8,15.934,22.377a5,5,0,0,0,9.057-3.31ZM87.93,397.509a5.231,5.231,0,0,0-.611-.037,5,5,0,0,0-4.072,2.1L72.5,414.661l4.45-54.18a228.481,228.481,0,0,0,13.788,38.357A5,5,0,0,0,87.93,397.509Zm21.508,47.638L93.572,404.719a228.634,228.634,0,0,0,22.3,35.948Zm56.957-1.923-11.209-22.9a5,5,0,0,0-7.347-1.9l-4.6,3.2a219.04,219.04,0,0,1-10.281-43.988,147.851,147.851,0,0,0,47.53,46.273Zm89.96-8.133h0a136.887,136.887,0,0,1-125.07-81.578c-.015-1.033-.048-2.064-.048-3.1a326.109,326.109,0,0,1,7.849-71.29H144.8c2.225,19.875,17.529,35.312,36.031,35.312s33.8-15.437,36.025-35.312h10.2a4.413,4.413,0,0,0,0-8.826H141.19a327.374,327.374,0,0,1,18.118-52.426L174.862,182.8a16.91,16.91,0,0,1,25.389-6.831L239.4,204.375a5,5,0,0,0,4.6.668l28.554-10.074a17.005,17.005,0,0,1,18.517,5l8.98,10.578a63.566,63.566,0,0,0-11.2,4.868c-9.584,5.469-10.759,10.884-10.056,14.463,1.412,7.194,10.6,10.057,21.952,10.057a89.682,89.682,0,0,0,16.952-1.767c1.656-.324,3.282-.693,4.877-1.093l28.2,33.221H285.3a4.413,4.413,0,0,0,0,8.826h9.683c2.224,19.875,17.523,35.312,36.025,35.312,11.782,0,22.266-6.261,28.9-15.94a226.512,226.512,0,0,1-13.243,60.142l-4.133,11.227a5,5,0,0,0,8.017,5.462l30.57-27.221v2.307c0,1.3-.038,2.607-.062,3.911A136.875,136.875,0,0,1,256.355,435.091ZM154.874,279.132H206.8c-2.075,14.34-12.926,25.305-25.96,25.305S156.949,293.473,154.874,279.132ZM307.1,218.853l8.151,9.6c-14.743,2.808-23.993.97-26.366-.553C290.264,225.93,296.222,221.853,307.1,218.853Zm49.871,60.28c-2.075,14.34-12.926,25.305-25.96,25.305s-23.885-10.965-25.96-25.306Zm7.55,139.285a5,5,0,0,0-7.347,1.9l-11.21,22.9-13.984-19.171A147.822,147.822,0,0,0,379.3,378.315a219.045,219.045,0,0,1-10.185,43.3Zm-4.469,47.106,3.546-6.544A228.556,228.556,0,0,0,391.12,350.415V336.96a5,5,0,0,0-8.325-3.734l-24.177,21.528a236.493,236.493,0,0,0,12.043-74.641,5,5,0,0,0-1.189-3.236L298.69,193.5a27.063,27.063,0,0,0-29.467-7.961l-26.079,9.2-37.02-26.863a26.909,26.909,0,0,0-40.4,10.87l-15.554,35.073a334.872,334.872,0,0,0-28.929,136.6,228.551,228.551,0,0,0,27.525,108.562l3.547,6.546A218.267,218.267,0,0,1,79.536,303.014V281.981a4.976,4.976,0,0,0,.361-1.868v-59.36c0-97.538,78.108-177.9,174.115-179.151A176.462,176.462,0,0,1,432.819,218.046v84.968A218.263,218.263,0,0,1,360.047,465.524Zm42.87-20.377-6.437-4.481a228.621,228.621,0,0,0,22.3-35.951Zm26.191-45.575a4.983,4.983,0,0,0-7.5-.733A228.418,228.418,0,0,0,435.4,360.48l4.45,54.181Z"></path><path d="M222.456,215.419c-5.925-3.38-14.031-6.193-22.826-7.919s-17.363-2.189-24.127-1.3c-10.94,1.439-14.075,6.008-14.777,9.588-2.08,10.592,15.016,18.875,32.883,22.382a89.68,89.68,0,0,0,16.951,1.767c11.347,0,20.541-2.864,21.953-10.057C233.216,226.3,232.041,220.888,222.456,215.419ZM195.535,228.36c-15.05-2.955-23.076-8.255-24.716-10.59,2.4-1.542,11.833-3.412,26.885-.458s23.076,8.254,24.716,10.589C220.019,229.443,210.587,231.316,195.535,228.36Z"></path></g></svg>