<svg xmlns="http://www.w3.org/2000/svg" fill="#FFFFFF" viewBox="0 0 512 512" x="0px" y="0px"><title>love star copy 2</title><g data-name="Layer 16"><path d="M298.558,373.153a47.1,47.1,0,0,0-18.977-5.848,34.49,34.49,0,0,0-14.146,1.713,32.09,32.09,0,0,1-10.948,1.69,37.17,37.17,0,0,1-11.274-2c-4.064-1.231-8.266-2.5-14.842-1.471a37.875,37.875,0,0,0-15.258,6.116,4.413,4.413,0,0,0,4.917,7.33,29.1,29.1,0,0,1,11.711-4.725c4.581-.721,7.237.083,10.913,1.2a45.834,45.834,0,0,0,13.691,2.376,40.459,40.459,0,0,0,13.577-2.047,25.97,25.97,0,0,1,10.949-1.382,38.33,38.33,0,0,1,15.434,4.783,4.413,4.413,0,0,0,4.253-7.734Z"></path><path d="M180.776,246.729c-14,0-25.389,12.554-25.389,27.983S166.776,302.7,180.776,302.7s25.388-12.554,25.388-27.984S194.775,246.729,180.776,246.729Zm0,45.967c-8.486,0-15.389-8.068-15.389-17.984s6.9-17.983,15.389-17.983,15.388,8.067,15.388,17.983S189.26,292.7,180.776,292.7Z"></path><path d="M330.946,246.729c-14,0-25.388,12.554-25.388,27.983S316.947,302.7,330.946,302.7s25.389-12.554,25.389-27.984S344.945,246.729,330.946,246.729Zm0,45.967c-8.485,0-15.388-8.068-15.388-17.984s6.9-17.983,15.388-17.983,15.389,8.067,15.389,17.983S339.431,292.7,330.946,292.7Z"></path><path d="M386.847,85.3a185.338,185.338,0,0,0-133.46-53.738c-49.4.642-95.732,20.773-130.449,56.688A189.629,189.629,0,0,0,69.4,220.714v77.635a5,5,0,0,0,9.392,2.391l1.265-2.325-2.828,25.877a5,5,0,0,0,8.517,4.067l4.685-4.714,6.594,35.092a5,5,0,0,0,8.605,2.45L117.778,347.9c20.366,56.582,74.573,97.152,138.083,97.152,63.288,0,117.343-40.284,137.873-96.557l11.6,12.691a5,5,0,0,0,8.6-2.45l6.594-35.092,4.685,4.714a5,5,0,0,0,8.517-4.067l-3.008-27.524,2.223,4.007a5,5,0,0,0,9.372-2.426V218.008A185.132,185.132,0,0,0,386.847,85.3ZM105.006,347.05l-6.5-34.6a5,5,0,0,0-8.46-2.6l-1.32,1.328L92.645,275.3l1.323-2.429,5.344,26.465a5,5,0,0,0,9.257,1.465c.207.265.42.523.629.785a146.272,146.272,0,0,0,5.1,35.294Zm150.855,88c-70.634,0-128.908-53.854-135.966-122.655a66.656,66.656,0,0,0,30.183,12.878,4.935,4.935,0,0,0,.819.067,5,5,0,0,0,3.459-8.608,82.93,82.93,0,0,1-20.979-31.317,91.2,91.2,0,0,1-4.768-20.858l24.335-44.011,11.168-17.776c5.705,5.952,17.391,10.489,29.437,12.854l.073.014q3.864,6.715,8.092,13.2a50.348,50.348,0,0,0-71.18,45.867,4.413,4.413,0,1,0,8.826,0,41.554,41.554,0,0,1,83.107,0,4.414,4.414,0,1,0,8.827,0,50.452,50.452,0,0,0-.756-8.634,288.36,288.36,0,0,0,40.09,36.276,5,5,0,0,0,7.91-4.913c-.1-.541-10-54.3-12.818-83.26,3.787,2.523,7.69,4.861,11.676,6.994a142.764,142.764,0,0,0,26.778,10.98,50.375,50.375,0,0,0-23.469,42.557,4.413,4.413,0,1,0,8.826,0,41.554,41.554,0,0,1,83.108,0,4.4,4.4,0,0,0,8.331,1.992,80.92,80.92,0,0,1-2.62,8.714,82.938,82.938,0,0,1-20.979,31.317,5,5,0,0,0,4.278,8.541A66.651,66.651,0,0,0,391.833,312.4C384.777,381.2,326.5,435.053,255.861,435.053ZM182.022,193.221q2.466,5.317,5.134,10.533c-9.724-2.937-15.091-6.67-16.4-8.529C172.172,194.318,176.029,193.305,182.022,193.221Zm-5.831-9.674.922-1.467c.182.44.379.873.562,1.311C177.171,183.434,176.681,183.49,176.191,183.547Zm205.27,91.017a50.211,50.211,0,0,0-2.234-14.709c1.292,1.669,2.59,3.332,3.852,5.03C382.671,268.281,382.128,271.492,381.461,274.564ZM315.2,226.912a5.069,5.069,0,0,0-.275-.595q-2.605-4.691-5-9.5c2.555-.3,5.138-.686,7.7-1.19a91.046,91.046,0,0,0,15.107-4.29q9.9,8.336,19.082,17.479a50.193,50.193,0,0,0-36.617-1.9Zm.5-21.1a83.364,83.364,0,0,1-10.3,1.39q-2.02-4.547-3.847-9.171a78.835,78.835,0,0,1,10.177-2.891q6.009,4.249,11.8,8.763C321.176,204.6,318.573,205.252,315.706,205.815ZM420.924,309.85a5,5,0,0,0-8.46,2.6l-6.5,34.6-8.715-9.532a146.18,146.18,0,0,0,5.276-35.914c.808-1.011,1.619-2.067,2.416-3.169q.663,1.175,1.3,2.333a5,5,0,0,0,9.309-1.6l3.236-19.609,3.456,31.623Zm11.4-30.813-11.212-20.2a5,5,0,0,0-9.305,1.612l-3.989,24.168a5,5,0,0,0-7.068,1.825,67.645,67.645,0,0,1-11.04,14.539,49.552,49.552,0,0,1-13.534,9.426,87.91,87.91,0,0,0,11.565-21.55,102.546,102.546,0,0,0,5.5-24.841,5,5,0,0,0-.942-3.478,326.179,326.179,0,0,0-101.434-90.571,5,5,0,0,0-7.308,5.658c1.06,3.88,2.1,7.4,3.185,10.762A250.562,250.562,0,0,0,300.586,220.5,131.9,131.9,0,0,1,262.9,199.81a5,5,0,0,0-8.072,4.311c.309,4.092.6,7.5.908,10.734,1.979,20.529,7.492,53.411,10.656,71.477a276.238,276.238,0,0,1-83.565-117.041,5,5,0,0,0-8.918-.913L144.4,215.348q-.073.118-.141.24l-25.173,45.525a5,5,0,0,0-.6,2.942,102.61,102.61,0,0,0,5.494,24.8,87.947,87.947,0,0,0,11.566,21.55,49.537,49.537,0,0,1-13.534-9.426,69.452,69.452,0,0,1-9.691-12.231,5,5,0,0,0-4.255-2.375h-.119a4.965,4.965,0,0,0-1.03.132l-5.872-29.082a5,5,0,0,0-9.292-1.4L79.4,278.711v-58c0-97.538,78.108-177.9,174.115-179.15A176.459,176.459,0,0,1,432.324,218.008ZM300.777,187.728q-1.378.444-2.711.927c-.4-1.142-.8-2.282-1.182-3.429C298.193,186.046,299.482,186.891,300.777,187.728Z"></path></g></svg>