<svg xmlns="http://www.w3.org/2000/svg" xmlns:xlink="http://www.w3.org/1999/xlink" version="1.1" fill="#FFFFFF" x="0px" y="0px" viewBox="0 0 100 100" enable-background="new 0 0 100 100" xml:space="preserve"><g><path d="M91.644,51.189l0.15,32.716L79.435,94.144H39.147L21.595,83.39v-26.69L8.206,35.004L21.752,10.03l6.537-4.174l10.271,2.169   l4.547,7.89l2.247-5.745l6.884-4.314l10.471,2.169l6.838,11.657v0.005l10.022,0.647l9.955,13.956l-2.898,12.194L91.644,51.189z    M88.258,82.521L88.12,52.469l-2.386-2.236l-0.103,0.435h-7.544l3.164,9.196l0.122,23.484l-4.687,7.624h1.365L88.258,82.521z    M85.222,34.327l-7.634-10.944l-3.703-0.239l4.255,9.338v2.833h3.254v6.319H78.14v5.861h4.495l0.028-0.143l0.003-0.024   L85.222,34.327z M73.917,83.09l-0.105-23.199l-3.2-9.224H58.399l3.165,9.196l0.121,23.484l-4.687,7.624h11.975L73.917,83.09z    M70.111,47.495v-5.861h-3.439v-6.319h3.439v-1.342l-4.934-10.825l-2.831-0.874l-8.253,0.651l4.357,9.558v2.972h3.036v6.319h-3.036   v5.721H70.111z M60.025,19.373l-0.17-0.232l-2.741-4.679l-3.136-0.649l-1.66,1.039l-2.056,5.261L60.025,19.373z M54.229,83.09   l-0.105-23.199l-3.196-9.224h-5.89l-2.241-4.413l-4.604,11.732V89.72l2.045,1.252h9.048L54.229,83.09z M50.423,47.495v-5.721   h-3.658v-6.319h3.658v-1.481l-4.648-10.197l-8.471,0.869l3.685,10.442l6.306,12.408H50.423z M42.139,44.96l-4.44-8.73l-0.73-2.082   l-4.86,1.167L25.32,47.349l-0.196,34.364l11.978,7.338V57.792L42.139,44.96z M37.108,21.476l-4.036-7.015l-3.078-0.649l-1.85,1.18   L17.43,34.755l5.81,9.27l13.064-22.468L37.108,21.476z M35.899,31.123l-0.555-1.574l-1.198,1.994L35.899,31.123z"></path></g></svg>