<svg xmlns="http://www.w3.org/2000/svg" xmlns:xlink="http://www.w3.org/1999/xlink" version="1.1" fill="#FFFFFF" x="0px" y="0px" viewBox="-1809.113 469.249 100 100" enable-background="new -1809.113 469.249 100 100" xml:space="preserve"><g><circle cx="-1765.717" cy="508.049" r="2.545"></circle></g><g><circle cx="-1752.277" cy="508.049" r="2.545"></circle></g><g><path d="M-1753.765,516.556c-0.372-0.583-1.149-0.755-1.735-0.389c-0.013,0.009-1.318,0.808-3.444,0.808   c-2.13,0-3.54-0.802-3.581-0.826c-0.593-0.356-1.364-0.165-1.725,0.428c-0.361,0.595-0.172,1.37,0.423,1.731   c0.08,0.048,1.99,1.188,4.882,1.188c2.863,0,4.617-1.084,4.807-1.209C-1753.557,517.91-1753.393,517.139-1753.765,516.556z"></path></g><path d="M-1734.434,508.402c-2.206-11.083-12.004-19.463-23.725-19.463c-10.011,0-18.622,6.113-22.295,14.803  c-2.426,16.733,3.015,37.642,1.336,45.92c-0.946,4.612-1.467,9.651-1.467,14.963h5.671c0-20.942,8.276-35.012,16.006-35.012  s16.005,14.068,16.005,35.012h5.671c0-4.046-0.305-7.931-0.865-11.593c-1.618-14.202,2.437-30.554,2.688-32.337  c0.001-0.008,0.005-0.025,0.005-0.025l-0.002,0.002C-1734.861,516.783-1734.474,512.579-1734.434,508.402z M-1758.908,523.943  c-7.509,0.001-13.937-4.756-16.493-11.439c3.748-9.131,9.528-15.492,18.354-19.913c8.108,5.452,12.812,9.872,15.474,16.988  C-1743.182,517.759-1750.342,523.943-1758.908,523.943z"></path><path d="M-1734.551,479.065c-2.587-2.16-7.014-0.945-11.287,2.827c-3.64-1.662-8.339-2.197-14.37-1.149  c-1.12,0.195-2.23,0.453-3.32,0.777c-0.173,0.051-0.566,0.017-0.56,0.024c-5.037-6.028-11.002-8.474-14.182-5.819  c-1.753,1.466-3.058,5.226-3.172,9.146c-0.043,1.491,0.081,3.03,0.456,4.475c0.334,1.29,0.842,2.569,1.615,3.661  c0.2,0.282,0.418,0.551,0.648,0.809c0.232,0.259,0.454,0.532,0.707,0.761c1.022-0.982,2.05-1.96,3.154-2.85  c1.108-0.893,2.287-1.693,3.528-2.389c1.256-0.705,2.57-1.309,3.924-1.8c1.374-0.498,2.79-0.871,4.23-1.115  c1.48-0.25,2.978-0.363,4.475-0.452c3.524-0.21,7.384,0.585,10.635,1.899c3.321,1.343,6.418,3.314,8.929,5.879  c1.38,1.41,2.745,3.005,3.818,4.665c0.303,0.469,0.781,0.034,1.04-0.224c0.358-0.356,0.729-0.721,1.023-1.133  c0.686-0.964,1.111-2.104,1.393-3.245c0.187-0.757,0.298-1.538,0.364-2.314C-1731.128,487.136-1732.288,480.956-1734.551,479.065z   M-1776.605,491.687c-1.678-2.122-1.885-5.057-1.836-6.729c0.101-3.463,1.282-6.25,2.097-6.93c1.433-1.198,5.54,0.493,9.374,4.774  C-1771.353,484.823-1774.452,487.91-1776.605,491.687z M-1734.491,491.241c-0.158,1.846-0.611,3.278-1.297,4.175  c-1.268-4.936-3.542-9.171-7.285-11.91c2.88-2.288,5.51-3.049,6.599-2.138C-1735.547,482.143-1734.104,486.736-1734.491,491.241z"></path></svg>