<svg xmlns="http://www.w3.org/2000/svg" xmlns:xlink="http://www.w3.org/1999/xlink" version="1.1" fill="#FFFFFF" x="0px" y="0px" viewBox="0 0 64 64" style="enable-background:new 0 0 64 64;" xml:space="preserve"><g><path d="M64,34.5c-0.1-1.6-0.4-3.6-1.1-5.5c-0.4-1.1-1-2-1.9-2.9c-0.4-0.5-0.8-1-1.1-1.6L59.5,24l-0.3,0.5   c-0.4,0.7-0.8,1.3-1.4,1.8c-0.4,0.4-0.8,0.8-1,1.3c-0.6,1-1,2.2-1.3,3.7l0,0.1l0.1,0.1c0.6,0.8,1,1.5,1.4,2.4c0,0,0,0.1,0.1,0.2   l0.1,0.3l0.3,0c0.5-0.1,1-0.1,1.5-0.1c0.1,0,0.1,0,0.2,0v2.4c0,0.8,0.6,1.4,1.4,1.4c0.8,0,1.4-0.6,1.4-1.4v-2.3   c0.6,0.1,1.1,0.3,1.6,0.5L64,35L64,34.5z"></path><path d="M47.9,38.7l-0.2,1.8l0.5-0.2c0.8-0.3,1.7-0.5,2.6-0.6v2.4c0,0.8,0.6,1.4,1.4,1.4c0.8,0,1.4-0.6,1.4-1.4v-2.4   c0.9,0.1,1.8,0.3,2.7,0.6l0.5,0.2l0-0.5c-0.1-1.5-0.4-3.6-1.2-5.5c-0.4-1-1-1.9-1.9-2.9c-0.4-0.4-0.8-1-1.1-1.6l-0.3-0.5L52,29.9   c-0.4,0.7-0.8,1.3-1.3,1.8c-0.5,0.4-0.8,0.8-1,1.3C48.6,34.7,48.2,36.8,47.9,38.7z"></path><path d="M42.6,26.2c3,0.6,4.7,3.2,5.6,5.3l0.2,0.5l0.3-0.5c0.2-0.3,0.5-0.6,0.8-0.9c0.3-0.3,0.5-0.6,0.8-0.9l0.1-0.1l0-0.1   c-0.3-0.9-0.8-1.9-1.7-2.8l-0.1-0.1c-0.4-0.4-0.6-0.6-1-0.7c-0.1,0-0.2-0.1-0.3-0.1l-0.1,0c-0.4-0.1-0.8-0.2-1.2-0.4   c-1.2-0.9-1.6-2.5-1.8-3.9c-0.5-2.7-1.9-4.8-3.7-7.1c0,0-0.1-0.1-0.1-0.1l-0.1-0.2L39.9,14c-0.1,0-0.2,0.1-0.4,0.2   c-0.6,0.4-1.2,1-1.6,1.5c-0.5,0.6-0.8,1.2-1.2,2l0,0.1l0,0.1C36.8,18.7,38.6,25.5,42.6,26.2z"></path><path d="M1.9,38.1C3,38.2,4.3,38.4,5.4,39c1,0.6,2.4,0.9,4.1,0.9c1.7,0,3.8-0.3,6.2-1c1.9-0.5,3.7-0.5,5.2-0.5c0.9,0,1.9,0,2.8-0.1   c0.8-0.1,1.6-0.4,2.4-0.7c0.8-0.3,1.5-0.6,2.3-0.7c1.1-0.2,2.2-0.3,3.4-0.3c0.6,0,1.3,0,1.9,0.1c1.5,0.1,2.8,0.4,4,0.8   c0.5,0.2,0.9,0.3,1.3,0.5l0.3,0.1c1.2,0.5,2.2,0.8,3.6,0.8l0.2,0c0.9,0,1.9-0.1,3.1-0.3l0.2,0l0-0.2c0.2-1,0.4-2.6,1-4.1l0-0.1   l0-0.1c-0.6-2.1-2-5.7-5.2-6.3c-5-1-6.9-8.8-7.2-9.7L35,17.8c-0.1-0.3-0.3-0.5-0.4-0.8c-1.3-2.5-2.6-5.2-4.8-6.8   c-0.4-0.3-0.7-0.4-1.2-0.4c-1.1,0-2.4,1-4.3,3.1c-0.3,0.4-0.5,0.8-0.8,1.2c-0.4,0.6-0.8,1.4-1.5,1.9c-0.5,0.4-1.1,0.7-1.6,0.9   c-0.2,0.1-0.5,0.2-0.7,0.3c-1.9,1-3.9,2.2-4.8,4c-0.5,1-1.1,1.8-1.8,2.4c-0.4,0.3-0.8,0.5-1.1,0.7c-0.4,0.2-0.7,0.4-1,0.8   c-0.7,1.4-1.7,2.2-2.9,2.7c-3,1.1-4.5,4.1-5.7,6.8c-0.4,0.9-1.1,1.6-1.7,2.2L0,37.7l0.5,0.2C0.6,37.9,0.8,38,1,38   C1.3,38.1,1.5,38.1,1.9,38.1z"></path><path d="M46.3,46.3c-0.1-0.3,0-0.6,0.2-0.8c0.2-0.2,0.3-0.3,0.4-0.5l0.2-0.4l-0.5,0c-6.3-0.4-6.9-1.1-7.1-1.8l-0.1-0.5l-0.2,0   c-0.5-0.1-1.3-0.1-2.3-0.1c-1.6,0-3.7,0.1-5.7,0.3l-0.1,0l-0.1,0C29,43.8,24.3,44,20.6,44c-2.2,0-3.9-0.1-4.4-0.1l-0.1,0l-0.1,0   c-2.9,0.9-5.8,1.3-8.8,1.3c-2.6,0-4.4-0.4-4.8-0.4c-0.7,0-1.4,0-1.9,0.1l-0.1,0.6l21.5,8.2c1.4,0.4,3.2,0.6,5.3,0.6   c3.3,0,6.3-0.5,6.9-0.6c0,0,0.1,0,0.1,0c7.2-0.1,22.2-2,28.4-2.8l0.2,0l0-0.6l-16.2-3.3C46.5,46.8,46.3,46.6,46.3,46.3z"></path></g></svg>
