<svg xmlns="http://www.w3.org/2000/svg" fill="#FFFFFF" viewBox="0 0 64 64" x="0px" y="0px"><g data-name="Layer 53"><path d="M58.72,16.68l-26-14a1.49,1.49,0,0,0-1.42,0l-26,14A1.49,1.49,0,0,0,4.49,18V46a1.49,1.49,0,0,0,.79,1.32l26,14a1.49,1.49,0,0,0,1.42,0l26-14A1.49,1.49,0,0,0,59.51,46V18A1.49,1.49,0,0,0,58.72,16.68ZM32,5.7,54.84,18,48.9,21.2l-22-12.73Zm0,24.6L9.16,18l6.46-3.48,22,12.73ZM56.51,45.1l-23,12.39V32.9l6.09-3.28v10a1.51,1.51,0,0,0,2.34,1.24l7.43-5A1.47,1.47,0,0,0,50,34.64V24l6.48-3.49Z"></path></g></svg>