<svg xmlns="http://www.w3.org/2000/svg" xmlns:xlink="http://www.w3.org/1999/xlink" version="1.1" fill="#FFFFFF" x="0px" y="0px" viewBox="0 0 52 52" enable-background="new 0 0 52 52" xml:space="preserve"><g><g><path d="M49,3H3C2.4500122,3,2,3.4500122,2,4v9h48V4C50,3.4500122,49.5499878,3,49,3z M8,10H6V8h2V10z M12,10h-2V8h2V10z M16,10    h-2V8h2V10z M45,10H19V8h26V10z"></path></g><g><path d="M2,45c0,2.210022,1.7999878,4,4,4h40c2.2099609,0,4-1.789978,4-4V15H2V45z M30.0999756,27.0200195    c0-1.1500244,0.8600464-2.1099854,2-2.2199707l9.4400024-0.9800415C42.8599854,23.6799927,44,24.7300415,44,26.0400391v9.9199829    c0,0.5999756-0.2300415,1.1599731-0.6600342,1.5800171c-0.4199829,0.4199829-0.9799805,0.6499634-1.5700073,0.6499634    c-0.0799561,0-0.1499634,0-0.2299805-0.0100098l-9.4400024-0.9799805c-1.1399536-0.1099854-2-1.0700073-2-2.2199707V27.0200195z     M8.2399902,30.3099976l2.4700317-2.9199829c0.1900024-0.2199707,0.4699707-0.3499756,0.7699585-0.3499756h16.6199951v7.9099731    c-0.2299805-0.0100098-0.4400024-0.0800171-0.6099854-0.2299805l-1.0599976-0.9199829l-0.539978,0.75    c-0.1799927,0.2599487-0.4899902,0.4099731-0.8099976,0.4099731h-1.8200073c-0.25,0-0.5-0.0900269-0.6799927-0.2700195    l-0.9700317-0.8899536l-0.6300049,0.789978C20.789978,34.8200073,20.5,34.960022,20.2000122,34.960022H17.789978    c-0.2299805,0-0.4599609-0.0800171-0.6399536-0.2299805l-1.2800293-1.0700073l-1.1099854,1.0299683    c-0.1900024,0.1799927-0.4299927,0.2700195-0.6799927,0.2700195h-2.6700439c-0.2999878,0-0.5899658-0.1400146-0.7799683-0.3699951    l-2.4099731-3.0100098C7.9199829,31.210022,7.9299927,30.6700439,8.2399902,30.3099976z"></path></g><g><path d="M39.0026245,32.4994507c0.5522461,0,1-0.4472656,1-1v-1c0-0.5527344-0.4477539-1-1-1s-1,0.4472656-1,1v1    C38.0026245,32.0521851,38.4503784,32.4994507,39.0026245,32.4994507z"></path></g></g></svg>